<?xml version="1.0" encoding="UTF-8" standalone="no"?>
<!DOCTYPE svg PUBLIC "-//W3C//DTD SVG 1.1//EN"
 "http://www.w3.org/Graphics/SVG/1.1/DTD/svg11.dtd">
<!-- Generated by graphviz version 2.38.0 (20140413.2041)
 -->
<!-- Title: controllers_diagram Pages: 1 -->
<svg width="888pt" height="821pt"
 viewBox="0.00 0.00 888.10 820.60" xmlns="http://www.w3.org/2000/svg" xmlns:xlink="http://www.w3.org/1999/xlink">
<g id="graph0" class="graph" transform="scale(1 1) rotate(0) translate(340.414 424.216)">
<title>controllers_diagram</title>
<polygon fill="white" stroke="none" points="-340.414,396.385 -340.414,-424.216 547.688,-424.216 547.688,396.385 -340.414,396.385"/>
<!-- _diagram_info -->
<g id="node1" class="node"><title>_diagram_info</title>
<text text-anchor="start" x="344.312" y="276.9" font-family="Times,serif" font-size="13.00">Controllers diagram</text>
<text text-anchor="start" x="344.312" y="289.9" font-family="Times,serif" font-size="13.00">Date: Jun 16 2014 &#45; 09:02</text>
<text text-anchor="start" x="344.312" y="302.9" font-family="Times,serif" font-size="13.00">Migration version: 20140615185459</text>
<text text-anchor="start" x="344.312" y="315.9" font-family="Times,serif" font-size="13.00">Generated by RailRoady 1.1.1</text>
<text text-anchor="start" x="344.312" y="328.9" font-family="Times,serif" font-size="13.00">http://railroady.prestonlee.com</text>
</g>
<!-- ApplicationController -->
<g id="node2" class="node"><title>ApplicationController</title>
<path fill="none" stroke="black" d="M-89.8106,17.9217C-89.8106,17.9217 25.831,17.9217 25.831,17.9217 31.831,17.9217 37.831,11.9217 37.831,5.92168 37.831,5.92168 37.831,-62.0783 37.831,-62.0783 37.831,-68.0783 31.831,-74.0783 25.831,-74.0783 25.831,-74.0783 -89.8106,-74.0783 -89.8106,-74.0783 -95.8106,-74.0783 -101.811,-68.0783 -101.811,-62.0783 -101.811,-62.0783 -101.811,5.92168 -101.811,5.92168 -101.811,11.9217 -95.8106,17.9217 -89.8106,17.9217"/>
<text text-anchor="middle" x="-31.9898" y="-58.8783" font-family="Times,serif" font-size="14.00">ApplicationController</text>
<polyline fill="none" stroke="black" points="-101.811,-52.0783 37.831,-52.0783 "/>
<polyline fill="none" stroke="black" points="-101.811,-28.0783 37.831,-28.0783 "/>
<polyline fill="none" stroke="black" points="-101.811,-4.07832 37.831,-4.07832 "/>
<text text-anchor="start" x="-93.8106" y="11.1217" font-family="Times,serif" font-size="14.00">_layout</text>
</g>
<!-- HomeController -->
<g id="node3" class="node"><title>HomeController</title>
<path fill="none" stroke="black" d="M154.651,-67.2438C154.651,-67.2438 238.41,-67.2438 238.41,-67.2438 244.41,-67.2438 250.41,-73.2438 250.41,-79.2438 250.41,-79.2438 250.41,-145.244 250.41,-145.244 250.41,-151.244 244.41,-157.244 238.41,-157.244 238.41,-157.244 154.651,-157.244 154.651,-157.244 148.651,-157.244 142.651,-151.244 142.651,-145.244 142.651,-145.244 142.651,-79.2438 142.651,-79.2438 142.651,-73.2438 148.651,-67.2438 154.651,-67.2438"/>
<text text-anchor="middle" x="196.531" y="-142.044" font-family="Times,serif" font-size="14.00">HomeController</text>
<polyline fill="none" stroke="black" points="142.651,-135.244 250.41,-135.244 "/>
<text text-anchor="start" x="150.651" y="-120.044" font-family="Times,serif" font-size="14.00">index</text>
<polyline fill="none" stroke="black" points="142.651,-113.244 250.41,-113.244 "/>
<polyline fill="none" stroke="black" points="142.651,-89.2438 250.41,-89.2438 "/>
<text text-anchor="start" x="150.651" y="-74.0438" font-family="Times,serif" font-size="14.00">_layout</text>
</g>
<!-- ApplicationController&#45;&gt;HomeController -->
<g id="edge1" class="edge"><title>ApplicationController&#45;&gt;HomeController</title>
<path fill="none" stroke="black" d="M38.1268,-53.9027C71.7141,-66.2731 111.315,-80.8584 142.519,-92.3511"/>
</g>
<!-- LegislationSponsorsController -->
<g id="node4" class="node"><title>LegislationSponsorsController</title>
<path fill="none" stroke="black" d="M-110.638,343.309C-110.638,343.309 53.238,343.309 53.238,343.309 59.238,343.309 65.238,337.309 65.238,331.309 65.238,331.309 65.238,153.309 65.238,153.309 65.238,147.309 59.238,141.309 53.238,141.309 53.238,141.309 -110.638,141.309 -110.638,141.309 -116.638,141.309 -122.638,147.309 -122.638,153.309 -122.638,153.309 -122.638,331.309 -122.638,331.309 -122.638,337.309 -116.638,343.309 -110.638,343.309"/>
<text text-anchor="middle" x="-28.7" y="156.509" font-family="Times,serif" font-size="14.00">LegislationSponsorsController</text>
<polyline fill="none" stroke="black" points="-122.638,163.309 65.238,163.309 "/>
<text text-anchor="start" x="-114.638" y="178.509" font-family="Times,serif" font-size="14.00">create</text>
<text text-anchor="start" x="-114.638" y="192.509" font-family="Times,serif" font-size="14.00">destroy</text>
<text text-anchor="start" x="-114.638" y="206.509" font-family="Times,serif" font-size="14.00">edit</text>
<text text-anchor="start" x="-114.638" y="220.509" font-family="Times,serif" font-size="14.00">index</text>
<text text-anchor="start" x="-114.638" y="234.509" font-family="Times,serif" font-size="14.00">new</text>
<text text-anchor="start" x="-114.638" y="248.509" font-family="Times,serif" font-size="14.00">show</text>
<text text-anchor="start" x="-114.638" y="262.509" font-family="Times,serif" font-size="14.00">update</text>
<polyline fill="none" stroke="black" points="-122.638,269.309 65.238,269.309 "/>
<polyline fill="none" stroke="black" points="-122.638,293.309 65.238,293.309 "/>
<text text-anchor="start" x="-114.638" y="308.509" font-family="Times,serif" font-size="14.00">_layout</text>
<text text-anchor="start" x="-114.638" y="322.509" font-family="Times,serif" font-size="14.00">legislation_sponsor_params</text>
<text text-anchor="start" x="-114.638" y="336.509" font-family="Times,serif" font-size="14.00">set_legislation_sponsor</text>
</g>
<!-- ApplicationController&#45;&gt;LegislationSponsorsController -->
<g id="edge2" class="edge"><title>ApplicationController&#45;&gt;LegislationSponsorsController</title>
<path fill="none" stroke="black" d="M-31.428,18.0956C-31.0178,51.8064 -30.4459,98.8105 -29.9317,141.079"/>
</g>
<!-- LegislationVoicesController -->
<g id="node5" class="node"><title>LegislationVoicesController</title>
<path fill="none" stroke="black" d="M-324.414,-215.96C-324.414,-215.96 -174.811,-215.96 -174.811,-215.96 -168.811,-215.96 -162.811,-221.96 -162.811,-227.96 -162.811,-227.96 -162.811,-335.96 -162.811,-335.96 -162.811,-341.96 -168.811,-347.96 -174.811,-347.96 -174.811,-347.96 -324.414,-347.96 -324.414,-347.96 -330.414,-347.96 -336.414,-341.96 -336.414,-335.96 -336.414,-335.96 -336.414,-227.96 -336.414,-227.96 -336.414,-221.96 -330.414,-215.96 -324.414,-215.96"/>
<text text-anchor="middle" x="-249.612" y="-332.76" font-family="Times,serif" font-size="14.00">LegislationVoicesController</text>
<polyline fill="none" stroke="black" points="-336.414,-325.96 -162.811,-325.96 "/>
<text text-anchor="start" x="-328.414" y="-310.76" font-family="Times,serif" font-size="14.00">down</text>
<text text-anchor="start" x="-328.414" y="-296.76" font-family="Times,serif" font-size="14.00">up</text>
<polyline fill="none" stroke="black" points="-336.414,-289.96 -162.811,-289.96 "/>
<polyline fill="none" stroke="black" points="-336.414,-265.96 -162.811,-265.96 "/>
<text text-anchor="start" x="-328.414" y="-250.76" font-family="Times,serif" font-size="14.00">_layout</text>
<text text-anchor="start" x="-328.414" y="-236.76" font-family="Times,serif" font-size="14.00">legislation_voice_params</text>
<text text-anchor="start" x="-328.414" y="-222.76" font-family="Times,serif" font-size="14.00">set_legislation_voice</text>
</g>
<!-- ApplicationController&#45;&gt;LegislationVoicesController -->
<g id="edge3" class="edge"><title>ApplicationController&#45;&gt;LegislationVoicesController</title>
<path fill="none" stroke="black" d="M-71.6521,-74.3489C-105.612,-113.966 -154.914,-171.484 -193.019,-215.937"/>
</g>
<!-- LegislationsController -->
<g id="node6" class="node"><title>LegislationsController</title>
<path fill="none" stroke="black" d="M140.394,-217.716C140.394,-217.716 258.374,-217.716 258.374,-217.716 264.374,-217.716 270.374,-223.716 270.374,-229.716 270.374,-229.716 270.374,-407.716 270.374,-407.716 270.374,-413.716 264.374,-419.716 258.374,-419.716 258.374,-419.716 140.394,-419.716 140.394,-419.716 134.394,-419.716 128.394,-413.716 128.394,-407.716 128.394,-407.716 128.394,-229.716 128.394,-229.716 128.394,-223.716 134.394,-217.716 140.394,-217.716"/>
<text text-anchor="middle" x="199.384" y="-404.516" font-family="Times,serif" font-size="14.00">LegislationsController</text>
<polyline fill="none" stroke="black" points="128.394,-397.716 270.374,-397.716 "/>
<text text-anchor="start" x="136.394" y="-382.516" font-family="Times,serif" font-size="14.00">create</text>
<text text-anchor="start" x="136.394" y="-368.516" font-family="Times,serif" font-size="14.00">destroy</text>
<text text-anchor="start" x="136.394" y="-354.516" font-family="Times,serif" font-size="14.00">edit</text>
<text text-anchor="start" x="136.394" y="-340.516" font-family="Times,serif" font-size="14.00">index</text>
<text text-anchor="start" x="136.394" y="-326.516" font-family="Times,serif" font-size="14.00">new</text>
<text text-anchor="start" x="136.394" y="-312.516" font-family="Times,serif" font-size="14.00">show</text>
<text text-anchor="start" x="136.394" y="-298.516" font-family="Times,serif" font-size="14.00">update</text>
<polyline fill="none" stroke="black" points="128.394,-291.716 270.374,-291.716 "/>
<polyline fill="none" stroke="black" points="128.394,-267.716 270.374,-267.716 "/>
<text text-anchor="start" x="136.394" y="-252.516" font-family="Times,serif" font-size="14.00">_layout</text>
<text text-anchor="start" x="136.394" y="-238.516" font-family="Times,serif" font-size="14.00">legislation_params</text>
<text text-anchor="start" x="136.394" y="-224.516" font-family="Times,serif" font-size="14.00">set_legislation</text>
</g>
<!-- ApplicationController&#45;&gt;LegislationsController -->
<g id="edge4" class="edge"><title>ApplicationController&#45;&gt;LegislationsController</title>
<path fill="none" stroke="black" d="M4.67207,-74.1308C37.8023,-115.747 87.4957,-178.169 128.387,-229.534"/>
</g>
<!-- LegislatorVotesController -->
<g id="node7" class="node"><title>LegislatorVotesController</title>
<path fill="none" stroke="black" d="M-99.4214,-188.791C-99.4214,-188.791 37.7397,-188.791 37.7397,-188.791 43.7397,-188.791 49.7397,-194.791 49.7397,-200.791 49.7397,-200.791 49.7397,-378.791 49.7397,-378.791 49.7397,-384.791 43.7397,-390.791 37.7397,-390.791 37.7397,-390.791 -99.4214,-390.791 -99.4214,-390.791 -105.421,-390.791 -111.421,-384.791 -111.421,-378.791 -111.421,-378.791 -111.421,-200.791 -111.421,-200.791 -111.421,-194.791 -105.421,-188.791 -99.4214,-188.791"/>
<text text-anchor="middle" x="-30.8408" y="-375.591" font-family="Times,serif" font-size="14.00">LegislatorVotesController</text>
<polyline fill="none" stroke="black" points="-111.421,-368.791 49.7397,-368.791 "/>
<text text-anchor="start" x="-103.421" y="-353.591" font-family="Times,serif" font-size="14.00">create</text>
<text text-anchor="start" x="-103.421" y="-339.591" font-family="Times,serif" font-size="14.00">destroy</text>
<text text-anchor="start" x="-103.421" y="-325.591" font-family="Times,serif" font-size="14.00">edit</text>
<text text-anchor="start" x="-103.421" y="-311.591" font-family="Times,serif" font-size="14.00">index</text>
<text text-anchor="start" x="-103.421" y="-297.591" font-family="Times,serif" font-size="14.00">new</text>
<text text-anchor="start" x="-103.421" y="-283.591" font-family="Times,serif" font-size="14.00">show</text>
<text text-anchor="start" x="-103.421" y="-269.591" font-family="Times,serif" font-size="14.00">update</text>
<polyline fill="none" stroke="black" points="-111.421,-262.791 49.7397,-262.791 "/>
<polyline fill="none" stroke="black" points="-111.421,-238.791 49.7397,-238.791 "/>
<text text-anchor="start" x="-103.421" y="-223.591" font-family="Times,serif" font-size="14.00">_layout</text>
<text text-anchor="start" x="-103.421" y="-209.591" font-family="Times,serif" font-size="14.00">legislator_vote_params</text>
<text text-anchor="start" x="-103.421" y="-195.591" font-family="Times,serif" font-size="14.00">set_legislator_vote</text>
</g>
<!-- ApplicationController&#45;&gt;LegislatorVotesController -->
<g id="edge5" class="edge"><title>ApplicationController&#45;&gt;LegislatorVotesController</title>
<path fill="none" stroke="black" d="M-31.787,-74.2648C-31.6479,-105.961 -31.4577,-149.273 -31.2844,-188.758"/>
</g>
<!-- LegislatorsController -->
<g id="node8" class="node"><title>LegislatorsController</title>
<path fill="none" stroke="black" d="M-304.588,91.6845C-304.588,91.6845 -192.837,91.6845 -192.837,91.6845 -186.837,91.6845 -180.837,85.6845 -180.837,79.6845 -180.837,79.6845 -180.837,-98.3155 -180.837,-98.3155 -180.837,-104.315 -186.837,-110.315 -192.837,-110.315 -192.837,-110.315 -304.588,-110.315 -304.588,-110.315 -310.588,-110.315 -316.588,-104.315 -316.588,-98.3155 -316.588,-98.3155 -316.588,79.6845 -316.588,79.6845 -316.588,85.6845 -310.588,91.6845 -304.588,91.6845"/>
<text text-anchor="middle" x="-248.713" y="-95.1155" font-family="Times,serif" font-size="14.00">LegislatorsController</text>
<polyline fill="none" stroke="black" points="-316.588,-88.3155 -180.837,-88.3155 "/>
<text text-anchor="start" x="-308.588" y="-73.1155" font-family="Times,serif" font-size="14.00">create</text>
<text text-anchor="start" x="-308.588" y="-59.1155" font-family="Times,serif" font-size="14.00">destroy</text>
<text text-anchor="start" x="-308.588" y="-45.1155" font-family="Times,serif" font-size="14.00">edit</text>
<text text-anchor="start" x="-308.588" y="-31.1155" font-family="Times,serif" font-size="14.00">index</text>
<text text-anchor="start" x="-308.588" y="-17.1155" font-family="Times,serif" font-size="14.00">new</text>
<text text-anchor="start" x="-308.588" y="-3.11546" font-family="Times,serif" font-size="14.00">show</text>
<text text-anchor="start" x="-308.588" y="10.8845" font-family="Times,serif" font-size="14.00">update</text>
<polyline fill="none" stroke="black" points="-316.588,17.6845 -180.837,17.6845 "/>
<polyline fill="none" stroke="black" points="-316.588,41.6845 -180.837,41.6845 "/>
<text text-anchor="start" x="-308.588" y="56.8845" font-family="Times,serif" font-size="14.00">_layout</text>
<text text-anchor="start" x="-308.588" y="70.8845" font-family="Times,serif" font-size="14.00">legislator_params</text>
<text text-anchor="start" x="-308.588" y="84.8845" font-family="Times,serif" font-size="14.00">set_legislator</text>
</g>
<!-- ApplicationController&#45;&gt;LegislatorsController -->
<g id="edge6" class="edge"><title>ApplicationController&#45;&gt;LegislatorsController</title>
<path fill="none" stroke="black" d="M-102.054,-22.0125C-127.283,-19.8283 -155.69,-17.369 -180.737,-15.2005"/>
</g>
<!-- UserAddressesController -->
<g id="node9" class="node"><title>UserAddressesController</title>
<path fill="none" stroke="black" d="M127.768,171.448C127.768,171.448 261.292,171.448 261.292,171.448 267.292,171.448 273.292,165.448 273.292,159.448 273.292,159.448 273.292,-18.5519 273.292,-18.5519 273.292,-24.5519 267.292,-30.5519 261.292,-30.5519 261.292,-30.5519 127.768,-30.5519 127.768,-30.5519 121.768,-30.5519 115.768,-24.5519 115.768,-18.5519 115.768,-18.5519 115.768,159.448 115.768,159.448 115.768,165.448 121.768,171.448 127.768,171.448"/>
<text text-anchor="middle" x="194.53" y="-15.3519" font-family="Times,serif" font-size="14.00">UserAddressesController</text>
<polyline fill="none" stroke="black" points="115.768,-8.55187 273.292,-8.55187 "/>
<text text-anchor="start" x="123.768" y="6.64813" font-family="Times,serif" font-size="14.00">create</text>
<text text-anchor="start" x="123.768" y="20.6481" font-family="Times,serif" font-size="14.00">destroy</text>
<text text-anchor="start" x="123.768" y="34.6481" font-family="Times,serif" font-size="14.00">edit</text>
<text text-anchor="start" x="123.768" y="48.6481" font-family="Times,serif" font-size="14.00">index</text>
<text text-anchor="start" x="123.768" y="62.6481" font-family="Times,serif" font-size="14.00">new</text>
<text text-anchor="start" x="123.768" y="76.6481" font-family="Times,serif" font-size="14.00">show</text>
<text text-anchor="start" x="123.768" y="90.6481" font-family="Times,serif" font-size="14.00">update</text>
<polyline fill="none" stroke="black" points="115.768,97.4481 273.292,97.4481 "/>
<polyline fill="none" stroke="black" points="115.768,121.448 273.292,121.448 "/>
<text text-anchor="start" x="123.768" y="136.648" font-family="Times,serif" font-size="14.00">_layout</text>
<text text-anchor="start" x="123.768" y="150.648" font-family="Times,serif" font-size="14.00">set_user_address</text>
<text text-anchor="start" x="123.768" y="164.648" font-family="Times,serif" font-size="14.00">user_address_params</text>
</g>
<!-- ApplicationController&#45;&gt;UserAddressesController -->
<g id="edge7" class="edge"><title>ApplicationController&#45;&gt;UserAddressesController</title>
<path fill="none" stroke="black" d="M38.1312,2.42133C62.6888,13.1029 90.4276,25.1681 115.653,36.1399"/>
</g>
<!-- UsersController -->
<g id="node10" class="node"><title>UsersController</title>
<path fill="none" stroke="black" d="M-287.505,391.885C-287.505,391.885 -206.077,391.885 -206.077,391.885 -200.077,391.885 -194.077,385.885 -194.077,379.885 -194.077,379.885 -194.077,131.885 -194.077,131.885 -194.077,125.885 -200.077,119.885 -206.077,119.885 -206.077,119.885 -287.505,119.885 -287.505,119.885 -293.505,119.885 -299.505,125.885 -299.505,131.885 -299.505,131.885 -299.505,379.885 -299.505,379.885 -299.505,385.885 -293.505,391.885 -287.505,391.885"/>
<text text-anchor="middle" x="-246.791" y="135.085" font-family="Times,serif" font-size="14.00">UsersController</text>
<polyline fill="none" stroke="black" points="-299.505,141.885 -194.077,141.885 "/>
<text text-anchor="start" x="-291.505" y="157.085" font-family="Times,serif" font-size="14.00">alderman</text>
<text text-anchor="start" x="-291.505" y="171.085" font-family="Times,serif" font-size="14.00">create</text>
<text text-anchor="start" x="-291.505" y="185.085" font-family="Times,serif" font-size="14.00">destroy</text>
<text text-anchor="start" x="-291.505" y="199.085" font-family="Times,serif" font-size="14.00">edit</text>
<text text-anchor="start" x="-291.505" y="213.085" font-family="Times,serif" font-size="14.00">index</text>
<text text-anchor="start" x="-291.505" y="227.085" font-family="Times,serif" font-size="14.00">new</text>
<text text-anchor="start" x="-291.505" y="241.085" font-family="Times,serif" font-size="14.00">show</text>
<text text-anchor="start" x="-291.505" y="255.085" font-family="Times,serif" font-size="14.00">street_address1</text>
<text text-anchor="start" x="-291.505" y="269.085" font-family="Times,serif" font-size="14.00">street_address2</text>
<text text-anchor="start" x="-291.505" y="283.085" font-family="Times,serif" font-size="14.00">update</text>
<text text-anchor="start" x="-291.505" y="297.085" font-family="Times,serif" font-size="14.00">ward_number</text>
<text text-anchor="start" x="-291.505" y="311.085" font-family="Times,serif" font-size="14.00">zip</text>
<polyline fill="none" stroke="black" points="-299.505,317.885 -194.077,317.885 "/>
<polyline fill="none" stroke="black" points="-299.505,341.885 -194.077,341.885 "/>
<text text-anchor="start" x="-291.505" y="357.085" font-family="Times,serif" font-size="14.00">_layout</text>
<text text-anchor="start" x="-291.505" y="371.085" font-family="Times,serif" font-size="14.00">set_user</text>
<text text-anchor="start" x="-291.505" y="385.085" font-family="Times,serif" font-size="14.00">user_params</text>
</g>
<!-- ApplicationController&#45;&gt;UsersController -->
<g id="edge8" class="edge"><title>ApplicationController&#45;&gt;UsersController</title>
<path fill="none" stroke="black" d="M-66.9794,18.1773C-101.395,63.6743 -154.379,133.718 -193.93,186.004"/>
</g>
<!-- WardsController -->
<g id="node11" class="node"><title>WardsController</title>
<path fill="none" stroke="black" d="M156.316,382.497C156.316,382.497 241.284,382.497 241.284,382.497 247.284,382.497 253.284,376.497 253.284,370.497 253.284,370.497 253.284,192.497 253.284,192.497 253.284,186.497 247.284,180.497 241.284,180.497 241.284,180.497 156.316,180.497 156.316,180.497 150.316,180.497 144.316,186.497 144.316,192.497 144.316,192.497 144.316,370.497 144.316,370.497 144.316,376.497 150.316,382.497 156.316,382.497"/>
<text text-anchor="middle" x="198.8" y="195.697" font-family="Times,serif" font-size="14.00">WardsController</text>
<polyline fill="none" stroke="black" points="144.316,202.497 253.284,202.497 "/>
<text text-anchor="start" x="152.316" y="217.697" font-family="Times,serif" font-size="14.00">create</text>
<text text-anchor="start" x="152.316" y="231.697" font-family="Times,serif" font-size="14.00">destroy</text>
<text text-anchor="start" x="152.316" y="245.697" font-family="Times,serif" font-size="14.00">edit</text>
<text text-anchor="start" x="152.316" y="259.697" font-family="Times,serif" font-size="14.00">index</text>
<text text-anchor="start" x="152.316" y="273.697" font-family="Times,serif" font-size="14.00">new</text>
<text text-anchor="start" x="152.316" y="287.697" font-family="Times,serif" font-size="14.00">show</text>
<text text-anchor="start" x="152.316" y="301.697" font-family="Times,serif" font-size="14.00">update</text>
<polyline fill="none" stroke="black" points="144.316,308.497 253.284,308.497 "/>
<polyline fill="none" stroke="black" points="144.316,332.497 253.284,332.497 "/>
<text text-anchor="start" x="152.316" y="347.697" font-family="Times,serif" font-size="14.00">_layout</text>
<text text-anchor="start" x="152.316" y="361.697" font-family="Times,serif" font-size="14.00">set_ward</text>
<text text-anchor="start" x="152.316" y="375.697" font-family="Times,serif" font-size="14.00">ward_params</text>
</g>
<!-- ApplicationController&#45;&gt;WardsController -->
<g id="edge9" class="edge"><title>ApplicationController&#45;&gt;WardsController</title>
<path fill="none" stroke="black" d="M-0.317385,17.9761C28.4708,59.4373 72.452,121.794 112.568,174.648 122.584,187.845 133.517,201.751 144.131,215.009"/>
</g>
</g>
</svg>
