<?xml version="1.0" encoding="UTF-8" standalone="no"?>
<!DOCTYPE svg PUBLIC "-//W3C//DTD SVG 1.1//EN"
 "http://www.w3.org/Graphics/SVG/1.1/DTD/svg11.dtd">
<!-- Generated by graphviz version 2.38.0 (20140413.2041)
 -->
<!-- Title: models_diagram Pages: 1 -->
<svg width="671pt" height="386pt"
 viewBox="0.00 0.00 670.94 386.00" xmlns="http://www.w3.org/2000/svg" xmlns:xlink="http://www.w3.org/1999/xlink">
<g id="graph0" class="graph" transform="scale(1 1) rotate(0) translate(4 382)">
<title>models_diagram</title>
<polygon fill="white" stroke="none" points="-4,4 -4,-382 666.944,-382 666.944,4 -4,4"/>
<!-- _diagram_info -->
<g id="node1" class="node"><title>_diagram_info</title>
<text text-anchor="start" x="139.256" y="-363.6" font-family="Times,serif" font-size="13.00">Models diagram</text>
<text text-anchor="start" x="139.256" y="-350.6" font-family="Times,serif" font-size="13.00">Date: Jun 16 2014 &#45; 09:02</text>
<text text-anchor="start" x="139.256" y="-337.6" font-family="Times,serif" font-size="13.00">Migration version: 20140615185459</text>
<text text-anchor="start" x="139.256" y="-324.6" font-family="Times,serif" font-size="13.00">Generated by RailRoady 1.1.1</text>
<text text-anchor="start" x="139.256" y="-311.6" font-family="Times,serif" font-size="13.00">http://railroady.prestonlee.com</text>
</g>
<!-- Legislation -->
<g id="node2" class="node"><title>Legislation</title>
<ellipse fill="none" stroke="black" cx="65.9442" cy="-91" rx="49.7878" ry="18"/>
<text text-anchor="middle" x="65.9442" y="-86.8" font-family="Times,serif" font-size="14.00">Legislation</text>
</g>
<!-- LegislationVoice -->
<g id="node4" class="node"><title>LegislationVoice</title>
<ellipse fill="none" stroke="black" cx="586.944" cy="-18" rx="69.7389" ry="18"/>
<text text-anchor="middle" x="586.944" y="-13.8" font-family="Times,serif" font-size="14.00">LegislationVoice</text>
</g>
<!-- Legislation&#45;&gt;LegislationVoice -->
<g id="edge1" class="edge"><title>Legislation&#45;&gt;LegislationVoice</title>
<path fill="none" stroke="#a7c296" d="M119.71,-82.6731C214.461,-69.7607 411.102,-42.9631 516.541,-28.5943"/>
<ellipse fill="none" stroke="#a7c296" cx="115.686" cy="-83.2213" rx="4.00001" ry="4.00001"/>
<polygon fill="#a7c296" stroke="#a7c296" points="516.545,-28.5938 527.061,-31.7022 521.499,-27.9186 526.454,-27.2434 526.454,-27.2434 526.454,-27.2434 521.499,-27.9186 525.846,-22.7846 516.545,-28.5938 516.545,-28.5938"/>
</g>
<!-- LegislationVote -->
<g id="node10" class="node"><title>LegislationVote</title>
<ellipse fill="none" stroke="black" cx="65.9442" cy="-18" rx="65.8884" ry="18"/>
<text text-anchor="middle" x="65.9442" y="-13.8" font-family="Times,serif" font-size="14.00">LegislationVote</text>
</g>
<!-- Legislation&#45;&gt;LegislationVote -->
<g id="edge2" class="edge"><title>Legislation&#45;&gt;LegislationVote</title>
<path fill="none" stroke="#ac4c48" d="M65.9442,-64.791C65.9442,-58.832 65.9442,-52.4496 65.9442,-46.3988"/>
<ellipse fill="none" stroke="#ac4c48" cx="65.9442" cy="-68.8129" rx="4" ry="4"/>
<polygon fill="#ac4c48" stroke="#ac4c48" points="65.9443,-46.0288 70.4442,-36.0288 65.9442,-41.0288 65.9442,-36.0288 65.9442,-36.0288 65.9442,-36.0288 65.9442,-41.0288 61.4442,-36.0289 65.9443,-46.0288 65.9443,-46.0288"/>
</g>
<!-- LegislationSponsor -->
<g id="node3" class="node"><title>LegislationSponsor</title>
<ellipse fill="none" stroke="black" cx="424.944" cy="-91" rx="78.7712" ry="18"/>
<text text-anchor="middle" x="424.944" y="-86.8" font-family="Times,serif" font-size="14.00">LegislationSponsor</text>
</g>
<!-- Legislator -->
<g id="node5" class="node"><title>Legislator</title>
<ellipse fill="none" stroke="black" cx="344.944" cy="-177" rx="45.92" ry="18"/>
<text text-anchor="middle" x="344.944" y="-172.8" font-family="Times,serif" font-size="14.00">Legislator</text>
</g>
<!-- Legislator&#45;&gt;Legislation -->
<g id="edge7" class="edge"><title>Legislator&#45;&gt;Legislation</title>
<path fill="none" stroke="#0936b4" d="M291.572,-168.983C256.078,-163.454 208.746,-154.411 168.399,-141 145.084,-133.25 120.192,-121.435 100.782,-111.349"/>
<polygon fill="#0936b4" stroke="#0936b4" points="291.832,-169.022 301.046,-174.967 296.775,-169.77 301.719,-170.518 301.719,-170.518 301.719,-170.518 296.775,-169.77 302.392,-166.069 291.832,-169.022 291.832,-169.022"/>
<polygon fill="#0936b4" stroke="#0936b4" points="100.566,-111.235 93.8274,-102.583 96.1451,-108.898 91.7246,-106.562 91.7246,-106.562 91.7246,-106.562 96.1451,-108.898 89.6217,-110.54 100.566,-111.235 100.566,-111.235"/>
<text text-anchor="middle" x="231.717" y="-129.8" font-family="Times,serif" font-size="14.00">sponsored_legislations</text>
</g>
<!-- Legislator&#45;&gt;Legislation -->
<g id="edge9" class="edge"><title>Legislator&#45;&gt;Legislation</title>
<path fill="none" stroke="#e6ce0c" d="M289.081,-173.829C202.544,-169.884 44.2012,-160.123 27.0682,-141 19.2921,-132.321 24.8666,-122.308 33.9652,-113.604"/>
<polygon fill="#e6ce0c" stroke="#e6ce0c" points="289.274,-173.837 299.064,-178.777 294.269,-174.059 299.264,-174.281 299.264,-174.281 299.264,-174.281 294.269,-174.059 299.463,-169.786 289.274,-173.837 289.274,-173.837"/>
<polygon fill="#e6ce0c" stroke="#e6ce0c" points="34.1932,-113.412 44.7352,-110.392 38.0116,-110.183 41.83,-106.955 41.83,-106.955 41.83,-106.955 38.0116,-110.183 38.9248,-103.519 34.1932,-113.412 34.1932,-113.412"/>
<text text-anchor="middle" x="78.8821" y="-129.8" font-family="Times,serif" font-size="14.00">voted_legislations</text>
</g>
<!-- Legislator&#45;&gt;LegislationSponsor -->
<g id="edge6" class="edge"><title>Legislator&#45;&gt;LegislationSponsor</title>
<path fill="none" stroke="#23d1a9" d="M365.895,-154.002C376.961,-142.382 390.566,-128.097 401.927,-116.168"/>
<ellipse fill="none" stroke="#23d1a9" cx="363.128" cy="-156.907" rx="4.00002" ry="4.00002"/>
<polygon fill="#23d1a9" stroke="#23d1a9" points="402.123,-115.963 412.278,-111.825 405.571,-112.342 409.019,-108.721 409.019,-108.721 409.019,-108.721 405.571,-112.342 405.761,-105.618 402.123,-115.963 402.123,-115.963"/>
</g>
<!-- LegislatorVote -->
<g id="node6" class="node"><title>LegislatorVote</title>
<ellipse fill="none" stroke="black" cx="265.944" cy="-91" rx="62.0207" ry="18"/>
<text text-anchor="middle" x="265.944" y="-86.8" font-family="Times,serif" font-size="14.00">LegislatorVote</text>
</g>
<!-- Legislator&#45;&gt;LegislatorVote -->
<g id="edge8" class="edge"><title>Legislator&#45;&gt;LegislatorVote</title>
<path fill="none" stroke="#743692" d="M324.218,-153.963C313.213,-142.261 299.675,-127.865 288.417,-115.896"/>
<ellipse fill="none" stroke="#743692" cx="326.972" cy="-156.89" rx="4.00002" ry="4.00002"/>
<polygon fill="#743692" stroke="#743692" points="288.25,-115.718 284.677,-105.35 284.824,-112.075 281.399,-108.433 281.399,-108.433 281.399,-108.433 284.824,-112.075 278.121,-111.516 288.25,-115.718 288.25,-115.718"/>
</g>
<!-- User -->
<g id="node7" class="node"><title>User</title>
<ellipse fill="none" stroke="black" cx="586.944" cy="-91" rx="27" ry="18"/>
<text text-anchor="middle" x="586.944" y="-86.8" font-family="Times,serif" font-size="14.00">User</text>
</g>
<!-- User&#45;&gt;LegislationVoice -->
<g id="edge12" class="edge"><title>User&#45;&gt;LegislationVoice</title>
<path fill="none" stroke="#0b2083" d="M586.944,-64.791C586.944,-58.832 586.944,-52.4496 586.944,-46.3988"/>
<ellipse fill="none" stroke="#0b2083" cx="586.944" cy="-68.8129" rx="4" ry="4"/>
<polygon fill="#0b2083" stroke="#0b2083" points="586.944,-46.0288 591.444,-36.0288 586.944,-41.0288 586.944,-36.0288 586.944,-36.0288 586.944,-36.0288 586.944,-41.0288 582.444,-36.0289 586.944,-46.0288 586.944,-46.0288"/>
</g>
<!-- UserAddress -->
<g id="node8" class="node"><title>UserAddress</title>
<ellipse fill="none" stroke="black" cx="502.944" cy="-177" rx="55.5768" ry="18"/>
<text text-anchor="middle" x="502.944" y="-172.8" font-family="Times,serif" font-size="14.00">UserAddress</text>
</g>
<!-- UserAddress&#45;&gt;User -->
<g id="edge14" class="edge"><title>UserAddress&#45;&gt;User</title>
<path fill="none" stroke="#13c3a9" d="M525.265,-153.679C537.7,-141.244 553.109,-125.836 565.414,-113.53"/>
<ellipse fill="none" stroke="#13c3a9" cx="522.368" cy="-156.576" rx="4.00002" ry="4.00002"/>
<polygon fill="#13c3a9" stroke="#13c3a9" points="565.549,-113.395 575.802,-109.506 569.085,-109.859 572.62,-106.324 572.62,-106.324 572.62,-106.324 569.085,-109.859 569.438,-103.142 565.549,-113.395 565.549,-113.395"/>
</g>
<!-- Ward -->
<g id="node9" class="node"><title>Ward</title>
<ellipse fill="none" stroke="black" cx="513.944" cy="-250" rx="29.0834" ry="18"/>
<text text-anchor="middle" x="513.944" y="-245.8" font-family="Times,serif" font-size="14.00">Ward</text>
</g>
<!-- Ward&#45;&gt;Legislator -->
<g id="edge16" class="edge"><title>Ward&#45;&gt;Legislator</title>
<path fill="none" stroke="#0f92b3" d="M483.003,-236.001C454.689,-224.106 412.726,-206.476 382.501,-193.778"/>
<ellipse fill="none" stroke="#0f92b3" cx="486.758" cy="-237.578" rx="4.00002" ry="4.00002"/>
<ellipse fill="#0f92b3" stroke="#0f92b3" cx="378.773" cy="-192.212" rx="4.00002" ry="4.00002"/>
</g>
<!-- Ward&#45;&gt;User -->
<g id="edge18" class="edge"><title>Ward&#45;&gt;User</title>
<path fill="none" stroke="#6b3c83" d="M539.767,-229.132C550.083,-219.859 561.112,-207.999 567.944,-195 580.392,-171.316 584.807,-140.831 586.312,-119.187"/>
<polygon fill="#6b3c83" stroke="#6b3c83" points="539.697,-229.192 529.173,-232.275 535.898,-232.443 532.1,-235.694 532.1,-235.694 532.1,-235.694 535.898,-232.443 535.026,-239.113 539.697,-229.192 539.697,-229.192"/>
<polygon fill="#6b3c83" stroke="#6b3c83" points="586.32,-119.035 591.343,-109.288 586.585,-114.042 586.85,-109.049 586.85,-109.049 586.85,-109.049 586.585,-114.042 582.356,-108.811 586.32,-119.035 586.32,-119.035"/>
</g>
<!-- Ward&#45;&gt;UserAddress -->
<g id="edge17" class="edge"><title>Ward&#45;&gt;UserAddress</title>
<path fill="none" stroke="#8f733e" d="M510.039,-223.791C509.092,-217.683 508.077,-211.13 507.119,-204.946"/>
<ellipse fill="none" stroke="#8f733e" cx="510.669" cy="-227.86" rx="4.00001" ry="4.00001"/>
<polygon fill="#8f733e" stroke="#8f733e" points="507.114,-204.911 510.029,-194.34 506.348,-199.97 505.582,-195.029 505.582,-195.029 505.582,-195.029 506.348,-199.97 501.135,-195.718 507.114,-204.911 507.114,-204.911"/>
</g>
<!-- ActiveRecord::Base -->
<g id="node11" class="node"><title>ActiveRecord::Base</title>
<ellipse fill="none" stroke="black" cx="437.944" cy="-341.5" rx="81.1422" ry="18"/>
<text text-anchor="middle" x="437.944" y="-337.3" font-family="Times,serif" font-size="14.00">ActiveRecord::Base</text>
</g>
<!-- ActiveRecord::Base&#45;&gt;Legislation -->
<g id="edge3" class="edge"><title>ActiveRecord::Base&#45;&gt;Legislation</title>
<path fill="none" stroke="black" d="M400.661,-325.385C302.369,-285.174 42.1719,-176.238 19.9442,-141 11.727,-127.973 24.2138,-115.353 38.2382,-106.183"/>
</g>
<!-- ActiveRecord::Base&#45;&gt;LegislationSponsor -->
<g id="edge4" class="edge"><title>ActiveRecord::Base&#45;&gt;LegislationSponsor</title>
<path fill="none" stroke="black" d="M437.051,-323.42C434.676,-278.023 428.226,-154.733 425.844,-109.2"/>
</g>
<!-- ActiveRecord::Base&#45;&gt;LegislationVoice -->
<g id="edge5" class="edge"><title>ActiveRecord::Base&#45;&gt;LegislationVoice</title>
<path fill="none" stroke="black" d="M497.06,-329.083C563.724,-314.476 662.944,-286.734 662.944,-251 662.944,-251 662.944,-251 662.944,-90 662.944,-64.7211 640.215,-45.8568 619.616,-33.9514"/>
</g>
<!-- ActiveRecord::Base&#45;&gt;Legislator -->
<g id="edge10" class="edge"><title>ActiveRecord::Base&#45;&gt;Legislator</title>
<path fill="none" stroke="black" d="M427.025,-323.283C420.489,-312.86 412.091,-299.255 404.944,-287 386.119,-254.718 365.336,-216.289 353.839,-194.764"/>
</g>
<!-- ActiveRecord::Base&#45;&gt;LegislatorVote -->
<g id="edge11" class="edge"><title>ActiveRecord::Base&#45;&gt;LegislatorVote</title>
<path fill="none" stroke="black" d="M414.398,-324.194C381.291,-299.971 321.51,-251.245 289.944,-195 274.488,-167.46 268.967,-130.431 267.008,-109.096"/>
</g>
<!-- ActiveRecord::Base&#45;&gt;User -->
<g id="edge13" class="edge"><title>ActiveRecord::Base&#45;&gt;User</title>
<path fill="none" stroke="black" d="M472.138,-325.054C496.83,-312.524 529.624,-292.878 551.944,-268 592.034,-223.315 592.455,-200.781 597.944,-141 598.513,-134.804 598.888,-133.15 597.944,-127 597.017,-120.956 595.238,-114.523 593.377,-108.843"/>
</g>
<!-- ActiveRecord::Base&#45;&gt;UserAddress -->
<g id="edge15" class="edge"><title>ActiveRecord::Base&#45;&gt;UserAddress</title>
<path fill="none" stroke="black" d="M443.213,-323.333C450.012,-301.726 462.568,-263.615 475.944,-232 481.335,-219.258 488.345,-205.299 493.871,-194.766"/>
</g>
<!-- ActiveRecord::Base&#45;&gt;Ward -->
<g id="edge19" class="edge"><title>ActiveRecord::Base&#45;&gt;Ward</title>
<path fill="none" stroke="black" d="M452.239,-323.666C466.257,-307.158 487.44,-282.212 500.98,-266.266"/>
</g>
</g>
</svg>
