<?xml version="1.0" encoding="iso-8859-1"?>
<!-- Generator: Adobe Illustrator 16.0.4, SVG Export Plug-In . SVG Version: 6.00 Build 0)  -->
<!DOCTYPE svg PUBLIC "-//W3C//DTD SVG 1.1//EN" "http://www.w3.org/Graphics/SVG/1.1/DTD/svg11.dtd">
<svg version="1.1" id="Capa_1" xmlns="http://www.w3.org/2000/svg" xmlns:xlink="http://www.w3.org/1999/xlink" x="0px" y="0px"
	 width="13.039px" height="15px" viewBox="0 0 13.039 15" style="enable-background:new 0 0 13.039 15;" xml:space="preserve">
<path style="fill:#010002;" d="M9.451,9.239c-0.327,0-0.592,0.265-0.592,0.59c0,0.324,0.265,0.589,0.592,0.589
	c0.324,0,0.589-0.265,0.589-0.589C10.04,9.504,9.775,9.239,9.451,9.239z M0.97,9.239c-0.326,0-0.591,0.265-0.591,0.59
	c0,0.324,0.265,0.589,0.591,0.589c0.325,0,0.59-0.265,0.59-0.589C1.56,9.504,1.295,9.239,0.97,9.239z M7.694,8.166
	c-0.483,0-0.877,0.394-0.877,0.877c0,0.485,0.394,0.879,0.877,0.879c0.485,0,0.88-0.394,0.88-0.879
	C8.574,8.56,8.18,8.166,7.694,8.166z M10.419,13.504H9.42v-1.841c0-0.316-0.093-0.61-0.243-0.866
	c0.088-0.025,0.178-0.045,0.274-0.045c0.533,0,0.968,0.437,0.968,0.971V13.504z M2.724,8.166c-0.483,0-0.877,0.394-0.877,0.877
	c0,0.485,0.394,0.879,0.877,0.879s0.878-0.394,0.878-0.879C3.602,8.56,3.207,8.166,2.724,8.166z M0.97,10.752
	c0.096,0,0.185,0.02,0.273,0.045C1.092,11.053,1,11.347,1,11.663v1.841H0v-1.781C0,11.188,0.437,10.752,0.97,10.752z M5.209,6.411
	c-0.715,0-1.297,0.583-1.297,1.297c0,0.717,0.582,1.299,1.297,1.299s1.299-0.582,1.299-1.299C6.508,6.994,5.924,6.411,5.209,6.411z
	 M9.098,14.189H7.564v-2.801c0-0.387-0.101-0.745-0.265-1.064c0.125-0.038,0.257-0.064,0.395-0.064c0.773,0,1.403,0.629,1.403,1.403
	V14.189z M2.853,11.389v2.801H1.321v-2.526c0-0.774,0.629-1.403,1.402-1.403c0.139,0,0.27,0.026,0.395,0.064
	C2.954,10.644,2.853,11.002,2.853,11.389z M3.174,15h4.07v-3.611c0-1.124-0.913-2.036-2.035-2.036c-1.124,0-2.035,0.912-2.035,2.036
	V15z M6.95,7.333v-1.94H6.426c-0.817,0-1.482-0.665-1.482-1.483V1.481C4.943,0.664,5.608,0,6.426,0h5.131
	c0.817,0,1.482,0.664,1.482,1.481v2.428c0,0.818-0.665,1.483-1.482,1.483H8.892L6.95,7.333z M6.426,0.53
	c-0.523,0-0.95,0.427-0.95,0.951v2.428c0,0.525,0.427,0.952,0.95,0.952h1.057v1.189l1.189-1.189h2.885
	c0.523,0,0.95-0.427,0.95-0.952V1.481c0-0.524-0.427-0.951-0.95-0.951H6.426z"/>
<g>
</g>
<g>
</g>
<g>
</g>
<g>
</g>
<g>
</g>
<g>
</g>
<g>
</g>
<g>
</g>
<g>
</g>
<g>
</g>
<g>
</g>
<g>
</g>
<g>
</g>
<g>
</g>
<g>
</g>
</svg>
