<?xml version="1.0" encoding="UTF-8" standalone="no"?>
<!-- Created with Inkscape (http://www.inkscape.org/) -->

<svg
   xmlns:dc="http://purl.org/dc/elements/1.1/"
   xmlns:cc="http://creativecommons.org/ns#"
   xmlns:rdf="http://www.w3.org/1999/02/22-rdf-syntax-ns#"
   xmlns:svg="http://www.w3.org/2000/svg"
   xmlns="http://www.w3.org/2000/svg"
   xmlns:sodipodi="http://sodipodi.sourceforge.net/DTD/sodipodi-0.dtd"
   xmlns:inkscape="http://www.inkscape.org/namespaces/inkscape"
   width="256"
   height="1030"
   viewport="0 0 1030 256"
   id="svg2914"
   version="1.1"
   inkscape:version="0.47 r22583"
   sodipodi:docname="greg.svg"
   inkscape:export-filename="/home/robert/documents/writing/greg-large.png"
   inkscape:export-xdpi="300"
   inkscape:export-ydpi="300">
  <defs
     id="defs2916">
    <inkscape:perspective
       sodipodi:type="inkscape:persp3d"
       inkscape:vp_x="0 : 526.18109 : 1"
       inkscape:vp_y="0 : 1000 : 0"
       inkscape:vp_z="744.09448 : 526.18109 : 1"
       inkscape:persp3d-origin="372.04724 : 350.78739 : 1"
       id="perspective2922" />
    <inkscape:perspective
       id="perspective2992"
       inkscape:persp3d-origin="0.5 : 0.33333333 : 1"
       inkscape:vp_z="1 : 0.5 : 1"
       inkscape:vp_y="0 : 1000 : 0"
       inkscape:vp_x="0 : 0.5 : 1"
       sodipodi:type="inkscape:persp3d" />
  </defs>
  <sodipodi:namedview
     id="base"
     pagecolor="#ffffff"
     bordercolor="#666666"
     borderopacity="1.0"
     inkscape:pageopacity="0.0"
     inkscape:pageshadow="2"
     inkscape:zoom="0.5"
     inkscape:cx="147.98092"
     inkscape:cy="848.36501"
     inkscape:document-units="px"
     inkscape:current-layer="layer1"
     showgrid="false"
     inkscape:window-width="810"
     inkscape:window-height="689"
     inkscape:window-x="0"
     inkscape:window-y="49"
     inkscape:window-maximized="0" />
  <metadata
     id="metadata2919">
    <rdf:RDF>
      <cc:Work
         rdf:about="">
        <dc:format>image/svg+xml</dc:format>
        <dc:type
           rdf:resource="http://purl.org/dc/dcmitype/StillImage" />
        <dc:title></dc:title>
      </cc:Work>
    </rdf:RDF>
  </metadata>
  <g
     inkscape:label="Layer 1"
     inkscape:groupmode="layer"
     id="layer1">
    <g
       id="g2998"
       transform="matrix(7.2984786,0,0,7.2984786,-986.99115,-3032.2726)">
      <path
         style="fill:#e4e4e4"
         d="m 145.37721,554.92676 c -1.79235,-9.55404 -0.97957,-68.4554 1.0989,-79.63602 0.86907,-4.675 1.78761,-10.14635 2.04118,-12.15856 0.31754,-2.51979 1.05487,-3.81384 2.36886,-4.15745 1.25476,-0.32813 1.69862,-1.04404 1.2967,-2.09145 -0.55881,-1.45624 -3.90696,-2.11112 -8.51972,-1.66642 -0.92361,0.089 -1.88697,-0.8306 -2.23634,-2.13485 -0.92687,-3.46009 -0.80816,-3.79127 1.35892,-3.79127 1.1,0 2,-0.45 2,-1 0,-0.55 -0.65917,-1 -1.46482,-1 -1.54212,0 -4.08178,-3.78673 -3.15873,-4.70979 0.29618,-0.29617 -0.40337,-1.30117 -1.55454,-2.23333 l -2.09304,-1.69484 2.68102,-2.68102 c 2.97666,-2.97666 4.08194,-3.4051 3.26024,-1.26378 -0.29911,0.77948 0.13954,1.67948 0.9748,2 2.23934,0.85931 2.31728,0.81236 3.40639,-2.05222 1.43693,-3.77942 -1.2393,-7.78564 -4.63212,-6.9341 -2.07938,0.5219 -2.4192,0.25334 -2.4192,-1.91187 0,-1.38548 -0.45,-2.51905 -1,-2.51905 -1.701,0 -1.1005,-3.87721 0.75,-4.84249 0.9625,-0.50208 5.15681,-1.22374 9.32069,-1.60371 6.14051,-0.56033 7.80776,-0.40518 8.82563,0.82128 1.58768,1.91303 3.86879,10.47437 4.69605,17.62492 0.34997,3.025 1.25985,6.71515 2.02197,8.20034 1.80522,3.51796 1.76024,5.79966 -0.11434,5.79966 -2.03337,0 -1.91988,0.95659 1.16646,9.83203 3.06092,8.8023 3.12662,10.28083 2.14028,48.16797 -0.44649,17.15046 -0.30291,27.3411 0.43851,31.12283 1.00144,5.10803 0.90335,5.96014 -1.07144,9.30716 -1.1956,2.02638 -2.17381,5.23361 -2.17381,7.12717 l 0,3.44284 -9.38871,0 -9.38871,0 -0.63108,-3.36398 z m 11.74271,-18.89457 c 1.00881,-3.4328 2.45344,-7.81645 3.21028,-9.74145 3.3082,-8.41431 4.64563,-16.7722 3.55649,-22.22525 -0.57945,-2.90111 -1.3162,-7.81908 -1.63723,-10.92883 l -0.58369,-5.65407 -4.48847,-0.35698 c -4.07304,-0.32395 -4.44337,-0.17086 -4.00126,1.65407 0.26796,1.10608 0.7984,4.93606 1.17874,8.51106 0.38035,3.575 1.07371,6.98503 1.5408,7.57784 0.47071,0.5974 0.41262,2.60033 -0.1303,4.4934 -0.53876,1.87856 -0.99112,5.89353 -1.00524,8.92216 -0.0141,3.02863 -0.84984,9.14945 -1.85715,13.60182 -1.67645,7.40999 -1.69543,8.188 -0.22433,9.1912 2.44551,1.66767 2.48029,1.62817 4.44136,-5.04497 z m -8.08946,-4.24145 c 0.32047,-1.67641 0.0294,-2.5 -0.88342,-2.5 -0.78542,0 -1.36133,1.05763 -1.36133,2.5 0,1.375 0.39754,2.5 0.88342,2.5 0.48588,0 1.09848,-1.125 1.36133,-2.5 z m 16.43836,-15.6875 c -0.31922,-0.79773 -0.55618,-0.56078 -0.60416,0.60417 -0.0434,1.05416 0.19293,1.64479 0.52522,1.3125 0.33229,-0.3323 0.36781,-1.1948 0.0789,-1.91667 z m 0.006,-18.5625 c -0.25152,-0.9625 -0.45732,-0.175 -0.45732,1.75 0,1.925 0.2058,2.7125 0.45732,1.75 0.25153,-0.9625 0.25153,-2.5375 0,-3.5 z m 0.97296,-23.5 c -0.27741,-0.6875 -0.50439,-0.125 -0.50439,1.25 0,1.375 0.22698,1.9375 0.50439,1.25 0.27741,-0.6875 0.27741,-1.8125 0,-2.5 z m -8.04713,-17.93608 c 1.58667,-1.20234 3.02856,-2.28354 3.20419,-2.40266 0.17564,-0.11913 -0.54555,-2.17289 -1.60263,-4.56393 -1.05708,-2.39103 -2.19916,-5.13483 -2.53795,-6.09733 -0.33879,-0.9625 -1.56682,-1.75 -2.72895,-1.75 -1.82964,0 -2.051,-0.45977 -1.65088,-3.42885 0.38899,-2.88648 0.16462,-3.40644 -1.41842,-3.28719 -1.03428,0.0779 -1.8805,0.69853 -1.8805,1.37915 0,0.68063 -0.7875,1.71605 -1.75,2.30094 -1.43766,0.87362 -1.28034,0.9577 0.88141,0.47104 2.41066,-0.54268 2.68974,-0.27118 3.32669,3.23627 0.63674,3.50634 1.32011,10.24651 1.47808,14.57864 0.0842,2.31038 1.19067,2.20727 4.67896,-0.43608 z m -8.12902,-6.93232 c 1.56263,-1.50227 1.753,-2.27957 0.89282,-3.6455 -1.23413,-1.95973 -3.72962,-2.69924 -6.07347,-1.79982 -1.41206,0.54185 -1.39564,0.8066 0.15637,2.52156 1.86951,2.06578 1.34151,4.04216 -1.07987,4.04216 -0.825,0 -1.21058,0.46831 -0.85683,1.04068 0.844,1.36562 4.46188,0.24347 6.96098,-2.15908 z m -5.48612,-9.34642 c 0,-0.25564 -0.9093,-0.95145 -2.02067,-1.54624 -2.36478,-1.26559 -4.97459,-0.23427 -2.83609,1.12075 1.43725,0.91069 4.85676,1.21027 4.85676,0.42549 z m 11,-1.65321 c 0,-0.55 -0.45,-0.72189 -1,-0.38197 -0.55,0.33992 -1,1.06803 -1,1.61803 0,0.55 0.45,0.72189 1,0.38197 0.55,-0.33992 1,-1.06803 1,-1.61803 z m -7,-9.88197 c 0,-1.53371 -3.81292,-5 -5.5,-5 -2.45064,0 -1.70481,1.73178 1.04282,2.42139 1.39855,0.35102 2.7967,1.2998 3.10699,2.10841 0.64859,1.6902 1.35019,1.93453 1.35019,0.4702 z"
         id="path3012" />
      <path
         style="fill:#cbcbcb"
         d="m 145.37721,554.92676 c -0.77477,-4.12987 -1.0829,-25.65412 -0.7392,-51.63602 0.23528,-17.78566 1.93148,-34.22309 3.85223,-37.33094 0.39698,-0.64232 0.59821,-2.34591 0.44718,-3.78576 -0.20562,-1.96023 0.26207,-2.75824 1.86166,-3.17654 1.75419,-0.45874 1.95281,-0.90143 1.11056,-2.4752 -0.79444,-1.48442 -1.94088,-1.85827 -5.08461,-1.65809 -3.09791,0.19727 -4.29335,-0.1796 -5.04911,-1.59176 -1.49932,-2.80151 -1.20002,-3.98171 1.00979,-3.98171 1.1,0 2,-0.45 2,-1 0,-0.55 -0.65917,-1 -1.46482,-1 -1.659,0 -3.91004,-3.58445 -3.08717,-4.91588 0.29728,-0.481 -0.13191,-1.13258 -0.95375,-1.44795 -1.9926,-0.76463 -1.83555,-2.64731 0.4493,-5.38617 2.11394,-2.534 3.5474,-2.97181 2.72657,-0.83276 -0.83724,2.18183 2.56862,2.97673 4.05349,0.94606 1.6727,-2.28756 1.61029,-3.44156 -0.33642,-6.22089 -1.20158,-1.71549 -2.2215,-2.14983 -4,-1.70345 -2.04306,0.51277 -2.3872,0.23599 -2.3872,-1.91991 0,-1.38548 -0.45,-2.51905 -1,-2.51905 -1.70198,0 -1.09997,-3.87812 0.75,-4.83146 0.9625,-0.49601 5.17177,-1.19965 9.35393,-1.56365 6.06832,-0.52816 7.85063,-0.36457 8.82549,0.81007 1.3011,1.56773 3.85788,11.45776 4.67537,18.08504 0.27138,2.2 1.23791,5.73906 2.14785,7.86458 1.56784,3.66228 1.55838,3.93482 -0.1806,5.2064 -1.76354,1.28953 -1.72452,1.68444 1.00149,10.13542 3.20525,9.93663 3.20915,10.02143 2.22504,48.2936 -0.44026,17.12177 -0.2935,27.34743 0.44668,31.12283 1.00144,5.10803 0.90335,5.96014 -1.07144,9.30716 -1.1956,2.02638 -2.17381,5.23361 -2.17381,7.12717 l 0,3.44284 -9.38871,0 -9.38871,0 -0.63108,-3.36398 z m 12.78676,-21.39318 c 5.70004,-17.31408 6.81454,-23.13791 5.69188,-29.74284 -0.56091,-3.3 -1.36865,-8.46609 -1.79499,-11.4802 l -0.77515,-5.4802 -4.2951,-0.0198 c -3.79416,-0.0175 -4.23866,0.21346 -3.81123,1.9802 0.26613,1.1 0.79506,4.925 1.1754,8.5 0.38035,3.575 1.07371,6.98503 1.5408,7.57785 0.46895,0.59516 0.43295,2.52945 -0.0804,4.31935 -0.51131,1.78283 -1.02803,6.0228 -1.14827,9.42215 -0.12025,3.39936 -0.99493,9.67253 -1.94374,13.94038 -1.59781,7.18713 -1.60381,7.83056 -0.0813,8.71959 0.9041,0.52793 1.86882,0.97032 2.14382,0.98311 0.275,0.0128 1.79522,-3.91103 3.37826,-8.71959 z m -9.13351,-1.74284 c 0.32047,-1.67641 0.0294,-2.5 -0.88342,-2.5 -0.78542,0 -1.36133,1.05763 -1.36133,2.5 0,1.375 0.39754,2.5 0.88342,2.5 0.48588,0 1.09848,-1.125 1.36133,-2.5 z m 15.75052,-9.21232 c -1.08961,-1.69929 -1.11783,-1.69711 -0.57078,0.0441 0.31653,1.00748 0.61104,2.35748 0.65446,3 0.057,0.84316 0.21579,0.83088 0.57077,-0.0441 0.27051,-0.66678 -0.024,-2.01678 -0.65445,-3 z m -12.30228,-4.01865 c -0.25354,-0.97297 -0.47766,-0.41903 -0.49804,1.23097 -0.0204,1.65 0.18706,2.44606 0.46099,1.76903 0.27392,-0.67703 0.29059,-2.02703 0.037,-3 z m -5.96319,-7.99673 c -0.21648,-2.07476 -0.39722,-0.6223 -0.40166,3.2277 -0.004,3.85 0.17268,5.54754 0.39359,3.7723 0.22091,-1.77523 0.22454,-4.92523 0.008,-7 z m 18.93248,5.4777 c -0.27741,-0.6875 -0.50439,-0.125 -0.50439,1.25 0,1.375 0.22698,1.9375 0.50439,1.25 0.27741,-0.6875 0.27741,-1.8125 0,-2.5 z M 164.7601,490.5411 c -1.05121,-1.63497 -1.08746,-1.6296 -0.5499,0.0814 0.31653,1.00749 0.6606,4.38249 0.76459,7.5 l 0.18909,5.66822 0.36081,-5.74964 c 0.20117,-3.20573 -0.13712,-6.52408 -0.76459,-7.5 z m -12.29128,7.56214 c -0.31922,-0.79773 -0.55618,-0.56078 -0.60416,0.60417 -0.0434,1.05416 0.19292,1.64479 0.52522,1.3125 0.33229,-0.33229 0.36781,-1.19479 0.0789,-1.91667 z m -5,-17 c -0.31922,-0.79773 -0.55618,-0.56078 -0.60416,0.60417 -0.0434,1.05416 0.19292,1.64479 0.52522,1.3125 0.33229,-0.33229 0.36781,-1.19479 0.0789,-1.91667 z m 19.03314,-7.5625 c -0.22912,-1.5125 -0.41659,-0.275 -0.41659,2.75 0,3.025 0.18747,4.2625 0.41659,2.75 0.22913,-1.5125 0.22913,-3.9875 0,-5.5 z m -16.91561,-1.75 c 0,-1.58367 -0.16667,-1.47958 -0.80064,0.5 -0.44035,1.375 -0.80064,3.4 -0.80064,4.5 0,1.58367 0.16667,1.47958 0.80064,-0.5 0.44035,-1.375 0.80064,-3.4 0.80064,-4.5 z m 12.19936,-0.84501 c 0,-0.18976 -1.0125,-1.20226 -2.25,-2.25 l -2.25,-1.90499 1.90499,2.25 c 1.79022,2.11445 2.59501,2.70524 2.59501,1.90499 z m 3,-0.0325 c 0,-0.20766 -0.7875,-0.99516 -1.75,-1.75 -1.58606,-1.24388 -1.62143,-1.20851 -0.37756,0.37755 1.30637,1.66575 2.12756,2.19548 2.12756,1.37244 z m -7.08333,-6.36907 c 0.22916,-0.13936 0.18536,-0.48468 -0.0973,-0.76738 -0.28271,-0.2827 -1.70771,0.42496 -3.16667,1.57258 -1.45896,1.14762 -2.65266,1.80236 -2.65266,1.45498 0,-0.34738 -0.45734,-0.34894 -1.01631,-0.004 -0.55897,0.34547 -0.76003,1.04279 -0.4468,1.54962 0.31324,0.50683 2.00808,-0.0852 3.76632,-1.31572 1.75823,-1.23047 3.38429,-2.35124 3.61346,-2.4906 z m 5.21088,-5.00338 c 1.24388,-1.58606 1.20851,-1.62143 -0.37755,-0.37756 -1.66575,1.30637 -2.19548,2.12756 -1.37245,2.12756 0.20766,0 0.99516,-0.7875 1.75,-1.75 z m -4.51241,-3.43608 c 1.58667,-1.20234 3.02856,-2.28354 3.20419,-2.40266 0.17564,-0.11913 -0.54555,-2.17289 -1.60263,-4.56393 -1.05708,-2.39103 -2.19916,-5.13483 -2.53795,-6.09733 -0.33879,-0.9625 -1.56682,-1.75 -2.72895,-1.75 -1.82964,0 -2.051,-0.45977 -1.65088,-3.42885 0.38899,-2.88648 0.16462,-3.40644 -1.41842,-3.28719 -1.03428,0.0779 -1.8805,0.46374 -1.8805,0.85742 0,0.39367 -0.70762,1.42338 -1.57248,2.28824 -1.42998,1.42998 -1.36813,1.54973 0.68243,1.32143 1.81225,-0.20177 2.44279,0.43603 3.21199,3.24895 0.52639,1.925 1.07433,5.525 1.21765,8 0.14332,2.475 0.30554,5.2875 0.36049,6.25 0.13181,2.30859 1.22669,2.20733 4.71506,-0.43608 z m -8.2262,-6.83515 c 3.44234,-3.3025 0.16187,-6.8358 -5.11663,-5.51098 l -2.72322,0.68349 2.36927,1.78714 c 2.68047,2.02189 2.06873,4.05386 -1.22738,4.07689 -1.77757,0.0124 -1.90795,0.1968 -0.69098,0.97717 1.86467,1.1957 4.90823,0.36624 7.38894,-2.01371 z M 143.512,438.70634 c -1.52555,-0.82738 -3.26109,-1.20311 -3.85677,-0.83496 -1.53056,0.94594 1.00122,2.39496 4.13048,2.36401 l 2.5,-0.0247 -2.77371,-1.50432 z m 12.27371,-0.53363 c 0,-0.55 -0.45,-0.72189 -1,-0.38197 -0.55,0.33992 -1,1.06803 -1,1.61803 0,0.55 0.45,0.72189 1,0.38197 0.55,-0.33992 1,-1.06803 1,-1.61803 z m -7,-9.88197 c 0,-1.53371 -3.81292,-5 -5.5,-5 -2.45064,0 -1.70481,1.73178 1.04282,2.42139 1.39855,0.35102 2.7967,1.2998 3.10699,2.10841 0.64859,1.6902 1.35019,1.93453 1.35019,0.4702 z"
         id="path3010" />
      <path
         style="fill:#a7a7a7"
         d="m 145.38307,554.04074 c -0.77774,-5.24894 -1.07452,-26.13271 -0.72831,-51.25 0.25624,-18.58981 1.92773,-33.69678 3.95235,-35.7214 0.55801,-0.55801 0.77816,-2.47136 0.48922,-4.25188 -0.44056,-2.71485 -0.17317,-3.3294 1.65684,-3.80796 1.79397,-0.46913 2.00052,-0.91008 1.16103,-2.47867 -0.73133,-1.3665 -2.22586,-1.95522 -5.26598,-2.07435 -2.33466,-0.0915 -4.60192,-0.72869 -5.03836,-1.41603 -1.38357,-2.17896 -0.89101,-3.74971 1.17585,-3.74971 1.1,0 2,-0.45 2,-1 0,-0.55 -0.65917,-1 -1.46482,-1 -1.659,0 -3.91004,-3.58445 -3.08717,-4.91588 0.29728,-0.481 -0.13191,-1.13258 -0.95375,-1.44795 -1.93397,-0.74213 -1.93022,-3.53165 0.006,-4.27454 0.825,-0.31659 1.5,-1.20246 1.5,-1.96862 0,-0.76616 0.46973,-1.39301 1.04384,-1.39301 0.57411,0 0.91161,0.7875 0.75,1.75 -0.19333,1.15139 0.44643,1.85546 1.87027,2.0583 2.46179,0.3507 3.8697,-2.56197 2.96332,-6.13047 -0.66534,-2.61949 -4.8363,-5.55121 -5.41743,-3.80784 -0.57285,1.71856 -2.21,0.28957 -2.21,-1.92901 0,-1.06754 -0.45,-1.94098 -1,-1.94098 -1.47371,0 -1.21557,-2.64157 0.41774,-4.27488 2.05859,-2.0586 16.57426,-3.16169 18.34208,-1.39388 1.45529,1.4553 3.76167,10.34586 4.64239,17.89537 0.30327,2.59963 1.21117,6.30565 2.01756,8.23561 1.31222,3.14059 1.29742,3.67774 -0.141,5.11615 -1.46327,1.46328 -1.46866,2.02407 -0.0601,6.26439 4.86833,14.65593 4.63057,11.0875 3.50849,52.65724 -0.49446,18.31846 -0.36446,27.36352 0.44002,30.61515 1.01183,4.08972 0.89654,5.12183 -1.01266,9.06572 -1.18497,2.44782 -2.15449,5.8835 -2.15449,7.63485 l 0,3.18428 -9.38646,0 -9.38645,0 -0.62973,-4.25 z m 13.57358,-23.00937 c 5.4059,-16.5532 6.21895,-20.8759 4.98259,-26.49063 -0.57527,-2.6125 -1.32493,-7.73103 -1.6659,-11.3745 l -0.61994,-6.62451 -4.55202,-0.0914 -4.55202,-0.0914 0.63262,3.16309 c 0.34794,1.7397 0.91245,5.66185 1.25447,8.71588 0.34201,3.05403 1.00132,6.03781 1.46512,6.63062 0.4638,0.59282 0.42493,2.53653 -0.0864,4.31936 -0.51131,1.78283 -1.02624,5.9182 -1.1443,9.18972 -0.11806,3.27152 -0.99488,9.54349 -1.94848,13.93772 -1.60787,7.40905 -1.61406,8.05944 -0.0853,8.95203 0.90671,0.52938 1.87356,0.97198 2.14856,0.98355 0.275,0.0116 2.15193,-5.03725 4.17094,-11.21959 z m -9.92619,0.75937 c 0.32047,-1.67641 0.0294,-2.5 -0.88342,-2.5 -0.78542,0 -1.36133,1.05763 -1.36133,2.5 0,1.375 0.39754,2.5 0.88342,2.5 0.48588,0 1.09848,-1.125 1.36133,-2.5 z m 3.34215,-9.25566 0.0869,-5.25565 -0.39311,5.11941 c -0.39096,5.09153 -0.40941,5.11616 -3.3866,4.52072 -1.95292,-0.39059 -2.7696,-0.2364 -2.34936,0.44355 0.35428,0.57324 1.83915,0.90396 3.29971,0.73494 2.48521,-0.2876 2.66114,-0.64446 2.74246,-5.56297 z m 12.95984,3.42545 c 0.32167,-1.28162 0.44274,-4.31912 0.26905,-6.75 l -0.31579,-4.41979 -1.61359,6.75 c -1.3195,5.51973 -1.36854,6.75 -0.26906,6.75 0.7395,0 1.60773,-1.0486 1.92939,-2.33021 z m -1.46779,-1.25312 c 0.048,-1.16495 0.28494,-1.4019 0.60416,-0.60417 0.28887,0.72187 0.25335,1.58437 -0.0789,1.91667 -0.33229,0.33229 -0.56864,-0.25834 -0.52522,-1.3125 z m -17.34055,-16.63315 c -0.20264,-2.90593 -0.37057,-0.78352 -0.37317,4.71648 -0.003,5.5 0.16319,7.87758 0.36844,5.28352 0.20525,-2.59406 0.20738,-7.09406 0.005,-10 z m 7.38978,1.96004 c 0.13395,-2.58784 0.004,-4.94419 -0.28763,-5.23635 -0.29215,-0.29215 -0.61516,2.03858 -0.7178,5.1794 -0.22189,6.79036 0.65431,6.83999 1.00543,0.057 z m 12.08306,-15.39952 c 0.15882,-2.83578 -0.0487,-4.94672 -0.46124,-4.69098 -0.4125,0.25573 -0.75,0.015 -0.75,-0.53503 0,-0.55 0.45,-1.27811 1,-1.61803 1.18732,-0.7338 1.36923,-17.61338 0.1859,-17.25 -0.44776,0.1375 -2.33934,-1.26946 -4.20351,-3.12658 l -3.3894,-3.37658 2.81889,-2.4247 c 1.55039,-1.33359 2.61015,-2.63345 2.35502,-2.88857 -0.25513,-0.25513 -1.54455,0.6107 -2.86539,1.92408 -1.32083,1.31337 -3.98495,3.23269 -5.92026,4.26515 -1.93531,1.03246 -3.58437,2.27689 -3.66459,2.7654 -0.0802,0.48851 -0.57916,1.16351 -1.10878,1.5 -0.52962,0.33649 -1.24132,2.6368 -1.58155,5.1118 l -0.6186,4.5 1.50794,-4.68671 c 1.44589,-4.49384 5.36925,-8.81329 8.00514,-8.81329 0.6881,0 2.87742,1.67438 4.86514,3.72084 3.48029,3.58314 3.61405,3.99025 3.61405,11 0,4.24245 -0.42208,7.27916 -1.01175,7.27916 -0.59801,0 -0.84367,1.94241 -0.60073,4.75 0.22606,2.6125 0.51763,6.325 0.64793,8.25 0.27487,4.06075 0.76315,1.71197 1.17579,-5.65596 z m -19.48144,-2.07174 c -0.21648,-2.07476 -0.39722,-0.6223 -0.40166,3.2277 -0.004,3.85 0.17268,5.54754 0.39359,3.7723 0.22091,-1.77523 0.22454,-4.92523 0.008,-7 z m 5.93248,4.4777 c -0.27741,-0.6875 -0.50439,-0.125 -0.50439,1.25 0,1.375 0.22698,1.9375 0.50439,1.25 0.27741,-0.6875 0.27741,-1.8125 0,-2.5 z m -0.67923,-6.32515 c -1.2381,-5.48959 -5.95242,-7.80607 -5.95242,-2.92485 0,0.55 0.40881,0.35394 0.90847,-0.4357 1.25686,-1.98628 4.0609,0.35552 4.0609,3.39148 0,1.88024 0.73304,3.54422 1.56136,3.54422 0.12541,0 -0.13483,-1.60881 -0.57831,-3.57515 z m -4.29994,-9.61235 c -0.31922,-0.79773 -0.55618,-0.56078 -0.60416,0.60417 -0.0434,1.05416 0.19292,1.64479 0.52522,1.3125 0.33229,-0.33229 0.36781,-1.19479 0.0789,-1.91667 z m 16.31689,0.10668 c 1.16585,-0.81625 0.98583,-0.9051 -0.80814,-0.39884 -3.82559,1.07956 -12.0174,-0.46232 -12.5191,-2.35637 -0.31349,-1.1835 -0.47425,-1.03258 -0.55676,0.52267 -0.0928,1.74906 0.53438,2.26735 3.134,2.58996 6.29337,0.781 9.26511,0.6822 10.75,-0.35742 z m -0.83824,-7.04181 c -2.27509,-5.30757 -4.40107,-7.25358 -7.01728,-6.42323 -1.95468,0.62039 -5.78845,7.23523 -4.7786,8.24507 0.29523,0.29523 0.82416,-0.60819 1.17539,-2.00761 0.83089,-3.31055 3.9571,-6.09807 5.9719,-5.32492 0.87321,0.33508 2.52938,2.87526 3.68036,5.64483 1.15098,2.76958 2.2646,4.86369 2.47471,4.65358 0.21011,-0.21011 -0.4678,-2.36458 -1.50648,-4.78772 z m 2.53745,-9.50579 c -0.61248,-1.99563 -1.26014,-3.18879 -1.43925,-2.65148 -0.35192,1.05577 1.41308,6.2799 2.12169,6.2799 0.23713,0 -0.07,-1.63279 -0.68244,-3.62842 z m -7.03255,-8.47458 c 3.71949,-2.29877 3.72317,-2.50083 0.19082,-10.48629 -1.34601,-3.04288 -2.55679,-4.41071 -3.90427,-4.41071 -1.28654,0 -1.95321,-0.68264 -1.95321,-2 0,-1.1 0.43588,-2 0.96861,-2 0.53274,0 0.69151,0.7875 0.35283,1.75 -0.51601,1.46643 -0.3894,1.53654 0.78138,0.43268 1.19114,-1.12306 1.13129,-1.5137 -0.40582,-2.649 -1.36051,-1.00485 -1.48322,-1.47292 -0.5,-1.90719 0.71665,-0.31653 0.403,-0.48571 -0.697,-0.37596 -1.1,0.10976 -2.55735,-0.15009 -3.23855,-0.57743 -0.82549,-0.51785 -1.05643,-0.30241 -0.69249,0.64602 0.30033,0.78265 -0.18744,2.1565 -1.08393,3.05299 -1.50666,1.50666 -1.45937,1.611 0.62492,1.37894 1.81225,-0.20177 2.44279,0.43603 3.21199,3.24895 0.52639,1.925 1.07433,5.525 1.21765,8 0.14332,2.475 0.30554,5.2875 0.36049,6.25 0.12783,2.23879 0.63357,2.20134 4.76658,-0.353 z M 148.436,450.6524 c 2.4977,-1.18524 3.36919,-2.19411 3.15113,-3.64787 -0.42221,-2.81479 -2.98418,-4.13572 -6.3721,-3.28541 l -2.88023,0.7229 2.36927,1.78714 c 2.61933,1.97577 2.08709,4.06158 -1.03639,4.06158 -1.1,0 -1.72189,0.45 -1.38197,1 0.85975,1.3911 2.15738,1.25642 6.15029,-0.63834 z m -4.924,-11.94606 c -1.52555,-0.82738 -3.26109,-1.20311 -3.85677,-0.83496 -1.53056,0.94594 1.00122,2.39496 4.13048,2.36401 l 2.5,-0.0247 -2.77371,-1.50432 z m 5.27116,-10.42175 c -1.21733,-2.9389 -3.65821,-4.99385 -5.93171,-4.99385 -2.11943,0 -0.99988,1.58638 1.88913,2.67686 1.88765,0.71251 3.19513,2.07262 3.6201,3.76581 0.36587,1.45776 0.89675,2.41894 1.17973,2.13597 0.28298,-0.28298 -0.0578,-1.89614 -0.75725,-3.58479 z"
         id="path3008" />
      <path
         style="fill:#808080"
         d="m 145.37818,554.04074 c -0.75805,-5.07662 -1.03377,-25.18359 -0.70278,-51.25 0.23576,-18.56746 1.90023,-33.68992 3.93171,-35.7214 0.55801,-0.55801 0.76759,-2.53647 0.46574,-4.39658 -0.47974,-2.95628 -0.28059,-3.38202 1.58202,-3.38202 2.3896,0 2.53972,-0.36748 1.18452,-2.8997 -0.65001,-1.21454 -2.27551,-1.82031 -5.19117,-1.93456 -2.33466,-0.0915 -4.60192,-0.72869 -5.03836,-1.41603 -1.38357,-2.17896 -0.89101,-3.74971 1.17585,-3.74971 1.1,0 2,-0.45 2,-1 0,-0.55 -0.65917,-1 -1.46482,-1 -1.659,0 -3.91004,-3.58445 -3.08717,-4.91588 0.29728,-0.481 -0.13191,-1.13258 -0.95375,-1.44795 -2.13753,-0.82024 -1.84393,-3.37867 0.53375,-4.65116 1.1154,-0.59695 1.76384,-1.51278 1.44098,-2.03518 -0.32286,-0.52241 -0.0907,-0.94983 0.51583,-0.94983 0.60657,0 0.97063,0.7875 0.80902,1.75 -0.21465,1.27836 0.37994,1.75 2.20616,1.75 3.54044,0 4.09779,-5.39934 0.86796,-8.40838 -2.46318,-2.29481 -3.86796,-2.66983 -3.86796,-1.0326 0,0.58246 -0.45734,0.77636 -1.01631,0.4309 -0.55897,-0.34546 -0.73989,-1.07538 -0.40204,-1.62203 0.33785,-0.54665 -0.11566,-1.80048 -1.0078,-2.78628 -1.99178,-2.2009 -1.10506,-4.94673 1.78645,-5.53189 6.71439,-1.35882 14.31427,-1.50816 15.94821,-0.3134 1.82675,1.33575 4.0381,9.39536 5.10685,18.61265 0.34111,2.94194 1.06221,6.17485 1.60242,7.18426 1.34467,2.51253 1.23466,5.71596 -0.21285,6.19846 -1.17211,0.3907 0.36702,7.0913 3.50712,15.26831 1.34153,3.49342 1.38602,7.98412 0.42606,43 -0.50305,18.34935 -0.3768,27.35803 0.42904,30.61515 1.01183,4.08972 0.89654,5.12183 -1.01266,9.06572 -1.18497,2.44782 -2.15449,5.8835 -2.15449,7.63485 l 0,3.18428 -9.38646,0 -9.38645,0 -0.63462,-4.25 z m 13.40729,-22.31841 c 5.13126,-14.70311 6.37487,-21.13599 5.18893,-26.84103 -0.58202,-2.79981 -1.34839,-8.12806 -1.70304,-11.84056 l -0.64484,-6.75 -4.5454,0 -4.54541,0 0.65835,3.25 c 0.36209,1.7875 0.93702,5.95 1.27762,9.25 0.3406,3.3 1.00599,6.25489 1.47863,6.56642 0.47369,0.31222 0.43544,1.88295 -0.0852,3.5 -0.51952,1.61347 -1.19989,6.53358 -1.51193,10.93358 -0.31204,4.4 -1.1858,10.7 -1.94169,14 -1.31905,5.75862 -1.28888,6.06861 0.74995,7.70542 2.00199,1.60722 2.14399,1.60722 2.46627,0 0.18809,-0.93798 1.60909,-5.33621 3.15779,-9.77383 z m -9.75501,0.0684 c 0.32047,-1.67641 0.0294,-2.5 -0.88342,-2.5 -0.78542,0 -1.36133,1.05763 -1.36133,2.5 0,1.375 0.39754,2.5 0.88342,2.5 0.48588,0 1.09848,-1.125 1.36133,-2.5 z m 4.30325,-14.5 c 1.29628,-12.98766 -0.78813,-28.99267 -4.09033,-31.40729 -1.4435,-1.05551 -2.13607,-1.1219 -2.68602,-0.25747 -0.95057,1.49414 -1.00621,41.09686 -0.0591,42.044 0.39191,0.39192 1.85441,0.57942 3.25,0.41667 2.45937,-0.28681 2.56965,-0.61887 3.58542,-10.79591 z m 12.04018,9.6308 c 0.28898,-0.75306 0.38735,-3.79056 0.21862,-6.75 l -0.3068,-5.3808 -1.61359,6.75 c -1.35534,5.66967 -1.39033,6.75 -0.21862,6.75 0.76724,0 1.63141,-0.61614 1.92039,-1.3692 z m 1.23507,-49.1308 c 0.0149,-6.84496 -0.50594,-11.49138 -1.65075,-14.72696 l -1.6725,-4.72697 -4.42084,3.50079 c -2.43146,1.92544 -5.45284,3.75981 -6.71417,4.07638 -2.49419,0.626 -2.92947,1.58856 -3.78807,8.37676 l -0.56919,4.5 1.50794,-4.68671 c 1.44537,-4.49223 5.36906,-8.81329 8.00283,-8.81329 0.68682,0 2.87614,1.8013 4.86514,4.00288 3.42046,3.78604 3.61636,4.37741 3.61636,10.91667 0,4.22365 -0.4368,7.05938 -1.12259,7.28798 -0.80149,0.26716 -0.88204,2.79388 -0.28161,8.83334 l 0.841,8.45913 0.68235,-8.5 c 0.37529,-4.675 0.69214,-13 0.7041,-18.5 z m -19.14014,3.3125 c -0.31922,-0.79773 -0.55618,-0.56078 -0.60416,0.60417 -0.0434,1.05416 0.19292,1.64479 0.52522,1.3125 0.33229,-0.33229 0.36781,-1.19479 0.0789,-1.91667 z m 16.25218,0.24865 c 1.23135,-0.77916 1.24199,-1.52301 0.0749,-5.23469 -1.70562,-5.42442 -4.80631,-8.99993 -7.47358,-8.61805 -2.22265,0.31823 -6.42501,7.74435 -6.4954,11.47823 -0.0326,1.72881 0.63925,2.27109 3.20878,2.58996 6.09904,0.75689 9.24906,0.69337 10.6853,-0.21545 z m -5.18529,-25.05019 c 1.7875,-1.08986 3.24792,-2.32568 3.24537,-2.74626 -0.003,-0.42059 -1.10732,-3.4647 -2.45505,-6.7647 -1.99124,-4.87565 -2.83363,-5.94137 -4.49537,-5.68714 -1.50016,0.22951 -2.04495,-0.2367 -2.04495,-1.75 0,-1.13457 0.43588,-2.06286 0.96861,-2.06286 0.53274,0 0.69151,0.7875 0.35283,1.75 -0.51601,1.46643 -0.3894,1.53654 0.78138,0.43268 1.19114,-1.12306 1.13129,-1.5137 -0.40582,-2.649 -1.36051,-1.00485 -1.48322,-1.47292 -0.5,-1.90719 0.71665,-0.31653 0.403,-0.48571 -0.697,-0.37596 -1.1,0.10976 -2.63897,-0.20054 -3.41994,-0.68953 -1.06758,-0.66846 -1.26424,-0.48334 -0.79249,0.74602 1.12751,2.93823 -4.16635,6.31618 -5.78757,3.69298 -0.79726,-1.28999 -4.5,-1.30567 -4.5,-0.0191 0,1.48226 4.64125,2.34058 7.75,1.43323 4.01435,-1.17166 4.74408,-1.08266 4.80274,0.58582 0.029,0.825 0.63429,3.2114 1.34508,5.30311 0.71079,2.09171 1.04081,4.80527 0.73339,6.03015 -0.59991,2.39019 0.19348,6.66915 1.23542,6.663 0.34835,-0.002 2.09587,-0.89544 3.88337,-1.9853 z m -10.21788,-5.45993 c 3.60197,-1.505 4.52606,-4.09285 2.26788,-6.35103 -1.77513,-1.77513 -6.35935,-1.45575 -7.89459,0.55 -0.73671,0.9625 -0.95764,1.42833 -0.49096,1.03518 1.01368,-0.85395 4.58555,0.88382 4.58555,2.23095 0,0.52017 -1.12189,1.22734 -2.49309,1.57149 -1.3712,0.34415 -2.24464,1.02772 -1.94098,1.51905 0.76315,1.2348 1.94433,1.1248 5.96619,-0.55564 z m 0.52479,-22.87858 c -1.01137,-3.0645 -3.0904,-4.60023 -6.30691,-4.6588 -1.80632,-0.0329 -0.4976,1.60985 2.25223,2.82704 1.74525,0.77253 3.26092,2.35962 3.6201,3.79069 0.33982,1.35397 0.83367,2.24596 1.09743,1.98219 0.26376,-0.26376 -0.0345,-2.03726 -0.66285,-3.94112 z"
         id="path3006" />
      <path
         style="fill:#585858"
         d="m 145.51297,555.04074 c -0.88318,-5.74376 -0.63646,-23.68808 0.33394,-24.28783 0.51634,-0.31911 0.9388,0.38385 0.9388,1.56215 0,2.73291 2.38849,2.07376 2.80942,-0.77531 0.22784,-1.54221 -0.29942,-2.18063 -2,-2.42167 -3.21837,-0.45617 -3.81964,-5.37275 -3.21971,-26.32734 0.53383,-18.64572 2.02504,-31.87361 3.95128,-35.05014 0.68376,-1.12757 1.07555,-3.49007 0.87064,-5.25 -0.30833,-2.64809 -0.0311,-3.19986 1.6079,-3.19986 2.23683,0 2.37647,-0.39154 1.03415,-2.8997 -0.65001,-1.21454 -2.27551,-1.82031 -5.19117,-1.93456 -2.33466,-0.0915 -4.60192,-0.72869 -5.03836,-1.41603 -1.38357,-2.17896 -0.89101,-3.74971 1.17585,-3.74971 1.1,0 2,-0.45 2,-1 0,-0.55 -0.65917,-1 -1.46482,-1 -0.80565,0 -1.96187,-0.92876 -2.56939,-2.06392 -1.33864,-2.50127 0.25086,-4.93608 3.2224,-4.93608 1.06881,0 2.85225,-0.48646 3.9632,-1.08102 2.32658,-1.24515 2.75663,-0.99287 3.32328,1.94947 0.22657,1.17649 0.7343,2.66065 1.12828,3.29813 0.39399,0.63749 0.80191,3.7932 0.90648,7.0127 0.10458,3.21949 0.44092,6.1044 0.74742,6.41091 0.76877,0.76876 6.74249,-2.41862 7.29519,-3.89247 0.24704,-0.65875 -0.65589,-3.89772 -2.0065,-7.19772 -1.99498,-4.87444 -2.83926,-5.94131 -4.50059,-5.68714 -1.50016,0.22951 -2.04495,-0.2367 -2.04495,-1.75 0,-1.13457 0.43588,-2.06286 0.96861,-2.06286 0.53274,0 0.69151,0.7875 0.35283,1.75 -0.50269,1.42856 -0.36835,1.5204 0.73138,0.5 0.99567,-0.92385 1.05446,-1.54271 0.22532,-2.37185 -0.61702,-0.61702 -0.86378,-1.79438 -0.54837,-2.61634 0.46823,-1.22019 0.20272,-1.29605 -1.44666,-0.41333 -2.40399,1.28658 -3.28311,0.62569 -3.28311,-2.46809 0,-3.70113 -2.16521,-7.38375 -4.71801,-8.02446 -2.4441,-0.61343 -4.72867,0.57884 -2.58217,1.34758 0.6599,0.23634 2.3474,1.33239 3.75,2.43568 3.38504,2.66268 3.65025,9.2017 0.44282,10.91827 -1.52402,0.81563 -2.40981,0.82537 -3.2,0.0352 -1.26305,-1.26305 -4.69264,-1.47692 -4.69264,-0.29264 0,0.44 0.54,1.34 1.2,2 0.93333,0.93333 0.92636,1.2 -0.0314,1.2 -2.21106,0 -2.60608,-3.20533 -0.58109,-4.71519 1.05186,-0.78429 1.79998,-1.84421 1.66248,-2.35539 -0.1375,-0.51118 0.21973,-0.92942 0.79384,-0.92942 0.57411,0 0.91161,0.7875 0.75,1.75 -0.42122,2.50863 4.54772,2.43051 5.03102,-0.0791 0.58023,-3.01289 -0.61538,-6.08732 -2.92175,-7.51308 -1.81644,-1.12289 -2.31013,-1.12289 -3.02182,0 -0.63902,1.00824 -0.85447,0.86416 -0.86598,-0.57908 -0.008,-1.0567 -0.70116,-2.67912 -1.53942,-3.60539 -1.7793,-1.96611 -0.98772,-4.90513 1.3811,-5.12781 0.90365,-0.0849 3.44301,-0.27963 5.64301,-0.43264 2.2,-0.15301 5.125,-0.55979 6.5,-0.90396 5.04069,-1.26172 7.20843,3.30825 9.43917,19.89939 0.36297,2.69959 1.08764,5.7075 1.61039,6.68426 1.43048,2.67287 1.14676,5.9074 -0.51818,5.9074 -1.41232,0 -1.39456,0.68939 0.12237,4.75 1.053,2.81874 1.48637,6.88939 0.5907,5.54848 -0.57573,-0.86193 -1.99708,-0.25626 -5.02898,2.14297 -2.32452,1.83946 -5.29931,3.61376 -6.61064,3.94288 -2.77892,0.69747 -3.24627,1.65749 -4.01029,8.23782 -0.5328,4.58887 -0.50297,4.67266 0.50346,1.41439 1.46512,-4.74326 4.42872,-8.67951 7.05109,-9.36528 1.63494,-0.42754 3.15178,0.39432 6.01838,3.26092 3.60993,3.60992 3.83253,4.18864 3.83253,9.96374 0,3.37217 -0.50372,6.9378 -1.11938,7.92363 -0.79123,1.26696 -0.84927,4.26781 -0.19798,10.23643 l 0.92141,8.44402 0.81858,-14.74424 c 0.80954,-14.58137 0.51584,-24.37599 -0.84726,-28.25576 -0.38647,-1.1 0.0763,-0.65 1.02836,1 1.17004,2.02774 1.74891,5.26861 1.78616,10 0.0658,8.35457 -1.30597,51.72324 -1.77128,56 -0.17952,1.65 0.31781,5.19653 1.10519,7.88118 1.37225,4.67884 1.32237,5.12455 -1.20342,10.75275 -1.44925,3.22937 -2.41391,6.22933 -2.14368,6.66657 0.27023,0.43725 0.042,1.44851 -0.5072,2.24725 -0.7263,1.05631 -0.90161,0.44899 -0.64301,-2.2276 0.19554,-2.02392 -4.2e-4,-3.45987 -0.43548,-3.19099 -0.43506,0.26888 -0.79101,1.62287 -0.79101,3.00886 0,2.49614 -0.0701,2.51687 -7.40789,2.19098 -4.07433,-0.18095 -7.19777,0.008 -6.94098,0.421 0.2568,0.4125 0.0414,0.75 -0.47861,0.75 -0.52004,0 -1.1704,-1.4625 -1.44526,-3.25 z m 10.23638,-0.2062 c 1.69661,-2.04428 0.36041,-3.66324 -2.44276,-2.95968 -1.79069,0.44943 -2.66742,0.0301 -3.65117,-1.74633 -0.71204,-1.28579 -1.17362,-2.75146 -1.02574,-3.25706 0.14788,-0.5056 -0.48086,-0.29705 -1.3972,0.46345 -1.31712,1.09311 -1.3813,1.47584 -0.30642,1.8273 0.74781,0.24452 1.97291,1.30951 2.72245,2.36665 0.98609,1.39074 2.04976,1.74965 3.84788,1.29835 1.78038,-0.44685 2.36421,-0.25688 2.05886,0.6699 -0.70433,2.13782 -4.50749,2.05567 -6.70805,-0.14489 -1.13382,-1.13382 -2.06149,-1.63701 -2.06149,-1.11819 0,1.32288 4.11084,4.0567 6.10006,4.0567 0.91028,0 2.19889,-0.65529 2.86358,-1.4562 z m 10.02057,-8.50568 c 0.73227,-1.76786 0.97305,-4.45243 0.58489,-6.52145 -0.59601,-3.17702 -0.97789,-3.51667 -3.9539,-3.51667 -2.64759,0 -3.52037,0.53977 -4.44662,2.75 -1.13627,2.71141 -1.12979,2.71842 0.46146,0.5 0.88765,-1.2375 2.63587,-2.25 3.88494,-2.25 3.71326,0 4.62854,4.88799 1.90242,10.15972 -0.87043,1.68323 -1.15402,2.79554 -0.6302,2.4718 0.52381,-0.32373 1.51247,-1.94076 2.19701,-3.5934 z m -10.98421,-1.27936 c -5.35663,-3.37858 -6.11241,-4.402 -5.51419,-7.46689 0.44695,-2.2899 0.375,-2.43227 -0.40016,-0.79187 -0.51979,1.1 -0.94508,3.575 -0.94508,5.5 0,2.16094 0.26005,2.87831 0.67971,1.87505 0.6023,-1.43985 1.07839,-1.36099 4.17972,0.69236 1.925,1.27451 3.95,2.33566 4.5,2.3581 0.55,0.0224 -0.575,-0.9526 -2.5,-2.16675 z m 4.42496,-0.62975 c -1.05873,-1.02904 -2.14925,-1.66725 -2.42339,-1.41824 -0.27413,0.24901 0.37437,1.09096 1.44113,1.87099 2.73729,2.00155 3.25966,1.76078 0.98226,-0.45275 z m -0.26917,-12.89633 c 2.01069,-6.45298 3.99519,-13.08268 4.41001,-14.73268 0.41481,-1.65 0.9148,-2.325 1.11107,-1.5 0.19628,0.825 -0.28883,3.97439 -1.07801,6.99865 -1.57637,6.04083 -1.48389,6.55495 1.00714,5.59905 1.4856,-0.57008 1.6174,-1.78893 1.07927,-9.98116 -0.33714,-5.13248 -1.03497,-11.30835 -1.55074,-13.72416 -0.51576,-2.41581 -1.24284,-7.42988 -1.61573,-11.14238 l -0.67799,-6.75 -4.5454,0 -4.54541,0 0.65835,3.25 c 0.36209,1.7875 0.93702,5.95 1.27762,9.25 0.3406,3.3 1.00599,6.25489 1.47863,6.56642 0.47359,0.31215 0.43458,1.88331 -0.0869,3.5 -0.52044,1.61347 -1.19588,6.30858 -1.50097,10.43358 -0.30509,4.125 -1.17328,10.50246 -1.9293,14.17214 -1.22266,5.93469 -1.20019,6.84653 0.20328,8.25 0.86782,0.86782 1.81893,1.57006 2.11358,1.56054 0.29464,-0.01 2.18082,-5.29703 4.1915,-11.75 z m -5.62773,-14.10361 c 1.33097,-13.42663 -0.48556,-28.63806 -3.75243,-31.42235 -1.65967,-1.41451 -2.27739,-1.52012 -2.92455,-0.5 -1.00468,1.58367 -1.13471,41.17632 -0.1385,42.17252 0.39191,0.39192 1.85441,0.57942 3.25,0.41667 2.45764,-0.28661 2.56974,-0.62198 3.56548,-10.66684 z m 11.47194,-32.84289 c 0,-0.4324 -2.1375,-0.81584 -4.75,-0.8521 -2.6125,-0.0363 -6.23841,-0.33858 -8.05758,-0.67184 -2.61895,-0.47976 -3.08614,-0.33911 -2.24401,0.6756 1.16432,1.40292 15.05159,2.18564 15.05159,0.84834 z m -15.39997,-3.88617 c 0.78381,0.30078 4.33509,0.845 7.89175,1.20939 7.53724,0.77222 8.45917,-0.12722 6.47621,-6.31816 -1.47255,-4.59742 -4.66106,-8.29124 -7.157,-8.29124 -2.02043,0 -5.40432,4.87194 -6.33868,9.12608 -0.32699,1.48876 -1.24203,2.95531 -2.03342,3.259 -0.79139,0.30368 -1.38669,1.35377 -1.32289,2.33354 0.10837,1.66411 0.14704,1.66135 0.58747,-0.042 0.27945,-1.08083 1.05184,-1.60072 1.89656,-1.27657 z m 7.9286,-19.52795 c 2.39557,-1.72037 4.61595,-3.80645 4.93417,-4.63572 0.48466,-1.26299 0.20996,-1.23975 -1.69211,0.14321 -2.38609,1.73487 -5.09404,3.08795 -8.02069,4.00771 -1.89283,0.59486 -2.44707,3.61274 -0.66348,3.61274 0.59759,0 3.04654,-1.40757 5.44211,-3.12794 z m -5.52863,1.12794 c 0,-0.55 0.70156,-1 1.55902,-1 0.85746,0 1.2809,0.45 0.94098,1 -0.33992,0.55 -1.04148,1 -1.55902,1 -0.51754,0 -0.94098,-0.45 -0.94098,-1 z m -3.46788,-11.44897 c 3.76281,-1.5722 4.42975,-3.8307 1.94274,-6.57881 -1.80315,-1.99246 -5.82362,-1.52619 -7.66135,0.88852 -0.68617,0.90159 -0.86574,1.31759 -0.39906,0.92444 1.01368,-0.85395 4.58555,0.88382 4.58555,2.23095 0,0.52017 -1.12189,1.22734 -2.49309,1.57149 -1.3712,0.34415 -2.24464,1.02772 -1.94098,1.51905 0.76315,1.2348 1.94433,1.1248 5.96619,-0.55564 z"
         id="path3004" />
      <path
         style="fill:#2c2c2c"
         d="m 145.39381,550.29074 c -1.11525,-12.03694 -0.65692,-15.42206 2.1419,-15.81955 2.82813,-0.40166 3.27254,-5.11132 0.5,-5.29876 -0.9625,-0.0651 -0.4,-0.40592 1.25,-0.75744 2.85857,-0.60899 3.02825,-0.93418 3.5993,-6.89765 0.32962,-3.4422 0.89317,-6.5524 1.25233,-6.91157 0.83631,-0.8363 -0.25034,10.19551 -1.86092,18.89245 -1.14769,6.19737 -1.09904,6.837 0.6397,8.41054 1.03502,0.93668 2.00446,1.51831 2.15432,1.29252 0.68328,-1.0295 7.64694,-22.78927 8.29201,-25.91054 0.39784,-1.925 0.90517,-2.97698 1.1274,-2.33773 0.22222,0.63925 -0.27696,3.7701 -1.10929,6.95743 -1.61458,6.18292 -1.51656,6.94797 0.77743,6.06769 1.18641,-0.45527 1.50547,-3.78993 1.71013,-17.87354 0.49165,-33.8331 0.40764,-44.34526 -0.37413,-46.81385 l -0.79171,-2.5 1.54222,2.5 c 1.34486,2.18006 1.45034,6.46731 0.82424,33.5 -0.7863,33.94904 -0.78315,34.4742 0.2552,42.62986 0.55634,4.36976 0.35046,6.27227 -0.91987,8.5 -0.90016,1.57858 -2.07482,4.67014 -2.61036,6.87014 l -0.97372,4 0.51146,-4.35497 c 0.28131,-2.39524 1.17359,-5.63539 1.98286,-7.20034 1.54445,-2.98664 1.88708,-6.69786 0.86441,-9.3629 -0.97738,-2.54702 -6.81815,-2.06819 -8.15091,0.66821 -1.89701,3.89492 -1.9643,5.21421 -0.32987,6.4682 3.53049,2.70872 -0.9167,1.06119 -4.87454,-1.80585 -2.93556,-2.12651 -3.94045,-3.40959 -3.22818,-4.12186 1.1389,-1.1389 0.49777,-3.79049 -0.9165,-3.79049 -0.49116,0 -0.89301,2.7 -0.89301,6 0,3.33333 -0.44444,6 -1,6 -0.55,0 -1,0.66088 -1,1.46862 0,0.89459 0.58629,1.24363 1.5,0.89301 0.93306,-0.35805 1.5,0.006 1.5,0.96399 0,1.88303 3.04281,2.97331 5.60912,2.00982 1.6793,-0.63047 1.73521,-0.51858 0.4997,0.99991 -1.60282,1.96991 -5.03494,1.33763 -6.60256,-1.21634 -0.79093,-1.28859 -1.10771,-0.80266 -1.55218,2.38099 -0.46898,3.35923 -0.6846,2.63837 -1.34598,-4.5 z m 1.05418,-14.25 c -0.27741,-0.6875 -0.50439,-0.125 -0.50439,1.25 0,1.375 0.22698,1.9375 0.50439,1.25 0.27741,-0.6875 0.27741,-1.8125 0,-2.5 z m -1.4732,-28.94098 c -0.10399,-11.93004 0.14842,-21.90041 0.56092,-22.15638 0.4125,-0.25596 0.63117,7.02998 0.48592,16.19099 -0.42601,26.8707 -0.84384,29.2517 -1.04684,5.96539 z m 8.88987,4.60765 c 0.048,-1.16495 0.28494,-1.4019 0.60416,-0.60417 0.28887,0.72187 0.25335,1.58437 -0.0789,1.91667 -0.33229,0.33229 -0.56864,-0.25834 -0.52522,-1.3125 z m 0.93636,-3.60765 c -0.008,-0.93004 0.43469,-1.9691 0.98469,-2.30902 1.2656,-0.78218 1.2656,0.54163 0,2.5 -0.8354,1.29269 -0.97149,1.26629 -0.98469,-0.19098 z m -1.01531,-3.73666 c 0,-0.5102 -0.47169,-4.4477 -1.0482,-8.75 -0.75277,-5.61766 -1.5983,-8.29031 -3,-9.48265 -1.07349,-0.91316 -1.9518,-2.56925 -1.9518,-3.6802 0,-1.7264 0.39958,-1.90629 2.75,-1.23803 1.5125,0.43003 5.225,0.73612 8.25,0.6802 l 5.5,-0.10168 -0.11302,-3.73821 c -0.14198,-4.6963 -4.08739,-10.74556 -7.01454,-10.75496 -2.71602,-0.009 -4.45071,2.07665 -6.54494,7.86803 -1.26611,3.50131 -1.68733,4.01768 -1.73355,2.12514 -0.0843,-3.45283 3.92466,-10.12016 6.69156,-11.12873 1.83702,-0.66961 2.9715,-0.19908 5.78129,2.39782 2.85605,2.63966 3.60522,4.17635 4.09387,8.39731 0.70185,6.06252 -0.19407,10.74001 -1.85993,9.71045 -0.73471,-0.45407 -0.93058,-0.15758 -0.55039,0.83317 0.32463,0.84597 0.82381,5.30729 1.1093,9.91405 l 0.51907,8.37593 -1.35379,-9.5 c -0.74458,-5.225 -1.39229,-9.6125 -1.43936,-9.75 -0.0471,-0.1375 -2.16167,-0.25 -4.69911,-0.25 l -4.61355,0 0.59152,4.25 c 1.51177,10.8618 1.84507,14.75 1.2644,14.75 -0.34586,0 -0.62883,-0.41744 -0.62883,-0.92764 z m 11,-19.94085 c 0,-0.88168 -15.10631,-2.26261 -15.97104,-1.45998 -0.25907,0.24047 0.19093,0.85586 1,1.36753 1.86187,1.17749 14.97104,1.25844 14.97104,0.0925 z m -18.84211,-3.13151 c 0,-1.375 0.22698,-1.9375 0.50439,-1.25 0.27741,0.6875 0.27741,1.8125 0,2.5 -0.27741,0.6875 -0.50439,0.125 -0.50439,-1.25 z m 1.0601,-5.5 c -0.0102,-1.65 0.34166,-4.125 0.78201,-5.5 l 0.80064,-2.5 -0.0186,2.5 c -0.0103,1.375 -0.36216,3.85 -0.78201,5.5 l -0.76337,3 -0.0186,-3 z m 2.23329,-12.63898 c -0.0387,-3.0684 0.32053,-3.86102 1.75,-3.86102 1.13205,0 1.79872,-0.74127 1.79872,-2 0,-1.1 -0.1125,-2.03171 -0.25,-2.07047 -0.1375,-0.0388 -2.49798,-0.30346 -5.24552,-0.58824 -2.74754,-0.28478 -5.32815,-1.04057 -5.73469,-1.67953 -1.33272,-2.09465 -0.80623,-3.66176 1.23021,-3.66176 2.21329,0 2.7096,-1.547 0.75,-2.33772 -0.74674,-0.30132 -0.54544,-0.53617 0.5,-0.58333 2.53324,-0.11428 2.15106,2.83085 -0.5,3.85312 -1.89244,0.72973 -1.99045,0.97287 -0.61673,1.52997 2.52148,1.02256 8.86673,-2.02315 8.86673,-4.25603 0,-3.23004 -3.03644,-5.04451 -6.75,-4.03357 -1.7875,0.48661 -3.26368,1.43438 -3.28041,2.10615 -0.0167,0.67178 -0.50227,0.41035 -1.07899,-0.58095 -1.40592,-2.41656 0.51718,-4.69276 3.98184,-4.71295 1.44516,-0.008 3.29274,-0.43594 4.10575,-0.95005 1.16792,-0.73853 1.75598,-0.0532 2.80167,3.26531 0.72792,2.31003 1.46392,6.57624 1.63557,9.48048 0.17165,2.90423 0.61659,5.58492 0.98875,5.95709 0.99599,0.99598 5.91847,-2.2169 7.22088,-4.71304 1.12466,-2.15547 1.12527,-2.15536 1.74573,0.31674 0.34138,1.36014 0.89005,3.30228 1.21928,4.31588 0.49687,1.52972 0.41523,1.58799 -0.48043,0.3429 -0.59346,-0.825 -1.08591,-1.01378 -1.09433,-0.41952 -0.017,1.2028 -7.13571,6.42177 -11.01531,8.07575 -2.41556,1.02982 -2.50165,0.9354 -2.54872,-2.79521 z m 8.90492,-2.40683 c 2.55409,-1.95019 4.6438,-3.97519 4.6438,-4.5 0,-1.39448 -0.52029,-1.21946 -4.59514,1.54581 -2.02617,1.375 -4.52116,2.5 -5.54441,2.5 -1.19378,0 -1.86045,0.71667 -1.86045,2 0,2.90874 2.10027,2.4674 7.3562,-1.54581 z m 1.12063,-14.16388 c -0.81226,-1.944 -1.47683,-4.16318 -1.47683,-4.93149 0,-0.99071 -0.72698,-1.21446 -2.5,-0.76946 -2.07458,0.52068 -2.5,0.26867 -2.5,-1.48095 0,-1.15963 0.43588,-2.10841 0.96861,-2.10841 0.53274,0 0.68127,0.74882 0.33007,1.66405 -0.42936,1.11888 -0.25527,1.42716 0.53138,0.94098 1.41079,-0.87192 1.56342,-3.60503 0.20132,-3.60503 -0.53273,0 -0.6895,-0.72735 -0.34837,-1.61633 0.51861,-1.35148 0.28922,-1.43917 -1.3999,-0.53519 -2.40399,1.28658 -3.28311,0.62569 -3.28311,-2.46809 0,-3.70113 -2.16521,-7.38375 -4.71801,-8.02446 -2.46838,-0.61953 -4.71915,0.58294 -2.54537,1.35985 0.68014,0.24308 2.25514,1.35539 3.5,2.4718 l 2.26338,2.02983 -2.8758,-1.71418 c -2.37307,-1.41452 -3.02593,-1.47723 -3.73468,-0.35871 -0.65173,1.02854 -0.86259,0.89207 -0.87421,-0.56578 -0.008,-1.05669 -0.70116,-2.67911 -1.53942,-3.60538 -0.83826,-0.92627 -1.24012,-2.4242 -0.89301,-3.32874 0.64944,-1.69241 1.11272,-1.81404 7.91712,-2.07841 2.2,-0.0855 5.125,-0.47014 6.5,-0.8548 1.54416,-0.43199 3.15216,-0.19399 4.20574,0.62248 1.62119,1.25635 3.76111,9.7396 5.27025,20.8928 0.35176,2.59968 1.06356,4.98874 1.58179,5.30902 1.79633,1.11019 1.02718,5.20881 -1.08095,5.7601 -1.59139,0.41616 -2.33834,-0.22526 -3.5,-3.0055 z m 4.52317,1.0939 c 0,-0.33868 -0.6465,-2.70118 -1.43666,-5.25 -0.79017,-2.54881 -2.17539,-8.68421 -3.07828,-13.63421 -1.8539,-10.16382 -3.05687,-11.76999 -7.79717,-10.41049 -1.74608,0.50077 -5.09016,0.91049 -7.43129,0.91049 -3.19831,0 -4.2566,0.38969 -4.2566,1.56739 0,1.08046 0.58562,1.38152 1.88509,0.96908 3.3797,-1.07267 6.91942,1.44156 8.48075,6.02381 0.80239,2.3549 1.16083,4.59811 0.79653,4.98491 -0.3643,0.3868 0.27463,0.416 1.41985,0.0649 2.44558,-0.74976 5.96998,2.50851 5.11721,4.73081 -0.29873,0.77846 -0.18267,1.80772 0.25791,2.28724 0.44058,0.47953 1.34031,2.55936 1.99941,4.62186 0.65909,2.0625 1.83846,3.75 2.6208,3.75 0.78235,0 1.42245,-0.2771 1.42245,-0.61579 z m -25.62,-7.83632 c -0.96604,-2.51747 0.61346,-3.57801 4.92768,-3.30865 4.05359,0.2531 4.19475,0.15788 4.80269,-3.23924 l 0.62635,-3.5 0.13164,3.71482 c 0.10051,2.83623 -0.36677,3.98155 -1.97572,4.84264 -1.52402,0.81563 -2.40981,0.82537 -3.2,0.0352 -1.26305,-1.26305 -4.69264,-1.47692 -4.69264,-0.29264 0,0.44 0.54,1.34 1.2,2 0.93333,0.93333 0.92636,1.2 -0.0314,1.2 -0.67726,0 -1.48214,-0.65345 -1.78861,-1.45211 z m 3.12,-5.54789 c -0.33992,-0.55 -0.14148,-1 0.44098,-1 0.58246,0 1.05902,0.45 1.05902,1 0,0.55 -0.19844,1 -0.44098,1 -0.24254,0 -0.7191,-0.45 -1.05902,-1 z"
         id="path3002" />
      <path
         style="fill:#000000"
         d="m 145.42817,552.14405 c -0.73989,-7.07885 -0.66255,-17.32516 0.10833,-14.35331 0.51879,2 0.51879,2 1.31372,0 0.64079,-1.61221 0.80855,-1.67212 0.8652,-0.30902 0.0387,0.93004 -0.37971,1.9691 -0.92971,2.30902 -0.55,0.33992 -0.99311,2.05398 -0.98469,3.80902 0.0117,2.42807 0.24708,2.83235 0.98469,1.69098 0.82843,-1.2819 0.9716,-1.24555 0.98469,0.25 0.008,0.9625 -0.40218,1.75 -0.91244,1.75 -0.52668,0 -0.68235,2.37765 -0.36009,5.5 0.3122,3.025 0.34379,5.5 0.0702,5.5 -0.2736,0 -0.78656,-2.76601 -1.13991,-6.14669 z m 17.42782,4.06336 c 0.0387,-1.32917 0.47805,-3.31667 0.97642,-4.41667 0.63152,-1.3939 0.72154,-0.7878 0.29705,2 -0.70698,4.643 -1.37509,5.91088 -1.27347,2.41667 z m -12.04715,-2.22765 c -1.30085,-0.65396 -2.56487,-1.86402 -2.80891,-2.68902 -0.34165,-1.15493 -0.12976,-1.11369 0.92103,0.17926 0.75061,0.92359 2.48975,1.82415 3.86475,2.00123 1.375,0.17709 2.02487,0.63148 1.44417,1.00976 -0.58071,0.37828 -2.12018,0.15272 -3.42104,-0.50123 z m 14.00867,-5.38 c -0.0175,-0.65504 0.4182,-1.4691 0.9682,-1.80902 1.07491,-0.66433 1.31582,-5.72312 0.42959,-9.02101 -0.44965,-1.6733 -1.20478,-1.95792 -4.38901,-1.65425 -3.52252,0.33593 -3.92796,0.68999 -4.82161,4.2107 -0.79687,3.13941 -0.69683,3.95095 0.5458,4.42779 0.83682,0.32111 1.27459,0.83074 0.97284,1.1325 -0.62243,0.62243 -8.22958,-3.96471 -9.21257,-5.55521 -0.35369,-0.57229 -0.13352,-1.04052 0.48927,-1.04052 2.14812,0 0.46913,-3.414 -2.01956,-4.10647 -2.37228,-0.66009 -2.3843,-0.69906 -0.24475,-0.79385 1.68782,-0.0748 2.25,-0.706 2.25,-2.52636 0,-1.45055 -0.70393,-2.63141 -1.75,-2.93566 -0.9625,-0.27994 -0.4,-0.42544 1.25,-0.32332 2.58545,0.16 3.08767,-0.22889 3.63444,-2.81434 0.84392,-3.9906 0.092,3.27627 -1.00779,9.73988 -0.65637,3.85754 -0.49588,5.02098 0.86216,6.25 2.13068,1.92823 3.01119,1.9123 3.01119,-0.0545 0,-0.86054 0.8518,-3.67304 1.89289,-6.25 1.04108,-2.57696 2.82173,-7.61038 3.95698,-11.18538 1.13526,-3.575 2.08346,-5.76908 2.10712,-4.87573 0.0237,0.89335 -0.60314,3.45566 -1.39288,5.69402 -1.32073,3.74336 -1.30068,4.02292 0.25,3.48599 0.92724,-0.32107 2.19036,-1.20251 2.80693,-1.95878 0.86838,-1.06513 1.12702,-0.41386 1.14759,2.88974 0.0146,2.34562 0.33689,6.96476 0.71617,10.26476 0.53897,4.68929 0.34983,6.4369 -0.86579,8 -0.85547,1.1 -1.56972,1.46406 -1.58721,0.80902 z m -19.75944,-24.30902 c 0,-2.475 0.19502,-3.4875 0.43337,-2.25 0.23836,1.2375 0.23836,3.2625 0,4.5 -0.23835,1.2375 -0.43337,0.225 -0.43337,-2.25 z m 20.92259,-3.5 c 0.0204,-1.65 0.2445,-2.20394 0.49804,-1.23097 0.25354,0.97297 0.23687,2.32297 -0.037,3 -0.27393,0.67703 -0.48137,-0.11903 -0.46099,-1.76903 z m -2.116,-5.08333 c 0.048,-1.16495 0.28494,-1.4019 0.60416,-0.60417 0.28887,0.72187 0.25335,1.58437 -0.0789,1.91667 -0.33229,0.33229 -0.56864,-0.25834 -0.52522,-1.3125 z m 1.7921,-1.66667 c -0.50441,-4.88966 -0.43902,-7.51554 0.23034,-9.25 0.50058,-1.29712 0.79411,0.1965 0.83522,4.25 0.0349,3.4375 -0.16161,6.25 -0.43661,6.25 -0.275,0 -0.55803,-0.5625 -0.62895,-1.25 z m -10.85574,-5.94098 c -0.008,-0.93004 0.43469,-1.9691 0.98469,-2.30902 1.2656,-0.78218 1.2656,0.54163 0,2.5 -0.8354,1.29269 -0.97149,1.26629 -0.98469,-0.19098 z m -9.63714,-11.80902 c 0,-6.325 0.16237,-8.9125 0.36082,-5.75 0.19845,3.1625 0.19845,8.3375 0,11.5 -0.19845,3.1625 -0.36082,0.575 -0.36082,-5.75 z m 18.77972,7 c 0,-1.375 0.22698,-1.9375 0.50439,-1.25 0.27741,0.6875 0.27741,1.8125 0,2.5 -0.27741,0.6875 -0.50439,0.125 -0.50439,-1.25 z m -0.76836,-6.42727 c -0.30123,-0.785 -0.38004,-2.4725 -0.17514,-3.75 0.27408,-1.70876 0.50623,-1.33149 0.87828,1.42727 0.52359,3.88245 0.24656,4.79759 -0.70314,2.32273 z m -10.84047,-5.02634 c -0.51909,-4.15466 -1.14199,-5.5998 -2.61522,-6.06739 -1.19298,-0.37863 -1.93384,-1.51898 -1.93384,-2.97658 0,-2.18928 0.2382,-2.29449 3.2434,-1.43261 1.78387,0.5116 5.66812,0.93019 8.63167,0.93019 l 5.38827,0 -0.54473,-4.06123 c -0.2996,-2.23368 -1.59635,-5.60561 -2.88167,-7.49317 -3.89283,-5.71684 -8.23421,-4.12739 -11.25523,4.12071 -0.79243,2.16353 -1.47249,3.35674 -1.51125,2.65157 -0.10969,-1.99588 2.46738,-7.61286 4.36206,-9.50754 2.53844,-2.53844 5.8378,-2.0814 9.03037,1.25093 2.42247,2.52851 2.88583,3.92235 3.17069,9.53768 0.26452,5.21459 0.0145,6.69887 -1.20746,7.16777 -0.89507,0.34347 -1.30635,1.27085 -0.98114,2.21232 0.46355,1.34196 0.32537,1.31974 -0.80277,-0.12904 -0.91414,-1.17396 -2.74904,-1.75 -5.57441,-1.75 l -4.21171,0 0.68718,5.5 c 0.37795,3.025 0.46218,5.5 0.18718,5.5 -0.275,0 -0.80663,-2.45412 -1.18139,-5.45361 z m 12.45094,-7.65338 c 0,-0.49115 -2.19375,-0.89301 -4.875,-0.89301 -2.68125,0 -6.34152,-0.2933 -8.13393,-0.65179 -2.53935,-0.50786 -3.15691,-0.34226 -2.7969,0.75 0.30719,0.93201 2.61422,1.57143 6.88393,1.90798 6.90548,0.5443 8.9219,0.29271 8.9219,-1.11318 z m 1.9859,1.81088 0.48589,-6.20389 0.32132,5.39279 c 0.17672,2.96603 -0.0419,5.75778 -0.4859,6.20389 -0.44397,0.4461 -0.58856,-1.98065 -0.32131,-5.39279 z m -20.90695,-5.28722 c 0.048,-1.16495 0.28494,-1.4019 0.60416,-0.60417 0.28887,0.72187 0.25335,1.58437 -0.0789,1.91667 -0.33229,0.33229 -0.56864,-0.25834 -0.52522,-1.3125 z m 1.116,-5.91667 c 0.0204,-1.65 0.2445,-2.20394 0.49804,-1.23097 0.25354,0.97297 0.23687,2.32297 -0.037,3 -0.27393,0.67703 -0.48137,-0.11903 -0.46099,-1.76903 z m 19.67743,-6.5 c -0.31219,-1.925 -0.88983,-4.4 -1.28365,-5.5 -0.39382,-1.1 0.0151,-0.73749 0.90868,0.80558 0.89359,1.54307 1.47123,4.01807 1.28365,5.5 -0.31161,2.46176 -0.39008,2.3922 -0.90868,-0.80558 z m -17.03047,-5.13946 c 0.23458,-2.45978 0.87431,-3.86054 1.76312,-3.86054 0.76724,0 1.40186,-0.7875 1.41028,-1.75 0.0131,-1.49489 0.15608,-1.53134 0.98095,-0.25 0.84917,1.31908 1.35994,1.28718 4.23469,-0.26444 l 3.26905,-1.76443 -2.43812,2.07706 c -1.34097,1.14238 -3.70347,2.33013 -5.25,2.63943 -1.88277,0.37656 -2.81188,1.18192 -2.81188,2.43738 0,2.76016 2.29603,2.29629 7.17226,-1.44905 3.76289,-2.89019 4.29773,-3.7712 4.09782,-6.75 l -0.22993,-3.42595 1.4839,3.91269 c 0.81615,2.15198 1.25711,4.13948 0.97993,4.41667 -0.27719,0.27718 -0.50398,-0.0438 -0.50398,-0.71338 0,-0.66954 -1.43784,0.12643 -3.1952,1.76882 -1.75736,1.6424 -4.34486,3.51771 -5.75,4.16736 -1.40514,0.64965 -3.23571,1.51593 -4.06793,1.92506 -1.24537,0.61224 -1.44798,0.0607 -1.14496,-3.11668 z m -3.04425,-8.98797 c -0.56048,-0.34509 -1.80718,-0.42133 -2.77045,-0.16943 -1.02783,0.26878 -2.01628,-0.23228 -2.39255,-1.21281 -0.78728,-2.05163 0.006,-3.49033 1.92436,-3.49033 1.65658,0 1.93844,-1.58663 0.41598,-2.34167 -0.56375,-0.27958 -0.47938,-0.40146 0.1875,-0.27083 2.20208,0.43133 2.04505,2.60017 -0.24972,3.44906 -1.56646,0.57947 -1.87993,1.06571 -1.02691,1.5929 1.61474,0.99797 6.16168,-0.17754 8.36413,-2.16236 1.63418,-1.4727 1.75,-1.34219 1.75,1.97213 0,3.18971 -0.2625,3.53459 -2.59165,3.40498 -1.4254,-0.0793 -3.05022,-0.42655 -3.61069,-0.77164 z m 13.76024,-4.648 c -1.21277,-1.21277 -0.45353,-2.01004 1.4421,-1.51432 1.48625,0.38867 2,0.0307 2,-1.39362 0,-1.05415 -0.43728,-2.35391 -0.97174,-2.88837 -0.53446,-0.53446 -1.40371,-3.88696 -1.93168,-7.45 -0.52796,-3.56304 -1.21617,-8.05326 -1.52936,-9.97826 -0.56404,-3.46682 -0.55985,-3.47156 0.44211,-0.5 0.55636,1.65 1.46984,6.14048 2.02996,9.97885 0.56012,3.83836 1.45542,7.41586 1.98956,7.95 1.69798,1.69798 1.09896,5.30446 -0.97095,5.84576 -1.06815,0.27933 -2.19315,0.25681 -2.5,-0.05 z m -9.38994,-4.75529 c -1.24501,-2.73249 -3.73404,-2.94512 -7.85727,-0.67124 -2.23812,1.23428 -4.01523,0.15094 -2.84868,-1.73658 0.31903,-0.5162 -0.17393,-1.36049 -1.09547,-1.87621 -1.02377,-0.57293 -1.43004,-1.57738 -1.04444,-2.58224 0.47431,-1.23604 1.69064,-1.5773 4.8965,-1.37379 4.15169,0.26356 4.28313,0.17746 4.92944,-3.22922 l 0.66401,-3.5 -0.15602,4 -0.15603,4 -4.75,-0.24247 c -4.74645,-0.24228 -5.70338,0.38909 -3.67061,2.42186 1.23394,1.23394 7.79935,0.61904 9.67061,-0.90573 0.92948,-0.75738 1.25,-0.45747 1.25,1.16964 0,1.2035 0.48646,3.09714 1.08102,4.20809 0.59456,1.11095 0.89266,2.20826 0.66244,2.43848 -0.23022,0.23022 -0.9392,-0.72405 -1.5755,-2.12059 z m 7.33204,-0.46928 c -0.37544,-1.1829 -0.45761,-2.37572 -0.18261,-2.65072 0.275,-0.275 0.80717,0.46782 1.18261,1.65072 0.37544,1.1829 0.45761,2.37572 0.18261,2.65072 -0.275,0.275 -0.80717,-0.46782 -1.18261,-1.65072 z m -5.5,-5 c 0,-1.1 0.43588,-2 0.96861,-2 0.53274,0 0.67349,0.7875 0.31277,1.75 -0.56117,1.49738 -0.42513,1.56255 0.94236,0.45144 0.93827,-0.76235 1.83906,-0.90885 2.18149,-0.35478 0.3208,0.51907 -0.12594,1.21592 -0.99276,1.54856 -2.63702,1.01191 -3.41247,0.69486 -3.41247,-1.39522 z m -11.5,-5 c -0.33992,-0.55 -0.14148,-1 0.44098,-1 0.58246,0 1.05902,0.45 1.05902,1 0,0.55 -0.19844,1 -0.44098,1 -0.24254,0 -0.7191,-0.45 -1.05902,-1 z m 8.5,-2.45295 c 0,-2.662 -1.92202,-7.54705 -2.96939,-7.54705 -0.35659,0 -1.52186,-0.68231 -2.58948,-1.51625 -1.79198,-1.39974 -1.72406,-1.4232 0.88387,-0.30532 2.98464,1.27937 5.675,5.39838 5.675,8.68858 0,1.08148 0.5625,2.1933 1.25,2.47071 0.74674,0.30132 0.54544,0.53617 -0.5,0.58333 -1.21251,0.0547 -1.75,-0.67445 -1.75,-2.374 z m -4.83197,-4.2759 c -1.99584,-1.38987 -2.46207,-1.41835 -3.23468,-0.19754 -0.70813,1.11892 -0.90603,0.98449 -0.91804,-0.62361 -0.008,-1.1275 -0.55531,-2.59 -1.21531,-3.25 -0.93333,-0.93333 -0.80911,-1.2 0.55902,-1.2 0.96746,0 1.49274,0.43084 1.1673,0.95741 -0.32544,0.52658 0.74446,1.64838 2.37757,2.49289 1.63311,0.84451 3.24938,1.98868 3.59171,2.54259 0.82203,1.33006 0.45566,1.21646 -2.32757,-0.72174 z m 11.50465,-8.51514 c -1.00502,-1.05085 -2.50933,-1.64894 -3.3429,-1.32906 -0.83357,0.31987 -2.71128,0.80735 -4.17268,1.0833 -1.46141,0.27594 -0.69773,-0.2291 1.69707,-1.12232 4.20024,-1.56663 4.42806,-1.55015 6.44444,0.46624 1.14965,1.14965 1.89028,2.25277 1.64583,2.45139 -0.24444,0.19861 -1.26673,-0.49869 -2.27176,-1.54955 z m -16.93935,0.1199 c 0.67834,-0.68342 1.48524,-0.99067 1.79313,-0.68278 0.30789,0.30789 -0.24711,0.86705 -1.23333,1.24258 -1.4252,0.54268 -1.54006,0.42782 -0.5598,-0.5598 z"
         id="path3000" />
    </g>
  </g>
</svg>
