<?xml version="1.0" encoding="UTF-8" standalone="no"?>
<!-- Created with Inkscape (http://www.inkscape.org/) -->

<svg
   xmlns:dc="http://purl.org/dc/elements/1.1/"
   xmlns:cc="http://creativecommons.org/ns#"
   xmlns:rdf="http://www.w3.org/1999/02/22-rdf-syntax-ns#"
   xmlns:svg="http://www.w3.org/2000/svg"
   xmlns="http://www.w3.org/2000/svg"
   xmlns:sodipodi="http://sodipodi.sourceforge.net/DTD/sodipodi-0.dtd"
   xmlns:inkscape="http://www.inkscape.org/namespaces/inkscape"
   width="744.09448819"
   height="1052.3622047"
   id="svg4096"
   version="1.1"
   inkscape:version="0.47 r22583"
   sodipodi:docname="mike.svg"
   inkscape:export-filename="/home/robert/documents/mike-large.png"
   inkscape:export-xdpi="300"
   inkscape:export-ydpi="300">
  <defs
     id="defs4098">
    <inkscape:perspective
       sodipodi:type="inkscape:persp3d"
       inkscape:vp_x="0 : 526.18109 : 1"
       inkscape:vp_y="0 : 1000 : 0"
       inkscape:vp_z="744.09448 : 526.18109 : 1"
       inkscape:persp3d-origin="372.04724 : 350.78739 : 1"
       id="perspective4104" />
    <inkscape:perspective
       id="perspective4174"
       inkscape:persp3d-origin="0.5 : 0.33333333 : 1"
       inkscape:vp_z="1 : 0.5 : 1"
       inkscape:vp_y="0 : 1000 : 0"
       inkscape:vp_x="0 : 0.5 : 1"
       sodipodi:type="inkscape:persp3d" />
  </defs>
  <sodipodi:namedview
     id="base"
     pagecolor="#ffffff"
     bordercolor="#666666"
     borderopacity="1.0"
     inkscape:pageopacity="0.0"
     inkscape:pageshadow="2"
     inkscape:zoom="0.41"
     inkscape:cx="375"
     inkscape:cy="1098.9874"
     inkscape:document-units="px"
     inkscape:current-layer="layer1"
     showgrid="false"
     inkscape:window-width="1280"
     inkscape:window-height="725"
     inkscape:window-x="0"
     inkscape:window-y="25"
     inkscape:window-maximized="1" />
  <metadata
     id="metadata4101">
    <rdf:RDF>
      <cc:Work
         rdf:about="">
        <dc:format>image/svg+xml</dc:format>
        <dc:type
           rdf:resource="http://purl.org/dc/dcmitype/StillImage" />
        <dc:title></dc:title>
      </cc:Work>
    </rdf:RDF>
  </metadata>
  <g
     inkscape:label="Layer 1"
     inkscape:groupmode="layer"
     id="layer1">
    <g
       id="g4180"
       transform="matrix(7.1832247,0,0,7.1832247,-2476.9483,-3326.2285)">
      <path
         style="fill:#cdcdcd"
         d="m 379.38254,595.11218 c -0.0646,-7.0125 -0.4021,-17.25 -0.75,-22.75 l -0.63254,-10 -7.5,-0.63123 c -7.83651,-0.65956 -12,0.58075 -12,3.57483 0,0.76862 -1.43733,1.71318 -3.19407,2.09902 -2.82572,0.62064 -3.58972,0.26981 -6.62489,-3.04213 -3.23131,-3.52598 -3.39499,-4.0419 -2.81462,-8.87208 0.33891,-2.82063 0.62011,-6.31117 0.62489,-7.75677 0.007,-2.24793 0.61511,-2.78229 4.19834,-3.69181 2.30431,-0.58489 4.55431,-0.83807 5,-0.56262 0.44569,0.27545 0.81035,2.27427 0.81035,4.44181 0,3.50081 0.26992,3.94098 2.41667,3.94098 1.32916,0 2.62037,0.5625 2.86934,1.25 0.36215,1 0.8761,1 2.56977,0 1.16439,-0.6875 4.53743,-1.25 7.49564,-1.25 l 5.37856,0 0.53747,-12.25 c 0.51552,-11.75003 1.67108,-17.21001 5.41401,-25.58121 0.8192,-1.83217 1.30869,-3.51197 1.08776,-3.7329 -0.22092,-0.22093 -1.92266,0.0345 -3.78164,0.56767 -2.59471,0.74416 -3.91519,0.61866 -5.68377,-0.54015 -1.93081,-1.26512 -2.30381,-2.37737 -2.30381,-6.86983 0,-4.51931 -0.31379,-5.44237 -2,-5.88333 -2.6339,-0.68878 -2.4754,-2.54252 0.531,-6.21025 1.952,-2.3814 2.46009,-2.62403 2.46403,-1.17668 0.003,1.19716 0.60595,1.70742 1.75497,1.48583 1.35726,-0.26176 1.76933,-1.40033 1.83614,-5.07333 0.0474,-2.6047 -0.31669,-4.73582 -0.80902,-4.73582 -0.49234,0 -0.61704,0.45 -0.27712,1 0.3613,0.5846 -0.67089,1 -2.48482,1 -2.40037,0 -3.03633,-0.3962 -2.80902,-1.75 0.31307,-1.86453 -2.058,-2.12824 -10.70616,-1.1907 -2.2,0.23849 -4,0.0301 -4,-0.46319 0,-0.94982 1.27628,-1.23244 8.49851,-1.8819 4.23404,-0.38075 4.53179,-0.60469 5.06484,-3.80937 1.1958,-7.18909 5.01443,-10.90484 11.20677,-10.90484 3.2338,0 4.5647,0.73958 8.60934,4.78423 4.34803,4.34802 5.0828,5.79671 6.70299,13.21577 0.84455,3.86733 1.09703,16.4873 0.39235,19.61173 -0.58149,2.57823 -0.24339,4.98089 1.29313,9.18961 2.14865,5.88543 2.66096,16.21283 2.53981,51.19866 -0.11958,34.53213 -0.20558,36.08348 -2.05774,37.12002 -1.20605,0.67495 -1.75,2.20723 -1.75,4.92967 l 0,3.95031 -8.5,0 -8.5,0 -0.11746,-12.75 z m 11.39328,-7.75 c 0.26437,-2.2 2.37444,-9.175 4.68903,-15.5 4.19966,-11.47621 4.20528,-11.51034 2.71667,-16.5 -0.82044,-2.75 -1.77771,-6.67638 -2.12729,-8.72529 l -0.63559,-3.7253 -4.70932,0.61617 c -2.59013,0.3389 -4.75171,0.66528 -4.80351,0.7253 -0.0518,0.06 0.75179,2.92162 1.78577,6.35912 1.4761,4.90732 2.30194,6.25 3.84419,6.25 1.11685,0 1.96423,0.67618 1.96423,1.56739 0,1.0475 -0.59017,1.38007 -1.77929,1.00266 -1.55717,-0.49423 -1.95187,0.58967 -3.16177,8.68261 -0.76036,5.08604 -1.44173,10.59734 -1.51416,12.24734 -0.0724,1.65 -0.67463,3.98292 -1.33823,5.18426 -1.77264,3.20907 -1.48422,4.88164 1.04345,6.05114 2.84997,1.31861 3.43199,0.7063 4.02582,-4.2354 z m -6.45777,-3 c 1.03834,-2.27892 0.93215,-2.5 -1.20082,-2.5 -1.95665,0 -2.26161,0.40946 -1.86198,2.5 0.26285,1.375 0.80321,2.5 1.20081,2.5 0.3976,0 1.23549,-1.125 1.86199,-2.5 z m -28.01762,-18.75954 c 0.65333,-0.78721 0.73763,-2.56848 0.22481,-4.75 -0.45128,-1.91975 -0.86658,-2.70296 -0.92288,-1.74046 -0.0563,0.9625 -0.66911,1.75 -1.36181,1.75 -1.59849,0 -4.00202,3.76792 -3.21541,5.04068 0.84551,1.36806 4.0417,1.18617 5.27529,-0.30022 z M 350.5,561.89356 c 0,-0.53273 -0.675,-0.70959 -1.5,-0.39301 -0.825,0.31659 -1.5,0.75246 -1.5,0.96862 0,0.21615 0.675,0.39301 1.5,0.39301 0.825,0 1.5,-0.43588 1.5,-0.96862 z m 10,-1.03138 c 0,-0.58824 3.5,-1 8.5,-1 l 8.5,0 0,-3.5 c 0,-4.10714 -1.20311,-4.35368 -9.92208,-2.03325 -4.87106,1.29637 -5.70282,1.27719 -8.18443,-0.18874 -2.2862,-1.35049 -3.03219,-1.40779 -4.32791,-0.33243 -2.14927,1.78373 -1.96953,3.3174 0.30421,2.59575 1.47639,-0.46859 1.99712,0.0432 2.475,2.43261 0.55335,2.76676 2.65521,4.37059 2.65521,2.02606 z m -11,-2 c 0,-0.55 -0.42344,-1 -0.94098,-1 -0.51754,0 -1.2191,0.45 -1.55902,1 -0.33992,0.55 0.0835,1 0.94098,1 0.85746,0 1.55902,-0.45 1.55902,-1 z m 0,-2.44098 c 0,-0.24254 -0.45,-0.7191 -1,-1.05902 -0.55,-0.33992 -1,-0.14148 -1,0.44098 0,0.58246 0.45,1.05902 1,1.05902 0.55,0 1,-0.19844 1,-0.44098 z m 4.40144,-6.16277 c -0.33848,0.88206 -0.11727,1.60375 0.49157,1.60375 0.60884,0 1.10699,-0.9 1.10699,-2 0,-1.44863 -0.66667,-2 -2.41821,-2 -3.71245,0 -5.58179,1.02924 -5.58179,3.07326 0,1.77234 0.16407,1.76249 3.50843,-0.21073 2.87277,-1.69498 3.39692,-1.77946 2.89301,-0.46628 z M 353,545.86218 c 1.26064,-0.54171 1.44548,-0.85943 0.5,-0.85943 -0.825,0 -2.4,0.38674 -3.5,0.85943 -1.26064,0.54172 -1.44548,0.85943 -0.5,0.85943 0.825,0 2.4,-0.38674 3.5,-0.85943 z m 35.92017,-34.87084 c 0.29602,-0.47896 1.87092,-1.13738 3.49978,-1.46315 2.69118,-0.53824 2.88973,-0.84675 2.17473,-3.37916 -0.43276,-1.53277 -0.6127,-3.29205 -0.39987,-3.90953 0.21284,-0.61747 -0.54435,-1.36622 -1.68262,-1.66388 -1.13828,-0.29767 -2.00339,-0.91746 -1.92247,-1.37733 0.0809,-0.45986 0.0938,-2.38462 0.0287,-4.27724 -0.10841,-3.1501 -0.23306,-3.28436 -1.47382,-1.58752 -2.30944,3.15835 -4.63727,1.2901 -3.94867,-3.16909 0.32293,-2.09124 0.26469,-3.50599 -0.12943,-3.14389 -0.39411,0.3621 -0.83463,1.46271 -0.97891,2.44579 -0.35435,2.41431 -2.57851,3.0326 -2.62303,0.72917 -0.0195,-1.00833 -0.68441,-2.95833 -1.4776,-4.33333 -1.4397,-2.49573 -1.44113,-2.4944 -0.83414,0.77714 0.75878,4.08958 -1.80792,7.37084 -5.46366,6.98473 -1.36366,-0.14403 -2.67658,0.30063 -2.9176,0.98813 -0.24103,0.6875 0.23677,1.25 1.06177,1.25 0.825,0 1.65472,0.46416 1.84383,1.03147 0.40478,1.21436 6.92176,-0.74949 8.01847,-2.41631 1.02467,-1.55733 2.29383,0.16098 2.37655,3.21758 0.0397,1.467 0.6469,4.38449 1.34935,6.48332 0.70245,2.09884 1.0496,4.68634 0.77144,5.75 -0.51167,1.95664 1.65337,2.8006 2.7272,1.0631 z m -9.53617,-7.37916 c -0.0945,-1.83268 -0.20414,-1.90821 -0.59119,-0.40722 -0.31909,1.23739 -1.10228,1.6788 -2.384,1.34362 -1.04985,-0.27454 -1.90881,-0.0913 -1.90881,0.40722 0,0.49851 1.125,0.90638 2.5,0.90638 1.9603,0 2.47496,-0.48573 2.384,-2.25 z"
         id="path4194" />
      <path
         style="fill:#aaaaaa"
         d="m 379.15922,585.94415 c -0.3625,-12.05491 -0.88993,-22.51741 -1.17208,-23.25 -0.37003,-0.96074 -2.7154,-1.31603 -8.4153,-1.27477 -7.8787,0.057 -11.07184,1.20654 -11.07184,3.98579 0,0.71395 -1.43733,1.61379 -3.19407,1.99963 -2.82572,0.62064 -3.58972,0.26981 -6.62489,-3.04213 -3.23131,-3.52598 -3.39499,-4.0419 -2.81462,-8.87208 0.33891,-2.82063 0.62011,-6.31117 0.62489,-7.75677 0.007,-2.24793 0.61511,-2.78229 4.19834,-3.69181 2.30431,-0.58489 4.55431,-0.83807 5,-0.56262 0.44569,0.27545 0.81035,2.27427 0.81035,4.44181 0,3.50081 0.26992,3.94098 2.41667,3.94098 1.32916,0 2.62037,0.5625 2.86934,1.25 0.36215,1 0.8761,1 2.56977,0 1.16439,-0.6875 4.53272,-1.25 7.48516,-1.25 l 5.36809,0 0.5626,-12.25 c 0.53692,-11.69065 1.53676,-16.36141 5.47599,-25.58121 1.75872,-4.1163 1.24105,-4.70909 -2.86297,-3.27842 -2.59418,0.90433 -3.66948,0.82541 -5.55104,-0.40744 -1.97464,-1.29383 -2.33361,-2.37153 -2.33361,-7.00598 0,-4.25162 -0.34261,-5.47695 -1.53139,-5.47695 -2.71035,0 -2.74362,-2.88445 -0.0699,-6.06196 1.83504,-2.18081 2.60132,-2.60543 2.60132,-1.44144 0,1.03338 0.65402,1.52391 1.75,1.31255 1.35726,-0.26176 1.76933,-1.40033 1.83614,-5.07332 0.0474,-2.60471 -0.31669,-4.73583 -0.80902,-4.73583 -0.49234,0 -0.61704,0.45 -0.27712,1 0.34759,0.56241 -0.45074,1 -1.82435,1 -1.63224,0 -2.62271,-0.68954 -2.986,-2.07879 -0.51238,-1.95933 -0.99316,-2.03902 -8.36663,-1.38681 -4.30266,0.38058 -7.49271,0.34823 -7.08899,-0.0719 0.40372,-0.42014 3.54865,-1.03357 6.98874,-1.36319 5.24369,-0.50243 6.30323,-0.92258 6.5549,-2.5993 0.76553,-5.10019 1.42764,-6.55146 4.29891,-9.42274 2.38578,-2.38578 3.95486,-3.07726 6.98278,-3.07726 5.60894,0 12.13827,6.37433 14.34043,14 1.67494,5.79998 2.45143,21.02905 1.25521,24.61792 -0.38826,1.16485 -0.1914,3.41485 0.43748,5 2.64895,6.67692 3.12331,10.87761 3.3744,29.88208 0.14534,11 0.4044,20.45 0.57569,21 0.17129,0.55 -0.0503,9.6548 -0.49249,20.23289 -0.59782,14.30203 -1.15595,19.52505 -2.177,20.37245 -0.7552,0.62675 -1.37308,2.88445 -1.37308,5.0171 l 0,3.87756 -8.34086,0 -8.34085,0 -0.65907,-21.91803 z M 390.5,588.2535 c 0,-1.91985 0.62503,-4.70579 1.38895,-6.19098 0.76392,-1.48519 2.85015,-6.92931 4.63606,-12.09805 3.19968,-9.26041 3.2246,-9.47224 1.70596,-14.5 -0.84763,-2.80626 -1.83868,-6.84007 -2.20234,-8.96403 -0.63009,-3.68016 -0.80501,-3.83298 -3.71991,-3.25 -1.68229,0.33646 -3.83887,0.61174 -4.79239,0.61174 -1.64233,0 -1.6436,0.32927 -0.024,6.25 1.06817,3.90481 2.29649,6.36517 3.27353,6.55693 0.8601,0.16881 1.82431,0.98573 2.14268,1.81539 0.42022,1.09508 0.093,1.35425 -1.19415,0.94573 -1.54956,-0.49181 -1.94576,0.60262 -3.1439,8.68461 -0.754,5.08604 -1.47314,10.37234 -1.5981,11.74734 -0.12495,1.375 -0.73236,3.76679 -1.3498,5.3151 -1.64813,4.13289 -1.38922,5.64859 1.12738,6.59971 3.0831,1.16522 3.75,0.5386 3.75,-3.52349 z m -7.25,-6.22212 c -2.68091,-0.46149 -2.97029,0.12648 -1.69409,3.44211 l 1.11186,2.88869 1.25198,-3 c 1.12895,-2.70519 1.06313,-3.03251 -0.66975,-3.3308 z m -26.97868,-16.0067 c 0.94378,-0.599 1.03407,-1.81882 0.35045,-4.73469 -0.50648,-2.1603 -0.96607,-3.14031 -1.02132,-2.17781 -0.0553,0.9625 -0.6672,1.75 -1.3599,1.75 -1.59849,0 -4.00202,3.76792 -3.21541,5.04068 0.71855,1.16264 3.50433,1.22733 5.24618,0.12182 z M 350.5,561.86218 c 0,-0.55 -0.42344,-1 -0.94098,-1 -0.51754,0 -1.2191,0.45 -1.55902,1 -0.33992,0.55 0.0835,1 0.94098,1 0.85746,0 1.55902,-0.45 1.55902,-1 z m 10,-1.10699 c 0,-0.49115 3.825,-0.89301 8.5,-0.89301 l 8.5,0 0,-3.5 c 0,-4.05921 -0.79573,-4.24024 -10.14788,-2.30858 -4.67088,0.96475 -6.24538,0.93607 -8.27611,-0.15074 -2.03512,-1.08916 -2.797,-1.10216 -4.04192,-0.069 -2.16896,1.80007 -1.90386,3.35825 0.46591,2.73854 1.6119,-0.42152 2.02298,-0.008 2.11842,2.13337 0.0651,1.46101 0.0705,2.97769 0.012,3.37039 -0.0585,0.39271 0.56318,0.45706 1.38158,0.14301 0.8184,-0.31405 1.488,-0.97285 1.488,-1.46401 z m -11,-1.89301 c 0,-0.55 -0.675,-1 -1.5,-1 -0.825,0 -1.5,0.45 -1.5,1 0,0.55 0.675,1 1.5,1 0.825,0 1.5,-0.45 1.5,-1 z m -0.5,-3 c -0.33992,-0.55 -1.04148,-1 -1.55902,-1 -0.51754,0 -0.94098,0.45 -0.94098,1 0,0.55 0.70156,1 1.55902,1 0.85746,0 1.2809,-0.45 0.94098,-1 z m 3.96642,-5.05434 c 1.14024,1.84496 2.53358,1.13649 2.53358,-1.28824 0,-2.14806 -0.31139,-2.29226 -3.75,-1.73654 -2.93449,0.47425 -3.82163,1.10875 -4.07939,2.91765 -0.31954,2.2425 -0.25504,2.2629 2.1574,0.6822 1.64444,-1.07748 2.70751,-1.27227 3.13841,-0.57507 z M 353.5,545.86218 c 1.33333,-0.86167 1.33333,-0.96 0,-0.88501 -0.825,0.0464 -2.625,0.44466 -4,0.88501 l -2.5,0.80064 2.5,0.0844 c 1.375,0.0464 3.175,-0.35185 4,-0.88501 z m 35.42017,-34.87084 c 0.29602,-0.47896 1.9274,-1.14867 3.6253,-1.48825 1.85064,-0.37013 2.82023,-1.0492 2.42081,-1.69548 -0.36646,-0.59293 -0.66628,-2.59182 -0.66628,-4.44198 0,-2.30658 -0.39874,-3.21092 -1.26858,-2.87713 -1.34888,0.51761 -2.49486,-2.4716 -2.51777,-6.56745 -0.0129,-2.29978 -0.0921,-2.3338 -1.36904,-0.58752 -0.77132,1.05484 -2.01234,1.60151 -2.87989,1.2686 -1.20758,-0.46339 -1.36644,-1.44938 -0.76418,-4.74291 0.48006,-2.62523 0.41024,-3.80782 -0.18941,-3.20817 -0.52235,0.52235 -1.07395,1.79605 -1.22576,2.83043 -0.39029,2.65924 -1.88367,1.55388 -3.24311,-2.40047 -1.62794,-4.73536 -2.72868,-5.39011 -1.96739,-1.17025 0.80355,4.45411 -1.11493,7.33747 -4.9259,7.40333 -3.35969,0.0581 -4.30274,2.0208 -1.65246,3.43919 2.22199,1.18917 9.20349,-0.34423 9.20349,-2.02144 0,-0.56998 0.5625,-0.84884 1.25,-0.61968 0.6875,0.22915 1.31414,1.95415 1.39252,3.83333 0.0784,1.87918 0.60765,4.59605 1.17613,6.03749 0.56848,1.44144 0.90373,3.80394 0.74499,5.25 -0.279,2.54163 1.64173,3.72395 2.85653,1.75836 z M 379.5,503.9212 c 0,-1.06754 -0.40803,-2.19316 -0.90674,-2.50138 -0.49871,-0.30822 -0.67123,0.34022 -0.38337,1.44098 0.35653,1.36338 0.0314,2.00138 -1.01993,2.00138 -0.84882,0 -1.74911,-0.7875 -2.00063,-1.75 -0.34415,-1.31691 -0.48603,-1.19317 -0.57333,0.5 -0.091,1.76427 0.4237,2.25 2.384,2.25 1.80799,0 2.5,-0.53727 2.5,-1.94098 z m 9,-12.55902 c 0,-2.46429 -1.49551,-2.38301 -1.6438,0.0893 -0.0791,1.31858 0.25841,2.14884 0.75,1.84502 0.49159,-0.30381 0.8938,-1.17428 0.8938,-1.93436 z"
         id="path4192" />
      <path
         style="fill:#8e8e8e"
         d="m 379.15922,585.94415 c -0.3625,-12.05491 -0.88993,-22.51741 -1.17208,-23.25 -0.37003,-0.96074 -2.7154,-1.31603 -8.4153,-1.27477 -7.8787,0.057 -11.07184,1.20654 -11.07184,3.98579 0,0.71395 -1.43733,1.61379 -3.19407,1.99963 -2.82572,0.62064 -3.58972,0.26981 -6.62489,-3.04213 -3.23131,-3.52598 -3.39499,-4.0419 -2.81462,-8.87208 0.33891,-2.82063 0.62011,-6.31117 0.62489,-7.75677 0.007,-2.24793 0.61511,-2.78229 4.19834,-3.69181 2.30431,-0.58489 4.55431,-0.83807 5,-0.56262 0.44569,0.27545 0.81035,2.27427 0.81035,4.44181 0,3.50081 0.26992,3.94098 2.41667,3.94098 1.32916,0 2.62037,0.5625 2.86934,1.25 0.36215,1 0.8761,1 2.56977,0 1.16439,-0.6875 4.5298,-1.25 7.47867,-1.25 l 5.3616,0 0.59211,-12.25 c 0.57423,-11.88005 1.8881,-17.85808 5.6128,-25.53784 1.3384,-2.75959 1.37354,-3.42447 0.21871,-4.1382 -0.80218,-0.49577 -1.04956,-1.37838 -0.59328,-2.11667 0.48724,-0.78836 0.37912,-1.01692 -0.28647,-0.60557 -0.58801,0.36341 -1.31468,0.0954 -1.61483,-0.59549 -0.30014,-0.69093 -0.2898,-0.0187 0.023,1.49377 0.5214,2.52117 0.31602,2.75 -2.46825,2.75 -3.60248,0 -6.35509,-2.41653 -6.12415,-5.37643 0.40051,-5.13309 -0.10771,-7.62357 -1.55569,-7.62357 -2.14222,0 -1.86576,-3.71955 0.5,-6.72713 1.48095,-1.88272 2,-2.1183 2,-0.90773 0,2.14084 2.63708,2.10578 3.84414,-0.0511 1.3897,-2.48326 -0.66584,-6.31403 -3.38802,-6.31403 -1.40994,0 -2.42166,-0.76024 -2.76647,-2.07879 -0.51238,-1.95933 -0.99316,-2.03902 -8.36663,-1.38681 -4.30266,0.38058 -7.5518,0.40732 -7.22031,0.0594 0.33148,-0.34791 3.03148,-0.87082 6,-1.16203 7.44998,-0.73085 7.53212,-0.78145 8.27219,-5.0961 0.70948,-4.13633 2.93981,-7.36338 6.35076,-9.18887 6.91534,-3.70097 15.87718,2.97681 18.8512,14.04671 1.53507,5.71382 2.15693,19.93069 1.02718,23.48307 -0.409,1.28605 -0.0141,3.74093 0.96507,6 1.64369,3.79204 1.87556,6.68636 2.90986,36.3234 0.25912,7.425 0.52976,13.95 0.6014,14.5 0.0716,0.55 -0.21164,9.44009 -0.62952,19.75575 -0.55659,13.73957 -1.11965,19.05442 -2.10532,19.87245 -0.74004,0.61418 -1.34553,2.86159 -1.34553,4.99424 l 0,3.87756 -8.34086,0 -8.34085,0 -0.65907,-21.91803 z M 390.5,588.2535 c 0,-1.91985 0.62503,-4.70579 1.38895,-6.19098 0.76392,-1.48519 2.8178,-6.83586 4.56417,-11.89039 l 3.17522,-9.19006 -2.20277,-8.98184 -2.20276,-8.98185 -4.86345,0.1719 c -3.86958,0.13677 -4.74652,0.47843 -4.29124,1.6719 0.31471,0.825 1.08323,3.70384 1.70782,6.39743 0.75321,3.24825 1.73981,5.05543 2.92984,5.36663 0.98682,0.25806 1.79422,1.0776 1.79422,1.82119 0,0.74359 -0.57423,1.13163 -1.27606,0.86231 -0.92362,-0.35443 -1.65558,2.07091 -2.65019,8.78139 -0.75578,5.09908 -1.4558,10.39659 -1.55561,11.77225 -0.0998,1.37566 -0.70722,3.48358 -1.3498,4.68426 -1.84355,3.44469 -1.41867,6.28438 1.08166,7.22935 3.0831,1.16522 3.75,0.5386 3.75,-3.52349 z m -5.03544,-5.64132 c 0.0195,-0.4125 -1.08956,-0.75 -2.46456,-0.75 -2.87091,0 -2.85147,-0.0503 -1.42465,3.6849 l 1.07534,2.8151 1.38922,-2.5 c 0.76407,-1.375 1.40516,-2.8375 1.42465,-3.25 z m 12.03544,-2.75 c 0,-0.55 -0.7875,-0.99311 -1.75,-0.98469 -1.49555,0.0131 -1.5319,0.15626 -0.25,0.98469 1.88721,1.21961 2,1.21961 2,0 z m -16.33772,-5.25 c -0.27741,-0.6875 -0.50439,-0.125 -0.50439,1.25 0,1.375 0.22698,1.9375 0.50439,1.25 0.27741,-0.6875 0.27741,-1.8125 0,-2.5 z m 4,0 c -0.27741,-0.6875 -0.50439,-0.125 -0.50439,1.25 0,1.375 0.22698,1.9375 0.50439,1.25 0.27741,-0.6875 0.27741,-1.8125 0,-2.5 z m 13.26743,-2.05902 c -0.0678,-2.11236 -0.10112,-2.11922 -0.92971,-0.19098 -1.18278,2.75248 -1.18278,3.731 0,3 0.55,-0.33992 0.96837,-1.60398 0.92971,-2.80902 z m -12.2466,-1.87848 c -0.31922,-0.79773 -0.55618,-0.56078 -0.60416,0.60417 -0.0434,1.05416 0.19293,1.64479 0.52522,1.3125 0.33229,-0.3323 0.36782,-1.1948 0.0789,-1.91667 z m -29.96208,-4.61892 c 0.79019,-0.50206 1.01262,-2.06005 0.63039,-4.41546 l -0.59063,-3.63965 -2.8804,3.15363 c -1.58421,1.73449 -2.88039,3.42833 -2.88039,3.76409 0,1.88842 3.45721,2.57573 5.72103,1.13739 z m 30.96208,-2.38108 c -0.31922,-0.79773 -0.55618,-0.56078 -0.60416,0.60417 -0.0434,1.05416 0.19293,1.64479 0.52522,1.3125 0.33229,-0.3323 0.36782,-1.1948 0.0789,-1.91667 z M 350.5,561.86218 c 0,-0.55 -0.42344,-1 -0.94098,-1 -0.51754,0 -1.2191,0.45 -1.55902,1 -0.33992,0.55 0.0835,1 0.94098,1 0.85746,0 1.55902,-0.45 1.55902,-1 z m 10.05341,-0.56435 c 0.90223,-1.08713 2.84625,-1.51872 6.37244,-1.41475 10.68595,0.31507 10.57415,0.3523 10.57415,-3.5209 0,-3.08754 -0.30136,-3.5 -2.55718,-3.5 -1.40645,0 -4.61673,0.5186 -7.13396,1.15245 -3.53259,0.88951 -5.3558,0.87075 -7.99126,-0.0822 -2.66546,-0.96384 -3.7329,-0.97043 -4.86604,-0.03 -2.09827,1.7414 -1.78232,3.27956 0.54844,2.67005 1.6119,-0.42152 2.02298,-0.008 2.11842,2.13337 0.0651,1.46101 0.0651,2.99388 0,3.40638 -0.20647,1.30768 1.58681,0.81011 2.93499,-0.81435 z M 350,558.86218 c 0.33992,-0.55 -0.30852,-1 -1.44098,-1 -1.13246,0 -2.05902,0.45 -2.05902,1 0,0.55 0.64844,1 1.44098,1 0.79254,0 1.7191,-0.45 2.05902,-1 z m -1,-3 c -0.33992,-0.55 -1.04148,-1 -1.55902,-1 -0.51754,0 -0.94098,0.45 -0.94098,1 0,0.55 0.70156,1 1.55902,1 0.85746,0 1.2809,-0.45 0.94098,-1 z m 0.031,-2.94983 c -0.32287,-0.5224 0.29827,-1.42362 1.38029,-2.0027 1.30551,-0.69869 2.17579,-0.71557 2.58703,-0.0502 1.14327,1.84984 2.50167,1.02647 2.50167,-1.51635 0,-2.55082 -1.02651,-2.69207 -6.75,-0.92881 -1.51382,0.46637 -1.68845,5.44786 -0.19098,5.44786 0.58246,0 0.79485,-0.42742 0.47199,-0.94983 z m 4.469,-7.05017 c 1.23805,-0.80009 1.15073,-0.95977 -0.5,-0.9144 -1.1,0.0302 -2.9,0.44171 -4,0.9144 -1.83166,0.78709 -1.78958,0.86406 0.5,0.9144 1.375,0.0302 3.175,-0.38124 4,-0.9144 z m 44.68311,-3.1875 c -0.31922,-0.79773 -0.55618,-0.56078 -0.60416,0.60417 -0.0434,1.05416 0.19293,1.64479 0.52522,1.3125 0.33229,-0.3323 0.36782,-1.19479 0.0789,-1.91667 z m -8.41408,-1.46844 c -0.67703,-0.27392 -2.02703,-0.29059 -3,-0.0371 -0.97297,0.25354 -0.41903,0.47766 1.23097,0.49804 1.65,0.0204 2.44606,-0.18706 1.76903,-0.46099 z m 7.39325,-3.59406 c -0.27741,-0.6875 -0.50439,-0.125 -0.50439,1.25 0,1.375 0.22698,1.9375 0.50439,1.25 0.27741,-0.6875 0.27741,-1.8125 0,-2.5 z m -0.97917,-5.9375 c -0.31922,-0.79773 -0.55618,-0.56078 -0.60416,0.60417 -0.0434,1.05416 0.19293,1.64479 0.52522,1.3125 0.33229,-0.3323 0.36782,-1.19479 0.0789,-1.91667 z m -14.33803,-3.35563 c -0.32569,-0.84872 -0.80663,-1.32866 -1.06875,-1.06653 -0.26213,0.26213 -0.17998,0.95654 0.18255,1.54313 0.98605,1.59546 1.56238,1.28551 0.8862,-0.4766 z m 13.54792,-3.81745 -3.34738,-3.13942 2.72719,3.05472 c 1.49995,1.68009 2.76272,3.70509 2.80614,4.5 0.0636,1.16363 0.18442,1.18013 0.62019,0.0847 0.3001,-0.75438 -0.95016,-2.75933 -2.80614,-4.5 z m -1.76891,1.09391 c -0.98762,-0.98026 -1.10248,-0.8654 -0.5598,0.5598 0.37553,0.98622 0.93469,1.54122 1.24258,1.23333 0.30789,-0.30789 6.4e-4,-1.11479 -0.68278,-1.79313 z m -10.84471,-0.77299 c -0.29336,-1.12182 -0.75683,-1.81623 -1.02992,-1.54313 -0.541,0.54099 0.41459,3.58279 1.12554,3.58279 0.24077,0 0.19774,-0.91785 -0.0956,-2.03966 z m 3.84818,-1.71034 c 1.24387,-1.58606 1.2085,-1.62143 -0.37756,-0.37755 -0.9625,0.75484 -1.75,1.54234 -1.75,1.75 0,0.82303 0.82119,0.2933 2.12756,-1.37245 z m 4.60161,1.14583 c -0.33229,-0.33229 -1.1948,-0.36781 -1.91667,-0.0789 -0.79773,0.31923 -0.56078,0.55619 0.60417,0.60417 1.05416,0.0434 1.64479,-0.19293 1.3125,-0.52522 z m 0,-3 c -0.33229,-0.33229 -1.1948,-0.36781 -1.91667,-0.0789 -0.79773,0.31923 -0.56078,0.55619 0.60417,0.60417 1.05416,0.0434 1.64479,-0.19293 1.3125,-0.52522 z m -4.48925,-5.74755 c 0.6319,0.39053 0.77731,0.18861 0.35557,-0.49377 -1.0784,-1.74489 -2.60582,-1.38346 -2.51654,0.59549 0.0476,1.05575 0.27987,1.25163 0.58541,0.49377 0.27855,-0.69093 0.98756,-0.9589 1.57556,-0.59549 z m 4.23052,-5.19014 c 3.98969,-1.52368 4.03307,-1.59524 3.67747,-6.06633 -0.26782,-3.3673 -0.71638,-4.38764 -1.75388,-3.98952 -0.76672,0.29422 -1.40495,0.43656 -1.4183,0.31633 -0.0134,-0.12024 -0.28778,-2.69362 -0.60984,-5.71862 -0.32206,-3.025 -0.98614,-5.9275 -1.47573,-6.45 -0.5519,-0.589 -0.89016,-0.47157 -0.89016,0.30902 0,0.69246 -0.3375,1.05064 -0.75,0.79596 -0.4125,-0.25469 -0.8149,0.61876 -0.89421,1.94098 -0.18077,3.01345 0.43988,3.07272 1.61305,0.15404 l 0.90439,-2.25 0.0634,2.28139 c 0.0637,2.29377 -2.04995,3.88464 -3.75839,2.82876 -0.52507,-0.32451 -0.58457,-2.38803 -0.1391,-4.82412 0.68696,-3.75668 0.61663,-4.03574 -0.5983,-2.37421 -0.75722,1.03555 -1.15884,2.23544 -0.89248,2.6664 0.26635,0.43097 0.0717,1.03855 -0.4325,1.35018 -0.50423,0.31163 -1.72438,-1.67925 -2.71145,-4.42419 -1.16544,-3.24097 -2.07148,-4.55488 -2.58422,-3.7475 -0.53571,0.84358 -0.79447,0.87582 -0.80486,0.10028 -0.008,-0.62866 -0.73184,-1.41797 -1.6076,-1.75403 -1.01415,-0.38916 -0.65106,0.50756 1,2.46974 1.42575,1.69441 2.59228,3.63522 2.59228,4.3129 0,2.44195 -2.82381,5.01918 -5.55103,5.06631 -3.46047,0.0598 -4.27531,2.03548 -1.46077,3.54178 2.40558,1.28742 8.57071,-0.23555 9.31031,-2.29993 0.69423,-1.93775 1.86207,-0.0967 2.20888,3.48221 0.17716,1.82822 0.72339,4.44903 1.21385,5.82403 0.49046,1.375 0.84541,3.7375 0.78878,5.25 -0.1206,3.22139 -0.23698,3.19304 4.96042,1.20814 z m -11.06149,-5.31082 c 0.28984,-0.46897 -0.11122,-1.70647 -0.89125,-2.75 -1.35284,-1.80985 -1.39209,-1.79359 -0.85133,0.35268 0.4047,1.60628 0.12535,2.25 -0.97641,2.25 -0.84882,0 -1.74911,-0.7875 -2.00063,-1.75 -0.34415,-1.31691 -0.48603,-1.19317 -0.57333,0.5 -0.0902,1.75051 0.42589,2.25 2.32498,2.25 1.34254,0 2.67813,-0.38371 2.96797,-0.85268 z M 381.5,500.96917 c 0,-0.49116 -0.73865,-1.17646 -1.64144,-1.52289 -1.37248,-0.52667 -1.43434,-0.38034 -0.37756,0.89301 1.44013,1.73524 2.019,1.91584 2.019,0.62988 z m 3.80687,-18.63345 c -0.30789,-0.30789 -0.86705,0.24711 -1.24258,1.23333 -0.54268,1.4252 -0.42782,1.54006 0.5598,0.5598 0.68342,-0.67834 0.99067,-1.48524 0.68278,-1.79313 z"
         id="path4190" />
      <path
         style="fill:#787878"
         d="m 379.38254,594.61218 c -0.0646,-7.2875 -0.4021,-17.66156 -0.75,-23.05347 L 378,561.75523 l -7.84704,-0.22271 c -8.00659,-0.22723 -11.65296,0.964 -11.65296,3.80691 0,0.75011 -1.43733,1.67953 -3.19407,2.06537 -2.82572,0.62064 -3.58972,0.26981 -6.62489,-3.04213 -3.23131,-3.52598 -3.39499,-4.0419 -2.81462,-8.87208 0.33891,-2.82063 0.62011,-6.31117 0.62489,-7.75677 0.007,-2.19936 0.62164,-2.78395 3.764,-3.58156 5.24755,-1.33197 6.24469,-0.72628 6.24469,3.79325 0,3.4751 0.27246,3.91667 2.41667,3.91667 1.32916,0 2.62037,0.5625 2.86934,1.25 0.36215,1 0.8761,1 2.56977,0 1.16439,-0.6875 4.53197,-1.25 7.48351,-1.25 l 5.36643,0 0.55297,-11.75 c 0.33924,-7.20853 1.19752,-13.48929 2.22059,-16.25 0.91719,-2.475 1.6959,-5.175 1.73048,-6 0.0346,-0.825 0.42549,-1.96475 0.86871,-2.53277 0.44322,-0.56802 1.26255,-2.23399 1.82074,-3.70213 0.86921,-2.28619 0.78081,-2.57954 -0.61577,-2.04362 -1.23713,0.47473 -1.47086,0.20931 -0.9685,-1.09981 0.36418,-0.94905 0.25574,-1.47437 -0.24098,-1.16738 -0.49673,0.30699 -1.13806,-0.007 -1.42518,-0.69806 -0.28711,-0.69093 -0.43805,-0.13123 -0.33541,1.24377 0.15028,2.01311 -0.32447,2.55926 -2.43765,2.80429 -3.14701,0.3649 -6.05102,-2.22011 -5.82003,-5.18072 0.40051,-5.13309 -0.10771,-7.62357 -1.55569,-7.62357 -2.14222,0 -1.86576,-3.71955 0.5,-6.72713 1.48095,-1.88272 2,-2.1183 2,-0.90773 0,2.14084 2.63708,2.10578 3.84414,-0.0511 1.3897,-2.48326 -0.66584,-6.31403 -3.38802,-6.31403 -1.40994,0 -2.42166,-0.76024 -2.76647,-2.07879 -0.51238,-1.95933 -0.99316,-2.03902 -8.36663,-1.38681 -4.30266,0.38058 -7.5518,0.40732 -7.22031,0.0594 0.33148,-0.34791 3.03148,-0.87082 6,-1.16203 7.1911,-0.70546 7.89729,-1.01397 7.89729,-3.45007 0,-5.0154 6.09391,-11.98172 10.48122,-11.98172 6.31509,0 12.77253,6.50657 15.07881,15.19353 1.58481,5.96944 2.13061,17.69746 1.04491,22.45288 -0.47029,2.05992 -0.1808,4.43294 0.83836,6.87212 0.85618,2.04915 1.5567,4.0997 1.5567,4.5568 0,1.04083 -8.65317,4.92467 -10.97213,4.92467 -5.98697,0 -10.84482,19.24326 -6.16861,24.43555 1.66732,1.85133 5.20576,12.73682 5.38445,16.56445 0.0924,1.97952 -1.1456,12.51294 -1.66744,14.18712 -0.22507,0.72208 -0.685,2.56878 -1.02206,4.10378 -0.33707,1.53499 -0.98711,2.55959 -1.44455,2.27688 -0.98627,-0.60956 -2.13853,-15.32182 -2.21715,-28.30927 -0.0321,-5.3075 -0.50244,-9.51743 -1.10481,-9.88972 -0.71566,-0.4423 -0.85707,1.69933 -0.44513,6.74149 0.33205,4.06435 0.89494,13.12722 1.25086,20.13972 0.63392,12.48984 1.11443,13.93241 3.992,11.98469 0.93689,-0.63415 1.56602,-3.74143 3.92424,-19.38161 0.43465,-2.88274 -3.80158,-17.78882 -5.33041,-18.75615 -0.55176,-0.34911 -0.66661,-3.58864 -0.27664,-7.80331 0.52235,-5.64537 1.18442,-7.75736 3.0564,-9.75 2.89882,-3.08566 4.93698,-3.19987 8.40612,-0.47104 1.44917,1.13992 2.63486,1.64167 2.63486,1.11501 0,-1.3743 -4.58847,-4.18759 -6.82996,-4.18759 -1.04518,0 -3.08601,0.93266 -4.53518,2.07258 -1.44917,1.13992 -2.63486,1.63977 -2.63486,1.11078 0,-1.13651 3.91806,-6.02376 3.96673,-4.94795 0.0183,0.40447 2.28327,-0.15146 5.03327,-1.23541 3.63262,-1.43184 5.03892,-1.63296 5.14231,-0.73541 0.0783,0.67948 0.24315,3.8378 0.36642,7.01849 0.12326,3.1807 0.56969,6.1057 0.99207,6.5 0.42238,0.39431 0.52155,-3.04652 0.22038,-7.64628 -0.30623,-4.67714 -0.16802,-7.98274 0.31358,-7.5 0.47363,0.47476 0.94097,10.209 1.03853,21.63164 0.0976,11.42265 0.57832,21.01624 1.06836,21.3191 0.49003,0.30286 0.67295,0.90343 0.40647,1.3346 -0.68122,1.10224 -1.65887,19.96927 -1.54355,29.78785 0.0813,6.91767 -0.1897,8.38868 -1.72141,9.34525 -1.37875,0.86104 -1.7279,2.07843 -1.44547,5.04001 l 0.37238,3.90475 -8.60504,0 -8.60503,0 -0.11746,-13.25 z M 390.5,588.81252 c 0,-2.22731 0.62503,-5.26481 1.38895,-6.75 0.76392,-1.48519 2.8178,-6.83586 4.56417,-11.89039 l 3.17522,-9.19006 -2.20277,-8.98184 -2.20276,-8.98185 -4.86345,0.1719 c -3.67216,0.12979 -4.73606,0.50962 -4.34338,1.55065 0.28603,0.75832 1.0269,3.45832 1.64637,6 1.24959,5.12708 2.60875,7.38075 3.95096,6.55122 0.48768,-0.3014 0.88669,0.13943 0.88669,0.97963 0,0.8402 -0.57423,1.30728 -1.27606,1.03796 -1.14901,-0.44092 -3.24481,9.67736 -4.25702,20.55244 -0.12798,1.375 -0.92018,4.07054 -1.76044,5.99009 -1.7046,3.89412 -1.46763,4.76038 1.64585,6.0166 3.43468,1.38582 3.64767,1.20735 3.64767,-3.05635 z m -6.16052,-3.49739 c 1.55669,-3.41656 1.54145,-3.45295 -1.44647,-3.45295 -1.96639,0 -2.45784,0.38868 -2,1.58179 0.33384,0.86998 0.60699,2.21998 0.60699,3 0,2.26809 1.57748,1.64096 2.83948,-1.12884 z m 13.34023,-6.45295 c 0.37385,-0.825 0.6903,-3.075 0.70323,-5 0.0233,-3.47535 0.01,-3.46478 -1.9289,1.5 -2.31328,5.92417 -2.26473,5.56214 -0.70404,5.25 0.6875,-0.1375 1.55587,-0.925 1.92971,-1.75 z m -41.7615,-12.60699 c 0.86999,-0.33384 1.59593,-1.12134 1.61322,-1.75 0.0685,-2.49149 5.01707,-4.8216 9.7732,-4.60185 9.84111,0.45468 10.19537,0.33163 10.19537,-3.54116 0,-3.25547 -0.21896,-3.5 -3.13398,-3.5 -1.72369,0 -4.90268,0.52992 -7.06443,1.17759 -3.0711,0.92013 -4.69219,0.90214 -7.41446,-0.0822 -2.72167,-0.98417 -3.80162,-0.99624 -4.93557,-0.0552 -2.09827,1.74141 -1.78232,3.27956 0.54844,2.67005 1.70597,-0.44612 1.97998,-0.059 1.86382,2.63337 -0.10062,2.33199 -0.24894,2.57202 -0.5679,0.919 -0.41854,-2.16913 -0.52116,-2.13945 -3.36382,0.97286 -1.61265,1.76563 -2.9321,3.48495 -2.9321,3.82071 0,1.8124 2.5435,2.43995 5.41821,1.33682 z M 350.5,561.86218 c 0,-0.55 -0.42344,-1 -0.94098,-1 -0.51754,0 -1.2191,0.45 -1.55902,1 -0.33992,0.55 0.0835,1 0.94098,1 0.85746,0 1.55902,-0.45 1.55902,-1 z m 0,-3 c 0,-0.55 -0.9,-1 -2,-1 -1.1,0 -2,0.45 -2,1 0,0.55 0.9,1 2,1 1.1,0 2,-0.45 2,-1 z m -1.5,-3 c -0.33992,-0.55 -1.04148,-1 -1.55902,-1 -0.51754,0 -0.94098,0.45 -0.94098,1 0,0.55 0.70156,1 1.55902,1 0.85746,0 1.2809,-0.45 0.94098,-1 z m 0.25,-3.25 c -0.16348,-0.81741 0.87473,-1.19897 3,-1.10255 2.70772,0.12284 3.24744,-0.21087 3.23469,-2 -0.0287,-4.01901 -1.45109,-5.10176 -5.14841,-3.91894 L 347,546.658 l 3.5,0.22041 3.5,0.2204 -3,0.63643 c -2.33264,0.49486 -3.07039,1.24713 -3.31642,3.38169 -0.17403,1.50989 0.16347,2.74525 0.75,2.74525 0.58653,0 0.95392,-0.5625 0.81642,-1.25 z m 49.25,-8.25 c 0,-1.375 -0.3876,-2.5 -0.86133,-2.5 -0.47373,0 -0.64627,1.125 -0.38342,2.5 0.26285,1.375 0.65044,2.5 0.86133,2.5 0.21088,0 0.38342,-1.125 0.38342,-2.5 z m -4.75,-3.14185 c 3.2231,-0.53274 3.74922,-0.98784 3.74442,-3.23899 -0.0142,-6.6726 -3.9084,-14.11916 -7.38364,-14.11916 -0.76406,0 -2.43211,0.84449 -3.70677,1.87665 -1.95786,1.58537 -2.33433,2.86584 -2.42557,8.25 -0.13704,8.08649 0.72761,8.72637 9.77156,7.2315 z m -8.34091,-2.35815 c -0.27247,-5.99439 -0.20095,-7.74282 0.41658,-10.18335 0.68054,-2.68951 3.76758,-4.49509 5.67249,-3.31779 1.66348,1.02809 3.68053,5.71898 4.35484,10.12772 0.61187,4.00047 0.5359,4.14564 -2.48592,4.75 -5.73336,1.14668 -7.86002,0.7788 -7.95799,-1.37658 z M 393.25,514.28011 c 2.93403,-1.18794 4.62217,-4.41793 2.30902,-4.41793 -1.54585,0 -2.1704,1.7893 -0.81525,2.33564 0.89914,0.3625 0.91769,0.52891 0.0652,0.58541 -0.65504,0.0434 -1.44591,-0.33353 -1.75748,-0.83767 -0.81102,-1.31224 -8.55154,1.9349 -8.55154,3.58736 0,1.50668 2.99291,1.07816 8.75,-1.25281 z m -2.70676,-3.68299 c 4.01837,-1.40054 3.95676,-1.29401 3.95676,-6.84193 0,-3.10072 -0.3415,-3.97594 -1.39379,-3.57214 -1.04174,0.39975 -1.56453,-0.83174 -2.06978,-4.8756 -0.3718,-2.97574 -0.43939,-5.79328 -0.1502,-6.26119 0.28919,-0.46791 -0.12941,-0.85075 -0.93022,-0.85075 -0.8008,0 -1.45601,0.40156 -1.45601,0.89235 0,0.4908 -0.3375,0.68398 -0.75,0.4293 -0.4125,-0.25469 -0.8149,0.61876 -0.89421,1.94098 -0.18077,3.01345 0.43988,3.07272 1.61305,0.15404 l 0.90439,-2.25 0.0634,2.28139 c 0.0661,2.37733 -2.06785,3.87357 -3.90504,2.73813 -0.58531,-0.36175 -0.75709,-1.15464 -0.38172,-1.76199 0.37536,-0.60735 0.7202,-2.38459 0.76631,-3.94942 0.0729,-2.47406 -0.075,-2.62787 -1.13413,-1.1793 -0.66989,0.91621 -1.00005,2.01844 -0.73369,2.44941 0.26635,0.43097 0.0717,1.03855 -0.4325,1.35018 -0.50423,0.31163 -1.71712,-1.65905 -2.6953,-4.37929 -0.97819,-2.72025 -2.11688,-4.73678 -2.53044,-4.48119 -0.41355,0.25559 -1.03456,0.007 -1.38003,-0.55161 -0.83149,-1.34538 -4.51008,-1.31055 -4.51008,0.0427 0,0.58246 0.40313,0.80987 0.89584,0.50536 1.67043,-1.03239 5.35416,2.97257 5.35416,5.82105 0,3.46274 -1.50074,5.00856 -4.92039,5.06816 -3.35879,0.0585 -4.11546,2.05547 -1.34141,3.5401 2.40558,1.28742 8.57071,-0.23555 9.31031,-2.29993 0.72348,-2.0194 1.82436,-0.077 1.92302,3.39294 0.0515,1.81065 0.62614,4.31858 1.27703,5.57316 0.65088,1.25458 1.10232,3.64435 1.0032,5.3106 -0.20491,3.44439 -0.23968,3.43089 4.54148,1.76448 z m -12.0677,-4.72185 c 1.26372,-0.67632 1.66552,-1.66966 1.27674,-3.15637 -0.36054,-1.37872 -0.18361,-1.93232 0.48541,-1.51883 1.46881,0.90777 2.29213,-1.717 1.07546,-3.42857 -0.77552,-1.09098 -0.865,-0.98887 -0.39614,0.45202 0.45569,1.40044 0.21857,1.7128 -0.95761,1.26146 -0.89886,-0.34493 -1.30361,-0.17975 -0.95232,0.38865 0.33602,0.5437 0.17652,0.98855 -0.35444,0.98855 -0.53097,0 -0.71429,0.96025 -0.40738,2.13388 0.40477,1.54785 0.17309,1.99413 -0.84362,1.625 -0.7709,-0.27988 -1.28914,-1.01513 -1.15164,-1.63388 0.1375,-0.61875 -0.2,-1.125 -0.75,-1.125 -1.11717,0 -1.3707,3.29596 -0.33333,4.33333 0.87262,0.87263 1.12574,0.84813 3.30887,-0.32024 z m 3.68674,-24.26309 c -0.27741,-0.6875 -0.50439,-0.125 -0.50439,1.25 0,1.375 0.22698,1.9375 0.50439,1.25 0.27741,-0.6875 0.27741,-1.8125 0,-2.5 z m 3.33772,1.13197 c 0,-0.55 -0.45,-0.72189 -1,-0.38197 -0.55,0.33992 -1,1.06803 -1,1.61803 0,0.55 0.45,0.72189 1,0.38197 0.55,-0.33992 1,-1.06803 1,-1.61803 z m -4.74782,52.61803 c 0.0111,-2.2 0.21589,-2.98225 0.45508,-1.73834 0.23919,1.24391 0.23011,3.04391 -0.0202,4 -0.25029,0.95609 -0.446,-0.0617 -0.4349,-2.26166 z"
         id="path4188" />
      <path
         style="fill:#4a4a4a"
         d="m 379.92516,599.11218 c 0.31642,-4.8125 0.0127,-15.2171 -0.67493,-23.12134 L 378,561.61949 l -7.8765,-0.1342 c -7.976,-0.13589 -11.6235,1.06447 -11.6235,3.82519 0,1.26578 -4.75524,3.12979 -5.66457,2.22046 -0.23571,-0.23571 0.71739,-0.71618 2.118,-1.06772 1.40061,-0.35153 2.54657,-1.20855 2.54657,-1.90448 0,-2.53916 5.70498,-4.77844 11.71778,-4.59938 10.20299,0.30382 9.3802,1.33783 8.66336,-10.88718 -0.71008,-12.10996 0.65773,-22.78298 3.84247,-29.98261 3.30542,-7.47243 3.68276,-9.6436 2.04861,-11.78721 -1.41024,-1.84989 -1.44905,-1.82383 -0.83393,0.55982 l 0.64514,2.5 -1.60439,-2.5 c -1.57846,-2.45961 -1.59655,-2.46266 -1.11933,-0.18883 0.56302,2.68272 -1.18397,3.70074 -4.7953,2.79435 -2.69512,-0.67643 -4.34448,-4.22545 -2.7191,-5.85083 0.72531,-0.72531 1.23738,-0.27341 1.67756,1.48042 l 0.63358,2.52439 2.43693,-2.25846 c 1.55699,-1.44297 2.20662,-2.85866 1.79909,-3.92065 -0.42318,-1.10281 -0.17589,-1.56429 0.73485,-1.37128 1.01481,0.21505 1.3034,-0.74301 1.10695,-3.67484 -0.199,-2.96997 0.0207,-3.6793 0.875,-2.825 0.6274,0.6274 1.13404,2.41198 1.12587,3.96573 -0.008,1.55375 0.36828,3.30028 0.83658,3.88117 0.46829,0.5809 0.98123,2.94274 1.13986,5.24854 0.15863,2.3058 0.51342,4.18624 0.78842,4.17877 0.275,-0.007 2.3,-0.64333 4.5,-1.41301 3.155,-1.1038 3.93391,-1.83999 3.68714,-3.48495 -0.82836,-5.52185 2.27937,0.11362 3.49203,6.33236 1.1045,5.66407 1.34798,44.30184 0.26261,41.67357 -0.54705,-1.3247 -1.19373,-3.96359 -1.43707,-5.8642 -0.75776,-5.91858 -1.52147,-7.44127 -3.34505,-6.66944 -0.91281,0.38634 -3.12216,0.62979 -4.90966,0.54099 -1.7875,-0.0888 -3.25,0.12089 -3.25,0.46597 0,2.76805 3.55292,12.26668 5.08535,13.59552 2.23204,1.93552 2.49622,3.00011 0.5601,2.25715 -1.00678,-0.38634 -1.69548,1.48306 -2.68252,7.28139 -0.73039,4.29064 -1.42157,9.60117 -1.53595,11.80117 -0.11437,2.2 -0.91329,5.575 -1.77536,7.5 -1.4879,3.32246 -1.46248,3.58877 0.50127,5.25 3.2429,2.74333 4.84711,2.20966 4.84711,-1.61246 0,-1.84936 1.26868,-6.46186 2.8193,-10.25 1.55061,-3.78815 3.4091,-9.02504 4.12996,-11.63754 0.72086,-2.6125 1.67077,-4.75 2.11089,-4.75 0.44013,0 0.41976,1.2375 -0.0453,2.75 -1.67628,5.45202 -3.78916,11.78545 -4.51734,13.54089 -0.52009,1.2538 -0.33121,1.70366 0.62979,1.5 1.80511,-0.38253 2.7003,-2.49872 2.87269,-6.79089 0.11344,-2.82455 0.29584,-3.11403 0.94515,-1.5 0.44252,1.1 0.55653,2.42294 0.25336,2.93986 -0.30317,0.51693 -0.45978,5.77045 -0.34802,11.67449 0.18924,9.99658 0.0542,10.83898 -1.96384,12.25249 -1.76788,1.23827 -2.0607,2.17318 -1.58972,5.07551 l 0.57733,3.55765 -8.5122,0 -8.51221,0 0.57531,-8.75 z m 4.41433,-13.79705 c 1.55668,-3.41656 1.54144,-3.45295 -1.44648,-3.45295 -1.96639,0 -2.45784,0.38868 -2,1.58179 0.33384,0.86998 0.60699,2.21998 0.60699,3 0,2.26809 1.57748,1.64096 2.83948,-1.12884 z m 2.42901,-15.45295 c 1.7946,-10.4595 1.79313,-10.53086 -0.3811,-18.5 -1.20045,-4.4 -2.69984,-8.45 -3.33197,-9 -0.76768,-0.66794 -0.96689,-3.37345 -0.59992,-8.14772 0.56994,-7.41502 2.26179,-10.6517 6.22534,-11.90968 2.59663,-0.82414 6.65575,2.00531 8.43955,5.88288 1.40144,3.04641 1.44458,2.86106 1.06904,-4.59309 -0.21523,-4.27219 -0.68905,-8.06534 -1.05294,-8.42922 -0.36389,-0.36389 -2.24623,0.094 -4.18298,1.01761 -1.93676,0.92357 -4.62073,1.67922 -5.96439,1.67922 -5.4476,0 -7.89994,9.69112 -7.79404,30.80044 0.0422,8.41525 0.39563,19.12847 0.78537,23.80717 0.66138,7.93982 0.85114,8.48625 2.84754,8.19955 1.89191,-0.27168 2.34701,-1.51983 3.9405,-10.80716 z m 11.7315,-25 c 0,-1.65 -0.37206,-3 -0.82681,-3 -0.45474,0 -0.62867,1.35 -0.3865,3 0.24217,1.65 0.61423,3 0.82681,3 0.21257,0 0.3865,-1.35 0.3865,-3 z m -4.62854,-3.66156 3.87146,-0.63954 -0.58578,-4.94597 c -0.7641,-6.45162 -3.5225,-11.16593 -6.75822,-11.55026 -4.00382,-0.47557 -6.15876,2.81861 -6.5132,9.95648 -0.16826,3.38851 -0.0723,6.53892 0.21319,7.00089 0.61503,0.99513 4.40923,1.0644 9.77255,0.1784 z M 393.25,514.28011 c 1.7875,-0.72373 3.25,-2.01384 3.25,-2.8669 0,-1.94101 0.25912,-1.96476 -6.41102,0.58775 -3.07394,1.17633 -5.58898,2.75991 -5.58898,3.51906 0,1.52059 2.9723,1.09941 8.75,-1.23991 z m -45.23141,49.4218 c -2.53772,-3.01592 -2.62759,-3.50697 -1.96728,-10.75 0.38055,-4.17435 0.86074,-7.77578 1.06709,-8.00318 0.20634,-0.2274 2.28912,-0.4524 4.62839,-0.5 4.21082,-0.0857 4.2563,-0.0492 4.56357,3.66345 0.26357,3.18454 0.66568,3.75 2.66667,3.75 1.29597,0 2.56001,0.5625 2.80898,1.25 0.36215,1 0.8761,1 2.56977,0 1.16439,-0.6875 4.48569,-1.18987 7.38065,-1.11639 l 5.26357,0.13362 -4.5,0.79403 c -2.475,0.43672 -5.74103,1.10473 -7.25784,1.48446 -1.56551,0.39193 -4.05185,0.15443 -5.7509,-0.54934 -2.38349,-0.98727 -3.29838,-0.98638 -4.49216,0.004 -2.13897,1.77518 -1.85247,3.32492 0.5009,2.7095 1.70597,-0.44612 1.97998,-0.059 1.86382,2.63337 -0.10062,2.33199 -0.24894,2.57202 -0.5679,0.919 -0.41821,-2.16739 -0.52391,-2.13644 -3.37894,0.98941 -1.62097,1.77474 -2.72953,3.79406 -2.46348,4.48738 0.78301,2.04049 -0.10087,1.46838 -2.93491,-1.89968 z M 350.5,561.86218 c 0,-0.55 -0.42344,-1 -0.94098,-1 -0.51754,0 -1.2191,0.45 -1.55902,1 -0.33992,0.55 0.0835,1 0.94098,1 0.85746,0 1.55902,-0.45 1.55902,-1 z m 0,-3 c 0,-0.55 -0.9,-1 -2,-1 -1.1,0 -2,0.45 -2,1 0,0.55 0.9,1 2,1 1.1,0 2,-0.45 2,-1 z m -1.5,-3 c -0.33992,-0.55 -1.04148,-1 -1.55902,-1 -0.51754,0 -0.94098,0.45 -0.94098,1 0,0.55 0.70156,1 1.55902,1 0.85746,0 1.2809,-0.45 0.94098,-1 z m 0.25,-3.25 c -0.16384,-0.81921 0.87854,-1.19826 3.0246,-1.09988 3.12792,0.1434 3.26434,-0.002 3.04561,-3.25 -0.23809,-3.53528 -1.10514,-3.96643 -5.57021,-2.76983 -1.84356,0.49405 -2.25,1.30447 -2.25,4.48634 0,2.13585 0.45,3.88337 1,3.88337 0.55,0 0.8875,-0.5625 0.75,-1.25 z m 0,-5.41228 c 0.6875,-0.27741 1.8125,-0.27741 2.5,0 0.6875,0.27741 0.125,0.50439 -1.25,0.50439 -1.375,0 -1.9375,-0.22698 -1.25,-0.50439 z m 50.25,12.60326 c 0,-1.13246 0.43035,-1.79305 0.95633,-1.46797 0.52597,0.32507 0.70283,1.25163 0.39301,2.05902 -0.79323,2.06711 -1.34934,1.82352 -1.34934,-0.59105 z m -23.40344,-55.78475 c -0.34605,-0.55992 -0.1419,-1.31919 0.45366,-1.68727 1.53748,-0.95021 2.52947,0.35135 1.24598,1.63484 -0.71818,0.71818 -1.27753,0.73543 -1.69964,0.0524 z m 18.43385,-2.01322 c -0.0226,-1.75342 -0.44408,-2.19825 -1.6458,-1.7371 -1.31767,0.50563 -1.53389,0.0646 -1.1732,-2.39301 0.24322,-1.6571 0.0701,-3.0129 -0.3846,-3.0129 -1.36032,0 -0.93671,-4.87216 0.7216,-8.29966 1.4381,-2.97234 1.43262,-3.05786 -0.0769,-1.20034 -1.57037,1.93244 -1.60945,1.89474 -1.15673,-1.11624 0.2577,-1.71394 0.0796,-3.73894 -0.39578,-4.5 -0.61548,-0.98536 -0.83149,-0.66399 -0.75028,1.11624 0.2018,4.42345 -0.14601,6.13209 -1.12508,5.52699 -0.52598,-0.32507 -0.72031,-1.20611 -0.43183,-1.95786 0.28847,-0.75176 -0.0257,-1.70687 -0.69818,-2.12249 -0.83255,-0.51454 -0.9651,-0.33887 -0.4154,0.55055 0.50248,0.81304 0.16021,1.77937 -0.90654,2.55939 -0.9426,0.68925 -2.05946,2.53348 -2.48191,4.0983 -0.74426,2.7568 -0.82255,2.6819 -2.5219,-2.41264 -0.96459,-2.89176 -2.13539,-5.02192 -2.60176,-4.73368 -0.46638,0.28823 -1.13061,0.0667 -1.47608,-0.49225 -0.83149,-1.34538 -4.51008,-1.31055 -4.51008,0.0427 0,0.58246 0.37666,0.82622 0.83703,0.5417 1.02045,-0.63068 5.16297,2.14224 5.16297,3.45598 0,0.51882 -0.88979,0.0535 -1.97732,-1.03402 -1.08824,-1.08824 -2.66197,-1.71459 -3.5,-1.39301 -1.08381,0.4159 -1.52268,-0.0602 -1.52268,-1.65181 0,-2.17932 -0.20952,-2.2219 -8.25,-1.67674 -5.94157,0.40285 -7.13076,0.3152 -4.25,-0.31325 2.2,-0.47993 5.6251,-0.89854 7.61133,-0.93024 3.24932,-0.0519 3.56588,-0.29537 3.15795,-2.4293 -0.9131,-4.77657 5.43625,-12.62833 10.21194,-12.62833 3.42413,0 8.2939,2.82974 10.8887,6.32725 2.61137,3.51982 4.88267,9.45504 4.10179,10.71852 -0.27738,0.44882 -0.0309,1.10862 0.5477,1.46623 0.57862,0.3576 1.03813,2.3012 1.02112,4.3191 -0.106,12.58089 -0.24708,14.70852 -1.06836,16.11175 -0.73316,1.25268 -0.9173,1.09629 -0.94176,-0.79984 z m -0.3473,-9.33051 c -0.31922,-0.79773 -0.55618,-0.56078 -0.60416,0.60417 -0.0434,1.05416 0.19293,1.64479 0.52522,1.3125 0.33229,-0.3323 0.36782,-1.19479 0.0789,-1.91667 z m -11.63022,-9.36277 c -0.86505,-2.89637 -0.88254,-2.903 -0.96694,-0.3664 -0.0473,1.42084 0.21405,2.88334 0.58072,3.25 1.16111,1.16112 1.29521,0.15992 0.38622,-2.8836 z M 385.5,483.4212 c 0,-2.22691 -1.56602,-2.67016 -1.73027,-0.48974 -0.08,1.06189 0.2766,1.93072 0.79242,1.93072 0.51582,0 0.93785,-0.64844 0.93785,-1.44098 z m -12.43809,18.66955 c -0.30905,-0.30905 -0.56191,-1.3869 -0.56191,-2.39524 0,-1.00833 -0.675,-1.83333 -1.5,-1.83333 -1.90819,0 -2.00148,-4.33892 -0.12675,-5.89481 0.75529,-0.62683 2.17036,-0.83382 3.14461,-0.45996 1.15396,0.44282 2.24376,0.0337 3.12675,-1.17388 1.23187,-1.68469 1.35539,-1.69663 1.35539,-0.13109 0,1.83173 -1.81596,2.8721 -5.32461,3.0505 -1.18174,0.0601 -2.28965,0.84231 -2.46203,1.73828 -0.4003,2.08062 3.75968,3.21191 7.11704,1.93544 2.02103,-0.76839 2.55621,-0.6061 2.94853,0.89416 0.36284,1.38749 -0.44834,2.19734 -3.3379,3.33239 -2.09947,0.82469 -4.07008,1.24659 -4.37912,0.93754 z m 12.01502,-8.1041 c -0.33526,-0.54245 -0.17187,-1.25678 0.36308,-1.5874 0.53495,-0.33061 0.69082,-1.33553 0.34638,-2.23314 -0.41863,-1.09093 -0.23838,-1.39229 0.54367,-0.90896 0.64347,0.39769 1.16994,0.28401 1.16994,-0.25262 0,-0.53663 -0.54034,-1.15579 -1.20075,-1.37593 -0.9336,-0.3112 -0.93318,-0.56561 0.002,-1.14351 1.34344,-0.83029 3.47976,3.68006 2.97774,6.28683 -0.34946,1.81462 -3.30341,2.66857 -4.20194,1.21473 z m 3.40776,-2.93349 c -0.0132,-1.45727 -0.14929,-1.48367 -0.98469,-0.19098 -1.2656,1.95837 -1.2656,3.28218 0,2.5 0.55,-0.33992 0.99311,-1.37898 0.98469,-2.30902 z"
         id="path4186" />
      <path
         style="fill:#2b2b2b"
         d="m 380.04431,601.96549 c 0.25063,-3.51818 0.45569,-8.25925 0.45569,-10.53572 0,-3.48922 0.31787,-4.13902 2.02476,-4.13902 1.21613,0 1.83191,0.50255 1.54189,1.25835 -0.51596,1.34456 3.03261,4.31308 5.15586,4.31308 0.79132,0 1.27749,-1.32112 1.27749,-3.47149 0,-1.90931 1.07932,-5.91201 2.39848,-8.89488 1.31917,-2.98287 3.19566,-8.0582 4.16998,-11.27851 0.97432,-3.22032 1.93101,-5.18012 2.12598,-4.35512 0.19496,0.825 -0.78152,4.39783 -2.16998,7.93961 -2.94425,7.51044 -3.01544,8.06039 -1.04351,8.06039 0.81452,0 1.75388,-1.2375 2.08747,-2.75 0.33359,-1.5125 0.71256,-3.18621 0.84217,-3.71935 0.1296,-0.53314 0.31167,4.50635 0.40458,11.19886 0.15809,11.38604 0.0319,12.26421 -1.96331,13.6617 -1.73526,1.21542 -2.02409,2.16004 -1.55129,5.07355 0.34536,2.12818 0.19944,3.34426 -0.3598,2.99863 -0.51743,-0.31978 -0.98563,-1.34237 -1.04045,-2.27241 -0.062,-1.05259 -0.40194,-0.74716 -0.90032,0.80902 -0.71989,2.24785 -0.81069,2.12864 -0.90032,-1.18191 -0.0814,-3.00842 0.44907,-4.07265 2.90032,-5.81809 2.56072,-1.8234 3,-2.78513 3,-6.56809 0,-4.59763 -0.44644,-4.95493 -4.75,-3.80162 -2.21215,0.59283 -3.29257,4.36971 -1.25,4.36971 0.55,0 1,0.45 1,1 0,2.48542 -10.60402,-1.10553 -11.32721,-3.83586 -0.31623,-1.19389 -0.47357,-1.05124 -0.55679,0.50482 -0.16537,3.09209 3.01891,8.19192 5.38093,8.61791 1.93955,0.34979 1.94264,0.38797 0.0973,1.20395 -1.40897,0.62303 -2.35788,0.28435 -3.64018,-1.29922 -1.70818,-2.10951 -1.75054,-2.0553 -2.79993,3.58324 l -1.06552,5.72516 0.4557,-6.39669 z m 4.95757,-17.85331 c 0.54295,-1.93022 0.2528,-2.25 -2.04148,-2.25 -2.11812,0 -2.53713,0.35765 -2.01454,1.71952 0.36292,0.94573 0.29856,1.36323 -0.14301,0.92776 C 380.36128,584.074 379.55,578.7153 379,572.60124 l -1,-11.11647 -7.5,-0.18745 c -7.71891,-0.19293 -12,1.22679 -12,3.9795 0,1.28998 -4.7418,3.1769 -5.66457,2.25412 -0.23571,-0.23571 0.71739,-0.71618 2.118,-1.06772 1.40061,-0.35153 2.54657,-1.20855 2.54657,-1.90448 0,-2.56887 5.31368,-4.55686 11.23286,-4.20251 10.12775,0.6063 9.97395,0.78436 9.20068,-10.65239 -0.7987,-11.81287 0.82333,-23.91245 4.24187,-31.64237 1.29688,-2.93247 2.35709,-6.31446 2.35603,-7.51553 -0.004,-4.11766 -0.36569,-5.59522 -1.23878,-5.05561 -0.48071,0.29709 -0.61194,1.51479 -0.29162,2.70601 0.51571,1.91787 0.3987,1.87961 -1.022,-0.33416 -1.50333,-2.34254 -1.57541,-2.36048 -1.14443,-0.28479 0.85932,4.13861 -6.57167,4.26396 -7.88279,0.13297 -0.35777,-1.12723 -0.21285,-2.48716 0.32206,-3.02206 0.63007,-0.63007 1.19529,-0.0851 1.60507,1.5476 l 0.63252,2.52015 2.50942,-2.32565 c 1.73506,-1.608 2.30129,-2.9031 1.83494,-4.19694 -0.37097,-1.0292 -0.3067,-1.53768 0.14283,-1.12996 0.44953,0.40773 1.4949,0.18273 2.32305,-0.5 1.31816,-1.08669 1.35007,-0.94924 0.25618,1.10331 -1.14903,2.15602 -1.08222,2.29152 0.83051,1.68444 1.69585,-0.53824 2.0828,-0.23248 2.09496,1.65538 0.0264,4.09366 0.41103,6.81595 0.96093,6.80049 0.29464,-0.008 2.33571,-0.64479 4.53571,-1.41447 3.29343,-1.15222 3.94979,-1.81198 3.71574,-3.73495 -0.23882,-1.96214 -0.0622,-1.85591 1.10494,0.66448 2.29156,4.94862 3.6885,12.17971 3.5284,18.26435 -0.1439,5.46907 -0.18096,5.37712 -0.79744,-1.97846 -0.35558,-4.24276 -0.95248,-8.02006 -1.32643,-8.39401 -0.74836,-0.74837 -11.50937,2.32034 -13.4286,3.82942 -0.66187,0.52043 -2.00483,3.49603 -2.98437,6.61246 -1.41562,4.50385 -1.76513,8.94854 -1.70372,21.66624 0.0425,8.8 0.41336,19.9375 0.82414,24.75 0.71471,8.37318 0.85068,8.75 3.15711,8.75 1.91862,0 2.41023,-0.52159 2.41023,-2.55718 0,-1.40645 0.42631,-4.44395 0.94735,-6.75 0.52104,-2.30605 1.22506,-5.9263 1.56448,-8.045 0.33942,-2.1187 0.84789,-3.62144 1.12992,-3.3394 0.28203,0.28203 -0.19699,4.30058 -1.06448,8.93011 -0.8675,4.62953 -1.58416,9.73226 -1.59258,11.3394 -0.008,1.60714 -0.4879,3.59707 -1.06551,4.42207 -0.82211,1.17423 -0.91274,1.01135 -0.4173,-0.75 z m 7.94496,-69.66334 c 1.95424,-0.81653 3.55316,-2.18257 3.55316,-3.03563 0,-1.93972 0.25221,-1.96212 -6.34803,0.56365 -6.20198,2.37336 -8.81647,5.56822 -3.72309,4.54954 1.63064,-0.32612 4.56372,-1.26103 6.51796,-2.07756 z m -45.33021,48.83448 c -2.16936,-2.75789 -2.57204,-6.87662 -1.11663,-11.42114 0.7681,-2.39841 0.80469,-2.40856 0.90032,-0.25 0.11275,2.54496 2.09968,3.1364 2.09968,0.625 0,-1.26478 0.65159,-1.49468 2.93941,-1.03712 2.71161,0.54232 2.97045,0.33889 3.33996,-2.625 l 0.40056,-3.21288 0.16003,3.25 c 0.13423,2.72597 0.54971,3.25 2.57671,3.25 1.32916,0 2.62037,0.5625 2.86934,1.25 0.36215,1 0.8761,1 2.56977,0 1.16439,-0.6875 3.81069,-1.20394 5.88065,-1.14764 L 374,552.0669 l -3.5,0.95362 c -7.35313,2.00345 -8.21312,2.06556 -10.63725,0.76821 -2.64909,-1.41776 -5.32768,-0.53175 -6.18711,2.04654 -0.31025,0.93074 0.1974,1.16262 1.69048,0.77217 1.8002,-0.47076 2.11574,-0.14263 2.01788,2.09836 -0.0689,1.57818 -0.29682,1.97103 -0.56149,0.96786 -0.41453,-1.57121 -0.567,-1.56699 -2.19471,0.0607 -0.96208,0.96208 -2.45693,2.75961 -3.32189,3.99451 l -1.57266,2.24528 -2.11662,-2.69085 z M 350.5,561.80316 c 0,-0.51754 -0.7875,-0.99318 -1.75,-1.05698 -1.66667,-0.11048 -1.66667,-0.13778 0,-0.57333 2.39565,-0.62605 2.21339,-2.31067 -0.25,-2.31067 -2.23485,0 -2.50881,1.18076 -0.94983,4.09375 1.01092,1.88891 2.94983,1.7885 2.94983,-0.15277 z m 3,-2.88196 c 0,-0.51754 -0.45,-1.2191 -1,-1.55902 -0.55,-0.33992 -1,0.0835 -1,0.94098 0,0.85746 0.45,1.55902 1,1.55902 0.55,0 1,-0.42344 1,-0.94098 z m -4,-3.05902 c 0,-0.55 -0.675,-1 -1.5,-1 -0.825,0 -1.5,0.45 -1.5,1 0,0.55 0.675,1 1.5,1 0.825,0 1.5,-0.45 1.5,-1 z m 3.32115,-3.28939 c -0.30596,-0.49505 -0.98743,-0.44433 -1.54688,0.11512 -0.55001,0.55001 -0.66796,1.53726 -0.26214,2.1939 0.56061,0.90708 0.93223,0.87942 1.54689,-0.11512 0.44496,-0.71996 0.56292,-1.70721 0.26213,-2.1939 z M 399.5,559.80316 c 0,-1.13246 0.43035,-1.79305 0.95633,-1.46797 0.52597,0.32507 0.70283,1.25163 0.39301,2.05902 -0.79323,2.06711 -1.34934,1.82352 -1.34934,-0.59105 z m -10.78979,-2.19098 c -0.56907,-0.6875 -1.85452,-4.4 -2.85654,-8.25 -1.00202,-3.85 -2.29912,-7.30815 -2.88244,-7.68479 -1.70743,-1.10243 -0.10615,-14.45615 2.01446,-16.7994 4.21307,-4.65538 9.12253,-2.95491 12.55572,4.3489 1.74305,3.70819 1.98548,5.96603 1.74174,16.22153 -0.22508,9.4705 -0.45637,11.09344 -1.12778,7.91376 -0.46454,-2.2 -1.25443,-5.63195 -1.75531,-7.62656 l -0.91067,-3.62657 -4.7447,0.50962 c -2.60958,0.28029 -4.88382,0.62638 -5.05387,0.76908 -0.90557,0.75994 3.27845,12.23241 5.00531,13.72443 1.51489,1.30888 1.65027,1.75 0.5371,1.75 -0.81859,0 -1.95395,-0.5625 -2.52302,-1.25 z m 9.43296,-16 c -1.01649,-11.74037 -3.77353,-17.75 -8.14317,-17.75 -4.05751,0 -6,3.51397 -6,10.85404 l 0,6.64596 6.62157,-0.14609 c 4.40985,-0.0973 6.61185,0.23672 6.59247,1 -0.0753,2.963 0.34204,5.64609 0.87811,5.64609 0.32568,0 0.34864,-2.8125 0.051,-6.25 z M 349.25,547.1999 c 0.6875,-0.27741 1.8125,-0.27741 2.5,0 0.6875,0.27741 0.125,0.50439 -1.25,0.50439 -1.375,0 -1.9375,-0.22698 -1.25,-0.50439 z M 349,544.90888 c 1.91971,-0.86975 7.27585,-1.43683 6.41667,-0.67936 -0.22917,0.20204 -2.21667,0.64142 -4.41667,0.97641 -2.7878,0.42449 -3.3939,0.33447 -2,-0.29705 z m 27,-41.0467 c -0.33992,-0.55 0.11008,-1 1,-1 0.88992,0 1.33992,0.45 1,1 -0.33992,0.55 -0.78992,1 -1,1 -0.21008,0 -0.66008,-0.45 -1,-1 z m 18.51531,-2.19098 c -0.008,-1.48004 0.43469,-2.9691 0.98469,-3.30902 1.2769,-0.78917 1.2769,2.52414 0,4.5 -0.7582,1.17323 -0.97271,0.91378 -0.98469,-1.19098 z m -21.64933,-0.29768 c -0.29876,-0.77856 -0.28339,-1.83595 0.0342,-2.34976 0.31755,-0.51381 -0.31757,-1.16823 -1.41139,-1.45427 -1.1365,-0.2972 -1.98875,-1.36479 -1.98875,-2.49125 0,-2.32879 2.46737,-4.66328 3.95619,-3.74313 1.63029,1.00757 1.22572,2.31961 -0.66788,2.16596 -0.94142,-0.0764 -1.87442,0.64861 -2.07332,1.61111 -0.22529,1.09018 0.24372,1.75 1.24391,1.75 0.88305,0 2.01252,1.0125 2.50994,2.25 0.58455,1.45428 0.9268,1.68788 0.96777,0.66051 0.0349,-0.87421 1.18839,-2.10206 2.56339,-2.72856 2.07659,-0.94616 2.5,-0.87866 2.5,0.39851 0,0.84566 0.40775,1.28557 0.90612,0.97756 0.49837,-0.30801 0.65248,-1.52993 0.34248,-2.71539 -0.38615,-1.47663 -0.19913,-1.93009 0.59388,-1.43998 0.63663,0.39346 1.15752,1.52883 1.15752,2.52304 0,2.48351 -9.81632,6.71655 -10.63402,4.58565 z M 391.5,498.43361 c 0,-2.58965 1.34986,-3.43239 2.50474,-1.56376 0.34253,0.55422 -0.0809,1.71136 -0.94098,2.57143 -1.41835,1.41834 -1.56376,1.32464 -1.56376,-1.00767 z m 2.8937,-2.32143 c -0.0585,-0.4125 -0.17096,-1.61053 -0.25,-2.66229 -0.079,-1.05176 -0.71745,-2.03051 -1.4187,-2.175 -0.70125,-0.14449 -0.81375,-0.034 -0.25,0.24562 1.56982,0.77853 1.21774,3.00834 -0.475,3.00834 -2.31294,0 -1.89813,-5.2744 0.54965,-6.98889 1.88834,-1.32265 1.92231,-1.56296 0.43164,-3.05364 -1.03616,-1.03615 -1.39007,-2.42824 -0.98415,-3.87107 0.49602,-1.76307 0.40548,-1.92685 -0.41632,-0.75307 -0.57761,0.825 -1.05709,1.0125 -1.06551,0.41667 -0.008,-0.59584 -0.74985,-1.08334 -1.64762,-1.08334 -1.37168,0 -1.40751,0.17298 -0.22436,1.08334 1.52681,1.17478 1.79388,2.97945 0.61535,4.15799 -0.40773,0.40773 -0.18273,1.43161 0.5,2.27529 0.99015,1.22358 0.98839,1.38201 -0.009,0.78299 -0.70242,-0.42201 -1.24998,-0.26122 -1.24998,0.36706 0,0.61492 -0.49804,0.81023 -1.10676,0.43402 -0.61135,-0.37784 -0.7078,-0.96379 -0.21548,-1.30902 0.80848,-0.56693 0.93161,-1.807 0.45924,-4.625 -0.0922,-0.55 -0.60384,-0.325 -1.137,0.5 -0.82843,1.2819 -0.9716,1.24555 -0.98469,-0.25 -0.0172,-1.965 -2.00667,-2.45487 -2.03062,-0.5 -0.0102,0.83333 -0.33844,0.75 -0.98469,-0.25 -0.76367,-1.18169 -0.97262,-0.9518 -0.98469,1.08333 -0.0187,3.15279 0.90336,4.22906 2.49289,2.90987 0.9178,-0.76171 0.9444,-0.19771 0.11555,2.45041 l -1.07666,3.43986 -1.84823,-4.95459 c -1.01652,-2.72503 -2.23353,-4.71647 -2.70445,-4.42543 -0.47091,0.29105 -1.13887,0.0718 -1.48433,-0.48714 -0.83149,-1.34538 -4.51008,-1.31055 -4.51008,0.0427 0,0.58246 0.37666,0.82622 0.83703,0.5417 1.02045,-0.63068 5.16297,2.14224 5.16297,3.45598 0,0.51882 -0.88979,0.0535 -1.97732,-1.03402 -1.08824,-1.08824 -2.66197,-1.71459 -3.5,-1.39301 -1.06667,0.40932 -1.52268,-0.0467 -1.52268,-1.52268 0,-1.15884 -0.35803,-2.10699 -0.79561,-2.10699 -0.43759,0 -0.88967,-1.4625 -1.00461,-3.25 -0.24354,-3.78706 2.59553,-8.91455 6.26847,-11.32115 5.42021,-3.55146 15.44791,2.3199 18.05446,10.57115 1.90794,6.03974 2.99095,21 1.52024,21 -0.57362,0 -1.09079,-0.3375 -1.14925,-0.75 z m -9.28945,-2.08132 c -0.32023,-0.51814 0.0981,-1.5067 0.92965,-2.19682 1.25978,-1.04552 1.40686,-0.98104 0.882,0.3867 -0.67635,1.76254 1.07876,2.32435 1.92577,0.61644 0.27958,-0.56375 0.39229,-0.45125 0.25046,0.25 -0.31581,1.5615 -3.18625,2.24075 -3.98788,0.94368 z m -8.58419,-2.69285 c 0.69572,-0.83829 1.47088,-1.31823 1.72258,-1.06653 0.69349,0.6935 -0.71555,2.5907 -1.9241,2.5907 -0.6631,0 -0.58723,-0.57378 0.20152,-1.52417 z M 359,479.80481 c 2.2,-0.45505 5.35,-0.79698 7,-0.75983 2.24966,0.0506 1.87449,0.2678 -1.5,0.86824 -6.03452,1.07376 -10.76454,0.98052 -5.5,-0.10841 z"
         id="path4184" />
      <path
         style="fill:#040404"
         d="m 380.03503,602.86218 c 0.24617,-3.025 0.4515,-7.76607 0.45628,-10.53571 0.007,-4.26488 0.29745,-5.03572 1.89508,-5.03572 1.04035,0 1.68296,0.5301 1.43282,1.18196 -0.49225,1.2828 3.33196,4.38947 5.4033,4.38947 0.81253,0 1.27749,-1.38305 1.27749,-3.8 0,-2.09 0.41108,-4.2275 0.9135,-4.75 0.50243,-0.5225 2.36378,-5.35115 4.13634,-10.73033 1.77256,-5.37917 3.42592,-9.57724 3.67412,-9.32904 0.24821,0.2482 -0.74186,3.90814 -2.20015,8.13318 -1.45829,4.22504 -2.41713,7.91621 -2.13075,8.20258 1.3219,1.32191 3.50261,-0.93285 3.79036,-3.91905 0.17528,-1.81904 0.42714,2.18215 0.55969,8.89152 0.22563,11.42044 0.10636,12.29317 -1.86901,13.67677 -1.63782,1.14718 -2.01849,2.26184 -1.70105,4.98099 0.22494,1.9267 0.053,3.2831 -0.38204,3.01422 -0.43506,-0.26888 -0.84425,-1.47482 -0.90933,-2.67986 -0.092,-1.70327 -0.28823,-1.52319 -0.88168,0.80902 l -0.76337,3 -0.11832,-3.24229 c -0.0887,-2.42972 0.63353,-3.91218 2.88169,-5.91529 2.55107,-2.27302 3,-3.3965 3,-7.50772 0,-5.13424 -0.33736,-5.41733 -4.54799,-3.81645 -2.14254,0.81459 -2.5833,1.5146 -2.20377,3.5 0.41711,2.18195 0.12328,2.48175 -2.43237,2.48175 -1.75288,0 -3.88116,-0.97438 -5.36133,-2.45455 -2.30646,-2.30646 -2.45454,-2.33363 -2.45454,-0.45034 0,3.00711 2.84063,7.90489 4.5847,7.90489 0.84333,0 1.26736,0.43035 0.94229,0.95633 -0.89526,1.44855 -3.59279,0.0373 -4.4831,-2.34543 -0.60761,-1.62611 -1.03767,-0.61811 -1.8726,4.3891 -1.05773,6.34333 -1.07306,6.36743 -0.63626,1 z m 4.98461,-18.75 c 0.51796,-1.89457 0.22273,-2.25 -1.86892,-2.25 -1.36623,0 -2.71103,0.5625 -2.98844,1.25 -0.27741,0.6875 -0.46427,-1.225 -0.41523,-4.25 0.0657,-4.04979 0.19259,-4.51122 0.48142,-1.75 0.32821,3.13766 0.76939,3.75 2.70184,3.75 1.97728,0 2.40024,-0.64747 2.93964,-4.5 0.34653,-2.475 0.91474,-6.53533 1.26269,-9.02296 0.34795,-2.48763 0.94868,-4.71828 1.33494,-4.957 0.38626,-0.23873 0.34416,1.6841 -0.0936,4.27296 -0.43772,2.58885 -1.09897,7.407 -1.46944,10.707 -0.37047,3.3 -1.08454,6.675 -1.58683,7.5 -0.65401,1.07419 -0.73863,0.86129 -0.29812,-0.75 z M 354.5,566.86218 c 0.825,-0.53316 1.95,-0.96937 2.5,-0.96937 0.55,0 0.325,0.43621 -0.5,0.96937 -0.825,0.53316 -1.95,0.96937 -2.5,0.96937 -0.55,0 -0.325,-0.43621 0.5,-0.96937 z m -6.92742,-3.63486 c -2.2551,-2.86689 -2.63162,-4.9016 -1.08403,-5.85806 0.55558,-0.34337 0.74084,0.0345 0.42299,0.86284 -0.31105,0.81059 -0.0392,2.45727 0.6041,3.6593 0.88088,1.64594 1.45331,1.90183 2.31864,1.0365 0.86533,-0.86533 0.81453,-1.35572 -0.20579,-1.98631 -1.13827,-0.70349 -1.13694,-0.93656 0.008,-1.45836 1.00264,-0.4568 1.04742,-0.77037 0.16933,-1.18566 -0.65661,-0.31053 -0.9182,-1.28286 -0.58133,-2.16074 0.46498,-1.21173 0.13702,-1.47179 -1.36179,-1.07984 -1.72433,0.45092 -1.90867,0.12312 -1.45609,-2.58927 0.42806,-2.56535 0.58028,-2.71417 0.87516,-0.85554 0.39634,2.49814 2.21787,3.11412 2.21787,0.75 0,-1.79439 3.11116,-1.98884 4.8,-0.3 0.93333,0.93333 1.23556,0.32222 1.36004,-2.75 0.1496,-3.69238 0.18634,-3.73803 0.56336,-0.7 0.28098,2.26422 0.93007,3.25 2.13996,3.25 0.95515,0 2.26443,0.52779 2.90951,1.17287 0.89717,0.89717 1.77799,0.89717 3.74706,0 1.4158,-0.64508 3.7905,-1.13657 5.27712,-1.0922 1.96035,0.0585 1.24676,0.50964 -2.59734,1.64206 -4.50143,1.32606 -5.67933,1.35854 -7.8151,0.21551 -2.86449,-1.53302 -5.65206,-0.40685 -6.22653,2.5155 -0.26711,1.35883 0.11576,1.59412 1.75,1.07543 1.60118,-0.50819 2.08833,-0.23761 2.07661,1.15344 -0.0116,1.37709 -0.22016,1.49424 -0.86084,0.48354 -0.68077,-1.07393 -0.96395,-1.02522 -1.4533,0.25 -0.33428,0.87112 -1.2969,1.58385 -2.13917,1.58385 -0.84226,0 -1.53138,0.675 -1.53138,1.5 0,0.825 -0.47656,1.5 -1.05902,1.5 -0.58246,0 -0.7809,0.45 -0.44098,1 1.26557,2.04774 -0.42778,0.90728 -2.42742,-1.63486 z m 5.39407,-7.0749 c -0.25167,-4.14521 -2.46665,-5.90107 -2.46665,-1.95536 0,1.37585 0.27314,3.21335 0.60699,4.08333 1.08402,2.82492 2.09044,1.67329 1.85966,-2.12797 z m 4.53335,7.99699 c 0,-0.8718 3.99793,-3.63207 4.49944,-3.10652 0.16757,0.17561 -0.77625,1.1278 -2.09738,2.11597 -1.32113,0.98818 -2.40206,1.43393 -2.40206,0.99055 z m 7.5,-3.28723 c -1.63041,-0.70061 -1.68751,-0.87242 -0.30902,-0.92971 0.93004,-0.0387 1.9691,0.37971 2.30902,0.92971 0.71066,1.14988 0.67591,1.14988 -2,0 z m 4.05764,0.0933 c -0.30822,-0.49871 0.34022,-0.67122 1.44098,-0.38337 2.33499,0.61061 2.63015,1.29011 0.5604,1.29011 -0.79254,0 -1.69317,-0.40803 -2.00138,-0.90674 z M 377,560.86218 c -0.33992,-0.55 -0.14148,-1 0.44098,-1 0.58246,0 1.05902,0.45 1.05902,1 0,0.55 -0.19844,1 -0.44098,1 -0.24254,0 -0.7191,-0.45 -1.05902,-1 z m 22.65789,-1 c 0,-1.375 0.22698,-1.9375 0.50439,-1.25 0.27741,0.6875 0.27741,1.8125 0,2.5 -0.27741,0.6875 -0.50439,0.125 -0.50439,-1.25 z m -10.88754,-2.25 c -0.53599,-0.6875 -1.80284,-4.5125 -2.81521,-8.5 -1.01237,-3.9875 -2.20393,-7.25 -2.64791,-7.25 -1.00527,0 -0.93707,-10.81012 0.0847,-13.41683 0.43227,-1.10283 0.72092,1.23279 0.67972,5.5 l -0.0716,7.41683 3.65032,0.30442 c 2.00767,0.16744 5.15767,-0.0958 7,-0.58506 3.09284,-0.82128 3.32795,-1.1644 3.06633,-4.47479 -0.15584,-1.97193 0.18166,-3.87271 0.75,-4.22396 0.65912,-0.40736 1.03335,1.1935 1.03335,4.42037 0,3.51388 -0.38178,4.98266 -1.25,4.80902 -0.83943,-0.16789 -1.1814,0.89959 -1.04114,3.25 l 0.20886,3.5 -0.95572,-3.12752 c -0.92877,-3.03937 -1.08966,-3.11313 -5.70885,-2.61694 -2.61423,0.28081 -4.89754,0.63259 -5.07402,0.78172 -0.17648,0.14914 0.62081,3.43315 1.77175,7.29781 1.38199,4.64046 2.67953,7.18054 3.82088,7.47979 1.48155,0.38846 1.49592,0.4697 0.10069,0.56914 -0.89516,0.0638 -2.0661,-0.4465 -2.6021,-1.134 z m 9.84565,-1.41821 c -0.0638,-0.64252 -0.40723,-1.99252 -0.76318,-3 -0.50214,-1.42127 -0.36907,-1.57546 0.59378,-0.68801 0.68253,0.62908 1.02596,1.97908 0.76318,3 -0.26278,1.02092 -0.52998,1.33052 -0.59378,0.68801 z m -49.3035,-9.0149 c 0.72187,-0.28887 1.58438,-0.25335 1.91667,0.0789 0.33229,0.33229 -0.25834,0.56864 -1.3125,0.52522 -1.16495,-0.048 -1.4019,-0.28495 -0.60417,-0.60417 z m 28.45986,-3.31689 c 0,-2.475 0.19502,-3.4875 0.43337,-2.25 0.23836,1.2375 0.23836,3.2625 0,4.5 -0.23835,1.2375 -0.43337,0.225 -0.43337,-2.25 z m 20.88553,1 c 0,-1.375 0.22698,-1.9375 0.50439,-1.25 0.27741,0.6875 0.27741,1.8125 0,2.5 -0.27741,0.6875 -0.50439,0.125 -0.50439,-1.25 z m -49.65789,0 c 1.1,-0.47269 2.675,-0.85943 3.5,-0.85943 0.94548,0 0.76064,0.31772 -0.5,0.85943 -1.1,0.47269 -2.675,0.85943 -3.5,0.85943 -0.94548,0 -0.76064,-0.31771 0.5,-0.85943 z m 28.5856,-8 c -0.0302,-0.825 0.38124,-2.175 0.9144,-3 1.18132,-1.82797 1.18132,-0.24908 0,2.5 -0.56668,1.31874 -0.87816,1.48905 -0.9144,0.5 z m 1.52066,-9.25 c 0.34644,-2.3375 1.16262,-5.15 1.81373,-6.25 0.65111,-1.1 1.80122,-4.025 2.5558,-6.5 0.75459,-2.475 1.77038,-4.95 2.25734,-5.5 0.52678,-0.59499 0.59255,-0.23134 0.16238,0.89788 -0.62023,1.62814 -0.34869,1.82633 1.91049,1.39445 1.44841,-0.27688 2.39554,-0.11842 2.10472,0.35213 -0.29081,0.47055 -1.38636,0.85554 -2.43455,0.85554 -1.04819,0 -2.38747,0.9 -2.97617,2 -1.255,2.34499 -0.3438,2.53258 4.94037,1.0171 1.88494,-0.54059 3.6149,-0.79517 3.84434,-0.56572 0.22945,0.22944 -1.54075,0.93861 -3.93377,1.57592 -5.97246,1.5906 -7.57363,3.31995 -8.87416,9.58454 -1.32981,6.40568 -2.26651,7.18357 -1.37052,1.13816 z m 16.92594,1.35145 c -0.35773,-1.1271 -1.80951,-2.96102 -3.22617,-4.07536 -1.41666,-1.11435 -2.0972,-2.02609 -1.51232,-2.02609 2.05082,0 7.03901,6.50061 5.87862,7.66101 -0.26935,0.26934 -0.7824,-0.43246 -1.14013,-1.55956 z m 2.71998,-2.60145 c 0.0111,-2.2 0.21589,-2.98225 0.45508,-1.73834 0.23919,1.24391 0.23011,3.04391 -0.0202,4 -0.25029,0.95609 -0.446,-0.0617 -0.4349,-2.26166 z m -13.25218,-2 c 0.68469,-0.825 1.9508,-1.5 2.81357,-1.5 1.2558,0 1.18151,0.29285 -0.37244,1.4682 -2.53959,1.92085 -4.02496,1.9402 -2.44113,0.0318 z m 12.61697,-5.75 c -0.48682,-2.57997 -1.23947,-3.75478 -2.41228,-3.76531 -1.37226,-0.0123 -1.43296,-0.18738 -0.31129,-0.89764 0.81635,-0.51694 1.16572,-1.75297 0.84362,-2.98469 -0.30238,-1.1563 -0.14191,-2.10236 0.3566,-2.10236 0.49851,0 0.90638,1.05785 0.90638,2.35078 0,1.29292 0.49069,3.75836 1.09042,5.47875 0.59973,1.72038 0.89775,3.70003 0.66228,4.39922 -0.23548,0.69919 -0.74656,-0.41625 -1.13573,-2.47875 z m -24.04554,-9.32143 c -1.84222,-1.84221 -1.90426,-2.41465 -0.47999,-4.42857 0.93186,-1.31765 1.01141,-1.31874 0.65433,-0.009 -0.22357,0.82009 0.16003,2.05759 0.85244,2.75 1.46537,1.46537 2.78499,1.68798 1.94449,0.32803 -1.07867,-1.74533 1.29055,-2.09299 2.95057,-0.43298 1.33557,1.33557 1.3993,1.81632 0.33062,2.49388 -2.05249,1.30132 -4.52736,1.02368 -6.25246,-0.70143 z m 18.24107,0.88832 c 0.72187,-0.28888 1.58438,-0.25335 1.91667,0.0789 0.33229,0.33229 -0.25834,0.56864 -1.3125,0.52522 -1.16495,-0.048 -1.4019,-0.28495 -0.60417,-0.60417 z m -11.08047,-3.31689 c -1.59896,-1.86744 -1.12059,-2.53503 1.51797,-2.11842 0.4125,0.0651 0.75,-0.33158 0.75,-0.88158 0,-0.55 0.375,-1 0.83333,-1 0.45834,0 0.83334,0.65 0.83334,1.44444 0,0.79445 -0.4875,1.35695 -1.08334,1.25 -0.59583,-0.10694 -1.02083,0.59306 -0.94444,1.55556 0.17287,2.17815 0.1721,2.17805 -1.90686,-0.25 z m -4.91953,-3.68311 c 0.72187,-0.28888 1.58438,-0.25335 1.91667,0.0789 0.33229,0.33229 -0.25834,0.56864 -1.3125,0.52522 -1.16495,-0.048 -1.4019,-0.28495 -0.60417,-0.60417 z m 3.33314,-1.02112 c -0.80933,-1.44621 -1.35188,-1.52283 -3.5834,-0.50608 -2.15927,0.98383 -2.72893,0.93949 -3.18457,-0.24788 -0.30519,-0.79532 -0.29508,-1.86642 0.0225,-2.38023 0.31755,-0.51381 -0.31757,-1.16823 -1.41139,-1.45427 -2.336,-0.61088 -2.64644,-3.91659 -0.53255,-5.67095 0.8009,-0.6647 2.00284,-0.87069 2.67097,-0.45777 0.8395,0.51885 0.54412,0.99886 -0.9562,1.55387 -2.4719,0.91441 -2.95962,3.86754 -0.63875,3.86754 0.84273,0 1.9392,1.0125 2.43662,2.25 0.69292,1.7239 0.91921,1.84081 0.96777,0.5 0.0568,-1.56738 0.65834,-1.93804 2.70159,-1.66459 0.351,0.047 0.96357,-0.44107 1.36126,-1.08453 0.46989,-0.76031 0.92116,-0.41241 1.28884,0.99358 0.43754,1.67317 0.21029,2.02711 -1.00271,1.56164 -1.30905,-0.50233 -1.35774,-0.34796 -0.29435,0.93334 1.03839,1.25119 1.55737,1.30168 2.80516,0.27289 1.34391,-1.10805 1.38451,-0.98733 0.33214,0.98767 -1.43831,2.69929 -1.7462,2.75562 -2.9829,0.54577 z m 14.92464,-0.54577 c -0.0722,-2.82655 -1.51107,-3.72283 -2.408,-1.5 -0.27741,0.6875 -0.53991,0.0125 -0.58333,-1.5 -0.0434,-1.5125 0.39761,-2.75 0.98007,-2.75 0.58246,0 0.73793,0.51953 0.34549,1.15451 -0.44208,0.7153 -0.27432,0.88306 0.44098,0.44098 0.63498,-0.39244 1.15451,-0.21041 1.15451,0.40451 0,0.61492 0.45,0.83992 1,0.5 1.19384,-0.73784 1.19384,1.22177 0,4 -0.76156,1.77225 -0.86743,1.68684 -0.92972,-0.75 z m -12.24578,-5.07582 c -0.37205,-1.82482 -0.23268,-2.48236 0.39346,-1.85622 0.53328,0.53328 0.79255,1.8049 0.57615,2.82582 -0.29142,1.37482 -0.54288,1.12336 -0.96961,-0.9696 z m 12.06481,-0.42418 c -0.0609,-0.4125 -0.0287,-1.7625 0.0716,-3 0.12309,-1.51959 -0.36767,-2.25 -1.51176,-2.25 -1.32883,0 -1.44654,0.29818 -0.54604,1.38322 0.88524,1.06665 0.79883,1.51719 -0.37755,1.96861 -1.1627,0.44617 -1.52553,-0.14292 -1.52553,-2.47683 0,-2.22123 0.54928,-3.20588 2,-3.58525 1.1,-0.28766 2,-0.88372 2,-1.32459 0,-1.75002 -1.25432,-3.92601 -1.99811,-3.46633 -0.4337,0.26804 -1.07474,-0.65295 -1.42453,-2.04664 -0.3498,-1.39369 -1.03437,-2.28778 -1.52127,-1.98686 -0.4869,0.30092 -1.06632,0.004 -1.2876,-0.65984 -0.30671,-0.92014 -0.58857,-0.90562 -1.18602,0.0611 -0.51154,0.82769 -0.0895,1.44959 1.21522,1.79079 2.20403,0.57637 2.31632,2.68176 0.24548,4.60278 -1.06433,0.98732 -1.19283,0.98526 -0.63086,-0.0101 1.02854,-1.82179 -0.42644,-3.83578 -1.522,-2.10677 -0.66969,1.05692 -0.86307,0.97001 -0.875,-0.39323 -0.0172,-1.97181 -1.97643,-2.4415 -2.0856,-0.5 -0.0387,0.6875 -0.4764,0.35 -0.97277,-0.75 -0.71995,-1.59549 -0.85743,-1.2921 -0.67971,1.5 0.12252,1.925 0.70332,3.41481 1.29067,3.3107 0.65239,-0.11565 0.88325,1.05162 0.59335,3 -0.47046,3.16177 -0.48905,3.14614 -2.15422,-1.81071 -0.92382,-2.75 -2.09083,-5.03886 -2.59335,-5.08637 -0.50252,-0.0475 -1.58868,-0.34741 -2.41368,-0.66647 -0.825,-0.31907 -2.625,-0.82411 -4,-1.12234 -5.23547,-1.13551 -2.63683,-11.18071 3.87646,-14.98468 3.05125,-1.78203 3.43483,-1.79297 7.56431,-0.21591 4.22014,1.61168 9.29225,7.37617 10.09238,11.47003 0.1726,0.88316 0.38576,1.60574 0.47367,1.60574 0.32094,0 0.98959,5.16161 1.52214,11.75 0.35127,4.34575 0.17615,6.75 -0.49167,6.75 -0.57051,0 -1.0871,-0.3375 -1.14798,-0.75 z m -0.88931,-16.25 c 0,-0.55 -0.45,-1 -1,-1 -0.55,0 -1,0.45 -1,1 0,0.55 0.45,1 1,1 0.55,0 1,-0.45 1,-1 z m -15.48079,-7.50124 c 0.0203,-6.87968 -0.10734,-7.13527 -2.60587,-5.21696 -2.37953,1.82695 -3.91334,5.21823 -3.91334,8.65246 0,2.79237 0.2898,3.06563 3.25,3.0645 l 3.25,-0.001 0.0192,-6.49876 z m 8.46434,4.14183 c -0.0264,-1.83346 -4.36699,-8.94677 -5.73355,-9.39618 -0.90493,-0.2976 -1.25,1.21286 -1.25,5.47146 l 0,5.88253 3.5,-0.40861 c 1.925,-0.22473 3.4926,-0.92187 3.48355,-1.5492 z m 5.7349,-1.29454 c 0.44274,-1.32984 -6.85804,-9.34605 -8.51193,-9.34605 -0.60674,0 0.32603,2.48827 2.07281,5.52948 2.9814,5.19073 5.48716,6.67593 6.43912,3.81657 z m -6.51578,18.80037 c -1.05866,-0.67156 -1.05209,-1.0265 0.0357,-1.92929 1.033,-0.85732 1.33305,-0.66865 1.33305,0.83827 0,1.06953 -0.0161,1.93771 -0.0357,1.92929 -0.0196,-0.008 -0.61951,-0.38565 -1.33304,-0.83827 z m -9.18261,-2.67059 c 0.69572,-0.83829 1.47088,-1.31823 1.72258,-1.06653 0.69349,0.6935 -0.71555,2.5907 -1.9241,2.5907 -0.6631,0 -0.58723,-0.57378 0.20152,-1.52417 z M 387,487.86218 c -0.33992,-0.55 -0.14148,-1 0.44098,-1 0.58246,0 1.05902,0.45 1.05902,1 0,0.55 -0.19844,1 -0.44098,1 -0.24254,0 -0.7191,-0.45 -1.05902,-1 z m -10.75,-3.16667 c -0.9625,-1.00833 -1.3551,-1.83333 -0.87244,-1.83333 1.00856,0 3.60567,2.89219 3.01494,3.3575 -0.21588,0.17004 -1.18,-0.51583 -2.1425,-1.52417 z m -19.9375,-4.51644 c 0.72187,-0.28888 1.58438,-0.25335 1.91667,0.0789 0.33229,0.33229 -0.25834,0.56864 -1.3125,0.52522 -1.16495,-0.048 -1.4019,-0.28494 -0.60417,-0.60417 z m 7.4375,-1.00622 c 0.9625,-0.25152 2.5375,-0.25152 3.5,0 0.9625,0.25153 0.175,0.45733 -1.75,0.45733 -1.925,0 -2.7125,-0.2058 -1.75,-0.45733 z"
         id="path4182" />
    </g>
  </g>
</svg>
