<?xml version="1.0" encoding="UTF-8" standalone="no"?>
<!-- Created with Inkscape (http://www.inkscape.org/) -->

<svg
   xmlns:dc="http://purl.org/dc/elements/1.1/"
   xmlns:cc="http://creativecommons.org/ns#"
   xmlns:rdf="http://www.w3.org/1999/02/22-rdf-syntax-ns#"
   xmlns:svg="http://www.w3.org/2000/svg"
   xmlns="http://www.w3.org/2000/svg"
   xmlns:sodipodi="http://sodipodi.sourceforge.net/DTD/sodipodi-0.dtd"
   xmlns:inkscape="http://www.inkscape.org/namespaces/inkscape"
   width="744.09448819"
   height="1052.3622047"
   id="svg2905"
   version="1.1"
   inkscape:version="0.47 r22583"
   sodipodi:docname="pitr.svg"
   inkscape:export-filename="/home/robert/documents/pitr-large.png"
   inkscape:export-xdpi="300"
   inkscape:export-ydpi="300">
  <defs
     id="defs2907">
    <inkscape:perspective
       sodipodi:type="inkscape:persp3d"
       inkscape:vp_x="0 : 526.18109 : 1"
       inkscape:vp_y="0 : 1000 : 0"
       inkscape:vp_z="744.09448 : 526.18109 : 1"
       inkscape:persp3d-origin="372.04724 : 350.78739 : 1"
       id="perspective2913" />
    <inkscape:perspective
       id="perspective2983"
       inkscape:persp3d-origin="0.5 : 0.33333333 : 1"
       inkscape:vp_z="1 : 0.5 : 1"
       inkscape:vp_y="0 : 1000 : 0"
       inkscape:vp_x="0 : 0.5 : 1"
       sodipodi:type="inkscape:persp3d" />
  </defs>
  <sodipodi:namedview
     id="base"
     pagecolor="#ffffff"
     bordercolor="#666666"
     borderopacity="1.0"
     inkscape:pageopacity="0.0"
     inkscape:pageshadow="2"
     inkscape:zoom="0.35"
     inkscape:cx="375"
     inkscape:cy="524.54534"
     inkscape:document-units="px"
     inkscape:current-layer="layer1"
     showgrid="false"
     inkscape:window-width="846"
     inkscape:window-height="722"
     inkscape:window-x="78"
     inkscape:window-y="25"
     inkscape:window-maximized="0" />
  <metadata
     id="metadata2910">
    <rdf:RDF>
      <cc:Work
         rdf:about="">
        <dc:format>image/svg+xml</dc:format>
        <dc:type
           rdf:resource="http://purl.org/dc/dcmitype/StillImage" />
        <dc:title></dc:title>
      </cc:Work>
    </rdf:RDF>
  </metadata>
  <g
     inkscape:label="Layer 1"
     inkscape:groupmode="layer"
     id="layer1">
    <g
       id="g2989"
       transform="matrix(8.3103288,0,0,8.3103288,-689.05787,-4753.5252)">
      <path
         style="fill:#e7e7e7"
         d="m 97.817528,688.11218 c -0.324401,-5.3625 -0.864484,-14.75197 -1.200186,-20.86548 l -0.610367,-11.11548 -4.388273,0.49462 c -5.587332,0.62978 -7.404415,-0.82334 -7.404415,-5.92129 0,-4.48812 1.559659,-7.30977 7.948214,-14.37946 7.310793,-8.09026 9.051789,-10.72331 9.051789,-13.68976 0,-1.55524 0.88622,-3.55153 2,-4.50518 2.77582,-2.37673 2.50309,-3.26797 -1,-3.26797 -5.258922,0 -7.149352,-3.03985 -7.038053,-11.31731 0.119838,-8.91252 -0.240437,-12.68269 -1.21195,-12.68269 -1.278697,0 -0.827746,-3.76911 0.879222,-7.34866 1.204894,-2.52669 2.694127,-3.76797 5.717951,-4.76592 4.05182,-1.33722 4.5108,-1.43787 7.90283,-1.73311 0.9625,-0.0838 1.75,-0.88241 1.75,-1.77475 0,-1.3288 0.27149,-1.39713 1.5,-0.37756 1.2285,1.01957 1.5,0.95124 1.5,-0.37756 0,-0.89234 0.45,-1.62244 1,-1.62244 0.55,0 1,1.19474 1,2.65499 0,2.59435 0.0458,2.61352 2.00613,0.83946 1.10337,-0.99854 2.33712,-1.48453 2.74167,-1.07998 0.40454,0.40454 -0.0859,1.19521 -1.08979,1.75704 -1.75504,0.98217 -1.74991,1.10441 0.13337,3.17499 3.68289,4.04918 4.33684,6.39729 3.59988,12.92582 -0.38665,3.42523 -1.98286,9.08213 -3.54713,12.5709 -2.99117,6.67114 -3.50341,9.63129 -1.84413,10.65678 0.55,0.33992 1,1.31421 1,2.1651 0,0.85088 1.07933,2.39606 2.39852,3.43374 3.14203,2.47152 5.26856,10.83294 3.73456,14.68415 -1.16888,2.93453 -4.13308,33.44138 -4.13308,42.53662 0,3.0593 0.45,5.84047 1,6.18039 1.09125,0.67443 1.36848,8.37617 0.39301,10.91821 -0.50393,1.31321 -2.52505,1.58179 -11.90347,1.58179 l -11.296484,0 -0.589818,-9.75 z m 8.396762,-3.29919 c 0,-0.44882 -0.9453,-1.11606 -2.10067,-1.48276 -2.25876,-0.7169 -4.501477,0.74864 -3.53607,2.31071 0.68536,1.10892 5.63674,0.38164 5.63674,-0.82795 z m 2.75,-3.64014 c -0.9625,-0.25152 -2.5375,-0.25152 -3.5,0 -0.9625,0.25153 -0.175,0.45733 1.75,0.45733 1.925,0 2.7125,-0.2058 1.75,-0.45733 z m -6.75,-0.70368 c 0,-0.21616 -0.675,-0.65203 -1.5,-0.96862 -0.825003,-0.31658 -1.500003,-0.13972 -1.500003,0.39301 0,0.53274 0.675,0.96862 1.500003,0.96862 0.825,0 1.5,-0.17686 1.5,-0.39301 z m 15.59809,-4.36441 0.0981,-4.25743 -0.40254,3.94501 c -0.31432,3.0804 -0.88373,4.04938 -2.59809,4.42123 -1.84076,0.39926 -1.79156,0.44975 0.30445,0.31241 2.23252,-0.14627 2.51049,-0.61931 2.59809,-4.42122 z m 1.10917,-13.48092 c -0.23919,-1.24391 -0.44398,-0.46166 -0.45508,1.73834 -0.0111,2.2 0.1846,3.21775 0.4349,2.26166 0.25029,-0.95609 0.25937,-2.75609 0.0202,-4 z m -7.43823,2.5824 c -0.67703,-0.27392 -2.02703,-0.29059 -3,-0.0371 -0.97297,0.25354 -0.41903,0.47766 1.23097,0.49804 1.65,0.0204 2.44606,-0.18706 1.76903,-0.46099 z m 4.7804,-5.44097 c 1.14955,-2.25329 1.91857,-4.26842 1.70894,-4.47806 -0.20964,-0.20963 -1.36018,1.63398 -2.55677,4.09691 -2.72529,5.60948 -1.98845,5.94073 0.84783,0.38115 z m -3.66788,1.54497 c 0.3415,-0.88992 0.17385,-1.29132 -0.39301,-0.94098 -0.5437,0.33602 -0.98854,1.0344 -0.98854,1.55194 0,1.43843 0.71676,1.12146 1.38155,-0.61096 z m -11.38155,-0.94806 c -0.68469,-0.825 -1.725801,-1.5 -2.313577,-1.5 -0.587777,0 -0.195177,0.66069 0.872444,1.4682 2.508463,1.89731 2.998333,1.90812 1.441133,0.0318 z m 2.65499,-0.32874 c -0.91025,-1.00581 -1.69052,-2.46831 -1.73394,-3.25 -0.0608,-1.09453 -0.19933,-1.1206 -0.60262,-0.1134 -0.46852,1.17011 2.23616,5.19214 3.49154,5.19214 0.275,0 -0.24474,-0.82293 -1.15498,-1.82874 z m -5.154993,-4.17126 c -0.339919,-0.55 -0.06648,-1 0.60765,-1 0.674126,0 0.955623,-0.27006 0.625548,-0.60014 -0.898211,-0.89821 -2.855465,0.59329 -2.190493,1.66924 0.316431,0.51199 0.800329,0.9309 1.075329,0.9309 0.275,0 0.221885,-0.45 -0.118034,-1 z m 21.761043,-5.5 0.54279,-5 -1.25788,4 c -0.69183,2.2 -1.04211,4.58191 -0.77838,5.29313 0.69047,1.86206 0.88641,1.29881 1.49347,-4.29313 z m -32.261043,4.12244 c 0,-0.20765 -0.7875,-0.99515 -1.75,-1.75 -1.586056,-1.24387 -1.621426,-1.2085 -0.377555,0.37756 1.306369,1.66575 2.127555,2.19548 2.127555,1.37244 z m 9,-1.22943 c 0,-0.21616 -0.675,-0.39301 -1.5,-0.39301 -0.825,0 -1.5,0.43588 -1.5,0.96861 0,0.53274 0.675,0.7096 1.5,0.39302 0.825,-0.31659 1.5,-0.75246 1.5,-0.96862 z m 9.124383,-3.7441 c 0.6874,-2.58993 0.55607,-2.79727 -1.43383,-2.26365 -1.2048,0.32309 -3.20305,0.59357 -4.44055,0.60108 -1.743927,0.0106 -2.250003,0.58954 -2.250003,2.57403 0,2.33996 0.317104,2.53364 3.683833,2.25 3.09354,-0.26064 3.80508,-0.76722 4.44055,-3.16146 z m -9.124383,0.73446 c 0,-0.21085 -0.9,-0.38337 -2,-0.38337 -1.1,0 -2,0.40787 -2,0.90638 0,0.49851 0.9,0.67102 2,0.38337 1.1,-0.28766 2,-0.69553 2,-0.90638 z m -7.702053,-3.75669 c 1.816035,0.34173 1.88425,0.27314 0.389136,-0.39131 -1.718962,-0.76393 -1.701638,-0.95933 0.334281,-3.77053 1.66235,-2.29537 1.450753,-2.18306 -0.937084,0.49739 -1.696354,1.90422 -3.048754,3.92922 -3.005333,4.5 0.04561,0.59953 0.277002,0.55474 0.547948,-0.10607 0.25795,-0.62912 1.459923,-0.95738 2.671052,-0.72948 z m 13.952056,-1.28896 c -0.6875,-0.27741 -1.8125,-0.27741 -2.5,0 -0.6875,0.27741 -0.125,0.50439 1.25,0.50439 1.375,0 1.9375,-0.22698 1.25,-0.50439 z m -6.566889,-6.52522 c -0.319226,-0.79773 -0.556183,-0.56078 -0.604167,0.60417 -0.04342,1.05416 0.192928,1.64479 0.52522,1.3125 0.332291,-0.3323 0.367818,-1.1948 0.07895,-1.91667 z m -2.555559,-1.5625 c 1.243871,-1.58606 1.208501,-1.62143 -0.377555,-0.37756 -1.665748,1.30637 -2.195479,2.12756 -1.372445,2.12756 0.207656,0 0.995156,-0.7875 1.75,-1.75 z m 14.555558,-1.4375 c -0.31922,-0.79773 -0.55618,-0.56078 -0.60417,0.60417 -0.0434,1.05416 0.19293,1.64479 0.52522,1.3125 0.3323,-0.3323 0.36782,-1.1948 0.079,-1.91667 z m 2.97917,-1.0625 c -0.27742,-0.6875 -0.50439,-0.125 -0.50439,1.25 0,1.375 0.22697,1.9375 0.50439,1.25 0.27741,-0.6875 0.27741,-1.8125 0,-2.5 z m -13.995616,-0.20601 c 0,-0.80081 -0.382341,-1.21971 -0.849646,-0.9309 -0.467304,0.28881 -0.590747,0.94401 -0.274316,1.45601 0.808625,1.30838 1.123962,1.16106 1.123962,-0.52511 z m 25.016446,-1.73149 c -0.31922,-0.79773 -0.55618,-0.56078 -0.60417,0.60417 -0.0434,1.05416 0.19293,1.64479 0.52522,1.3125 0.3323,-0.3323 0.36782,-1.1948 0.079,-1.91667 z m -20.30156,-4.36444 c 0.3415,-0.88992 0.17385,-1.29132 -0.39301,-0.94098 -0.5437,0.33602 -0.98854,1.0344 -0.98854,1.55194 0,1.43843 0.71676,1.12146 1.38155,-0.61096 z m 2.61845,-2.44806 c -0.825,-0.53316 -1.95,-0.96937 -2.5,-0.96937 -0.55,0 -0.325,0.43621 0.5,0.96937 0.825,0.53316 1.95,0.96937 2.5,0.96937 0.55,0 0.325,-0.43621 -0.5,-0.96937 z m 5.25,-0.66228 c -0.6875,-0.27741 -1.8125,-0.27741 -2.5,0 -0.6875,0.27741 -0.125,0.50438 1.25,0.50438 1.375,0 1.9375,-0.22697 1.25,-0.50438 z m 8.75,-1.83772 c -0.68469,-0.825 -1.7258,-1.5 -2.31358,-1.5 -0.58777,0 -0.19517,0.66069 0.87245,1.4682 2.50846,1.89731 2.99833,1.90812 1.44113,0.0318 z m -14.71025,-1.5 c 0.28765,-1.1 0.11514,-2 -0.38337,-2 -0.49851,0 -0.90638,0.9 -0.90638,2 0,1.1 0.17251,2 0.38337,2 0.21085,0 0.61872,-0.9 0.90638,-2 z m 4.39336,-1.1875 c -0.31922,-0.79773 -0.55618,-0.56078 -0.60417,0.60417 -0.0434,1.05416 0.19293,1.64479 0.52522,1.3125 0.3323,-0.3323 0.36782,-1.1948 0.079,-1.91667 z m 4.31689,-0.37152 c 0,-0.79254 -0.45,-1.44098 -1,-1.44098 -0.55,0 -1,0.92656 -1,2.05902 0,1.13246 0.45,1.7809 1,1.44098 0.55,-0.33992 1,-1.26648 1,-2.05902 z m 2.72504,-1.44098 c -0.0829,-1.1 -0.50489,-2 -0.93785,-2 -0.94651,0 -0.9728,0.35274 -0.1802,2.41821 0.82939,2.16136 1.29913,1.98566 1.11805,-0.41821 z m -5.19292,-1.44897 c 2.5285,-1.05648 3.46955,-2.07228 3.47404,-3.75 0.003,-1.26557 0.59968,-3.43827 1.3251,-4.82822 1.66916,-3.19825 2.66301,-6.93038 1.81618,-6.8202 -0.3561,0.0463 -1.43494,0.031 -2.39744,-0.0342 -2.0922,-0.14158 -2.38056,-2.11842 -0.30902,-2.11842 0.79254,0 1.71591,-0.44485 2.05194,-0.98855 0.36356,-0.58825 -0.0878,-0.72041 -1.11459,-0.32639 -1.26994,0.48732 -1.57212,0.26233 -1.14446,-0.85214 0.3196,-0.83286 0.17961,-2.14848 -0.31108,-2.9236 -0.67499,-1.06626 -0.89589,-0.85398 -0.90748,0.87206 -0.0172,2.56582 -2.81074,4.16765 -3.97707,2.28049 -0.58892,-0.95288 -0.8751,-0.92941 -1.27176,0.10428 -0.8794,2.29167 -0.6814,3.34308 0.58187,3.0899 2.13384,-0.42767 1.86659,8.34327 -0.36579,12.00459 -1.90031,3.11671 -2.5631,5.73936 -1.45044,5.73936 0.29266,0 2.09266,-0.65204 4,-1.44897 z m -3.65831,-8.31524 c 1.45778,-2.72389 -0.80629,-4.7781 -5.62381,-5.10252 -4.1221,-0.27759 -4.250003,-0.19562 -4.250003,2.72384 0,2.51603 0.451338,3.07842 2.75,3.42664 5.379033,0.81485 6.190773,0.69544 7.123813,-1.04796 z m -6.12381,0.0749 c -0.9625,-0.25152 -1.750003,-1.13062 -1.750003,-1.95355 0,-2.12994 4.392273,-1.31513 4.813113,0.89288 0.33859,1.7765 0.0537,1.87517 -3.06311,1.06067 z m -0.19615,-8.3978 c 0.36953,-0.59793 0.27983,-1.47919 -0.19935,-1.95836 -1.182676,-1.18268 -3.785618,0.53891 -2.923601,1.93369 0.873545,1.41342 2.257892,1.42436 3.122951,0.0247 z m 6.32913,-4.12558 c 1.34416,-3.63361 0.22789,-5.78729 -2.99961,-5.78729 -3.33511,0 -3.83835,2.19156 -1.32667,5.77749 1.97184,2.8152 3.28739,2.81818 4.32628,0.01 z m -4.11889,-1.01177 c -0.69725,-1.89436 0.20919,-3.77552 1.81924,-3.77552 1.81298,0 1.83363,2.40906 0.0335,3.90308 -1.05147,0.87264 -1.49581,0.84205 -1.85269,-0.12756 z m -2.76409,0.22448 c 0,-0.55 -0.19844,-1 -0.440986,-1 -0.242541,0 -0.719098,0.45 -1.059017,1 -0.339919,0.55 -0.141476,1 0.440983,1 0.582459,0 1.05902,-0.45 1.05902,-1 z m -3.316889,-2.1875 c -0.319226,-0.79773 -0.556183,-0.56078 -0.604167,0.60417 -0.04342,1.05416 0.192928,1.64479 0.52522,1.3125 0.332291,-0.3323 0.367818,-1.1948 0.07895,-1.91667 z m 3.444439,-6.5625 c 1.24387,-1.58606 1.2085,-1.62143 -0.377553,-0.37756 -0.9625,0.75485 -1.75,1.54235 -1.75,1.75 0,0.82304 0.821186,0.29331 2.127553,-1.37244 z m 4.254,0.19806 c 0.3415,-0.88992 0.17385,-1.29132 -0.39301,-0.94098 -0.5437,0.33602 -0.98854,1.0344 -0.98854,1.55194 0,1.43843 0.71676,1.12146 1.38155,-0.61096 z m -6.253998,-4.19806 c 1.243871,-1.58606 1.208501,-1.62143 -0.377555,-0.37756 -0.9625,0.75485 -1.75,1.54235 -1.75,1.75 0,0.82304 0.821186,0.29331 2.127555,-1.37244 z m 11.372448,-0.25 c -0.33992,-0.55 -1.15398,-0.99311 -1.80902,-0.98469 -0.71562,0.009 -0.59227,0.40223 0.30902,0.98469 1.92112,1.24152 2.2673,1.24152 1.5,0 z m -5.97354,-1.80687 c -0.30789,-0.30789 -1.1148,-6.4e-4 -1.79313,0.68278 -0.98027,0.98762 -0.8654,1.10248 0.5598,0.5598 0.98622,-0.37553 1.54122,-0.93469 1.23333,-1.24258 z"
         id="path3003" />
      <path
         style="fill:#d7d7d7"
         d="m 97.747706,687.11218 c -1.215163,-17.9254 -1.417525,-21.55437 -1.476646,-26.48087 l -0.05677,-4.73087 -4.486061,0.61488 c -5.784229,0.79282 -7.521783,-0.60522 -7.488896,-6.02559 0.02658,-4.38064 0.958601,-5.8547 11.724957,-18.5438 3.603367,-4.24688 5.25,-7.06362 5.25,-8.98068 0,-1.5362 0.9,-3.60758 2,-4.60307 2.74318,-2.48255 2.50804,-3.5 -0.80887,-3.5 -5.706874,0 -6.595306,-1.71826 -6.77195,-13.09721 -0.103172,-6.64605 -0.562011,-10.4504 -1.289665,-10.69295 -1.712711,-0.57091 -1.346809,-4.34124 0.755953,-7.78953 1.969087,-3.22908 5.102482,-4.85304 11.364532,-5.88997 2.48569,-0.41161 3.75,-1.15269 3.75,-2.1981 0,-1.28851 0.2745,-1.34931 1.5,-0.33224 1.2285,1.01957 1.5,0.95124 1.5,-0.37756 0,-0.89234 0.45,-1.62244 1,-1.62244 0.55,0 1,1.19474 1,2.65499 0,2.59435 0.0458,2.61352 2.00613,0.83946 1.10337,-0.99854 2.33712,-1.48453 2.74167,-1.07998 0.40454,0.40454 -0.0859,1.19521 -1.08979,1.75704 -1.75504,0.98217 -1.74991,1.10441 0.13337,3.17499 3.68289,4.04918 4.33684,6.39729 3.59988,12.92582 -0.38665,3.42523 -1.98286,9.08213 -3.54713,12.5709 -2.99117,6.67114 -3.50341,9.63129 -1.84413,10.65678 0.55,0.33992 1,1.31421 1,2.1651 0,0.85088 1.07933,2.39606 2.39852,3.43374 3.14203,2.47152 5.26856,10.83294 3.73456,14.68415 -1.16888,2.93453 -4.13308,33.44138 -4.13308,42.53662 0,3.0593 0.45,5.84047 1,6.18039 1.09125,0.67443 1.36848,8.37617 0.39301,10.91821 -0.50378,1.31282 -2.522,1.58179 -11.86892,1.58179 l -11.261928,0 -0.728743,-10.75 z m 7.716584,-1.17349 c 0.4125,-0.0421 0.75,-0.49619 0.75,-1.00912 0,-1.4232 -4.06625,-2.40114 -5.21353,-1.25386 -1.395152,1.39515 -0.15508,3.08046 1.9675,2.67391 0.96031,-0.18393 2.08353,-0.36885 2.49603,-0.41093 z m 11.80725,-5.80561 c 0.38447,-0.42399 0.93044,-2.96909 1.21326,-5.65576 0.31491,-2.99157 0.17428,-4.34811 -0.36284,-3.5 -0.48237,0.76167 -0.88394,3.03998 -0.89236,5.0629 l -0.0153,3.67805 -5.75,0.63349 c -8.64891,0.95288 -9.6566,1.50625 -1.8209,0.99995 3.811,-0.24625 7.24367,-0.79463 7.62815,-1.21863 z m -15.05725,0.33609 c 0,-0.21616 -0.675,-0.65203 -1.5,-0.96862 -0.825003,-0.31658 -1.500003,-0.13972 -1.500003,0.39301 0,0.53274 0.675,0.96862 1.500003,0.96862 0.825,0 1.5,-0.17686 1.5,-0.39301 z m -3.275272,-12.83908 c -0.222561,-1.79735 -0.409249,-0.56791 -0.414862,2.73209 -0.0056,3.3 0.176483,4.77056 0.404657,3.26791 0.228174,-1.50265 0.232767,-4.20265 0.0102,-6 z m 20.569092,-4.71594 c 0.3681,-2.87759 0.24555,-3.93678 -0.34711,-3 -0.84548,1.33642 -1.40018,8.80272 -0.5843,7.8647 0.19933,-0.22917 0.61846,-2.41828 0.93141,-4.8647 z m -10.58112,1.98439 c -2.08302,-0.40351 -5.03264,-1.92676 -6.55472,-3.38501 -1.52208,-1.45824 -3.122873,-2.65135 -3.557315,-2.65135 -0.434443,0 1.095257,1.575 3.399335,3.5 2.9857,2.49448 5.09574,3.46696 7.34461,3.385 3.07484,-0.11206 3.0587,-0.13373 -0.63191,-0.84864 z m 7.75322,-5.9608 c 0.99729,-2.21158 2.20043,-3.78176 2.67366,-3.48929 0.47323,0.29247 0.86656,-0.73229 0.87407,-2.27725 0.007,-1.54496 0.24032,-3.93402 0.51735,-5.30902 0.27703,-1.375 -0.34025,-0.24474 -1.37175,2.51169 -1.0315,2.75643 -2.87245,6.96597 -4.09101,9.35454 -1.21855,2.38856 -1.81056,4.09254 -1.31556,3.78662 0.495,-0.30593 1.71596,-2.36571 2.71324,-4.57729 z m -11.28409,1.89394 c -3.32177,-2.02521 -4.14993,-5.82356 -1.12244,-5.14807 1.17886,0.26303 1.20593,0.0829 0.14897,-0.99164 -1.06561,-1.08329 -1.45667,-1.05204 -2.23469,0.17857 -0.51868,0.8204 -0.94994,2.02148 -0.95836,2.66906 -0.0178,1.36511 4.72363,5.32436 6.36955,5.31884 0.61332,-0.002 -0.37804,-0.9141 -2.20303,-2.02676 z m 9.25894,-3.84558 c 1.54468,-3.23184 2.56294,-6.49434 2.26281,-7.25 -0.35069,-0.88297 -0.58037,-0.65925 -0.64275,0.62608 -0.0534,1.1 -1.3996,4.3625 -2.99158,7.25 -1.59198,2.8875 -2.56657,5.25 -2.16575,5.25 0.40082,0 1.99259,-2.64424 3.53727,-5.87608 z m -14.690909,-2.70739 c -0.952958,-0.95296 -2.863492,0.5906 -2.153308,1.7397 0.422119,0.683 0.981465,0.66575 1.699645,-0.0524 0.588752,-0.58876 0.792902,-1.34803 0.453663,-1.68727 z m -10.749864,1.23846 c 0,-0.18976 -0.9,-1.1595 -2,-2.15499 -2.356568,-2.13267 -2.714434,-1.35729 -0.428571,0.92857 1.50129,1.50129 2.428571,1.96956 2.428571,1.22642 z m 2.662281,-2.90499 c -0.277413,-0.6875 -0.504386,-0.125 -0.504386,1.25 0,1.375 0.226973,1.9375 0.504386,1.25 0.277412,-0.6875 0.277412,-1.8125 0,-2.5 z m 5.337719,0.64301 c 0,-0.21616 -0.675,-0.39301 -1.5,-0.39301 -0.825,0 -1.5,0.43588 -1.5,0.96861 0,0.53274 0.675,0.7096 1.5,0.39302 0.825,-0.31659 1.5,-0.75246 1.5,-0.96862 z m 10.787763,-2.52972 c -0.24965,-0.74895 -0.70294,-0.29565 -1.05655,1.05655 -0.43497,1.66335 -0.30483,2.05378 0.43724,1.31171 0.5811,-0.5811 0.85979,-1.64682 0.61931,-2.36826 z m -1.66338,-1.21438 c 0.68741,-2.58993 0.55607,-2.79727 -1.43383,-2.26365 -1.2048,0.32309 -3.20305,0.59357 -4.44055,0.60108 -1.743927,0.0106 -2.250003,0.58954 -2.250003,2.57403 0,2.33996 0.317104,2.53364 3.683833,2.25 3.09354,-0.26064 3.80508,-0.76722 4.44055,-3.16146 z m -9.124383,0.73446 c 0,-0.21085 -0.9,-0.38337 -2,-0.38337 -1.1,0 -2,0.40787 -2,0.90638 0,0.49851 0.9,0.67102 2,0.38337 1.1,-0.28766 2,-0.69553 2,-0.90638 z m -10,-2.84877 c 0,-0.85709 0.818722,-1.19202 2.25,-0.92046 1.781716,0.33806 1.878833,0.26138 0.466627,-0.36841 -1.615834,-0.7206 -1.478247,-1.19232 1.464541,-5.02123 1.786353,-2.32425 4.002785,-4.4655 4.925403,-4.75832 0.922618,-0.29283 1.920586,-1.46203 2.217705,-2.59821 0.4679,-1.78926 0.145097,-1.68442 -2.411374,0.78312 -5.328624,5.14325 -13.130017,16.8372 -9.901448,14.84183 0.5437,-0.33602 0.988546,-1.21727 0.988546,-1.95832 z m 4.25,1.80312 c -0.6875,-0.27741 -1.8125,-0.27741 -2.5,0 -0.6875,0.27741 -0.125,0.50439 1.25,0.50439 1.375,0 1.9375,-0.22698 1.25,-0.50439 z m 2.75,-2.33772 c -1.281897,-0.82843 -1.245547,-0.9716 0.25,-0.98469 0.9625,-0.008 1.75,-0.68591 1.75,-1.50552 0,-1.25926 -0.302019,-1.23162 -1.948773,0.17838 -1.995147,1.70829 -1.868809,3.32386 0.25779,3.29652 0.715616,-0.009 0.592275,-0.40223 -0.309017,-0.98469 z m 24.929353,-2.22717 c 0.61874,-1.77495 0.71334,-2.78745 0.21022,-2.25 -1.06601,1.13871 -2.49557,5.47717 -1.80479,5.47717 0.25826,0 0.97582,-1.45223 1.59457,-3.22717 z m -16.11723,0.5024 c -2.83948,-0.29917 -3.785859,-0.89313 -4.113815,-2.58189 -0.351813,-1.81161 -0.449645,-1.71473 -0.562126,0.55666 -0.129462,2.6143 0.07354,2.7417 4.113821,2.5819 l 4.25,-0.16811 -3.68788,-0.38856 z m 7.10228,-3.77523 c 0.0302,-0.55 -0.38125,-0.325 -0.9144,0.5 -0.53316,0.825 -0.94464,2.175 -0.91441,3 0.058,1.58385 1.72468,-1.60578 1.82881,-3.5 z m -13.231289,-2.6875 c -0.319226,-0.79773 -0.556183,-0.56078 -0.604167,0.60417 -0.04342,1.05416 0.192928,1.64479 0.52522,1.3125 0.332291,-0.3323 0.367818,-1.1948 0.07895,-1.91667 z m 25.123759,-0.33896 c -0.30789,-0.30789 -0.86705,0.24711 -1.24258,1.23333 -0.54268,1.4252 -0.42782,1.54006 0.5598,0.5598 0.68341,-0.67834 0.99067,-1.48524 0.68278,-1.79313 z m -11.34015,-6.6452 c 0.37487,-0.73059 -0.0268,-0.45483 -0.89257,0.61279 -0.86578,1.06762 -1.53547,2.86762 -1.4882,4 0.069,1.65212 0.24531,1.53106 0.89256,-0.61279 0.44364,-1.46941 1.11333,-3.26941 1.48821,-4 z m 1.92298,2.67166 c 0.49007,-2.19092 0.39729,-2.59546 -0.34401,-1.5 -0.55829,0.825 -1.02196,2.3625 -1.03038,3.41667 -0.0204,2.55844 0.55192,1.76026 1.37439,-1.91667 z m 10.29962,-3.25 c -0.25152,-0.9625 -0.45732,-0.175 -0.45732,1.75 0,1.925 0.2058,2.7125 0.45732,1.75 0.25153,-0.9625 0.25153,-2.5375 0,-3.5 z m -16.12103,-4.93629 c 2.00387,-0.10245 5.25427,-0.95069 7.22309,-1.88496 3.56131,-1.68995 3.59157,-1.68485 5.89415,0.99205 1.27296,1.4799 2.31447,2.29407 2.31447,1.80928 0,-0.4848 -1.08446,-1.90025 -2.40991,-3.14544 -2.35702,-2.21431 -2.48937,-2.22627 -6.03176,-0.54529 -1.99203,0.94528 -5.36746,1.76446 -7.50094,1.8204 -3.56303,0.0934 -3.96781,0.3979 -4.96823,3.737 -0.59904,1.99941 -1.05782,4.25808 -1.01951,5.01927 0.0383,0.76119 0.69641,-0.64102 1.46245,-3.11602 1.29758,-4.19238 1.64186,-4.51274 5.03619,-4.68629 z m -2.27854,-4.31371 c 0.28765,-1.1 0.11514,-2 -0.38337,-2 -0.49851,0 -0.90638,0.9 -0.90638,2 0,1.1 0.17251,2 0.38337,2 0.21085,0 0.61872,-0.9 0.90638,-2 z m 2.71025,0.94098 c 0,-0.58246 0.45,-0.7809 1,-0.44098 0.55,0.33992 1,-0.0694 1,-0.9096 0,-0.91015 -0.57506,-1.30696 -1.42268,-0.9817 -1.68887,0.64808 -2.93938,3.3913 -1.54594,3.3913 0.53274,0 0.96862,-0.47656 0.96862,-1.05902 z m 6,-2.5 c 0,-0.79254 -0.45,-1.44098 -1,-1.44098 -0.55,0 -1,0.92656 -1,2.05902 0,1.13246 0.45,1.7809 1,1.44098 0.55,-0.33992 1,-1.26648 1,-2.05902 z m 3.34933,-1.97301 c -0.49949,-1.30165 -2.34933,-2.12822 -2.34933,-1.04976 0,1.48571 1.35191,3.48233 2.06111,3.04402 0.46835,-0.28945 0.59805,-1.18687 0.28822,-1.99426 z m -5.94611,-0.86309 c 2.39405,-1.0003 3.49024,-2.20305 3.87343,-4.25 0.29394,-1.57018 1.21411,-4.65488 2.04482,-6.85488 1.49538,-3.96026 1.48639,-4.00314 -0.90554,-4.31642 -2.57457,-0.3372 -3.39896,-2.18358 -0.97495,-2.18358 0.79254,0 1.71591,-0.44485 2.05194,-0.98855 0.36356,-0.58825 -0.0878,-0.72041 -1.11459,-0.32639 -1.26994,0.48732 -1.57212,0.26233 -1.14446,-0.85214 0.3196,-0.83286 0.17961,-2.14848 -0.31108,-2.9236 -0.67499,-1.06626 -0.89589,-0.85398 -0.90748,0.87206 -0.016,2.38928 -2.74776,4.1976 -3.86624,2.55933 -0.36892,-0.54037 -1.40441,-0.17164 -2.39907,0.85429 -1.6796,1.73238 -1.19525,2.25485 1.7877,1.9284 2.10902,-0.23082 1.40679,8.05262 -1.10244,13.00435 -2.64094,5.21164 -2.25774,5.66057 2.96796,3.47713 z m -3.52941,-8.36909 c 0.65126,-1.2169 0.50706,-2.36201 -0.46482,-3.69113 -0.77495,-1.05981 -1.40899,-1.67633 -1.40899,-1.37006 0,0.30627 -1.8,0.2277 -4,-0.1746 l -4.000003,-0.73145 0,3.2993 c 0,2.83158 0.38985,3.35836 2.75,3.7159 5.379033,0.81485 6.190773,0.69544 7.123813,-1.04796 z m -6.12381,0.0749 c -0.9625,-0.25152 -1.750003,-1.13062 -1.750003,-1.95355 0,-2.12994 4.392273,-1.31513 4.813113,0.89288 0.33859,1.7765 0.0537,1.87517 -3.06311,1.06067 z m -0.19615,-8.3978 c 0.36953,-0.59793 0.27983,-1.47919 -0.19935,-1.95836 -1.182676,-1.18268 -3.785618,0.53891 -2.923601,1.93369 0.873545,1.41342 2.257892,1.42436 3.122951,0.0247 z m 6.32913,-4.12558 c 1.36485,-3.68954 0.23226,-5.78729 -3.12461,-5.78729 -2.85114,0 -2.97492,0.16726 -2.36832,3.20029 0.97809,4.89042 4.09738,6.35952 5.49293,2.587 z m -4.15372,-1.05043 c -0.29932,-0.78003 -0.15459,-2.04866 0.32162,-2.81919 0.69222,-1.12003 1.11624,-1.15055 2.11462,-0.15217 0.99838,0.99838 0.93389,1.56368 -0.32162,2.81918 -1.3238,1.32381 -1.65585,1.34771 -2.11462,0.15218 z m -2.72926,0.26314 c 0,-0.55 -0.19844,-1 -0.440986,-1 -0.242541,0 -0.719098,0.45 -1.059017,1 -0.339919,0.55 -0.141476,1 0.440983,1 0.582459,0 1.05902,-0.45 1.05902,-1 z m -3.316889,-2.1875 c -0.319226,-0.79773 -0.556183,-0.56078 -0.604167,0.60417 -0.04342,1.05416 0.192928,1.64479 0.52522,1.3125 0.332291,-0.3323 0.367818,-1.1948 0.07895,-1.91667 z m 1.316886,-2.8125 c 0,-0.55 -0.198442,-1 -0.440983,-1 -0.242541,0 -0.719098,0.45 -1.059017,1 -0.339919,0.55 -0.141476,1 0.440983,1 0.582459,0 1.059017,-0.45 1.059017,-1 z m 11.381553,-2.55194 c 0.3415,-0.88992 0.17385,-1.29132 -0.39301,-0.94098 -0.5437,0.33602 -0.98854,1.0344 -0.98854,1.55194 0,1.43843 0.71676,1.12146 1.38155,-0.61096 z m -9.254,-1.19806 c 1.24387,-1.58606 1.2085,-1.62143 -0.377553,-0.37756 -0.9625,0.75485 -1.75,1.54235 -1.75,1.75 0,0.82304 0.821186,0.29331 2.127553,-1.37244 z m 4.254,0.19806 c 0.3415,-0.88992 0.17385,-1.29132 -0.39301,-0.94098 -0.5437,0.33602 -0.98854,1.0344 -0.98854,1.55194 0,1.43843 0.71676,1.12146 1.38155,-0.61096 z m -6.253998,-4.19806 c 1.243871,-1.58606 1.208501,-1.62143 -0.377555,-0.37756 -0.9625,0.75485 -1.75,1.54235 -1.75,1.75 0,0.82304 0.821186,0.29331 2.127555,-1.37244 z m 11.372448,-0.25 c -0.33992,-0.55 -1.15398,-0.99311 -1.80902,-0.98469 -0.71562,0.009 -0.59227,0.40223 0.30902,0.98469 1.92112,1.24152 2.2673,1.24152 1.5,0 z m -5.97354,-1.80687 c -0.30789,-0.30789 -1.1148,-6.4e-4 -1.79313,0.68278 -0.98027,0.98762 -0.8654,1.10248 0.5598,0.5598 0.98622,-0.37553 1.54122,-0.93469 1.23333,-1.24258 z"
         id="path3001" />
      <path
         style="fill:#cbcbcb"
         d="m 97.830503,684.11218 c -0.378421,-7.5625 -0.961434,-16.99504 -1.295584,-20.96121 l -0.607546,-7.2112 -4.342603,0.59522 c -5.585511,0.76558 -7.370483,-0.67559 -7.370483,-5.95086 0,-4.44116 1.446441,-6.74164 11.196994,-17.80813 3.804723,-4.31821 5.803009,-7.45704 5.803009,-9.11514 0,-1.39093 0.9,-3.67313 2,-5.07155 1.1,-1.39842 2,-2.7516 2,-3.00705 0,-0.25546 -1.77418,-0.74817 -3.94262,-1.09491 -2.168437,-0.34675 -4.261839,-1.14697 -4.652003,-1.77827 -0.390165,-0.6313 -0.820198,-5.67735 -0.955631,-11.21344 -0.152498,-6.23367 -0.665676,-10.20544 -1.347995,-10.43287 -3.017037,-1.00568 0.359793,-9.36877 4.665173,-11.55381 1.503186,-0.76289 4.847216,-1.69458 7.431166,-2.07042 3.84036,-0.55858 4.58941,-0.99307 4.10282,-2.37985 -0.48515,-1.38268 -0.34606,-1.46528 0.75191,-0.44651 1.83386,1.70158 3.00887,1.57434 2.3088,-0.25 -0.31658,-0.825 -0.0775,-1.5 0.53139,-1.5 0.60884,0 1.10699,1.19474 1.10699,2.65499 0,2.59435 0.0458,2.61352 2.00613,0.83946 1.10337,-0.99854 2.33712,-1.48453 2.74167,-1.07998 0.40454,0.40454 -0.0859,1.19521 -1.08979,1.75704 -1.75504,0.98217 -1.74991,1.10441 0.13337,3.17499 3.68289,4.04918 4.33684,6.39729 3.59988,12.92582 -0.38665,3.42523 -1.98286,9.08213 -3.54713,12.5709 -2.99117,6.67114 -3.50341,9.63129 -1.84413,10.65678 0.55,0.33992 1,1.49148 1,2.55902 0,1.06754 0.43962,1.94098 0.97694,1.94098 3.08855,0 6.80586,11.62534 5.09441,15.932 -1.12138,2.82184 -4.07135,33.53452 -4.07135,42.38761 0,3.0593 0.45,5.84047 1,6.18039 1.09125,0.67443 1.36848,8.37617 0.39301,10.91821 -0.50368,1.31258 -2.52015,1.58179 -11.84788,1.58179 l -11.240879,0 -0.688038,-13.75 z m 7.633787,1.82651 c 0.4125,-0.0421 0.75,-0.49619 0.75,-1.00912 0,-1.4232 -4.06625,-2.40114 -5.21353,-1.25386 -1.395152,1.39515 -0.15508,3.08046 1.9675,2.67391 0.96031,-0.18393 2.08353,-0.36885 2.49603,-0.41093 z m 7.98316,-4.69499 4.51231,-0.61848 1.15873,-14.13152 c 0.6373,-7.77234 1.35488,-15.70652 1.59462,-17.63152 l 0.43588,-3.5 -1.0719,3 c -0.58954,1.65 -2.44147,6.0375 -4.11539,9.75 -2.86994,6.36509 -3.23265,6.75 -6.36065,6.75 -2.25979,0 -4.40632,-0.95628 -6.73398,-3 -1.87925,-1.65 -3.694906,-3 -4.034798,-3 -0.795194,0 -0.783591,13.3652 0.0158,18.20032 0.775762,4.6922 4.043448,5.62805 14.599378,4.1812 z m -11.36841,-0.99944 c -1.98834,-0.58915 -2.864753,-4.5592 -2.864753,-12.97694 l 0,-6.34487 3.639543,2.46987 c 2.02868,1.3767 5.08195,2.46986 6.89846,2.46986 2.75522,0 3.66499,-0.65688 5.88625,-4.25 l 2.62733,-4.25 -0.64451,11 c -0.35448,6.05 -0.72867,11.10008 -0.83153,11.2224 -0.44273,0.5265 -13.22567,1.09972 -14.71079,0.65968 z m 12.12085,-22.35356 c 1.65792,-3.28432 3.0144,-6.70647 3.0144,-7.60478 0,-0.89831 1.14381,-3.91056 2.5418,-6.69389 1.39798,-2.78334 2.7367,-7.12369 2.97492,-9.64523 l 0.43313,-4.58462 -0.89157,4 c -0.49036,2.2 -2.04968,6.475 -3.46516,9.5 -1.41547,3.025 -2.57798,6.09037 -2.58335,6.81192 -0.0198,2.66212 -5.20331,12.18808 -6.63205,12.18808 -2.92567,0 -7.50932,-3.08059 -7.15366,-4.80784 0.19248,-0.93474 1.09618,-1.56508 2.01897,-1.40825 2.13261,0.36245 4.75491,-4.58376 4.76313,-8.98425 0.003,-1.81481 0.60359,-4.44443 1.33378,-5.84359 1.9537,-3.74357 2.76639,-8.77232 1.54017,-9.53016 -1.49015,-0.92097 -2.89574,0.77781 -3.89034,4.70183 -1.93365,7.62886 -2.00822,8.21777 -0.61693,4.87226 0.80054,-1.925 1.72772,-4.7375 2.0604,-6.25 0.33267,-1.5125 1.03504,-2.75 1.56081,-2.75 1.17589,0 0.16586,5.46875 -1.65411,8.95607 -0.73019,1.39916 -1.33703,3.89393 -1.34852,5.54393 -0.0282,4.04182 -2.2265,8.06419 -4.22113,7.72356 -0.92063,-0.15721 -1.90592,0.62841 -2.28465,1.82167 -0.84225,2.6537 1.75637,5.66696 5.93302,6.87969 1.69474,0.49209 3.18736,0.93529 3.31694,0.98489 0.12958,0.0496 1.59208,-2.59698 3.25,-5.88129 z m -14.235739,-3.61199 c -0.952958,-0.95296 -2.863492,0.5906 -2.153308,1.7397 0.422119,0.683 0.981465,0.66575 1.699645,-0.0524 0.588752,-0.58876 0.792902,-1.34803 0.453663,-1.68727 z m -7.749864,-2.12933 c 0,-2.58722 -0.413317,-3.2872 -1.940983,-3.2872 -1.067541,0 -2.248674,-0.49785 -2.62474,-1.10634 -0.479536,-0.77591 0.622868,-0.92891 3.690983,-0.51229 3.011749,0.40898 3.907401,0.2911 2.87474,-0.37834 -1.331539,-0.8632 -1.330686,-0.97412 0.0076,-0.98772 1.045691,-0.0106 1.989283,-2.15423 3.079759,-6.99647 1.285732,-5.70926 1.321604,-6.77321 0.196895,-5.83978 -0.756398,0.62775 -1.152707,1.72135 -0.880688,2.43023 0.299525,0.78055 -0.04231,1.08283 -0.866741,0.76647 -1.75699,-0.67422 -9.311116,9.24571 -10.119798,13.28912 -0.696224,3.48112 1.437588,6.2971 4.591606,6.05952 1.554204,-0.11708 1.991367,-0.87164 1.991367,-3.4372 z m -4.724247,1.58855 c -1.470467,-1.47046 -0.402338,-4.86156 1.322783,-4.19957 1.524804,0.58513 1.91723,3.88702 0.561545,4.72488 -0.461955,0.28551 -1.309903,0.0491 -1.884328,-0.52531 z m 1.523873,-9.47789 c 0.565544,-1.04382 2.474378,-3.24786 4.241854,-4.89786 l 3.213593,-3 -0.716721,4 c -0.859605,4.79743 -0.455357,4.3334 -4.475587,5.13745 -3.008595,0.60172 -3.20305,0.49521 -2.263139,-1.23959 z m 8.200374,8.99515 c 0,-0.21616 -0.675,-0.39301 -1.5,-0.39301 -0.825,0 -1.5,0.43588 -1.5,0.96861 0,0.53274 0.675,0.7096 1.5,0.39302 0.825,-0.31659 1.5,-0.75246 1.5,-0.96862 z m 9.124383,-3.7441 c 0.6874,-2.58993 0.55607,-2.79727 -1.43383,-2.26365 -1.2048,0.32309 -3.20305,0.59357 -4.44055,0.60108 -1.743927,0.0106 -2.250003,0.58954 -2.250003,2.57403 0,2.33996 0.317104,2.53364 3.683833,2.25 3.09354,-0.26064 3.80508,-0.76722 4.44055,-3.16146 z m -9.971164,0.10431 c -1.035102,-1.0351 -3.153219,-0.22085 -3.153219,1.21218 0,0.46605 0.929739,0.60423 2.066087,0.30707 1.347779,-0.35246 1.725738,-0.88065 1.087132,-1.51925 z m 7.096784,-4.48543 c -2.3375,-0.21053 -4.249635,-0.69441 -4.249185,-1.07529 0.0016,-1.33938 3.104945,-15.55461 3.554605,-16.28217 0.25028,-0.40497 2.3652,-1.05367 4.69982,-1.44157 2.33462,-0.38789 5.45991,-1.32704 6.9451,-2.08701 3.52293,-1.80267 3.28324,-1.88144 5.68461,1.86825 1.18514,1.85058 2.08861,2.57766 2.0982,1.68856 0.0172,-1.59246 -3.48291,-5.94357 -4.77211,-5.9324 -0.39107,0.003 -2.06104,0.714 -3.71104,1.57914 -1.65,0.86514 -4.88529,1.64905 -7.18953,1.74202 -4.59142,0.18525 -4.56268,0.13525 -7.284611,12.67268 -1.702521,7.84194 -1.616952,8.02174 3.724141,7.82529 l 4.75,-0.1747 -4.25,-0.3828 z m 1.03975,-23.26779 c 0.28765,-1.1 0.11514,-2 -0.38337,-2 -0.49851,0 -0.90638,0.9 -0.90638,2 0,1.1 0.17251,2 0.38337,2 0.21085,0 0.61872,-0.9 0.90638,-2 z m 4.76065,1 c 0.48775,0 0.63871,-0.64659 0.33545,-1.43686 -0.65885,-1.71695 -2.99303,-1.02919 -3.81987,1.12552 -0.42199,1.09966 -0.13757,1.36092 1.00446,0.92268 0.87622,-0.33624 1.9922,-0.61134 2.47996,-0.61134 z m 3.9496,-2.55902 c 0,-0.79254 -0.45,-1.44098 -1,-1.44098 -0.55,0 -1,0.92656 -1,2.05902 0,1.13246 0.45,1.7809 1,1.44098 0.55,-0.33992 1,-1.26648 1,-2.05902 z m 3.34933,-1.97301 c -0.49949,-1.30165 -2.34933,-2.12822 -2.34933,-1.04976 0,1.48571 1.35191,3.48233 2.06111,3.04402 0.46835,-0.28945 0.59805,-1.18687 0.28822,-1.99426 z m -5.41842,-0.93225 c 1.75901,-0.90961 3.0302,-2.51948 3.35589,-4.25 0.28836,-1.53214 1.20396,-4.58572 2.03467,-6.78572 1.49538,-3.96026 1.48639,-4.00314 -0.90554,-4.31642 -1.32876,-0.17404 -2.41593,-0.75626 -2.41593,-1.29384 0,-0.53758 0.74081,-0.84519 1.64625,-0.68358 0.90544,0.16161 1.84305,-0.26897 2.08356,-0.95684 0.26703,-0.76368 -0.13064,-1.03274 -1.02125,-0.69098 -1.04223,0.39994 -1.45856,-0.16553 -1.45856,-1.98108 0,-1.39743 0.39375,-2.29744 0.875,-2.00001 1.36202,0.84178 1.02865,-0.20484 -0.45834,-1.43893 -0.98765,-0.81968 -1.36135,-0.78661 -1.44139,0.12756 -0.31613,3.61021 -1.08219,5.26692 -2.56975,5.55744 -0.91054,0.17783 -1.65552,-0.15967 -1.65552,-0.75 0,-0.59032 -0.81226,-0.28582 -1.80501,0.67668 -1.79791,1.74312 -0.97034,3.48476 1.25083,2.63242 2.24218,-0.86041 1.56665,7.65945 -1.01056,12.74533 -2.74339,5.41382 -1.92539,6.21131 3.49565,3.40797 z m -4.0571,-8.29993 c 0.65126,-1.2169 0.50706,-2.36201 -0.46482,-3.69113 -0.77495,-1.05981 -1.40899,-1.67633 -1.40899,-1.37006 0,0.30627 -1.8,0.2277 -4,-0.1746 l -4.000003,-0.73145 0,3.2993 c 0,2.83158 0.38985,3.35836 2.75,3.7159 5.379033,0.81485 6.190773,0.69544 7.123813,-1.04796 z m -6.43111,-0.65403 c -2.289531,-1.67414 -1.100494,-3.48645 1.29574,-1.97495 1.87257,1.18119 2.8739,3.39319 1.53602,3.39319 -0.49071,0 -1.76501,-0.63821 -2.83176,-1.41824 z m 0.11115,-7.66889 c 0.36953,-0.59793 0.27983,-1.47919 -0.19935,-1.95836 -1.182676,-1.18268 -3.785618,0.53891 -2.923601,1.93369 0.873545,1.41342 2.257892,1.42436 3.122951,0.0247 z m 6.44284,-4.40419 c 1.37501,-3.61655 0.26602,-5.50868 -3.22868,-5.50868 -2.86199,0 -2.98492,0.16545 -2.37796,3.20029 1.01483,5.07414 4.07593,6.33447 5.60664,2.30839 z m -4.42667,-1.39537 c -0.3014,-0.48768 0.082,-1.40954 0.85196,-2.04856 1.55873,-1.29363 3.15488,0.19285 2.07802,1.93525 -0.76521,1.23812 -2.2005,1.29363 -2.92998,0.11331 z m -1.57002,1.44571 c 0,-1.05548 -1.919116,-1.49891 -2.489922,-0.57533 -0.345463,0.55897 0.07344,1.01631 0.930902,1.01631 0.85746,0 1.55902,-0.19844 1.55902,-0.44098 z m 18.80687,-2.08548 c -0.30789,-0.30789 -0.86705,0.24711 -1.24258,1.23333 -0.54268,1.4252 -0.42782,1.54006 0.5598,0.5598 0.68341,-0.67834 0.99067,-1.48524 0.68278,-1.79313 z m -23.123759,-0.66104 c -0.319226,-0.79773 -0.556183,-0.56078 -0.604167,0.60417 -0.04342,1.05416 0.192928,1.64479 0.52522,1.3125 0.332291,-0.3323 0.367818,-1.1948 0.07895,-1.91667 z m 1.316886,-2.8125 c 0,-0.55 -0.198442,-1 -0.440983,-1 -0.242541,0 -0.719098,0.45 -1.059017,1 -0.339919,0.55 -0.141476,1 0.440983,1 0.582459,0 1.059017,-0.45 1.059017,-1 z m 11.381553,-2.55194 c 0.3415,-0.88992 0.17385,-1.29132 -0.39301,-0.94098 -0.5437,0.33602 -0.98854,1.0344 -0.98854,1.55194 0,1.43843 0.71676,1.12146 1.38155,-0.61096 z m -9.254,-1.19806 c 1.24387,-1.58606 1.2085,-1.62143 -0.377553,-0.37756 -0.9625,0.75485 -1.75,1.54235 -1.75,1.75 0,0.82304 0.821186,0.29331 2.127553,-1.37244 z m 5.49589,-3.00476 c 0.11054,-0.69012 -0.21685,-0.99653 -0.72754,-0.68091 -0.51069,0.31563 -0.68885,0.96168 -0.3959,1.43567 0.29294,0.47399 0.0753,1.14445 -0.48369,1.48992 -0.55897,0.34546 -1.00263,1.16406 -0.9859,1.8191 0.0349,1.36531 2.28935,-2.16792 2.59303,-4.06378 z m -7.495888,-0.99524 c 1.243871,-1.58606 1.208501,-1.62143 -0.377555,-0.37756 -0.9625,0.75485 -1.75,1.54235 -1.75,1.75 0,0.82304 0.821186,0.29331 2.127555,-1.37244 z m 11.372448,-0.25 c -0.33992,-0.55 -1.15398,-0.99311 -1.80902,-0.98469 -0.71562,0.009 -0.59227,0.40223 0.30902,0.98469 1.92112,1.24152 2.2673,1.24152 1.5,0 z m -5.97354,-1.80687 c -0.30789,-0.30789 -1.1148,-6.4e-4 -1.79313,0.68278 -0.98027,0.98762 -0.8654,1.10248 0.5598,0.5598 0.98622,-0.37553 1.54122,-0.93469 1.23333,-1.24258 z"
         id="path2999" />
      <path
         style="fill:#9f9f9f"
         d="m 98.761113,696.61218 c -0.214722,-0.6875 -0.663208,-6.875 -0.996635,-13.75 -0.333428,-6.875 -0.87916,-15.74559 -1.212739,-19.71243 l -0.606506,-7.21243 -4.351534,0.59644 c -5.595147,0.7669 -7.379412,-0.67166 -7.379412,-5.94963 0,-4.44116 1.446441,-6.74164 11.196994,-17.80813 3.804723,-4.31821 5.803009,-7.45704 5.803009,-9.11514 0,-1.39093 0.9,-3.67313 2,-5.07155 1.1,-1.39842 2,-2.7516 2,-3.00705 0,-0.25546 -1.81722,-0.75505 -4.03827,-1.11021 -2.221048,-0.35516 -4.217571,-1.20017 -4.436717,-1.87781 -0.219147,-0.67763 -0.635646,-5.72663 -0.925552,-11.22 -0.291632,-5.52605 -0.989994,-10.14224 -1.563284,-10.33333 -1.659173,-0.55306 -1.201141,-4.17575 0.972663,-7.69304 2.167678,-3.50738 5.07201,-4.99431 11.74541,-6.01331 2.50664,-0.38276 3.99566,-1.06801 3.62477,-1.66813 -0.39532,-0.63963 0.15876,-0.76834 1.48946,-0.34599 1.656,0.52559 1.9877,0.33052 1.51824,-0.89287 -0.33039,-0.86096 -0.10256,-1.56539 0.50629,-1.56539 0.60884,0 1.10699,1.19474 1.10699,2.65499 0,2.59435 0.0458,2.61352 2.00613,0.83946 1.10337,-0.99854 2.33712,-1.48453 2.74167,-1.07998 0.40454,0.40454 -0.0859,1.19521 -1.08979,1.75704 -1.74994,0.97932 -1.74203,1.11042 0.19172,3.17499 1.10937,1.18443 2.46907,3.34678 3.02154,4.80523 1.56472,4.13062 0.13779,13.70944 -3.02037,20.27548 -2.94284,6.11836 -3.59122,9.99722 -1.8509,11.07279 0.55,0.33992 1,1.5056 1,2.5904 0,1.0848 0.69164,2.23778 1.53698,2.56217 2.27517,0.87306 4.50241,5.81512 4.54779,10.09119 0.0219,2.06593 -0.67267,9.15624 -1.54355,15.75624 -1.76885,13.40524 -2.4187,36.53946 -1.14428,40.73604 0.45698,1.50483 0.53422,4.31733 0.17165,6.25 l -0.65922,3.51396 -10.98607,0 c -7.91398,0 -11.095243,-0.34954 -11.376477,-1.25 z m 6.953177,-10.69841 c 1.8722,-0.75622 1.82254,-0.89058 -0.77713,-2.10259 -2.95684,-1.37854 -5.594012,-0.16755 -4.27672,1.96387 0.77171,1.24866 2.2083,1.28809 5.05385,0.13872 z m 9,-4.89836 c 2.82015,-0.51574 3.92413,-1.18911 3.74278,-2.28289 -0.14147,-0.85327 0.37469,-8.48565 1.14702,-16.96086 0.77233,-8.47522 1.25221,-15.57035 1.0664,-15.76697 -0.18581,-0.19661 -1.04679,2.05339 -1.91329,5 -4.0969,13.93192 -8.74832,16.86969 -16.48105,10.40918 -4.163705,-3.47868 -5.684363,-4.36793 -4.674132,-2.73335 0.278171,0.45009 0.586084,5.12722 0.684252,10.39362 0.09817,5.2664 0.459632,10.00567 0.803252,10.53171 1.432298,2.19267 8.068828,2.79137 15.624768,1.40956 z m -0.91049,-22.32987 c 1.44276,-2.84715 3.29082,-7.42477 4.10681,-10.17249 0.81598,-2.74771 2.13258,-5.9863 2.92577,-7.19687 2.47885,-3.78319 2.8992,-11.76293 0.80629,-15.30594 -2.37972,-4.02856 -3.88443,-4.50002 -8.05139,-2.52267 -1.89229,0.89796 -5.19614,1.67868 -7.34189,1.73494 -3.88657,0.10191 -3.90764,0.12469 -5.55882,6.00945 -0.911605,3.24893 -1.90024,8.16545 -2.196967,10.92559 -0.477689,4.44344 -0.343358,4.94318 1.172377,4.36154 0.94154,-0.3613 2.94001,-0.65691 4.44104,-0.65691 2.46383,0 2.85307,-0.51043 4.00361,-5.25 2.00113,-8.24355 2.18322,-8.75 3.14605,-8.75 1.13057,0 0.0759,5.54858 -1.70245,8.95607 -0.73019,1.39916 -1.33703,3.89393 -1.34852,5.54393 -0.0282,4.04182 -2.2265,8.06419 -4.22113,7.72356 -1.76456,-0.30133 -3.31761,3.08184 -2.22573,4.84854 0.9062,1.46627 6.64871,4.91949 8.18859,4.92416 0.67824,0.002 2.4136,-2.32575 3.85636,-5.1729 z m -13.839649,-4.40683 c -0.952958,-0.95296 -2.863492,0.5906 -2.153308,1.7397 0.422119,0.683 0.981465,0.66575 1.699645,-0.0524 0.588752,-0.58876 0.792902,-1.34803 0.453663,-1.68727 z m -7.749864,-1.91653 c 0,-2.83333 -0.380952,-3.5 -2,-3.5 -1.1,0 -2,-0.47829 -2,-1.06286 0,-0.58457 0.7875,-0.98725 1.75,-0.89483 4.59089,0.44078 6.047031,-1.07477 7.577861,-7.88701 0.822559,-3.66042 1.338035,-6.81506 1.145503,-7.01031 -1.135893,-1.15198 -13.473364,15.41912 -13.473364,18.09677 0,3.27926 1.952445,5.75824 4.535184,5.75824 2.150266,0 2.464816,-0.44666 2.464816,-3.5 z m 5,0.89301 c 0,-0.21616 -0.926558,-0.39301 -2.059017,-0.39301 -1.132459,0 -1.793048,0.43035 -1.467975,0.95633 0.533614,0.8634 3.526992,0.38531 3.526992,-0.56332 z m 9.124383,-3.7441 c 0.6874,-2.58993 0.55607,-2.79727 -1.43383,-2.26365 -1.2048,0.32309 -3.20305,0.59357 -4.44055,0.60108 -1.743927,0.0106 -2.250003,0.58954 -2.250003,2.57403 0,2.33996 0.317104,2.53364 3.683833,2.25 3.09354,-0.26064 3.80508,-0.76722 4.44055,-3.16146 z m -9.124383,0.16113 c 0,-1.32759 -3.245366,-0.57706 -3.724238,0.86127 -0.248071,0.74511 0.358555,0.97557 1.667133,0.63337 1.131408,-0.29587 2.057105,-0.96845 2.057105,-1.49464 z m -0.75,-2.47232 c -0.6875,-0.27741 -1.8125,-0.27741 -2.5,0 -0.6875,0.27741 -0.125,0.50439 1.25,0.50439 1.375,0 1.9375,-0.22698 1.25,-0.50439 z m 8.734683,-26.58772 c 0.008,-0.4125 -0.43468,-0.75 -0.98468,-0.75 -0.55,0 -0.99311,1.0125 -0.98469,2.25 0.0124,1.81944 0.20081,1.96296 0.98469,0.75 0.53315,-0.825 0.97626,-1.8375 0.98468,-2.25 z m 4.06572,2.25 c 0.48775,0 0.63871,-0.64659 0.33545,-1.43686 -0.65885,-1.71695 -2.99303,-1.02919 -3.81987,1.12552 -0.42199,1.09966 -0.13757,1.36092 1.00446,0.92268 0.87622,-0.33624 1.9922,-0.61134 2.47996,-0.61134 z m 3.9496,-2.55902 c 0,-0.79254 -0.45,-1.44098 -1,-1.44098 -0.55,0 -1,0.92656 -1,2.05902 0,1.13246 0.45,1.7809 1,1.44098 0.55,-0.33992 1,-1.26648 1,-2.05902 z m 3.34933,-1.97301 c -0.49949,-1.30165 -2.34933,-2.12822 -2.34933,-1.04976 0,1.48571 1.35191,3.48233 2.06111,3.04402 0.46835,-0.28945 0.59805,-1.18687 0.28822,-1.99426 z m -5.29967,-0.99365 c 1.79279,-0.92709 2.95034,-2.31978 2.95034,-3.54966 0,-1.11319 0.61799,-3.23913 1.37331,-4.72432 0.75533,-1.48519 1.68565,-3.71284 2.06739,-4.95034 0.59515,-1.92931 0.32815,-2.25 -1.87331,-2.25 -1.41207,0 -2.56739,-0.46973 -2.56739,-1.04384 0,-0.57411 0.74081,-0.91161 1.64625,-0.75 0.90544,0.16161 1.84305,-0.26897 2.08356,-0.95684 0.26703,-0.76368 -0.13064,-1.03274 -1.02125,-0.69098 -1.04223,0.39994 -1.45856,-0.16553 -1.45856,-1.98108 0,-1.61464 0.41007,-2.29521 1.125,-1.86706 0.61875,0.37054 0.49837,-0.0985 -0.2675,-1.04241 -1.66877,-2.05659 -1.87122,-1.92128 -2.33775,1.56246 -0.45405,3.39048 -1.36751,4.32749 -2.99559,3.07281 -0.88718,-0.68371 -1.80566,-0.42328 -3.02416,0.8575 -0.9625,1.01169 -1.3,1.89569 -0.75,1.96444 0.55,0.0688 1.51449,0.18125 2.14331,0.25 2.35528,0.2575 1.99514,7.41826 -0.63402,12.60666 -2.83197,5.58863 -2.03438,6.37547 3.54037,3.49266 z m -4.17585,-8.23853 c 1.46069,-2.72933 -0.84178,-4.9273 -5.64102,-5.38498 -4.181808,-0.3988 -4.232793,-0.365 -4.232793,2.80634 0,2.73417 0.40765,3.27176 2.75,3.6266 5.379033,0.81485 6.190773,0.69544 7.123813,-1.04796 z m -6.43111,-0.65403 c -2.289531,-1.67414 -1.100494,-3.48645 1.29574,-1.97495 1.87257,1.18119 2.8739,3.39319 1.53602,3.39319 -0.49071,0 -1.76501,-0.63821 -2.83176,-1.41824 z m 0.11115,-7.66889 c 0.36953,-0.59793 0.27983,-1.47919 -0.19935,-1.95836 -1.182676,-1.18268 -3.785618,0.53891 -2.923601,1.93369 0.873545,1.41342 2.257892,1.42436 3.122951,0.0247 z m 6.49482,-4.54088 c 1.32493,-3.48484 0.17245,-5.37199 -3.28066,-5.37199 -2.88642,0 -2.98652,0.14171 -2.29579,3.25 0.39722,1.7875 0.75347,3.75076 0.79167,4.3628 0.12185,1.95269 3.85514,0.20431 4.78478,-2.24081 z m -4.47865,-1.25868 c -0.3014,-0.48768 0.082,-1.40954 0.85196,-2.04856 1.55873,-1.29363 3.15488,0.19285 2.07802,1.93525 -0.76521,1.23812 -2.2005,1.29363 -2.92998,0.11331 z m -1.57002,1.44571 c 0,-1.05548 -1.919116,-1.49891 -2.489922,-0.57533 -0.345463,0.55897 0.07344,1.01631 0.930902,1.01631 0.85746,0 1.55902,-0.19844 1.55902,-0.44098 z m 18.78776,-2.69573 c -0.24965,-0.74895 -0.70294,-0.29565 -1.05655,1.05655 -0.43497,1.66335 -0.30483,2.05378 0.43724,1.31171 0.5811,-0.5811 0.85979,-1.64682 0.61931,-2.36826 z m -23.104649,-0.0508 c -0.319226,-0.79773 -0.556183,-0.56078 -0.604167,0.60417 -0.04342,1.05416 0.192928,1.64479 0.52522,1.3125 0.332291,-0.3323 0.367818,-1.1948 0.07895,-1.91667 z m 1.316886,-2.8125 c 0,-0.55 -0.198442,-1 -0.440983,-1 -0.242541,0 -0.719098,0.45 -1.059017,1 -0.339919,0.55 -0.141476,1 0.440983,1 0.582459,0 1.059017,-0.45 1.059017,-1 z m 8.036043,-3.97593 c 0.56769,0.89772 0.93933,1.00935 0.94864,0.28495 0.008,-0.65504 -0.44202,-1.47364 -1.00099,-1.8191 -0.55898,-0.34547 -0.77481,-1.01889 -0.47963,-1.49649 0.57843,-0.93592 -4.61469,-0.25852 -5.48154,0.71503 -0.287386,0.32276 0.48953,0.33764 1.72648,0.0331 2.36871,-0.58325 4.00204,0.67626 2.26731,1.74838 -0.55897,0.34547 -0.98779,1.38906 -0.95293,2.3191 0.0421,1.12194 0.39585,0.8578 1.05136,-0.78494 0.80678,-2.02188 1.15912,-2.20527 1.9213,-1 z m 3.93333,-0.52407 c 0,-0.55 -0.43622,-0.325 -0.96937,0.5 -0.53316,0.825 -0.96938,1.95 -0.96938,2.5 0,0.55 0.43622,0.325 0.96938,-0.5 0.53315,-0.825 0.96937,-1.95 0.96937,-2.5 z m -8.7256,1.81267 c -0.69093,-0.26592 -0.94205,-1.00756 -0.55805,-1.64808 0.38401,-0.64053 -0.0632,-0.54699 -0.993765,0.20785 -2.122639,1.7218 -2.135477,1.68009 0.558045,1.81284 1.2375,0.061 1.68469,-0.10669 0.99377,-0.37261 z m -3.116218,-5.06267 c 1.243871,-1.58606 1.208501,-1.62143 -0.377555,-0.37756 -0.9625,0.75485 -1.75,1.54235 -1.75,1.75 0,0.82304 0.821186,0.29331 2.127555,-1.37244 z m 11.372448,-0.25 c -0.33992,-0.55 -1.15398,-0.99311 -1.80902,-0.98469 -0.71562,0.009 -0.59227,0.40223 0.30902,0.98469 1.92112,1.24152 2.2673,1.24152 1.5,0 z m -5.36329,-1.78776 c -0.72144,-0.24048 -1.78716,0.0382 -2.36826,0.61931 -0.74207,0.74207 -0.35164,0.87221 1.31171,0.43724 1.3522,-0.35361 1.80549,-0.8069 1.05655,-1.05655 z"
         id="path2997" />
      <path
         style="fill:#7b7b7b"
         d="m 99.096413,695.11218 c -0.06483,-1.5125 -0.235559,-4.1 -0.379397,-5.75 -0.143838,-1.65 -0.491292,-7.725 -0.772121,-13.5 -0.295864,-6.08421 -0.241446,-7.4844 0.129398,-3.32943 0.351997,3.94381 0.978014,7.50683 1.391151,7.91782 2.473336,2.46049 19.546626,1.03701 18.947646,-1.57976 -0.26088,-1.13967 0.33715,-8.7821 2.30908,-29.50863 l 0.4757,-5 -2.44513,6.80647 c -5.4528,15.17884 -8.58661,16.76358 -17.87312,9.03827 -1.559075,-1.29696 -3.323047,-2.05628 -3.919944,-1.68738 -0.694839,0.42943 -0.851141,0.0606 -0.43447,-1.02522 0.577305,-1.50443 0.08908,-1.62143 -4.323427,-1.03609 -6.242425,0.82808 -7.987492,-0.44216 -7.987492,-5.81412 0,-4.51674 1.391117,-6.75744 10.668228,-17.18352 4.319418,-4.85437 6.318635,-7.92514 6.323965,-9.71355 0.004,-1.43833 0.90781,-3.75931 2.00781,-5.15773 2.78081,-3.53523 2.53088,-4.20878 -1.61463,-4.35132 -4.420181,-0.15198 -5.322309,-1.45122 -5.4686,-7.87581 -0.06262,-2.75 -0.211439,-5.9 -0.330713,-7 -0.119273,-1.1 -0.29993,-3.71406 -0.40146,-5.80902 -0.108873,-2.24646 -0.594824,-3.55548 -1.1846,-3.19098 -1.728815,1.06847 -1.087274,-3.62272 0.945144,-6.91124 1.841501,-2.97961 8.478529,-6.49842 9.787709,-5.18924 0.32072,0.32072 1.26021,0.0245 2.08776,-0.6582 1.19886,-0.98906 1.59013,-0.9873 1.92534,0.009 0.23139,0.6875 1.39571,1.21448 2.58738,1.17106 1.19167,-0.0435 1.60417,-0.30595 0.91667,-0.58336 -0.6875,-0.27741 -1.25,-1.12776 -1.25,-1.88967 0,-0.88121 0.6055,-1.15293 1.66404,-0.74673 1.07081,0.41091 1.4215,0.2461 0.98369,-0.46228 -0.3742,-0.60547 -0.15777,-1.42382 0.48094,-1.81857 0.81033,-0.50081 1.00828,0.0828 0.65499,1.93091 -0.59415,3.1081 -0.47999,3.15098 2.75152,1.03361 1.35565,-0.88826 2.46482,-1.1614 2.46482,-0.60699 0,0.55441 -0.74241,1.29291 -1.6498,1.64111 -1.48349,0.56927 -1.44705,0.85727 0.36148,2.85699 4.82668,5.33694 4.81066,15.79343 -0.0393,25.66105 -2.77797,5.65199 -3.38765,9.50276 -1.67238,10.56285 0.55,0.33992 1.00777,1.37898 1.01727,2.30902 0.01,0.93004 1.07969,2.69796 2.3782,3.92871 2.89279,2.74185 5.09465,10.59557 3.66029,13.05576 -0.77018,1.32099 -1.00181,0.71658 -1.02535,-2.67546 -0.0334,-4.81316 -3.24403,-11.11803 -5.66163,-11.11803 -0.80746,0 -2.8215,0.69987 -4.47565,1.55526 -1.65416,0.8554 -4.7408,1.62439 -6.85921,1.70886 -3.49352,0.13932 -3.9512,0.48287 -4.92211,3.69474 -2.160695,7.14783 -3.10079,11.61676 -3.106236,14.76614 -0.006,3.45084 -0.154364,3.41723 8.117416,1.83844 1.3223,-0.25238 1.53464,0.3615 1.1461,3.31339 -0.55963,4.25175 -1.88991,6.20591 -3.74106,5.49555 -1.78672,-0.68563 -2.84359,1.24831 -2.15012,3.93445 0.56342,2.18243 5.57166,5.69317 8.12157,5.69317 1.84545,0 4.93573,-5.32709 7.30112,-12.58584 1.09075,-3.34721 2.92183,-7.84721 4.06906,-10 l 2.08589,-3.91416 -0.38989,5.5 c -0.21443,3.025 -0.93149,11.82771 -1.59345,19.56157 -1.12232,13.11223 -1.05493,16.20254 0.59047,27.07765 0.36491,2.41184 0.15483,5.02009 -0.5034,6.25 -1.03893,1.94127 -1.97003,2.11078 -11.59447,2.11078 l -10.464813,0 -0.117874,-2.75 z m 7.088917,-9.21094 c 1.87984,-1.18885 1.17291,-1.86027 -2.79396,-2.65364 -2.40754,-0.48151 -3.17708,-0.28219 -3.17708,0.82291 0,2.80241 2.98664,3.71812 5.97104,1.83073 z m -6.312848,-31.7142 c -1.031813,-1.03181 -2.559501,0.76876 -1.965529,2.31662 0.540648,1.40891 0.706029,1.39747 1.54799,-0.10702 0.518469,-0.92646 0.706367,-1.92078 0.417539,-2.2096 z m -7.462986,-3.07486 c 0.260737,-4.06345 0.632143,-4.79647 2.569622,-5.07149 1.245657,-0.17683 2.055394,-0.66038 1.799416,-1.07456 -0.255978,-0.41418 0.171318,-3.41951 0.949548,-6.6785 0.778229,-3.259 1.430992,-6.31162 1.450583,-6.7836 0.05398,-1.30042 -9.151193,9.10296 -11.709255,13.2334 -3.715588,5.99947 -2.614454,11.12475 2.390086,11.12475 1.96905,0 2.282698,-0.58425 2.55,-4.75 z m -4.195209,-3.25 c 0,-0.55 0.675,-1 1.5,-1 0.825,0 1.5,0.45 1.5,1 0,0.55 -0.675,1 -1.5,1 -0.825,0 -1.5,-0.45 -1.5,-1 z m 9,4.98663 c 0,-0.43967 -0.894939,-0.56536 -1.988753,-0.27932 -1.093814,0.28604 -1.754402,0.89926 -1.467975,1.36271 0.608315,0.98427 3.456728,0.0915 3.456728,-1.08339 z m 9.124383,-3.33772 c 0.6874,-2.58993 0.55607,-2.79727 -1.43383,-2.26365 -1.2048,0.32309 -3.20305,0.59357 -4.44055,0.60108 -1.743927,0.0106 -2.250003,0.58954 -2.250003,2.57403 0,2.33996 0.317104,2.53364 3.683833,2.25 3.09354,-0.26064 3.80508,-0.76722 4.44055,-3.16146 z m -10.153343,1.39015 c 0.809071,-0.51167 1.165979,-1.23537 0.793128,-1.60823 -0.915093,-0.91509 -3.764168,0.24885 -3.764168,1.53778 0,1.27011 1.035288,1.29466 2.97104,0.0705 z m 0.27896,-3.70134 c -0.6875,-0.27741 -1.8125,-0.27741 -2.5,0 -0.6875,0.27741 -0.125,0.50439 1.25,0.50439 1.375,0 1.9375,-0.22698 1.25,-0.50439 z m 8.287293,-27.13376 c -0.87994,-0.87994 -2.54925,1.96767 -1.83293,3.12671 0.31482,0.50939 1.00138,0.15962 1.52568,-0.77726 0.52431,-0.93688 0.66257,-1.99413 0.30725,-2.34945 z m 3.81778,3.21328 c 0.83525,-0.32052 1.27391,-1.22052 0.9748,-2 -0.76421,-1.99149 -2.07494,-1.7621 -3.32987,0.58276 -1.10438,2.06355 -0.41317,2.47951 2.35507,1.41724 z m 4.77444,-3.68773 c -1.3346,-1.3346 -3.16316,0.0192 -2.46906,1.82804 0.44987,1.17234 0.87966,1.23908 1.99871,0.31035 0.90588,-0.75181 1.07735,-1.53139 0.47035,-2.13839 z m 2.62049,-2.15707 c -2.30816,-1.7053 -2.21044,-5.30499 0.25373,-9.34661 2.70308,-4.43345 2.55805,-6.22583 -0.50373,-6.22583 -1.375,0 -2.5,-0.46973 -2.5,-1.04384 0,-0.57411 0.74081,-0.91161 1.64625,-0.75 0.90544,0.16161 1.84305,-0.26897 2.08356,-0.95684 0.27888,-0.79757 -0.1364,-1.03053 -1.14625,-0.64301 -0.87096,0.33422 -1.58356,0.15767 -1.58356,-0.39233 0,-0.55 0.66741,-1.25611 1.48314,-1.56914 1.76861,-0.67868 1.15507,-2.76722 -1.25245,-4.26346 -1.50527,-0.9355 -1.75493,-0.62625 -1.91676,2.37425 -0.21928,4.06558 -0.8053,4.8841 -2.53977,3.54743 -0.88718,-0.68371 -1.80566,-0.42328 -3.02416,0.8575 -0.9625,1.01169 -1.3,1.89569 -0.75,1.96444 0.55,0.0688 1.51449,0.18125 2.14331,0.25 1.86515,0.20392 2.1303,7.55847 0.36939,10.24596 -0.8618,1.31526 -2.0158,3.57208 -2.56445,5.01514 -0.95004,2.49879 -0.86539,2.59709 1.7771,2.06386 1.52605,-0.30794 3.52149,-0.84896 4.4343,-1.20225 1.15275,-0.44616 1.87032,0.0214 2.34934,1.53063 0.52384,1.65048 0.96637,1.89214 1.84034,1.005 0.86951,-0.8826 0.72307,-1.48389 -0.59933,-2.4609 z m -1.75,-22.63146 c 0,-0.58246 0.45,-0.7809 1,-0.44098 0.55,0.33992 1,0.81648 1,1.05902 0,0.24254 -0.45,0.44098 -1,0.44098 -0.55,0 -1,-0.47656 -1,-1.05902 z m -7.07393,14.19716 c 1.47432,-2.75481 -0.67767,-4.81193 -5.67607,-5.42584 l -4.250003,-0.52199 0,3.33842 c 0,2.87426 0.382353,3.39635 2.75,3.75502 5.402453,0.8184 6.192463,0.69228 7.176073,-1.14561 z m -6.19743,-0.27012 c -2.069545,-1.15818 -2.278855,-2.86802 -0.35109,-2.86802 1.71468,0 4.01425,2.63982 2.89965,3.32868 -0.45095,0.2787 -1.5978,0.0714 -2.54856,-0.46066 z m -0.17479,-7.95515 c 1.03052,-1.66742 -1.287211,-3.57951 -2.666721,-2.2 -1.153924,1.15392 -0.431721,3.28713 1.112868,3.28713 0.485081,0 1.184313,-0.48921 1.553853,-1.08713 z m 6.49433,-4.5396 c 1.31502,-3.45876 -0.0655,-5.8653 -3.39609,-5.92029 -2.72694,-0.045 -2.81939,0.10363 -2.17659,3.5 0.36923,1.95086 0.71328,4.04778 0.76457,4.65982 0.1627,1.9414 3.87614,0.21175 4.80811,-2.23953 z m -4.47816,-1.25996 c -0.64869,-1.04962 1.84638,-3.36357 2.70308,-2.50687 0.77219,0.77218 -0.24829,3.39356 -1.32108,3.39356 -0.45869,0 -1.08059,-0.39901 -1.382,-0.88669 z m -2.2084,0.38669 c -0.31658,-0.825 -0.704311,-1.5 -0.861623,-1.5 -0.157312,0 -0.545044,0.675 -0.861626,1.5 -0.347108,0.90455 -0.0051,1.5 0.861626,1.5 0.866693,0 1.208733,-0.59545 0.861623,-1.5 z m 19.63838,-1.5 c 0,-1.65 -0.17393,-3 -0.3865,-3 -0.21258,0 -0.58464,1.35 -0.82681,3 -0.24217,1.65 -0.0682,3 0.3865,3 0.45474,0 0.82681,-1.35 0.82681,-3 z m -22.621627,-1.25 c 0.391648,-1.63254 0.245637,-2.75 -0.359324,-2.75 -0.560479,0 -1.019052,1.425 -1.019052,3.16667 0,3.64127 0.436527,3.50932 1.378376,-0.41667 z m 7.004967,-5 c 0.51437,-1.87694 0.77988,-2.0013 1.60132,-0.75 0.59427,0.90525 0.99078,1.02777 1.00002,0.30902 0.008,-0.65504 -0.49247,-1.50482 -1.1131,-1.88839 -0.77077,-0.47636 -0.60979,-0.98763 0.50792,-1.61314 0.89999,-0.50365 2.07762,-0.64301 2.61696,-0.30967 0.55801,0.34486 0.72397,-0.0628 0.38509,-0.94588 -0.34612,-0.90198 -0.0621,-1.55194 0.67813,-1.55194 0.7005,0 1.01269,-0.26096 0.69375,-0.5799 -0.31895,-0.31895 -1.80975,0.22592 -3.31289,1.21082 -2.67175,1.75059 -6.44054,2.84233 -6.44054,1.86567 0,-0.26997 1.4625,-1.16251 3.25,-1.98342 2.16849,-0.99588 2.41807,-1.27256 0.75,-0.83144 -1.375,0.36361 -3.2459,0.61507 -4.15756,0.5588 -0.91166,-0.0563 -2.486658,0.87909 -3.500001,2.07858 -1.830646,2.16693 -1.829133,2.16969 0.236299,0.43089 1.143307,-0.9625 2.305602,-1.75 2.582882,-1.75 1.02246,0 0.1766,3.88873 -1.21994,5.60853 -0.792926,0.97646 -0.970197,1.4937 -0.393937,1.14941 0.57626,-0.34429 1.701257,-0.21256 2.499997,0.29273 2.16124,1.36721 2.65751,1.1737 3.3356,-1.30067 z m -3.21454,0.35433 c -0.89322,-0.55205 -0.70519,-1.21392 0.70829,-2.4931 2.24154,-2.02856 3.51369,-0.86614 1.72667,1.57775 -0.70019,0.95756 -1.73638,1.34709 -2.43496,0.91535 z m 8.81588,-0.91335 c -0.0132,-1.45727 -0.14928,-1.48367 -0.98468,-0.19098 -1.2656,1.95837 -1.2656,3.28218 0,2.5 0.55,-0.33992 0.99311,-1.37898 0.98468,-2.30902 z m 4.51532,-1.41403 c 0.57067,-0.42591 0.24868,-0.7529 -0.75,-0.76164 -0.97279,-0.008 -1.75,0.72489 -1.75,1.65136 0,0.91666 0.3375,1.2594 0.75,0.76163 0.4125,-0.49777 1.2,-1.24088 1.75,-1.65135 z m 1.68333,-3.99362 c -0.71756,-0.71756 -1.18333,-0.7766 -1.18333,-0.15 0,1.33478 1.18261,2.51739 1.85,1.85 0.28416,-0.28416 -0.0158,-1.04916 -0.66667,-1.7 z m -8.7723,60.58792 c 0.34376,-0.89582 1.12032,-3.59582 1.7257,-6 0.60538,-2.40419 1.44989,-4.37125 1.87667,-4.37125 0.84879,0 -0.14291,4.90363 -1.8707,9.25 -0.60126,1.5125 -1.37748,2.75 -1.72494,2.75 -0.34746,0 -0.35049,-0.73294 -0.007,-1.62875 z"
         id="path2995" />
      <path
         style="fill:#383838"
         d="m 99.137321,695.14601 c -0.04233,-1.53111 -0.218236,-4.13383 -0.3909,-5.78383 -0.172664,-1.65 -0.531433,-7.725 -0.797265,-13.5 -0.265832,-5.775 -0.315235,-8.25 -0.109784,-5.5 0.795196,10.64389 1.02177,11.14875 5.139938,11.4531 5.39801,0.39895 7.35294,0.36746 10.84113,-0.17458 4.02031,-0.62473 5.42461,-1.53478 4.81594,-3.12095 -0.59054,-1.53892 2.18086,-31.39822 3.17346,-34.19126 0.45102,-1.2691 0.35815,-1.61173 -0.26194,-0.96631 -0.52841,0.55 -1.76222,3.7 -2.74179,7 -2.46873,8.31665 -6.17862,14.5 -8.69972,14.5 -4.89687,0 -10.923028,-5.09909 -10.271614,-8.69142 0.315174,-1.73807 0.06115,-2.36291 -0.83359,-2.05047 -0.707795,0.24716 -1.187492,1.30269 -1.065995,2.34563 0.121497,1.04295 -0.02835,1.33422 -0.332994,0.64728 -0.395224,-0.89119 -2.07635,-1.07005 -5.868478,-0.62436 -4.695183,0.55183 -5.443064,0.38455 -6.417006,-1.43528 -2.864197,-5.3518 -0.986301,-9.7545 8.845014,-20.73701 3.423974,-3.8249 6.635673,-7.99395 7.137113,-9.26454 0.50144,-1.2706 1.31539,-2.06069 1.80879,-1.75575 1.10367,0.68211 2.34065,-2.24645 1.5139,-3.58416 -0.33567,-0.54313 -1.24105,-0.17355 -2.05841,0.84024 -1.35155,1.67637 -1.38095,1.64801 -0.39862,-0.38447 0.5833,-1.20687 1.50812,-2.47092 2.05516,-2.80901 2.17282,-1.34287 0.79811,-3.01048 -2.68762,-3.26025 -2.023026,-0.14497 -3.920264,-0.50561 -4.216081,-0.80142 -0.704906,-0.70491 -1.816931,-12.38642 -1.234567,-12.96878 0.246882,-0.24688 1.071852,0.0682 1.833267,0.70006 2.072653,1.72015 4.073691,-0.52867 2.334801,-2.62391 -0.828753,-0.99859 -0.895389,-1.54238 -0.189,-1.54238 0.60008,0 0.81756,-0.71273 0.48328,-1.58385 -0.43784,-1.14098 -0.813529,-1.25093 -1.343616,-0.39323 -1.449164,2.34479 -2.213943,-1.05801 -0.932883,-4.15076 0.794125,-1.91719 1.508636,-2.58152 1.971319,-1.83288 0.52273,0.84578 0.91706,0.86466 1.40974,0.0675 0.37621,-0.60873 0.13772,-1.10677 -0.52998,-1.10677 -0.75818,0 -0.54242,-0.74209 0.57463,-1.97642 2.70688,-2.99107 3.85809,-1.30525 1.4337,2.09949 -1.574,2.21048 -1.9627,3.81037 -1.5014,6.1798 0.34234,1.75842 0.68992,3.69789 0.7724,4.30993 0.16372,1.21482 3.52405,0.66964 4.37677,-0.71009 0.29092,-0.47073 0.70735,-2.26549 0.92539,-3.98835 0.31044,-2.45292 -0.0246,-3.24258 -1.54454,-3.64005 -2.18066,-0.57025 -2.33697,-1.11417 -0.94098,-3.27431 0.79817,-1.23508 0.97208,-1.2498 0.98468,-0.0833 0.008,0.77917 0.30444,1.12754 0.65782,0.77417 0.35337,-0.35338 0.11689,-1.27583 -0.52553,-2.04989 -0.91452,-1.10194 -0.81735,-1.54195 0.44775,-2.02741 0.88867,-0.34101 2.13765,-0.32142 2.77552,0.0435 0.63787,0.36497 0.82616,0.29533 0.41843,-0.15474 -0.40772,-0.45008 -0.24334,-1.41836 0.36531,-2.15173 0.89837,-1.08247 0.34515,-1.26006 -2.93968,-0.94367 -2.22547,0.21436 -4.52736,0.68705 -5.11531,1.05042 -0.58794,0.36337 -1.06899,0.15756 -1.06899,-0.45736 0,-0.61492 -0.50779,-0.8042 -1.12842,-0.42063 -1.995986,1.23358 1.86897,2.62985 4.04943,1.4629 2.71592,-1.45351 5.03511,-1.2555 2.57899,0.2202 -1.1,0.66091 -2.96102,1.22439 -4.13559,1.25219 -1.17457,0.0278 -2.862068,0.65347 -3.749997,1.39038 -1.860356,1.54396 -2.212907,0.0935 -0.414416,-1.70504 0.933333,-0.93333 0.933333,-1.2 0,-1.2 -0.66,0 -1.268541,0.5625 -1.352314,1.25 -0.450281,3.69532 -0.394952,4.35323 0.462529,5.5 0.607699,0.81271 0.542012,1.25 -0.18777,1.25 -0.617345,0 -1.122445,1.35 -1.122445,3 0,1.65 0.45,3 1,3 0.55,0 1,0.7301 1,1.62244 0,1.32879 -0.271492,1.39713 -1.5,0.37756 -0.825,-0.68469 -1.5,-2.79135 -1.5,-4.68146 0,-1.89012 -0.401894,-3.18819 -0.893099,-2.88461 -1.121685,0.69324 0.153344,-5.18317 1.786883,-8.23546 0.663609,-1.23997 1.60289,-2.00954 2.087291,-1.71017 0.484401,0.29938 1.151234,0.10664 1.481852,-0.42831 0.330616,-0.53496 1.335536,-0.69082 2.233146,-0.34638 0.96167,0.36903 1.37862,0.21626 1.0151,-0.37193 -0.38873,-0.62897 1.49253,-0.91414 5.08595,-0.77093 3.13658,0.12499 5.14038,0.0102 4.45288,-0.25508 -0.6875,-0.26528 -1.25,-1.10461 -1.25,-1.86517 0,-2.06038 8.71946,4.1221 9.63519,6.83178 0.41222,1.21975 0.79008,5.36772 0.8397,9.21772 0.0771,5.97866 -0.37978,7.94838 -3.13106,13.5 -1.7717,3.575 -3.23454,5.825 -3.25075,5 -0.0162,-0.825 0.63121,-2.37351 1.43872,-3.44113 2.12957,-2.81555 1.86713,-5.55887 -0.5318,-5.55887 -1.1,0 -2,-0.47656 -2,-1.05902 0,-0.58246 0.39901,-0.81241 0.88669,-0.51101 0.48768,0.30141 1.40953,-0.082 2.04856,-0.85195 0.75652,-0.91155 0.81129,-1.61663 0.15698,-2.02102 -0.55269,-0.34158 -0.77694,-1.21507 -0.49833,-1.94111 0.46553,-1.21316 -3.48434,-4.63616 -5.30872,-4.60058 -0.43185,0.008 -0.2174,0.37575 0.47656,0.81628 0.83046,0.52718 1.04142,1.90257 0.61719,4.02375 -0.90669,4.53346 -2.95945,3.35717 -2.53007,-1.4498 0.19188,-2.14805 0.0136,-3.57729 -0.39612,-3.17609 -0.40974,0.4012 -0.85861,2.17388 -0.99748,3.93929 -0.13888,1.76541 -1.05914,3.79965 -2.04501,4.52055 -1.67425,1.22423 -0.9745,1.8147 1.73501,1.46404 0.35489,-0.0459 0.93696,1.47143 1.29349,3.37191 0.48722,2.59708 0.0206,4.76192 -1.87839,8.71508 -2.47446,5.15105 -2.48484,5.26639 -0.50297,5.58454 1.11302,0.17868 3.53337,-0.56588 5.37856,-1.65457 3.51691,-2.07503 5.54557,-1.42815 5.58132,1.77971 0.01,0.8525 1.13451,2.60973 2.5,3.90496 1.3655,1.29523 2.48104,3.09523 2.47899,4 -0.002,0.98998 -0.7928,0.35089 -1.9853,-1.60496 -2.22042,-3.64175 -3.74252,-3.9573 -8.13413,-1.68631 -1.66312,0.86004 -4.79263,1.58811 -6.95447,1.61794 -3.78921,0.0523 -3.98194,0.2209 -5.35684,4.68631 -0.784421,2.54763 -1.45878,3.73206 -1.498576,2.63206 -0.05855,-1.61826 -0.844467,-1.14108 -4.117551,2.5 -11.090949,12.33792 -13.152094,20.99644 -4.999396,21.00162 2.368818,0.002 2.55,-0.32954 2.55,-4.65915 0,-3.29091 0.440868,-4.78332 1.5,-5.07775 1.333333,-0.37065 1.333333,-0.29911 0,0.64384 -1.271303,0.89908 -1.204046,1.06315 0.44113,1.07613 1.920769,0.0152 1.920785,0.0302 0.0016,1.43355 -2.15327,1.57451 -1.59743,2.9621 0.815628,2.03612 1.581243,-0.60679 3.149367,-4.45436 1.8154,-4.45436 -0.815211,0 0.433596,-10.84069 1.354943,-11.76203 0.316779,-0.31678 0.29089,2.15146 -0.05753,5.48498 l -0.633494,6.06094 4.881166,-0.525 c 2.68464,-0.28875 4.59325,-0.21471 4.24135,0.16453 -0.56942,0.61367 -4.10748,1.31461 -7.610191,1.50768 -0.6875,0.0379 -1.25,0.96033 -1.25,2.04985 0,1.29405 -0.892265,2.20489 -2.573216,2.62678 -1.832509,0.45993 -2.264288,0.95477 -1.5,1.71905 0.764286,0.76429 1.418637,0.7278 2.273214,-0.12678 0.66,-0.66 2.887639,-1.2 4.950313,-1.2 2.51676,0 4.08557,-0.57561 4.76959,-1.75 0.5606,-0.9625 1.02607,-1.3 1.03438,-0.75 0.0265,1.75638 -1.39475,3.25734 -3.45428,3.64801 -3.33209,0.63206 -2.68324,5.78881 1,7.94753 1.65,0.96706 3.79411,1.79117 4.76469,1.83137 2.27466,0.0942 5.26171,-4.80308 7.70634,-12.63457 1.06576,-3.41421 2.84123,-7.91421 3.94549,-10 l 2.00776,-3.79234 -0.49659,5.5 c -0.27312,3.025 -0.68023,7.525 -0.90467,10 -0.22445,2.475 -0.71054,7.875 -1.0802,12 -0.91959,10.2616 -0.72806,16.60822 0.66529,22.04479 0.80526,3.14193 0.8697,5.52366 0.20363,7.52592 l -0.97445,2.92929 -10.66865,0.28383 -10.668643,0.28383 -0.07697,-2.78383 z m 6.955079,-9.18734 c 2.07735,-1.31577 0.38828,-3.09649 -2.93713,-3.09649 -2.27432,0 -2.94098,0.45336 -2.94098,2 0,2.14458 3.26254,2.75317 5.87811,1.09649 z m 3.38632,-62.69426 c 0.97314,-0.97314 -0.36299,-3.40223 -1.87142,-3.40223 -0.76616,0 -1.39301,0.1882 -1.39301,0.41821 0,0.23002 -0.27315,1.13002 -0.60699,2 -0.42497,1.10746 -0.0251,1.58179 1.33333,1.58179 1.06718,0 2.20932,-0.269 2.53809,-0.59777 z m 4.50622,-2.2142 c 0.21762,-0.65284 -0.33617,-1.46781 -1.23062,-1.81104 -2.08607,-0.8005 -2.75572,-0.10262 -1.94036,2.02215 0.70046,1.82537 2.53282,1.70338 3.17098,-0.21111 z m 2.44601,-3.37136 c -1.52436,-1.52437 -2.45289,-0.59584 -1.60742,1.60742 0.46511,1.21205 0.96725,1.39942 1.72354,0.64313 0.75629,-0.75629 0.72246,-1.41198 -0.11612,-2.25055 z m -8.84007,-8.35567 c 1.03318,-2.69242 -1.16201,-5.461 -4.32999,-5.461 -1.58567,0 -3.594832,-0.27315 -4.464816,-0.60699 -1.257953,-0.48272 -1.581787,0.1144 -1.581787,2.91667 0,3.81977 0.525585,4.21231 6.078813,4.53997 2.60033,0.15343 3.86253,-0.2544 4.29778,-1.38865 z m -6.80359,-0.98247 c -1.059852,-0.80183 -1.641759,-1.74311 -1.29313,-2.09174 1.0514,-1.0514 3.72013,0.44205 3.72013,2.08182 0,1.84276 -0.004,1.84278 -2.427,0.01 z m 19.5507,-13.72853 c -0.42401,-4.19898 -0.43927,-4.21399 -1.27162,-1.25 -0.87782,3.12589 -0.49237,5.5 0.89296,5.5 0.44429,0 0.61469,-1.9125 0.37866,-4.25 z m -10.1237,-7.36803 c 0,-0.825 -0.45,-1.22189 -1,-0.88197 -0.55,0.33992 -1,1.29303 -1,2.11803 0,0.825 0.45,1.22189 1,0.88197 0.55,-0.33992 1,-1.29303 1,-2.11803 z m 4.08541,-0.82918 c 0.50302,0.31088 0.91459,0.13683 0.91459,-0.38678 0,-0.52362 -0.675,-1.21105 -1.5,-1.52764 -1.06654,-0.40927 -1.47719,0.0655 -1.42106,1.64301 0.0434,1.22024 0.30686,1.65332 0.58542,0.96239 0.27855,-0.69093 0.91802,-1.00187 1.42105,-0.69098 z m 3.55028,-4.05895 c -3.65729,-1.90741 -5.73395,-1.88273 -3.19456,0.038 1.06762,0.80751 2.86762,1.46542 4,1.46203 1.72216,-0.005 1.59044,-0.25046 -0.80544,-1.5 z m -28.823193,64.82305 c 0.721875,-0.28888 1.584375,-0.25335 1.916667,0.0789 0.332291,0.33229 -0.258334,0.56864 -1.3125,0.52522 -1.164943,-0.048 -1.4019,-0.28495 -0.604167,-0.60417 z m 18.643143,-4.69564 c 0.31922,-1.03332 1.07571,-3.84582 1.68109,-6.25 0.60538,-2.40419 1.43487,-4.37125 1.84331,-4.37125 1.1439,0 -0.0354,4.79157 -2.17824,8.85067 -1.0596,2.00713 -1.66537,2.80389 -1.34616,1.77058 z m 15.54436,-10.06223 c 0,-1.95746 0.17392,-3.55902 0.3865,-3.55902 0.82118,0 1.23499,6.1159 0.44677,6.60304 -0.4583,0.28325 -0.83327,-1.08656 -0.83327,-3.04402 z m -9,-34.55902 c 0,-0.55 0.45,-1 1,-1 0.55,0 1,0.45 1,1 0,0.55 -0.45,1 -1,1 -0.55,0 -1,-0.45 -1,-1 z m -11,-3.44098 c 0,-1.61407 1.4163,-2.80939 2.29162,-1.93407 0.78037,0.78038 -0.29485,3.37505 -1.39861,3.37505 -0.49116,0 -0.89301,-0.64844 -0.89301,-1.44098 z m 11,0.38196 c 0,-0.58246 0.45,-0.7809 1,-0.44098 0.55,0.33992 1,0.81648 1,1.05902 0,0.24254 -0.45,0.44098 -1,0.44098 -0.55,0 -1,-0.47656 -1,-1.05902 z m -17.000003,-7.4058 c 0,-0.25565 1.0125,-1.00432 2.25,-1.66372 2.040223,-1.08712 2.122043,-1.04378 0.877553,0.46482 -1.277823,1.54902 -3.127553,2.25809 -3.127553,1.1989 z m 19.500003,-10.53518 c 0.33992,-0.55 1.37897,-0.99311 2.30901,-0.98469 1.45728,0.0132 1.48367,0.14929 0.19099,0.98469 -1.95837,1.2656 -3.28218,1.2656 -2.5,0 z"
         id="path2993" />
      <path
         style="fill:#000000"
         d="m 98.964853,689.69544 c -0.412189,-4.7667 -1.005771,-9.4917 -1.31907,-10.5 -0.3133,-1.00829 0.1205,-0.70826 0.963999,0.66674 0.843499,1.375 1.549578,3.5125 1.569068,4.75 0.029,1.84083 0.59803,2.25 3.12906,2.25 2.23975,0 3.23619,-0.54522 3.61018,-1.97536 0.35314,-1.35039 1.66815,-2.15957 4.15638,-2.55761 7.59244,-1.21456 8.33763,-1.50916 7.74219,-3.06084 -0.32882,-0.85691 -0.15188,-1.24581 0.40908,-0.89911 0.5437,0.33602 0.98855,1.76969 0.98855,3.18592 0,1.41623 0.51424,4.29137 1.14277,6.38919 0.88558,2.9558 0.85529,4.50829 -0.1346,6.89809 -1.66794,4.02675 -2.23395,3.37449 -0.89478,-1.03113 1.17142,-3.85378 -0.30428,-9.56724 -2.17281,-8.41243 -0.58474,0.36139 -2.49808,0.84654 -4.25187,1.07812 -9.74676,1.28697 -9.3187,1.02575 -9.25092,5.64524 0.0871,5.93691 -1.8657,6.36352 -2.24258,0.48992 -0.40958,-6.38301 -2.016,-6.04735 -2.39295,0.5 -0.265635,4.61379 -0.393081,4.19975 -1.051697,-3.41674 z m 4.938757,1.41674 c -0.25152,-0.9625 -0.45732,-0.175 -0.45732,1.75 0,1.925 0.2058,2.7125 0.45732,1.75 0.25153,-0.9625 0.25153,-2.5375 0,-3.5 z m -1.93932,-8.91228 c 0.6875,-0.27741 1.8125,-0.27741 2.5,0 0.6875,0.27741 0.125,0.50439 -1.25,0.50439 -1.375,0 -1.9375,-0.22698 -1.25,-0.50439 z m 17.482,-12.33772 c 0,-1.925 0.2058,-2.7125 0.45732,-1.75 0.25153,0.9625 0.25153,2.5375 0,3.5 -0.25152,0.9625 -0.45732,0.175 -0.45732,-1.75 z m -15.232,-7 c -1.29269,-0.8354 -1.2663,-0.97149 0.19098,-0.98469 0.93004,-0.008 1.9691,0.43469 2.30902,0.98469 0.78218,1.2656 -0.54163,1.2656 -2.5,0 z m 10.3383,-5.04728 c 1.63087,-3.29039 3.14748,-5.80027 3.37024,-5.57751 0.58525,0.58525 -3.65485,9.33534 -5.1082,10.54151 -0.67499,0.56019 0.10709,-1.67361 1.73796,-4.964 z m 5.91388,0.54728 c 0.0111,-2.2 0.21589,-2.98225 0.45508,-1.73834 0.23919,1.24391 0.23011,3.04391 -0.0202,4 -0.2503,0.95609 -0.446,-0.0617 -0.4349,-2.26166 z m -20.37974,0.75 c -1.243869,-1.58606 -1.208499,-1.62143 0.37756,-0.37756 1.66574,1.30637 2.19548,2.12756 1.37244,2.12756 -0.20765,0 -0.99515,-0.7875 -1.75,-1.75 z m -14.837259,-4.18426 c -2.070441,-3.86865 -1.145247,-7.69736 3.311949,-13.70573 2.390923,-3.22301 5.384017,-6.76001 6.651319,-7.86001 1.267302,-1.1 3.586092,-4.0006 5.152871,-6.44578 1.56677,-2.44518 2.86462,-4.02018 2.88411,-3.5 0.0195,0.52018 0.71326,-0.17922 1.54172,-1.55422 1.31796,-2.18745 1.43311,-2.22811 0.92106,-0.32525 -0.45878,1.70488 -0.0897,2.26961 1.70828,2.61382 1.50119,0.28738 1.0213,0.48611 -1.3891,0.57525 -2.59796,0.0961 -3.85179,0.66919 -4.25699,1.94587 -0.3159,0.99532 -2.855191,4.25782 -5.642858,7.25 -8.15828,8.75677 -10.917545,12.91882 -10.917545,16.4679 0,3.40239 1.202174,4.93818 4.5,5.7488 1.541169,0.37882 1.37718,0.51822 -0.714816,0.60761 -1.743491,0.0745 -3.085192,-0.57605 -3.75,-1.81826 z m 15.080819,0.68426 c -0.13662,-2.06098 -0.522948,-2.13732 -2.997106,-0.59218 -3.189567,1.99192 -5.118897,0.37383 -5.118897,-4.2931 0,-2.30893 0.324137,-3.87392 0.720304,-3.47775 0.396167,0.39617 0.581268,2.33408 0.411336,4.30648 -0.288479,3.34838 -0.153885,3.53831 2.029696,2.86426 1.286265,-0.39705 4.363664,-0.86223 6.838667,-1.03373 2.475,-0.1715 3.29025,-0.10734 1.81168,0.14257 -1.47858,0.24992 -2.88888,1.21468 -3.134,2.14392 -0.40483,1.53466 -0.45631,1.52912 -0.56168,-0.0605 z m -5.116003,-3.75 c 0.825,-0.53316 1.95,-0.96937 2.5,-0.96937 0.55,0 0.325,0.43621 -0.5,0.96937 -0.825,0.53316 -1.95,0.96937 -2.5,0.96937 -0.55,0 -0.325,-0.43621 0.5,-0.96937 z m 25.881163,-4.21858 c 0.46036,-2.77692 0.6012,-2.91777 0.91608,-0.91609 0.20465,1.30094 -0.0401,2.77758 -0.544,3.28142 -0.55477,0.55478 -0.70152,-0.37811 -0.37208,-2.36533 z m -23.248653,0.46858 c 0.167596,-0.6875 -0.206156,-1.25 -0.830561,-1.25 -0.624405,0 -0.900615,-0.23467 -0.6138,-0.52148 0.286816,-0.28682 1.599316,-0.0903 2.916667,0.43661 1.595557,0.63824 1.838767,0.97926 0.728517,1.02148 -0.916666,0.0349 -1.855414,0.40089 -2.086105,0.81339 -0.230691,0.4125 -0.282314,0.1875 -0.114718,-0.5 z m 21.446433,-2.83333 c 0.048,-1.16495 0.28495,-1.4019 0.60417,-0.60417 0.28887,0.72187 0.25335,1.58437 -0.079,1.91667 -0.33229,0.33229 -0.56864,-0.25834 -0.52522,-1.3125 z m 2.48535,-4.7098 c 0.37553,-0.98622 0.93469,-1.54122 1.24258,-1.23333 0.30789,0.30789 6.3e-4,1.11479 -0.68278,1.79313 -0.98762,0.98026 -1.10248,0.8654 -0.5598,-0.5598 z m -11.48535,-7.2902 c 0.048,-1.16495 0.28495,-1.4019 0.60417,-0.60417 0.28887,0.72187 0.25335,1.58437 -0.079,1.91667 -0.33229,0.33229 -0.56864,-0.25834 -0.52522,-1.3125 z m 13.07895,-1.41667 c 0,-1.375 0.22697,-1.9375 0.50439,-1.25 0.27741,0.6875 0.27741,1.8125 0,2.5 -0.27742,0.6875 -0.50439,0.125 -0.50439,-1.25 z m -2.64299,-7.71879 -1.75601,-2.78121 2.315,2.22222 c 1.27325,1.22222 2.06345,2.47377 1.75601,2.78121 -0.30744,0.30744 -1.34919,-0.69256 -2.315,-2.22222 z m -10.5149,-1.34023 c 0,-0.58246 0.46971,-0.76872 1.0438,-0.41391 0.57409,0.35481 1.58659,0.22622 2.25,-0.28575 1.43357,-1.10632 4.7062,-2.34632 4.7062,-1.78318 0,0.53016 -6.08286,3.54186 -7.15364,3.54186 -0.4655,0 -0.84636,-0.47656 -0.84636,-1.05902 z m -2,-2.94098 c -1.2819,-0.82843 -1.24555,-0.9716 0.25,-0.98469 0.9625,-0.008 1.75,0.43469 1.75,0.98469 0,1.21961 -0.11279,1.21961 -2,0 z m -4.53895,-1.95697 c 2.1782,-2.40688 2.67736,-2.5673 1.93024,-0.62035 -0.30026,0.78248 -1.27341,1.70184 -2.16255,2.04304 -1.32811,0.50964 -1.28666,0.25575 0.23231,-1.42269 z m 9.65495,1.14795 c -0.0638,-0.71996 -0.6785,-1.01841 -1.366,-0.66322 -0.6875,0.35519 -0.13758,-0.25806 1.22204,-1.36277 1.35962,-1.10471 2.93462,-1.71682 3.5,-1.36024 0.58777,0.3707 0.30491,0.79176 -0.66056,0.98327 -0.92868,0.18422 -1.88898,1.09478 -2.134,2.02346 -0.24501,0.92869 -0.49768,1.09946 -0.56148,0.3795 z m -11.60303,-4.93358 c -3.630867,-0.37009 -5.456936,-1.53136 -5.49766,-3.4962 -0.0084,-0.40634 1.109687,-0.64569 2.484687,-0.53189 1.375003,0.1138 2.500003,0.74164 2.500003,1.3952 0,0.89725 0.86204,0.92372 3.51962,0.10809 3.13273,-0.96147 3.49623,-1.42751 3.30684,-4.23974 -0.11704,-1.73774 -0.68837,-3.21795 -1.26963,-3.28937 -7.435238,-0.91345 -10.556833,-1.6234 -10.556833,-2.40093 0,-0.51553 0.862129,-0.66371 1.915843,-0.32927 2.40215,0.76241 3.65391,-1.08185 2.0478,-3.0171 -0.664692,-0.8009 -0.793793,-1.45619 -0.286888,-1.45619 0.506908,0 0.731938,-1.62496 0.500078,-3.61102 -0.31133,-2.66675 -0.675734,-3.25512 -1.393533,-2.25 -0.698206,0.97768 -0.77102,0.79771 -0.258523,-0.63898 0.392393,-1.1 0.734843,-2.54271 0.760999,-3.20601 0.02616,-0.66331 0.402904,-0.9864 0.837217,-0.71798 0.43431,0.26842 0.50784,1.22245 0.16339,2.12006 -0.34444,0.89761 -0.21229,1.37617 0.29368,1.06347 0.50596,-0.31271 0.99835,1.18847 1.09418,3.33595 0.31545,7.06886 1.05201,7.74027 5.07576,4.62683 0.81434,-0.63011 1.25,-0.6133 1.25,0.0482 0,0.5585 -0.69778,1.28322 -1.55061,1.61048 -1.27981,0.49111 -1.32347,0.84074 -0.25,2.00203 0.71533,0.77385 1.60149,1.22531 1.96923,1.00324 0.36775,-0.22207 0.96137,0.92907 1.31916,2.55808 0.62846,2.86136 -1.88473,10.27521 -3.35172,9.8875 -0.34984,-0.0925 -2.43022,-0.35098 -4.62309,-0.57449 z m 13.48703,-3.46829 c 0,-0.84932 0.74867,-2.16182 1.66372,-2.91667 1.52183,-1.2554 1.55292,-1.15924 0.36454,1.12756 -1.74216,3.35245 -2.02826,3.60481 -2.02826,1.78911 z m -14.75,-2.45139 c -0.687503,-0.27741 -1.250003,-0.87707 -1.250003,-1.33257 0,-1.24234 3.332203,-0.50854 3.779123,0.83222 0.40244,1.20732 -0.38902,1.3639 -2.52912,0.50035 z m 17.59079,-4.42561 c -0.25079,-1.77504 -0.86379,-2.32054 -2.321,-2.06541 -1.73791,0.30428 -1.68073,0.1042 0.46735,-1.63521 2.38642,-1.9324 5.01286,-1.95623 5.01286,-0.0455 0,0.52361 -0.49821,0.64411 -1.10714,0.26778 -0.72158,-0.44597 -0.90365,-0.0312 -0.52282,1.19098 0.32136,1.03138 0.18543,2.51068 -0.30208,3.28734 -0.67938,1.08233 -0.96596,0.8488 -1.22717,-1 z m -21.76477,-6.77006 c -0.680935,-1.27234 -0.976604,-2.5748 -0.657043,-2.89436 0.319561,-0.31956 0.58102,-0.056 0.58102,0.58564 0,0.64167 0.435877,1.16667 0.968615,1.16667 0.532739,0 0.709594,-0.675 0.393011,-1.5 -0.316582,-0.825 -0.07746,-1.5 0.531385,-1.5 1.256001,0 1.324515,1.58343 0.193747,4.4777 -0.744898,1.9066 -0.817176,1.89454 -2.010735,-0.33565 z m 14.26984,0.60855 c -0.42469,-0.68717 -0.63701,-2.53798 -0.47181,-4.11292 0.18367,-1.75101 -0.0952,-2.61905 -0.71774,-2.23428 -0.55997,0.34607 -1.34374,0.10235 -1.74172,-0.5416 -0.42615,-0.68951 -0.29209,-0.90412 0.32611,-0.52205 1.03931,0.64232 2.28886,-1.41729 2.22749,-3.67154 -0.0187,-0.6884 -0.53214,-0.52667 -1.25,0.39376 -1.2391,1.58878 -4.71819,3.31491 -4.71819,2.3409 0,-0.29389 0.45121,-1.37746 1.0027,-2.40792 0.67027,-1.25242 0.67027,-2.07903 0,-2.49328 -0.55149,-0.34084 -1.0027,0.0553 -1.0027,0.8803 0,0.825 -0.52089,1.82192 -1.15753,2.21538 -0.78805,0.48705 -0.98292,0.0477 -0.6105,-1.3764 0.56886,-2.17534 -1.66879,-3.94122 -2.758965,-2.17728 -0.325073,0.52598 -1.126984,0.94202 -1.782025,0.92453 -0.655041,-0.0175 -0.34132,-0.67506 0.697157,-1.46126 1.358466,-1.02845 2.410443,-1.14992 3.750003,-0.43301 1.0962,0.58667 1.86186,0.61473 1.86186,0.0682 0,-0.51051 0.73865,-1.21164 1.64144,-1.55807 1.42869,-0.54824 1.46211,-0.4138 0.25784,1.03725 -1.24618,1.50156 -1.13607,1.58995 1.10856,0.88999 2.48331,-0.77438 2.48537,-0.76955 0.58162,1.36189 -1.05079,1.17647 -1.67425,2.37532 -1.38546,2.66411 0.2888,0.28879 1.27141,-0.61397 2.18359,-2.00613 0.91218,-1.39217 1.36804,-2.53121 1.01301,-2.53121 -0.35502,0 -0.0874,-0.67245 0.59469,-1.49433 1.07909,-1.30023 0.57744,-1.43926 -3.86202,-1.07037 -3.0407,0.25267 -5.37294,-0.0141 -5.77225,-0.66017 -0.3732,-0.60385 -0.20946,-0.79949 0.3696,-0.44161 0.5718,0.35339 2.40943,0.16501 4.08363,-0.41861 2.20704,-0.76938 3.63693,-0.74381 5.20051,0.093 2.48661,1.33079 3.91649,0.52335 2.16857,-1.22457 -0.65083,-0.65084 -1.18333,-1.57548 -1.18333,-2.05477 0,-0.47928 0.73302,-0.1384 1.62894,0.75751 0.89591,0.89592 2.3447,1.35428 3.21952,1.01858 0.87481,-0.3357 1.27703,-0.29682 0.89382,0.0864 -0.38322,0.38322 0.58039,2.15135 2.14135,3.92919 2.58849,2.94813 2.8068,3.78525 2.48213,9.51787 -0.19579,3.45699 -0.62614,6.55014 -0.95633,6.87366 -0.33019,0.32352 -0.45688,-0.8059 -0.28152,-2.50983 0.20038,-1.94703 -0.32145,-3.73834 -1.40454,-4.82143 -1.50224,-1.50224 -1.72337,-1.52174 -1.72337,-0.15195 0,0.86429 0.45,1.57143 1,1.57143 1.38622,0 1.25788,2.72259 -0.16994,3.60503 -0.79376,0.49057 -0.95821,0.1713 -0.51146,-0.99292 0.37739,-0.98347 0.25207,-1.4648 -0.29358,-1.12757 -0.52364,0.32362 -1.90599,-0.3655 -3.07188,-1.5314 -2.29023,-2.29023 -4.00605,-1.92674 -2.04709,0.43367 0.72176,0.86966 0.8149,1.66762 0.23638,2.02516 -0.52507,0.32451 -0.71944,1.48957 -0.43192,2.58903 0.58506,2.23729 -0.18409,2.65979 -1.36465,0.7496 z m 5.31642,-9.0006 c -0.27742,-0.6875 -0.50439,-0.125 -0.50439,1.25 0,1.375 0.22697,1.9375 0.50439,1.25 0.27741,-0.6875 0.27741,-1.8125 0,-2.5 z m 4.02083,-0.9375 c -0.31922,-0.79773 -0.55618,-0.56078 -0.60417,0.60417 -0.0434,1.05416 0.19293,1.64479 0.52522,1.3125 0.3323,-0.3323 0.36782,-1.1948 0.079,-1.91667 z m -5.18311,-1.33065 c 0.55,0.0268 1.55734,0.40276 2.23854,0.8354 0.83308,0.5291 1.05662,0.31252 0.68282,-0.66158 -0.30565,-0.79651 -1.763,-1.68014 -3.23855,-1.96363 -3.21733,-0.61812 -3.42193,-0.47876 -2.56719,1.74868 0.36449,0.94983 0.93758,1.33668 1.27354,0.85967 0.33596,-0.47702 1.06084,-0.84536 1.61084,-0.81854 z m 4.05278,-1.39644 c -0.31088,-0.50302 6e-5,-1.11902 0.69099,-1.36889 0.73298,-0.26507 0.12386,-0.98634 -1.46242,-1.73164 -1.49525,-0.70253 -2.45234,-1.70821 -2.12687,-2.23484 0.32547,-0.52662 -0.65567,-0.14014 -2.18032,0.85885 l -2.77209,1.81634 3.09973,0.80322 c 1.70486,0.44177 3.37345,1.24609 3.70798,1.78738 0.33454,0.5413 0.83325,0.98417 1.10825,0.98417 0.275,0 0.24564,-0.41157 -0.0652,-0.91459 z m -14.90212,9.44661 c -0.30982,-0.80738 -0.13297,-1.73394 0.39301,-2.05901 0.52598,-0.32508 0.95633,0.33551 0.95633,1.46797 0,2.41457 -0.55611,2.65816 -1.34934,0.59104 z m -8.983996,-4.19869 c -1.852209,-1.85221 0.865072,-9.33333 3.390037,-9.33333 0.518813,0 0.007,0.93633 -1.137432,2.08073 -2.005528,2.00553 -2.014563,2.13254 -0.25,3.51448 1.342382,1.0513 1.430603,1.36321 0.330728,1.16927 -0.943314,-0.16632 -1.39095,0.38499 -1.206163,1.48552 0.310784,1.85093 -0.03104,2.17946 -1.12717,1.08333 z"
         id="path2991" />
    </g>
  </g>
</svg>
