<?xml version="1.0" encoding="UTF-8" standalone="no"?>
<!-- Created with Inkscape (http://www.inkscape.org/) -->

<svg
   xmlns:dc="http://purl.org/dc/elements/1.1/"
   xmlns:cc="http://creativecommons.org/ns#"
   xmlns:rdf="http://www.w3.org/1999/02/22-rdf-syntax-ns#"
   xmlns:svg="http://www.w3.org/2000/svg"
   xmlns="http://www.w3.org/2000/svg"
   xmlns:sodipodi="http://sodipodi.sourceforge.net/DTD/sodipodi-0.dtd"
   xmlns:inkscape="http://www.inkscape.org/namespaces/inkscape"
   width="744.09448819"
   height="1052.3622047"
   id="svg2853"
   version="1.1"
   inkscape:version="0.47 r22583"
   sodipodi:docname="stef-talking.svg"
   inkscape:export-filename="/home/robert/documents/writing/stef-talking.png"
   inkscape:export-xdpi="300"
   inkscape:export-ydpi="300">
  <defs
     id="defs2855">
    <inkscape:perspective
       sodipodi:type="inkscape:persp3d"
       inkscape:vp_x="0 : 526.18109 : 1"
       inkscape:vp_y="0 : 1000 : 0"
       inkscape:vp_z="744.09448 : 526.18109 : 1"
       inkscape:persp3d-origin="372.04724 : 350.78739 : 1"
       id="perspective2861" />
    <inkscape:perspective
       id="perspective2931"
       inkscape:persp3d-origin="0.5 : 0.33333333 : 1"
       inkscape:vp_z="1 : 0.5 : 1"
       inkscape:vp_y="0 : 1000 : 0"
       inkscape:vp_x="0 : 0.5 : 1"
       sodipodi:type="inkscape:persp3d" />
  </defs>
  <sodipodi:namedview
     id="base"
     pagecolor="#ffffff"
     bordercolor="#666666"
     borderopacity="1.0"
     inkscape:pageopacity="0.0"
     inkscape:pageshadow="2"
     inkscape:zoom="0.43852551"
     inkscape:cx="375"
     inkscape:cy="530.01459"
     inkscape:document-units="px"
     inkscape:current-layer="layer1"
     showgrid="false"
     inkscape:window-width="842"
     inkscape:window-height="722"
     inkscape:window-x="35"
     inkscape:window-y="25"
     inkscape:window-maximized="0" />
  <metadata
     id="metadata2858">
    <rdf:RDF>
      <cc:Work
         rdf:about="">
        <dc:format>image/svg+xml</dc:format>
        <dc:type
           rdf:resource="http://purl.org/dc/dcmitype/StillImage" />
        <dc:title></dc:title>
      </cc:Work>
    </rdf:RDF>
  </metadata>
  <g
     inkscape:label="Layer 1"
     inkscape:groupmode="layer"
     id="layer1">
    <g
       id="g2937"
       transform="matrix(5.9942203,0,0,5.9942203,-378.34659,-3307.4308)">
      <path
         style="fill:#e6e6e6"
         d="m 65.205003,724.4858 c 2.352038,-0.21124 5.952038,-0.20827 8,0.007 2.047962,0.21448 0.123567,0.38732 -4.276433,0.38369 -4.4,-0.004 -6.075605,-0.17944 -3.723567,-0.39069 z m 11.748081,-12.0165 c -0.995501,-19.87576 -0.955514,-27.219 0.15426,-28.32877 0.698837,-0.69884 0.418141,-3.15177 -0.883729,-7.72268 -1.781379,-6.25448 -1.835869,-8.157 -0.821957,-28.69855 1.19565,-24.22352 2.630261,-36.20284 4.612424,-38.51477 0.71429,-0.83313 1.750445,-3.52531 2.302568,-5.98262 0.910521,-4.05244 0.72438,-5.01783 -2.001982,-10.38296 -1.705575,-3.35635 -2.882091,-7.09486 -2.719768,-8.64236 0.157339,-1.49999 -0.22181,-3.34601 -0.842555,-4.10227 -1.053858,-1.28393 -1.837088,-4.74551 -1.329302,-5.87502 0.12363,-0.275 0.346705,-1.9409 0.495723,-3.702 0.149018,-1.7611 0.999685,-3.93074 1.890373,-4.82143 0.890687,-0.89068 1.619431,-2.52478 1.619431,-3.63133 0,-1.1328 0.530239,-1.83516 1.213489,-1.60741 0.667419,0.22247 2.181521,-0.64003 3.364671,-1.91667 1.18315,-1.27664 2.49997,-2.32116 2.926268,-2.32116 0.426298,0 1.350404,-0.78679 2.053568,-1.74843 1.901614,-2.60061 2.91048,-0.7585 1.044003,1.90627 -0.881099,1.25794 -1.600317,2.74954 -1.598261,3.31467 0.0021,0.56512 0.895442,-0.43501 1.985302,-2.22251 1.08986,-1.7875 2.325677,-3.3003 2.746262,-3.36178 0.420584,-0.0615 2.279689,-0.28528 4.131345,-0.49733 l 3.366643,-0.38553 -2.782426,3.74732 -2.782429,3.74732 2.970501,-2.75 c 1.633776,-1.5125 3.433374,-2.75 3.999114,-2.75 1.53361,0 1.30527,3.25935 -0.36292,5.18045 -1.31331,1.51242 -1.25003,1.62575 0.63282,1.13337 1.20034,-0.31389 2.09205,-0.0711 2.09205,0.56955 0,0.61415 -0.36399,1.11663 -0.80887,1.11663 -0.44488,0 -1.68238,0.65262 -2.75,1.45026 -1.890313,1.4123 -1.885181,1.4362 0.19601,0.91288 1.17543,-0.29556 2.43949,-0.0482 2.80902,0.54974 0.36953,0.59792 0.19532,1.08712 -0.38714,1.08712 -0.58246,0 -1.05902,0.64234 -1.05902,1.42742 0,0.78508 -1.18569,2.36008 -2.634859,3.5 l -2.634858,2.07258 3.134857,0 3.13486,0 0,6.3 c 0,3.465 -0.37739,6.7275 -0.83865,7.25 -0.46126,0.5225 -1.38898,4.1 -2.06161,7.95 -1.314439,7.52358 -3.258666,11.5 -5.622793,11.5 -2.236093,0 -1.853695,5.62325 0.545555,8.0225 1.400515,1.40052 1.967624,3.16883 1.844058,5.75 -0.09815,2.05013 0.374344,7.7775 1.049976,12.7275 0.675631,4.95 1.441965,10.8 1.702964,13 0.261,2.2 0.67418,5.125 0.91818,6.5 1.07685,6.06837 2.55315,40.01461 1.79858,41.35687 -0.45994,0.81817 -0.70023,7.80657 -0.53397,15.52977 l 0.30229,14.0422 9.69771,0.32629 c 5.33374,0.17946 -0.27809,0.42047 -12.470733,0.53558 l -22.168444,0.20929 -0.638599,-12.75 z m 19.401363,5.5 c -0.04077,-3.4375 -0.439169,-8.275 -0.885335,-10.75 -0.531323,-2.94738 -0.627366,-0.97826 -0.278364,5.70717 l 0.532848,10.20718 -8.397513,0.33928 -8.397513,0.33928 8.75,0.20354 8.75,0.20355 -0.07412,-6.25 z m 3.857903,-7 -0.216224,-13.25 -0.316251,12.46105 c -0.213073,8.3956 -0.713472,12.71346 -1.533778,13.23469 -0.841895,0.53495 -0.677617,0.77836 0.532473,0.78895 1.59016,0.0139 1.73025,-1.19491 1.53378,-13.23469 z m -20.100666,-4.9375 c -0.319226,-0.79773 -0.556183,-0.56078 -0.604167,0.60417 -0.04342,1.05416 0.192928,1.64479 0.52522,1.3125 0.332291,-0.3323 0.367818,-1.1948 0.07895,-1.91667 z m 18,-2 c -0.319226,-0.79773 -0.556183,-0.56078 -0.604167,0.60417 -0.04342,1.05416 0.192928,1.64479 0.52522,1.3125 0.332291,-0.3323 0.367818,-1.1948 0.07895,-1.91667 z m -8.433114,0.52522 c -0.6875,-0.27741 -1.8125,-0.27741 -2.5,0 -0.6875,0.27741 -0.125,0.50439 1.25,0.50439 1.375,0 1.9375,-0.22698 1.25,-0.50439 z m 6.081152,-2.67324 c 1.355333,1.35534 0.555541,-5.23019 -0.862955,-7.10561 -0.807509,-1.06762 -1.468197,-3.43012 -1.468197,-5.25 0,-1.81988 -0.435877,-3.30887 -0.968615,-3.30887 -0.532739,0 -0.707395,0.68073 -0.388125,1.51273 0.703094,1.83224 -1.116937,4.18389 -5.14326,6.64559 -1.65,1.00881 -2.462594,1.83589 -1.805764,1.83794 0.65683,0.002 2.44606,-1.07303 3.976067,-2.38909 l 2.78183,-2.39283 1.773934,2.917 c 2.295046,3.7739 2.237731,4.71262 -0.476067,7.79705 -1.945647,2.21138 -1.968487,2.32126 -0.168848,0.81227 1.144633,-0.95976 2.382133,-1.44404 2.75,-1.07618 z M 78.759753,698.4693 c -0.620377,-4.67332 -0.598617,-4.72175 1.347871,-3 1.088135,0.9625 2.34118,1.75 2.784545,1.75 0.443365,0 -0.351868,-0.91087 -1.767184,-2.02416 -1.546806,-1.21672 -2.733469,-3.31095 -2.974821,-5.25 -0.226735,-1.8216 -0.465241,-0.61398 -0.547902,2.77416 -0.134673,5.52003 0.540615,10.5 1.423809,10.5 0.200331,0 0.08049,-2.1375 -0.266318,-4.75 z m 13.263829,1.5 c 1.889351,-2.23153 1.888572,-2.23648 -0.09501,-0.60324 -1.1,0.90572 -2.9,1.86602 -4,2.134 -1.923513,0.4686 -1.919879,0.49167 0.09501,0.60324 1.152257,0.0638 2.952257,-0.8965 4,-2.134 z m -4.845012,-7.73904 c 3.292159,-2.00727 4.019822,-4.2838 2.240958,-7.01096 -0.813386,-1.24699 -1.413374,-0.95182 -3.557165,1.75 -1.418312,1.7875 -3.221134,3.25 -4.006271,3.25 -1.607922,0 -1.673887,0.19441 -0.820533,2.41821 0.799721,2.08404 2.210379,1.99052 6.143011,-0.40725 z m -1.858628,-6.90014 c 2.461808,-2.51153 3.549781,-4.37121 3.071424,-5.25 -0.40741,-0.74845 -1.303742,-3.91001 -1.991848,-7.02568 -0.968519,-4.38536 -1.595316,-5.53278 -2.77507,-5.08006 -0.9966,0.38243 -1.273753,0.17994 -0.800906,-0.58514 0.397684,-0.64347 0.302754,-1.16994 -0.210955,-1.16994 -0.513709,0 -0.934017,-1.125 -0.934017,-2.5 0,-2.84595 1.219315,-3.2707 2.552157,-0.88904 1.465609,2.6189 2.447824,-21.0905 1.158258,-27.95885 -1.156406,-6.15912 -0.653522,-8.59586 0.938451,-4.54729 0.518008,1.31735 0.947467,10.72018 0.954354,20.89518 0.01341,19.81577 1.272032,28.21367 4.315757,28.79608 2.106111,0.40301 2.476994,-6.42201 1.982523,-36.48259 l -0.348501,-21.18651 -3.151499,-1.0975 c -1.733325,-0.60362 -4.786067,-2.17854 -6.783871,-3.49983 l -3.63237,-2.40234 -0.656327,4.10444 c -0.360979,2.25744 -0.855049,9.3163 -1.097932,15.68635 -0.242883,6.37004 -0.708625,16.34576 -1.034982,22.16825 -0.543929,9.70416 0.609223,21.60452 2.364333,24.39956 0.675139,1.07517 0.794908,1.68295 1.037335,5.26409 0.08377,1.2375 0.395134,2.25 0.691914,2.25 0.29678,0 2.255077,-1.75013 4.351772,-3.88918 z m 6.709672,-68.56425 c -0.351531,-1.40061 -1.210426,-2.54657 -1.908654,-2.54657 -0.698228,0 -3.034804,-0.9 -5.19239,-2 -4.743261,-2.41825 -4.5,-2.4066 -4.5,-0.21561 0,1.66261 2.199185,3.36233 8.742817,6.75721 3.21492,1.66792 3.693694,1.33373 2.858227,-1.99503 z m -0.360506,-7.02453 c 0.341785,-1.78793 -0.03619,-2.6398 -1.357337,-3.05911 -1.007067,-0.31963 -2.689739,-1.67282 -3.739273,-3.00709 l -1.908243,-2.42593 -1.032838,4.06906 c -1.012242,3.98792 -0.969724,4.09652 2.132158,5.4459 4.471341,1.94514 5.367853,1.78986 5.905533,-1.02283 z m 5.370933,-8.13458 c 0.830179,-1.9869 1.683566,-5.9244 1.896415,-8.75 0.212849,-2.82561 0.158634,-4.15764 -0.120478,-2.96008 -1.107012,4.74974 -6.387408,5.39372 -6.387408,0.77899 0,-1.89738 -0.603044,-2.3878 -3.25,-2.64301 -2.540761,-0.24498 -3.577341,-1.01788 -4.75,-3.54172 -0.825,-1.77559 -1.864058,-3.23809 -2.309017,-3.25 -0.444959,-0.0119 -0.483639,0.50483 -0.08595,1.1483 0.486179,0.78665 0.177903,0.96074 -0.940983,0.53138 -0.91523,-0.3512 -1.66405,-0.20267 -1.66405,0.33006 0,0.53274 0.498145,0.96862 1.106989,0.96862 0.608844,0 0.838998,0.69837 0.511454,1.55194 -0.341496,0.88992 -0.173849,1.29132 0.393011,0.94098 0.5437,-0.33602 0.988546,-0.1344 0.988546,0.44806 0,0.58246 -0.45,1.05902 -1,1.05902 -0.55,0 -1,0.66088 -1,1.46861 0,0.8995 0.585681,1.24387 1.511341,0.88866 1.036927,-0.3979 1.334652,-0.11951 0.948463,0.88688 -0.309582,0.80676 0.436265,3.21936 1.657437,5.36134 5.326091,9.34215 9.863289,11.07869 12.49423,4.78197 z m -10.944804,-4.05413 c -1.595448,-1.59545 -0.504823,-3.33243 2.083333,-3.31802 3.414745,0.019 5.729897,1.39918 4.819098,2.87289 -0.744252,1.20422 -5.81625,1.53132 -6.902431,0.44513 z M 96.92857,590.2056 c 0,-2.1435 -2.905668,-1.8339 -3.327118,0.35451 -0.257366,1.3364 0.149909,1.74367 1.486305,1.48631 1.012447,-0.19498 1.840813,-1.02335 1.840813,-1.84082 z m -2.706163,-4.63256 c -0.16161,-0.90544 0.268663,-1.84294 0.956163,-2.08333 0.6875,-0.24039 1.25,0.0826 1.25,0.71769 0,0.6872 0.648235,0.50652 1.600989,-0.44623 2.282151,-2.28215 1.115902,-6.5421 -1.596818,-5.83271 -1.300592,0.34011 -2.004171,0.0327 -2.004171,-0.87555 0,-0.88818 -1.004925,-1.35752 -2.75,-1.28434 -2.501595,0.10489 -2.778281,0.50211 -3.063088,4.39742 -0.414488,5.66897 0.23821,7.05331 3.32554,7.05331 1.843094,0 2.491685,-0.46803 2.281385,-1.64626 z m -7.597986,-2.10374 c -0.289743,-1.5125 -0.719789,-2.17266 -0.955658,-1.46701 -0.425347,1.2725 0.335566,4.21701 1.08975,4.21701 0.215992,0 0.155651,-1.2375 -0.134092,-2.75 z m 14.804149,-4.25 c 0,-1.65 -0.37206,-3 -0.82681,-3 -0.45474,0 -0.628666,1.35 -0.3865,3 0.24217,1.65 0.61423,3 0.82681,3 0.21258,0 0.3865,-1.35 0.3865,-3 z m -16.072826,-1.98475 c 2.016088,-2.33888 3.493408,-3.03041 6.827068,-3.19576 4.675684,-0.23191 4.343568,-1.69964 -0.523987,-2.31566 -2.022534,-0.25597 -3.248654,0.10173 -3.614223,1.05439 -0.304294,0.79298 -1.212061,1.44178 -2.01726,1.44178 -0.805198,0 -1.759975,0.93254 -2.121726,2.07232 -0.361751,1.13978 -1.217076,1.85768 -1.900721,1.59534 -0.683645,-0.26234 -1.242992,0.15512 -1.242992,0.92768 0,2.25828 1.826845,1.62992 4.593841,-1.58009 z"
         id="path2951" />
      <path
         style="fill:#cbcbcb"
         d="m 65.205003,724.4858 c 2.352038,-0.21124 5.952038,-0.20827 8,0.007 2.047962,0.21448 0.123567,0.38732 -4.276433,0.38369 -4.4,-0.004 -6.075605,-0.17944 -3.723567,-0.39069 z m 11.743244,-12.0165 c -0.914783,-18.12688 -0.848543,-27.32113 0.20442,-28.3741 0.549771,-0.54977 0.167205,-3.78622 -0.962676,-8.14411 -1.443215,-5.5664 -1.750695,-9.30437 -1.335203,-16.23179 0.29689,-4.95 0.790524,-14.175 1.096963,-20.5 0.735003,-15.17067 2.479785,-28.13875 4.036328,-30 0.68994,-0.825 1.770812,-3.43912 2.401937,-5.80916 1.063596,-3.99407 0.918745,-4.77872 -1.981024,-10.73103 -1.720689,-3.53203 -3.005514,-7.44291 -2.855169,-8.69084 0.150346,-1.24793 -0.272405,-3.26324 -0.939446,-4.47845 -1.205529,-2.19623 -0.575515,-14.01356 0.680158,-12.75789 0.321477,0.32148 1.045649,-0.78511 1.60927,-2.45908 0.563621,-1.67397 1.362265,-3.05032 1.774765,-3.05857 0.4125,-0.008 1.582372,-0.80248 2.599715,-1.76498 6.583609,-6.2287 8.922916,-6.80769 6.060417,-1.5 -1.11233,2.0625 -1.434653,2.90915 -0.716275,1.88143 3.520498,-5.03641 4.630122,-5.88774 8.184602,-6.27945 l 3.771891,-0.41565 -2.779545,3.78183 -2.779544,3.78184 3.009088,-2.75 c 1.654999,-1.5125 3.471961,-2.75 4.037701,-2.75 1.53361,0 1.30527,3.25935 -0.36292,5.18045 -1.31331,1.51242 -1.25003,1.62575 0.63282,1.13337 1.20034,-0.31389 2.09205,-0.0711 2.09205,0.56955 0,0.61415 -0.36399,1.11663 -0.80887,1.11663 -0.44488,0 -1.68238,0.65262 -2.75,1.45026 -1.890313,1.4123 -1.885181,1.4362 0.19601,0.91288 1.17543,-0.29556 2.43949,-0.0482 2.80902,0.54974 0.36953,0.59792 0.19532,1.08712 -0.38714,1.08712 -0.58246,0 -1.05902,0.64234 -1.05902,1.42742 0,0.78508 -1.18569,2.36008 -2.634859,3.5 l -2.634858,2.07258 3.134857,0 3.13486,0 0,6.3 c 0,3.465 -0.44843,6.74843 -0.99651,7.29651 -0.54808,0.54808 -1.25145,3.16423 -1.56305,5.81366 -0.85622,7.28025 -2.697814,11.98331 -5.106435,13.04079 -3.066179,1.34617 -3.614801,6.11857 -0.909879,7.91493 1.582178,1.05074 2.113248,2.53866 2.233023,6.25636 0.08643,2.68276 0.856174,10.50275 1.710538,17.37775 0.854364,6.875 2.002753,16.1 2.551983,20.5 1.07146,8.58373 1.53354,26.73821 1.30446,51.25 l -0.14253,15.25 -12.459242,0 -12.459245,0 -0.643436,-12.75 z m 19.162457,-2 c -0.17109,-8.26764 -0.762522,-14.6209 -1.483338,-15.93426 -0.659338,-1.20134 -1.198796,-3.56384 -1.198796,-5.25 0,-1.68616 -0.435877,-3.06574 -0.968615,-3.06574 -0.532739,0 -0.700807,0.6979 -0.373486,1.55088 0.735317,1.91621 -2.823354,5.8608 -6.75758,7.49041 -2.337645,0.96828 -3.225341,0.9353 -4.563844,-0.1696 -1.42488,-1.17619 -1.587722,-1.1579 -1.142541,0.12831 0.74549,2.15386 6.469291,1.62511 9.904979,-0.91501 l 2.827709,-2.09061 1.171321,2.18863 c 1.017733,1.90165 0.807406,2.50165 -1.604044,4.5759 -1.877492,1.61495 -3.504892,2.20416 -5.030372,1.82129 -3.36149,-0.84368 -3.983238,2.03317 -0.878998,4.06714 2.387904,1.56462 2.675004,1.5369 5.467852,-0.52795 l 2.947619,-2.17926 0.05376,4.27993 c 0.02957,2.35397 0.142066,7.09271 0.25,10.53055 l 0.19624,6.25061 -7.187616,-6.1e-4 -7.187616,-6.1e-4 -0.5095,-10.75 c -0.721407,-15.22107 -1.53753,-24.50652 -2.212707,-25.17509 -0.319325,-0.3162 -0.312861,2.80009 0.01436,6.92509 0.327225,4.125 0.856005,12.5625 1.175068,18.75 l 0.580113,11.25 8.397285,0 8.397284,0 -0.284541,-13.75 z m -10.182134,-7.25 c -0.346558,-0.56074 0.437953,-1 1.785995,-1 1.322217,0 3.218519,-0.9 4.214005,-2 2.269888,-2.5082 3.071429,-2.52736 3.071429,-0.0734 0,1.05962 -0.302584,1.73958 -0.672408,1.51101 -0.369824,-0.22856 -1.228496,0.25448 -1.908159,1.07342 -1.400183,1.6871 -5.556845,2.00024 -6.490862,0.48897 z m 14.30414,7.75 c -0.10772,-7.2875 -0.353284,-10.2125 -0.54569,-6.5 -0.192407,3.7125 -0.779269,6.75 -1.30414,6.75 -0.52487,0 -0.95431,2.925 -0.95431,6.5 0,5.11111 0.320513,6.5 1.5,6.5 1.26772,0 1.46967,-2.05184 1.30414,-13.25 z m -2.098407,-10 c -0.238353,-1.2375 -0.433369,-0.225 -0.433369,2.25 0,2.475 0.195016,3.4875 0.433369,2.25 0.238353,-1.2375 0.238353,-3.2625 0,-4.5 z m -9.455733,-9.4829 c 1.817568,-1.63797 2.199397,-3.93242 1.121751,-6.74071 -0.519198,-1.35301 -1.170116,-1.04785 -3.75,1.75807 -1.716963,1.8674 -3.765211,3.60682 -4.551661,3.86538 -0.915497,0.30098 -1.181959,1.11625 -0.740682,2.2662 0.532057,1.38652 1.314211,1.64012 3.42991,1.11212 1.507375,-0.37619 3.528182,-1.39367 4.490682,-2.26106 z m -3.358628,-6.15628 c 2.461808,-2.51153 3.549781,-4.37121 3.071424,-5.25 -0.40741,-0.74845 -1.303742,-3.91001 -1.991848,-7.02568 -0.914367,-4.14016 -1.628133,-5.52018 -2.651919,-5.12732 -0.770449,0.29565 -1.329125,0.14484 -1.241502,-0.33514 0.08762,-0.47997 0.07259,-1.09768 -0.03342,-1.37268 -0.668066,-1.73316 -0.928159,-5 -0.398079,-5 0.348416,0 1.186757,0.75665 1.862981,1.68144 1.745313,2.38686 3.013995,-21.06565 1.545405,-28.56793 -1.319106,-6.73864 -1.317673,-6.77717 0.195582,-5.26158 0.905368,0.90676 1.26958,6.40709 1.321018,19.95 0.08908,23.45158 1.302062,31.19807 4.885166,31.19807 1.776835,0 2.161654,-8.33574 1.694902,-36.71401 -0.340423,-20.69751 -0.40129,-21.22978 -2.5,-21.8618 -1.183095,-0.35629 -4.239236,-1.91296 -6.791425,-3.45928 l -4.640343,-2.81148 -0.66148,3.17329 c -0.363814,1.7453 -0.849494,8.57328 -1.079289,15.17328 -0.229795,6.6 -0.685762,17.01019 -1.01326,23.13376 -0.544424,10.17967 0.564724,21.98774 2.334283,24.85095 0.344302,0.55709 0.678277,1.68843 0.742167,2.51409 0.314825,4.06851 0.500921,5.0012 0.997865,5.0012 0.29678,0 2.255077,-1.75013 4.351772,-3.88918 z m 7.093315,-66.86082 c -0.02377,-2.71676 -1.175979,-3.85954 -5.220759,-5.17804 -2.054839,-0.66983 -3.993897,-1.63504 -4.309017,-2.14492 -0.989531,-1.60109 -2.454911,-1.0099 -2.454911,0.99042 0,1.25782 1.806078,2.9703 5.25,4.97794 6.126875,3.57165 6.755193,3.69803 6.734687,1.3546 z m -0.744149,-8.72796 c 0.341785,-1.78793 -0.03619,-2.6398 -1.357337,-3.05911 -1.007067,-0.31963 -2.694238,-1.67854 -3.749271,-3.0198 l -1.91824,-2.43864 -0.603581,2.40485 c -0.331969,1.32267 -0.879133,3.12294 -1.21592,4.00059 -0.437737,1.14072 0.345185,2.01148 2.745736,3.05376 4.676784,2.03059 5.556396,1.89477 6.098613,-0.94165 z m 5.214924,-7.43591 c 0.828752,-1.60263 1.716253,-5.54013 1.972226,-8.75 0.255972,-3.20987 0.237443,-4.85631 -0.04118,-3.65875 -1.105018,4.74959 -6.386508,5.3938 -6.386508,0.77899 0,-1.89738 -0.603044,-2.3878 -3.25,-2.64301 -2.540761,-0.24498 -3.577341,-1.01788 -4.75,-3.54172 -0.825,-1.77559 -1.864058,-3.23809 -2.309017,-3.25 -0.444959,-0.0119 -0.483639,0.50483 -0.08595,1.1483 0.486179,0.78665 0.177903,0.96074 -0.940983,0.53138 -2.066825,-0.79311 -2.131636,-0.026 -0.16405,1.94154 1.746737,1.74673 1.958275,3.35714 0.440983,3.35714 -0.582459,0 -0.741442,-0.5625 -0.353296,-1.25 0.516344,-0.91457 0.389212,-0.95944 -0.473765,-0.16722 -1.55136,1.42417 -0.355787,4.44726 1.480177,3.74274 0.9705,-0.37242 1.241418,-0.0604 0.844888,0.97288 -0.689946,1.79797 1.451771,6.22989 5.113595,10.58172 3.418521,4.06268 6.867249,4.14248 8.90288,0.20601 z m -10.788795,-4.7528 C 84.7,596.1574 85.513463,594.2193 87.494311,594.2193 c 2.798084,0 6.126965,1.87918 5.40325,3.05017 -0.667715,1.08039 -5.791799,1.29369 -6.802324,0.28316 z M 96.92857,590.2056 c 0,-2.1435 -2.905668,-1.8339 -3.327118,0.35451 -0.257366,1.3364 0.149909,1.74367 1.486305,1.48631 1.012447,-0.19498 1.840813,-1.02335 1.840813,-1.84082 z m -2.849337,-4.45428 c -0.751596,-1.95862 1.336053,-3.16226 2.445828,-1.41014 0.685147,1.08172 0.876177,1.09658 0.888196,0.0691 0.0084,-0.71996 0.465313,-1.0309 1.015313,-0.69098 1.19678,0.73965 1.319424,-3.44832 0.154738,-5.28387 -0.449085,-0.70776 -1.564039,-0.9963 -2.484688,-0.64301 -1.150049,0.44132 -1.67005,0.11981 -1.67005,-1.03255 0,-1.23559 -0.719508,-1.59063 -2.75,-1.35699 -2.60332,0.29954 -2.765996,0.62311 -3.049904,6.06642 l -0.299904,5.75 3.156893,0 c 2.364675,0 3.01553,-0.36839 2.593578,-1.46798 z m -7.405912,-2.03202 c -0.262848,-1.375 -0.902003,-2.5 -1.420345,-2.5 -0.518342,0 -0.760269,0.3375 -0.537615,0.75 0.222654,0.4125 0.685088,1.5375 1.027632,2.5 0.918176,2.57994 1.480265,2.12681 0.930328,-0.75 z m 14.330489,-7.25809 c -1.086233,-1.08624 -1.397874,0.26161 -0.75331,3.25809 l 0.64532,3 0.34162,-2.84142 c 0.18789,-1.56279 0.0828,-3.10028 -0.23363,-3.41667 z m -15.648066,0.77334 c 2.016088,-2.33888 3.493408,-3.03041 6.827068,-3.19576 4.715539,-0.23389 4.328588,-1.83933 -0.581105,-2.41098 -2.024779,-0.23575 -3.176526,0.15794 -3.586327,1.22586 -0.332018,0.86523 -1.233611,1.33141 -2.00354,1.03596 -0.897956,-0.34458 -1.627035,0.36791 -2.033443,1.98716 -0.420163,1.67407 -1.124716,2.33588 -2.091699,1.96482 -0.869595,-0.3337 -1.458128,0.0332 -1.458128,0.90907 0,2.36272 2.155319,1.69951 4.927174,-1.51613 z m 2.072826,0.98475 c 0,-0.55 -0.198442,-1 -0.440983,-1 -0.242541,0 -0.719098,0.45 -1.059017,1 -0.339919,0.55 -0.141476,1 0.440983,1 0.582459,0 1.059017,-0.45 1.059017,-1 z m -9.316886,-9.1875 c -0.319226,-0.79773 -0.556183,-0.56078 -0.604167,0.60417 -0.04342,1.05416 0.192928,1.64479 0.52522,1.3125 0.332291,-0.3323 0.367818,-1.1948 0.07895,-1.91667 z m 29.566886,155.45246 c 2.6125,-0.206 6.8875,-0.206 9.5,0 2.6125,0.206 0.475,0.37454 -4.75,0.37454 -5.225,0 -7.3625,-0.16854 -4.75,-0.37454 z"
         id="path2949" />
      <path
         style="fill:#989898"
         d="m 77.498717,714.95323 c 0.08401,-5.73799 -0.395791,-12.08879 -1.087815,-14.39856 -1.251143,-4.17595 -0.718171,-13.52672 0.922281,-16.18103 0.466265,-0.75443 0.08917,-4.20743 -0.872718,-7.99139 -1.475969,-5.80627 -1.587841,-9.42727 -0.870102,-28.16295 0.452999,-11.825 1.36196,-24.65 2.019912,-28.5 0.657951,-3.85 1.092456,-7.39382 0.965565,-7.87516 -0.12689,-0.48134 0.406172,-1.60634 1.184583,-2.5 2.812334,-3.22873 3.882908,-8.67599 2.567802,-13.06542 -0.668926,-2.23268 -1.560102,-4.05942 -1.980391,-4.05942 -1.247782,0 -3.164128,-6.95564 -2.556506,-9.27919 0.312155,-1.19368 -0.06601,-2.84042 -0.851654,-3.70854 -1.035193,-1.14388 -1.2558,-3.0858 -0.824874,-7.26107 0.323537,-3.13478 0.95947,-5.47017 1.413183,-5.18976 0.453713,0.28041 1.226998,-0.9687 1.718411,-2.7758 0.491412,-1.8071 1.408434,-3.17314 2.037827,-3.03564 0.629392,0.1375 1.144349,-0.1402 1.144349,-0.61711 0,-0.47692 1.8,-2.0583 4,-3.51419 4.465706,-2.95527 4.674659,-2.82403 2.426264,1.52389 -0.865555,1.6738 -1.376126,3.24088 -1.134602,3.4824 0.241524,0.24153 0.998119,-0.91037 1.681323,-2.55977 1.649739,-3.98282 3.356139,-5.267 7.623602,-5.73727 l 3.553763,-0.39162 -2.779545,3.78183 -2.779544,3.78184 3.009088,-2.75 c 3.508161,-3.2061 3.969981,-3.31208 4.816771,-1.10538 0.35989,0.93786 -0.1313,2.49905 -1.14301,3.6329 -1.719842,1.92746 -1.705285,1.96686 0.47589,1.28799 1.36542,-0.42497 2.25,-0.28064 2.25,0.3671 0,0.58707 -0.36399,1.06739 -0.80887,1.06739 -0.44488,0 -1.68238,0.65262 -2.75,1.45026 -1.890313,1.4123 -1.885181,1.4362 0.19601,0.91288 1.17543,-0.29556 2.43949,-0.0482 2.80902,0.54974 0.36953,0.59792 0.19532,1.08712 -0.38714,1.08712 -0.58246,0 -1.05902,0.66463 -1.05902,1.47695 0,0.81232 -1.125,2.21407 -2.5,3.11501 -3.329331,2.18146 -3.168383,3.49172 0.34265,2.78951 2.84225,-0.56845 2.84269,-0.56772 3.02912,5.13746 0.10255,3.13829 -0.25282,6.23528 -0.78971,6.88219 -0.53688,0.64691 -1.46765,4.2528 -2.06836,8.0131 -1.237265,7.74499 -3.367842,12.58578 -5.53938,12.58578 -0.810876,0 -1.53057,0.675 -1.59932,1.5 -0.06875,0.825 -0.20555,2.0625 -0.304001,2.75 -0.09845,0.6875 0.6328,2.05503 1.625,3.03895 1.921925,1.9059 1.963917,2.05567 2.302221,8.21105 0.120913,2.2 0.963029,9.4 1.871368,16 1.763782,12.81563 3.955842,40.42423 3.930202,49.5 -0.0692,24.48526 -0.52477,37 -1.34695,37 -0.54842,0 -1.03309,-5.83601 -1.14192,-13.75 -0.104,-7.5625 -0.353709,-11.05 -0.554912,-7.75 -0.201202,3.3 -0.791114,6.4275 -1.310915,6.95 -0.519801,0.5225 -1.012895,4.1225 -1.095765,8 l -0.150671,7.05 -0.774054,-9.5 c -0.425729,-5.225 -0.534429,-11.56606 -0.241556,-14.09125 0.365276,-3.14946 0.02761,-5.56761 -1.075275,-7.70034 -0.884275,-1.71 -1.607772,-4.25644 -1.607772,-5.65875 0,-1.40231 -0.435877,-2.54966 -0.968615,-2.54966 -0.532739,0 -0.703162,0.69176 -0.378719,1.53725 0.772993,2.01438 -2.293123,5.37522 -6.544338,7.17338 -4.068362,1.72082 -5.781716,0.56494 -7.18917,-4.85002 -0.595383,-2.29065 -0.710173,-0.49516 -0.36054,5.63939 0.897095,15.74015 0.967653,29.49652 0.1513,29.49829 -0.434545,9.4e-4 -0.722442,-4.61802 -0.639771,-10.26436 z m 20.91454,-12.1506 c 0.02022,-5.17232 -0.588741,-4.29043 -1.243996,1.80153 -0.321225,2.98646 -0.184571,4.34666 0.351633,3.5 0.482378,-0.76167 0.883941,-3.14736 0.892363,-5.30153 z M 88.287663,691.68441 c 2.737001,-2.30303 2.915955,-2.81196 1.956524,-5.56419 l -1.056019,-3.0293 -3.129799,3.40406 c -1.72139,1.87223 -3.773259,3.6156 -4.559709,3.87416 -2.060885,0.67754 -0.559682,3.85016 1.8218,3.85016 1.075063,0 3.310304,-1.1407 4.967203,-2.53489 z m -2.954049,-6.25705 c 2.71326,-2.63313 3.663524,-4.23752 3.10952,-5.25 -0.438798,-0.80193 -1.329746,-4.05162 -1.979884,-7.22153 -0.650138,-3.16991 -1.551753,-5.535 -2.00359,-5.25574 -0.888182,0.54892 -2.190311,-1.91234 -2.502815,-4.73079 -0.244147,-2.20194 0.404361,-2.22439 1.980738,-0.0686 1.749509,2.39259 3.013538,-21.06767 1.540595,-28.5933 -1.280162,-6.54065 -0.628793,-7.95278 0.95511,-2.07062 0.703319,2.61193 1.016057,10.55556 0.820893,20.85094 -0.357851,18.87765 0.942419,27.13158 4.27413,27.13158 2.18495,0 2.181123,0.0683 2.012258,-35.90175 l -0.100473,-21.40176 -5.663551,-2.85675 c -3.114953,-1.57122 -6.224692,-3.32246 -6.910531,-3.89166 -0.949983,-0.78841 -1.424535,-0.0123 -1.992466,3.25851 -0.782188,4.50478 -0.841653,5.47539 -1.934308,31.57243 -0.674032,16.09862 0.452555,29.46218 2.595395,30.78653 0.509607,0.31496 0.651854,1.01713 0.316104,1.56038 -0.63884,1.03367 0.264081,5.87407 1.095738,5.87407 0.263892,0 2.238104,-1.70637 4.387137,-3.79194 z m 7.079643,-66.95806 c -0.02377,-2.71676 -1.175979,-3.85954 -5.220759,-5.17804 -2.054839,-0.66983 -3.993897,-1.63504 -4.309017,-2.14492 -1.002259,-1.62169 -2.454911,-0.99875 -2.454911,1.05273 0,1.3393 1.698416,2.9538 5.25,4.99062 6.116659,3.50787 6.755247,3.6292 6.734687,1.27961 z m -0.649556,-8.42354 c 0.670452,-2.56381 0.06938,-3.82646 -1.821568,-3.82646 -0.752621,0 -2.265734,-1.14077 -3.362471,-2.53505 -2.2004,-2.79735 -1.816828,-3.16327 -3.724063,3.55264 -0.448955,1.5809 0.146269,2.32998 2.75,3.46086 4.543697,1.97346 5.49795,1.87243 6.158102,-0.65199 z m 5.053458,-7.61101 c 0.791972,-1.53151 1.742822,-4.56901 2.112999,-6.75 0.370177,-2.181 0.889081,-4.75295 1.153122,-5.71545 0.26403,-0.9625 -2.6e-4,-1.75 -0.587322,-1.75 -0.587064,0 -1.067388,0.88417 -1.067388,1.96482 0,2.12889 -2.735569,4.03902 -4.75,3.31672 -0.6875,-0.24651 -1.25,-1.50719 -1.25,-2.80152 0,-1.92406 -0.592794,-2.41046 -3.25,-2.66666 -2.567348,-0.24754 -3.550465,-0.99601 -4.680467,-3.56336 -0.786757,-1.7875 -1.825815,-3.25 -2.309017,-3.25 -0.483203,0 -0.553172,0.52647 -0.155488,1.16994 0.486179,0.78665 0.177903,0.96074 -0.940983,0.53138 -0.915225,-0.3512 -1.664045,-0.24017 -1.664045,0.24673 0,0.48691 0.5625,1.0746 1.25,1.30599 0.996111,0.33527 0.992607,0.73267 -0.01725,1.95659 -1.566121,1.89809 -0.585558,4.86199 1.361352,4.11489 0.98632,-0.37849 1.241335,-0.0602 0.823741,1.02799 -0.65851,1.71605 4.872658,12.18766 6.863931,12.9948 3.201454,1.29767 5.724362,0.54051 7.106818,-2.13286 z M 86.67857,597.55702 c -2.037435,-0.82212 -1.422621,-3.33772 0.815741,-3.33772 2.798084,0 6.126965,1.87918 5.40325,3.05017 -0.613774,0.99311 -4.073937,1.1531 -6.218991,0.28755 z m 10.25,-7.35142 c 0,-2.1435 -2.905668,-1.8339 -3.327118,0.35451 -0.257366,1.3364 0.149909,1.74367 1.486305,1.48631 1.012447,-0.19498 1.840813,-1.02335 1.840813,-1.84082 z m -2.849337,-4.45428 c -0.79683,-2.0765 0.880026,-2.80243 2.358475,-1.02101 0.679663,0.81895 1.743151,1.4821 2.363307,1.47368 0.620155,-0.008 0.452555,-0.45153 -0.372445,-0.98469 -1.189257,-0.76856 -1.213942,-0.97255 -0.119158,-0.98469 1.030049,-0.0114 1.229805,-0.94605 0.786307,-3.679 -0.602688,-3.71394 0.719226,-3.58035 1.619781,0.16369 0.31251,1.29922 0.52171,0.86516 0.59707,-1.2388 0.10279,-2.86987 -0.16878,-3.21523 -2.384,-3.03189 -1.375,0.1138 -2.5,0.55876 -2.5,0.9888 0,0.43004 -0.45,0.78189 -1,0.78189 -0.55,0 -1,-0.70489 -1,-1.56642 0,-1.11887 -0.785726,-1.47602 -2.75,-1.25 -2.60332,0.29954 -2.765996,0.62311 -3.049904,6.06642 l -0.299904,5.75 3.156893,0 c 2.364675,0 3.01553,-0.36839 2.593578,-1.46798 z m -7.00645,-2.03131 c -0.07932,-1.37462 -0.733271,-2.49962 -1.45323,-2.5 -0.719959,-3.9e-4 -1.126846,0.33679 -0.904192,0.74929 0.222654,0.4125 0.685088,1.5375 1.027632,2.5 0.890463,2.50208 1.497658,2.15994 1.32979,-0.74929 z m -1.802334,-6.50071 c 1.913722,-2.58845 2.858655,-3 6.888058,-3 3.452161,0 4.377431,-0.29263 3.54796,-1.1221 -1.858357,-1.85836 -7.2684,-2.06623 -7.944155,-0.30523 -0.325505,0.84825 -1.204171,1.30729 -1.952591,1.0201 -0.851619,-0.3268 -1.597823,0.42234 -1.994336,2.00217 -0.400593,1.59609 -1.139785,2.3301 -2.010193,1.99609 -0.783722,-0.30074 -1.376622,0.10426 -1.376622,0.94035 0,2.44085 2.486518,1.65442 4.841879,-1.53138 z m 2.158121,1 c 0,-0.55 -0.198442,-1 -0.440983,-1 -0.242541,0 -0.719098,0.45 -1.059017,1 -0.339919,0.55 -0.141476,1 0.440983,1 0.582459,0 1.059017,-0.45 1.059017,-1 z m -9.316886,-9.1875 c -0.319226,-0.79773 -0.556183,-0.56078 -0.604167,0.60417 -0.04342,1.05416 0.192928,1.64479 0.52522,1.3125 0.332291,-0.3323 0.367818,-1.1948 0.07895,-1.91667 z m 5.566886,155.45903 c 2.0625,-0.21574 5.4375,-0.21574 7.5,0 2.0625,0.21575 0.375,0.39226 -3.75,0.39226 -4.125,0 -5.8125,-0.17651 -3.75,-0.39226 z m 2.208665,-21.33841 c -0.362653,-0.58679 -0.05171,-0.98347 0.690983,-0.88152 2.465031,0.33838 3.453141,-0.0329 5.727906,-2.15215 3.179533,-2.96219 3.880795,-1.56689 0.773961,1.53994 -2.649676,2.64968 -6.042923,3.35435 -7.19285,1.49373 z"
         id="path2947" />
      <path
         style="fill:#7a7a7a"
         d="m 77.671932,715.7193 c -0.01814,-5.5 -0.590483,-12.7 -1.271866,-16 -1.024707,-4.96275 -0.991372,-6.96157 0.192828,-11.56222 1.267919,-4.9259 1.248616,-6.29871 -0.168725,-12 -3.106745,-12.49696 0.178807,-61.44435 4.593829,-68.43778 2.230438,-3.53303 2.635373,-8.74657 0.984979,-12.68162 -0.849257,-2.02489 -2.000922,-3.96395 -2.559256,-4.30902 -0.558333,-0.34506 -1.015151,-2.7029 -1.015151,-5.23964 0,-2.71562 -0.622646,-5.30026 -1.514168,-6.28538 -1.216895,-1.34465 -1.33801,-2.7344 -0.616903,-7.07874 0.551384,-3.32183 0.942329,-4.28127 1.014168,-2.48893 0.167594,4.18139 0.890968,2.84883 1.582989,-2.91609 0.327623,-2.72929 1.082359,-5.42095 1.677191,-5.98146 0.765815,-0.72164 0.905646,-0.28936 0.479033,1.48088 -0.556669,2.30992 -0.503694,2.28922 0.696731,-0.27216 1.247661,-2.66216 5.680959,-6.63696 5.680959,-5.09341 0,0.4113 0.660688,-0.12568 1.468197,-1.1933 1.880236,-2.4859 1.902269,-0.71317 0.0318,2.55887 -0.786021,1.375 -1.435192,3.175 -1.442603,4 -0.0074,0.825 0.829787,-0.35698 1.860438,-2.62663 2.185008,-4.81171 3.146527,-5.54598 7.956537,-6.07603 l 3.563881,-0.39274 -2.070361,2.2977 c -3.411604,3.78622 -3.894317,5.49944 -0.717835,2.5477 1.627659,-1.5125 3.239266,-2.75 3.581346,-2.75 1.41095,0 1.30446,3.63328 -0.15777,5.3829 -1.476,1.76608 -1.43403,1.83945 0.67637,1.18261 1.36542,-0.42497 2.25,-0.28064 2.25,0.3671 0,0.58707 -0.36399,1.06739 -0.80887,1.06739 -0.44488,0 -1.68238,0.65262 -2.75,1.45026 -1.890316,1.4123 -1.885184,1.4362 0.19601,0.91288 1.17543,-0.29556 2.43949,-0.0482 2.80902,0.54974 0.36953,0.59792 0.19532,1.08712 -0.38714,1.08712 -0.58246,0 -1.05902,0.66463 -1.05902,1.47695 0,0.81232 -1.125,2.21407 -2.500003,3.11501 -3.329331,2.18146 -3.168383,3.49172 0.342653,2.78951 2.84225,-0.56845 2.84269,-0.56772 3.02912,5.13746 0.10255,3.13829 -0.25282,6.23528 -0.78971,6.88219 -0.53688,0.64691 -1.45807,4.19288 -2.04708,7.87994 -1.279225,8.00758 -2.725456,11.48592 -5.087326,12.23555 -2.824765,0.89655 -3.412907,5.40129 -0.998833,7.65034 2.179391,2.03041 2.214602,2.14594 2.539786,8.33305 0.216819,4.12529 2.182481,20.69338 3.084683,26 0.83353,4.90272 2.83338,35.6311 2.6358,40.5 -0.10043,2.475 -0.55314,11.7 -1.00602,20.5 l -0.82343,16 -0.3789,-14 c -0.2084,-7.7 -0.543532,-11.3 -0.744735,-8 -0.201202,3.3 -0.791114,6.4275 -1.310915,6.95 -0.519801,0.5225 -0.945093,4.085 -0.945093,7.91667 0,3.83166 -0.242667,6.724 -0.53926,6.4274 -0.296593,-0.29659 -0.574131,-6.78409 -0.616751,-14.41666 -0.05424,-9.71362 -0.492522,-14.68762 -1.46074,-16.57775 -0.760787,-1.48519 -1.383249,-3.82113 -1.383249,-5.19098 0,-1.36986 -0.49821,-2.79856 -1.107134,-3.17489 -0.750411,-0.46378 -0.882472,0.0236 -0.409867,1.51264 0.864469,2.72371 -1.624222,5.75487 -6.374671,7.7642 -4.027834,1.70368 -5.706253,0.61124 -6.469193,-4.21063 -0.819642,-5.18024 -0.950219,-5.13833 -1.557888,0.5 -0.326018,3.025 -0.116357,7.525 0.465912,10 0.637383,2.70926 0.794144,8.47941 0.393931,14.5 l -0.664741,10 -0.03299,-10 z m 20.538841,-12.25 c 0.141591,-6.54171 -0.394539,-6.04372 -1.076584,1 -0.25297,2.6125 -0.142228,4.75 0.246092,4.75 0.38832,0 0.762041,-2.5875 0.830492,-5.75 z m 3.155587,-10.75 c 7.7e-4,-0.55 -0.47125,-0.18755 -1.04892,0.80545 -0.881474,1.51522 -1.304292,1.5956 -2.630248,0.5 -1.415221,-1.16935 -1.438694,-1.07863 -0.225159,0.87021 1.245899,2.00081 1.457164,2.04099 2.628857,0.5 0.70074,-0.92161 1.2747,-2.12566 1.27547,-2.67566 z m -13.078697,-1.03489 c 2.752412,-2.316 2.919844,-2.80081 1.938997,-5.61447 l -1.073548,-3.07958 -3.178969,3.47004 c -1.748433,1.90852 -3.792415,3.67451 -4.542181,3.92444 -2.002609,0.66753 -0.442877,3.83446 1.888498,3.83446 1.075063,0 3.310304,-1.1407 4.967203,-2.53489 z m -2.293768,-6.73443 3.065326,-2.93297 -1.965358,-7.36515 c -1.080947,-4.05083 -2.257775,-7.18442 -2.615174,-6.96354 -0.357399,0.22089 -1.193698,-0.46928 -1.858442,-1.5337 -0.688198,-1.10198 -0.787896,-1.93532 -0.231536,-1.93532 0.537399,0 0.705673,-0.7875 0.373942,-1.75 -0.503649,-1.46131 -0.353676,-1.42947 0.909109,0.19302 1.379669,1.77267 1.570768,0.80823 2.179604,-11 0.367041,-7.11866 0.429655,-14.06802 0.139144,-15.44302 -1.690718,-8.00221 -1.724312,-8.61655 -0.355435,-6.5 0.939413,1.45252 1.319104,7.47481 1.387047,22 0.101574,21.71496 1.137582,28.5 4.351668,28.5 1.639617,0 1.953002,-1.13202 2.561964,-9.25444 0.381608,-5.08994 0.423502,-18.02219 0.0931,-28.73834 l -0.600739,-19.48391 -4.249772,-2.06204 c -2.337375,-1.13411 -5.434224,-2.84385 -6.881886,-3.79942 -2.610104,-1.72286 -2.638099,-1.71407 -3.348023,1.05038 -0.878869,3.42234 -1.317168,10.41892 -2.147948,34.28777 -0.535767,15.39295 -0.369147,19.56324 0.992086,24.83077 0.899799,3.48192 1.635998,7.34442 1.635998,8.58333 0,4.40246 1.402508,4.25647 6.565325,-0.68342 z m 10.319046,-47.66512 c -0.36867,-0.78894 -0.645547,4.16106 -0.615282,11 l 0.05503,12.43444 0.615281,-11 c 0.338403,-6.05 0.31364,-11.6455 -0.05503,-12.43444 z m 2.77791,18.68444 c -0.277413,-0.6875 -0.504386,-0.125 -0.504386,1.25 0,1.375 0.226973,1.9375 0.504386,1.25 0.277412,-0.6875 0.277412,-1.8125 0,-2.5 z m -2.979167,-25.9375 c -0.319226,-0.79773 -0.556183,-0.56078 -0.604167,0.60417 -0.04342,1.05416 0.192928,1.64479 0.52522,1.3125 0.332291,-0.3323 0.367818,-1.1948 0.07895,-1.91667 z m -1,-11 c -0.319226,-0.79773 -0.556183,-0.56078 -0.604167,0.60417 -0.04342,1.05416 0.192928,1.64479 0.52522,1.3125 0.332291,-0.3323 0.367818,-1.1948 0.07895,-1.91667 z m -2.683114,-0.74107 c 0,-2.59213 -2.335137,-4.76649 -5.978247,-5.56665 -1.64935,-0.36226 -3.255536,-1.07403 -3.569302,-1.58172 -1.000148,-1.61827 -2.452451,-0.9925 -2.452451,1.05671 0,1.3393 1.698416,2.9538 5.25,4.99062 6.191331,3.55069 6.75,3.64182 6.75,1.10104 z m -0.620282,-8.32143 c 0.41657,-1.52905 0.07225,-2.57042 -1.074585,-3.25 -0.928161,-0.55 -2.699164,-1.96469 -3.935561,-3.14376 l -2.247995,-2.14375 -1.060788,3.04298 c -1.476789,4.23631 -1.406517,4.49309 1.689211,6.17256 3.90806,2.12015 5.923548,1.91403 6.629718,-0.67803 z m 5.949558,-9.5 c 2.211695,-7.05066 2.731274,-12.01279 1.314754,-12.55636 -0.755902,-0.29006 -1.193568,0.51933 -1.174471,2.172 0.02486,2.15143 -0.427853,2.63436 -2.469559,2.63436 -1.811189,0 -2.585923,-0.60374 -2.811853,-2.19125 -0.234751,-1.6495 -1.100085,-2.26759 -3.5,-2.5 -2.498774,-0.24199 -3.497457,-1.0115 -4.618614,-3.55875 -1.385887,-3.14871 -3.069533,-4.35047 -3.069533,-2.19098 0,0.58246 -0.45,0.7809 -1,0.44098 -0.55,-0.33992 -1,0.11008 -1,1 0,0.88992 0.45,1.33992 1,1 1.315214,-0.81285 1.290274,0.80973 -0.03278,2.13278 -1.377298,1.3773 -0.06404,4.61835 1.610898,3.97562 0.8079,-0.31002 1.11873,0.018 0.801173,0.84558 -0.619747,1.61503 2.906908,8.83222 5.662203,11.58751 1.077177,1.07718 3.272341,1.95851 4.878139,1.95851 2.607281,0 3.07904,-0.50817 4.409643,-4.75 z m -11.320917,-3.19931 c -1.127237,-0.73107 -1.209688,-1.24936 -0.3375,-2.12155 1.315216,-1.31522 6.980775,0.10258 6.61023,1.65419 -0.311414,1.30402 -4.501351,1.61619 -6.27273,0.46736 z M 96.92857,590.2193 c 0,-0.80994 -0.7875,-1.62427 -1.75,-1.80963 -1.227849,-0.23646 -1.75,0.30348 -1.75,1.80963 0,1.50615 0.522151,2.04609 1.75,1.80963 0.9625,-0.18536 1.75,-0.9997 1.75,-1.80963 z m -2.849337,-4.46798 c -0.79683,-2.0765 0.880026,-2.80243 2.358475,-1.02101 0.679663,0.81895 1.743151,1.4821 2.363307,1.47368 0.620155,-0.008 0.452555,-0.45153 -0.372445,-0.98469 -1.189257,-0.76856 -1.213942,-0.97255 -0.119158,-0.98469 1.019877,-0.0113 1.231419,-0.9361 0.809235,-3.53772 -0.339056,-2.08935 -0.188868,-3.28586 0.369157,-2.94098 0.517416,0.31978 0.940766,1.65331 0.940766,2.96339 0,1.31008 0.45,2.66008 1,3 1.11164,0.68703 1.29092,-1.8128 0.37505,-5.22959 -0.42958,-1.60263 -1.26933,-2.17399 -2.986343,-2.03189 -1.313789,0.10873 -2.388707,0.54955 -2.388707,0.97959 0,0.43004 -0.45,0.78189 -1,0.78189 -0.55,0 -1,-0.675 -1,-1.5 0,-1 -1,-1.5 -3,-1.5 -3,0 -3,0 -3,6 l 0,6 3.106989,0 c 2.3208,0 2.964448,-0.37146 2.543674,-1.46798 z m -7.00736,-4.22205 c -1.396155,-1.39616 -2.304725,0.41663 -1.348246,2.69003 l 1.051817,2.5 0.407366,-2.33586 c 0.224051,-1.28473 0.174129,-2.5691 -0.110937,-2.85417 z m -1.732775,-4.40282 c 2.051407,-2.77468 2.739439,-3.05684 6.688058,-2.7428 4.48252,0.35651 4.935688,0.14287 3.636101,-1.71419 -1.06122,-1.51645 -7.152917,-1.1969 -8.158337,0.42795 -0.469009,0.75797 -1.305902,1.09805 -1.859762,0.75575 -1.009165,-0.6237 -2.709493,2.09952 -2.334453,3.73882 0.109809,0.47998 -0.49375,0.6066 -1.341241,0.28139 -0.956796,-0.36716 -1.540894,-0.0346 -1.540894,0.87731 0,2.46676 2.496412,1.64103 4.910528,-1.62423 z m 2.089472,1.09285 c 0,-0.55 -0.198442,-1 -0.440983,-1 -0.242541,0 -0.719098,0.45 -1.059017,1 -0.339919,0.55 -0.141476,1 0.440983,1 0.582459,0 1.059017,-0.45 1.059017,-1 z m -1.541335,124.93312 c -0.362653,-0.58679 -0.05171,-0.98347 0.690983,-0.88152 2.647343,0.3634 3.878214,-0.0795 5.933685,-2.13493 2.994055,-2.99406 3.410506,-1.74158 0.474346,1.42659 -2.525298,2.72484 -5.926754,3.48661 -7.099014,1.58986 z"
         id="path2945" />
      <path
         style="fill:#505050"
         d="m 77.694664,715.0477 c -0.02259,-5.86937 -0.594146,-12.84437 -1.270115,-15.5 -0.917775,-3.60558 -0.954418,-5.96805 -0.144687,-9.3284 l 1.084347,-4.5 -0.500575,4.55983 c -0.275316,2.50791 0.08729,7.23291 0.805788,10.5 0.86912,3.95198 1.098841,9.11984 0.686343,15.44017 l -0.62002,9.5 -0.04108,-10.6716 z m 18.769223,2.6716 c -0.182293,-4.4 -0.232707,-10.7 -0.112031,-14 0.13448,-3.67747 -0.388839,-7.43915 -1.351937,-9.71788 -0.864242,-2.04484 -1.571349,-4.85734 -1.571349,-6.25 0,-1.39267 -0.480324,-2.53212 -1.067388,-2.53212 -0.620649,0 -0.795338,0.85715 -0.417381,2.04799 0.806369,2.54064 -0.790185,4.54147 -5.569379,6.97963 -4.473756,2.28234 -6.554478,1.18908 -7.299237,-3.83519 -0.396589,-2.67547 -0.235332,-3.09598 0.843791,-2.20039 1.025467,0.85106 2.250575,0.26452 5.295947,-2.53553 l 3.961869,-3.64272 -1.374111,-4.56583 c -0.755761,-2.5112 -1.32191,-5.5068 -1.25811,-6.65689 0.111458,-2.00917 0.134014,-2.01274 0.5759,-0.0911 1.751083,7.61508 2.485988,9.31326 4.227503,9.76867 1.748761,0.45731 1.95935,-0.32849 2.582187,-9.63537 0.372978,-5.57332 0.427771,-18.6832 0.121762,-29.13307 l -0.556379,-18.99977 -7.032703,-3.68123 -7.032703,-3.68123 -0.633949,3.9645 c -0.348672,2.18048 -0.86288,3.73557 -1.142684,3.45577 -0.761127,-0.7611 1.923517,-12.75657 3.370114,-15.05824 2.22573,-3.54134 2.628029,-8.75068 0.979358,-12.68162 -0.849257,-2.02489 -2.000922,-3.96395 -2.559256,-4.30902 -1.46561,-0.90579 -1.249475,-2.83952 0.566484,-5.06823 1.268281,-1.55655 1.477531,-1.60722 1.056177,-0.25574 -0.289002,0.92697 -0.213238,1.86571 0.168365,2.08611 0.381603,0.22039 0.131323,0.26359 -0.556177,0.096 -1.454414,-0.35456 -1.580876,0.56177 -0.346491,2.51062 0.480086,0.75797 1.331229,1.09484 1.891429,0.74862 0.589917,-0.36459 0.839531,0.10753 0.593156,1.12189 -0.233963,0.96326 0.912977,4.06287 2.548757,6.88804 3.416074,5.89992 7.918496,8.36513 10.522331,5.7613 2.697445,-2.69745 5.096798,-16.34576 3.00035,-17.06699 -0.572258,-0.19688 -1.022258,0.88562 -1,2.40554 0.03356,2.29185 -0.386205,2.76349 -2.459532,2.76349 -1.831244,0 -2.585481,-0.60188 -2.819551,-2.25 -0.244745,-1.72328 -0.976899,-2.25 -3.127555,-2.25 -1.544403,0 -3.243249,-0.5625 -3.775215,-1.25 -1.576865,-2.0379 -2.288459,-4.75 -1.246294,-4.75 0.532738,0 0.968615,0.94814 0.968615,2.10699 0,1.46203 0.459152,1.93079 1.5,1.53138 0.825,-0.31658 1.5,-0.13972 1.5,0.39301 0,0.53274 1.35,0.96862 3,0.96862 2,0 3,-0.5 3,-1.5 0,-0.825 0.45,-1.5 1,-1.5 0.55,0 1,0.45 1,1 0,0.55 0.7875,0.99311 1.75,0.98469 1.495547,-0.0131 1.531897,-0.15626 0.25,-0.98469 -1,-0.64625 -1.083333,-0.97448 -0.25,-0.98469 1.763891,-0.0216 1.568442,-5.50614 -0.25,-7.01531 -1.209173,-1.00353 -1.506166,-0.97879 -1.531803,0.12755 -0.0228,0.98366 -0.408123,0.87671 -1.360243,-0.37755 -0.730642,-0.9625 -2.286186,-1.75 -3.456766,-1.75 -2.215202,0 -6.151188,2.78005 -6.151188,4.34469 0,0.49511 0.5625,0.43448 1.25,-0.13474 0.951752,-0.788 1.279386,-0.28037 1.373159,2.12756 0.06774,1.73937 -0.07776,2.37499 -0.323324,1.41249 -0.476595,-1.86802 -6.299835,-2.5903 -6.299835,-0.78139 0,1.73419 -2.565594,0.0368 -4.247202,-2.80994 -1.29111,-2.18568 -1.464962,-3.83278 -0.814701,-7.71864 0.656392,-3.9225 0.878942,-4.3221 1.080466,-1.94003 0.210267,2.48541 0.32847,2.61152 0.689114,0.73517 0.239421,-1.24566 0.748921,-2.07101 1.132221,-1.83412 0.383301,0.23689 0.533885,-1.27877 0.334632,-3.36813 -0.214101,-2.24505 0.128955,-4.10245 0.83873,-4.54112 0.858036,-0.53029 1.030461,-0.064 0.60379,1.63297 -0.490399,1.95039 -0.36484,1.8794 0.701991,-0.39693 1.247661,-2.66216 5.680959,-6.63696 5.680959,-5.09341 0,0.4113 0.689321,-0.12568 1.531824,-1.1933 1.375765,-1.74337 1.375765,-1.54665 0,1.93099 -2.269524,5.73688 -1.779644,6.79814 0.759396,1.64514 1.811972,-3.67741 2.836339,-4.60682 5.702002,-5.17344 4.205512,-0.83155 4.813678,-0.42169 2.819418,1.90005 -3.174578,3.69587 -3.084171,4.63927 0.182277,1.90206 3.143103,-2.63386 3.458633,-2.71102 4.089403,-1 0.44726,1.21323 -0.0541,2.67866 -1.45041,4.23979 l -2.13391,2.38571 2.18426,-1.13571 c 2.68392,-1.39552 3.31574,-1.42138 3.31574,-0.13572 0,0.55 -0.6199,1 -1.37755,1 -0.75766,0 -1.99163,0.73991 -2.74216,1.64425 -1.217003,1.46639 -1.111405,1.56388 0.97627,0.90127 2.10589,-0.66838 2.26904,-0.50718 1.62528,1.60576 -0.39359,1.2918 -1.90051,3.33705 -3.348723,4.545 -2.233463,1.86293 -2.799904,1.97912 -3.731994,0.76554 -0.604382,-0.7869 -1.391882,-1.13773 -1.75,-0.77961 -0.358118,0.35812 -0.651123,0.0996 -0.651123,-0.57456 0,-0.73126 -0.504233,-0.91 -1.25,-0.4431 -0.6875,0.43042 -1.886261,0.79448 -2.663912,0.80902 -0.777652,0.0145 -1.602652,0.58893 -1.833334,1.27643 -0.40686,1.21257 1.578675,1.49951 11.670165,1.68656 3.390021,0.0628 3.426681,0.11259 3.814551,5.17746 0.2797,3.65242 -0.0419,5.54757 -1.1253,6.63096 -0.83431,0.83431 -1.3658,1.683 -1.18109,1.88597 0.61046,0.67082 -1.270546,12.06727 -2.469455,14.96169 -0.647195,1.56247 -1.997047,3.10121 -2.999672,3.41944 -1.002625,0.31822 -2.117113,1.91787 -2.47664,3.55479 -0.521384,2.37385 -0.187008,3.3541 1.652126,4.84334 1.842997,1.49237 2.335468,2.94323 2.453571,7.22846 0.143032,5.18972 2.853292,29.05952 3.8145,33.59509 0.26037,1.22857 0.56128,6.17857 0.66868,11 0.1074,4.82143 0.61647,11.90105 1.13127,15.73249 1.03123,7.6751 0.45897,12.72646 -1.68458,14.87001 -0.7703,0.7703 -1.571512,3.59727 -1.780466,6.28215 l -0.379918,4.88159 -0.321046,-5.5 -0.321046,-5.5 -0.683028,5.5 c -0.375665,3.025 -0.424806,5.725 -0.109202,6 0.315604,0.275 0.318847,4.1 0.0072,8.5 l -0.566621,8 -0.331442,-8 z m 4.504613,-39 c -0.34892,-8.25 -1.288615,-20.625 -2.088202,-27.5 -0.799588,-6.875 -1.694388,-14.64171 -1.988445,-17.25935 -0.294057,-2.61764 -0.978942,-5.76764 -1.521966,-7 -0.955766,-2.16905 -0.972471,-2.16076 -0.522751,0.25935 0.45852,2.46746 0.720304,23.36563 0.630696,50.34848 -0.03788,11.40654 0.260005,14.36648 1.689345,16.78616 1.620068,2.74256 1.82502,2.81905 3.085533,1.15153 1.06362,-1.40705 1.21555,-4.96995 0.71579,-16.78617 z m -12.48751,12.74447 c 2.818737,-2.51854 2.987488,-3.0093 1.962117,-5.70623 l -1.121856,-2.95071 -3.263039,3.5618 c -1.794671,1.95899 -3.876484,3.76628 -4.62625,4.01621 -2.031664,0.67722 -0.426517,3.83446 1.949447,3.83446 1.108584,0 3.403396,-1.23999 5.099581,-2.75553 z m 6.04136,-74.55069 c -1.305941,-1.30594 -1.487593,0.14136 -0.373324,2.97443 0.69488,1.76676 0.733708,1.7659 1.09378,-0.0244 0.205328,-1.02092 -0.118877,-2.34842 -0.720456,-2.95 z m -2.09378,1.74048 c 0,-2.60818 -1.965992,-5.43389 -3.785184,-5.44042 -0.943149,-0.003 -3.003754,-0.67839 -4.579123,-1.5 -3.620765,-1.88836 -3.635693,-1.88637 -3.635693,0.48593 0,1.3393 1.698416,2.9538 5.25,4.99062 6.030461,3.45843 6.75,3.61448 6.75,1.46387 z m -0.986345,-7.18426 c 0.0075,-0.4125 0.284994,-1.7625 0.616631,-3 0.448269,-1.67271 0.176529,-2.25 -1.059109,-2.25 -0.914147,0 -2.745468,-1.08338 -4.069602,-2.40752 l -2.407516,-2.40751 -1.118129,3.38796 c -0.614971,1.86338 -0.815087,3.8783 -0.444703,4.4776 1.297169,2.09886 8.45049,3.9537 8.482428,2.19947 z m 5.798186,-20.98852 c -0.502012,-2.60673 -3.811841,-2.89745 -3.811841,-0.3348 0,1.43109 0.642225,2.07332 2.073324,2.07332 1.431099,0 1.969616,-0.53852 1.738517,-1.73852 z m 4.689629,-11.25277 c -0.47841,-2.83171 -1.04955,-3.73562 -2.10456,-3.33078 -1.084527,0.41617 -1.170313,0.89018 -0.341784,1.88849 0.608394,0.73307 1.022194,2.59302 0.919564,4.13322 -0.28399,4.26154 -0.0145,4.97339 1.13476,2.99792 0.58981,-1.01381 0.76134,-3.50289 0.39202,-5.68885 z m -16.691882,-1.96503 c 1.679991,-2.27231 1.828832,-2.96845 0.725228,-3.39195 -1.67312,-0.64203 -3.969368,1.83613 -3.061889,3.30446 0.999349,1.61698 -0.138758,1.23344 -2.095545,-0.70619 -1.681826,-1.66708 -1.73259,-1.66321 -1.071428,0.0818 0.381725,1.00748 0.694046,2.45586 0.694046,3.21861 0,2.02245 2.376939,0.78361 4.809588,-2.50672 z m 8.606315,-15.68512 c 0.526667,-1.37248 0.380336,-1.43434 -0.893011,-0.37756 -1.735245,1.44013 -1.91584,2.019 -0.629881,2.019 0.491156,0 1.176458,-0.73865 1.522892,-1.64144 z m 6.975817,150.64144 c 0,-7.425 0.15742,-10.4625 0.34983,-6.75 0.19241,3.7125 0.19241,9.7875 0,13.5 -0.19241,3.7125 -0.34983,0.675 -0.34983,-6.75 z m -14.248483,-8.89031 c -0.953548,-0.6042 -0.566463,-0.85969 1.302493,-0.85969 1.46259,0 3.859516,-1.06875 5.326501,-2.375 2.039852,-1.81635 2.321532,-1.90456 1.197508,-0.375 -3.079482,4.19051 -5.296264,5.21292 -7.826502,3.60969 z M 78.389096,685.7193 c -0.108552,-0.55 -0.144834,-1.33523 -0.08063,-1.74496 0.06421,-0.40973 -0.809571,-4.12141 -1.941731,-8.24817 -1.132161,-4.12676 -1.861345,-7.84152 -1.620409,-8.25503 0.240935,-0.41351 0.756849,-9.97684 1.146475,-21.25184 0.389626,-11.275 0.935469,-20.725 1.212985,-21 0.277517,-0.275 0.181503,10.075 -0.213363,23 -0.632578,20.70596 -0.511455,24.23371 1.018738,29.67109 0.955172,3.39411 1.497866,6.76911 1.205988,7.5 -0.291879,0.7309 -0.619504,0.87891 -0.728057,0.32891 z m 4.970574,-18.41667 c -0.0379,-0.32083 -0.237691,-1.87237 -0.443992,-3.44786 -0.347876,-2.6567 -0.272627,-2.72925 1.037097,-1 1.297569,1.7132 1.41477,1.56016 1.443992,-1.88547 0.01749,-2.0625 0.369303,-3.75061 0.781803,-3.75136 0.4125,-7.5e-4 0.600201,2.39925 0.417113,5.33333 -0.235873,3.78 -0.745876,5.3347 -1.75,5.3347 -0.779412,0 -1.448118,-0.2625 -1.486013,-0.58334 z m 3.418314,-23.08333 c 0,-4.675 0.172256,-6.5875 0.382791,-4.25 0.210535,2.3375 0.210535,6.1625 0,8.5 -0.210535,2.3375 -0.382791,0.425 -0.382791,-4.25 z m -1.226887,-10 c -0.08241,-0.825 -0.399653,-2.625 -0.704984,-4 -0.47985,-2.16091 -0.401257,-2.25874 0.579437,-0.72124 0.624022,0.97831 0.941265,2.77831 0.704985,4 -0.236281,1.22168 -0.497027,1.54624 -0.579438,0.72124 z m 0.974394,-37.38322 c -0.880873,-1.06138 -0.815469,-1.51081 0.281104,-1.9316 2.155302,-0.82707 5.621975,0.36392 5.621975,1.93145 0,1.80418 -4.405774,1.80429 -5.903079,1.5e-4 z"
         id="path2943" />
      <path
         style="fill:#292929"
         d="m 77.783525,716.7193 c -0.003,-4.95 0.166052,-7.10108 0.375776,-4.78017 0.209724,2.3209 0.212217,6.3709 0.0055,9 -0.206677,2.62909 -0.378269,0.73017 -0.381317,-4.21983 z m 18.574903,0 c -0.302533,-4.95 -0.523015,-9.06711 -0.489959,-9.14914 0.03306,-0.082 0.510101,0.36797 1.060101,1 0.584907,0.67214 0.788286,4.46988 0.489959,9.14914 l -0.51004,8 -0.550061,-9 z m 2.13681,-13.5 c -0.268474,-4.8685 -0.396593,-5.15555 -1.115846,-2.5 -0.802721,2.96372 -0.810781,2.956 -0.666399,-0.63813 0.08038,-2.00097 -0.441182,-4.34583 -1.159032,-5.21078 -0.717851,-0.86496 -1.548981,-3.3903 -1.846956,-5.61187 -0.493451,-3.67895 -2.228488,-5.76985 -2.314511,-2.78922 -0.01984,0.6875 -0.919841,-1.20773 -2,-4.21161 -1.080158,-3.00389 -1.928398,-5.92889 -1.884977,-6.5 0.04342,-0.57112 0.521741,0.17157 1.062932,1.65041 0.541192,1.47883 1.743165,2.83794 2.671053,3.02024 1.432705,0.28147 1.843372,-1.10394 2.723757,-9.1888 l 1.03669,-9.52024 -0.02552,15.06103 c -0.02196,12.96084 0.230724,15.4521 1.812063,17.86553 1.710936,2.61122 1.951385,2.69014 3.488828,1.14518 1.30577,-1.31216 1.62303,-3.48086 1.51636,-10.36554 l -0.13489,-8.7062 0.93388,7 c 0.91699,6.87341 -0.27796,14.5 -2.2719,14.5 -0.433226,0 -0.952958,2.3625 -1.15496,5.25 l -0.367277,5.25 -0.303297,-5.5 z m -20.376312,3.25 c -0.688704,-1.20775 -1.921235,-8.80193 -1.334338,-8.22146 0.632913,0.62598 2.583318,8.97146 2.096702,8.97146 -0.184077,0 -0.527141,-0.3375 -0.762364,-0.75 z m 8.309644,-3.33082 c -1.191844,-0.83444 -1.061158,-0.9276 0.636137,-0.45344 1.471028,0.41095 3.147661,-0.25438 5.384853,-2.13686 2.670237,-2.24685 3.01172,-2.35412 1.917759,-0.60241 -0.732027,1.17216 -2.388884,2.61323 -3.681906,3.20237 -2.805693,1.27836 -2.415899,1.27924 -4.256843,-0.01 z M 83.8329,694.9802 c 1.047382,-0.69349 3.485562,-2.6109 5.418179,-4.2609 3.011144,-2.57081 3.341941,-2.67857 2.312234,-0.75327 -0.660888,1.23571 -3.099068,3.15311 -5.418179,4.26091 -2.31911,1.10779 -3.359615,1.44676 -2.312234,0.75326 z m -7.209381,-6.2609 c 0.02038,-1.65 0.244498,-2.20394 0.498042,-1.23097 0.253543,0.97297 0.236869,2.32297 -0.03705,3 -0.273927,0.67703 -0.481372,-0.11903 -0.460992,-1.76903 z m 2.389148,-0.14144 c -0.515782,-1.34411 -0.365558,-1.42208 0.829308,-0.43043 1.186573,0.98477 2.059281,0.63754 4.671206,-1.85855 3.761697,-3.59488 5.037522,-4.04095 2.344142,-0.81958 -4.195389,5.01782 -6.727039,6.02102 -7.844656,3.10856 z M 78.46333,686.2193 c -0.108484,-0.275 -0.327925,-1.625 -0.487648,-3 -0.159723,-1.375 -0.58139,-4.075 -0.937038,-6 -0.451878,-2.44586 -0.172427,-2.04259 0.927841,1.33894 0.865961,2.66142 1.376388,5.58642 1.134281,6.5 -0.242106,0.91359 -0.528953,1.43606 -0.637436,1.16106 z m 22.13811,-17 c -0.11687,-4.125 -0.616177,-10.425 -1.109576,-14 -0.493398,-3.575 -1.132225,-10.325 -1.419614,-15 -0.50218,-8.16903 -0.487459,-8.24691 0.378074,-2 2.338206,16.8758 3.128156,26.02785 2.762056,32 l -0.39845,6.5 -0.21249,-7.5 z m -16.835775,-2.41667 c 0.215957,-0.59583 -0.02339,-1.89141 -0.531881,-2.87906 -0.828767,-1.60973 -0.71119,-1.6625 1.135128,-0.50945 2.402073,1.50012 2.75553,4.47185 0.53188,4.47185 -0.840278,0 -1.351085,-0.4875 -1.135127,-1.08334 z m 1.857854,-6.08333 c 0.02038,-1.65 0.244498,-2.20394 0.498042,-1.23097 0.253543,0.97297 0.236869,2.32297 -0.03705,3 -0.273927,0.67703 -0.481372,-0.11903 -0.460992,-1.76903 z m 8.499108,-16.86072 c -0.443269,-9.8234 -0.601961,-18.06471 -0.352649,-18.31402 0.718543,-0.71854 1.848044,21.45134 1.486381,29.17474 -0.209054,4.46439 -0.619726,0.5303 -1.133732,-10.86072 z M 76.16507,643.2193 c 0.28485,-9.625 0.685667,-17.6875 0.890704,-17.91667 0.641523,-0.71702 0.212135,18.01029 -0.617158,26.91667 -0.537391,5.77143 -0.625201,2.88236 -0.273546,-9 z m 10.612914,1 c 0,-4.675 0.172256,-6.5875 0.382791,-4.25 0.210535,2.3375 0.210535,6.1625 0,8.5 -0.210535,2.3375 -0.382791,0.425 -0.382791,-4.25 z m -1.191519,-11 c 0,-1.375 0.226973,-1.9375 0.504386,-1.25 0.277412,0.6875 0.277412,1.8125 0,2.5 -0.277413,0.6875 -0.504386,0.125 -0.504386,-1.25 z m 10.426934,-5.39952 c -0.350765,-1.86973 -1.188346,-3.85457 -1.861291,-4.41074 -2.829579,-2.33858 -14.723538,-7.9521 -14.723538,-6.94898 0,0.60092 -0.270061,0.82251 -0.600136,0.49244 -0.330074,-0.33008 -0.305494,-1.07688 0.05462,-1.65956 0.420082,-0.67971 2.801078,0.0576 6.643099,2.05717 3.293588,1.71413 6.24805,2.85689 6.565473,2.53946 1.093278,-1.09328 -0.725826,-5.75684 -2.442859,-6.26266 -0.946107,-0.27872 -3.407697,-1.39789 -5.470197,-2.48704 -2.473932,-1.30643 -3.75,-1.57313 -3.75,-0.78376 0,0.65809 -0.218196,0.97833 -0.484881,0.71164 -0.266684,-0.26668 0.421655,-2.25418 1.529641,-4.41666 l 2.014522,-3.93179 -0.279641,3.45687 c -0.229907,2.84207 0.164981,3.67179 2.220359,4.66535 1.375,0.66467 3.4,1.35908 4.5,1.54313 4.333653,0.72513 6.223444,3.93561 6.819076,11.58465 0.604811,7.76691 0.300178,9.36444 -0.734247,3.85048 z m -1.491049,-10.9067 c -1.305941,-1.30594 -1.487593,0.14136 -0.373324,2.97443 0.69488,1.76676 0.733708,1.7659 1.09378,-0.0244 0.205328,-1.02092 -0.118877,-2.34842 -0.720456,-2.95 z m -16.898831,3.80622 c 0.02038,-1.65 0.244498,-2.20394 0.498042,-1.23097 0.253543,0.97297 0.236869,2.32297 -0.03705,3 -0.273927,0.67703 -0.481372,-0.11903 -0.460992,-1.76903 z M 92.42857,607.19786 c 0,-0.53821 -0.659485,-0.97856 -1.465522,-0.97856 -1.875714,0 -7.534478,-5.4957 -7.534478,-7.31736 0,-0.76162 -1.12654,-3.50349 -2.503421,-6.09305 -1.948791,-3.66517 -2.273319,-5.13824 -1.464816,-6.64894 1.317974,-2.46266 1.88351,-2.46596 1.698502,-0.01 -0.07999,1.0619 -0.502023,1.71034 -0.937851,1.44098 -1.047649,-0.64748 -0.984526,0.77664 0.111095,2.50641 0.480086,0.75797 1.368041,1.0721 1.973233,0.69807 0.675368,-0.4174 0.885343,-0.11976 0.54366,0.77065 -0.913227,2.37983 4.28499,11.44946 7.521447,13.1231 3.815824,1.97324 5.56485,1.19701 7.430725,-3.2978 1.734365,-4.178 2.168013,-3.02131 0.577651,1.54081 -0.995828,2.8566 -5.950225,6.40833 -5.950225,4.26559 z M 87.058593,597.0855 c -1.318805,-0.77568 -1.520812,-1.31566 -0.685355,-1.832 1.696234,-1.04833 6.210084,10e-4 5.764276,1.34037 -0.522771,1.57027 -2.860326,1.79653 -5.078921,0.49163 z m 12.369977,-3.80718 c 0,-1.61754 0.355955,-3.16098 0.79101,-3.42986 0.43506,-0.26888 0.61082,1.05457 0.39059,2.94099 -0.49064,4.2027 -1.1816,4.48857 -1.1816,0.48887 z m -6.333333,-0.72569 c -0.366667,-0.36666 -0.666667,-1.49166 -0.666667,-2.5 0,-1.28889 -0.742424,-1.83333 -2.5,-1.83333 -1.744361,0 -2.476138,-0.52895 -2.421053,-1.75 0.04716,-1.04544 0.282017,-1.24674 0.583334,-0.5 0.739523,1.83273 6.337719,1.6119 6.337719,-0.25 0,-0.825 0.395406,-1.5 0.87868,-1.5 1.314446,0 3.435996,5.73758 2.766586,7.48204 -0.589423,1.53601 -3.752949,2.07694 -4.978599,0.85129 z m 4.145174,-2.07185 c -0.502012,-2.60673 -3.811841,-2.89745 -3.811841,-0.3348 0,1.43109 0.642225,2.07332 2.073324,2.07332 1.431099,0 1.969616,-0.53852 1.738517,-1.73852 z m 1.661167,-3.30515 c -0.325073,-0.52598 0.08396,-0.95633 0.908958,-0.95633 2.306694,0 2.884454,-1.73774 2.167444,-6.51909 -0.49368,-3.29207 -1.02128,-4.23707 -2.128422,-3.81222 -1.101268,0.4226 -1.194398,0.89941 -0.369748,1.89305 0.60626,0.7305 0.90403,2.36544 0.66171,3.63322 -0.407952,2.1343 -0.450673,2.11042 -0.576768,-0.32252 -0.146278,-2.82235 -3.108227,-6.32369 -3.167985,-3.74489 -0.0228,0.98366 -0.408123,0.87671 -1.360243,-0.37755 -2.108433,-2.77751 -6.222089,-2.19093 -8.766075,1.25 -1.219898,1.65 -2.77087,3 -3.446604,3 -0.675735,0 -1.455582,0.5625 -1.732994,1.25 -0.379323,0.94006 -0.523961,0.91685 -0.583334,-0.0936 -0.04342,-0.73899 0.714452,-1.5511 1.684163,-1.80468 0.96971,-0.25359 2.523781,-1.78646 3.45349,-3.40638 1.432901,-2.49669 2.306743,-2.94532 5.73689,-2.94532 2.22558,0 4.04651,0.43886 4.04651,0.97525 0,0.63182 0.909914,0.6293 2.583916,-0.007 1.421154,-0.54032 2.978724,-0.7384 3.461264,-0.44017 1.27355,0.7871 2.27509,7.0599 1.57351,9.8552 -0.64561,2.57232 -3.175669,4.14271 -4.145682,2.5732 z m -14.127931,-1.49946 c -0.325685,-0.84872 -0.368713,-1.76657 -0.09562,-2.03966 0.273094,-0.2731 0.736558,0.42131 1.029919,1.54313 0.62315,2.38293 -0.06922,2.75089 -0.9343,0.49653 z m -7.862112,-6.85864 c -1.775648,-3.29718 -1.786169,-3.60571 -0.183353,-5.3768 0.935214,-1.0334 1.700388,-2.21312 1.700388,-2.6216 0,-0.40848 0.70825,-1.45094 1.573889,-2.31658 0.865638,-0.86564 1.203138,-1.84599 0.75,-2.17857 -0.453139,-0.33257 -0.955153,-1.50468 -1.115587,-2.60468 -0.238946,-1.63831 -0.109775,-1.72874 0.714267,-0.5 0.818099,1.21987 1.212441,0.90803 2.111574,-1.66982 0.933599,-2.67667 2.513226,-4.12258 4.965857,-4.5455 0.275,-0.0474 1.063306,-0.80587 1.751791,-1.68545 0.688485,-0.87957 0.418984,0.42577 -0.598891,2.90077 -1.234451,3.00161 -2.456429,4.50141 -3.669872,4.50424 -1.000554,0.002 -2.01074,0.5789 -2.244858,1.28125 -0.234119,0.70236 0.179017,1.15045 0.91808,0.99576 0.739062,-0.15469 1.224732,0.39375 1.079266,1.21875 -0.422293,2.395 2.723886,-1.91592 4.920258,-6.74178 1.395142,-3.0654 2.681236,-4.40589 4.637384,-4.83352 1.488763,-0.32546 3.269342,-0.76504 3.956842,-0.97684 1.483176,-0.45693 1.685349,1.16505 0.255377,2.04882 -0.547042,0.33809 -1.508115,1.60214 -2.135717,2.80901 l -1.141095,2.19431 2.385718,-2.10123 c 3.754407,-3.30672 5.337577,-4.01867 4.587037,-2.06282 -0.36604,0.9539 -0.15079,1.66405 0.50438,1.66405 0.62861,0 0.052,1.18607 -1.28139,2.63572 -2.302422,2.5032 -2.314237,2.57848 -0.235,1.49729 1.43739,-0.74743 2.40215,-0.79404 2.80902,-0.13571 0.34084,0.55148 -0.0268,1.0027 -0.81687,1.0027 -0.79011,0 -2.05064,0.73991 -2.80117,1.64425 -1.213053,1.46163 -1.115591,1.56521 0.87755,0.93261 2.57531,-0.81737 2.66155,-0.59142 1.0904,2.85686 -0.63346,1.39031 -1.98346,2.79181 -2.999997,3.11445 -1.016534,0.32263 -1.848243,1.00628 -1.848243,1.51922 0,0.51293 -0.923019,0.01 -2.051152,-1.11854 -2.145441,-2.14544 -4.959487,-1.95465 -7.948848,0.53894 -0.825,0.68818 -2.024313,1.06018 -2.665141,0.82668 -0.640828,-0.23351 -1.458652,0.50021 -1.817388,1.63048 -0.734207,2.31329 -2.064088,2.67932 -2.924907,0.80505 -0.315756,-0.6875 -0.325814,-0.24658 -0.02235,0.97982 0.303464,1.2264 0.156818,2.93553 -0.325879,3.79806 -0.714554,1.27684 -1.227655,0.91828 -2.76137,-1.92965 z M 93.790196,561.7193 c 0.316583,-0.825 0.187873,-1.5 -0.286022,-1.5 -0.473895,0 -1.120648,0.675 -1.43723,1.5 -0.316583,0.825 -0.187873,1.5 0.286022,1.5 0.473895,0 1.120648,-0.675 1.43723,-1.5 z m -7.830589,-1.44978 c -0.368078,-0.59556 -1.136183,-0.79425 -1.706898,-0.44153 -0.67187,0.41524 -0.569592,0.93059 0.290138,1.46194 1.604761,0.99179 2.33522,0.46569 1.41676,-1.02041 z m -9.336088,9.44978 c 0.02038,-1.65 0.244498,-2.20394 0.498042,-1.23097 0.253543,0.97297 0.236869,2.32297 -0.03705,3 -0.273927,0.67703 -0.481372,-0.11903 -0.460992,-1.76903 z"
         id="path2941" />
      <path
         style="fill:#000000"
         d="m 96.777984,717.2193 c 0,-4.675 0.172256,-6.5875 0.382791,-4.25 0.210535,2.3375 0.210535,6.1625 0,8.5 -0.210535,2.3375 -0.382791,0.425 -0.382791,-4.25 z m 1.902769,-13.5 c 0.0111,-2.2 0.215885,-2.98225 0.455078,-1.73834 0.239193,1.24391 0.230112,3.04391 -0.02018,4 -0.250293,0.95609 -0.445997,-0.0617 -0.434898,-2.26166 z m -21.680754,-2.07143 c -0.367821,-1.46551 -0.475908,-2.85742 -0.240193,-3.09314 0.235714,-0.23571 0.729515,0.77049 1.097335,2.236 0.367821,1.46551 0.475908,2.85742 0.240193,3.09314 -0.235714,0.23571 -0.729515,-0.77049 -1.097335,-2.236 z m 9.428571,1.49061 c -1.191844,-0.83444 -1.061158,-0.9276 0.636137,-0.45344 1.444361,0.4035 3.225506,-0.25974 5.5,-2.04801 l 3.363863,-2.64478 -3.265777,3.11353 c -3.589987,3.42262 -4.039605,3.56922 -6.234223,2.0327 z m 10.157895,-1.91918 c 0,-1.375 0.226973,-1.9375 0.504386,-1.25 0.277412,0.6875 0.277412,1.8125 0,2.5 -0.277413,0.6875 -0.504386,0.125 -0.504386,-1.25 z m 0.05603,-4.92453 c -1.243143,-1.68144 -2.495473,-4.52378 -2.782958,-6.31632 -0.515076,-3.21162 -0.501826,-3.20433 0.908589,0.50033 0.787208,2.06771 2.026292,4.47641 2.753521,5.35267 1.193613,1.43821 1.496586,1.37788 3.114583,-0.62026 0.98578,-1.2174 1.79234,-1.76346 1.79234,-1.21346 0,0.55 -0.79331,1.9797 -1.76291,3.1771 l -1.762911,2.17711 -2.260258,-3.05717 z M 82.42857,695.81455 c 0,-0.30503 1.75849,-1.45172 3.907755,-2.54819 2.149265,-1.09647 4.140515,-2.46687 4.425,-3.04532 0.284485,-0.57846 0.405439,-0.47799 0.268786,0.22326 -0.242938,1.24667 -8.601541,6.46525 -8.601541,5.37025 z m -3,-6.65427 c 0,-0.58246 0.435611,-0.78979 0.968025,-0.46074 0.532413,0.32905 2.399155,-0.76939 4.148314,-2.44098 3.734621,-3.56901 4.996727,-3.99978 2.312414,-0.78926 -3.76251,4.50008 -7.428753,6.32166 -7.428753,3.69098 z m 10.711163,-4.61032 c -0.314106,-1.55686 -0.914936,-3.73066 -1.335178,-4.83066 -0.733658,-1.92038 -0.692439,-1.92898 1.035341,-0.21606 0.992367,0.98384 2.572351,1.53863 3.522765,1.23698 1.427251,-0.45299 1.647625,-0.031 1.282626,2.45585 -0.244385,1.6651 -0.886119,2.72755 -1.440522,2.38491 -0.549891,-0.33985 -1.335981,-0.074 -1.746866,0.59087 -0.474068,0.76705 -0.95576,0.17437 -1.318166,-1.62189 z m 11.520837,-4.33066 c 0,-1.925 0.2058,-2.7125 0.45733,-1.75 0.25152,0.9625 0.25152,2.5375 0,3.5 -0.25153,0.9625 -0.45733,0.175 -0.45733,-1.75 z m -24.500787,-0.91984 c -0.434974,-1.66335 -0.304831,-2.05378 0.437237,-1.31171 0.581102,0.5811 0.859794,1.64682 0.619313,2.36826 -0.249648,0.74895 -0.702941,0.29565 -1.05655,-1.05655 z m 23.568447,-9.08016 c 0,-3.025 0.18747,-4.2625 0.41659,-2.75 0.22913,1.5125 0.22913,3.9875 0,5.5 -0.22912,1.5125 -0.41659,0.275 -0.41659,-2.75 z m -16.765508,-4.05526 c 0.350915,-0.56779 0.03679,-1.75993 -0.698062,-2.6492 -1.211662,-1.46628 -1.12655,-1.48636 0.91391,-0.21565 2.646959,1.64841 2.824018,2.48586 0.698062,3.30167 -0.925802,0.35526 -1.294523,0.17903 -0.91391,-0.43682 z m 10.660797,-1.44474 c 0.02038,-1.65 0.244498,-2.20394 0.498042,-1.23097 0.253543,0.97297 0.236869,2.32297 -0.03705,3 -0.273927,0.67703 -0.481372,-0.11903 -0.460992,-1.76903 z m 5.305051,-6.5 c -0.390839,-3.36749 -0.498068,-6.33527 -0.238286,-6.59505 0.259782,-0.25978 0.784866,2.29014 1.166856,5.66648 0.38199,3.37634 0.48922,6.34411 0.23829,6.59505 -0.25094,0.25093 -0.77602,-2.29899 -1.16686,-5.66648 z m -5.287618,-6.125 c -0.11681,-5.29375 -0.449389,-11.14375 -0.739064,-13 -0.475481,-3.0469 -0.423756,-3.13937 0.532068,-0.9512 0.601682,1.37743 0.92074,6.98961 0.739064,13 l -0.319687,10.5762 -0.212381,-9.625 z m -18.869572,0.625 c 0.0036,-4.4 0.179441,-6.07561 0.390687,-3.72357 0.211245,2.35204 0.208273,5.95204 -0.0066,8 -0.214882,2.04796 -0.387719,0.12357 -0.384087,-4.27643 z m 10.943204,-6 c 0.0075,-2.75 0.201713,-3.75631 0.431567,-2.23625 0.229855,1.52006 0.223712,3.77006 -0.01365,5 -0.237362,1.22994 -0.425424,-0.0138 -0.417917,-2.76375 z m 11.871881,-0.5 c 0,-1.375 0.226973,-1.9375 0.504386,-1.25 0.277412,0.6875 0.277412,1.8125 0,2.5 -0.277413,0.6875 -0.504386,0.125 -0.504386,-1.25 z m -21.848026,-9.5 c 0.0056,-3.3 0.192301,-4.52944 0.414862,-2.73209 0.222562,1.79735 0.217969,4.49735 -0.01021,6 -0.228169,1.50265 -0.410265,0.0321 -0.404652,-3.26791 z m 9.848026,2.5 c 0,-1.375 0.226973,-1.9375 0.504386,-1.25 0.277412,0.6875 0.277412,1.8125 0,2.5 -0.277413,0.6875 -0.504386,0.125 -0.504386,-1.25 z m 11.240262,0.5952 c -0.296491,-0.77265 -0.381732,-2.91015 -0.189424,-4.75 0.306566,-2.93301 0.40855,-2.75991 0.827664,1.4048 0.490217,4.87125 0.309942,5.81612 -0.63824,3.3452 z m -1.31921,-10.17853 c 0.04798,-1.16495 0.284941,-1.4019 0.604167,-0.60417 0.288871,0.72187 0.253344,1.58437 -0.07895,1.91667 -0.332292,0.33229 -0.568641,-0.25834 -0.52522,-1.3125 z m -1.543672,-5.16667 c -0.69231,-2.02092 -15.535275,-9.68626 -15.535275,-8.02287 0,0.60841 -0.270061,0.83614 -0.600136,0.50607 -0.330074,-0.33008 -0.290701,-1.10081 0.0875,-1.71275 0.46259,-0.74848 2.486247,-0.0975 6.183442,1.98904 3.022696,1.7059 6.020823,2.92464 6.662504,2.7083 0.641682,-0.21633 1.714882,0.32116 2.384891,1.19444 1.056631,1.37719 1.220383,1.2562 1.234687,-0.91223 0.0091,-1.375 -0.314119,-2.95 -0.718197,-3.5 -1.028468,-1.39987 -4.94671,-3.5 -6.529993,-3.5 -0.727341,0 -2.195947,-0.69983 -3.263568,-1.55517 -1.909491,-1.52981 -1.908531,-1.53963 0.05887,-0.60228 1.1,0.52409 3.125,1.11142 4.5,1.30517 4.698285,0.66204 6.968548,3.65044 6.847714,9.0138 -0.117428,5.21216 -0.376265,5.82126 -1.312439,3.08848 z m -17.37738,-3.25 c 0,-1.375 0.226973,-1.9375 0.504386,-1.25 0.277412,0.6875 0.277412,1.8125 0,2.5 -0.277413,0.6875 -0.504386,0.125 -0.504386,-1.25 z M 89.92857,605.6838 c -2.663994,-1.32308 -8.13736,-9.16047 -7.112847,-10.18499 0.218771,-0.21877 1.460657,1.52905 2.759745,3.88404 1.299088,2.355 3.380451,4.78957 4.62525,5.41017 2.2133,1.10345 3.973435,2.44881 3.144519,2.40351 -0.229167,-0.0125 -1.766667,-0.69325 -3.416667,-1.51273 z m 5.206726,-0.26209 c 0.6637,-0.42182 1.883586,-2.32743 2.710859,-4.23468 0.827272,-1.90725 1.521745,-2.88288 1.543273,-2.16807 0.06444,2.13962 -2.920214,7.20149 -4.236538,7.18503 -0.950575,-0.0119 -0.954508,-0.1868 -0.01759,-0.78228 z M 85.92857,596.2193 c -0.367803,-0.59512 0.822949,-1 2.940983,-1 1.957459,0 3.559017,0.45 3.559017,1 0,0.55 -1.323442,1 -2.940983,1 -1.617541,0 -3.219098,-0.45 -3.559017,-1 z m 13.578947,-1.58333 c 0.04798,-1.16495 0.284941,-1.4019 0.604163,-0.60417 0.28887,0.72187 0.25335,1.58437 -0.079,1.91667 -0.332288,0.33229 -0.568637,-0.25834 -0.525216,-1.3125 z m -4.078947,-1.80968 c 0,-0.21616 0.698372,-0.661 1.551938,-0.98855 0.889925,-0.34149 1.291322,-0.17385 0.940983,0.39301 -0.587258,0.95021 -2.492921,1.40545 -2.492921,0.59554 z m -15.367564,-1.3927 c -0.267079,-0.43215 0.348325,-0.78572 1.367564,-0.78572 1.019239,0 1.634643,0.35357 1.367564,0.78572 -0.267079,0.43214 -0.882483,0.78571 -1.367564,0.78571 -0.485081,0 -1.100485,-0.35357 -1.367564,-0.78571 z m 7.367564,-4.27331 c 0,-0.58246 0.45,-0.7809 1,-0.44098 0.55,0.33992 1,0.81648 1,1.05902 0,0.24254 -0.45,0.44098 -1,0.44098 -0.55,0 -1,-0.47656 -1,-1.05902 z m 6.710251,-0.94098 c 0.608304,-2.32616 1.842319,-2.60837 2.613859,-0.59777 0.617248,1.60853 -0.105199,2.59777 -1.897157,2.59777 -0.747384,0 -1.032009,-0.79426 -0.716702,-2 z m -9.365174,-0.54313 c -0.325685,-0.84872 -0.368713,-1.76657 -0.09562,-2.03966 0.273094,-0.2731 0.736558,0.42131 1.029919,1.54313 0.62315,2.38293 -0.06922,2.75089 -0.9343,0.49653 z m 16.101713,0.20569 c 1.51164,-1.10533 1.72172,-2.18995 1.21055,-6.25 -0.41623,-3.30595 -0.3208,-4.25848 0.29179,-2.91256 1.9866,4.36471 0.96565,10.5 -1.74725,10.5 -1.32344,0 -1.283135,-0.2201 0.24491,-1.33744 z m -19.938463,-4.67603 c 0.335339,-0.54259 1.220649,-0.98653 1.967357,-0.98653 0.746707,0 1.586399,-0.46125 1.865983,-1.025 0.279583,-0.56375 0.406408,-0.49423 0.281834,0.1545 -0.124575,0.64872 -1.238635,1.55391 -2.475691,2.01152 -1.427284,0.52799 -2.02639,0.47154 -1.639483,-0.15449 z m -4.561172,-3.62552 c -0.855952,-2.25133 -0.758958,-3.02545 0.493847,-3.94153 0.857449,-0.62698 1.558998,-1.90441 1.558998,-2.83874 0,-0.93433 0.402847,-1.4498 0.895215,-1.1455 0.492369,0.3043 1.167369,-0.15595 1.5,-1.02277 0.842535,-2.19561 0.754457,-3.62301 -0.187629,-3.04077 -0.435828,0.26936 -0.865908,-0.48591 -0.955734,-1.67837 -0.128417,-1.70478 0.03329,-1.85025 0.756682,-0.68072 0.72612,1.17394 1.158886,0.80249 2.053558,-1.76261 0.623457,-1.7875 1.764537,-3.25 2.535733,-3.25 0.771196,0 1.402175,-0.525 1.402175,-1.16667 0,-0.64166 0.293005,-0.87366 0.651123,-0.51554 0.358118,0.35812 1.250593,-0.12938 1.983279,-1.08333 0.801197,-1.04316 0.649343,-0.0897 -0.380995,2.3923 -1.484066,3.57492 -1.873005,3.90923 -2.908575,2.5 -1.054891,-1.43552 -1.321764,-1.29582 -2.270128,1.18834 -1.329829,3.48338 -1.341188,3.96763 -0.0747,3.1849 0.55,-0.33992 1,0.0835 1,0.94098 0,3.02734 1.686489,1.49723 4.068206,-3.69098 2.591037,-5.64419 3.89827,-6.9022 8.181794,-7.8737 3.314752,-0.75179 3.342776,-0.59709 0.571034,3.15189 -1.198431,1.62097 -1.90989,3.21629 -1.58102,3.54516 0.32887,0.32887 1.094718,-0.33029 1.701884,-1.46479 0.607166,-1.1345 2.061859,-2.57539 3.232648,-3.20198 1.80767,-0.96743 2.03517,-0.89549 1.50846,0.47709 -0.34821,0.90743 -0.11897,1.61633 0.52269,1.61633 0.62861,0 0.0861,1.125 -1.2057,2.5 -2.302092,2.45047 -1.558615,3.65862 0.8,1.3 0.66,-0.66 1.2,-0.84463 1.2,-0.41029 0,0.43434 -1.0125,1.63437 -2.25,2.66673 l -2.249996,1.87702 2.228556,0.0333 c 1.98423,0.0296 2.10919,0.29527 1.13973,2.423 -1.3486,2.95986 -5.170363,4.90819 -6.675425,3.40313 -1.639209,-1.63921 -5.976544,-1.75843 -7.270063,-0.19984 -0.642228,0.77384 -1.982263,1.40698 -2.977855,1.40698 -0.995592,0 -2.103336,0.92369 -2.461653,2.05265 -0.522914,1.64755 -0.93321,1.81884 -2.079001,0.86792 -1.172351,-0.97297 -1.380753,-0.77865 -1.165902,1.08712 0.385192,3.34501 -2.054228,3.60688 -3.291232,0.35332 z m 17.707768,-15.90414 c 0.930276,-2.42426 -0.367785,-2.86191 -1.609086,-0.54252 -0.773977,1.44619 -0.789195,2.08565 -0.04964,2.08565 0.586613,0 1.333038,-0.69441 1.658722,-1.54313 z m 1.845077,-5.45687 c 0.339919,-0.55 0.141476,-1 -0.440983,-1 -0.582459,0 -1.059017,0.45 -1.059017,1 0,0.55 0.198442,1 0.440983,1 0.242541,0 0.719098,-0.45 1.059017,-1 z m -9.5,20.21905 c 0,-1.45812 3.985859,-2.5388 7.148287,-1.93811 1.670521,0.31731 1.323428,0.48614 -1.198287,0.58288 -1.9525,0.0749 -4.09,0.67618 -4.75,1.33618 -0.911823,0.91182 -1.2,0.9164 -1.2,0.019 z m -9.921053,-5.80238 c 0.04798,-1.16495 0.284941,-1.4019 0.604167,-0.60417 0.288871,0.72187 0.253344,1.58437 -0.07895,1.91667 -0.332292,0.33229 -0.568641,-0.25834 -0.52522,-1.3125 z"
         id="path2939" />
    </g>
  </g>
</svg>
