<?xml version="1.0" standalone="no"?>
<!DOCTYPE svg PUBLIC "-//W3C//DTD SVG 1.1//EN" "http://www.w3.org/Graphics/SVG/1.1/DTD/svg11.dtd" >
<svg xmlns="http://www.w3.org/2000/svg">
<metadata>
Created by FontPrep 20130207 at Tue Jan  6 19:10:33 2015
 By Caroline Artz
LDF
</metadata>
<defs>
<font id="199d4e3af0d016451ce19c0fdc709c05" horiz-adv-x='1024' >
  <font-face 
    font-family="Electronica"
    font-weight="500"
    font-stretch="normal"
    units-per-em="2048"
    panose-1="2 0 6 3 0 0 0 0 0 0"
    ascent="1638"
    descent="-410"
    x-height="1056"
    cap-height="1462"
    bbox="-5677.22 -784.727 1609.71 1628.89"
    underline-thickness="102"
    underline-position="-205"
    unicode-range="U+0020-3000"
  />
<missing-glyph horiz-adv-x="745" 
d="M68 0v1364h542v-1364h-542zM135 68h408v1228h-408v-1228z" />
    <glyph glyph-name=".notdef" horiz-adv-x="745" 
d="M68 0v1364h542v-1364h-542zM135 68h408v1228h-408v-1228z" />
    <glyph glyph-name=".null" horiz-adv-x="0" 
 />
    <glyph glyph-name="nonmarkingreturn" horiz-adv-x="681" 
 />
    <glyph glyph-name="space" unicode=" " horiz-adv-x="614" 
 />
    <glyph glyph-name="exclam" unicode="!" horiz-adv-x="356" 
d="M215 332q-25 0 -43 16t-18 41q-12 561 63 1047q5 23 25 38t44 11q24 -5 39 -25t11 -45q-76 -473 -64 -1022q0 -25 -16 -43t-41 -18zM193 217q22 0 34 -4q25 4 45 -8q46 -22 35 -78q14 -31 4 -81t-54 -78t-98 -16t-87 62q-33 49 -2 109q12 25 34 45q14 18 33 31
q34 18 56 18z" />
    <glyph glyph-name="quotedbl" unicode="&#x22;" horiz-adv-x="479" 
d="M383 981q-25 0 -42 17t-17 42q0 131 16 379q2 25 20 41t43 14t41 -20t15 -43q-16 -244 -17 -371q0 -25 -17 -42t-42 -17zM127 1228q2 158 3 186q2 28 20 44t43 16t41 -18t15 -46t-3 -188t-8 -243q-2 -25 -20 -41t-44 -14q-25 2 -41 20t-14 43q6 84 8 241z" />
    <glyph glyph-name="numbersign" unicode="#" horiz-adv-x="1095" 
d="M1075 952q0 -25 -17 -42t-42 -17q-76 0 -185 -12q-4 -92 -10 -209q83 8 135 11q84 5 91 -54q1 -25 -15 -43t-41 -21q-88 -4 -176 -14l-10 -154q-6 -75 -8 -171t-13 -165q-4 -23 -24 -37t-44 -12q-24 4 -39 24t-8 64q7 43 11 138l6 168l8 133q-162 -18 -327 -47
q-12 -240 -31 -426q-2 -25 -22 -40q-20 -16 -44 -14q-25 2 -40 22t-13 44q18 174 31 391q-84 -16 -166 -35q-22 -6 -44 7t-27 37t8 46t38 25q96 23 195 41q4 94 8 231q-109 -12 -192 -24q-25 -2 -44 12t-23 39q-3 25 11 44t39 23q90 12 213 25q8 315 19 483q2 25 20 41
t43 14t41 -20t14 -43q-10 -164 -18 -463q165 14 217 20t119 15q8 246 2 449q0 25 16 43t41 18q26 0 44 -16t18 -41q6 -199 -2 -439q102 10 178 11q25 0 42 -18t17 -42zM702 659q6 117 11 207l-80 -10q-68 -6 -254 -25q-4 -131 -6 -219q165 29 329 47z" />
    <glyph glyph-name="dollar" unicode="$" horiz-adv-x="845" 
d="M465 1057q-21 0 -37 -4q-112 -41 -184 -93t-82 -71q-10 -21 -1 -31q17 -20 260 -35q243 -16 304 -38q61 -21 82 -52q90 -136 -232 -297l-61 -28q12 -150 90 -312q10 -22 2 -46t-30 -34t-45 -2q-24 8 -33 29q-78 164 -97 313q-94 -37 -174 -63q-23 -8 -45 2t-29 34
q-7 25 3 47t34 27q178 61 331 139t184 126q-36 18 -224 30q-189 12 -248 23q-119 16 -159 57q-70 70 -26 151t188 165q-47 121 -84 268q-6 25 6 45q12 21 37 27t45 -6t26 -37q35 -135 76 -246q98 44 192 25q20 -3 34 -4t29 -20t13 -44t-21 -40t-37 -13t-38 4l-27 4h-22z" />
    <glyph glyph-name="percent" unicode="%" horiz-adv-x="1376" 
d="M981 559q145 77 265 23q62 -29 98 -112t-23 -241t-143 -211q-109 -70 -241 -45t-175 113q-39 74 -13 164t77 169q98 148 155 140zM956 397q-68 -85 -87 -155t-2 -104t97 -49t148 28q53 35 97 149q43 114 19 171q-24 56 -106 46t-137 -69q-11 -13 -29 -17zM991 1331
q-155 -38 -313 -45q16 -76 -6 -164t-76 -162q-55 -74 -133 -96q-147 -41 -241 7q-94 47 -112 147t16 198t105 173v6q9 58 90 66t151 -1q72 -10 96 -22t46 -35q152 2 295 31l111 26q3 0 23 12q19 12 38 13q47 2 64 -31t0 -78l-23 -49q-25 -51 -69 -133l-117 -211l-586 -999
q-14 -20 -38 -26t-44 6q-20 13 -26 37t6 44l586 995zM555 1284q-23 2 -106 5t-134 16q-51 -53 -77 -125t-15 -127q23 -126 207 -74q39 10 76 58q36 48 54 121t-5 126z" />
    <glyph glyph-name="ampersand" unicode="&#x26;" horiz-adv-x="1249" 
d="M512 1333q-63 12 -133 -36t-123 -140q-54 -92 -66 -186t21 -152q27 -45 141 -94q207 -92 475 6q-6 117 -49 211q-10 24 -2 46t31 32t45 2t33 -31q45 -94 57 -209q98 49 193 117q20 16 44 12t39 -24t11 -44t-25 -38q-127 -94 -258 -154q-10 -223 -114 -410t-272 -269
q-168 -83 -390 5q-109 49 -142 164q-34 115 -13 223q42 216 167 316q-106 80 -111 231t72 286t178 205t216 46q23 -4 37 -24t8 -45q-4 -24 -24 -38t-46 -8zM303 616q-53 -20 -101 -91t-68 -168t4 -171q22 -74 81 -98q105 -49 201 -34q188 30 303 239q82 141 100 311
q-287 -90 -520 10v2z" />
    <glyph glyph-name="quotesingle" unicode="'" horiz-adv-x="239" 
d="M219 999q0 -25 -17 -42t-42 -17t-42 17t-18 42q0 217 -6 412q0 25 16 43t42 18q25 0 43 -16t18 -41q6 -199 6 -416z" />
    <glyph glyph-name="parenleft" unicode="(" horiz-adv-x="378" 
d="M348 1534q-143 -205 -192 -715q-39 -486 8 -774q7 -65 37 -145l32 -84q23 -57 30 -78q7 -22 -3 -44t-33 -30t-45 2t-28 28t-49 121q-130 315 -62 1051q47 510 207 738q14 20 39 24t45 -10t24 -39t-10 -45z" />
    <glyph glyph-name="parenright" unicode=")" horiz-adv-x="407" 
d="M186 1589q182 -459 202 -931q20 -473 -214 -891q-10 -23 -35 -29t-47 5t-26 36q-6 25 6 45q141 258 180 559t-9 584t-167 577q-8 24 1 46t32 31t45 0t32 -32z" />
    <glyph glyph-name="asterisk" unicode="*" horiz-adv-x="651" 
d="M72 1378q25 0 41 -16q53 -51 100 -92q-8 84 -8 133q0 82 59 84q25 1 42 -17t18 -43q0 -96 14 -215q63 25 194 82q23 8 46 0q24 -8 32 -32t0 -46t-32 -32l-144 -60q74 -35 154 -57q23 -6 35 -28q12 -21 6 -45t-28 -36t-46 -6q-100 29 -190 74q25 -162 29 -193t-11 -50
q-14 -19 -39 -22q-58 -7 -68 60q-29 182 -36 232q-115 -35 -220 -49q-25 -2 -44 12t-22 39t11 44t39 23q78 10 162 33q-63 51 -135 121q-18 18 -19 43q0 25 18 42t42 17z" />
    <glyph glyph-name="plus" unicode="+" horiz-adv-x="847" 
d="M-59 582q0 25 16 43t41 18q129 2 311 12q2 94 25 428q2 25 20 41t43 14t41 -20t15 -43q-23 -324 -25 -411q238 14 338 18q25 0 42 -16t18 -41t-15 -42t-41 -20q-98 -4 -346 -18q0 -215 31 -383q3 -25 -11 -44q-14 -18 -38 -24t-45 8q-19 14 -25 39q-31 175 -29 396
q-178 -10 -305 -13q-25 0 -43 16t-18 42z" />
    <glyph glyph-name="comma" unicode="," horiz-adv-x="319" 
d="M299 229q9 -147 -21 -241t-137 -189q-18 -16 -43 -14t-41 20t-14 43t20 41q79 71 101 139t16 197q-2 25 16 42t42 19q25 2 42 -14q17 -18 19 -43z" />
    <glyph glyph-name="hyphen" unicode="-" horiz-adv-x="446" 
d="M12 573q0 60 82 60q47 0 268 20q26 2 44 -14t20 -41t-14 -43t-40 -20q-24 -1 -134 -11t-151 -10q-73 0 -75 59z" />
    <glyph glyph-name="period" unicode="." horiz-adv-x="303" 
d="M158 256q78 0 113 -74q23 -47 3 -97t-69 -76q-49 -25 -88 -9t-58 43q-43 45 -22 115l2 2q5 93 46 113t73 -17z" />
    <glyph glyph-name="slash" unicode="/" horiz-adv-x="430" 
d="M354 1622q26 -2 42 -20t12 -64q-18 -209 -109 -528q-12 -51 -29 -193t-106 -551l-82 -383q-4 -23 -24 -37t-45 -9q-24 5 -38 25t-3 78q11 56 84 392t94 491q20 156 34 215l27 105q69 277 79 409q3 40 21 56t43 14z" />
    <glyph glyph-name="zero" unicode="0" horiz-adv-x="1126" 
d="M602 1343h-49l-49 -49q-76 -80 -129 -172q6 -10 160 -256l278 -444q123 218 163 461q28 170 -5 268t-126 148t-212 57q-13 -11 -31 -13zM561 1462h6q16 12 37 13q140 0 283 -64q142 -64 192 -215q43 -146 13 -332q-46 -289 -207 -555l47 -76q12 -20 7 -44q-5 -25 -27 -37
t-46 -8t-37 28l-18 31q-154 -193 -324 -230q-219 -47 -327 121q-78 123 -74 328q11 421 154 700q-35 61 -58 119q-8 23 1 45t32 32q23 9 45 0q22 -8 32 -30q9 -22 19 -43q34 55 105 129l41 43q49 45 104 45zM743 311l-307 490l-125 194q-98 -231 -106 -577q-4 -166 57 -262
q62 -96 202 -67t279 222z" />
    <glyph glyph-name="one" unicode="1" horiz-adv-x="626" 
d="M94 1133q193 55 297 163q73 76 82 129t23 66q26 29 56 19t37 -22q41 -77 -22 -293q-27 -91 -43 -174t-58 -346t-58 -343t-46 -182q-32 -102 -34 -139q-2 -38 -22 -53t-44 -13q-25 2 -40 21q-28 35 16 185q43 150 47 164q23 119 67 398t86 465q-121 -104 -311 -160
q-25 -6 -47 6t-27 36q-6 24 6 46t35 27z" />
    <glyph glyph-name="two" unicode="2" horiz-adv-x="1339" 
d="M1258 178q24 0 42 -16t18 -41t-15 -43q-111 -115 -252 -109q-102 6 -240 82l-190 119q-233 -279 -494 -223q-86 16 -119 80q-30 53 -12 115t57 113q114 146 369 122q74 -8 166 -53l2 2q88 130 145 286t69 292t-43 294q-54 156 -132 188q-61 25 -147 -23
q-86 -47 -174 -147q-87 -100 -146 -200q-12 -23 -36 -29t-46 6t-27 36q-6 24 6 44q63 113 161 225t202 168q137 78 252 29q126 -51 194 -245t56 -350q-12 -157 -74 -325t-158 -309q18 -14 53 -37l66 -41q163 -95 247 -99q85 -5 159 71q17 18 41 18zM514 227q-59 27 -104 31
q-191 18 -265 -77q-25 -31 -31 -59t-1 -40q6 -12 39 -21q182 -37 362 166z" />
    <glyph glyph-name="three" unicode="3" horiz-adv-x="1024" 
d="M356 842q-9 0 -28 6q-37 15 -37 58q0 19 13 39q13 19 67 79l147 164q72 78 111 129l-135 -29q-154 -39 -408 -112q-24 -6 -46 5t-28 35t5 46t36 28q344 100 468 124q123 25 159 36h2q2 2 18 12q61 31 99 -14q44 -52 -41 -161q-45 -58 -152 -179l-135 -152q113 0 143 -8
q143 -32 253 -154t132 -270q31 -221 -77 -379q-111 -156 -297 -212q-187 -55 -373 9t-297 246q-12 20 -6 45t26 37t45 6t37 -26q89 -144 237 -196t296 -8t231 166q84 122 60 296q-15 113 -101 206t-194 120q-16 4 -127 6h-76q-17 2 -27 2z" />
    <glyph glyph-name="four" unicode="4" horiz-adv-x="913" 
d="M66 393h2q38 75 112 237t210 428t198 410q10 23 34 31t46 -1q22 -8 30 -32t0 -47q-57 -131 -200 -410t-209 -425t-99 -213q94 38 426 114q115 586 158 910q4 25 24 39t44 11q25 -3 39 -23t12 -44q-43 -319 -150 -862l70 16q25 6 45 -7t26 -37t-6 -44q-13 -20 -36 -26
l-123 -29q-7 -33 -27 -158t-32 -172t-31 -59q-20 -12 -45 -6t-37 26t-2 66t26 149t21 123q-247 -59 -339 -90q-92 -32 -142 -33q-49 -1 -78 47t26 103l7 4v4z" />
    <glyph glyph-name="five" unicode="5" horiz-adv-x="956" 
d="M63 598q1 14 11 125q43 457 80 602q11 56 32 72q28 27 58 23t58 0t128 10t130 10t136 24q105 20 170 17q25 -3 41 -21q17 -18 15 -43t-20 -41t-56 -14t-136 -18t-130 -23q-32 -4 -136 -10q-102 -6 -151 -13h-25q-22 -114 -78 -602l-2 -22q181 73 234 88q362 109 465 -119
q59 -123 50 -241q-17 -228 -210 -382q-194 -151 -429 -126q-122 12 -226 75q-20 14 -27 38q-6 24 7 44q13 21 37 27t44 -6q131 -76 269 -61t251 103t150 212q37 123 -23 268q-34 70 -116 81t-186 -20t-196 -71q-131 -58 -163 -60t-49 37q-4 4 -4 10q-2 6 -3 11v16z" />
    <glyph glyph-name="six" unicode="6" horiz-adv-x="954" 
d="M180 375q0 -14 -1 -48q-3 -108 24 -153q86 -123 211 -76q-6 12 -6 27q0 385 149 618q85 131 207 137q64 4 110 -46t60 -156t-65 -268q-79 -164 -211 -292t-269 -149q-174 -25 -285 140q-33 47 -37 98q-5 51 -7 73q-1 22 0 56t1 39q-1 493 263 923q54 89 67 127
q22 69 81 51q24 -8 34 -30q21 -46 -72 -195q-59 -98 -74 -129q-180 -371 -180 -747zM526 162q29 20 58 49q110 103 176 243t55 224t-53 84q-20 -2 -50 -22t-57 -62q-121 -190 -129 -516z" />
    <glyph glyph-name="seven" unicode="7" horiz-adv-x="1105" 
d="M1008 1446h28q58 -18 49 -74q0 -39 -92 -164l-112 -149q-272 -426 -349 -555l-159 -275q-85 -150 -185 -264q-16 -18 -41 -20t-43 14t-20 41t14 43q103 121 172 246l160 276q68 115 213 343t184 278l99 135l-74 -8q-205 -20 -277 -19q-209 6 -366 45q6 -201 -49 -358
q-6 -25 -29 -35t-47 -3t-33 29q-10 22 -2 46q49 145 41 334l-6 18q-25 57 15 93t96 10q8 -5 13 -9t9 -4q150 -41 363 -47q84 -3 249 15t179 18z" />
    <glyph glyph-name="eight" unicode="8" horiz-adv-x="1001" 
d="M440 1446l70 -4q96 -4 158 -24t116 -89q20 -4 34 -22t10 -42q-3 -24 -21 -40q-36 -26 -86 -101l-45 -65q-98 -127 -201 -277h4q127 -31 148 -37q188 -51 270 -143q115 -127 74 -358q-19 -106 -101 -178t-185 -104t-216 -24t-199 62q-86 53 -233 221q-25 -4 -45 11t-24 40
q-3 25 12 43l176 226q84 109 131 174q-156 63 -199 184q-53 143 33 320q111 227 319 227zM406 678q-57 -84 -158 -211l-127 -162q141 -162 207 -203t150 -46q83 -5 168 20t140 74t66 114q33 174 -43 260q-57 66 -213 107q-20 6 -143 35zM506 1323l-69 4q-28 0 -62 -8
q-33 -8 -75 -49t-73 -103q-128 -265 127 -350l228 316q8 10 42 59t56 76q-29 31 -66 42t-108 13z" />
    <glyph glyph-name="nine" unicode="9" horiz-adv-x="1056" 
d="M1036 1217v-11q-2 -8 -8 -34q-15 -65 -59 -160q-141 -453 -209 -977q-4 -25 -24 -39t-44 -11q-25 3 -39 22t-12 44q43 326 115 633q-240 -252 -461 -176q-145 47 -186 176q-35 102 1 230t108 240q72 110 147 169q129 106 329 135q25 2 44 -12q18 -14 22 -39t-10 -45
t-39 -23q-168 -23 -273 -106q-58 -49 -120 -145t-92 -197q-30 -100 -5 -170q23 -72 111 -103q121 -40 255 70q175 143 271 367q57 181 68 192q23 47 67 30q43 -18 43 -60z" />
    <glyph glyph-name="colon" unicode=":" horiz-adv-x="344" 
d="M266 174q2 -26 -3 -46t-6 -32q-5 -61 -48 -90q-31 -44 -67 -39q-36 3 -50 23t-20 47q-27 27 -30 68t30 75q0 19 24 41q62 47 114 35t56 -82zM121 844q-29 38 -17 83q12 43 41 67q67 54 142 -1q51 -43 38 -98t-59 -91t-88 -18q-43 18 -57 58z" />
    <glyph glyph-name="semicolon" unicode=";" horiz-adv-x="327" 
d="M208 259q19 -15 24 -56q22 -183 -10 -259q-50 -117 -154 -180q-20 -12 -45 -6t-37 26t-6 46q6 25 26 37q86 51 105 127q18 76 2 213q-2 23 13 42t39 22t43 -12zM86 793q-46 46 -12 107q35 60 86 83q28 16 66 8t58 -39t24 -80q3 -49 -27 -96q-25 -45 -64 -61
q-61 -25 -108 28q-19 21 -23 50z" />
    <glyph glyph-name="less" unicode="&#x3c;" horiz-adv-x="700" 
d="M614 43q-25 0 -43 18t-96 80l-145 115q-90 74 -150 136t-60 106q-1 43 19 63t41 39l45 37q102 94 353 356q16 19 40 19t44 -16q18 -16 18 -42q0 -25 -16 -43q-252 -264 -361 -360l-45 -41l-12 -10q43 -57 160 -152l143 -115q82 -63 108 -88q17 -18 17 -43t-18 -42
t-42 -17z" />
    <glyph glyph-name="equal" unicode="=" horiz-adv-x="708" 
d="M43 354q0 26 18 42t43 16q86 -2 264 9t219 12q77 2 79 -56q0 -61 -75 -63q-43 -2 -217 -12q-174 -11 -274 -9q-25 0 -41 18t-16 43zM620 799q34 1 51 -17t17 -43t-17 -42t-46 -17t-217 -7t-283 -5q-25 0 -41 18t-16 43t18 41t43 16q89 -2 273 6t218 7z" />
    <glyph glyph-name="greater" unicode="&#x3e;" horiz-adv-x="591" 
d="M455 563q0 8 -21 23q-78 40 -356 270q-18 14 -21 39t13 44t41 21t45 -14l303 -239q61 -31 84 -58q57 -68 4 -162l-39 -53q-39 -51 -107 -129l-188 -215q-16 -18 -41 -20t-43 14t-20 41t14 43l188 215q66 76 103 125l32 43q6 12 9 12z" />
    <glyph glyph-name="question" unicode="?" horiz-adv-x="931" 
d="M414 408q0 -21 -18 -38q-18 -18 -42 -18q-25 0 -42 18t-17 34q0 18 -2 34l-2 33q-7 88 43 158q25 35 51 67t75 61q50 29 155 90t145 110q41 48 31 124q-15 121 -53 166t-114 79t-167 46q-92 12 -159 -5t-89 -56q-33 -53 24 -164q27 -51 64 -90t63 -49t109 -11
q25 -4 40 -22t12 -43t-21 -40t-36 -13t-27 2l-40 2q-47 2 -90 18q-43 17 -93 71t-85 120q-88 170 -23 280q48 82 150 107q199 49 421 -46q97 -42 153 -112t79 -223q16 -139 -63 -224q-59 -62 -168 -129l-92 -53q-57 -29 -80 -49l-31 -27q-18 -16 -29 -30l-20 -29
q-19 -34 -16 -76v-10l2 -22q2 -20 2 -41zM221 212q-1 16 17 33t38 17t33 -8q39 4 70 -27q11 -6 29 -18q33 -21 14 -80q-18 -59 -41 -78q-52 -56 -109 -22q-30 0 -46 25q-15 25 -9 46q-6 24 -3 46t4 32t2 14t1 20z" />
    <glyph glyph-name="at" unicode="@" horiz-adv-x="1323" 
d="M757 1027q7 -23 -4 -45t-31 -28t-38 -10l-22 -6q-31 -8 -82 -64q-116 -130 -146 -231q-12 -37 -6 -47q31 -47 64 -53t73 16q86 47 154 164q7 10 29 87q22 76 59 102t65 16q49 -14 43 -84q-2 -10 -5 -24t-3 -19l-14 -72q-32 -131 -19 -178q8 -57 50 -69t104 24
q104 59 141 231q78 362 -214 529q-148 84 -281 30t-241 -176q-217 -248 -245 -592q-20 -244 86 -388t332 -115q176 20 428 168q22 12 46 6t36 -28q12 -21 6 -45t-26 -36q-276 -160 -473 -184q-297 -35 -447 168q-129 176 -106 465q30 381 275 661q126 143 284 207
q137 49 266 11t230 -132q236 -220 161 -571q-49 -225 -196 -312q-106 -61 -199 -34q-115 31 -135 166q-2 14 -2 32q-139 -168 -283 -141q-82 16 -144 108t64 287q47 72 101 129q53 61 92 82t78 29l20 6q24 6 46 -5t29 -35z" />
    <glyph glyph-name="A" unicode="A" horiz-adv-x="1183" 
d="M553 1448v4q2 2 3 4t11 19q19 23 53 17q48 -8 56 -62q16 -49 27 -307q10 -259 18 -341q53 20 100 37q23 6 45 -5t30 -34q7 -24 -4 -46t-51 -34t-104 -38q71 -462 381 -537q23 -4 36 -26q13 -21 8 -45q-4 -24 -26 -37t-46 -7q-293 68 -414 402q-33 92 -51 204l-236 -100
l-8 -22q-157 -391 -305 -488q-20 -14 -45 -9t-38 25t-8 46q5 24 25 36q98 65 226 349l-31 -11q-23 -8 -45 2t-31 33q-8 23 2 45t52 38t114 46q51 133 119 348t104 361l23 94l8 29v8zM446 670l160 67q-20 192 -20 361l-17 -56q-80 -251 -123 -372z" />
    <glyph glyph-name="B" unicode="B" horiz-adv-x="1179" 
d="M59 1346q231 129 469 135q141 1 256 -53q170 -80 209 -287q12 -63 0 -111q-23 -94 -127 -182l-6 -4q194 -46 258 -158q94 -162 -16 -313q-78 -106 -294 -212t-566 -181q-17 -61 -73 -51q-24 5 -37 27t-7 46q41 178 56 408t14 384q-2 155 -13 420q0 25 16 42q16 16 42 18
q25 2 42 -14t19 -41q10 -238 12 -377q6 -443 -47 -736q310 72 494 161t248 176t8 186q-37 61 -168 96q-27 6 -101 19t-90 44q-16 30 -6 52t27 33q18 11 55 31t55 34q76 63 91 121q4 20 -3 64t-22 71q-84 172 -308 167t-429 -118q-20 -12 -45 -6t-36 28q-12 23 -6 47t29 34z
" />
    <glyph glyph-name="C" unicode="C" horiz-adv-x="1009" 
d="M987 1383q-14 -56 -97 -36q-148 36 -339 -94q-215 -137 -328 -401t-76 -528q19 -154 75 -230t129 -87t168 39t191 158t142 202q10 24 34 30t46 -4t30 -34q7 -24 -4 -46q-52 -110 -160 -230t-230 -184t-240 -48q-118 17 -195 126q-78 109 -104 291q-41 295 86 592t370 453
q154 98 257 115t202 -11q25 -6 37 -28t6 -45z" />
    <glyph glyph-name="D" unicode="D" horiz-adv-x="1144" 
d="M39 1343q92 61 194 85t232 28q375 10 535 -126t116 -374q-35 -194 -180 -406t-332 -374q-130 -110 -356 -223l-12 -16q-56 -49 -103 -13q-47 35 -22 99l8 20q8 85 11 275t15 294q53 462 61 504q13 75 72 68q24 -4 38 -24t12 -46q-14 -88 -64 -514q-12 -106 -15 -274
t-7 -242q6 4 18 10q186 102 266 172q174 152 310 350t164 364q30 167 -72 255q-131 113 -459 102q-117 -4 -203 -23t-162 -69q-20 -14 -44 -9q-24 6 -38 26t-8 44q5 24 25 37z" />
    <glyph glyph-name="E" unicode="E" horiz-adv-x="1042" 
d="M430 934q6 0 66 12t76 10q55 -7 61 -46q7 -39 -19 -68q-26 -23 -60 -29t-36 -8q-100 -51 -187 -164t-130 -232t-27 -290q4 -45 12 -62q10 -16 43 -34q154 -82 375 81q92 70 175 165t132 180q12 20 36 26q23 6 45 -6t28 -36t-6 -46q-56 -93 -146 -197t-192 -180
q-285 -211 -504 -90q-63 33 -88 80q-23 37 -29 106q-18 197 33 338q80 223 244 373q-179 10 -225 120q-47 111 1 213t138 176q90 75 196 118t193 35q25 -1 40 -21t13 -45t-21 -40t-60 -11t-125 -30t-158 -95t-103 -127t-6 -121q13 -35 63 -45t152 -10z" />
    <glyph glyph-name="F" unicode="F" 
d="M311 682q236 72 338 90q25 6 45 -8t26 -38t-9 -44q-14 -20 -37 -25q-98 -20 -330 -90q-22 -6 -44 5t-29 35q-7 23 4 45t36 30zM205 -59q1 -25 -17 -42t-43 -17t-42 16q-17 18 -17 43q0 94 10 282t16 503q7 315 21 531l-29 -8q-24 -6 -46 6t-27 36q-6 23 6 45t35 28
q127 35 256 52q129 18 318 32q190 14 238 18q83 7 89 -51q3 -25 -13 -44t-40 -21q-74 -6 -294 -22t-372 -44q-16 -199 -21 -482q-6 -284 -8 -354t-11 -241q-9 -172 -9 -266z" />
    <glyph glyph-name="G" unicode="G" horiz-adv-x="1271" 
d="M1251 59q0 -25 -17 -42t-42 -17t-42 17t-17 42q0 88 -12 250q-11 162 -13 201v51q2 49 3 67t1 27q-82 -31 -250 -119t-256 -122q-26 -8 -48 1t-30 33t1 46t32 30q84 33 254 122t268 126q21 12 25 14q63 31 94 -10t27 -149q0 -18 -2 -70v-43q2 -35 13 -201t11 -254z
M989 1364q-168 35 -332 -79q-165 -115 -279 -323t-132 -417t73 -355q43 -63 142 -88q147 -37 280 44t234 237q12 19 37 25t45 -8q51 -34 3 -104q-71 -107 -159 -180q-236 -197 -469 -128q-273 67 -303 411q-26 298 145 621q117 217 311 359q93 69 205 97t224 3q25 -5 38 -25
t8 -45q-6 -25 -26 -38t-45 -7z" />
    <glyph glyph-name="H" unicode="H" horiz-adv-x="980" 
d="M238 1403q18 -276 -29 -709q219 86 549 252q12 94 45 274t38 214q5 33 25 48t44 11q24 -5 39 -25t9 -57t-36 -203q-31 -166 -43 -256q32 -48 -9 -82q-8 -61 -22 -268t-26 -290t-29 -172t-23 -124t-26 -49t-44 -11t-38 22q-14 18 -10 56t28 161q25 123 43 347t22 265
q-322 -158 -550 -246q-21 -188 -25 -224q-4 -37 -11 -149t-15 -154t-29 -57q-20 -14 -44 -9q-24 6 -38 26t-6 58t14 144t8 126l41 360q6 68 16 180t16 281q6 170 -3 252q-2 25 14 43t41 20q26 2 44 -14t20 -41z" />
    <glyph glyph-name="I" unicode="I" horiz-adv-x="374" 
d="M238 -55q-25 0 -41 18t-17 43q7 253 30 548q46 588 11 843q-2 25 13 44t40 21q24 2 44 -13t22 -40q31 -250 -2 -740q-34 -490 -39 -667q0 -25 -18 -41t-43 -16z" />
    <glyph glyph-name="J" unicode="J" horiz-adv-x="980" 
d="M53 1087q295 20 582 201q88 55 182 137l8 21q41 68 101 39q37 -18 37 -72l-5 -50t-22 -159t-34 -202q-17 -83 -28 -132q-12 -48 -31 -128t-30 -111l-33 -103q-23 -74 -39 -110l-43 -99q-67 -151 -167 -250q-101 -100 -200 -138t-187 -8t-132 125q-43 95 -30 233
q2 25 21 41t43 14t40 -22t14 -42q-10 -111 17 -167t67 -70q45 -15 113 11q188 70 327 393q32 75 65 193q34 118 48 185l43 189l13 51q17 86 34 223q-66 -53 -131 -94q-315 -195 -635 -217q-25 -2 -43 14t-20 41t14 43t41 20z" />
    <glyph glyph-name="K" unicode="K" horiz-adv-x="1007" 
d="M942 14q0 -25 -18 -41t-43 -16t-41 18q-305 321 -447 531q-72 109 -82 172q-22 173 221 450q90 102 192 196t171 140q20 14 44 10t38 -26q14 -20 9 -44t-25 -38q-61 -43 -157 -130q-96 -86 -188 -192q-90 -106 -142 -200t-46 -140q11 -81 177 -284q167 -203 321 -363
q16 -18 16 -43zM272 1409q0 -434 -86 -1407q-2 -25 -21 -40t-44 -13t-40 21t-13 44q84 862 86 1395q0 25 17 42t42 17t42 -17t17 -42z" />
    <glyph glyph-name="L" unicode="L" horiz-adv-x="1292" 
d="M717 1320q0 -136 -95 -238q-95 -103 -245 -150q-6 -29 -12 -74l-11 -63q-6 -39 -9 -64t-9 -57t-31 -146q-25 -115 -43 -214t-48 -210q-30 -110 -37 -144t-15 -62q164 96 387 156q223 62 346 84t309 50q25 2 44 -12q18 -14 22 -39t-10 -44t-39 -23q-281 -43 -486 -88
t-377 -120t-210 -114q-1 -2 -6 -8t-11 -14q-37 -48 -79 -48t-58 33q-6 10 -6 23v12q2 4 2 6t2 4v6l24 72q31 86 42 137t43 175t47 207q16 83 40 198l35 164q2 14 5 38t10 60l14 90q-70 -10 -191 -18q-25 -2 -43 14t-20 41t14 43t41 21q143 8 219 24q43 212 103 329
q59 118 152 124t141 -43q48 -50 49 -118zM598 1308q0 32 -12 44t-49 10q-27 -2 -62 -71t-67 -199l-5 -23q142 67 179 165q16 42 16 74z" />
    <glyph glyph-name="M" unicode="M" horiz-adv-x="1329" 
d="M1249 172q25 0 42 -17t17 -42t-16 -43q-229 -225 -344 -101q-45 49 -56 139q-26 213 54 648l43 223q8 41 11 58l14 77q10 60 14 90l-213 -311q-78 -104 -122 -135t-103 2q-79 41 -209 272q-37 68 -82 158q-16 -158 -24 -356q-19 -466 -142 -859q-8 -23 -30 -33
q-21 -10 -45 -4t-34 28t-6 46q117 359 138 803q8 168 20 330q12 163 12 205t5 53q-10 18 -5 40q6 22 26 35q20 14 44 8q25 -6 38 -26t83 -162q189 -382 262 -430q51 47 211 291q145 211 168 236q22 23 41 39t51 11q60 -9 54 -113t-58 -369l-23 -107q-101 -515 -77 -721
q8 -66 22 -80q40 -40 176 101q18 16 43 16z" />
    <glyph glyph-name="N" unicode="N" horiz-adv-x="1105" 
d="M250 1393q0 25 17 42t41 17q50 0 61 -51q34 -16 32 -55q-7 -180 53 -452q101 -453 208 -679q34 -75 53 -94q30 21 47 107q16 85 20 100q53 197 116 599t69 434t26 46t44 9t38 -25t5 -62q-8 -42 -68 -436t-115 -598q-2 -7 -13 -63t-22 -91q-45 -139 -149 -145
q-55 -3 -103 65q-66 95 -144 332q-79 238 -134 506q-67 -447 -148 -715q-43 -145 -53 -225q-4 -25 -23 -40t-43 -12t-39 22t-14 42q12 94 60 254t61 224q55 291 86 511t31 433zM715 121q4 -6 8 -10l-4 8q-2 2 -4 2z" />
    <glyph glyph-name="O" unicode="O" horiz-adv-x="1490" 
d="M600 1513q178 0 339 -89t226 -255q109 23 226 64q23 8 45 -2t30 -33q8 -24 -2 -46t-32 -30q-125 -45 -238 -67q23 -147 -20 -323t-136 -333q-112 -199 -278 -323t-348 -109q-254 19 -357 264q-86 207 -38 491t194 497q61 90 133 151q10 68 86 115q48 28 170 28zM645 1393
q-14 -16 -37 -21q-68 -10 -133 -51q21 -36 82 -73q61 -38 94 -50q184 -63 391 -45q-51 102 -159 166q-109 64 -238 74zM1077 1036q-246 -25 -463 51q-47 14 -117 58t-114 100q-191 -201 -248 -538q-43 -257 30 -433t255 -188q139 -10 275 91q137 101 231 264t132 317t19 278
z" />
    <glyph glyph-name="P" unicode="P" horiz-adv-x="968" 
d="M6 1407q240 98 469 78q289 -27 416 -252q45 -80 55 -176t-24 -189q-84 -199 -400 -332q-63 -28 -147 -59q-23 -8 -45 2t-31 33q-8 24 2 46t33 30q297 115 403 221t91 235q-7 72 -40 132q-96 170 -325 190q-199 18 -412 -70q-23 -8 -45 1t-32 32q-9 23 0 45t32 33z
M301 1270q29 -616 -158 -1313q-5 -25 -27 -37t-46 -6t-35 28q-12 22 -6 44q180 680 153 1280q-2 25 16 42t42 19q25 2 42 -15t19 -42z" />
    <glyph glyph-name="Q" unicode="Q" horiz-adv-x="1241" 
d="M578 342h-9q-56 -8 -141 -86q-47 -45 -104 -145q83 -31 182 -13l14 31q50 111 58 151t0 62zM1217 926l-13 -92q-72 -494 -366 -711q-117 -88 -246 -125q-87 -195 -68 -262q5 -25 55 -20q50 4 100 46q140 116 275 291q14 17 39 21t44 -10t23 -40q4 -24 -11 -44
q-86 -111 -163 -188t-116 -107q-94 -78 -169 -86q-159 -17 -191 106q-23 76 22 211q11 26 21 57q-193 -8 -302 122q-83 97 -100 265q-19 222 47 476t191 440q34 52 100 109t77 67q10 10 22 11t16 3q203 54 424 -61q106 -55 191 -145t102 -228q2 -27 0 -57zM662 152
q55 29 106 65q254 188 317 633q13 52 13 92l4 37q9 116 -82 209q-60 63 -148 109q-88 47 -177 61t-158 -6q-2 0 -7 -2l-41 -35q-72 -62 -102 -105q-113 -170 -174 -403t-43 -434q10 -119 59 -187q57 96 109 146q117 115 210 126q93 12 129 -50q54 -92 -15 -256z" />
    <glyph glyph-name="R" unicode="R" horiz-adv-x="1019" 
d="M37 1425q244 86 420 60q100 -17 211 -65t182 -112t107 -126q36 -64 42 -148q12 -175 -168 -291q-66 -41 -176 -94l-157 -71l-9 -5l166 -178l318 -334q18 -18 16 -43t-19 -42t-42 -15t-41 19l-318 333l-198 215q-24 29 -29 44q-15 53 49 85q18 10 58 29l157 72
q218 103 246 160q82 160 -70 292q-68 60 -162 102t-184 54q-145 25 -358 -51q-24 -8 -46 2t-30 34t2 45t33 29zM276 1223q-39 -745 -118 -1200q-6 -25 -26 -39t-44 -10q-25 4 -39 24t-10 45q80 449 119 1188q2 25 20 41t43 14t41 -20t14 -43z" />
    <glyph glyph-name="S" unicode="S" horiz-adv-x="999" 
d="M566 1414q217 94 260 50q18 -18 20 -43t-16 -42t-58 -19q-41 -2 -164 -56q-124 -54 -236 -133t-151 -147q-30 -48 2 -82q35 -32 274 -75q238 -44 335 -105q98 -61 132 -139q88 -199 -247 -410q-140 -91 -350 -184l-250 -103q-23 -10 -45 -2t-33 31q-10 23 -2 45t31 33
q4 2 132 55q588 243 654 418q31 83 -90 160q-72 45 -262 81q-190 37 -252 53t-112 58q-48 42 -52 104q-9 142 223 310q119 82 257 142z" />
    <glyph glyph-name="T" unicode="T" horiz-adv-x="1112" 
d="M664 1208q-8 -158 -58 -578t-61 -612q-3 -25 -21 -41t-43 -14q-25 3 -41 21t-14 43q12 193 60 591t59 594q2 25 19 42q17 18 42 16q24 -2 42 -20t16 -42zM137 1376q213 -13 602 49q182 29 287 39q25 2 44 -13q20 -15 22 -40t-14 -44t-40 -21q-92 -8 -277 -38
q-391 -63 -632 -51q-25 3 -41 21t-14 43t20 41t43 14z" />
    <glyph glyph-name="U" unicode="U" horiz-adv-x="1132" 
d="M993 1403q-1 25 17 42t43 17t42 -17t17 -42q0 -326 -103 -674t-296 -571q-113 -131 -254 -170q-184 -53 -309 86q-122 139 -68 626q22 198 59 438t39 268t22 43t44 13q25 -2 40 -21t12 -50t-41 -275q-39 -244 -59 -427t-12 -335t54 -202q74 -82 183 -52t200 136
q176 206 273 532t97 635z" />
    <glyph glyph-name="V" unicode="V" horiz-adv-x="1122" 
d="M276 33q-13 38 3 69v4l-35 291q-66 545 -162 1022q-6 25 7 45t38 26t45 -8q20 -13 25 -38q100 -481 165 -1034l23 -197l2 2l51 125q31 72 33 74l225 495l129 236q31 51 93 137t75 105q12 19 37 25t45 -8q19 -13 25 -38q6 -26 -11 -52t-87 -122t-142 -225l-119 -240
l-53 -113l-57 -131q-45 -102 -49 -111t-54 -130q-94 -229 -147 -254q-27 -16 -53 -8q-41 12 -52 53z" />
    <glyph glyph-name="W" unicode="W" horiz-adv-x="1630" 
d="M371 1425q0 25 17 42t42 17t43 -16q82 -84 148 -254l94 -268l39 66q37 61 125 178t125 180q12 23 36 29t44 -6q22 -12 28 -36t-6 -44q-39 -72 -145 -213t-187 -295q113 -279 147 -388t83 -227l16 50q57 182 57 202q76 240 197 528t227 445q14 19 38 25t44 -8
q19 -14 25 -38t-9 -44q-100 -150 -227 -453t-200 -563q-73 -259 -105 -299q-16 -38 -56 -44t-57 21q-22 35 -67 152l-62 162q-45 141 -123 336l-137 -291q-6 -12 -45 -111t-66 -150q-26 -52 -42 -74t-47 -35t-51 11t-21 30q0 6 -2 7v14l-4 29q-4 47 -6 80t-46 412t-190 825
q-6 25 5 47t35 28q23 7 45 -4t30 -34q150 -467 198 -897q2 -27 16 -130t17 -159l53 127q10 25 15 33l78 168q68 145 106 221l-43 104q-18 43 -47 132t-45 129q-53 143 -121 208q-16 18 -16 43z" />
    <glyph glyph-name="X" unicode="X" horiz-adv-x="1230" 
d="M1153 342q25 0 41 -18t16 -43t-18 -41q-111 -106 -156 -136q-117 -74 -233 -38q-90 27 -168 155q-20 35 -49 94q-31 59 -39 74l-103 176l-215 -336q-11 -19 -75 -111t-81 -128q-31 -65 -87 -39q-23 9 -30 33t3 47q29 57 91 146t77 114l252 389q-248 432 -385 723
q-10 23 -2 45t31 33q23 10 45 2t32 -31q131 -276 351 -659q350 526 491 761q12 20 37 26t45 -5q20 -12 26 -37t-6 -45q-129 -215 -526 -817l131 -225q12 -19 41 -77t47 -91q53 -91 109 -107t127 29q35 23 137 121q18 16 43 16z" />
    <glyph glyph-name="Y" unicode="Y" horiz-adv-x="1413" 
d="M219 1393q-68 -250 -74 -508q-4 -337 125 -388q247 -99 432 238q76 137 125 306t70 309q4 25 27 41t48 8q54 -18 50 -64q-6 -90 -7 -295q-2 -441 -59 -673q125 90 338 268q20 16 45 14t40 -21t13 -44t-20 -39q-299 -248 -471 -365q-61 -154 -149 -267t-147 -151
q-60 -38 -153 -70t-196 -46t-161 9q-116 46 -97 171q16 89 221 170q53 20 139 49l93 31q174 68 352 184q80 221 90 604q-41 -100 -86 -184q-102 -188 -234 -268q-162 -98 -350 -25q-208 85 -196 500q6 272 77 538q6 23 28 35t46 6t35 -27q12 -21 6 -46zM117 -195
q-6 -29 14 -36q39 -15 119 -5t162 38t110 46q95 62 193 220q-151 -80 -277 -123q-319 -108 -319 -138z" />
    <glyph glyph-name="Z" unicode="Z" horiz-adv-x="1191" 
d="M207 154l151 36q344 78 742 56q25 -2 41 -20t14 -44q-2 -25 -20 -41t-43 -14q-381 23 -709 -51l-59 -15q-190 -53 -264 -43q-30 4 -48 31q-31 39 -2 80q13 18 31 27q18 10 24 17t28 31q23 24 53 58t120 161q90 128 298 391t298 390q8 8 27 31l94 123q-47 -12 -130 -36
t-314 -69l-488 -90q-25 -3 -44 11t-24 38t9 44t39 26q434 78 569 104t267 63q230 66 266 50q35 -12 38 -44t-9 -50t-32 -47t-59 -80l-88 -111q-99 -142 -307 -403q-209 -262 -316 -413t-153 -197z" />
    <glyph glyph-name="bracketleft" unicode="[" horiz-adv-x="401" 
d="M162 1292l2 -209l4 -878q0 -66 -14 -169t-15 -108q23 -5 71 8t64 16t34 -11t24 -39t-8 -44q-14 -18 -28 -22q-72 -19 -118 -26q-117 -12 -153 67q-4 12 -5 29v12l29 287l-4 878l-2 209q0 131 11 182t50 62l37 10l66 10q83 12 109 14t44 -14t20 -40t-13 -44
q-17 -18 -39 -20t-103 -12l-57 -10q-6 -30 -6 -138z" />
    <glyph glyph-name="backslash" unicode="\" horiz-adv-x="620" 
d="M172 1556q20 -94 53 -280t51 -277q86 -412 320 -1065q8 -24 -2 -46t-34 -30t-46 3q-22 10 -29 33q-238 662 -323 1081q-20 92 -53 277t-52 280q-7 25 7 45q14 19 38 25t46 -8q20 -14 24 -38z" />
    <glyph glyph-name="bracketright" unicode="]" horiz-adv-x="411" 
d="M250 1311q0 133 -21 162h-8q-19 -1 -47 -5t-72 -10l-49 -8q-25 -2 -44 13t-21 40t13 45t33 20q18 1 78 12q136 24 179 -3q78 -42 78 -262v-96q6 -213 6 -828q0 -13 9 -141q19 -268 -4 -322q-16 -36 -67 -47q-10 0 -28 -2t-91 -4t-95 -8q-21 -6 -43 5t-27 36q-6 24 5 46
t38 28q28 6 106 10t94 6q2 8 2 64t-9 184q-9 127 -9 145q0 614 -6 823v97z" />
    <glyph glyph-name="asciicircum" unicode="^" horiz-adv-x="622" 
d="M50 1044q0 24 16 43q82 86 194 256l14 33q25 46 68 56q90 22 190 -166q40 -74 56 -94t13 -46q-3 -25 -22 -39t-44 -11t-43 27t-60 98q-41 74 -63 97q-6 -14 -11 -20q-121 -182 -206 -272q-16 -18 -41 -18t-43 16t-18 40z" />
    <glyph glyph-name="underscore" unicode="_" horiz-adv-x="0" 
d="M-840 -88q20 0 242 -1t298 3q74 4 146 4t83 -4t20 -12q29 -27 17 -60t-40 -41q-4 0 -8 -2h-14q-54 -6 -234 -6h-22q-315 -17 -623 -59l-641 -86q-254 -33 -536 -64l-1176 -127q-80 -8 -727 -90l213 12q1257 70 3148 31q25 0 41 -18t16 -43t-18 -41t-43 -17
q-1884 39 -3136 -30l-235 -15q-483 -28 -738 -24l-143 -6q-100 -4 -151 14t-61 53q-9 35 11 58t62 28q43 6 85 11t56 10q109 17 276 31q166 14 205 18l60 6q186 20 540 68q332 41 527 63l1173 125q262 31 535 66l176 22q-313 -4 -641 -18l-1395 -62q-992 -39 -1734 -117
q-246 -25 -388 -36q-25 -2 -43 14t-20 41t14 43t41 20q143 12 494 49t865 66q513 29 765 39l1397 61q504 23 1261 23z" />
    <glyph glyph-name="grave" unicode="`" horiz-adv-x="489" 
d="M193 1403q74 -141 253 -281q18 -14 22 -39t-11 -44q-14 -19 -39 -22t-45 11q-197 152 -287 318q-10 22 -3 46t29 34t46 4q24 -7 35 -27z" />
    <glyph glyph-name="a" unicode="a" horiz-adv-x="1062" 
d="M705 805q0 72 57 94q32 8 58 -8q43 -26 20 -90l-9 -19q-3 -12 -6 -18q-20 -88 -75 -219l-17 -39q-73 -241 -41 -342q12 -37 38 -38t42 12q18 13 59 52l60 62q39 41 52 56q13 16 38 16t43 -16t18 -42q0 -25 -13 -39t-54 -57l-62 -66l-12 -14l-20 -18q-26 -26 -50 -37
l-28 -15q-28 -14 -72 -14q-115 4 -151 121q-10 29 -13 63q-223 -318 -452 -200q-98 51 -126 202q-28 152 27 302t168 270t258 194q145 72 291 72q25 0 42 -17t17 -42t-16 -43q-18 -18 -43 -17q-119 0 -241 -61q-122 -62 -220 -166t-143 -228t-26 -230t65 -130
q209 -109 453 451q35 121 52 156q17 34 17 38l15 52v12z" />
    <glyph glyph-name="b" unicode="b" 
d="M225 1432q0 -115 -11 -361t-10 -540q2 -293 -16 -439q147 -47 285 62q72 57 119 143t57 178q20 178 -82 318q-14 18 -49 52t-39 36t-25 17q-71 51 -34 101q18 27 55 27t74 -35q6 -4 10 -9t6 -6q2 -2 37 -24q161 -103 279 -28q20 14 45 9t38 -25t8 -46q-5 -25 -26 -37
q-109 -70 -233 -45q74 -150 55 -317q-14 -115 -72 -221t-148 -178q-183 -149 -398 -82q-18 -10 -40 -8t-38 25q-22 31 -4 77q22 185 19 414q-3 230 -2 312t11 298t10 332q0 25 18 42t42 17q25 0 42 -17t17 -42z" />
    <glyph glyph-name="c" unicode="c" horiz-adv-x="946" 
d="M645 1072q14 -58 -52 -77q-67 -19 -150 -75q-44 -32 -83 -92q-38 -60 -55 -111l-26 -82q-24 -73 -37 -184l-17 -101q-18 -122 2 -192t46 -90t73 -15q119 16 248 146q10 10 97 106q87 97 121 125q64 53 100 5q16 -19 14 -44t-23 -39q-45 -39 -121 -125l-102 -112
q-156 -158 -318 -181q-186 -24 -248 184q-30 100 -8 249q2 8 5 24l16 96q13 111 46 217q34 107 63 151q75 115 125 151q107 80 210 108q25 6 47 -6t27 -36z" />
    <glyph glyph-name="d" unicode="d" horiz-adv-x="991" 
d="M680 251q0 -101 15 -141q41 -110 132 72q29 57 33 62q12 22 36 28t46 -6t27 -36q6 -24 -6 -44l-31 -59q-93 -189 -211 -178q-96 8 -135 112l-8 25l-5 -6q-88 -137 -230 -134t-206 106t-81 232q-17 128 -2 255t52 202q104 221 283 312q23 10 47 3t33 -30q10 -22 3 -46
t-30 -34q-141 -72 -229 -254q-29 -61 -42 -171t1 -216q33 -240 170 -242q80 -2 133 82q78 117 117 426q48 338 87 547q38 209 54 318q5 23 25 38t44 11q24 -5 39 -25t11 -45l-55 -313q-37 -207 -47 -261l-41 -298v-17q-29 -174 -29 -275z" />
    <glyph glyph-name="e" unicode="e" horiz-adv-x="882" 
d="M803 301q25 0 42 -17t17 -42t-16 -43q-117 -115 -231 -175t-257 -44q-80 10 -140 48t-93 92q-72 118 -70 263q2 72 11 143q31 188 129 356t231 218q197 76 268 -41q62 -98 -22 -260q-84 -163 -214 -303t-278 -195q33 -184 191 -203q109 -12 197 35t192 152q18 16 43 16z
M174 428q113 53 216 172q104 120 166 238t40 155t-122 -2t-183 -177q-106 -179 -117 -386z" />
    <glyph glyph-name="f" unicode="f" horiz-adv-x="495" 
d="M436 815q0 -25 -16 -43t-60 -19t-143 -1q-11 -72 -16 -283t-39 -389q-82 -428 -381 -459q-25 -2 -44 13t-22 40t13 44t41 22q213 23 278 362q29 169 35 369q5 200 20 326q-2 6 -2 18t9 27q8 55 18 169t47 220q76 215 240 221q25 0 43 -16t18 -41t-16 -43t-41 -19
q-84 -2 -133 -141q-31 -92 -47 -272q-2 -23 -7 -50q85 0 127 1t60 -15t18 -41z" />
    <glyph glyph-name="g" unicode="g" horiz-adv-x="1150" 
d="M803 969q35 0 51 -31q16 -16 17 -156q3 -425 -19 -610q104 63 182 125q20 14 45 11t39 -22t11 -44t-21 -39q-113 -86 -281 -187q-63 -291 -221 -491q-37 -47 -98 -92q-62 -45 -120 -67t-106 -28t-102 14t-94 68q-86 109 18 244q47 59 154 139t393 248l70 41
q23 133 29 301q-164 -485 -433 -442q-150 25 -211 158q-46 105 -34 249t60 278t104 216q82 121 223 209q23 14 47 9t36 -27q14 -22 8 -45t-26 -35q-123 -78 -190 -177q-47 -68 -90 -190q-44 -122 -54 -242q-23 -261 148 -284q129 -20 237 209q57 119 136 407q38 138 20 197
l-4 28q3 29 21 42t34 16h21zM682 -68q-402 -235 -483 -342q-47 -61 -19 -96q49 -63 158 -20q51 18 99 54t75 71q113 140 170 333z" />
    <glyph glyph-name="h" unicode="h" horiz-adv-x="847" 
d="M748 -41q-54 0 -91 35q-67 62 -48 225t61 348q30 188 16 257t-40 95t-75 31q-109 12 -198 -35l-33 -22q-30 -19 -51 -43q-22 -24 -45 -47t-43 -51q-27 -610 -37 -791q-2 -25 -20 -41t-44 -14q-25 2 -41 20t-14 43q30 483 45 977q4 98 25 257t25 204q6 76 67 74
q59 -5 51 -81q-4 -40 -24 -209t-25 -249v-4q162 156 375 131q176 -20 215 -199q23 -113 -13 -323q-70 -341 -61 -421q4 -34 14 -46h2q37 -4 51 -8t27 -24q12 -20 6 -46q-6 -25 -26 -37t-45 -6h-6z" />
    <glyph glyph-name="i" unicode="i" horiz-adv-x="618" 
d="M-80 920q58 70 154 114t164 50t106 -39q39 -44 40 -113q1 -70 -2 -107t-28 -174l-45 -245q-57 -309 -39 -355l6 -12q55 9 218 201q16 18 41 20t43 -14t20 -41t-14 -43q-106 -127 -169 -179q-63 -51 -115 -59q-102 -15 -140 86q-18 48 -6 156t39 262l45 246q39 211 22 278
v9q-29 14 -91 -14q-62 -29 -103 -58q-40 -29 -56 -47t-41 -20t-43 14t-20 41t14 43zM160 1262q-31 28 -26 60q10 67 95 95q57 17 93 -7t53 -72q16 -48 -16 -100q-33 -52 -85 -59t-96 48q-12 17 -18 35z" />
    <glyph glyph-name="j" unicode="j" horiz-adv-x="819" 
d="M391 731l8 146q0 25 -2 43q-6 -6 -26 -23l-27 -20l-25 -21q-18 -14 -24 -20l-25 -17q-18 -14 -28 -20l-29 -17q-16 -12 -29 -20l-30 -14q-86 -43 -110 18q-22 56 42 81t147 93l86 68q2 2 4 6t21 24q50 56 100 30t62 -79t12 -112l-8 -150q0 -77 -6 -281l198 158
q20 14 46 11t38 -22q14 -19 12 -44t-22 -39q-170 -129 -278 -225l-9 -99q-16 -186 -55 -328t-123 -198q-83 -57 -161 -58t-130 62q-39 61 -31 138q7 77 56 153q119 188 336 385q10 185 10 391zM164 1202q-59 29 -39 90q8 22 36 46q29 24 63 33q88 23 116 -32q47 -87 -2 -172
q-35 -47 -96 -28t-78 63zM369 164q-137 -137 -226 -275q-40 -61 -37 -122q3 -30 26 -45q9 -6 41 2t75 38q85 58 121 402z" />
    <glyph glyph-name="k" unicode="k" horiz-adv-x="921" 
d="M199 1438q59 -371 47 -760q66 47 133 104l283 250q18 16 43 14t41 -20t14 -43t-21 -41l-262 -231q41 -12 86 -47q84 -61 101 -189q10 -68 0 -202t2 -158h12q35 4 60 31q26 28 57 69q16 17 41 21t43 -12t21 -40q3 -25 -5 -35q-65 -81 -86 -99q-61 -49 -122 -53
q-60 -5 -97 28q-35 27 -45 77t0 176q10 128 1 194t-49 94q-40 30 -68 34t-85 -6h-12q-47 -35 -92 -64q-16 -250 -60 -489q-6 -25 -26 -39t-44 -9t-38 25t-11 43q127 696 19 1356q-4 25 11 45t39 24t44 -10q20 -15 25 -38z" />
    <glyph glyph-name="l" unicode="l" horiz-adv-x="229" 
d="M74 31q0 292 -8 700q-2 403 24 707q2 25 22 40t44 13q25 -1 40 -21t13 -45q-27 -285 -25 -539t5 -492q3 -237 4 -363q1 -25 -17 -42t-43 -17t-42 16q-17 18 -17 43z" />
    <glyph glyph-name="m" unicode="m" horiz-adv-x="1327" 
d="M1182 865q0 -90 -15 -160l-12 -82q-4 -12 -18 -88q-57 -281 -45 -363q6 -47 32 -60t105 13q23 6 45 -4t30 -34q6 -25 -4 -47t-34 -30q-127 -41 -209 3t-87 198q-1 29 4 69t9 83t13 86q112 482 32 520q-37 16 -125 -13q-43 -16 -133 -77q16 -156 0 -255q-18 -112 -55 -259
q-36 -148 -40 -231q-3 -84 -5 -108t-22 -39t-44 -13q-25 2 -40 20q-15 20 -14 34t5 98q5 112 41 255l31 125q35 176 35 230t-9 124q-22 22 -14 58q-28 77 -160 4q-71 -41 -135 -106t-77 -91t-23 -33q6 -377 -82 -682q-6 -25 -28 -36t-46 -5t-36 28q-11 22 -5 46
q57 203 74 472q16 269 -25 470q-6 25 7 47t37 26q24 5 46 -8t30 -56q9 -43 17 -122q89 94 191 154t183 51q81 -8 124 -80q78 51 135 70q131 45 211 10q105 -46 105 -212z" />
    <glyph glyph-name="n" unicode="n" horiz-adv-x="1021" 
d="M43 -27q-43 111 -36 298t61 384t147 324q117 158 262 156t240 -144q131 -197 69 -592q-14 -100 -47 -245q-12 -79 -8 -95q8 -10 19 -8q12 2 54 44t85 128q10 21 34 29q23 8 45 -2t30 -34t-3 -46q-49 -100 -111 -162t-116 -74q-82 -16 -135 58q-35 47 -13 164q8 41 23 125
q16 84 25 137q57 346 -50 508q-59 90 -143 91t-164 -109t-130 -290t-56 -352t29 -243q8 -23 0 -47t-31 -32t-47 -2q-24 8 -33 31z" />
    <glyph glyph-name="o" unicode="o" horiz-adv-x="929" 
d="M244 969q4 23 20 37q70 59 169 87q99 29 202 15t179 -81t93 -183q25 -190 -93 -438t-273 -371q-70 -53 -149 -63q-78 -10 -146 22t-113 98t-55 152q-23 190 16 388t150 337zM387 946q-121 -106 -168 -299t-22 -391q12 -113 99 -154t171 27q131 101 237 323t84 375
q-18 141 -176 162q-119 16 -225 -43z" />
    <glyph glyph-name="p" unicode="p" horiz-adv-x="894" 
d="M147 96q0 166 -8 297l-16 314q-8 182 -10 303q0 25 16 43t41 18t43 -16t18 -41q3 -126 17 -398t16 -415q4 -2 6 -4l76 -45q136 -87 209 -76q25 2 43 20q123 123 152 359q22 186 -18 331t-107 175q-70 29 -183 -95q-16 -16 -41 -17t-42 15t-18 41t15 43q168 182 314 121
q123 -49 176 -250q64 -250 -3 -508q-34 -131 -100 -221l-18 -27l-26 -32q-20 -24 -30 -30q-11 -7 -23 -15t-21 -13l-23 -10q-100 -29 -233 39q-21 11 -103 59q-3 -247 -23 -360q-19 -113 -23 -139t-24 -42q-19 -14 -43 -12t-39 22q-14 20 -12 48q2 29 16 103q14 73 22 161
q7 88 7 254z" />
    <glyph glyph-name="q" unicode="q" 
d="M686 -350h4q43 4 101 57l53 45q28 27 38 36t36 7t40 -20q16 -18 14 -43t-12 -34t-30 -26l-33 -32q-16 -14 -41 -33l-45 -33q-59 -39 -109 -43q-78 -8 -118 57q-38 56 12 420l20 150l-12 -19q-243 -341 -479 -233q-39 16 -76 53q-94 94 -42 352q32 160 104 320
q72 161 173 279t218 141q25 5 45 -9t25 -38t-9 -44t-37 -24q-78 -16 -160 -112t-149 -242q-66 -145 -98 -317t18 -226q16 -16 37 -27q84 -36 166 20t170 183q121 175 186 453q10 47 23 90l45 186q8 35 43 43q31 29 59 15t36 -38t-1 -46q-37 -74 -65 -185l-25 -96
q-32 -153 -60 -370q-28 -216 -45 -336q-30 -214 -20 -279v-2z" />
    <glyph glyph-name="r" unicode="r" horiz-adv-x="978" 
d="M604 975q45 0 70 -2l39 -4q14 -4 26 -15q72 -65 -28 -221l-13 -16q-42 -84 -94 -226q-92 -250 -82 -352q0 -10 2 -16q49 10 129 79q80 70 203 195q18 17 43 17t42 -18t17 -42q0 -25 -16 -43q-130 -127 -202 -191q-181 -159 -277 -102q-51 30 -57 96q-14 142 73 381
q88 238 117 283q30 44 36 57l11 21h-244l-213 -2q-106 0 -130 2t-39 22t-13 44q2 25 22 40t40 13t120 -2l213 2h205z" />
    <glyph glyph-name="s" unicode="s" horiz-adv-x="770" 
d="M213 616q1 0 17 -8t61 -14t92 -11t72 -10q211 -29 273 -136t-50 -218q-122 -126 -469 -260q-133 -47 -175 -52t-62 9q-19 14 -22 39t11 44t50 25t158 49q121 43 243 107t176 117t41 74q-37 66 -191 86q-91 7 -159 17q-148 20 -179 106q-40 130 199 354q88 82 125 95
t61 20l25 6q24 8 46 -2t30 -34q22 -68 -75 -87q-38 -8 -56 -21q-19 -14 -76 -66q-166 -151 -166 -229z" />
    <glyph glyph-name="t" unicode="t" horiz-adv-x="808" 
d="M88 815q20 111 68 311t67 285q5 25 25 38t45 8t38 -25t7 -46q-18 -94 -59 -263t-58 -244q240 94 410 178q23 10 47 3t33 -30q10 -22 3 -46t-30 -34q-195 -96 -489 -209q-25 -133 -33 -252l-8 -79q-6 -57 -10 -122t12 -107q18 -42 33 -56t51 -23q113 -29 249 123
q111 123 187 291q8 23 32 31t46 -1t30 -33t-2 -46q-82 -184 -207 -322q-186 -203 -364 -157q-205 52 -184 338q2 39 8 92l8 80q10 127 37 272q-6 25 8 45z" />
    <glyph glyph-name="u" unicode="u" horiz-adv-x="808" 
d="M274 969q-36 -53 -68 -185t-45 -282t4 -256t62 -135q104 -66 246 88q61 69 109 155t63 148q51 205 6 416q-6 25 7 45t38 25t45 -8t25 -38q51 -236 -6 -469q-18 -76 -74 -176q-56 -99 -110 -161q-222 -246 -414 -124q-86 56 -110 196t-11 303q14 163 51 307t80 212
q14 23 38 28t46 -8t26 -37t-8 -44z" />
    <glyph glyph-name="v" unicode="v" horiz-adv-x="804" 
d="M145 1073q32 -152 41 -294q10 -142 16 -260t14 -218q7 -100 9 -137l25 57q12 31 21 55t12 29l123 295q129 283 274 451q16 18 41 20t43 -14t20 -41t-14 -43q-76 -88 -148 -213t-110 -211l-102 -248q-16 -35 -29 -74l-25 -63q-69 -164 -110 -197q-27 -27 -63 -29t-56 42
q-2 4 -3 11l-3 21l-6 66q-19 207 -33 484t-51 487q-6 25 8 45t38 25t44 -9t24 -37z" />
    <glyph glyph-name="w" unicode="w" horiz-adv-x="1492" 
d="M760 848q0 18 2 26v15q2 4 5 13t11 20q25 22 63 16t44 -49q4 -14 0 -35l-4 -27v-6q2 -61 4 -245t39 -308q53 -184 168 -200q139 -20 211 180q64 168 49 380q-6 86 -49 218q-6 24 5 46q10 22 34 29t46 -5t29 -33q45 -150 52 -246q17 -237 -54 -430q-45 -123 -128 -200
t-212 -58q-224 34 -287 377l-4 -15q-94 -248 -231 -321q-106 -55 -268 -4q-250 87 -240 495q4 147 41 300t84 245q12 23 36 30t46 -4t28 -35t-4 -44q-40 -80 -74 -219t-38 -277q-8 -324 158 -377q115 -37 174 -4q100 50 170 236t90 360q0 4 2 33v63q2 42 2 60z" />
    <glyph glyph-name="x" unicode="x" horiz-adv-x="1163" 
d="M293 494q-113 315 -221 467q-14 20 -11 45q5 24 25 38t45 10t39 -24q109 -152 205 -412q178 272 303 437q14 18 39 21t44 -11t22 -39t-11 -45q-102 -134 -348 -504l43 -125q30 -100 74 -157q76 -113 188 -72q53 18 106 64q52 47 88 109t107 200q12 24 36 30t46 -5t28 -35
q7 -24 -3 -44q-74 -141 -116 -212t-109 -132t-142 -88q-84 -35 -173 -6t-147 115t-108 231q-145 -221 -248 -358q-14 -20 -38 -24t-44 12q-20 14 -23 38t11 43q107 148 293 433z" />
    <glyph glyph-name="y" unicode="y" horiz-adv-x="950" 
d="M926 989q-113 -312 -253 -593q-260 -523 -466 -709q-18 -19 -43 -17t-42 20t-16 42q2 25 19 41q100 90 211 262q-139 293 -189 620q-27 267 -51 363q-6 24 7 46t37 27t46 -9t25 -35q19 -75 35 -215t20 -160q41 -270 146 -514q223 381 403 872q8 23 31 33q24 10 46 2
q22 -9 32 -31t2 -45z" />
    <glyph glyph-name="z" unicode="z" 
d="M43 926q79 24 269 94t244 84t65 20l28 17q25 12 47 14q53 2 72 -49q10 -28 -17 -98q-27 -69 -178 -328l-239 -401q-49 -86 -74 -125q172 74 180 75q250 88 467 111q25 2 44 -13t21 -40t-12 -44q-16 -19 -40 -22q-205 -20 -439 -102q-18 -6 -47 -19l-141 -61
q-150 -63 -196 -63q-45 0 -67 30q-32 46 29 94q9 6 17 14t11 9q29 19 144 213l240 403q104 182 141 256q-82 -23 -266 -91t-270 -93q-22 -6 -44 5t-29 35q-7 23 4 45t36 30z" />
    <glyph glyph-name="braceleft" unicode="{" horiz-adv-x="348" 
d="M289 1452q-110 -85 -105 -249q2 -71 16 -203t13 -191q-5 -144 -154 -238q45 -53 56 -84q20 -70 22 -209t6 -157q8 -86 39 -139t107 -80q23 -8 33 -30t2 -46t-30 -33q-22 -10 -46 -2q-115 41 -164 124t-59 196q-1 27 -5 159t-20 185q-2 6 -41 51t-33 84t19 47q12 8 18 14
l21 11q107 67 110 151q2 59 -12 193t-16 172q-6 248 149 368q20 14 45 12t39 -22t11 -45t-21 -39z" />
    <glyph glyph-name="bar" unicode="|" horiz-adv-x="253" 
d="M193 1530q0 -748 7 -977t20 -403t13 -267q0 -25 -17 -42t-42 -17t-42 17t-17 42q1 88 -13 252t-21 410t-7 985q0 25 17 42t42 17t43 -17t17 -42z" />
    <glyph glyph-name="braceright" unicode="}" horiz-adv-x="444" 
d="M298 485q-1 1 5 -23t12 -63q37 -254 -4 -389q-57 -197 -284 -282q-23 -8 -45 1t-31 33q-8 24 1 46t34 30q170 66 213 207q31 109 -2 338q-2 16 -10 46q-7 30 -7 44q0 15 4 73t20 90t56 64q-41 49 -52 109q-26 142 -28 168q-2 27 -4 113l-6 147q-12 165 -41 186
q-4 2 -16 7h-7l-36 8q-25 8 -36 30t-4 44q7 24 28 35t37 7t46 -10q94 -17 125 -145q14 -59 23 -154l6 -151q2 -80 4 -94t8 -61q6 -48 14 -91t29 -70q35 -14 43 -20q33 -23 31 -69t-64 -66l-16 -7q-27 -22 -33 -34t-9 -54t-4 -43z" />
    <glyph glyph-name="asciitilde" unicode="~" horiz-adv-x="671" 
d="M106 512q-25 0 -43 16t-18 41q-4 135 30 229t99 111q76 18 156 -75q26 -32 56 -96q54 -116 99 -126q6 6 15 23q37 74 32 186q0 25 16 43t42 18q25 0 43 -16t18 -41q4 -143 -43 -241q-42 -82 -114 -89t-150 80q-27 31 -66 114t-77 102q-6 -8 -13 -27q-29 -78 -24 -191
q0 -25 -16 -43t-42 -18z" />
    <glyph glyph-name="quoteleft" unicode="&#x2018;" horiz-adv-x="309" 
d="M279 1401q-86 -133 -52 -324q4 -25 -10 -44t-39 -24t-44 9t-25 39q-43 238 71 409q12 20 37 26t45 -8q20 -13 26 -38t-9 -45z" />
    <glyph glyph-name="quoteright" unicode="&#x2019;" horiz-adv-x="274" 
d="M188 1446l35 -111q26 -78 28 -110q1 -33 3 -71q5 -101 -55 -191q-12 -19 -37 -25t-45 7q-51 33 -9 97q22 34 26 94q3 62 -11 120t-49 153q-6 25 5 47t35 28q24 7 45 -4t29 -34z" />
    <glyph glyph-name="quotedblleft" unicode="&#x201c;" horiz-adv-x="559" 
d="M526 1378q-57 -70 -69 -178t20 -199q8 -25 -2 -47t-34 -28q-23 -8 -45 2t-29 33q-43 111 -28 253t93 238q16 18 41 22t43 -12t21 -41t-11 -43zM260 1391q-121 -150 -67 -445q3 -25 -11 -44t-39 -24t-44 9t-25 39q-61 348 92 538q16 20 41 22t44 -12q19 -15 21 -40
t-12 -43z" />
    <glyph glyph-name="quotedblright" unicode="&#x201d;" horiz-adv-x="559" 
d="M422 1464q90 -106 112 -250t-45 -276q-11 -23 -35 -29t-46 5t-27 36q-6 25 6 45q47 88 30 200t-85 196q-16 18 -15 43t21 40q20 14 45 12t39 -22zM229 1456q100 -235 44 -393q-24 -68 -74 -129q-16 -18 -41 -20t-43 14t-21 41q-2 25 15 43q89 100 58 251q-13 65 -48 148
q-8 23 1 45t32 32q23 9 45 0t32 -32z" />
    <glyph glyph-name="uni3000" unicode="&#x3000;" horiz-adv-x="2048" 
 />
  </font>
</defs>
</svg>
