<?xml version="1.0" standalone="no"?>
<!DOCTYPE svg PUBLIC "-//W3C//DTD SVG 1.1//EN" "http://www.w3.org/Graphics/SVG/1.1/DTD/svg11.dtd" >
<svg xmlns="http://www.w3.org/2000/svg">
<metadata>
Created by FontPrep 20130207 at Tue Jan  6 10:23:51 2015
 By Caroline Artz
Copyright (c) 2011, Jovanny Lemonad (lemonad@jovanny.ru), with Reserved Font Name "Nixie"
</metadata>
<defs>
<font id="aa2d8fe1df8c12b38b48ff83a8f7d1d4" horiz-adv-x='1024' >
  <font-face 
    font-family="NixieOne-Regular"
    font-weight="400"
    font-stretch="normal"
    units-per-em="2048"
    panose-1="2 0 5 3 8 0 0 2 0 4"
    ascent="1638"
    descent="-410"
    x-height="1024"
    cap-height="1434"
    bbox="-301 -430.038 2271 1884"
    underline-thickness="102"
    underline-position="-102"
    unicode-range="U+0020-2122"
  />
<missing-glyph horiz-adv-x="1024" 
 />
    <glyph glyph-name=".notdef" horiz-adv-x="1024" 
 />
    <glyph glyph-name=".null" horiz-adv-x="0" 
 />
    <glyph glyph-name="nonmarkingreturn" horiz-adv-x="681" 
 />
    <glyph glyph-name="space" unicode=" " horiz-adv-x="573" 
 />
    <glyph glyph-name="exclam" unicode="!" horiz-adv-x="548" 
d="M236 379v1024q0 31 30 31t31 -31v-1024q-1 -31 -31 -31t-30 31zM164 82q0 47 27 75q28 27 75 27t75 -28t28 -74q0 -47 -28 -75q-28 -27 -75 -27t-75 27q-27 28 -27 75z" />
    <glyph glyph-name="quotedbl" unicode="&#x22;" horiz-adv-x="643" 
d="M424 973v430q0 31 31 31t30 -31v-430q-1 -31 -31 -31t-30 31zM158 973v430q0 31 30 31t31 -31v-430q-1 -31 -31 -31t-30 31z" />
    <glyph glyph-name="numbersign" unicode="#" horiz-adv-x="1556" 
d="M467 453h489l134 528h-492zM74 422q0 31 30 31h299l134 528h-293q-31 0 -31 31t31 30h307l92 367q8 25 29 25q4 0 8 -2q31 -6 22 -37l-88 -353h490l92 367q8 25 29 25q4 0 8 -2q31 -6 22 -37l-88 -353h285q31 0 31 -30t-31 -31h-301l-131 -528h293q31 0 31 -31t-31 -31
h-309l-91 -366q-8 -25 -28 -25q-4 0 -8 2q-31 6 -23 37l88 352h-491l-91 -366q-8 -25 -28 -25q-4 0 -8 2q-31 6 -23 37l88 352h-285q-30 0 -30 31z" />
    <glyph glyph-name="dollar" unicode="$" horiz-adv-x="1277" 
d="M606 1393h-12q-209 0 -309 -86t-101 -211q0 -81 50 -140t123 -92t138 -51t111 -33v613zM686 41q213 0 327 91t113 237q0 197 -319 284q-74 20 -139 39v-651h18zM184 133v-102q0 -31 -30 -31t-31 31v389q0 31 31 31t30 -31v-154q106 -121 289 -190q59 -23 133 -31v664
q-197 53 -290 99q-193 95 -193 268q0 174 113 276t358 102h12v113q0 31 31 31t31 -31v-117q182 -29 305 -117q43 -31 67 -51q37 -29 35 18v103q0 31 31 31t31 -31v-389q0 -31 -31 -31t-31 31v143q-113 129 -282 199q-57 25 -125 33v-625q6 -2 120 -32q259 -68 350 -189
q50 -68 50 -162q0 -184 -129 -293t-373 -108h-18v-113q0 -31 -31 -31t-31 31v117q-213 20 -389 170q-33 27 -33 -21z" />
    <glyph glyph-name="percent" unicode="%" horiz-adv-x="1605" 
d="M915 328q0 -123 80 -205t197 -82t197 82t79 205q0 122 -80 204t-196 82q-117 0 -197 -82t-80 -204zM854 328q0 147 96 247q96 101 242 101t242 -100t96 -248t-96 -248t-242 -100t-242 100q-96 101 -96 248zM324 26q0 10 8 21l887 1370q19 26 44 8q26 -18 5 -39
l-885 -1372q-19 -22 -39 -10t-20 22zM137 1106q0 -123 80 -205t197 -82q116 0 196 82t80 205t-80 205t-196 82t-197 -82q-80 -82 -80 -205zM76 1106q0 148 96 248t242 100t241 -100q97 -100 97 -248t-96 -248t-242 -100q-145 0 -242 100q-96 101 -96 248z" />
    <glyph glyph-name="ampersand" unicode="&#x26;" horiz-adv-x="1431" 
d="M696 1454q117 0 210 -55t147 -142q14 -23 -12 -37t-46 11q-59 76 -129 119t-190 43t-204 -71q-83 -71 -83 -175q0 -133 156 -307l434 -492q18 -20 33 0l241 365q18 23 44 7t6 -44l-248 -371q-16 -23 4 -45l147 -168q27 -31 51 -31h136q31 -1 31 -31t-31 -30h-164
q-27 0 -53 31l-154 174q-23 20 -37 0q-195 -246 -493 -246q-174 1 -287 107t-113 272q0 322 402 418q31 10 2 43q-72 86 -120 169t-48 179q0 141 98 224t270 83zM154 348q0 -145 94 -237q96 -90 244 -91q266 0 448 228q12 14 12 25t-10 22l-356 401q-12 21 -51 11
q-381 -103 -381 -359z" />
    <glyph glyph-name="quotesingle" unicode="'" horiz-adv-x="376" 
d="M158 973v430q0 31 30 31t31 -31v-430q-1 -31 -31 -31t-30 31z" />
    <glyph glyph-name="parenleft" unicode="(" horiz-adv-x="575" 
d="M481 1567q0 -10 -8 -19q-111 -133 -183 -342t-73 -469v-205q0 -260 73 -471t183 -340q8 -8 8 -18t-12 -19t-20 -10l-27 15q-115 137 -191 360q-75 223 -75 483v205q0 259 76 483t190 361q14 14 27 14q32 -11 32 -28z" />
    <glyph glyph-name="parenright" unicode=")" horiz-adv-x="575" 
d="M358 737q0 260 -72 469q-73 209 -184 342q-8 8 -8 18q0 21 33 29l27 -14q114 -137 190 -360t76 -484v-205q0 -260 -76 -483t-190 -360q-14 -14 -27 -15l-18 7q-14 12 -15 24q0 8 8 16q111 129 184 340t72 471v205z" />
    <glyph glyph-name="asterisk" unicode="*" horiz-adv-x="917" 
d="M137 942q0 12 19 21l219 124q10 3 10 13t-10 16l-219 125q-31 14 -15 42t45 11l209 -123q33 -18 33 17v215q0 31 31 31t30 -31v-215q0 -35 33 -17l209 123q29 16 43 -10q6 -10 6 -22t-18 -21l-219 -125q-11 -6 -11 -15t11 -14l219 -124q18 -9 18 -21t-6 -22
q-14 -27 -43 -11l-209 121q-33 18 -33 -16v-205q-1 -31 -31 -31t-30 31v205q0 35 -33 16l-209 -121q-29 -16 -43 11q-6 10 -6 22z" />
    <glyph glyph-name="plus" unicode="+" horiz-adv-x="1026" 
d="M82 655q0 31 31 31h327q31 0 31 31v338q0 31 31 30q31 0 30 -30v-338q0 -31 31 -31h348q31 0 31 -31t-31 -30h-348q-31 0 -31 -31v-338q0 -31 -30 -31t-31 31v338q0 31 -31 31h-327q-31 -1 -31 30z" />
    <glyph glyph-name="comma" unicode="," horiz-adv-x="495" 
d="M162 82q0 47 27 75q28 28 75 27q102 0 103 -123v-30q0 -105 -41 -181t-113 -106q-13 -6 -25 -6t-23 20t15 33q125 55 125 189v16q-27 -16 -59 -16t-59 27q-25 28 -25 75z" />
    <glyph glyph-name="hyphen" unicode="-" 
d="M156 655q0 31 30 31h799q31 0 31 -31t-31 -30h-799q-30 -1 -30 30z" />
    <glyph glyph-name="period" unicode="." horiz-adv-x="495" 
d="M145 82q0 47 28 75q28 27 75 27t75 -28q27 -28 27 -74q0 -47 -28 -75q-28 -27 -74 -27q-47 0 -75 28t-28 74z" />
    <glyph glyph-name="slash" unicode="/" horiz-adv-x="1060" 
d="M90 0q-12 0 -30 12t1 35l887 1370q19 27 44 8t5 -39l-884 -1372q-11 -14 -23 -14z" />
    <glyph glyph-name="zero" unicode="0" horiz-adv-x="1339" 
d="M188 717q0 -322 138 -499t344 -177q205 0 343 177t138 499q0 323 -138 499t-343 176q-206 0 -344 -176q-138 -177 -138 -499zM127 717q0 348 155 543q155 194 388 194t388 -194q154 -194 154 -543q0 -348 -154 -543q-154 -194 -388 -194q-233 0 -388 194t-155 543z" />
    <glyph glyph-name="one" unicode="1" horiz-adv-x="708" 
d="M385 1434q41 0 41 -31v-1311q0 -31 31 -31h143q31 -1 31 -31t-31 -30h-410q-31 0 -30 31q0 31 30 30h144q31 0 31 31v1239q0 20 -29 0l-227 -194q-23 -23 -39 -5q-28 32 -2 52l262 219q43 31 55 31z" />
    <glyph glyph-name="two" unicode="2" horiz-adv-x="1218" 
d="M614 1454q217 0 344 -117t127 -260t-93 -249t-226 -185l-262 -143q-131 -70 -225 -161t-95 -196v-51q0 -31 31 -31h778q31 0 31 31v225q0 31 31 31t30 -31v-286q0 -31 -30 -31h-901q-31 0 -31 31v112q0 164 196 316q57 45 123 80l263 145q131 70 225 167t94 221t-111 222
t-299 99q-124 0 -242 -47t-206 -140q-23 -22 -39 -6t-16 26t12 23q208 205 491 205z" />
    <glyph glyph-name="three" unicode="3" horiz-adv-x="1230" 
d="M1065 1075q0 -246 -256 -323q143 -25 220 -123t77 -240q0 -186 -133 -298t-359 -111q-283 0 -491 204q-12 12 -12 20t8 17q27 27 47 6q88 -92 206 -139t242 -47q203 0 317 93t113 251q0 158 -96 245t-252 87h-215q-31 0 -30 31q0 31 30 30h174q160 0 254 82t95 219
q0 137 -111 225t-311 89q-200 0 -392 -166q-22 -21 -44 1t1 42q212 184 441 184t353 -108t124 -271z" />
    <glyph glyph-name="four" unicode="4" horiz-adv-x="1183" 
d="M29 374q0 8 6 21q182 272 225 353q156 295 156 716q0 31 30 31t31 -31q-2 -362 -100 -600q-53 -125 -103 -213t-139 -211q-14 -31 23 -30h678q31 0 30 30v586q0 31 31 31t31 -31v-586q0 -31 30 -30h164q31 0 31 -31t-31 -31h-164q-31 0 -30 -31v-307q0 -30 -31 -30
t-31 30v307q0 31 -30 31h-779q-18 0 -24 14q-4 4 -4 12z" />
    <glyph glyph-name="five" unicode="5" 
d="M143 1403q0 31 31 31h799q31 0 31 -31t-31 -31h-737q-31 0 -31 -31v-481q0 -41 31 -24q162 86 344 86q242 0 368 -121t127 -330q0 -258 -248 -395t-643 -137q-30 1 -30 31t30 30q489 0 709 205q121 109 121 277t-112 274q-112 104 -324 104t-373 -110q-29 -12 -33 -13
q-29 0 -29 31v635z" />
    <glyph glyph-name="six" unicode="6" horiz-adv-x="1222" 
d="M178 614q0 -274 131 -424t338 -150t320 116t113 310t-125 304q-124 110 -371 111h-334q-29 0 -41 -31q-31 -102 -31 -236zM279 942h315q256 0 401 -129t145 -348t-131 -352q-133 -133 -363 -133t-380 166t-149 468q0 365 227 623t592 258q31 0 31 -31t-31 -30
q-399 0 -629 -353q-37 -57 -55 -108q-10 -31 27 -31z" />
    <glyph glyph-name="seven" unicode="7" horiz-adv-x="954" 
d="M932 1434q29 0 29 -27q0 -8 -7 -21l-151 -253q-181 -311 -277 -577t-96 -525q0 -31 -31 -31t-30 31q0 532 493 1310q14 31 -22 31h-748q-31 0 -31 -31v-225q-1 -31 -31 -31t-30 31v287q0 31 31 31h901z" />
    <glyph glyph-name="eight" unicode="8" horiz-adv-x="1318" 
d="M240 1106q0 -156 184 -246q88 -43 235 -88q252 78 336 154t84 192t-106 196q-105 79 -313 79t-314 -79t-106 -208zM178 348q0 -137 133 -222t348 -85t349 85q133 85 133 222q0 100 -62 162l-41 39q-61 53 -239 113l-70 22q-53 16 -70 23q-16 -6 -69 -23l-70 -22
q-100 -33 -162 -66t-77 -47l-41 -39q-62 -62 -62 -162zM178 1106q0 154 126 251t355 97t355 -97t126 -257q-1 -160 -153 -254q-76 -47 -194 -96q-25 -10 0 -21q205 -78 268 -123q141 -94 141 -256t-152 -266t-391 -104t-391 104t-152 258t99 231q112 89 222 123q24 8 89 33
q25 10 0 21q-211 86 -280 165q-68 80 -68 191z" />
    <glyph glyph-name="nine" unicode="9" horiz-adv-x="1222" 
d="M973 553q31 0 39 25q16 40 24 120t8 121q0 274 -131 424t-339 150t-320 -115q-112 -114 -111 -308q0 -194 124 -306t372 -111h334zM629 492q-256 0 -402 129q-145 129 -145 347t131 352t361 134t382 -166q150 -168 150 -469q0 -365 -227 -623t-592 -257q-31 1 -31 31
t31 30q329 0 544 242q104 117 134 200q12 35 4 42t-25 8h-315z" />
    <glyph glyph-name="colon" unicode=":" horiz-adv-x="516" 
d="M156 942q0 47 27 75q28 27 75 27t75 -28q27 -28 27 -74q0 -47 -28 -75q-28 -27 -74 -27q-47 0 -75 27q-27 28 -27 75zM156 82q0 47 27 75q28 27 75 27t75 -28q27 -28 27 -74q0 -47 -28 -75q-28 -27 -74 -27q-47 0 -75 27q-27 28 -27 75z" />
    <glyph glyph-name="semicolon" unicode=";" horiz-adv-x="516" 
d="M172 942q0 47 28 75q28 27 74 27t75 -28q28 -28 28 -74q0 -47 -28 -75q-28 -27 -75 -27q-46 0 -74 28t-28 74zM172 82q0 47 28 75t74 27q102 0 103 -123v-30q0 -105 -41 -181t-113 -106q-10 -6 -22 -6t-23 14q-14 27 12 39q125 55 125 189v16q-25 -16 -57 -16t-60 28
q-26 28 -26 74z" />
    <glyph glyph-name="less" unicode="&#x3c;" horiz-adv-x="1021" 
d="M68 511q0 22 20 34l770 442q10 8 22 8t20 -14q7 -15 7 -27t-16 -20l-703 -406q-29 -18 0 -36l703 -404q16 -12 16 -22t-7 -24t-19 -15q-12 0 -23 8l-768 442q-22 12 -22 34z" />
    <glyph glyph-name="equal" unicode="=" horiz-adv-x="1187" 
d="M164 860q0 31 31 31h798q31 0 31 -31t-31 -31h-798q-31 0 -31 31zM164 451q0 31 31 30h798q31 -1 31 -31t-31 -30h-798q-31 0 -31 31z" />
    <glyph glyph-name="greater" unicode="&#x3e;" horiz-adv-x="1021" 
d="M142 27q-12 0 -19 14q-8 15 -8 25t16 22l703 404q27 18 0 36l-703 406q-16 8 -16 20t8 26t19 15q11 0 22 -8l770 -442q20 -12 20 -34t-22 -34l-768 -442q-10 -8 -22 -8z" />
    <glyph glyph-name="question" unicode="?" horiz-adv-x="1110" 
d="M440 82q0 47 28 75q28 27 75 27t75 -28t27 -74q0 -47 -28 -75q-29 -27 -75 -27t-74 28t-28 74zM72 1044q0 186 126 298t344 112t345 -117t127 -272q0 -109 -45 -189t-109 -128l-131 -97q-156 -113 -156 -272q-1 -31 -31 -31t-30 31q0 88 33 158t82 110l211 170
q49 39 82 104t32 144q0 131 -110 229q-111 98 -300 98t-299 -92q-110 -94 -110 -256q0 -31 -31 -30q-30 -1 -30 30z" />
    <glyph glyph-name="at" unicode="@" horiz-adv-x="1888" 
d="M524 512q0 -231 111 -351t267 -120t282 143q57 66 98 144v368q-41 78 -98 144q-127 143 -283 143q-157 0 -267 -120t-110 -351zM104 532q0 401 246 662q248 260 604 260t604 -260t246 -662q0 -252 -84 -402t-219 -150q-164 0 -219 163q-12 43 -33 21q-164 -184 -346 -184
t-311 139t-129 393t129 393t311 139t346 -184q16 -16 25 -8q8 8 8 29v112q0 31 31 31t30 -31v-768q0 -90 42 -137t116 -47q106 0 174 135t68 356q0 379 -226 620q-227 241 -563 241t-562 -241t-226 -620q0 -380 226 -620t566 -240t506 187q23 23 43 0t0 -43
q-189 -205 -549 -205t-607 260t-247 661z" />
    <glyph glyph-name="A" unicode="A" horiz-adv-x="1482" 
d="M1032 500h-581q-37 0 -50 -29l-145 -379q-16 -31 20 -31h123q31 -1 31 -31t-31 -30h-389q-31 0 -30 31q0 31 30 30h133q25 0 41 31l512 1331q8 31 45 31t45 -31l512 -1331q14 -31 41 -31h134q31 -1 31 -31t-31 -30h-390q-31 0 -30 31q0 31 30 30h123q35 0 21 31l-146 379
q-12 29 -49 29zM742 1333q-8 0 -13 -12l-280 -729q-16 -31 22 -31h541q37 0 22 31l-280 729q-4 12 -12 12z" />
    <glyph glyph-name="B" unicode="B" horiz-adv-x="1333" 
d="M360 92q0 -31 31 -31h440q154 0 241 87t87 241t-87 241t-241 87h-440q-31 0 -31 -31v-594zM360 809q0 -31 31 -31h369q129 0 213 87t84 214t-83 210t-224 83h-359q-31 0 -31 -31v-532zM1221 373q1 -165 -101 -269t-289 -104h-706q-31 0 -31 31t31 30h143q31 0 31 31v1249
q0 31 -31 31h-143q-31 0 -31 31t31 31h625q164 0 266 -102t102 -257q1 -217 -194 -309q297 -57 297 -393z" />
    <glyph glyph-name="C" unicode="C" horiz-adv-x="1423" 
d="M119 717q0 319 180 528t465 209q248 0 448 -174q33 -27 33 20v103q0 31 31 31t31 -31v-389q0 -31 -31 -31t-31 31v143q-55 63 -129 117q-168 119 -352 119q-252 0 -418 -194q-166 -193 -166 -485t172 -482t459 -191q287 0 463 186q20 20 36 4t17 -26q0 -10 -10 -21
q-209 -204 -515 -204t-495 208q-188 210 -188 529z" />
    <glyph glyph-name="D" unicode="D" horiz-adv-x="1503" 
d="M360 92q0 -31 31 -31h307q279 1 452 187t173 469t-173 469t-452 186h-307q-31 0 -31 -31v-1249zM94 31q0 31 31 30h143q31 0 31 31v1249q0 31 -31 31h-143q-31 0 -31 31t31 31h573q310 0 498 -205t188 -512t-188 -512t-498 -205h-573q-31 0 -31 31z" />
    <glyph glyph-name="E" unicode="E" horiz-adv-x="1257" 
d="M94 31q0 31 31 30h143q31 0 31 31v1249q0 31 -31 31h-143q-31 0 -31 31t31 31h973q31 0 30 -31v-287q0 -31 -30 -31t-31 31v225q0 31 -31 31h-645q-31 0 -31 -31v-553q0 -31 31 -30h461q31 0 31 30v103q1 31 31 31t30 -31v-328q0 -31 -31 -31t-30 31v103q0 31 -31 30
h-461q-31 0 -31 -30v-574q0 -31 31 -31h666q31 0 30 31v225q0 31 31 31t31 -31v-286q0 -31 -31 -31h-993q-31 0 -31 31z" />
    <glyph glyph-name="F" unicode="F" horiz-adv-x="1200" 
d="M125 61h143q31 0 31 31v1249q0 31 -31 31h-143q-31 0 -31 31t31 31h973q31 0 30 -31v-287q0 -31 -30 -31t-31 31v225q0 31 -31 31h-645q-31 0 -31 -31v-553q0 -31 31 -30h481q31 0 31 30v103q0 31 31 31t31 -31v-328q0 -31 -31 -31t-31 31v103q0 31 -31 30h-481
q-31 0 -31 -30v-574q0 -31 31 -31h164q31 -1 31 -31t-31 -30h-430q-31 0 -31 30t31 31z" />
    <glyph glyph-name="G" unicode="G" horiz-adv-x="1564" 
d="M776 41q258 0 469 235v390q0 31 -31 30h-122q-31 0 -31 31t31 31h389q31 0 31 -31t-31 -31h-144q-31 0 -30 -30v-635q0 -31 -31 -31t-31 31v102q0 49 -33 21q-203 -174 -428 -174q-297 0 -481 208t-184 528q0 318 181 528t464 210q246 0 448 -174q33 -29 33 20v103
q0 31 31 31t31 -31v-389q0 -31 -31 -31t-31 31v143q-55 63 -129 117q-168 119 -352 119q-252 0 -418 -193t-166 -485t169 -483t427 -191z" />
    <glyph glyph-name="H" unicode="H" horiz-adv-x="1601" 
d="M1241 1341q0 31 -31 31h-123q-31 0 -30 31q0 31 30 31h390q31 0 31 -31t-31 -31h-144q-31 0 -30 -31v-1249q0 -31 30 -31h144q31 -1 31 -31t-31 -30h-390q-31 0 -30 31q0 31 30 30h123q31 0 31 31v574q0 31 -31 30h-819q-31 0 -31 -30v-574q0 -31 31 -31h123
q31 -1 31 -31t-31 -30h-389q-31 0 -31 31t31 30h143q31 0 31 31v1249q0 31 -31 31h-143q-31 0 -31 31t31 31h389q31 0 31 -31t-31 -31h-123q-31 0 -31 -31v-553q0 -31 31 -30h819q31 0 31 30v553z" />
    <glyph glyph-name="I" unicode="I" horiz-adv-x="659" 
d="M94 31q0 31 31 30h143q31 0 31 31v1249q0 31 -31 31h-143q-31 0 -31 31t31 31h410q31 0 31 -31t-31 -31h-144q-31 0 -31 -31v-1249q0 -31 31 -31h144q31 -1 31 -31t-31 -30h-410q-31 0 -31 31z" />
    <glyph glyph-name="J" unicode="J" horiz-adv-x="1034" 
d="M415 41q117 0 203 88t87 250v962q0 31 -31 31h-144q-31 0 -30 31q0 31 30 31h410q31 0 31 -31t-31 -31h-143q-31 0 -31 -31v-962q0 -191 -101 -295t-268 -104q-117 0 -210 55t-146 141q-6 8 -6 18t21 23q21 12 42 -14q59 -76 129 -119t188 -43z" />
    <glyph glyph-name="K" unicode="K" horiz-adv-x="1425" 
d="M125 61h143q31 0 31 31v1249q0 31 -31 31h-143q-31 0 -31 31t31 31h389q31 0 31 -31t-31 -31h-123q-31 0 -31 -31v-757l697 757q12 11 9 21t-19 10h-134q-31 0 -30 31q0 31 30 31h420q31 0 31 -31t-31 -31h-131q-23 0 -53 -31l-473 -514l534 -735q27 -31 52 -31h133
q31 -1 31 -31t-31 -30h-410q-31 0 -31 31t31 30h133q37 0 10 31l-497 686l-271 -295v-391q0 -31 31 -31h123q31 -1 31 -31t-31 -30h-389q-31 0 -31 30t31 31z" />
    <glyph glyph-name="L" unicode="L" horiz-adv-x="1183" 
d="M94 31q0 31 31 30h143q31 0 31 31v1249q0 31 -31 31h-143q-31 0 -31 31t31 31h450q31 0 31 -31t-31 -31h-184q-31 0 -31 -31v-1249q0 -31 31 -31h656q31 0 30 31v225q0 31 31 31t31 -31v-286q0 -31 -31 -31h-983q-31 0 -31 31z" />
    <glyph glyph-name="M" unicode="M" horiz-adv-x="1990" 
d="M125 61h143q31 0 31 31v1249q0 31 -31 31h-143q-31 0 -31 31t31 31h225q37 0 51 -31l574 -1270q20 -41 41 0l573 1270q14 31 51 31h226q30 0 30 -31t-30 -31h-144q-31 0 -30 -31v-1249q0 -31 30 -31h144q30 -1 30 -31t-30 -30h-389q-31 0 -31 31t31 30h122q31 0 31 31
v1198q0 20 -8 17q-4 0 -8 -7l-574 -1269q-16 -31 -45 -31t-45 31l-573 1269q-14 21 -17 -10v-1198q0 -31 31 -31h123q31 -1 31 -31t-31 -30h-389q-31 0 -31 30t31 31z" />
    <glyph glyph-name="N" unicode="N" horiz-adv-x="1607" 
d="M125 61h143q31 0 31 31v1249q0 31 -31 31h-143q-31 0 -31 31t31 31h225q33 0 51 -31l840 -1280q4 -8 12 -7t9 17v1208q0 31 -31 31h-123q-31 0 -31 31t31 31h389q31 0 31 -31t-31 -31h-143q-31 0 -31 -31v-1249q0 -31 31 -31h143q31 -1 31 -31t-31 -30h-225q-33 0 -51 31
l-840 1280q-4 8 -12 7t-9 -18v-1208q0 -31 31 -31h123q31 -1 31 -31t-31 -30h-389q-31 0 -31 30t31 31z" />
    <glyph glyph-name="O" unicode="O" horiz-adv-x="1609" 
d="M180 717q0 -295 172 -485t453 -191q281 0 453 190q172 189 172 485t-172 486t-454 190q-280 0 -452 -190t-172 -485zM119 717q0 321 188 529q187 208 497 208t498 -208t189 -530q0 -322 -188 -529q-187 -207 -497 -207t-499 207q-188 208 -188 530z" />
    <glyph glyph-name="P" unicode="P" horiz-adv-x="1296" 
d="M811 635q348 0 348 369t-348 368h-420q-31 0 -31 -31v-675q0 -31 31 -31h420zM391 573q-31 0 -31 -30v-451q0 -31 31 -31h164q31 -1 31 -31t-31 -30h-430q-31 0 -31 31t31 30h143q31 0 31 31v1249q0 31 -31 31h-143q-31 0 -31 31t31 31h686q203 0 306 -110t103 -320
t-102 -321q-104 -110 -307 -110h-420z" />
    <glyph glyph-name="Q" unicode="Q" horiz-adv-x="1611" 
d="M815 41q63 0 115 10q-37 131 -125 131q-94 0 -131 -131q78 -10 141 -10zM805 244q72 0 116 -46t72 -132q154 43 264 165q173 189 173 485t-172 486t-454 190q-280 0 -452 -190t-172 -485t172 -486q108 -120 258 -163q59 176 195 176zM805 -20q-309 0 -498 206
q-188 211 -188 532q0 320 187 528q188 208 498 208t498 -208t189 -529q0 -264 -128 -456t-353 -253q68 -109 137 -131q67 0 103 27t54 2t-7 -42q-68 -48 -150 -48q-133 0 -201 176q-66 -12 -141 -12z" />
    <glyph glyph-name="R" unicode="R" horiz-adv-x="1409" 
d="M360 92q0 -31 31 -31h123q31 -1 31 -31t-31 -30h-389q-31 0 -31 31t31 30h143q31 0 31 31v1249q0 31 -31 31h-143q-31 0 -31 31t31 31h686q199 0 304 -102t105 -288q0 -184 -104 -286q-106 -102 -305 -103h-10q-15 0 -23 -9t2 -21l389 -533q27 -31 52 -31h133
q30 -1 30 -31t-30 -30h-410q-31 0 -31 31t31 30h133q37 0 10 31l-409 563h-287q-31 0 -31 -30v-533zM811 717q168 0 258 86q90 85 90 241t-90 242t-258 86h-420q-31 0 -31 -31v-593q0 -31 31 -31h420z" />
    <glyph glyph-name="S" unicode="S" horiz-adv-x="1320" 
d="M714 41q206 0 320 91t113 237q0 80 -49 139t-127 94q-78 36 -314 100q-237 64 -325 108q-188 93 -188 266q-1 174 112 276q114 102 358 102t449 -174q33 -27 33 20v103q0 31 30 31t31 -31v-389q0 -31 -31 -31t-30 31v143q-113 129 -281 199q-90 37 -201 37
q-209 0 -309 -86t-100 -211q0 -80 49 -140t127 -94q77 -36 313 -100t325 -108q189 -93 189 -275t-129 -291q-129 -108 -383 -108t-458 174q-33 27 -33 -21v-102q0 -31 -31 -31t-31 31v389q0 31 31 31t31 -31v-154q55 -63 131 -112q172 -113 378 -113z" />
    <glyph glyph-name="T" unicode="T" horiz-adv-x="1265" 
d="M53 1106v297q0 31 31 31h1106q31 0 31 -31v-297q0 -31 -31 -31t-31 31v235q0 31 -31 31h-430q-31 0 -30 -31v-1249q0 -31 30 -31h144q30 -1 30 -31t-30 -30h-410q-31 0 -31 31t31 30h143q31 0 31 31v1249q0 31 -31 31h-430q-31 0 -30 -31v-235q0 -31 -31 -31t-31 31z" />
    <glyph glyph-name="U" unicode="U" horiz-adv-x="1589" 
d="M88 1434h389q31 0 31 -31t-31 -31h-123q-31 0 -30 -31v-829q0 -213 133 -342t338 -129t338 129t133 342v829q0 31 -31 31h-123q-31 0 -31 31t31 31h389q31 0 31 -31t-31 -31h-143q-31 0 -31 -31v-829q-1 -236 -151 -384t-381 -148t-382 148t-151 384v829q0 31 -31 31
h-143q-31 0 -31 31t31 31z" />
    <glyph glyph-name="V" unicode="V" horiz-adv-x="1482" 
d="M10 1434h389q31 0 31 -31t-31 -31h-123q-35 0 -20 -31l473 -1228q4 -12 12 -13q8 0 13 13l473 1228q14 31 -21 31h-123q-31 0 -30 31q0 31 30 31h390q31 0 31 -31t-31 -31h-134q-25 0 -41 -31l-512 -1331q-8 -30 -45 -30t-45 30l-512 1331q-16 31 -41 31h-133
q-31 0 -30 31q-1 31 30 31z" />
    <glyph glyph-name="W" unicode="W" horiz-adv-x="2074" 
d="M10 1434h389q31 0 31 -31t-31 -31h-123q-35 0 -20 -31l367 -1183q4 -12 12 -13q8 0 12 13l350 1245q10 31 41 31t41 -31l348 -1245q4 -12 13 -13q8 0 12 13l367 1183q16 31 -21 31h-123q-31 0 -30 31q0 31 30 31h389q31 0 31 -31t-31 -31h-133q-31 0 -41 -31l-411 -1331
q-8 -30 -39 -30t-39 30l-350 1250q-5 12 -15 12t-14 -12l-348 -1250q-10 -30 -39 -30t-39 30l-412 1331q-8 31 -41 31h-133q-31 0 -30 31q-1 31 30 31z" />
    <glyph glyph-name="X" unicode="X" horiz-adv-x="1353" 
d="M45 61h123q33 0 51 31l410 621q12 18 0 37l-389 591q-18 31 -52 31h-122q-31 0 -31 31t31 31h389q31 0 31 -31t-31 -31h-123q-16 0 -22 -9t1 -22l351 -532q14 -20 28 0l352 532q8 11 2 21t-22 10h-123q-31 0 -31 31t31 31h389q31 0 31 -31t-31 -31h-123q-33 0 -51 -31
l-389 -591q-12 -18 0 -37l410 -621q18 -31 51 -31h123q31 -1 31 -31t-31 -30h-389q-31 0 -31 31t31 30h122q16 -1 22 9t-1 22l-373 563q-14 20 -28 0l-371 -563q-8 -12 -2 -21t22 -10h123q31 -1 31 -31t-31 -30h-389q-31 0 -31 30t31 31z" />
    <glyph glyph-name="Y" unicode="Y" horiz-adv-x="1284" 
d="M10 1434h389q31 0 31 -31t-31 -31h-123q-16 0 -22 -9t2 -22l371 -647q14 -20 28 0l373 647q8 11 2 21t-22 10h-123q-31 0 -31 31t31 31h389q31 0 31 -31t-31 -31h-123q-33 0 -51 -31l-426 -739v-510q0 -31 31 -31h143q31 -1 31 -31t-31 -30h-410q-31 0 -30 31q0 31 30 30
h144q31 0 30 31v506l-428 743q-18 31 -51 31h-123q-31 0 -30 31q-1 31 30 31z" />
    <glyph glyph-name="Z" unicode="Z" horiz-adv-x="1259" 
d="M102 35q0 8 25 47l920 1257q12 13 6 23t-29 10h-819q-31 0 -31 -31v-225q0 -31 -31 -31t-30 31v287q0 31 30 31h983q31 0 31 -35q0 -8 -24 -47l-920 -1258q-12 -12 -6 -22t29 -11h819q31 0 30 31v225q0 31 31 31t31 -31v-286q0 -31 -31 -31h-983q-31 0 -31 35z" />
    <glyph glyph-name="bracketleft" unicode="[" horiz-adv-x="593" 
d="M219 -297v1864q0 31 31 30h266q31 -1 31 -31t-31 -30h-205q-31 0 -30 -31v-1741q0 -31 30 -30h205q31 0 31 -31t-31 -31h-266q-31 0 -31 31z" />
    <glyph glyph-name="backslash" unicode="\" horiz-adv-x="1062" 
d="M55 1404q-1 10 11 19q28 19 47 -6l886 -1370q23 -29 -4 -39q-12 -8 -24 -8t-23 14l-885 1372q-8 8 -8 18z" />
    <glyph glyph-name="bracketright" unicode="]" horiz-adv-x="593" 
d="M47 -297q0 31 31 31h205q31 0 30 30v1741q0 31 -30 31h-205q-31 0 -31 31t31 30h266q31 0 31 -30v-1864q0 -31 -31 -31h-266q-31 0 -31 31z" />
    <glyph glyph-name="asciicircum" unicode="^" horiz-adv-x="956" 
d="M478 1516q22 0 34 -23l395 -539q6 -8 6 -19t-12 -21t-24 -9q-12 0 -23 17l-356 485q-8 12 -20 12t-19 -12l-357 -485q-18 -28 -47 -8q-12 8 -12 20t6 20l395 539q12 23 34 23z" />
    <glyph glyph-name="underscore" unicode="_" horiz-adv-x="1449" 
d="M387 -133q0 31 31 31h614q31 0 31 -31t-31 -31h-614q-31 0 -31 31z" />
    <glyph glyph-name="grave" unicode="`" horiz-adv-x="495" 
d="M123 1446q0 12 16 18q9 10 21 10t22 -18l183 -260q8 -10 8 -20t-15 -21q-10 -6 -22 -6t-21 12l-184 262q-8 11 -8 23z" />
    <glyph glyph-name="a" unicode="a" 
d="M543 1044q172 0 276 -97t105 -240v-615q0 -31 30 -31h144q30 -1 30 -31t-30 -30h-205q-31 0 -31 31v114q0 21 -8 29t-25 -8q-55 -70 -153 -128t-205 -58q-190 0 -289 85q-98 85 -98 220t113 222t297 87h337q31 0 31 31v82q0 119 -90 197t-221 79q-131 0 -215 -36
q-84 -37 -118 -63t-51 -1t5 41q148 120 371 120zM862 502q0 31 -31 30h-337q-178 0 -264 -69q-85 -69 -85 -177t79 -176t239 -69q199 0 350 201q27 35 49 75v185z" />
    <glyph glyph-name="b" unicode="b" horiz-adv-x="1226" 
d="M258 1055q0 -31 31 -31h276q261 0 407 -133t146 -380t-123 -389t-327 -142q-127 0 -230 59q-96 61 -147 127q-17 16 -25 8t-8 -29v-114q0 -31 -31 -31t-30 31v1310q0 31 -31 31h-143q-31 0 -31 31t31 31h204q31 0 31 -31v-348zM670 41q172 0 280 124t107 346
q0 222 -129 337t-363 115h-276q-31 0 -31 -31v-615q47 -82 104 -139q136 -137 308 -137z" />
    <glyph glyph-name="c" unicode="c" horiz-adv-x="1124" 
d="M555 983q-166 0 -279 -131q-110 -133 -110 -344t117 -339t306 -128t316 102q33 25 51 41t28 12t22 -18q10 -12 10 -21t-19 -28q-69 -59 -165 -104t-246 -45q-217 0 -349 148t-133 384q0 236 129 384t327 148t351 -153q33 -29 33 20v82q0 31 31 31t31 -31v-327
q0 -31 -31 -31t-31 31v102q-166 215 -389 215z" />
    <glyph glyph-name="d" unicode="d" horiz-adv-x="1292" 
d="M963 932q0 31 -31 31h-277q-233 0 -362 -115t-129 -337t108 -346t278 -124q171 0 308 137q57 57 105 139v615zM963 1341q0 31 -31 31h-164q-31 0 -31 31t31 31h225q31 0 31 -31v-1311q0 -31 31 -31h143q31 -1 31 -31t-31 -30h-205q-31 0 -30 31v114q-1 21 -9 29t-24 -8
q-50 -68 -150 -127t-215 -59q-217 0 -340 142t-123 388t146 380t407 134h277q31 0 31 31v286z" />
    <glyph glyph-name="e" unicode="e" horiz-adv-x="1161" 
d="M172 578q0 -25 29 -25h776q31 0 31 31q0 164 -120 282t-303 117q-183 0 -298 -129t-115 -276zM588 -20q-217 0 -349 150t-133 382q0 233 132 383q132 149 347 149q214 0 349 -135t135 -325v-31q0 -61 -61 -61h-807q-35 0 -31 -31q12 -178 122 -299t313 -121t354 143
q17 16 27 12t26 -22t-8 -39q-74 -63 -170 -109t-246 -46z" />
    <glyph glyph-name="f" unicode="f" horiz-adv-x="847" 
d="M606 1454q86 0 150 -33t96 -65q33 -32 33 -45q-1 -11 -17 -27t-44 12q-99 98 -223 97q-125 0 -193 -81t-68 -237v-20q0 -31 31 -31h327q31 0 31 -31t-31 -30h-327q-31 0 -31 -31v-840q0 -31 31 -31h164q31 -1 31 -31t-31 -30h-431q-31 0 -30 31q0 31 30 30h144
q31 0 31 31v840q0 31 -31 31h-144q-30 1 -30 31t30 30h144q31 0 31 31v20q0 184 83 282q84 97 244 97z" />
    <glyph glyph-name="g" unicode="g" horiz-adv-x="1239" 
d="M51 -113q0 70 40 138t114 104q14 6 14 17q-1 10 -27 20t-58 43t-32 82q0 80 109 127q27 14 -2 47q-74 83 -75 233t113 248q115 98 321 98t323 -75q66 66 164 65h133q31 0 31 -30v-236q0 -31 -31 -31t-31 31v184q0 31 -31 31h-71q-43 0 -97 -27q-25 -25 -2 -45
q78 -92 78 -239t-113 -246q-114 -98 -319 -98t-307 65q-59 -17 -95 -39t-36 -69q0 -80 164 -80h256q412 0 503 -189q29 -57 29 -129q2 -227 -285 -293q-102 -25 -247 -24q-533 0 -533 317zM584 389q207 0 298 79t91 217t-91 218t-298 80t-298 -80t-91 -218t91 -217t298 -79z
M584 143q-471 0 -471 -256t471 -256q371 0 448 156q25 47 23 100q0 256 -471 256z" />
    <glyph glyph-name="h" unicode="h" horiz-adv-x="1333" 
d="M70 61h143q31 0 31 31v1249q0 31 -31 31h-143q-31 0 -31 31t31 31h204q31 0 31 -31v-524q0 -21 8 -29t25 8q166 186 360 186t300 -105q105 -105 106 -304v-543q0 -31 31 -31h143q31 -1 31 -31t-31 -30h-389q-31 0 -31 31t31 30h123q31 0 30 31v543q0 174 -90 261t-246 87
t-294 -139q-59 -61 -107 -137v-615q0 -31 31 -31h123q31 -1 31 -31t-31 -30h-389q-31 0 -31 30t31 31z" />
    <glyph glyph-name="i" unicode="i" horiz-adv-x="585" 
d="M219 1270q0 34 24 58q25 24 59 24t58 -24t23 -58q0 -34 -24 -59q-25 -23 -59 -23t-58 24t-23 58zM76 31q0 31 30 30h144q31 0 31 31v840q0 31 -31 31h-144q-30 1 -30 31t30 30h205q31 0 31 -31v-901q0 -31 31 -31h143q31 -1 31 -31t-31 -30h-410q-30 0 -30 31z" />
    <glyph glyph-name="j" unicode="j" horiz-adv-x="501" 
d="M244 -72v1004q0 31 -31 31h-143q-31 1 -31 31t31 30h204q31 0 31 -31v-1065q0 -174 -81 -266q-80 -92 -234 -92t-254 117q-14 14 -15 26q0 12 11 21q20 20 49 -6q105 -96 219 -96t179 74q65 75 65 222zM182 1270q0 34 24 58t58 24t59 -24q23 -24 23 -58t-24 -59
q-24 -24 -58 -24t-59 23q-23 25 -23 60z" />
    <glyph glyph-name="k" unicode="k" horiz-adv-x="1189" 
d="M70 61h143q31 0 31 31v1249q0 31 -31 31h-143q-31 0 -31 31t31 31h204q31 0 31 -31v-1008l492 537q12 10 9 20t-20 11h-114q-31 1 -31 31t31 30h401q31 0 31 -31t-31 -30h-131q-23 0 -53 -31l-307 -334l368 -506q27 -31 51 -31h134q31 -1 31 -31t-31 -30h-390
q-31 0 -30 31q0 31 30 30h113q37 0 10 31l-331 457l-232 -254v-203q0 -31 31 -31h123q31 -1 31 -31t-31 -30h-389q-31 0 -31 30t31 31z" />
    <glyph glyph-name="l" unicode="l" horiz-adv-x="548" 
d="M39 31q0 31 31 30h143q31 0 31 31v1249q0 31 -31 31h-143q-31 0 -31 31t31 31h204q31 0 31 -31v-1311q0 -31 31 -31h143q31 -1 31 -31t-31 -30h-409q-31 0 -31 31z" />
    <glyph glyph-name="m" unicode="m" horiz-adv-x="1964" 
d="M104 61h144q31 0 31 31v840q0 31 -31 31h-144q-30 1 -30 31t30 30h205q31 0 31 -31v-114q0 -53 33 -21q160 186 315 186q119 0 207 -68t123 -194q41 72 98 131q126 131 274 131t245 -108t98 -301v-543q0 -31 30 -31h144q31 -1 31 -31t-31 -30h-389q-31 0 -31 31t31 30
h122q31 0 31 31v543q0 168 -82 258t-207 90t-252 -143q-57 -66 -98 -144q4 -45 4 -61v-543q0 -31 31 -31h123q31 -1 31 -31t-31 -30h-369q-31 0 -30 31q0 31 30 30h123q31 0 31 31v543q0 168 -82 258t-206 90t-247 -139q-53 -59 -100 -137v-615q0 -31 31 -31h123
q30 -1 30 -31t-30 -30h-390q-31 0 -30 31q-1 30 30 30z" />
    <glyph glyph-name="n" unicode="n" horiz-adv-x="1368" 
d="M104 61h144q31 0 31 31v840q0 31 -31 31h-144q-30 1 -30 31t30 30h205q31 0 31 -31v-114q0 -21 8 -29t25 8q167 186 361 186t299 -105t106 -304v-543q0 -31 30 -31h144q31 -1 31 -31t-31 -30h-389q-31 0 -31 31t31 30h123q31 0 30 31v543q0 174 -90 261t-246 87
t-295 -139q-61 -61 -106 -137v-615q0 -31 31 -31h123q30 -1 30 -31t-30 -30h-390q-31 0 -30 31q-1 30 30 30z" />
    <glyph glyph-name="o" unicode="o" horiz-adv-x="1212" 
d="M166 511q0 -214 120 -342t320 -128t321 128q120 128 120 342t-121 343q-122 129 -320 129t-319 -129t-121 -343zM104 512q0 238 140 385t362 147t362 -147t140 -385t-139 -385t-363 -147t-362 147q-140 147 -140 385z" />
    <glyph glyph-name="p" unicode="p" horiz-adv-x="1273" 
d="M336 0q-31 0 -31 -31v-286q0 -31 31 -31h164q30 0 30 -31t-30 -31h-430q-31 0 -31 31t31 31h143q31 0 31 31v1249q0 31 -31 31h-143q-31 1 -31 31t31 30h204q31 0 31 -31v-114q0 -21 8 -29t25 8q51 66 149 126t228 60q205 0 327 -144t123 -388q0 -244 -147 -378
t-406 -134h-276zM612 61q236 0 364 115t128 338t-108 346t-278 123t-308 -139q-57 -57 -105 -137v-615q0 -31 31 -31h276z" />
    <glyph glyph-name="q" unicode="q" horiz-adv-x="1253" 
d="M969 -31q0 31 -31 31h-276q-260 0 -406 133t-147 378q0 245 122 389q123 144 328 144q129 0 227 -61q96 -53 150 -125q16 -16 25 -8q8 8 8 29v114q1 31 31 31t30 -31v-1310q0 -31 31 -31h143q31 0 31 -31t-31 -31h-430q-31 0 -31 31t31 31h164q31 0 31 31v286zM555 983
q-169 0 -277 -124t-108 -346t129 -337t363 -115h276q31 0 31 31v615q-39 72 -105 137q-139 139 -309 139z" />
    <glyph glyph-name="r" unicode="r" horiz-adv-x="1038" 
d="M852 983q-258 0 -430 -203q-49 -57 -82 -114v-574q0 -31 31 -31h164q31 -1 31 -31t-31 -30h-431q-31 0 -30 31q0 31 30 30h144q31 0 31 31v840q0 31 -31 31h-144q-30 1 -30 31t30 30h205q31 0 31 -31v-162q0 -51 43 -2q76 86 198 151t271 64h100q31 0 31 -30v-256
q0 -31 -31 -31t-30 31v194q0 31 -31 31h-39z" />
    <glyph glyph-name="s" unicode="s" horiz-adv-x="1134" 
d="M594 41q178 0 273 62t96 163q0 135 -195 180q-90 20 -216 38t-183 36q-123 33 -185 91q-61 58 -61 166t109 188q110 79 307 79t350 -153q18 -20 25 -8t8 28v82q0 31 30 31t31 -31v-327q0 -31 -31 -31t-30 31v102q-88 117 -226 182q-72 33 -161 33q-167 0 -259 -60
q-92 -61 -92 -153t79 -142t241 -75q70 -13 142 -23t159 -30t153 -74q66 -55 66 -169t-108 -196q-108 -81 -299 -81t-334 98q-41 28 -64 52t-29 12t-6 -29v-82q0 -31 -30 -31t-31 31v327q0 31 31 31t30 -31v-102q84 -119 230 -182q76 -33 180 -33z" />
    <glyph glyph-name="t" unicode="t" horiz-adv-x="825" 
d="M236 932q0 31 -31 31h-144q-31 1 -31 31t31 30h144q31 0 31 31v348q0 31 30 31t31 -31v-348q0 -31 31 -31h348q31 0 31 -31t-31 -30h-348q-31 0 -31 -31v-594q-1 -147 65 -222t182 -75t224 102q20 20 36 4t18 -26q0 -10 -32 -43t-81 -58q-147 -50 -166 -40
q-143 0 -226 92q-82 92 -81 266v594z" />
    <glyph glyph-name="u" unicode="u" horiz-adv-x="1331" 
d="M53 1024h205q31 0 31 -31v-604q0 -174 90 -261t246 -87t293 137q61 63 108 139v615q0 31 -31 31h-143q-31 1 -31 31t31 30h205q31 0 30 -31v-901q0 -31 31 -31h144q30 -1 30 -31t-30 -30h-205q-31 0 -31 31v114q0 21 -8 29t-25 -8q-167 -186 -361 -186t-299 105t-106 304
v543q0 31 -30 31h-144q-31 0 -30 30q-1 31 30 31z" />
    <glyph glyph-name="v" unicode="v" horiz-adv-x="1277" 
d="M29 1024h389q31 0 31 -31t-31 -30h-127q-37 0 -21 -31l357 -834q4 -12 12 -12t12 12l357 834q16 31 -21 31h-127q-31 1 -31 31t31 30h389q31 0 31 -31t-31 -30h-133q-27 0 -41 -31l-395 -922q-16 -30 -41 -30t-41 30l-395 922q-14 31 -41 31h-133q-31 1 -31 31t31 30z
" />
    <glyph glyph-name="w" unicode="w" horiz-adv-x="1769" 
d="M29 1024h389q31 0 31 -31t-31 -30h-123q-37 0 -21 -31l277 -785q4 -12 12 -12t12 12l269 846q8 31 41 31t41 -31l268 -846q4 -12 12 -12t13 12l276 785q16 31 -20 31h-123q-31 1 -31 31t31 30h389q31 0 31 -31t-31 -30h-133q-31 0 -41 -31l-326 -922q-8 -30 -35 -30
t-35 30l-266 840q-4 16 -20 16t-21 -16l-266 -840q-8 -30 -35 -30t-35 30l-325 922q-10 31 -41 31h-133q-31 1 -31 31t31 30z" />
    <glyph glyph-name="x" unicode="x" horiz-adv-x="1185" 
d="M76 61h123q25 0 51 31l293 408q12 18 0 37l-283 395q-18 31 -51 31h-123q-31 1 -31 31t31 30h389q31 0 31 -31t-31 -30h-123q-16 1 -23 -9t3 -22l246 -342q14 -20 28 0l248 342q10 12 3 21t-23 10h-123q-31 1 -31 31t31 30h389q31 0 30 -31q0 -31 -30 -30h-123
q-33 0 -51 -31l-283 -395q-12 -18 0 -37l293 -408q27 -31 51 -31h123q31 -1 31 -31t-31 -30h-389q-31 0 -31 31t31 30h123q16 -1 23 9t-3 22l-258 357q-14 20 -28 0l-256 -357q-10 -12 -4 -21t24 -10h123q31 -1 31 -31t-31 -30h-389q-31 0 -31 30t31 31z" />
    <glyph glyph-name="y" unicode="y" horiz-adv-x="1263" 
d="M337 -369q87 0 148 71t121 226l21 54q8 27 0 49l-424 901q-16 31 -41 31h-133q-31 1 -31 31t31 30h389q31 0 31 -31t-31 -30h-127q-37 0 -21 -31l387 -809q10 -29 23 0l313 809q14 31 -20 31h-127q-31 1 -31 31t31 30h389q31 0 31 -31t-31 -30h-133q-27 0 -41 -31
l-389 -1004q-80 -201 -132 -258t-101 -79q-49 -21 -125 -21t-142 36t-100 81q-24 25 -4 47t43 0q35 -35 87 -69t139 -34z" />
    <glyph glyph-name="z" unicode="z" horiz-adv-x="1101" 
d="M100 35q0 18 25 47l754 848q12 10 6 21t-29 12h-651q-31 0 -31 -31v-195q0 -31 -31 -30q-31 0 -30 30v256q0 31 30 31h826q31 0 30 -35q0 -18 -24 -47l-754 -848q-12 -10 -6 -21t29 -12h653q31 0 31 31v195q0 31 30 30q31 0 31 -30v-256q0 -31 -31 -31h-827q-31 0 -31 35
z" />
    <glyph glyph-name="braceleft" unicode="{" horiz-adv-x="663" 
d="M43 635q0 31 31 31h20q195 4 195 204v461q0 123 71 195q72 72 195 71h31q30 -1 30 -31t-30 -30h-31q-205 0 -205 -205v-461q0 -180 -143 -235q143 -55 143 -236v-460q0 -205 205 -205h31q30 0 30 -31t-30 -31h-31q-123 0 -195 72t-71 195v460q0 199 -195 205h-20
q-31 0 -31 31z" />
    <glyph glyph-name="bar" unicode="|" horiz-adv-x="503" 
d="M221 -379v1782q0 31 31 31t31 -31v-1782q0 -31 -31 -31t-31 31z" />
    <glyph glyph-name="braceright" unicode="}" horiz-adv-x="663" 
d="M47 -297q0 31 31 31h31q205 0 204 205v460q0 180 144 236q-143 55 -144 235v461q0 205 -204 205h-31q-31 0 -31 31t31 30h31q123 1 195 -71t71 -195v-461q0 -201 194 -204h21q31 0 31 -31t-31 -31h-21q-195 -6 -194 -205v-460q0 -123 -72 -195t-194 -72h-31q-31 0 -31 31
z" />
    <glyph glyph-name="asciitilde" unicode="~" horiz-adv-x="1073" 
d="M160 573q0 205 205 205q53 0 102 -30t82 -68q109 -88 164 -96q143 0 143 143q0 31 31 31t31 -31q0 -205 -205 -205q-53 0 -103 30t-82 66q-86 98 -163 99q-143 0 -144 -144q0 -31 -31 -30q-30 -1 -30 30z" />
    <glyph glyph-name="uni00A0" unicode="&#xa0;" horiz-adv-x="573" 
 />
    <glyph glyph-name="exclamdown" unicode="&#xa1;" horiz-adv-x="491" 
d="M215 -379v1024q0 31 31 31t30 -31v-1024q0 -31 -30 -31t-31 31zM143 942q0 47 28 75q28 27 75 27t75 -28q27 -28 27 -74q0 -47 -28 -75q-28 -27 -74 -27q-47 0 -75 28t-28 74z" />
    <glyph glyph-name="cent" unicode="&#xa2;" horiz-adv-x="1183" 
d="M178 508q0 -211 112 -333t267 -134v942q-157 -6 -268 -131q-111 -133 -111 -344zM117 512q0 236 128 383t312 149v113q0 31 31 31t30 -31v-115q168 -18 306 -151q33 -29 32 20v82q0 31 31 31t31 -31v-327q0 -31 -31 -31t-31 31v102q-145 188 -338 211v-938q184 6 304 102
q29 25 47 41t28 12q11 -4 21 -18q10 -12 10 -21t-18 -28q-166 -145 -392 -149v-113q0 -31 -30 -31t-31 31v115q-188 12 -314 153t-126 377z" />
    <glyph glyph-name="sterling" unicode="&#xa3;" horiz-adv-x="1183" 
d="M74 31q0 31 30 30q98 0 162 76q63 76 64 221v308q0 31 -31 30h-143q-31 0 -31 31t31 31h143q31 0 31 30v287q0 182 82 281q84 98 223 98t224 -88t85 -229q0 -31 -31 -31t-30 31q0 117 -69 187q-70 70 -180 69q-110 0 -176 -81t-67 -237v-287q0 -31 31 -30h246
q30 0 30 -31t-30 -31h-246q-31 0 -31 -30v-308q0 -207 -112 -297h542q94 0 160 66t66 170q1 31 31 31t30 -31q0 -129 -82 -213t-205 -84h-717q-30 0 -30 31z" />
    <glyph glyph-name="currency" unicode="&#xa4;" horiz-adv-x="1337" 
d="M399 707q0 -31 31 -31h420q170 0 259 89t89 259t-89 259t-259 89h-420q-31 0 -31 -31v-634zM164 61h143q31 0 31 31v277q0 31 -31 30h-143q-31 0 -31 31t31 31h143q31 0 31 31v92q0 31 -31 30h-143q-31 0 -31 31t31 31h143q31 0 31 31v634q0 31 -31 31h-143q-31 0 -31 31
t31 31h686q199 0 304 -108q106 -108 106 -302t-106 -302t-304 -108h-420q-31 0 -31 -30v-92q0 -31 31 -31h574q30 0 30 -31t-30 -31h-574q-31 0 -31 -30v-277q0 -31 31 -31h164q31 -1 31 -31t-31 -30h-430q-31 0 -31 30t31 31z" />
    <glyph glyph-name="yen" unicode="&#xa5;" horiz-adv-x="1439" 
d="M88 1434h389q31 0 31 -31t-31 -31h-123q-16 0 -22 -9t2 -22l371 -647q14 -20 28 0l373 647q8 11 2 21t-23 10h-122q-31 0 -31 31t31 31h389q30 0 30 -31t-30 -31h-123q-33 0 -51 -31l-396 -686q-16 -31 21 -30h235q31 0 31 -31t-31 -31h-256q-31 0 -30 -31v-122
q0 -31 30 -31h256q31 0 31 -31t-31 -31h-256q-31 0 -30 -30v-195q0 -31 30 -31h144q30 -1 30 -31t-30 -30h-410q-31 0 -31 31t31 30h143q31 0 31 31v195q0 31 -31 30h-256q-31 0 -30 31q0 31 30 31h256q31 0 31 31v122q0 31 -31 31h-256q-31 0 -30 31q0 31 30 31h236
q33 0 18 30l-395 686q-18 31 -51 31h-123q-31 0 -31 31t31 31z" />
    <glyph glyph-name="brokenbar" unicode="&#xa6;" horiz-adv-x="524" 
d="M231 686v717q0 31 31 31t31 -31v-717q0 -31 -31 -31t-31 31zM231 338q0 31 31 31t31 -31v-717q0 -31 -31 -31t-31 31v717z" />
    <glyph glyph-name="section" unicode="&#xa7;" horiz-adv-x="1191" 
d="M600 -348q199 0 294 76t95 178t-60 152q-61 50 -155 85t-207 63t-210 66t-163 102q-66 65 -65 167q0 102 57 175t160 101q10 4 10 9t-28 18q-82 33 -134 96t-53 150q0 162 115 252q114 90 318 92q204 0 358 -78q42 -20 68 -40t9 -44q-17 -25 -42 -6q-51 42 -157 74
t-218 32q-201 0 -295 -76t-94 -178t60 -152q61 -50 155 -85t207 -63t215 -68q221 -86 223 -271q0 -98 -58 -171t-159 -101q-10 -4 -10 -10q0 -5 28 -17t65 -34q121 -71 122 -247q0 -124 -115 -216q-115 -93 -319 -93t-359 78q-45 20 -69 40q-25 20 -7 44q18 25 43 6
q51 -42 157 -74t218 -32zM190 553q0 -129 115 -191q59 -36 168 -64t139 -36t62 -16q168 0 248 65q80 70 79 148q0 141 -114 203q-59 36 -168 64t-139 36t-62 16q-162 0 -245 -64t-83 -161z" />
    <glyph glyph-name="dieresis" unicode="&#xa8;" horiz-adv-x="491" 
d="M328 1229q0 35 24 59t58 23q34 0 58 -24q24 -25 24 -59t-24 -58t-58 -24t-59 24q-23 24 -23 59zM0 1229q0 35 24 59t58 23q34 0 58 -24q24 -25 24 -59t-24 -58t-58 -24t-58 24t-24 59z" />
    <glyph glyph-name="copyright" unicode="&#xa9;" horiz-adv-x="1798" 
d="M469 716q0 222 115 356q114 134 286 134t314 -141q33 -25 33 20v82q1 31 31 31t30 -31v-307q0 -31 -31 -31t-30 31v82q-37 45 -101 102q-127 102 -237 103q-152 0 -250 -117q-99 -116 -99 -314t104 -314t275 -115q219 0 346 207q16 23 39 4q28 -16 4 -47
q-143 -225 -389 -226q-198 0 -319 134q-121 135 -121 357zM172 717q0 -324 206 -531q206 -206 521 -206t521 206t206 531t-206 531t-521 206t-521 -206t-206 -531zM111 717q0 342 228 570q228 229 560 229t560 -228q229 -228 229 -571t-228 -571t-561 -228q-332 0 -560 228
t-228 571z" />
    <glyph glyph-name="ordfeminine" unicode="&#xaa;" horiz-adv-x="860" 
d="M553 1096q0 31 -31 30h-153q-89 0 -137 -40t-48 -100t46 -98t120 -38t144 55q37 29 59 58v133zM123 985q0 91 62 147t184 56h153q31 0 31 31v8q0 156 -164 155q-109 0 -180 -75q-20 -20 -43 0t0 43q76 94 242 94q86 0 146 -60t60 -157v-336q0 -31 31 -31h41q31 0 31 -31
t-31 -30h-102q-31 0 -31 30v52q-93 -93 -199 -93t-168 52t-63 145z" />
    <glyph glyph-name="guillemotleft" unicode="&#xab;" horiz-adv-x="1021" 
d="M846 932q12 0 28 -16t-6 -37l-350 -351q-18 -18 0 -36l346 -347q10 -10 10 -21q0 -12 -10 -22t-21 -10t-22 10l-375 373q-18 18 -18 35t16 33l381 379q9 10 21 10zM590 1024q12 0 28 -16t-6 -37l-442 -443q-18 -18 0 -36l438 -439q22 -21 6 -37t-27 -16t-22 10l-467 465
q-18 18 -18 35t16 33l473 471q9 10 21 10z" />
    <glyph glyph-name="logicalnot" unicode="&#xac;" horiz-adv-x="1212" 
d="M188 676q0 31 31 31h799q31 0 31 -31v-215q0 -31 -31 -31t-31 31v153q0 31 -31 31h-737q-31 0 -31 31z" />
    <glyph glyph-name="uni00AD" unicode="&#xad;" 
d="M156 655q0 31 30 31h799q31 0 31 -31t-31 -30h-799q-30 -1 -30 30z" />
    <glyph glyph-name="registered" unicode="&#xae;" horiz-adv-x="1798" 
d="M694 645v-328q0 -31 31 -30h61q31 0 31 -31t-31 -31h-286q-31 0 -31 31t31 31h102q31 0 31 30v779q0 31 -31 30h-102q-31 0 -31 31t31 31h491q137 0 217 -72t80 -184t-80 -184t-217 -72q-16 0 -23 -9t3 -22l213 -328q27 -31 51 -30h92q31 0 31 -31t-31 -31h-297
q-31 0 -31 31t31 31h68q37 0 10 30l-234 359h-149q-31 0 -31 -31zM694 768q0 -31 31 -31h266q111 1 173 57t63 138q-1 82 -63 138t-173 56h-266q-31 0 -31 -30v-328zM899 1454q-315 0 -521 -207t-206 -531t206 -530t521 -206t521 206t206 531t-206 531t-521 206zM111 716
q0 342 228 571t560 229t560 -228q229 -228 229 -571t-228 -571t-561 -228q-332 0 -561 227q-227 229 -227 571z" />
    <glyph glyph-name="degree" unicode="&#xb0;" horiz-adv-x="901" 
d="M174 1106q0 -123 80 -205t197 -82t197 82t79 205q0 123 -80 205q-81 82 -197 82t-196 -82t-80 -205zM113 1106q0 148 96 248q95 100 241 100t242 -100t96 -248t-96 -248t-241 -100t-242 100q-96 101 -96 248z" />
    <glyph glyph-name="plusminus" unicode="&#xb1;" horiz-adv-x="1046" 
d="M92 655q0 31 31 31h328q31 0 30 31v338q0 31 31 31t31 -31v-338q0 -31 30 -31h349q31 0 30 -31q0 -31 -30 -30h-349q-31 0 -30 -31v-256q0 -31 -31 -31t-31 31v256q0 31 -30 31h-328q-31 -1 -31 30zM92 205q0 31 31 31h799q30 0 30 -31t-30 -31h-799q-31 0 -31 31z" />
    <glyph glyph-name="uni00B2" unicode="&#xb2;" horiz-adv-x="821" 
d="M154 829v62q0 86 70 141q71 54 155 74t155 58t70 96q0 123 -205 122q-127 0 -202 -84q-16 -27 -40 -3t-3 46q102 102 245 103q266 0 267 -184q0 -66 -46 -108t-112 -65l-135 -40q-158 -49 -158 -156q0 -31 31 -31h327q31 0 31 31v51q0 31 31 31t31 -31v-113
q0 -31 -31 -30h-451q-30 -1 -30 30z" />
    <glyph glyph-name="uni00B3" unicode="&#xb3;" horiz-adv-x="780" 
d="M135 911q1 11 17 27t43 -12t83 -53q56 -24 115 -23q195 0 195 113q0 61 -43 97t-121 36h-133q-31 2 -31 30t31 29h133q143 0 143 115t-184 112q-119 0 -190 -75q-20 -20 -37 -4q-16 16 -18 26q-1 10 12 21q34 38 100 66t160 28t156 -47t62 -137t-102 -134
q123 -45 123 -163q-1 -82 -65 -128q-64 -47 -164 -47t-170 31t-105 72q-10 10 -10 20z" />
    <glyph glyph-name="acute" unicode="&#xb4;" horiz-adv-x="249" 
d="M36 1149q-11 0 -24 8q-12 9 -12 19t8 20l182 260q19 34 43 8q26 -13 9 -41l-185 -262q-10 -12 -21 -12z" />
    <glyph glyph-name="uni00B5" unicode="&#xb5;" horiz-adv-x="1409" 
d="M106 1024h205q31 0 31 -31v-622q0 -164 92 -247t250 -83t293 143q55 59 102 144v604q0 31 -30 31h-144q-31 1 -31 31t31 30h205q31 0 31 -31v-901q0 -31 30 -31h144q31 -1 31 -31t-31 -30h-205q-31 0 -31 31v114q0 49 -32 21q-166 -186 -357 -186q-246 0 -348 163v-522
q0 -31 -31 -31t-30 31v1311q0 31 -31 31h-144q-31 0 -30 30q-1 31 30 31z" />
    <glyph glyph-name="paragraph" unicode="&#xb6;" horiz-adv-x="1505" 
d="M670 512q31 0 30 31v798q0 31 -30 31h-92q-209 0 -325 -110t-116 -320t116 -320t325 -110h92zM578 451q-229 0 -367 129q-135 129 -135 362q0 232 135 362t367 130h829q31 0 31 -31t-31 -31h-205q-31 0 -31 -31v-1720q-1 -31 -31 -31t-30 31v1720q0 31 -31 31h-286
q-31 0 -31 -31v-1720q0 -31 -31 -31t-31 31v799q0 31 -30 31h-92z" />
    <glyph glyph-name="periodcentered" unicode="&#xb7;" horiz-adv-x="516" 
d="M156 717q0 47 27 75q28 28 75 28t75 -28q27 -28 27 -75t-28 -75t-74 -28q-47 0 -75 28q-27 28 -27 75z" />
    <glyph glyph-name="cedilla" unicode="&#xb8;" horiz-adv-x="235" 
d="M0 -338q0 31 31 31q143 0 143 82q0 35 -26 59t-76 23h-31q-31 0 -31 30v113q0 31 31 31t31 -31v-82q76 0 120 -39t44 -105t-50 -104q-50 -39 -155 -39q-31 0 -31 31z" />
    <glyph glyph-name="uni00B9" unicode="&#xb9;" horiz-adv-x="632" 
d="M119 1266q0 12 14 22l152 125q43 31 55 31q41 0 41 -31v-522q0 -31 31 -31h82q31 0 30 -31q0 -31 -30 -30h-287q-31 1 -31 31t31 30h82q31 0 30 31v450q0 20 -28 0l-117 -100q-23 -20 -39 -3q-16 16 -16 28z" />
    <glyph glyph-name="ordmasculine" unicode="&#xba;" horiz-adv-x="811" 
d="M180 1116q0 -126 62 -196t164 -70t163 70t61 196t-60 197q-62 69 -164 69t-164 -70t-62 -196zM119 1116q0 150 81 239t206 89q126 0 206 -89t80 -239t-81 -238t-205 -90q-124 0 -206 89q-81 89 -81 239z" />
    <glyph glyph-name="guillemotright" unicode="&#xbb;" horiz-adv-x="1021" 
d="M430 1024q10 0 23 -10l473 -471q16 -17 16 -33t-18 -35l-467 -465q-9 -10 -21 -10t-28 16t6 37l438 439q18 18 0 36l-442 443q-22 22 -6 37q16 16 26 16zM594 510q0 -16 -19 -35l-374 -373q-20 -20 -37 -4q-29 29 -6 47l346 347q18 18 0 36l-350 351q-22 19 0 41t43 2
l381 -379q16 -17 16 -33z" />
    <glyph glyph-name="onequarter" unicode="&#xbc;" horiz-adv-x="1376" 
d="M705 190q0 8 6 15q102 88 153 181t51 239q0 31 31 31t31 -31q0 -133 -44 -237t-110 -163h267q31 0 30 31v217q0 31 31 31t31 -31v-217q0 -31 30 -31h62q31 -1 31 -31t-31 -30h-62q-31 0 -30 -31v-113q0 -30 -31 -30t-31 30v113q0 31 -30 31h-359q-20 0 -26 16v10zM213 47
l887 1370q17 23 43 7q27 -17 6 -38l-885 -1372q-16 -23 -44 -8q-28 14 -7 41zM90 1268q0 12 14 22l152 125q43 31 55 31q41 0 41 -31v-522q0 -31 31 -31h82q31 0 31 -31t-31 -30h-287q-31 1 -31 31t31 30h82q31 0 31 31v450q0 20 -29 0l-117 -100q-23 -23 -39 -5t-16 30z
" />
    <glyph glyph-name="onehalf" unicode="&#xbd;" horiz-adv-x="1380" 
d="M768 31v61q0 86 71 141t155 75t154 58q71 38 71 95q0 123 -205 123q-127 0 -203 -84q-16 -27 -43 0q-10 10 -10 21t10 22q102 102 246 102q266 0 266 -184q0 -66 -46 -108t-112 -62l-133 -43q-160 -49 -160 -156q0 -31 31 -31h328q31 0 31 31v51q1 31 31 31t30 -31v-112
q0 -31 -31 -31h-450q-31 0 -31 31zM232 0q-12 0 -24 7q-13 7 -13 19t8 21l887 1370q17 24 43 7t6 -38l-885 -1372q-10 -14 -22 -14zM80 1268q0 12 14 22l152 125q43 31 55 31q41 0 41 -31v-522q0 -31 31 -31h82q31 0 30 -31q0 -31 -30 -30h-287q-31 1 -31 31t31 30h82
q31 0 31 31v450q0 20 -29 0l-117 -100q-19 -23 -37 -5t-18 30z" />
    <glyph glyph-name="threequarters" unicode="&#xbe;" horiz-adv-x="1445" 
d="M778 190q0 8 6 15q102 88 154 181q51 93 51 239q0 31 31 31t31 -31q0 -133 -44 -237t-110 -163h266q31 0 31 31v217q0 31 31 31t30 -31v-217q0 -31 31 -31h62q30 -1 30 -31t-30 -30h-62q-31 0 -31 -31v-113q0 -31 -30 -30q-31 0 -31 30v113q0 31 -31 31h-358
q-21 0 -27 16v10zM279 26q0 10 8 21l887 1370q10 15 22 15t18 -5q29 -20 9 -41l-885 -1372q-18 -22 -38 -10t-21 22zM557 963q0 61 -43 97t-121 36h-133q-31 2 -31 30t31 29h133q143 0 144 115q0 115 -185 112q-119 0 -190 -75q-23 -20 -43 0t6 51q27 30 93 58t161 28
t157 -47t62 -137t-102 -134q123 -45 122 -163q0 -82 -64 -128q-64 -47 -165 -47q-99 0 -169 31t-105 72q-9 12 -11 21q-2 10 14 26t40 -4q33 -35 89 -60t115 -24q195 0 195 113z" />
    <glyph glyph-name="questiondown" unicode="&#xbf;" horiz-adv-x="1089" 
d="M553 839q-45 0 -74 29t-28 74q0 45 28 74q29 28 74 28t74 -28t29 -74q0 -45 -30 -74q-28 -29 -73 -29zM522 645q0 31 31 31t31 -31q0 -104 -45 -181t-109 -126l-131 -94q-156 -113 -156 -285q0 -131 111 -229t300 -98t299 92q110 94 110 256q0 31 30 30q31 0 31 -30
q0 -186 -125 -298t-345 -112t-346 116t-126 270t88 253q39 43 86 80l92 71q47 37 86 74q88 86 88 211z" />
    <glyph glyph-name="Agrave" unicode="&#xc0;" horiz-adv-x="1482" 
d="M1032 500h-581q-37 0 -50 -29l-145 -379q-16 -31 20 -31h123q31 -1 31 -31t-31 -30h-389q-31 0 -30 31q0 31 30 30h133q25 0 41 31l512 1331q8 31 45 31t45 -31l512 -1331q14 -31 41 -31h134q31 -1 31 -31t-31 -30h-390q-31 0 -30 31q0 31 30 30h123q35 0 21 31l-146 379
q-12 29 -49 29zM742 1333q-8 0 -13 -12l-280 -729q-16 -31 22 -31h541q37 0 22 31l-280 729q-4 12 -12 12zM518 1844q0 11 17 20q10 10 21 10t22 -19l182 -260q8 -10 8 -20t-14 -21q-12 -6 -24 -6t-19 13l-185 262q-8 10 -8 21z" />
    <glyph glyph-name="Aacute" unicode="&#xc1;" horiz-adv-x="1482" 
d="M1032 500h-581q-37 0 -50 -29l-145 -379q-16 -31 20 -31h123q31 -1 31 -31t-31 -30h-389q-31 0 -30 31q0 31 30 30h133q25 0 41 31l512 1331q8 31 45 31t45 -31l512 -1331q14 -31 41 -31h134q31 -1 31 -31t-31 -30h-390q-31 0 -30 31q0 31 30 30h123q35 0 21 31l-146 379
q-12 29 -49 29zM742 1333q-8 0 -13 -12l-280 -729q-16 -31 22 -31h541q37 0 22 31l-280 729q-4 12 -12 12zM711 1574q0 10 8 21l182 260q19 33 43 9q31 -15 8 -41l-184 -262q-18 -22 -38 -9q-19 12 -19 22z" />
    <glyph glyph-name="Acircumflex" unicode="&#xc2;" horiz-adv-x="1482" 
d="M1032 500h-581q-37 0 -50 -29l-145 -379q-16 -31 20 -31h123q31 -1 31 -31t-31 -30h-389q-31 0 -30 31q0 31 30 30h133q25 0 41 31l512 1331q8 31 45 31t45 -31l512 -1331q14 -31 41 -31h134q31 -1 31 -31t-31 -30h-390q-31 0 -30 31q0 31 30 30h123q35 0 21 31l-146 379
q-12 29 -49 29zM742 1333q-8 0 -13 -12l-280 -729q-16 -31 22 -31h541q37 0 22 31l-280 729q-4 12 -12 12zM739 1800q16 0 33 -16l225 -225q26 -22 2 -43t-45 0l-196 194q-18 18 -37 0l-193 -194q-20 -20 -37 -5q-16 15 -16 27t10 21l220 223q18 18 34 18z" />
    <glyph glyph-name="Atilde" unicode="&#xc3;" horiz-adv-x="1482" 
d="M1032 500h-581q-37 0 -50 -29l-145 -379q-16 -31 20 -31h123q31 -1 31 -31t-31 -30h-389q-31 0 -30 31q0 31 30 30h133q25 0 41 31l512 1331q8 31 45 31t45 -31l512 -1331q14 -31 41 -31h134q31 -1 31 -31t-31 -30h-390q-31 0 -30 31q0 31 30 30h123q35 0 21 31l-146 379
q-12 29 -49 29zM742 1333q-8 0 -13 -12l-280 -729q-16 -31 22 -31h541q37 0 22 31l-280 729q-4 12 -12 12zM485 1559q0 88 40 136t93 48q94 0 138 -77t98 -77q82 0 82 123q0 31 31 31t30 -31q0 -90 -40 -137t-93 -47q-94 0 -137 77t-98 76q-82 0 -82 -122q0 -31 -31 -31
t-31 31z" />
    <glyph glyph-name="Adieresis" unicode="&#xc4;" horiz-adv-x="1482" 
d="M1032 500h-581q-37 0 -50 -29l-145 -379q-16 -31 20 -31h123q31 -1 31 -31t-31 -30h-389q-31 0 -30 31q0 31 30 30h133q25 0 41 31l512 1331q8 31 45 31t45 -31l512 -1331q14 -31 41 -31h134q31 -1 31 -31t-31 -30h-390q-31 0 -30 31q0 31 30 30h123q35 0 21 31l-146 379
q-12 29 -49 29zM742 1333q-8 0 -13 -12l-280 -729q-16 -31 22 -31h541q37 0 22 31l-280 729q-4 12 -12 12zM823 1608q0 34 24 58q25 24 59 24t58 -24t24 -58t-24 -59q-24 -24 -58 -24t-60 23q-23 25 -23 60zM578 1690q34 0 58 -24t24 -58t-24 -59q-24 -24 -58 -24t-60 23
q-23 25 -22 60q0 34 24 58t58 24z" />
    <glyph glyph-name="Aring" unicode="&#xc5;" horiz-adv-x="1484" 
d="M842 1556q0 47 -30 75t-71 28t-71 -28t-29 -75q0 -46 30 -74q31 -28 71 -28t70 28t30 74zM742 1333q-8 0 -13 -12l-280 -729q-5 -8 -5 -20t27 -11h541q27 0 26 17q0 6 -4 14l-280 729q-4 12 -12 12zM1032 500h-581q-37 0 -50 -29l-145 -379q-16 -31 20 -31h123
q31 -1 31 -31t-31 -30h-389q-31 0 -30 31q0 31 30 30h133q25 0 41 31l504 1309q-109 37 -108 155q0 70 45 117t117 47t118 -47q47 -47 47 -108q0 -129 -112 -164l503 -1309q14 -31 41 -31h134q31 -1 31 -31t-31 -30h-390q-31 0 -30 31q0 31 30 30h123q35 0 21 31l-146 379
q-12 29 -49 29z" />
    <glyph glyph-name="AE" unicode="&#xc6;" horiz-adv-x="1974" 
d="M1016 1341q0 31 -31 31h-22q-27 0 -41 -31l-387 -696q-5 -8 -5 -19t27 -12h428q31 0 31 31v696zM1016 522q0 31 -31 31h-469q-37 0 -49 -29l-240 -432q-16 -31 21 -31h123q31 -1 31 -31t-31 -30h-389q-31 0 -31 31t31 30h133q25 0 41 31l721 1301q18 41 53 41h885
q31 0 30 -31v-287q-1 -31 -31 -31t-30 31v225q0 31 -31 31h-645q-31 0 -31 -31v-553q0 -31 31 -30h461q31 0 30 30v103q0 31 31 31t31 -31v-328q0 -31 -31 -31t-31 31v103q0 31 -30 30h-461q-31 0 -31 -30v-574q0 -31 31 -31h666q31 0 30 31v225q0 31 31 31t31 -31v-286
q0 -31 -31 -31h-973q-31 0 -31 31t31 30h123q31 0 31 31v430z" />
    <glyph glyph-name="Ccedilla" unicode="&#xc7;" horiz-adv-x="1425" 
d="M121 717q0 319 180 528t465 209q248 0 448 -174q33 -27 33 20v103q0 31 31 31t31 -31v-389q0 -31 -31 -31t-31 31v143q-55 63 -129 117q-168 119 -352 119q-252 0 -418 -194q-166 -193 -166 -485t172 -482t459 -191q287 0 463 186q20 20 36 4t17 -26q0 -10 -10 -21
q-209 -205 -515 -204h-11v20q0 31 -31 31t-31 -31v-17q-256 22 -422 205q-188 210 -188 529zM752 -307q143 0 143 82q0 35 -26 59t-76 23h-31q-31 0 -31 30v96q30 -3 62 -3v-62q75 0 119 -40t44 -104t-50 -104q-50 -39 -154 -39q-31 0 -31 31t31 31z" />
    <glyph glyph-name="Egrave" unicode="&#xc8;" horiz-adv-x="1257" 
d="M475 1855q0 12 17 19q8 10 20 10t23 -18l182 -260q8 -10 8 -20t-14 -21q-11 -6 -23 -6t-20 12l-185 262q-8 10 -8 22zM94 31q0 31 31 30h143q31 0 31 31v1249q0 31 -31 31h-143q-31 0 -31 31t31 31h973q31 0 30 -31v-287q0 -31 -30 -31t-31 31v225q0 31 -31 31h-645
q-31 0 -31 -31v-553q0 -31 31 -30h461q31 0 31 30v103q1 31 31 31t30 -31v-328q0 -31 -31 -31t-30 31v103q0 31 -31 30h-461q-31 0 -31 -30v-574q0 -31 31 -31h666q31 0 30 31v225q0 31 31 31t31 -31v-286q0 -31 -31 -31h-993q-31 0 -31 31z" />
    <glyph glyph-name="Eacute" unicode="&#xc9;" horiz-adv-x="1257" 
d="M635 1538q-12 0 -23 6q-14 10 -14 20t8 21l182 260q10 19 22 19t21 -11q30 -11 9 -41l-185 -262q-8 -12 -20 -12zM94 31q0 31 31 30h143q31 0 31 31v1249q0 31 -31 31h-143q-31 0 -31 31t31 31h973q31 0 30 -31v-287q0 -31 -30 -31t-31 31v225q0 31 -31 31h-645
q-31 0 -31 -31v-553q0 -31 31 -30h461q31 0 31 30v103q1 31 31 31t30 -31v-328q0 -31 -31 -31t-30 31v103q0 31 -31 30h-461q-31 0 -31 -30v-574q0 -31 31 -31h666q31 0 30 31v225q0 31 31 31t31 -31v-286q0 -31 -31 -31h-993q-31 0 -31 31z" />
    <glyph glyph-name="Ecircumflex" unicode="&#xca;" horiz-adv-x="1257" 
d="M375 1590q0 11 10 22l219 223q18 18 34 18t34 -16l225 -225q10 -10 10 -22t-10 -21q-10 -10 -21 -10t-22 10l-197 194q-18 18 -36 0l-193 -194q-10 -10 -22 -10t-21 10q-10 10 -10 21zM94 31q0 31 31 30h143q31 0 31 31v1249q0 31 -31 31h-143q-31 0 -31 31t31 31h973
q31 0 30 -31v-287q0 -31 -30 -31t-31 31v225q0 31 -31 31h-645q-31 0 -31 -31v-553q0 -31 31 -30h461q31 0 31 30v103q1 31 31 31t30 -31v-328q0 -31 -31 -31t-30 31v103q0 31 -31 30h-461q-31 0 -31 -30v-574q0 -31 31 -31h666q31 0 30 31v225q0 31 31 31t31 -31v-286
q0 -31 -31 -31h-993q-31 0 -31 31z" />
    <glyph glyph-name="Edieresis" unicode="&#xcb;" horiz-adv-x="1257" 
d="M743 1659q0 35 24 59q25 24 59 23q34 0 58 -24q24 -25 24 -59t-24 -58t-59 -23q-35 -1 -59 23t-23 59zM416 1659q0 35 24 59t58 23q34 0 58 -24q24 -25 24 -59t-24 -58t-58 -23q-34 -1 -58 23t-24 59zM94 31q0 31 31 30h143q31 0 31 31v1249q0 31 -31 31h-143
q-31 0 -31 31t31 31h973q31 0 30 -31v-287q0 -31 -30 -31t-31 31v225q0 31 -31 31h-645q-31 0 -31 -31v-553q0 -31 31 -30h461q31 0 31 30v103q1 31 31 31t30 -31v-328q0 -31 -31 -31t-30 31v103q0 31 -31 30h-461q-31 0 -31 -30v-574q0 -31 31 -31h666q31 0 30 31v225
q0 31 31 31t31 -31v-286q0 -31 -31 -31h-993q-31 0 -31 31z" />
    <glyph glyph-name="Igrave" unicode="&#xcc;" horiz-adv-x="659" 
d="M352 1565q0 -10 -14 -21q-10 -6 -22 -6t-21 12l-184 262q-24 30 8 41q22 28 43 -8l182 -260q8 -10 8 -20zM94 31q0 31 31 30h143q31 0 31 31v1249q0 31 -31 31h-143q-31 0 -31 31t31 31h410q31 0 31 -31t-31 -31h-144q-31 0 -31 -31v-1249q0 -31 31 -31h144q31 -1 31 -31
t-31 -30h-410q-31 0 -31 31z" />
    <glyph glyph-name="Iacute" unicode="&#xcd;" horiz-adv-x="659" 
d="M324 1538q-12 0 -23 6q-14 10 -14 20t8 21l182 260q11 19 23 19t20 -11q32 -12 8 -41l-184 -262q-8 -12 -20 -12zM94 31q0 31 31 30h143q31 0 31 31v1249q0 31 -31 31h-143q-31 0 -31 31t31 31h410q31 0 31 -31t-31 -31h-144q-31 0 -31 -31v-1249q0 -31 31 -31h144
q31 -1 31 -31t-31 -30h-410q-31 0 -31 31z" />
    <glyph glyph-name="Icircumflex" unicode="&#xce;" horiz-adv-x="659" 
d="M94 31q0 31 31 30h143q31 0 31 31v1249q0 31 -31 31h-143q-31 0 -31 31t31 31h410q31 0 31 -31t-31 -31h-144q-31 0 -31 -31v-1249q0 -31 31 -31h144q31 -1 31 -31t-31 -30h-410q-31 0 -31 31zM328 1853q16 0 32 -16l226 -225q10 -10 10 -22t-15 -26q-15 -15 -38 5
l-197 194q-18 18 -37 0l-192 -194q-23 -20 -44 1t1 42l219 223q19 18 35 18z" />
    <glyph glyph-name="Idieresis" unicode="&#xcf;" horiz-adv-x="659" 
d="M412 1659q0 35 24 59t58 23q34 0 58 -24q24 -25 24 -59t-24 -58t-58 -23q-34 -1 -58 23t-24 59zM94 31q0 31 31 30h143q31 0 31 31v1249q0 31 -31 31h-143q-31 0 -31 31t31 31h410q31 0 31 -31t-31 -31h-144q-31 0 -31 -31v-1249q0 -31 31 -31h144q31 -1 31 -31t-31 -30
h-410q-31 0 -31 31zM84 1659q0 35 24 59t58 23q34 0 58 -24q24 -25 24 -59t-24 -58t-58 -23q-34 -1 -58 23t-24 59z" />
    <glyph glyph-name="Eth" unicode="&#xd0;" horiz-adv-x="1503" 
d="M360 92q0 -31 31 -31h307q279 1 452 187t173 469t-173 469t-452 186h-307q-31 0 -31 -31v-563q0 -31 31 -30h144q31 0 31 -31t-31 -31h-144q-31 0 -31 -31v-563zM94 31q0 31 31 30h143q31 0 31 31v563q0 31 -31 31h-143q-31 0 -31 31t31 31h143q31 0 31 30v563
q0 31 -31 31h-143q-31 0 -31 31t31 31h573q310 0 498 -205t188 -512t-188 -512t-498 -205h-573q-31 0 -31 31z" />
    <glyph glyph-name="Ntilde" unicode="&#xd1;" horiz-adv-x="1607" 
d="M535 1608q0 88 39 136q40 48 94 48q94 0 137 -77t98 -77q82 0 82 123q0 31 31 31t31 -31q0 -90 -40 -137t-94 -47q-94 0 -137 77t-98 77q-82 0 -82 -123q0 -31 -30 -31t-31 31zM125 61h143q31 0 31 31v1249q0 31 -31 31h-143q-31 0 -31 31t31 31h225q33 0 51 -31
l840 -1280q4 -8 12 -7t9 17v1208q0 31 -31 31h-123q-31 0 -31 31t31 31h389q31 0 31 -31t-31 -31h-143q-31 0 -31 -31v-1249q0 -31 31 -31h143q31 -1 31 -31t-31 -30h-225q-33 0 -51 31l-840 1280q-4 8 -12 7t-9 -18v-1208q0 -31 31 -31h123q31 -1 31 -31t-31 -30h-389
q-31 0 -31 30t31 31z" />
    <glyph glyph-name="Ograve" unicode="&#xd2;" horiz-adv-x="1609" 
d="M598 1855q0 12 16 19q8 10 20 10t23 -18l183 -260q8 -10 8 -20t-14 -21q-10 -6 -22 -6t-21 12l-185 262q-8 10 -8 22zM180 717q0 -295 172 -485t453 -191q281 0 453 190q172 189 172 485t-172 486t-454 190q-280 0 -452 -190t-172 -485zM119 717q0 321 188 529
q187 208 497 208t498 -208t189 -530q0 -322 -188 -529q-187 -207 -497 -207t-499 207q-188 208 -188 530z" />
    <glyph glyph-name="Oacute" unicode="&#xd3;" horiz-adv-x="1609" 
d="M974 1884q12 0 21 -10q17 -6 17 -18t-8 -23l-185 -262q-8 -12 -20 -12t-23 6q-14 11 -14 21t8 20l182 260q10 18 22 18zM180 717q0 -295 172 -485t453 -191q281 0 453 190q172 189 172 485t-172 486t-454 190q-280 0 -452 -190t-172 -485zM119 717q0 321 188 529
q187 208 497 208t498 -208t189 -530q0 -322 -188 -529q-187 -207 -497 -207t-499 207q-188 208 -188 530z" />
    <glyph glyph-name="Ocircumflex" unicode="&#xd4;" horiz-adv-x="1609" 
d="M539 1590q0 11 10 22l219 223q18 18 34 18t34 -16l225 -225q10 -10 10 -22t-10 -21q-9 -10 -21 -10t-22 10l-197 194q-18 18 -37 0l-192 -194q-10 -10 -22 -10t-21 10q-10 10 -10 21zM180 717q0 -295 172 -485t453 -191q281 0 453 190q172 189 172 485t-172 486t-454 190
q-280 0 -452 -190t-172 -485zM119 717q0 321 188 529q187 208 497 208t498 -208t189 -530q0 -322 -188 -529q-187 -207 -497 -207t-499 207q-188 208 -188 530z" />
    <glyph glyph-name="Otilde" unicode="&#xd5;" horiz-adv-x="1609" 
d="M549 1608q0 88 41 136t94 48q94 0 136 -77t98 -77q82 0 81 123q0 31 31 31t31 -31q0 -90 -41 -137t-94 -47q-94 0 -136 77t-98 77q-82 0 -82 -123q0 -31 -30 -31t-31 31zM180 717q0 -295 172 -485t453 -191q281 0 453 190q172 189 172 485t-172 486t-454 190
q-280 0 -452 -190t-172 -485zM119 717q0 321 188 529q187 208 497 208t498 -208t189 -530q0 -322 -188 -529q-187 -207 -497 -207t-499 207q-188 208 -188 530z" />
    <glyph glyph-name="Odieresis" unicode="&#xd6;" horiz-adv-x="1609" 
d="M887 1679q0 35 23 59q24 24 59 24t59 -24t23 -59q0 -35 -24 -59q-25 -24 -59 -23q-34 -1 -58 23t-23 59zM559 1679q0 35 24 59q25 24 59 24t58 -24t23 -59q0 -35 -24 -59q-25 -24 -59 -23q-34 -1 -58 23t-23 59zM180 717q0 -295 172 -485t453 -191q281 0 453 190
q172 189 172 485t-172 486t-454 190q-280 0 -452 -190t-172 -485zM119 717q0 321 188 529q187 208 497 208t498 -208t189 -530q0 -322 -188 -529q-187 -207 -497 -207t-499 207q-188 208 -188 530z" />
    <glyph glyph-name="multiply" unicode="&#xd7;" horiz-adv-x="935" 
d="M150 997q0 11 10 23t21 12t22 -10l239 -240q20 -20 43 0l246 246q11 10 21 10t22 -10t12 -21t-10 -22l-248 -246q-20 -23 0 -43l240 -239q10 -9 10 -21t-16 -28t-37 6l-240 237q-23 20 -43 0l-231 -231q-9 -10 -21 -10t-22 10t-10 21t10 22l231 231q20 25 0 45l-239 238
q-10 10 -10 20z" />
    <glyph glyph-name="Oslash" unicode="&#xd8;" horiz-adv-x="1609" 
d="M805 41q281 0 453 190t172 486q0 356 -238 547l-727 -1129q143 -94 340 -94zM180 717q0 -352 236 -547l729 1126q-145 96 -340 97q-281 -1 -453 -191t-172 -485zM119 717q0 321 188 529t498 208q207 0 373 -104l45 67q16 23 41 10q29 -20 8 -41l-45 -69
q264 -207 264 -600q0 -322 -188 -530t-498 -207q-211 0 -375 102l-43 -68q-16 -22 -43 -8t-8 41l45 70q-262 211 -262 600z" />
    <glyph glyph-name="Ugrave" unicode="&#xd9;" horiz-adv-x="1589" 
d="M629 1834q0 12 16 19q28 28 43 -8l182 -260q18 -23 -6 -41q-12 -6 -24 -6t-19 12l-184 262q-8 10 -8 22zM88 1434h389q31 0 31 -31t-31 -31h-123q-31 0 -30 -31v-829q0 -213 133 -342t338 -129t338 129t133 342v829q0 31 -31 31h-123q-31 0 -31 31t31 31h389q31 0 31 -31
t-31 -31h-143q-31 0 -31 -31v-829q-1 -236 -151 -384t-381 -148t-382 148t-151 384v829q0 31 -31 31h-143q-31 0 -31 31t31 31z" />
    <glyph glyph-name="Uacute" unicode="&#xda;" horiz-adv-x="1589" 
d="M1001 1835q0 -12 -8 -23l-184 -262q-11 -12 -23 -12t-23 8t-11 18t8 21l182 260q8 19 20 19t23 -11q16 -6 16 -18zM88 1434h389q31 0 31 -31t-31 -31h-123q-31 0 -30 -31v-829q0 -213 133 -342t338 -129t338 129t133 342v829q0 31 -31 31h-123q-31 0 -31 31t31 31h389
q31 0 31 -31t-31 -31h-143q-31 0 -31 -31v-829q-1 -236 -151 -384t-381 -148t-382 148t-151 384v829q0 31 -31 31h-143q-31 0 -31 31t31 31z" />
    <glyph glyph-name="Ucircumflex" unicode="&#xdb;" horiz-adv-x="1589" 
d="M792 1853q16 0 33 -16l226 -225q10 -10 10 -22t-10 -21q-9 -10 -21 -10t-22 10l-197 194q-18 18 -37 0l-192 -194q-10 -10 -22 -10t-21 10q-10 9 -10 21t10 22l219 223q18 18 34 18zM88 1434h389q31 0 31 -31t-31 -31h-123q-31 0 -30 -31v-829q0 -213 133 -342t338 -129
t338 129t133 342v829q0 31 -31 31h-123q-31 0 -31 31t31 31h389q31 0 31 -31t-31 -31h-143q-31 0 -31 -31v-829q-1 -236 -151 -384t-381 -148t-382 148t-151 384v829q0 31 -31 31h-143q-31 0 -31 31t31 31z" />
    <glyph glyph-name="Udieresis" unicode="&#xdc;" horiz-adv-x="1589" 
d="M958 1741q34 0 59 -24q23 -25 23 -59t-24 -58t-58 -24t-59 23q-23 25 -22 60q-1 35 23 59t58 23zM631 1741q35 0 59 -24q24 -25 23 -59q0 -34 -24 -58q-25 -24 -59 -24t-59 23q-23 25 -22 60q-1 35 23 59t59 23zM88 1434h389q31 0 31 -31t-31 -31h-123q-31 0 -30 -31
v-829q0 -213 133 -342t338 -129t338 129t133 342v829q0 31 -31 31h-123q-31 0 -31 31t31 31h389q31 0 31 -31t-31 -31h-143q-31 0 -31 -31v-829q-1 -236 -151 -384t-381 -148t-382 148t-151 384v829q0 31 -31 31h-143q-31 0 -31 31t31 31z" />
    <glyph glyph-name="Yacute" unicode="&#xdd;" horiz-adv-x="1284" 
d="M868 1835q0 -12 -8 -23l-184 -262q-8 -12 -20 -12t-23 6q-14 10 -14 20t8 21l182 260q20 36 43 8q16 -6 16 -18zM10 1434h389q31 0 31 -31t-31 -31h-123q-16 0 -22 -9t2 -22l371 -647q14 -20 28 0l373 647q8 11 2 21t-22 10h-123q-31 0 -31 31t31 31h389q31 0 31 -31
t-31 -31h-123q-33 0 -51 -31l-426 -739v-510q0 -31 31 -31h143q31 -1 31 -31t-31 -30h-410q-31 0 -30 31q0 31 30 30h144q31 0 30 31v506l-428 743q-18 31 -51 31h-123q-31 0 -30 31q-1 31 30 31z" />
    <glyph glyph-name="Thorn" unicode="&#xde;" horiz-adv-x="1249" 
d="M360 92q0 -31 31 -31h144q31 -1 31 -31t-31 -30h-410q-31 0 -31 31t31 30h143q31 0 31 31v1249q0 31 -31 31h-143q-31 0 -31 31t31 31h410q31 0 31 -31t-31 -31h-144q-31 0 -31 -31v-102q0 -31 31 -31h215q264 0 414 -131t150 -360t-150 -361q-150 -131 -414 -131h-215
q-31 0 -31 -30v-103zM360 317q0 -31 31 -30h215q242 1 372 113t130 317t-130 317t-372 113h-215q-31 0 -31 -31v-799z" />
    <glyph glyph-name="germandbls" unicode="&#xdf;" horiz-adv-x="1312" 
d="M104 61h144q31 0 31 31v840q0 31 -31 31h-144q-30 1 -30 31t30 30h144q31 0 31 31v20q0 183 103 281t260 98t255 -82t98 -198q1 -116 -117 -191q-118 -73 -118 -139q0 -113 174 -205q70 -37 143 -86q172 -115 174 -287q0 -119 -96 -203t-252 -83q-256 0 -409 204
q-25 29 2 46t41 -3q135 -186 366 -186q135 1 211 65t76 148q0 152 -129 238l-117 77l-119 72q-53 33 -90 85t-37 112t37 103q37 44 81 73q44 30 81 66t37 87q0 101 -79 163t-215 62t-218 -79q-82 -80 -82 -238v-1044q0 -31 -31 -31h-205q-31 0 -30 31q-1 30 30 30z" />
    <glyph glyph-name="agrave" unicode="&#xe0;" 
d="M543 1044q172 0 276 -97t105 -240v-615q0 -31 30 -31h144q30 -1 30 -31t-30 -30h-205q-31 0 -31 31v114q0 21 -8 29t-25 -8q-55 -70 -153 -128t-205 -58q-190 0 -289 85q-98 85 -98 220t113 222t297 87h337q31 0 31 31v82q0 119 -90 197t-221 79q-131 0 -215 -36
q-84 -37 -118 -63t-51 -1t5 41q148 120 371 120zM862 502q0 31 -31 30h-337q-178 0 -264 -69q-85 -69 -85 -177t79 -176t239 -69q199 0 350 201q27 35 49 75v185zM340 1465q0 11 16 20q10 10 22 10t21 -18l183 -260q8 -11 8 -21t-20 -23t-38 9l-184 262q-8 10 -8 21z" />
    <glyph glyph-name="aacute" unicode="&#xe1;" 
d="M543 1044q172 0 276 -97t105 -240v-615q0 -31 30 -31h144q30 -1 30 -31t-30 -30h-205q-31 0 -31 31v114q0 21 -8 29t-25 -8q-55 -70 -153 -128t-205 -58q-190 0 -289 85q-98 85 -98 220t113 222t297 87h337q31 0 31 31v82q0 119 -90 197t-221 79q-131 0 -215 -36
q-84 -37 -118 -63t-51 -1t5 41q148 120 371 120zM862 502q0 31 -31 30h-337q-178 0 -264 -69q-85 -69 -85 -177t79 -176t239 -69q199 0 350 201q27 35 49 75v185zM716 1495q12 0 21 -10q31 -15 8 -41l-184 -262q-18 -22 -38 -9q-19 13 -19 23t8 21l182 260q10 18 22 18z" />
    <glyph glyph-name="acircumflex" unicode="&#xe2;" 
d="M543 1044q172 0 276 -97t105 -240v-615q0 -31 30 -31h144q30 -1 30 -31t-30 -30h-205q-31 0 -31 31v114q0 21 -8 29t-25 -8q-55 -70 -153 -128t-205 -58q-190 0 -289 85q-98 85 -98 220t113 222t297 87h337q31 0 31 31v82q0 119 -90 197t-221 79q-131 0 -215 -36
q-84 -37 -118 -63t-51 -1t5 41q148 120 371 120zM862 502q0 31 -31 30h-337q-178 0 -264 -69q-85 -69 -85 -177t79 -176t239 -69q199 0 350 201q27 35 49 75v185zM813 1180q0 -10 -10 -20q-9 -10 -21 -11q-12 0 -22 10l-197 195q-18 18 -37 0l-192 -195q-12 -10 -22 -10
t-21 10q-10 11 -10 21t10 22l219 223q35 35 68 2l225 -225q10 -12 10 -22z" />
    <glyph glyph-name="atilde" unicode="&#xe3;" 
d="M543 1044q172 0 276 -97t105 -240v-615q0 -31 30 -31h144q30 -1 30 -31t-30 -30h-205q-31 0 -31 31v114q0 21 -8 29t-25 -8q-55 -70 -153 -128t-205 -58q-190 0 -289 85q-98 85 -98 220t113 222t297 87h337q31 0 31 31v82q0 119 -90 197t-221 79q-131 0 -215 -36
q-84 -37 -118 -63t-51 -1t5 41q148 120 371 120zM862 502q0 31 -31 30h-337q-178 0 -264 -69q-85 -69 -85 -177t79 -176t239 -69q199 0 350 201q27 35 49 75v185zM291 1198q0 88 41 136t94 48q94 0 136 -76t97 -77q82 0 82 123q0 30 31 30t31 -30q0 -90 -41 -138t-94 -47
q-94 0 -136 77t-98 77q-82 0 -82 -123q0 -31 -30 -31t-31 31z" />
    <glyph glyph-name="adieresis" unicode="&#xe4;" 
d="M543 1044q172 0 276 -97t105 -240v-615q0 -31 30 -31h144q30 -1 30 -31t-30 -30h-205q-31 0 -31 31v114q0 21 -8 29t-25 -8q-55 -70 -153 -128t-205 -58q-190 0 -289 85q-98 85 -98 220t113 222t297 87h337q31 0 31 31v82q0 119 -90 197t-221 79q-131 0 -215 -36
q-84 -37 -118 -63t-51 -1t5 41q148 120 371 120zM862 502q0 31 -31 30h-337q-178 0 -264 -69q-85 -69 -85 -177t79 -176t239 -69q199 0 350 201q27 35 49 75v185zM649 1250q0 34 24 58q25 24 59 24t58 -24t24 -59t-24 -59t-58 -23q-34 0 -60 23q-23 26 -23 60zM404 1167
q-34 0 -60 23q-22 26 -22 60t23 58q25 24 59 24t58 -24t24 -59t-24 -59t-58 -23z" />
    <glyph glyph-name="aring" unicode="&#xe5;" 
d="M543 1044q172 0 276 -97t105 -240v-615q0 -31 30 -31h144q30 -1 30 -31t-30 -30h-205q-31 0 -31 31v114q0 21 -8 29t-25 -8q-55 -70 -153 -128t-205 -58q-190 0 -289 85q-98 85 -98 220t113 222t297 87h337q31 0 31 31v82q0 119 -90 197t-221 79q-131 0 -215 -36
q-84 -37 -118 -63t-51 -1t5 41q148 120 371 120zM862 502q0 31 -31 30h-337q-178 0 -264 -69q-85 -69 -85 -177t79 -176t239 -69q199 0 350 201q27 35 49 75v185zM547 1413q-47 0 -75 -28q-28 -29 -28 -75t28 -74t75 -28t75 28t27 75q1 47 -27 75t-75 27zM383 1311
q0 71 46 117t118 46t118 -46q46 -48 46 -118t-46 -116q-46 -47 -118 -47t-119 47q-45 47 -45 117z" />
    <glyph glyph-name="ae" unicode="&#xe6;" horiz-adv-x="1918" 
d="M1827 625v-31q0 -61 -62 -62h-788q-31 0 -31 -30q0 -201 114 -331t301 -130t314 102q33 25 51 41t28 12t26 -22t-8 -39q-74 -63 -170 -109t-244 -46t-263 78q-114 78 -167 214q-72 -127 -198 -210t-255 -82q-199 0 -294 80t-95 224q0 146 105 228t305 82h358q31 0 31 31
v82q0 119 -92 197q-91 78 -231 79q-140 0 -224 -36q-84 -37 -118 -63t-52 -1t6 41q145 121 387 120q147 0 250 -74q102 -75 127 -192q61 125 171 196t247 70q199 0 335 -129t136 -290zM983 594h752q31 0 30 31q1 135 -119 247t-294 111q-174 0 -291 -131q-43 -49 -70 -99
t-37 -128q-6 -31 29 -31zM885 502q0 31 -31 30h-358q-348 0 -349 -245q0 -246 328 -246q207 0 361 201q27 35 49 75v185z" />
    <glyph glyph-name="ccedilla" unicode="&#xe7;" horiz-adv-x="1146" 
d="M555 983q-166 0 -279 -131q-110 -133 -110 -344t117 -339t306 -128t316 102q33 25 51 41t28 12t22 -18q10 -12 10 -21t-19 -28q-68 -59 -162 -103t-233 -46v-62q76 0 120 -40t44 -104t-50 -104q-50 -39 -155 -39q-31 0 -31 31t31 31q143 0 144 82q0 35 -26 59t-77 23h-31
q-31 0 -30 30v94q-186 15 -311 155t-126 376q0 236 129 384t327 148t351 -153q33 -29 33 20v82q0 31 31 31t31 -31v-327q0 -31 -31 -31t-31 31v102q-166 215 -389 215z" />
    <glyph glyph-name="egrave" unicode="&#xe8;" horiz-adv-x="1161" 
d="M172 578q0 -25 29 -25h776q31 0 31 31q0 164 -120 282t-303 117q-183 0 -298 -129t-115 -276zM588 -20q-217 0 -349 150t-133 382q0 233 132 383q132 149 347 149q214 0 349 -135t135 -325v-31q0 -61 -61 -61h-807q-35 0 -31 -31q12 -178 122 -299t313 -121t354 143
q17 16 27 12t26 -22t-8 -39q-74 -63 -170 -109t-246 -46zM371 1465q0 11 16 20q9 10 21 10t22 -18l182 -260q19 -24 1 -36q-35 -21 -50 1l-184 262q-8 10 -8 21z" />
    <glyph glyph-name="eacute" unicode="&#xe9;" horiz-adv-x="1161" 
d="M172 578q0 -25 29 -25h776q31 0 31 31q0 164 -120 282t-303 117q-183 0 -298 -129t-115 -276zM588 -20q-217 0 -349 150t-133 382q0 233 132 383q132 149 347 149q214 0 349 -135t135 -325v-31q0 -61 -61 -61h-807q-35 0 -31 -31q12 -178 122 -299t313 -121t354 143
q17 16 27 12t26 -22t-8 -39q-74 -63 -170 -109t-246 -46zM766 1495q12 0 22 -10q30 -15 9 -41l-185 -262q-18 -22 -38 -9q-19 13 -19 23t8 21l182 260q9 18 21 18z" />
    <glyph glyph-name="ecircumflex" unicode="&#xea;" horiz-adv-x="1161" 
d="M172 578q0 -25 29 -25h776q31 0 31 31q0 164 -120 282t-303 117q-183 0 -298 -129t-115 -276zM588 -20q-217 0 -349 150t-133 382q0 233 132 383q132 149 347 149q214 0 349 -135t135 -325v-31q0 -61 -61 -61h-807q-35 0 -31 -31q12 -178 122 -299t313 -121t354 143
q17 16 27 12t26 -22t-8 -39q-74 -63 -170 -109t-246 -46zM844 1181q0 -11 -10 -21t-22 -11q-12 0 -21 10l-197 195q-18 18 -37 0l-192 -195q-9 -10 -21 -10t-22 10q-10 9 -10 21t10 22l219 223q34 34 67 2l226 -225q10 -10 10 -21z" />
    <glyph glyph-name="edieresis" unicode="&#xeb;" horiz-adv-x="1161" 
d="M172 578q0 -25 29 -25h776q31 0 31 31q0 164 -120 282t-303 117q-183 0 -298 -129t-115 -276zM588 -20q-217 0 -349 150t-133 382q0 233 132 383q132 149 347 149q214 0 349 -135t135 -325v-31q0 -61 -61 -61h-807q-35 0 -31 -31q12 -178 122 -299t313 -121t354 143
q17 16 27 12t26 -22t-8 -39q-74 -63 -170 -109t-246 -46zM659 1270q0 34 24 58q25 24 59 24t58 -24t24 -58t-24 -59q-24 -24 -58 -24t-60 23q-23 25 -23 60zM414 1352q34 0 58 -24t24 -58t-24 -59q-24 -24 -58 -24t-60 23q-23 25 -22 60q0 34 24 58t58 24z" />
    <glyph glyph-name="igrave" unicode="&#xec;" horiz-adv-x="585" 
d="M84 1466q0 12 16 19q10 10 22 10t21 -18l183 -260q8 -11 8 -21t-15 -20q-31 -16 -43 6l-184 262q-8 10 -8 22zM76 31q0 31 30 30h144q31 0 31 31v840q0 31 -31 31h-144q-30 1 -30 31t30 30h205q31 0 31 -31v-901q0 -31 31 -31h143q31 -1 31 -31t-31 -30h-410
q-30 0 -30 31z" />
    <glyph glyph-name="iacute" unicode="&#xed;" horiz-adv-x="585" 
d="M458 1495q12 0 23 -10q17 -7 17 -19t-9 -22l-184 -262q-20 -24 -38 -10q-19 14 -19 24t8 21l182 260q8 18 20 18zM76 31q0 31 30 30h144q31 0 31 31v840q0 31 -31 31h-144q-30 1 -30 31t30 30h205q31 0 31 -31v-901q0 -31 31 -31h143q31 -1 31 -31t-31 -30h-410
q-30 0 -30 31z" />
    <glyph glyph-name="icircumflex" unicode="&#xee;" horiz-adv-x="585" 
d="M76 31q0 31 30 30h144q31 0 31 31v840q0 31 -31 31h-144q-30 1 -30 31t30 30h205q31 0 31 -31v-901q0 -31 31 -31h143q31 -1 31 -31t-31 -30h-410q-30 0 -30 31zM25 1180q0 12 10 22l219 223q35 35 68 2l225 -225q10 -10 10 -21t-16 -27t-37 5l-197 195q-18 18 -37 0
l-192 -195q-20 -20 -37 -5q-16 14 -16 26z" />
    <glyph glyph-name="idieresis" unicode="&#xef;" horiz-adv-x="585" 
d="M373 1270q-1 34 23 58t59 24t59 -24t23 -58q0 -34 -24 -59q-25 -23 -59 -23t-58 23q-23 24 -23 59zM76 31q0 31 30 30h144q31 0 31 31v840q0 31 -31 31h-144q-30 1 -30 31t30 30h205q31 0 31 -31v-901q0 -31 31 -31h143q31 -1 31 -31t-31 -30h-410q-30 0 -30 31zM45 1270
q0 34 24 58q25 24 59 24t58 -24t23 -58q0 -34 -24 -59q-25 -23 -59 -23t-58 24t-23 58z" />
    <glyph glyph-name="eth" unicode="&#xf0;" horiz-adv-x="1284" 
d="M264 1506q0 30 31 30q238 0 448 -145q27 -20 45 4l127 151q18 27 43 4q20 -23 7 -43l-127 -151q-18 -20 4 -43q137 -135 215 -317t78 -382q-1 -286 -143 -460t-376 -174t-370 135q-135 135 -135 356t147 346t399 125h318q36 0 26 31q-72 170 -200 293q-25 18 -43 -2
l-115 -136q-18 -25 -43 -3t-2 44l113 134q23 23 0 34q-188 137 -416 138q-31 1 -31 31zM1073 614q0 127 -31 236q-12 31 -41 31h-333q-248 0 -372 -109q-124 -108 -124 -304t118 -312t322 -115t333 151q128 150 128 422z" />
    <glyph glyph-name="ntilde" unicode="&#xf1;" horiz-adv-x="1368" 
d="M453 1198q0 88 40 136t93 48q94 0 137 -76t98 -77q82 0 82 123q0 30 31 30t31 -30q0 -90 -40 -138t-94 -47q-94 0 -137 77t-98 77q-82 0 -82 -123q0 -31 -30 -31t-31 31zM104 61h144q31 0 31 31v840q0 31 -31 31h-144q-30 1 -30 31t30 30h205q31 0 31 -31v-114
q0 -21 8 -29t25 8q167 186 361 186t299 -105t106 -304v-543q0 -31 30 -31h144q31 -1 31 -31t-31 -30h-389q-31 0 -31 31t31 30h123q31 0 30 31v543q0 174 -90 261t-246 87t-295 -139q-61 -61 -106 -137v-615q0 -31 31 -31h123q30 -1 30 -31t-30 -30h-390q-31 0 -30 31
q-1 30 30 30z" />
    <glyph glyph-name="ograve" unicode="&#xf2;" horiz-adv-x="1212" 
d="M437 1495q11 0 22 -18l182 -260q8 -11 8 -21t-14 -20q-30 -15 -43 6l-184 262q-8 10 -9 21q0 11 17 20q10 10 21 10zM166 511q0 -214 120 -342t320 -128t321 128q120 128 120 342t-121 343q-122 129 -320 129t-319 -129t-121 -343zM104 512q0 238 140 385t362 147
t362 -147t140 -385t-139 -385t-363 -147t-362 147q-140 147 -140 385z" />
    <glyph glyph-name="oacute" unicode="&#xf3;" horiz-adv-x="1212" 
d="M775 1495q11 0 22 -10q16 -7 16 -19t-8 -22l-184 -262q-19 -23 -44 -5q-25 17 -6 40l183 260q10 18 21 18zM166 511q0 -214 120 -342t320 -128t321 128q120 128 120 342t-121 343q-122 129 -320 129t-319 -129t-121 -343zM104 512q0 238 140 385t362 147t362 -147
t140 -385t-139 -385t-363 -147t-362 147q-140 147 -140 385z" />
    <glyph glyph-name="ocircumflex" unicode="&#xf4;" horiz-adv-x="1212" 
d="M340 1180q0 12 10 22l219 223q35 35 68 2l225 -225q10 -10 10 -21t-10 -21t-21 -11q-11 0 -22 10l-196 195q-18 18 -37 0l-193 -195q-9 -10 -21 -10t-22 10q-10 9 -10 21zM166 511q0 -214 120 -342t320 -128t321 128q120 128 120 342t-121 343q-122 129 -320 129
t-319 -129t-121 -343zM104 512q0 238 140 385t362 147t362 -147t140 -385t-139 -385t-363 -147t-362 147q-140 147 -140 385z" />
    <glyph glyph-name="otilde" unicode="&#xf5;" horiz-adv-x="1212" 
d="M350 1198q0 88 40 136t93 48q93 0 137 -76t99 -77q82 0 82 123q0 31 30 30q31 0 31 -30q0 -90 -40 -138t-93 -47q-94 0 -137 77t-98 77q-82 0 -82 -123q0 -31 -31 -31t-31 31zM166 511q0 -214 120 -342t320 -128t321 128q120 128 120 342t-121 343q-122 129 -320 129
t-319 -129t-121 -343zM104 512q0 238 140 385t362 147t362 -147t140 -385t-139 -385t-363 -147t-362 147q-140 147 -140 385z" />
    <glyph glyph-name="odieresis" unicode="&#xf6;" horiz-adv-x="1212" 
d="M688 1270q0 34 24 58t58 24t58 -24t24 -58t-24 -59q-24 -23 -58 -23t-58 24t-24 58zM360 1270q0 34 24 58t58 24t59 -24q23 -24 23 -58t-24 -59q-24 -23 -58 -23t-58 24t-24 58zM166 511q0 -214 120 -342t320 -128t321 128q120 128 120 342t-121 343q-122 129 -320 129
t-319 -129t-121 -343zM104 512q0 238 140 385t362 147t362 -147t140 -385t-139 -385t-363 -147t-362 147q-140 147 -140 385z" />
    <glyph glyph-name="divide" unicode="&#xf7;" horiz-adv-x="1189" 
d="M481 983q0 47 28 75t75 28q46 0 74 -28t28 -75t-28 -75t-74 -28t-75 28q-28 28 -28 75zM481 328q0 46 28 74t75 28q46 0 74 -28t28 -74t-28 -75q-28 -28 -74 -28t-75 28q-28 28 -28 75zM164 655q0 31 31 31h798q31 0 31 -31t-31 -30h-798q-31 -1 -31 30z" />
    <glyph glyph-name="oslash" unicode="&#xf8;" horiz-adv-x="1212" 
d="M606 41q201 0 321 128t120 343q0 258 -162 381l-510 -795q100 -57 231 -57zM166 512q0 -250 158 -379l512 793q-100 57 -230 57q-200 0 -320 -129t-120 -342zM104 512q0 238 140 385t362 147q143 0 262 -67l35 53q11 14 23 14t18 -4q29 -20 8 -41l-37 -55
q193 -152 193 -432q0 -238 -139 -385t-363 -147q-147 0 -264 67l-35 -53q-8 -14 -20 -14t-21 4q-29 16 -10 43l35 55q-187 147 -187 430z" />
    <glyph glyph-name="ugrave" unicode="&#xf9;" horiz-adv-x="1331" 
d="M451 1425q0 12 16 19q8 10 20 10t23 -18l182 -260q8 -10 8 -20t-20 -25q-20 -14 -37 10l-184 262q-8 10 -8 22zM53 1024h205q31 0 31 -31v-604q0 -174 90 -261t246 -87t293 137q61 63 108 139v615q0 31 -31 31h-143q-31 1 -31 31t31 30h205q31 0 30 -31v-901
q0 -31 31 -31h144q30 -1 30 -31t-30 -30h-205q-31 0 -31 31v114q0 21 -8 29t-25 -8q-167 -186 -361 -186t-299 105t-106 304v543q0 31 -30 31h-144q-31 0 -30 30q-1 31 30 31z" />
    <glyph glyph-name="uacute" unicode="&#xfa;" horiz-adv-x="1331" 
d="M766 1454q12 0 20 -10q16 -6 16 -18t-7 -23l-185 -262q-16 -23 -36 -10q-21 15 -21 25t8 20l182 260q11 18 23 18zM53 1024h205q31 0 31 -31v-604q0 -174 90 -261t246 -87t293 137q61 63 108 139v615q0 31 -31 31h-143q-31 1 -31 31t31 30h205q31 0 30 -31v-901
q0 -31 31 -31h144q30 -1 30 -31t-30 -30h-205q-31 0 -31 31v114q0 21 -8 29t-25 -8q-167 -186 -361 -186t-299 105t-106 304v543q0 31 -30 31h-144q-31 0 -30 30q-1 31 30 31z" />
    <glyph glyph-name="ucircumflex" unicode="&#xfb;" horiz-adv-x="1331" 
d="M903 1180q0 -10 -10 -20q-9 -10 -21 -11q-12 0 -22 10l-197 195q-18 18 -37 0l-192 -195q-10 -10 -22 -10t-21 10q-10 11 -10 21t10 22l219 223q35 35 68 2l225 -225q10 -12 10 -22zM53 1024h205q31 0 31 -31v-604q0 -174 90 -261t246 -87t293 137q61 63 108 139v615
q0 31 -31 31h-143q-31 1 -31 31t31 30h205q31 0 30 -31v-901q0 -31 31 -31h144q30 -1 30 -31t-30 -30h-205q-31 0 -31 31v114q0 21 -8 29t-25 -8q-167 -186 -361 -186t-299 105t-106 304v543q0 31 -30 31h-144q-31 0 -30 30q-1 31 30 31z" />
    <glyph glyph-name="udieresis" unicode="&#xfc;" horiz-adv-x="1331" 
d="M883 1249q0 -35 -24 -59q-25 -24 -59 -23q-34 0 -59 23q-23 26 -23 60t24 58t59 24t59 -24t23 -59zM391 1250q0 34 24 58q25 24 59 24t58 -24t23 -59q0 -35 -24 -59t-58 -23q-34 0 -59 23q-23 26 -23 60zM53 1024h205q31 0 31 -31v-604q0 -174 90 -261t246 -87t293 137
q61 63 108 139v615q0 31 -31 31h-143q-31 1 -31 31t31 30h205q31 0 30 -31v-901q0 -31 31 -31h144q30 -1 30 -31t-30 -30h-205q-31 0 -31 31v114q0 21 -8 29t-25 -8q-167 -186 -361 -186t-299 105t-106 304v543q0 31 -30 31h-144q-31 0 -30 30q-1 31 30 31z" />
    <glyph glyph-name="yacute" unicode="&#xfd;" horiz-adv-x="1263" 
d="M337 -369q87 0 148 71t121 226l21 54q8 27 0 49l-424 901q-16 31 -41 31h-133q-31 1 -31 31t31 30h389q31 0 31 -31t-31 -30h-127q-37 0 -21 -31l387 -809q10 -29 23 0l313 809q14 31 -20 31h-127q-31 1 -31 31t31 30h389q31 0 31 -31t-31 -30h-133q-27 0 -41 -31
l-389 -1004q-80 -201 -132 -258t-101 -79q-49 -21 -125 -21t-142 36t-100 81q-24 25 -4 47t43 0q35 -35 87 -69t139 -34zM800 1454q12 0 21 -10q31 -15 8 -41l-184 -262q-18 -22 -38 -9q-19 14 -19 24t8 20l182 260q10 18 22 18z" />
    <glyph glyph-name="thorn" unicode="&#xfe;" horiz-adv-x="1228" 
d="M291 0q-31 0 -31 -31v-286q0 -31 31 -31h164q31 0 31 -31t-31 -31h-430q-31 0 -31 31t31 31h143q31 0 31 31v1658q0 31 -31 31h-143q-31 0 -31 31t31 31h204q31 0 31 -31v-524q0 -21 8 -29t25 8q51 66 149 126t228 60q206 0 328 -144t122 -388t-147 -378t-406 -134h-276z
M567 61q236 0 364 115t128 338t-108 346q-107 123 -277 123t-309 -139q-57 -57 -105 -137v-615q0 -31 31 -31h276z" />
    <glyph glyph-name="ydieresis" unicode="&#xff;" horiz-adv-x="1263" 
d="M337 -369q87 0 148 71t121 226l21 54q8 27 0 49l-424 901q-16 31 -41 31h-133q-31 1 -31 31t31 30h389q31 0 31 -31t-31 -30h-127q-37 0 -21 -31l387 -809q10 -29 23 0l313 809q14 31 -20 31h-127q-31 1 -31 31t31 30h389q31 0 31 -31t-31 -30h-133q-27 0 -41 -31
l-389 -1004q-80 -201 -132 -258t-101 -79q-49 -21 -125 -21t-142 36t-100 81q-24 25 -4 47t43 0q35 -35 87 -69t139 -34zM702 1229q0 35 24 59t58 23q34 0 59 -24q23 -25 23 -59t-24 -58t-58 -24t-59 23q-23 25 -23 60zM457 1311q35 0 59 -24q24 -25 23 -59q0 -34 -24 -58
q-25 -24 -59 -24t-59 23q-23 25 -22 60q-1 35 23 59t59 23z" />
    <glyph glyph-name="OE" unicode="&#x152;" horiz-adv-x="1890" 
d="M180 717q0 -283 173 -469t452 -187h102q31 0 31 31v1249q0 31 -31 31h-102q-279 0 -452 -186t-173 -469zM119 717q0 307 188 512t498 205h932q31 0 30 -31v-246q-1 -31 -31 -31t-30 31v184q0 31 -31 31h-645q-31 0 -31 -31v-553q0 -31 31 -30h461q31 0 31 30v103
q0 31 30 31t31 -31v-328q0 -31 -31 -31t-30 31v103q0 31 -31 30h-461q-31 0 -31 -30v-574q0 -31 31 -31h666q31 0 30 31v184q0 31 31 31t31 -31v-245q0 -31 -31 -31h-952q-309 0 -498 205q-188 205 -188 512z" />
    <glyph glyph-name="oe" unicode="&#x153;" horiz-adv-x="1875" 
d="M1303 -20q-213 0 -342 139q-135 -139 -357 -139t-360 147q-139 147 -140 385q0 238 140 385t358 147q219 0 359 -139q133 139 342 139t345 -135t136 -325v-31q0 -61 -62 -61h-807q-31 0 -30 -31q12 -180 122 -300t300 -120t315 102q33 25 51 41q19 16 29 12t25 -22
t-9 -39q-74 -63 -170 -109t-245 -46zM166 511q0 -214 120 -342t320 -128t316 123q-100 137 -101 347q0 210 101 347q-118 125 -316 125t-319 -129t-121 -343zM1692 553q31 0 30 31q0 164 -120 282t-302 117q-184 0 -290 -119t-123 -280q-2 -31 28 -31h777z" />
    <glyph glyph-name="Scaron" unicode="&#x160;" horiz-adv-x="1361" 
d="M755 41q205 0 319 91t114 237q0 80 -49 139t-127 94q-78 36 -314 100t-324 108q-190 94 -190 267t113 275t357 102t450 -174q33 -27 33 20v103q1 31 31 31t30 -31v-389q0 -31 -31 -31t-30 31v143q-113 129 -281 199q-90 37 -201 37q-209 0 -309 -86t-100 -211
q0 -80 49 -140t127 -94q78 -36 314 -100t324 -108q189 -93 189 -275t-129 -291q-129 -108 -383 -108t-458 174q-33 27 -33 -21v-102q0 -31 -31 -31t-31 31v389q0 31 31 31t31 -31v-154q55 -63 131 -112q172 -113 378 -113zM680 1569q-18 0 -35 16l-219 223q-23 20 -1 42
t44 1l193 -194q18 -18 36 0l197 194q20 20 42 -1q21 -21 1 -42l-225 -225q-15 -14 -33 -14z" />
    <glyph glyph-name="scaron" unicode="&#x161;" horiz-adv-x="1134" 
d="M594 41q178 0 273 62t96 163q0 135 -195 180q-90 20 -216 38t-183 36q-123 33 -185 91q-61 58 -61 166t109 188q110 79 307 79t350 -153q18 -20 25 -8t8 28v82q0 31 30 31t31 -31v-327q0 -31 -31 -31t-30 31v102q-88 117 -226 182q-72 33 -161 33q-167 0 -259 -60
q-92 -61 -92 -153t79 -142t241 -75q70 -13 142 -23t159 -30t153 -74q66 -55 66 -169t-108 -196q-108 -81 -299 -81t-334 98q-41 28 -64 52t-29 12t-6 -29v-82q0 -31 -30 -31t-31 31v327q0 31 31 31t30 -31v-102q84 -119 230 -182q76 -33 180 -33zM783 1421q11 0 27 -16
t-5 -37l-225 -225q-33 -33 -68 2l-219 223q-23 20 -7 36t28 17q11 0 22 -10l192 -194q18 -18 37 0l197 194q10 10 21 10z" />
    <glyph glyph-name="Ydieresis" unicode="&#x178;" horiz-adv-x="1284" 
d="M805 1741q35 0 59 -24q24 -25 23 -59q0 -34 -24 -58q-25 -24 -59 -24t-59 23q-23 25 -22 60q-1 35 23 59t59 23zM395 1659q0 35 24 59q25 24 59 23q34 0 58 -24q24 -25 24 -59t-24 -58t-58 -24t-60 23q-23 25 -23 60zM10 1434h389q31 0 31 -31t-31 -31h-123q-16 0 -22 -9
t2 -22l371 -647q14 -20 28 0l373 647q8 11 2 21t-22 10h-123q-31 0 -31 31t31 31h389q31 0 31 -31t-31 -31h-123q-33 0 -51 -31l-426 -739v-510q0 -31 31 -31h143q31 -1 31 -31t-31 -30h-410q-31 0 -30 31q0 31 30 30h144q31 0 30 31v506l-428 743q-18 31 -51 31h-123
q-31 0 -30 31q-1 31 30 31z" />
    <glyph glyph-name="Zcaron" unicode="&#x17d;" horiz-adv-x="1259" 
d="M878 1882q10 0 22 -10q11 -10 11 -22t-10 -21l-225 -225q-33 -33 -68 2l-219 223q-12 10 -12 20q0 9 11 21q12 12 22 12t22 -10l193 -195q18 -18 37 0l196 195q10 10 20 10zM205 1372q-31 0 -31 -31v-225q0 -31 -31 -31t-30 31v287q0 31 30 31h983q31 0 31 -35
q0 -11 -7 -21t-17 -26l-920 -1258q-10 -12 -6 -22t29 -11h819q31 0 30 31v225q0 31 31 31t31 -31v-286q0 -31 -31 -31h-983q-31 0 -31 35q0 12 8 21q7 9 17 26l920 1257q10 13 6 23t-29 10h-819z" />
    <glyph glyph-name="zcaron" unicode="&#x17e;" horiz-adv-x="1101" 
d="M783 1421q11 0 21 -10t11 -21q0 -11 -10 -22l-225 -225q-33 -33 -68 2l-219 223q-12 10 -12 20t11 22q11 11 21 11t23 -10l192 -194q18 -18 37 0l197 194q10 10 21 10zM205 963q-31 0 -31 -31v-195q0 -31 -31 -30q-31 0 -30 30v256q0 31 30 31h826q31 0 30 -35
q0 -20 -24 -47l-754 -848q-10 -10 -6 -21t29 -12h653q31 0 31 31v195q0 31 30 30q31 0 31 -30v-256q0 -31 -31 -31h-827q-31 0 -31 35q0 18 25 47l754 848q10 10 6 21t-29 12h-651z" />
    <glyph glyph-name="florin" unicode="&#x192;" horiz-adv-x="622" 
d="M-25 -430q-162 0 -262 117q-14 14 -14 26t10 21q20 20 49 -6q143 -86 226 -97q124 0 192 81t68 237l-2 983q0 31 -31 31h-143q-31 1 -31 31t31 30h143q31 0 31 31v20q0 183 84 281t243 98q85 0 149 -33t97 -65t33 -45q0 -11 -16 -27t-45 12q-99 98 -223 97
q-124 0 -192 -81t-69 -237v-20q0 -31 31 -31h328q31 0 30 -31q0 -31 -30 -30h-328q-31 0 -31 -31l2 -983q0 -183 -84 -281t-246 -98z" />
    <glyph glyph-name="circumflex" unicode="&#x2c6;" horiz-adv-x="536" 
d="M2 1160q0 11 10 22l219 223q19 18 35 18t33 -16l225 -225q23 -23 1 -44t-44 1l-196 194q-18 18 -37 0l-193 -194q-9 -10 -21 -10t-22 10t-10 21z" />
    <glyph glyph-name="tilde" unicode="&#x2dc;" horiz-adv-x="512" 
d="M0 1178q0 88 41 136t94 48q94 0 136 -77t98 -77q82 0 82 123q1 31 31 31t30 -31q0 -90 -41 -137t-94 -47q-94 0 -136 77t-98 76q-82 0 -82 -122q-1 -31 -31 -31t-30 31z" />
    <glyph glyph-name="endash" unicode="&#x2013;" horiz-adv-x="1335" 
d="M156 655q0 31 30 31h963q31 0 31 -31t-31 -30h-963q-30 -1 -30 30z" />
    <glyph glyph-name="emdash" unicode="&#x2014;" horiz-adv-x="1703" 
d="M156 655q0 31 30 31h1332q31 0 30 -31q0 -31 -30 -30h-1332q-30 -1 -30 30z" />
    <glyph glyph-name="quoteleft" unicode="&#x2018;" horiz-adv-x="468" 
d="M131 1128v31q0 106 41 181t113 106q10 6 22 6t23 -14q14 -27 -13 -39q-125 -55 -124 -189v-16q25 16 57 16t60 -28q26 -28 26 -74q0 -47 -28 -75t-75 -27q-102 -1 -102 122z" />
    <glyph glyph-name="quoteright" unicode="&#x2019;" horiz-adv-x="466" 
d="M162 1352q0 46 28 74t74 28q102 0 103 -123v-31q0 -106 -41 -181t-113 -105q-13 -6 -25 -6t-23 20t15 33q125 55 125 188v17q-70 -41 -118 11q-25 28 -25 75z" />
    <glyph glyph-name="quotesinglbase" unicode="&#x201a;" horiz-adv-x="495" 
d="M162 82q0 47 27 75q28 28 75 27q102 0 103 -123v-30q0 -105 -41 -181t-113 -106q-13 -6 -25 -6t-23 20t15 33q125 55 125 189v16q-27 -16 -59 -16t-59 27q-25 28 -25 75z" />
    <glyph glyph-name="quotedblleft" unicode="&#x201c;" horiz-adv-x="755" 
d="M418 1128v31q0 106 41 181t112 106q11 6 23 6t22 -14q14 -27 -12 -39q-125 -55 -125 -189v-16q25 16 58 16t59 -28t27 -74q0 -47 -28 -75t-75 -27q-102 -1 -102 122zM131 1128v31q0 106 41 181t113 106q10 6 22 6t23 -14q14 -27 -13 -39q-125 -55 -124 -189v-16
q25 16 57 16t60 -28q26 -28 26 -74q0 -47 -28 -75t-75 -27q-102 -1 -102 122z" />
    <glyph glyph-name="quotedblright" unicode="&#x201d;" horiz-adv-x="753" 
d="M449 1352q-1 46 27 74t75 28q102 0 102 -123v-31q0 -106 -41 -181t-112 -105q-12 -6 -24 -6t-24 20q-11 20 15 33q125 55 125 188v17q-27 -16 -60 -16t-58 27q-25 28 -25 75zM162 1352q0 46 28 74t74 28q102 0 103 -123v-31q0 -106 -41 -181t-113 -105q-13 -6 -25 -6
t-23 20t15 33q125 55 125 188v17q-70 -41 -118 11q-25 28 -25 75z" />
    <glyph glyph-name="quotedblbase" unicode="&#x201e;" horiz-adv-x="782" 
d="M449 82q0 47 27 75q28 28 75 27q102 0 102 -123v-30q0 -105 -41 -181t-112 -106q-12 -6 -24 -6t-24 20q-11 20 15 33q125 55 125 189v16q-27 -16 -60 -16t-58 28t-25 74zM162 82q0 47 27 75q28 28 75 27q102 0 103 -123v-30q0 -105 -41 -181t-113 -106q-13 -6 -25 -6
t-23 20t15 33q125 55 125 189v16q-27 -16 -59 -16t-59 27q-25 28 -25 75z" />
    <glyph glyph-name="dagger" unicode="&#x2020;" horiz-adv-x="958" 
d="M541 922q-31 0 -31 -31v-1270q0 -31 -31 -31t-30 31v1270q0 31 -31 31h-318q-30 0 -30 30t30 31h318q31 0 31 31v389q1 31 31 31t30 -31v-389q0 -31 31 -31h317q31 0 31 -31t-31 -30h-317z" />
    <glyph glyph-name="daggerdbl" unicode="&#x2021;" horiz-adv-x="995" 
d="M877 102q31 0 31 -30t-31 -31h-318q-29 0 -31 -25v-395q0 -31 -30 -31t-31 31v395q-4 25 -31 25h-317q-31 0 -31 31t31 30h317q31 0 31 31v758q0 31 -31 31h-317q-31 0 -31 30t31 31h317q31 0 31 31v389q0 31 31 31t30 -31v-389q0 -31 31 -31h318q31 0 30 -31
q0 -31 -30 -30h-318q-31 0 -31 -31v-758q0 -31 31 -31h318z" />
    <glyph glyph-name="bullet" unicode="&#x2022;" horiz-adv-x="704" 
d="M127 717q0 94 66 160q65 65 159 65t160 -66t66 -159q0 -94 -66 -160q-66 -65 -160 -65t-160 66t-65 159z" />
    <glyph glyph-name="ellipsis" unicode="&#x2026;" horiz-adv-x="1355" 
d="M1006 82q0 47 27 75q28 27 75 27t75 -28q27 -28 27 -74q0 -47 -28 -75q-28 -27 -74 -27q-47 0 -75 27q-27 28 -27 75zM575 82q0 47 28 75q28 27 75 27t75 -28q27 -28 27 -74q0 -47 -28 -75q-28 -27 -74 -27q-47 0 -75 28t-28 74zM145 82q0 47 28 75q28 27 75 27t75 -28
q27 -28 27 -74q0 -47 -28 -75q-28 -27 -74 -27q-47 0 -75 28t-28 74z" />
    <glyph glyph-name="perthousand" unicode="&#x2030;" horiz-adv-x="2342" 
d="M1595 328q1 147 97 247q96 101 241 101t241 -100t97 -248q0 -148 -96 -248q-95 -100 -241 -100t-242 100t-97 248zM2210 328q0 122 -80 204t-197 82t-197 -82t-79 -204q0 -122 80 -204q81 -83 197 -83t196 83t80 204zM80 1106q0 148 96 248t242 100t241 -100
q97 -100 97 -248t-96 -248t-242 -100q-145 0 -242 100q-96 101 -96 248zM694 1106q0 121 -80 204t-196 83t-197 -82q-80 -82 -80 -204t80 -205t197 -83q116 0 196 83t80 204zM858 328q0 147 96 247q96 101 242 101t242 -100t96 -248t-96 -248t-242 -100t-242 100
q-96 101 -96 248zM1473 328q0 122 -80 204t-197 82t-197 -82q-79 -82 -79 -204t79 -205q80 -82 197 -82t197 83t80 204zM387 14q-16 -24 -43 -10t-8 43l887 1370q16 23 43 7t6 -38z" />
    <glyph glyph-name="guilsinglleft" unicode="&#x2039;" horiz-adv-x="729" 
d="M590 1024q12 0 28 -16t-6 -37l-442 -443q-18 -18 0 -36l438 -439q10 -10 10 -21q0 -12 -11 -22t-21 -10t-21 10l-467 465q-18 18 -18 35t16 33l473 471q9 10 21 10z" />
    <glyph glyph-name="guilsinglright" unicode="&#x203a;" horiz-adv-x="729" 
d="M138 1024q11 0 22 -10l473 -471q16 -17 16 -33t-18 -35l-467 -465q-10 -10 -22 -10t-21 10q-10 10 -10 22t10 21l438 439q18 18 0 36l-442 443q-25 21 -1 43q11 10 22 10z" />
    <glyph glyph-name="Euro" unicode="&#x20ac;" horiz-adv-x="1583" 
d="M965 41q291 0 469 186q20 20 41 -1t2 -42q-209 -205 -512 -204q-260 0 -440 151q-179 152 -228 401h-193q-31 0 -30 31q0 31 30 31h183q-8 51 -8 121t8 125h-142q-31 0 -31 30t31 31h152q49 245 219 399t412 154t444 -174q33 -29 33 20v103q0 31 31 31t30 -31v-389
q0 -31 -30 -31t-31 31v143q-55 63 -129 117q-168 119 -366 119q-198 1 -350 -135t-202 -357h586q31 0 31 -31t-31 -30h-596q-8 -55 -8 -125t8 -121h555q31 0 31 -31t-31 -31h-545q50 -223 212 -357t395 -134z" />
    <glyph glyph-name="trademark" unicode="&#x2122;" horiz-adv-x="1935" 
d="M846 860h82q31 0 30 31v450q0 31 -30 31h-82q-31 0 -31 31t31 31h158q37 0 51 -31l221 -471q20 -41 41 0l221 471q14 31 51 31h158q31 0 31 -31t-31 -31h-82q-31 0 -31 -31v-450q0 -31 31 -31h82q31 0 31 -31t-31 -30h-246q-31 1 -31 31t31 30h41q31 0 31 31v399
q0 20 -8 17q-4 0 -9 -7l-221 -471q-14 -31 -39 -31t-39 31l-221 471q-8 12 -12 6t-4 -16v-399q0 -31 31 -31h41q31 0 30 -31q0 -31 -30 -30h-246q-31 1 -31 31t31 30zM160 1270v133q0 31 30 31h533q31 0 31 -31v-133q0 -31 -31 -31t-31 31v71q0 31 -30 31h-144
q-31 0 -31 -31v-450q0 -31 31 -31h82q31 0 31 -31t-31 -30h-287q-31 1 -31 31t31 30h82q31 0 31 31v450q0 31 -31 31h-143q-31 0 -31 -31v-71q-1 -31 -31 -31t-30 31z" />
    <glyph glyph-name="NULL" horiz-adv-x="0" 
 />
    </font>
</defs>
</svg>
