<?xml version="1.0" encoding="utf-8"?>
<!-- Generator: Adobe Illustrator 17.0.0, SVG Export Plug-In . SVG Version: 6.00 Build 0)  -->
<!DOCTYPE svg PUBLIC "-//W3C//DTD SVG 1.1//EN" "http://www.w3.org/Graphics/SVG/1.1/DTD/svg11.dtd">
<svg version="1.1" xmlns="http://www.w3.org/2000/svg" xmlns:xlink="http://www.w3.org/1999/xlink" x="0px" y="0px"
	 width="134.333px" height="134.333px" viewBox="0 0 134.333 134.333" enable-background="new 0 0 134.333 134.333"
	 xml:space="preserve">
<g id="Calque_1">
	<path fill-rule="evenodd" clip-rule="evenodd" fill="#484647" d="M35.988,100.995l9.883-13.51c0,0,2.045-3.176,11.536-3.176h9.888
		c0,0,4.944-0.627,4.944,2.382c0,0,1.059,2.382-8.24,2.382c0,0-0.498,0.795,0,0.795c3.277,0,16.48,0,16.48,0l8.24-7.145
		c0,0,1.93-3.309,4.944-0.794c0,0,1.624,1.146-2.472,5.093l-7.416,6.816c0,0-1.752,2.382-7.416,2.382h-16.48
		c0,0-4.251-0.218-5.768,4.764L35.988,100.995z"/>
</g>
<g id="Calque_2">
	<path fill-rule="evenodd" clip-rule="evenodd" fill="#484647" d="M77.064,89.073l6.592-5.887c0,0,1.449-1.307,2.944,0l-6.592,5.887
		H77.064z"/>
</g>
<g id="Calque_4">
	<path fill-rule="evenodd" clip-rule="evenodd" fill="none" stroke="#484647" stroke-width="3" stroke-miterlimit="10" d="M67,2
		c35.898,0,65,29.102,65,65c0,35.899-29.101,65-65,65S2,102.899,2,67C2,31.102,31.101,2,67,2z"/>
</g>
<g id="Calque_5">
	<path fill-rule="evenodd" clip-rule="evenodd" fill="#484647" d="M72.944,89.073l6.12-5.887c0,0,1.449-1.307,2.944,0l-6.12,5.887
		H72.944z"/>
</g>
<g>
	<g>
		<g>
			<path fill="#484647" d="M66.702,74.324c-1.947,0-3.894-0.307-5.787-0.922l1.146-3.529c3.036,0.986,6.246,0.986,9.282,0
				c3.036-0.986,5.632-2.873,7.509-5.456l3.002,2.181c-2.34,3.221-5.578,5.573-9.364,6.803
				C70.597,74.016,68.649,74.324,66.702,74.324z"/>
		</g>
		<g>
			<path fill="#484647" d="M61.46,71.836c-3.712-1.206-6.886-3.512-9.18-6.669c-2.294-3.157-3.506-6.888-3.506-10.791h2.971
				c0,3.271,1.016,6.398,2.939,9.045c1.923,2.646,4.583,4.579,7.694,5.589L61.46,71.836z"/>
		</g>
		<g>
			<path fill="#484647" d="M53.581,54.411h-4.07c0-4.019,1.249-7.862,3.611-11.114c2.362-3.251,5.632-5.626,9.454-6.868l1.257,3.871
				c-3,0.974-5.565,2.838-7.419,5.39C54.561,48.241,53.581,51.257,53.581,54.411z"/>
		</g>
		<g>
			<path fill="#484647" d="M80.831,46.893c-1.86-2.561-4.435-4.431-7.445-5.409c-3.01-0.978-6.193-0.978-9.203,0l-1.225-3.769
				c3.812-1.238,7.841-1.238,11.652,0c3.812,1.239,7.072,3.607,9.427,6.85L80.831,46.893z"/>
		</g>
		<g>
			<path fill="#484647" d="M83.014,67.484L79.733,65.1c1.855-2.553,2.835-5.57,2.835-8.726c0-3.156-0.98-6.173-2.835-8.726
				l3.281-2.384c2.362,3.25,3.61,7.092,3.61,11.11C86.624,60.392,85.375,64.233,83.014,67.484z"/>
		</g>
	</g>
</g>
</svg>
