<?xml version="1.0" encoding="utf-8"?>
<!-- Generator: Adobe Illustrator 17.0.0, SVG Export Plug-In . SVG Version: 6.00 Build 0)  -->
<!DOCTYPE svg PUBLIC "-//W3C//DTD SVG 1.1//EN" "http://www.w3.org/Graphics/SVG/1.1/DTD/svg11.dtd">
<svg version="1.1" id="Calque_1" xmlns="http://www.w3.org/2000/svg" xmlns:xlink="http://www.w3.org/1999/xlink" x="0px" y="0px"
	 width="13px" height="12px" viewBox="0 0 13 12" enable-background="new 0 0 13 12" xml:space="preserve">
<g id="L8rZcz_1_">
	<g>
		<path fill="#4A4A4A" d="M13.033,4.746c-0.276,0.392-0.552,0.784-0.828,1.176c-0.161,0.23-0.208,0.238-0.441,0.074
			c-1.701-1.191-3.402-2.381-5.1-3.576c-0.101-0.071-0.161-0.072-0.262,0c-1.698,1.195-3.4,2.386-5.101,3.577
			c-0.236,0.165-0.279,0.156-0.45-0.088C0.58,5.52,0.306,5.133,0.033,4.746c0-0.033,0-0.065,0-0.098
			c0.05-0.062,0.106-0.116,0.173-0.163c2.048-1.432,4.096-2.866,6.141-4.303C6.482,0.086,6.587,0.09,6.722,0.185
			c1.881,1.321,3.765,2.636,5.646,3.957c0.228,0.16,0.479,0.291,0.665,0.506C13.033,4.68,13.033,4.713,13.033,4.746z"/>
		<path fill="#4A4A4A" d="M1.583,9.23c0-0.809,0.003-1.618-0.003-2.426C1.58,6.648,1.627,6.545,1.758,6.453
			c1.531-1.067,3.06-2.137,4.586-3.211c0.136-0.096,0.24-0.096,0.376,0c1.526,1.074,3.055,2.144,4.585,3.212
			c0.115,0.08,0.161,0.176,0.161,0.312c-0.002,1.645-0.001,3.29-0.002,4.934c0,0.223-0.058,0.282-0.274,0.282
			c-1.042,0-2.084,0-3.127,0c-0.22,0-0.274-0.055-0.274-0.28c0-1.395-0.004-2.79,0.005-4.185C7.796,7.344,7.745,7.318,7.59,7.32
			C6.868,7.328,6.146,7.326,5.424,7.32c-0.121-0.001-0.153,0.027-0.152,0.15c0.005,1.4,0.003,2.801,0.003,4.201
			c0,0.267-0.043,0.31-0.309,0.31c-1.031,0-2.063,0-3.094,0c-0.251,0-0.288-0.037-0.288-0.294C1.583,10.869,1.583,10.049,1.583,9.23
			z"/>
		<path fill="#4A4A4A" d="M11.44,1.374c0,0.336-0.001,0.672,0,1.009c0,0.09-0.005,0.177-0.094,0.225
			c-0.094,0.051-0.173,0.011-0.253-0.046c-0.455-0.32-0.912-0.638-1.369-0.955C9.628,1.541,9.578,1.46,9.58,1.336
			C9.587,1,9.581,0.664,9.583,0.328c0.001-0.18,0.064-0.244,0.242-0.245c0.461-0.001,0.922-0.001,1.383,0
			c0.176,0,0.231,0.054,0.232,0.234C11.442,0.669,11.44,1.022,11.44,1.374z"/>
	</g>
</g>
</svg>
