<?xml version="1.0" encoding="utf-8"?>
<!-- Generator: Adobe Illustrator 17.0.0, SVG Export Plug-In . SVG Version: 6.00 Build 0)  -->
<!DOCTYPE svg PUBLIC "-//W3C//DTD SVG 1.1//EN" "http://www.w3.org/Graphics/SVG/1.1/DTD/svg11.dtd">
<svg version="1.1" xmlns="http://www.w3.org/2000/svg" xmlns:xlink="http://www.w3.org/1999/xlink" x="0px" y="0px"
	 width="134.25px" height="134.25px" viewBox="0 0 134.25 134.25" enable-background="new 0 0 134.25 134.25" xml:space="preserve">
<g id="Calque_1">
	<path fill-rule="evenodd" clip-rule="evenodd" fill="none" stroke="#484647" stroke-width="3" stroke-miterlimit="10" d="M67.5,2
		c35.898,0,65,29.101,65,65c0,35.898-29.102,65-65,65s-65-29.101-65-65C2.5,31.101,31.601,2,67.5,2z"/>
</g>
<g id="Calque_2">
	<g>
		<g>
			<path fill="none" stroke="#484647" stroke-width="3" stroke-miterlimit="10" d="M75.823,79.612
				c2.493-2.357,4.069-6.117,4.069-11.468c0-10.021-1.168-18.145-12.275-18.145s-12.275,8.124-12.275,18.145
				c0,5.424,1.618,9.215,4.17,11.565C50.053,81.39,44.5,86.403,44.5,96.505c25.248,15.394,46,0,46,0
				C90.5,86.216,85.364,81.199,75.823,79.612z"/>
		</g>
	</g>
</g>
</svg>
