<?xml version="1.0" encoding="utf-8"?>
<!-- Generator: Adobe Illustrator 19.1.0, SVG Export Plug-In . SVG Version: 6.00 Build 0)  -->
<svg version="1.1" id="Layer_1" xmlns="http://www.w3.org/2000/svg" xmlns:xlink="http://www.w3.org/1999/xlink" x="0px" y="0px"
	 viewBox="0 0 352.031 136.752" enable-background="new 0 0 352.031 136.752" xml:space="preserve">
<g opacity='.1'>
	<g>
		<g>
			<polygon fill="#AF95A7" points="157.036,89.153 131.742,76.13 116.555,90.202 110.83,86.716 99.155,94.357 90.041,89.153
				59.17,111.968 50.207,107.566 39.934,116.797 34.068,116.797 3.303,136.234 165.43,136.748 			"/>
			<polygon opacity="0.38" fill="#C4B1A7" points="131.742,76.13 142.821,87.554 137.282,87.422 149.791,95.306 156.963,89.115
				"/>
			<polygon opacity="0.38" fill="#C4B1A7" points="110.83,86.716 106.223,95.306 99.155,94.357 			"/>
			<polygon opacity="0.38" fill="#C4B1A7" points="90.041,89.153 79.584,100.783 90.041,98.344 76.846,109.128 73.61,106.439
				64.896,115.389 75.601,116.124 64.896,121.779 59.17,111.968 			"/>
			<polygon opacity="0.38" fill="#C4B1A7" points="93.277,108.002 83.071,117.712 90.041,117.712 81.078,131.654 94.244,116.36
				91.784,112.982 			"/>
			<polygon opacity="0.38" fill="#C4B1A7" points="50.207,107.566 46.473,119.828 59.17,118.708 50.456,128.169 52.822,129.663
				49.46,131.654 39.004,123.936 34.068,134.144 60.664,131.654 67.51,136.438 3.303,136.234 34.068,116.797 39.253,120.451
				39.934,116.797 			"/>
		</g>
		<g>
			<polygon fill="#997B92" points="241.838,76.13 226.363,73.532 222.066,78.21 196.74,61.25 175.042,87.554 163.335,79.563
				130.08,104.6 124.104,98.344 109.665,109.811 102.197,109.128 71.823,136.748 245.187,136.748 			"/>
			<polygon opacity="0.43" fill="#FFFFFF" points="197.176,63.604 187.716,76.13 192.447,74.061 194.356,77.463 196.264,74.402
				209.626,77.463 205.891,72.567 213.427,73.978 			"/>
			<polygon opacity="0.64" fill="#C4B1A7" points="196.74,61.25 190.124,74.268 195.103,71.322 185.394,84.683 175.042,87.554
				"/>
			<polygon opacity="0.64" fill="#C4B1A7" points="197.176,79.538 193.858,86.142 193.029,95.306 197.176,84.932 			"/>
			<polygon opacity="0.64" fill="#C4B1A7" points="205.362,70.243 216.181,76.883 221.493,82.875 210.29,76.13 			"/>
			<polygon opacity="0.64" fill="#C4B1A7" points="163.335,79.563 150.787,98.344 158.505,97.479 141.826,112.235 139.087,108.002
				120.414,119.131 118.422,113.349 99.155,131.654 112.2,128.225 117.178,136.633 71.823,136.748 102.197,109.128 108.464,111.986
				109.665,109.811 124.104,98.344 130.08,104.6 			"/>
			<polygon opacity="0.64" fill="#C4B1A7" points="139.897,116.08 131.642,125.183 132.309,131.103 138.39,124.731 			"/>
			<polygon opacity="0.64" fill="#C4B1A7" points="175.683,95.306 171.7,105.465 173.692,110.576 177.343,105.37 			"/>
		</g>
		<rect x="249.377" y="19.573" fill="#FEE3C1" width="1.107" height="20.782"/>
		<polygon fill="#816784" points="149.791,136.748 168.215,116.797 174.024,119.131 183.698,108.801 189.625,109.811
			211.502,82.875 224.017,86.142 237.923,56.442 249.871,38.36 265.674,65.011 285.182,92.509 295.305,83.42 309.453,98.111
			313.968,94.642 344.279,136.748 		"/>
		<polygon fill="#C4B1A7" points="285.182,92.509 273.264,102.467 267.28,100.834 239.526,129.675 265.646,95.39 272.585,96.342
			280.691,86.893 		"/>
		<polygon opacity="0.74" fill="#FFFFFF" points="224.017,88.584 212.531,85.098 205.362,98.344 214.272,89.828 		"/>
		<polygon opacity="0.74" fill="#FFFFFF" points="296.344,85.599 304.344,102.347 299.825,99.325 297.253,106.358 290.843,98.344
			278.055,104.736 		"/>
		<polygon fill="#F56A5D" points="250.484,20.437 250.484,27.21 262.275,23.823 		"/>
		<polygon fill="#55B3A5" points="71.12,135.389 69.71,132.774 68.713,134.082 65.56,132.774 63.651,134.973 62.268,132.774
			61.327,134.082 59.17,133.314 57.675,134.642 55.519,134.082 55.519,134.973 53.858,132.774 52.614,134.725 51.784,133.48
			51.037,134.891 49.377,132.774 48.879,134.808 46.887,133.397 45.809,134.082 44.542,133.164 43.153,134.808 41.146,133.481
			40.333,135.389 38.589,132.774 37.676,135.389 36.099,134.082 35.407,135.057 34.068,134.144 33.195,135.389 32.033,134.082
			30.788,134.891 29.71,133.48 28.547,134.891 27.22,134.082 26.37,134.891 24.896,134.082 24.232,135.389 22.738,133.729
			21.162,135.389 20.581,134.082 19.336,134.973 18.589,134.082 17.262,135.389 15.685,133.729 14.689,135.389 14.025,134.559
			12.614,135.389 11.204,133.646 9.211,135.389 8.548,134.082 7.137,135.389 5.809,133.646 4.642,135.389 3.303,134.725 0,136.748
			69.044,136.752 		"/>
		<polygon fill="#C4B1A7" points="211.502,82.875 206.193,103.471 214.161,94.552 206.193,117.886 201.852,108.285 191.778,127.03
			201.698,120.831 209.756,133.717 214.161,130.441 218.437,136.748 180.913,136.748 171.037,129.421 165.43,136.748
			149.791,136.748 168.215,116.797 174.024,119.131 183.698,108.801 189.625,109.811 		"/>
		<polygon fill="#C4B1A7" points="295.305,83.42 304.344,102.347 299.825,99.325 310.506,118.738 313.994,110.085 322.712,126.527
			316.202,125.016 313.179,136.748 344.279,136.748 313.968,94.642 314.091,102.948 		"/>
		<path fill="#39A9A0" d="M348.338,134.31l3.692,2.443H66.639l5.188-3.435l0.956,1.155l1.823-1.703l1.323,0.707l2.161-1.822
			l1.493,1.822l1.974-2.37l2.808,2.37l2.36-2.37l2.489,1.663l1.992-3.047l3.037,1.384l1.771-4.432l1.664,4.432l3.316-2.938
			l3.315,2.938l0.678-2.938l4.303,2.32v-2.988l3.654,3.605l0.666-1.853l2.65,2.4l2.33-4.81l2.151,4.81l1.493-2.4l4.481,2.4
			l1.495-2.021l3.425,2.021l0.509-2.021l3.623,2.021l4.122-2.4l3.258,2.4l4.482-4.81c0,0,2.658,4.979,3.156,4.81
			c0.498-0.169,1.823-2.021,1.823-2.021l4.352,2.021l3.286-3.316l3.077,2.759l2.29-5.657l1.913,4.701l3.276-0.289l1.753-5.238
			l1.604,5.537l3.057,2.399l3.355-7.209l1.454,7.209l2.331-5.566l1.164,4.152l2.619-2.589l2.041,4.003l3.208-4.78l2.141,2.23
			l2.38-3.017l2.181,5.566l2.183-7.937l1.602,6.522l2.768-2.589l2.093,2.589l2.45-3.883l1.581,5.297l2.57-6.522l2.379,5.108
			l2.281-1.961l1.653,1.961l3.206-4.152l1.604,5.566l2.032-1.961l1.901,1.961l2.769-6.921l2.031,5.976l2.77-2.43l1.234,4.033
			l3.137-4.033l1.165,2.579l4.81-4.441l2.181,4.291l3.177-1.454l0.757,2.399l2.132-1.961l1.363-5.836l2.481,6.852l1.891-1.753
			l2.042,1.614l1.166-3.356l2.041,2.918l1.603,1.523l2.908-8.863l2.768,8.066l1.025-2.579l2.47-1.862l1.901,3.714l1.595,2.18
			l2.331-4.033l2.479-2.669l1.603,4.661l2.329-1.991l1.604,1.991l2.769-4.949l2.479,6.333l1.165-3.376l1.893-1.862l1.892,2.539
			l0.728,2.699l3.934-6.045l2.769,6.702l0.876-4.033l0.876,3.376l2.769-3.376l0.875,1.991l2.133-8.643l1.505,9.081l2.477-3.495
			l0.877,2.18l2.47-2.977l1.454,3.564l2.042-2.33l4.475,4.144l3.65-3.054l2.49,3.178l2.24-2.945l1.66,3.153l1.327-1.867
			L348.338,134.31z"/>
		<path fill="#FFFFFF" d="M226.363,132.824c0,1.881-1.523,3.41-3.407,3.41c-1.876,0-3.402-1.529-3.402-3.41
			c0-1.885,1.526-3.403,3.402-3.403C224.839,129.421,226.363,130.939,226.363,132.824z"/>
		<g opacity="0.48">
			<path fill="#FFFFFF" d="M222.957,133.717c-0.271,0-0.54-0.125-0.714-0.36c-0.295-0.396-0.211-0.954,0.185-1.248l27.165-20.198
				l-17.707-19.46c-0.175-0.193-0.257-0.457-0.225-0.717c0.034-0.26,0.183-0.492,0.404-0.634l30.476-19.47l-11.312-17.885
				c-0.063-0.103-0.107-0.215-0.127-0.334l-2.175-13.287c-0.077-0.487,0.253-0.945,0.737-1.025c0.488-0.084,0.946,0.25,1.024,0.736
				l2.145,13.108l11.693,18.484c0.261,0.414,0.14,0.963-0.274,1.227l-30.334,19.378l17.657,19.404
				c0.169,0.187,0.252,0.436,0.23,0.688c-0.027,0.25-0.155,0.479-0.355,0.629l-27.96,20.787
				C223.329,133.66,223.143,133.717,222.957,133.717z"/>
		</g>
		<path fill="#FFFFFF" d="M252.768,111.97c0,1.571-1.273,2.838-2.842,2.838c-1.569,0-2.842-1.267-2.842-2.838
			c0-1.573,1.272-2.842,2.842-2.842C251.496,109.128,252.768,110.397,252.768,111.97z"/>
		<circle fill="#EAEBEA" cx="233.591" cy="91.85" r="2.701"/>
		<circle fill="#EAEBEA" cx="263.77" cy="71.904" r="2.267"/>
		<g>
			<path fill="#FFFFFF" d="M230.882,113.294c0,2.368-1.123,3.416-2.589,6.009l-4.971,8.316l-0.366,0.606l-5.352-8.899
				c-1.555-2.697-2.573-3.664-2.573-6.032c0-4.375,3.548-7.924,7.925-7.924c0.11,0,0.22,0.003,0.321,0.008h0.088
				C227.553,105.592,230.882,109.06,230.882,113.294z"/>
			<path fill="#F56A5D" d="M228.739,113.348c0,3.191-2.586,5.783-5.782,5.783c-3.189,0-5.779-2.592-5.779-5.783
				c0-3.192,2.59-5.782,5.779-5.782C226.153,107.566,228.739,110.155,228.739,113.348z"/>
		</g>
		<polygon fill="#C4B1A7" points="249.871,38.36 243.365,52.941 246.618,51.43 240.64,69.637 239.012,62.242 233.591,77.237
			224.017,86.142 237.923,56.442 		"/>
		<polygon fill="#C4B1A7" points="245.173,68.054 243.365,75.494 245.755,79.563 246.22,71.904 		"/>
		<polygon fill="#C4B1A7" points="298.108,111.065 302.446,116.797 304.617,126.876 298.108,119.131 		"/>
		<polygon fill="#C4B1A7" points="272.841,118.971 272.221,110.085 251.762,128.225 		"/>
		<circle fill="#FFFFFF" cx="249.931" cy="39.98" r="2.268"/>
		<path opacity="0.54" fill="#FFFFFF" d="M170.495,54.537h-60.677c-3.027-3.903,1.454-7.667,5.606-5.228
			c0.409-3.157,2.56-5.995,5.936-6.722c3.006-0.856,5.726,0.638,8.006,2.789c0.618-1.664,2.103-2.938,4.281-3.117
			c2.83-0.209,5.657,2.3,7.739,5.199c3.296-2.809,9.262-0.926,13.613,1.972C157.797,44.09,167.387,51.719,170.495,54.537z"/>
		<path opacity="0.95" fill="#FFFFFF" d="M225.606,10.964H161.13c-0.521-3.866,3.062-7.394,6.643-7.71
			c2.021-0.318,4.163,0.294,6.183,1.417c1.122-2.688,3.582-4.661,7.041-4.661c3.514-0.204,7.631,2.529,11.305,5.897
			c0.408-3.413,2.688-5.783,7.223-5.522c3.312,0.193,6.329,2.211,9.05,4.695C210.537-0.25,223.02,7.427,225.606,10.964z"/>
		<path opacity="0.82" fill="#FFFFFF" d="M334.031,34.618h-59.135c-1.392-1.903-0.659-4.296,0.521-5.317
			c3.257-2.821,7.367-1.958,11.097,0.13c0.975-2.84,4.752-4.76,8.231-3.786c2.858,0.797,4.955,2.152,6.755,3.86
			c1.567-3.462,9.594-2.515,14.483,0.083C318.165,26.007,331.249,30.832,334.031,34.618z"/>
		<path opacity="0.42" fill="#FFFFFF" d="M93.641,23.043H49.168c-1.046-1.431-0.496-3.231,0.392-3.999
			c2.449-2.122,5.54-1.473,8.345,0.098c0.732-2.136,3.574-3.58,6.191-2.847c2.149,0.6,3.726,1.618,5.08,2.902
			c1.179-2.603,7.215-1.891,10.893,0.063C81.71,16.567,91.548,20.195,93.641,23.043z"/>
	</g>
</g>
</svg>
