<svg xmlns="http://www.w3.org/2000/svg" width="22" height="22" viewBox="0 0 22 22">
  <g fill="#2D5CFC" fill-rule="evenodd">
    <path d="M2 0L8 0 8 0C9.1045695-2.02906125e-16 10 .8954305 10 2L10 10 2 10 2 10C.8954305 10 1.3527075e-16 9.1045695 0 8L0 2 0 2C-1.3527075e-16.8954305.8954305 2.02906125e-16 2 0zM2 12L10 12 10 20 10 20C10 21.1045695 9.1045695 22 8 22L2 22 2 22C.8954305 22 1.3527075e-16 21.1045695 0 20L0 14 0 14C-1.3527075e-16 12.8954305.8954305 12 2 12zM12 12L20 12 20 12C21.1045695 12 22 12.8954305 22 14L22 20 22 20C22 21.1045695 21.1045695 22 20 22L14 22 14 22C12.8954305 22 12 21.1045695 12 20L12 12zM14 0L20 0 20 0C21.1045695-2.02906125e-16 22 .8954305 22 2L22 8 22 8C22 9.1045695 21.1045695 10 20 10L12 10 12 2 12 2C12 .8954305 12.8954305 2.02906125e-16 14 0z"/>
  </g>
</svg>
