<?xml version="1.0" encoding="UTF-8" standalone="no"?>
<svg width="860px" height="384px" viewBox="0 0 860 384" version="1.1" xmlns="http://www.w3.org/2000/svg" xmlns:xlink="http://www.w3.org/1999/xlink" xmlns:sketch="http://www.bohemiancoding.com/sketch/ns">
    <!-- Generator: Sketch 3.3.3 (12081) - http://www.bohemiancoding.com/sketch -->
    <title>Artboard 2</title>
    <desc>Created with Sketch.</desc>
    <defs></defs>
    <g id="Page-1" stroke="none" stroke-width="1" fill="none" fill-rule="evenodd" sketch:type="MSPage">
        <g id="Artboard-2" sketch:type="MSArtboardGroup" stroke="#000000" stroke-width="4" stroke-linecap="square" opacity="0.1" stroke-dasharray="10">
            <path d="M0,0 C0,0 13.8002744,16.062611 30.149358,32.6407637 C43.5431962,46.2222647 59.7332742,58.6776483 62.3003493,75.3347576 C63.2403579,81.4342384 72.2070686,133.567693 36.7824509,196.731517 C29.2601957,210.144066 33.2200898,313.62718 84.9348033,350.05793 C136.649517,386.488679 130.238828,381.803944 235.080713,381.803944 C253.778831,381.803944 321.186062,381.624213 359.736037,334.077474 C367.097446,324.998065 375.278007,310.336626 398.286012,298.088239 C423.335693,284.752959 504.704233,283.186171 558.76394,324.477479 C578.952578,339.897749 684.777097,371.7976 743.636042,345.373195 C766.832997,334.959047 784.776825,291.520232 797.906447,235.401093 C811.036069,179.281954 860,163.274148 860,163.274148" id="Line" sketch:type="MSShapeGroup"></path>
        </g>
    </g>
</svg>