<?xml version="1.0" encoding="UTF-8" standalone="no"?>
<!DOCTYPE svg PUBLIC "-//W3C//DTD SVG 1.1//EN"
 "http://www.w3.org/Graphics/SVG/1.1/DTD/svg11.dtd">
<!-- Generated by graphviz version 2.38.0 (20140413.2041)
 -->
<!-- Title: models_diagram Pages: 1 -->
<svg width="765pt" height="954pt"
 viewBox="0.00 0.00 765.13 954.00" xmlns="http://www.w3.org/2000/svg" xmlns:xlink="http://www.w3.org/1999/xlink">
<g id="graph0" class="graph" transform="scale(1 1) rotate(0) translate(4 950)">
<title>models_diagram</title>
<polygon fill="white" stroke="none" points="-4,4 -4,-950 761.125,-950 761.125,4 -4,4"/>
<!-- _diagram_info -->
<g id="node1" class="node"><title>_diagram_info</title>
<text text-anchor="start" x="180.221" y="-931.6" font-family="Times,serif" font-size="13.00">Models diagram</text>
<text text-anchor="start" x="180.221" y="-918.6" font-family="Times,serif" font-size="13.00">Date: Jun 16 2014 &#45; 09:01</text>
<text text-anchor="start" x="180.221" y="-905.6" font-family="Times,serif" font-size="13.00">Migration version: 20140615185459</text>
<text text-anchor="start" x="180.221" y="-892.6" font-family="Times,serif" font-size="13.00">Generated by RailRoady 1.1.1</text>
<text text-anchor="start" x="180.221" y="-879.6" font-family="Times,serif" font-size="13.00">http://railroady.prestonlee.com</text>
</g>
<!-- Legislation -->
<g id="node2" class="node"><title>Legislation</title>
<path fill="none" stroke="black" d="M12,-243.5C12,-243.5 121.817,-243.5 121.817,-243.5 127.817,-243.5 133.817,-249.5 133.817,-255.5 133.817,-255.5 133.817,-387.5 133.817,-387.5 133.817,-393.5 127.817,-399.5 121.817,-399.5 121.817,-399.5 12,-399.5 12,-399.5 6,-399.5 0,-393.5 0,-387.5 0,-387.5 0,-255.5 0,-255.5 0,-249.5 6,-243.5 12,-243.5"/>
<text text-anchor="middle" x="66.9087" y="-384.3" font-family="Times,serif" font-size="14.00">Legislation</text>
<polyline fill="none" stroke="black" points="0,-377.5 133.817,-377.5 "/>
<text text-anchor="start" x="8" y="-362.3" font-family="Times,serif" font-size="14.00">id :integer</text>
<text text-anchor="start" x="8" y="-348.3" font-family="Times,serif" font-size="14.00">city_identifier :string</text>
<text text-anchor="start" x="8" y="-334.3" font-family="Times,serif" font-size="14.00">status :string</text>
<text text-anchor="start" x="8" y="-320.3" font-family="Times,serif" font-size="14.00">kind :string</text>
<text text-anchor="start" x="8" y="-306.3" font-family="Times,serif" font-size="14.00">opened_date :date</text>
<text text-anchor="start" x="8" y="-292.3" font-family="Times,serif" font-size="14.00">closed_date :date</text>
<text text-anchor="start" x="8" y="-278.3" font-family="Times,serif" font-size="14.00">created_at :datetime</text>
<text text-anchor="start" x="8" y="-264.3" font-family="Times,serif" font-size="14.00">updated_at :datetime</text>
<text text-anchor="start" x="8" y="-250.3" font-family="Times,serif" font-size="14.00">title :string</text>
</g>
<!-- LegislationVoice -->
<g id="node4" class="node"><title>LegislationVoice</title>
<path fill="none" stroke="black" d="M566.672,-0.5C566.672,-0.5 681.145,-0.5 681.145,-0.5 687.145,-0.5 693.145,-6.5 693.145,-12.5 693.145,-12.5 693.145,-116.5 693.145,-116.5 693.145,-122.5 687.145,-128.5 681.145,-128.5 681.145,-128.5 566.672,-128.5 566.672,-128.5 560.672,-128.5 554.672,-122.5 554.672,-116.5 554.672,-116.5 554.672,-12.5 554.672,-12.5 554.672,-6.5 560.672,-0.5 566.672,-0.5"/>
<text text-anchor="middle" x="623.909" y="-113.3" font-family="Times,serif" font-size="14.00">LegislationVoice</text>
<polyline fill="none" stroke="black" points="554.672,-106.5 693.145,-106.5 "/>
<text text-anchor="start" x="562.672" y="-91.3" font-family="Times,serif" font-size="14.00">id :integer</text>
<text text-anchor="start" x="562.672" y="-77.3" font-family="Times,serif" font-size="14.00">user_id :integer</text>
<text text-anchor="start" x="562.672" y="-63.3" font-family="Times,serif" font-size="14.00">legislation_id :integer</text>
<text text-anchor="start" x="562.672" y="-49.3" font-family="Times,serif" font-size="14.00">support :boolean</text>
<text text-anchor="start" x="562.672" y="-35.3" font-family="Times,serif" font-size="14.00">feedback :text</text>
<text text-anchor="start" x="562.672" y="-21.3" font-family="Times,serif" font-size="14.00">created_at :datetime</text>
<text text-anchor="start" x="562.672" y="-7.3" font-family="Times,serif" font-size="14.00">updated_at :datetime</text>
</g>
<!-- Legislation&#45;&gt;LegislationVoice -->
<g id="edge1" class="edge"><title>Legislation&#45;&gt;LegislationVoice</title>
<path fill="none" stroke="#46da16" d="M122.71,-236.919C144.016,-210.707 170.374,-183.962 199.909,-166 307.58,-100.52 454.655,-77.7029 544.264,-69.7522"/>
<ellipse fill="none" stroke="#46da16" cx="120.181" cy="-240.083" rx="4.00002" ry="4.00002"/>
<polygon fill="#46da16" stroke="#46da16" points="544.398,-69.7409 554.742,-73.3815 549.381,-69.3192 554.363,-68.8976 554.363,-68.8976 554.363,-68.8976 549.381,-69.3192 553.983,-64.4136 544.398,-69.7409 544.398,-69.7409"/>
</g>
<!-- LegislationVote -->
<g id="node10" class="node"><title>LegislationVote</title>
<ellipse fill="none" stroke="black" cx="66.9087" cy="-64.5" rx="65.8884" ry="18"/>
<text text-anchor="middle" x="66.9087" y="-60.3" font-family="Times,serif" font-size="14.00">LegislationVote</text>
</g>
<!-- Legislation&#45;&gt;LegislationVote -->
<g id="edge2" class="edge"><title>Legislation&#45;&gt;LegislationVote</title>
<path fill="none" stroke="#b3add8" d="M66.9087,-235.287C66.9087,-185.723 66.9087,-126.545 66.9087,-92.7594"/>
<ellipse fill="none" stroke="#b3add8" cx="66.9087" cy="-239.3" rx="4" ry="4"/>
<polygon fill="#b3add8" stroke="#b3add8" points="66.9088,-92.7268 71.4087,-82.7268 66.9087,-87.7268 66.9087,-82.7268 66.9087,-82.7268 66.9087,-82.7268 66.9087,-87.7268 62.4087,-82.7269 66.9088,-92.7268 66.9088,-92.7268"/>
</g>
<!-- LegislationSponsor -->
<g id="node3" class="node"><title>LegislationSponsor</title>
<path fill="none" stroke="black" d="M376.672,-271.5C376.672,-271.5 491.145,-271.5 491.145,-271.5 497.145,-271.5 503.145,-277.5 503.145,-283.5 503.145,-283.5 503.145,-359.5 503.145,-359.5 503.145,-365.5 497.145,-371.5 491.145,-371.5 491.145,-371.5 376.672,-371.5 376.672,-371.5 370.672,-371.5 364.672,-365.5 364.672,-359.5 364.672,-359.5 364.672,-283.5 364.672,-283.5 364.672,-277.5 370.672,-271.5 376.672,-271.5"/>
<text text-anchor="middle" x="433.909" y="-356.3" font-family="Times,serif" font-size="14.00">LegislationSponsor</text>
<polyline fill="none" stroke="black" points="364.672,-349.5 503.145,-349.5 "/>
<text text-anchor="start" x="372.672" y="-334.3" font-family="Times,serif" font-size="14.00">id :integer</text>
<text text-anchor="start" x="372.672" y="-320.3" font-family="Times,serif" font-size="14.00">sponsor_id :integer</text>
<text text-anchor="start" x="372.672" y="-306.3" font-family="Times,serif" font-size="14.00">legislation_id :integer</text>
<text text-anchor="start" x="372.672" y="-292.3" font-family="Times,serif" font-size="14.00">created_at :datetime</text>
<text text-anchor="start" x="372.672" y="-278.3" font-family="Times,serif" font-size="14.00">updated_at :datetime</text>
</g>
<!-- Legislator -->
<g id="node5" class="node"><title>Legislator</title>
<path fill="none" stroke="black" d="M264.083,-527.5C264.083,-527.5 419.735,-527.5 419.735,-527.5 425.735,-527.5 431.735,-533.5 431.735,-539.5 431.735,-539.5 431.735,-657.5 431.735,-657.5 431.735,-663.5 425.735,-669.5 419.735,-669.5 419.735,-669.5 264.083,-669.5 264.083,-669.5 258.083,-669.5 252.083,-663.5 252.083,-657.5 252.083,-657.5 252.083,-539.5 252.083,-539.5 252.083,-533.5 258.083,-527.5 264.083,-527.5"/>
<text text-anchor="middle" x="341.909" y="-654.3" font-family="Times,serif" font-size="14.00">Legislator</text>
<polyline fill="none" stroke="black" points="252.083,-647.5 431.735,-647.5 "/>
<text text-anchor="start" x="260.083" y="-632.3" font-family="Times,serif" font-size="14.00">id :integer</text>
<text text-anchor="start" x="260.083" y="-618.3" font-family="Times,serif" font-size="14.00">alderman_id :integer</text>
<text text-anchor="start" x="260.083" y="-604.3" font-family="Times,serif" font-size="14.00">represented_ward_id :integer</text>
<text text-anchor="start" x="260.083" y="-590.3" font-family="Times,serif" font-size="14.00">term_start_date :date</text>
<text text-anchor="start" x="260.083" y="-576.3" font-family="Times,serif" font-size="14.00">term_end_date :date</text>
<text text-anchor="start" x="260.083" y="-562.3" font-family="Times,serif" font-size="14.00">party_affiliation :string</text>
<text text-anchor="start" x="260.083" y="-548.3" font-family="Times,serif" font-size="14.00">created_at :datetime</text>
<text text-anchor="start" x="260.083" y="-534.3" font-family="Times,serif" font-size="14.00">updated_at :datetime</text>
</g>
<!-- Legislator&#45;&gt;Legislation -->
<g id="edge7" class="edge"><title>Legislator&#45;&gt;Legislation</title>
<path fill="none" stroke="#8c2f83" d="M243.147,-550.373C223.441,-538.462 203.783,-524.565 187.364,-509 157.192,-480.398 131.061,-442.79 110.923,-408.842"/>
<polygon fill="#8c2f83" stroke="#8c2f83" points="243.275,-550.449 249.601,-559.406 247.581,-552.989 251.887,-555.53 251.887,-555.53 251.887,-555.53 247.581,-552.989 254.174,-551.654 243.275,-550.449 243.275,-550.449"/>
<polygon fill="#8c2f83" stroke="#8c2f83" points="110.709,-408.476 109.556,-397.57 108.189,-404.157 105.669,-399.838 105.669,-399.838 105.669,-399.838 108.189,-404.157 101.782,-402.106 110.709,-408.476 110.709,-408.476"/>
<text text-anchor="middle" x="250.681" y="-497.8" font-family="Times,serif" font-size="14.00">sponsored_legislations</text>
</g>
<!-- Legislator&#45;&gt;Legislation -->
<g id="edge9" class="edge"><title>Legislator&#45;&gt;Legislation</title>
<path fill="none" stroke="#53b1bc" d="M241.922,-593.216C181.081,-584.824 107.677,-563.13 68.0327,-509 47.5736,-481.065 44.0109,-443.926 46.7985,-410.146"/>
<polygon fill="#53b1bc" stroke="#53b1bc" points="242.039,-593.231 251.389,-598.961 246.999,-593.864 251.958,-594.497 251.958,-594.497 251.958,-594.497 246.999,-593.864 252.528,-590.034 242.039,-593.231 242.039,-593.231"/>
<polygon fill="#53b1bc" stroke="#53b1bc" points="46.8406,-409.732 52.3326,-400.241 47.3482,-404.758 47.8558,-399.784 47.8558,-399.784 47.8558,-399.784 47.3482,-404.758 43.3791,-399.327 46.8406,-409.732 46.8406,-409.732"/>
<text text-anchor="middle" x="118.847" y="-497.8" font-family="Times,serif" font-size="14.00">voted_legislations</text>
</g>
<!-- Legislator&#45;&gt;LegislationSponsor -->
<g id="edge6" class="edge"><title>Legislator&#45;&gt;LegislationSponsor</title>
<path fill="none" stroke="#8493aa" d="M367.98,-519.571C382.669,-475.661 400.721,-421.704 414.219,-381.356"/>
<ellipse fill="none" stroke="#8493aa" cx="366.631" cy="-523.601" rx="4.00001" ry="4.00001"/>
<polygon fill="#8493aa" stroke="#8493aa" points="414.287,-381.15 421.728,-373.095 415.874,-376.409 417.46,-371.667 417.46,-371.667 417.46,-371.667 415.874,-376.409 413.193,-370.239 414.287,-381.15 414.287,-381.15"/>
</g>
<!-- LegislatorVote -->
<g id="node6" class="node"><title>LegislatorVote</title>
<path fill="none" stroke="black" d="M220.672,-257.5C220.672,-257.5 335.145,-257.5 335.145,-257.5 341.145,-257.5 347.145,-263.5 347.145,-269.5 347.145,-269.5 347.145,-373.5 347.145,-373.5 347.145,-379.5 341.145,-385.5 335.145,-385.5 335.145,-385.5 220.672,-385.5 220.672,-385.5 214.672,-385.5 208.672,-379.5 208.672,-373.5 208.672,-373.5 208.672,-269.5 208.672,-269.5 208.672,-263.5 214.672,-257.5 220.672,-257.5"/>
<text text-anchor="middle" x="277.909" y="-370.3" font-family="Times,serif" font-size="14.00">LegislatorVote</text>
<polyline fill="none" stroke="black" points="208.672,-363.5 347.145,-363.5 "/>
<text text-anchor="start" x="216.672" y="-348.3" font-family="Times,serif" font-size="14.00">id :integer</text>
<text text-anchor="start" x="216.672" y="-334.3" font-family="Times,serif" font-size="14.00">legislation_id :integer</text>
<text text-anchor="start" x="216.672" y="-320.3" font-family="Times,serif" font-size="14.00">legislator_id :integer</text>
<text text-anchor="start" x="216.672" y="-306.3" font-family="Times,serif" font-size="14.00">vote_date :date</text>
<text text-anchor="start" x="216.672" y="-292.3" font-family="Times,serif" font-size="14.00">vote :string</text>
<text text-anchor="start" x="216.672" y="-278.3" font-family="Times,serif" font-size="14.00">created_at :datetime</text>
<text text-anchor="start" x="216.672" y="-264.3" font-family="Times,serif" font-size="14.00">updated_at :datetime</text>
</g>
<!-- Legislator&#45;&gt;LegislatorVote -->
<g id="edge8" class="edge"><title>Legislator&#45;&gt;LegislatorVote</title>
<path fill="none" stroke="#2b6bda" d="M323.721,-519.348C314.696,-480.572 303.858,-434.003 294.99,-395.897"/>
<ellipse fill="none" stroke="#2b6bda" cx="324.686" cy="-523.498" rx="4.00001" ry="4.00001"/>
<polygon fill="#2b6bda" stroke="#2b6bda" points="294.929,-395.635 297.045,-384.875 293.796,-390.765 292.663,-385.895 292.663,-385.895 292.663,-385.895 293.796,-390.765 288.28,-386.915 294.929,-395.635 294.929,-395.635"/>
</g>
<!-- User -->
<g id="node7" class="node"><title>User</title>
<path fill="none" stroke="black" d="M533.631,-166.5C533.631,-166.5 714.187,-166.5 714.187,-166.5 720.187,-166.5 726.187,-172.5 726.187,-178.5 726.187,-178.5 726.187,-464.5 726.187,-464.5 726.187,-470.5 720.187,-476.5 714.187,-476.5 714.187,-476.5 533.631,-476.5 533.631,-476.5 527.631,-476.5 521.631,-470.5 521.631,-464.5 521.631,-464.5 521.631,-178.5 521.631,-178.5 521.631,-172.5 527.631,-166.5 533.631,-166.5"/>
<text text-anchor="middle" x="623.909" y="-461.3" font-family="Times,serif" font-size="14.00">User</text>
<polyline fill="none" stroke="black" points="521.631,-454.5 726.187,-454.5 "/>
<text text-anchor="start" x="529.631" y="-439.3" font-family="Times,serif" font-size="14.00">id :integer</text>
<text text-anchor="start" x="529.631" y="-425.3" font-family="Times,serif" font-size="14.00">first_name :string</text>
<text text-anchor="start" x="529.631" y="-411.3" font-family="Times,serif" font-size="14.00">last_name :string</text>
<text text-anchor="start" x="529.631" y="-397.3" font-family="Times,serif" font-size="14.00">user_address_id :integer</text>
<text text-anchor="start" x="529.631" y="-383.3" font-family="Times,serif" font-size="14.00">created_at :datetime</text>
<text text-anchor="start" x="529.631" y="-369.3" font-family="Times,serif" font-size="14.00">updated_at :datetime</text>
<text text-anchor="start" x="529.631" y="-355.3" font-family="Times,serif" font-size="14.00">email :string</text>
<text text-anchor="start" x="529.631" y="-341.3" font-family="Times,serif" font-size="14.00">encrypted_password :string</text>
<text text-anchor="start" x="529.631" y="-327.3" font-family="Times,serif" font-size="14.00">reset_password_token :string</text>
<text text-anchor="start" x="529.631" y="-313.3" font-family="Times,serif" font-size="14.00">reset_password_sent_at :datetime</text>
<text text-anchor="start" x="529.631" y="-299.3" font-family="Times,serif" font-size="14.00">remember_created_at :datetime</text>
<text text-anchor="start" x="529.631" y="-285.3" font-family="Times,serif" font-size="14.00">sign_in_count :integer</text>
<text text-anchor="start" x="529.631" y="-271.3" font-family="Times,serif" font-size="14.00">current_sign_in_at :datetime</text>
<text text-anchor="start" x="529.631" y="-257.3" font-family="Times,serif" font-size="14.00">last_sign_in_at :datetime</text>
<text text-anchor="start" x="529.631" y="-243.3" font-family="Times,serif" font-size="14.00">current_sign_in_ip :string</text>
<text text-anchor="start" x="529.631" y="-229.3" font-family="Times,serif" font-size="14.00">last_sign_in_ip :string</text>
<text text-anchor="start" x="529.631" y="-215.3" font-family="Times,serif" font-size="14.00">avatar_file_name :string</text>
<text text-anchor="start" x="529.631" y="-201.3" font-family="Times,serif" font-size="14.00">avatar_content_type :string</text>
<text text-anchor="start" x="529.631" y="-187.3" font-family="Times,serif" font-size="14.00">avatar_file_size :integer</text>
<text text-anchor="start" x="529.631" y="-173.3" font-family="Times,serif" font-size="14.00">avatar_updated_at :datetime</text>
</g>
<!-- User&#45;&gt;LegislationVoice -->
<g id="edge12" class="edge"><title>User&#45;&gt;LegislationVoice</title>
<path fill="none" stroke="#da07bf" d="M623.909,-158.044C623.909,-151.514 623.909,-145.117 623.909,-138.928"/>
<ellipse fill="none" stroke="#da07bf" cx="623.909" cy="-162.283" rx="4" ry="4"/>
<polygon fill="#da07bf" stroke="#da07bf" points="623.909,-138.723 628.409,-128.723 623.909,-133.723 623.909,-128.723 623.909,-128.723 623.909,-128.723 623.909,-133.723 619.409,-128.723 623.909,-138.723 623.909,-138.723"/>
</g>
<!-- UserAddress -->
<g id="node8" class="node"><title>UserAddress</title>
<path fill="none" stroke="black" d="M500.403,-534.5C500.403,-534.5 609.414,-534.5 609.414,-534.5 615.414,-534.5 621.414,-540.5 621.414,-546.5 621.414,-546.5 621.414,-650.5 621.414,-650.5 621.414,-656.5 615.414,-662.5 609.414,-662.5 609.414,-662.5 500.403,-662.5 500.403,-662.5 494.403,-662.5 488.403,-656.5 488.403,-650.5 488.403,-650.5 488.403,-546.5 488.403,-546.5 488.403,-540.5 494.403,-534.5 500.403,-534.5"/>
<text text-anchor="middle" x="554.909" y="-647.3" font-family="Times,serif" font-size="14.00">UserAddress</text>
<polyline fill="none" stroke="black" points="488.403,-640.5 621.414,-640.5 "/>
<text text-anchor="start" x="496.403" y="-625.3" font-family="Times,serif" font-size="14.00">id :integer</text>
<text text-anchor="start" x="496.403" y="-611.3" font-family="Times,serif" font-size="14.00">ward_id :integer</text>
<text text-anchor="start" x="496.403" y="-597.3" font-family="Times,serif" font-size="14.00">address1 :string</text>
<text text-anchor="start" x="496.403" y="-583.3" font-family="Times,serif" font-size="14.00">address2 :string</text>
<text text-anchor="start" x="496.403" y="-569.3" font-family="Times,serif" font-size="14.00">zip :string</text>
<text text-anchor="start" x="496.403" y="-555.3" font-family="Times,serif" font-size="14.00">created_at :datetime</text>
<text text-anchor="start" x="496.403" y="-541.3" font-family="Times,serif" font-size="14.00">updated_at :datetime</text>
</g>
<!-- UserAddress&#45;&gt;User -->
<g id="edge14" class="edge"><title>UserAddress&#45;&gt;User</title>
<path fill="none" stroke="#429608" d="M572.733,-526.46C575.857,-514.011 579.221,-500.605 582.678,-486.825"/>
<ellipse fill="none" stroke="#429608" cx="571.712" cy="-530.53" rx="4.00001" ry="4.00001"/>
<polygon fill="#429608" stroke="#429608" points="582.776,-486.433 589.575,-477.828 583.993,-481.583 585.21,-476.733 585.21,-476.733 585.21,-476.733 583.993,-481.583 580.845,-475.638 582.776,-486.433 582.776,-486.433"/>
</g>
<!-- Ward -->
<g id="node9" class="node"><title>Ward</title>
<path fill="none" stroke="black" d="M537.903,-707.5C537.903,-707.5 653.914,-707.5 653.914,-707.5 659.914,-707.5 665.914,-713.5 665.914,-719.5 665.914,-719.5 665.914,-823.5 665.914,-823.5 665.914,-829.5 659.914,-835.5 653.914,-835.5 653.914,-835.5 537.903,-835.5 537.903,-835.5 531.903,-835.5 525.903,-829.5 525.903,-823.5 525.903,-823.5 525.903,-719.5 525.903,-719.5 525.903,-713.5 531.903,-707.5 537.903,-707.5"/>
<text text-anchor="middle" x="595.909" y="-820.3" font-family="Times,serif" font-size="14.00">Ward</text>
<polyline fill="none" stroke="black" points="525.903,-813.5 665.914,-813.5 "/>
<text text-anchor="start" x="533.903" y="-798.3" font-family="Times,serif" font-size="14.00">id :integer</text>
<text text-anchor="start" x="533.903" y="-784.3" font-family="Times,serif" font-size="14.00">ward_number :integer</text>
<text text-anchor="start" x="533.903" y="-770.3" font-family="Times,serif" font-size="14.00">address1 :string</text>
<text text-anchor="start" x="533.903" y="-756.3" font-family="Times,serif" font-size="14.00">address2 :string</text>
<text text-anchor="start" x="533.903" y="-742.3" font-family="Times,serif" font-size="14.00">zip :string</text>
<text text-anchor="start" x="533.903" y="-728.3" font-family="Times,serif" font-size="14.00">created_at :datetime</text>
<text text-anchor="start" x="533.903" y="-714.3" font-family="Times,serif" font-size="14.00">updated_at :datetime</text>
</g>
<!-- Ward&#45;&gt;Legislator -->
<g id="edge16" class="edge"><title>Ward&#45;&gt;Legislator</title>
<path fill="none" stroke="#3ce793" d="M518.927,-718.674C493.595,-701.619 465.102,-682.437 438.5,-664.528"/>
<ellipse fill="none" stroke="#3ce793" cx="522.512" cy="-721.087" rx="4.00002" ry="4.00002"/>
<ellipse fill="#3ce793" stroke="#3ce793" cx="435.099" cy="-662.238" rx="4.00002" ry="4.00002"/>
</g>
<!-- Ward&#45;&gt;User -->
<g id="edge18" class="edge"><title>Ward&#45;&gt;User</title>
<path fill="none" stroke="#7c51f7" d="M624.5,-697.46C627.133,-688.331 629.381,-679.03 630.909,-670 640.945,-610.663 642.1,-544.82 639.769,-486.544"/>
<polygon fill="#7c51f7" stroke="#7c51f7" points="624.424,-697.711 617.204,-705.965 622.966,-702.494 621.509,-707.277 621.509,-707.277 621.509,-707.277 622.966,-702.494 625.813,-708.589 624.424,-697.711 624.424,-697.711"/>
<polygon fill="#7c51f7" stroke="#7c51f7" points="639.767,-486.499 643.826,-476.313 639.549,-481.504 639.331,-476.509 639.331,-476.509 639.331,-476.509 639.549,-481.504 634.835,-476.705 639.767,-486.499 639.767,-486.499"/>
</g>
<!-- Ward&#45;&gt;UserAddress -->
<g id="edge17" class="edge"><title>Ward&#45;&gt;UserAddress</title>
<path fill="none" stroke="#980a92" d="M578.858,-699.386C576.739,-690.547 574.569,-681.497 572.442,-672.629"/>
<ellipse fill="none" stroke="#980a92" cx="579.826" cy="-703.422" rx="4.00001" ry="4.00001"/>
<polygon fill="#980a92" stroke="#980a92" points="572.397,-672.438 574.441,-661.665 571.231,-667.576 570.065,-662.714 570.065,-662.714 570.065,-662.714 571.231,-667.576 565.689,-663.763 572.397,-672.438 572.397,-672.438"/>
</g>
<!-- ActiveRecord::Base -->
<g id="node11" class="node"><title>ActiveRecord::Base</title>
<ellipse fill="none" stroke="black" cx="478.909" cy="-909.5" rx="81.1422" ry="18"/>
<text text-anchor="middle" x="478.909" y="-905.3" font-family="Times,serif" font-size="14.00">ActiveRecord::Base</text>
</g>
<!-- ActiveRecord::Base&#45;&gt;Legislation -->
<g id="edge3" class="edge"><title>ActiveRecord::Base&#45;&gt;Legislation</title>
<path fill="none" stroke="black" d="M442.885,-893.276C426.555,-886.638 406.91,-879.017 388.909,-873 330.311,-853.415 304.215,-873.231 254.909,-836 119.138,-733.48 101.836,-672.814 55.9087,-509 46.1021,-474.022 46.9817,-433.952 51.0742,-399.941"/>
</g>
<!-- ActiveRecord::Base&#45;&gt;LegislationSponsor -->
<g id="edge4" class="edge"><title>ActiveRecord::Base&#45;&gt;LegislationSponsor</title>
<path fill="none" stroke="black" d="M477.586,-891.279C471.627,-813.674 447.147,-494.89 437.675,-371.547"/>
</g>
<!-- ActiveRecord::Base&#45;&gt;LegislationVoice -->
<g id="edge5" class="edge"><title>ActiveRecord::Base&#45;&gt;LegislationVoice</title>
<path fill="none" stroke="black" d="M554.782,-902.964C636.18,-892.406 753.909,-861.715 753.909,-772.5 753.909,-772.5 753.909,-772.5 753.909,-320.5 753.909,-251.316 766.776,-227.408 734.909,-166 724.85,-146.618 709.442,-129.135 693.277,-114.391"/>
</g>
<!-- ActiveRecord::Base&#45;&gt;Legislator -->
<g id="edge10" class="edge"><title>ActiveRecord::Base&#45;&gt;Legislator</title>
<path fill="none" stroke="black" d="M467.461,-891.571C460.739,-881.25 452.329,-867.651 445.909,-855 415.024,-794.143 386.298,-721.871 366.898,-669.748"/>
</g>
<!-- ActiveRecord::Base&#45;&gt;LegislatorVote -->
<g id="edge11" class="edge"><title>ActiveRecord::Base&#45;&gt;LegislatorVote</title>
<path fill="none" stroke="black" d="M451.126,-892.316C397.27,-859.001 280.646,-776.829 242.909,-670 221.74,-610.074 216.352,-584.741 242.909,-527 248.045,-515.832 258.357,-519.968 263.909,-509 283.044,-471.194 286.308,-423.468 284.91,-385.761"/>
</g>
<!-- ActiveRecord::Base&#45;&gt;User -->
<g id="edge13" class="edge"><title>ActiveRecord::Base&#45;&gt;User</title>
<path fill="none" stroke="black" d="M552.563,-901.705C595.898,-893.485 647.438,-875.451 674.909,-836 747.284,-732.061 724.167,-586.317 688.956,-476.64"/>
</g>
<!-- ActiveRecord::Base&#45;&gt;UserAddress -->
<g id="edge15" class="edge"><title>ActiveRecord::Base&#45;&gt;UserAddress</title>
<path fill="none" stroke="black" d="M481.24,-891.317C486.192,-856.277 498.809,-774.202 516.909,-707 520.821,-692.474 525.76,-677.098 530.77,-662.657"/>
</g>
<!-- ActiveRecord::Base&#45;&gt;Ward -->
<g id="edge19" class="edge"><title>ActiveRecord::Base&#45;&gt;Ward</title>
<path fill="none" stroke="black" d="M493.49,-891.55C505.681,-877.381 523.867,-856.241 541.546,-835.69"/>
</g>
</g>
</svg>
