<svg width="40" height="40" viewBox="0 0 40 40" xmlns="http://www.w3.org/2000/svg" xmlns:xlink="http://www.w3.org/1999/xlink">
    <defs>
        <rect id="b" width="24" height="30" rx="1"/>
        <filter x="-2.1%" y="-1.7%" width="104.2%" height="106.7%" filterUnits="objectBoundingBox" id="a">
            <feOffset dy="1" in="SourceAlpha" result="shadowOffsetOuter1"/>
            <feColorMatrix values="0 0 0 0 0.933333333 0 0 0 0 0.941176471 0 0 0 0 0.949019608 0 0 0 1 0" in="shadowOffsetOuter1"/>
        </filter>
    </defs>
    <g fill="none" fill-rule="evenodd">
        <g transform="translate(8 5)">
            <use fill="#000" filter="url(#a)" xlink:href="#b"/>
            <use fill="#F8F9FA" xlink:href="#b"/>
        </g>
        <path d="M22.664 18.826l-2.213-1.48v-2.382l4 2.667-1.787 1.195zm.919.614l1.277-.854v1.709l-1.277-.855zm-3.132 2.095l2.213-1.48 1.787 1.195-4 2.667v-2.382zm-3.235-1.48l2.214 1.48v2.382l-4-2.667 1.786-1.195zm-.918-.614l-1.277.854v-1.709l1.277.855zm3.132-2.095l-2.214 1.48-1.786-1.195 4-2.667v2.382zm.51 3.302l-1.805-1.207 1.805-1.208 1.806 1.208-1.806 1.207zm5.932-3.106c-.002-.014-.005-.029-.009-.043l-.008-.025-.013-.037-.011-.025a.512.512 0 0 0-.146-.182l-.023-.018-.008-.006-5.43-3.62a.51.51 0 0 0-.567 0l-5.43 3.62-.008.006-.023.018a.464.464 0 0 0-.114.125l-.014.023a.378.378 0 0 0-.018.034l-.011.025a.545.545 0 0 0-.014.037l-.007.025a.536.536 0 0 0-.01.043c0 .007-.002.014-.004.022a.515.515 0 0 0-.004.066v3.62c0 .023.002.045.004.067l.005.022a.532.532 0 0 0 .009.043l.007.025a.494.494 0 0 0 .014.037l.011.025a.516.516 0 0 0 .146.183l.023.017.008.006 5.43 3.62a.509.509 0 0 0 .567 0l5.43-3.62.008-.006.023-.017a.532.532 0 0 0 .03-.025l.02-.02a.458.458 0 0 0 .096-.138l.011-.025a.451.451 0 0 0 .013-.037l.008-.025.01-.043.003-.022a.514.514 0 0 0 .005-.066v-3.62a.516.516 0 0 0-.005-.067c0-.008-.002-.015-.004-.022z" fill-rule="nonzero" fill="#006EE8"/>
    </g>
</svg>
