<svg xmlns="http://www.w3.org/2000/svg" viewBox="0 0 347.7 445"><path d="M89.6 445c-.7-1.7-1.2-7.6-1-15 0-11 .2-13 2.7-20 1.6-4 4-9.5 5.4-12 3.4-6 15-19 17-19 1.4.6 5.3-2 4.6-3-.3-.5 3-3 7-5.8 4.3-2.7 8.6-6.2 9.6-7.7 1-1.6 3-5.2 4-8.6 4-13-3-36-19-60-14-22-24-45-25-79-.7-34 5-50 11-65 2-5 3.6-10 3.6-11 0-5.5-7.3-9.8-17-9.8-4.5 0-6-.4-8-2.5-3.6-3.6-5.7-4.5-11-4.5-4 0-5-.5-8.2-3.5-2-2-4-3.6-4.5-3.6s-3.5 0-6.7-.2c-3.6 0-6.6-.7-8.2-2-2.8-2-4.8-2-8.4-.4-2 1-3.4.8-6.3 0-3.3-1.2-4.3-1.2-7 .3-2.8 1.4-4 1.4-6.2.5-2.2-1-3.2-1-5 .3-3 2-10 3-12 1.8-1.3-.8-1.3-1.6.2-5.6 2.7-6.8 9.5-16 14-20 8.7-6.6 24-10 38-9 17 1.5 40 7.5 59 16 18 7.5 21 7.2 28-2.7 30-37 60-61 90-80 30-11 40-14 50-14 11 0 18 3.7 21 12 1.4 3.7 1.6 7 1 23-1.3 40-9 71-25 100-7.4 15-8 14 14 35 9.5 9.3 22 22 29 27 15 13 22 24 26 38 2.7 9.2 1.7 23-2.2 32-3.3 7-7.4 11-12 11-1.5 0-2.4-.4-2-1 .3-.5 0-1-.5-1-.7 0-1-1.2-.5-3.3.5-2.4 0-4-1.4-6-1.4-1.6-2-4-2-6.8 0-4-.6-5-4.6-8.6-3.4-3-4.5-4.8-4.5-7 0-3.8-2.3-7-7-9.2-2.3-1-4.2-3.2-5.5-6-3-5.8-6.3-9-11-10-7.5-1.8-9.4-3-14-8.7-4.4-5-5.7-6-11-7.5-6.8-2-12-5.8-13-10-.6-2-1.8-.4-8.5 12-4.3 7.8-8.2 14-8.6 15-.6.3-1 1.2-1.3 2-.5 2.3-16 24-22 31-3 3.6-8.5 10-12 15-3.6 4.8-6.8 9-12 20-10 19-13 36-13 60 .7 18-.2 25-3 25-2.8-.5-6.7.7-6 2 .5.5 2 .7 4 .3 4.4-.8 4.5.3.5 8-1.6 3.3-2.7 6-2.5 6.3.7.7 6.5-10 8.2-16 1-3 2-5.6 2.3-5.8.4-.2.5-2 .2-4.2-.5-3.6-.3-4 1.6-4 1.4 0 3-.7 3.8-1.5 1.3-1 1.2-1.4-.5-2.4-1.3-.7-2.2-.7-2.6 0-1.2 2-2 1-1.7-2l.4-3 2.7 2c2 1.5 5 2 11 2.5 17 1 29 6 40 16 10 11 16 25 14 37-.8 4.6-2.2 4.7-4 .3-1.6-3.7-5-6.6-7.6-6.6-1 0-2-1.2-2.8-2.6-1-2.3-1.5-2.5-5-2-3.7.7-4.4.4-7-2.4-2.6-3-3-3-6-2-4.5 1.5-4.4 1.5-7.5-1.4-2.8-2.7-4-3-7.8-1.6-2 .7-3.7.3-8.2-2-3.2-1.6-7.2-3-9-3-4.4 0-14 5.2-19 10-3.8 4-4.3 4.2-8.3 3.7-4.7-.7-7 .8-7 4.7 0 2-.5 2-4.3 1.8-4-.2-4.4 0-5.8 3.4-1.4 3.3-1.8 3.6-4.5 3-2.5-.5-3-.2-4.6 2.4-1.2 2.2-2.4 3-4.2 3-4.3-.3-4.8 0-5.4 2.5-.4 1.7-1.3 2.6-2.7 2.6-1.2 0-2.2 1-3 3-.5 1.6-1.7 3.2-2.7 3.5-1 .4-2.7 2-4 3.6-2.7 3.7-3.8 3.8-5.4.3zm140-40c0-.3-.5-.8-1-1-.5-.4-1-.2-1 .3 0 .6.5 1 1 1s1 0 1-.3zm-29-3.2c-.3-.3-1.2-.4-2 0-.7.2-.4.5.7.5 1 0 1.7-.2 1.3-.5zm-43-12c.3-.5 0-1-1-1-.8 0-1.5.5-1.5 1 0 .6.5 1 1 1 .6 0 1.3-.4 1.6-1zm28-5.7H183c-.5.4 0 .6 1.4.6s2-.2 1.2-.5zm-49-7.6c0-.3-.5-.8-1-1-.5-.4-1-.2-1 .3 0 .6.5 1 1 1s1 0 1-.3zm11-20c-.8-.7-3.7 1-3 2 .2.4 1 .3 2-.4.7-.6 1.2-1.4 1-1.6zm15-13c0-.2-.7-.4-1.5-.4-.7 0-1.4.4-1.4 1 0 .5.7.7 1.5.4 1-.4 1.6-.8 1.6-1zm-10-50c.2-2.3.7-3.4 1.6-3 1.7.6 3.8-5 5.2-14 1.6-10 3.4-16 9-24 5-8.4 9.4-12 12-9.7 1.4 1.6 4.3 1 4-.8-.2-.8.7-1.2 2-1 1.2.2 2.2-.2 2.2-.7 0-.6-.6-1-1.4-1-2.2 0 .3-7 2.8-8 3-1.2 5-4 7-8.6 1-2.2 3-5 4.7-6.5 1.6-1.4 3-3.3 3.3-4.2 0-1 1-2.5 1.7-3.5 6.8-8 11-17 13-24 1.6-7.3 2.7-10 3.5-13 1-2.8 2.4-5.7 4-7.4 1.4-1.6 2.2-4 4-9 1-2.6 1.8-6 2-7.6 0-1.6 1-3.6 1.8-4.5 1-1 1.7-3.2 1.7-4.8 0-2.3.7-3.2 4-5 3-1.5 4.7-3.2 6-6.3 1-2.4 3.3-6 5-8.2 3.4-4.2 3.8-8.5 2-18-1-4.8-1-5.4 1.5-9 1.4-2.4 5-5.5 7.6-7.2 4.7-3 6-5 4-6.3-.6-.3-1-2-1-3.5 0-3-2.3-5-5.5-5-.8 0-2.6-1-4-2.5-1.4-1.4-3-2.5-3.8-2.5-.8 0-2.2-2-3.3-4.2-1-2.3-3.2-5-4.7-6.2-3.4-2.4-5.7-1.6-12 4.4-4 3.7-5.2 4.2-13 5.4-15 2.4-16 3.2-23 11-3.3 3.8-6 7.5-6 8.3 0 1.8-7 9.5-8.7 9.5-.8 0-2.8.7-4.5 1.6-3 1.6-3 1.7-1.2 3 2 1.5 2 1.5 0 3-1 .8-3 1.7-4.3 2-1.2.4-2.2 1-2.2 1.5s-1.4 2.5-3 4.4l-3 3.5 3-1.3c1.6-.6 3.3-.8 3.7-.4 1 1-.8 3.8-2.8 4.7l-3.8 2c-2 1-2.6 1-3.7-.4-1-1.4-1.5-1.4-2-.4-.6.7-.8 2-.7 3 .8 4.8-5 14-6.7 11-.6-.8-1.8 0-4.5 3-2 2.4-3.5 5-3.5 5.6 0 .7-1.5 2-3.3 3-3.6 1.8-12 11-9.3 10 1.5-.6 1.6-.4 1 2-.8 3.4-2.3 5.3-4 5.3-.8 0-1.7 1.7-2 4-.5 2-1.4 4.8-2 6.2-1.3 2.5-1.3 2.7.5 2.2 2-.5 2.6.7 2 5.2 0 1.5.2 1.7 1.2.7 2.4-2.4 3-1.2 2.5 4.7-.8 7-3.5 14-5 14-1.8-.6-2-6.3-.4-12 1-3.7 1.2-4.7.3-4-.6.6-1.5.8-1.8.4-2-2-8.2 8.3-6.6 11 1.6 2.6 1 7.6-1.6 11-2.2 3.3-2.3 3.6-.6 3.6 2 0 3 2 3 5.6 0 1.4.5 2.3 1 2 1.4-1 3 1 3.7 4 .6 2.5.2 3.7-1.5 5.4-1.6 1.6-2 2.8-1.5 5 .4 1.7 1 2.7 1.6 2.4 1.5-1 4 1.6 4 4 0 2.7-2.5 5-4 4-.6-.2-1-.2-1 .3 0 1.4 1.3 3 3.2 3.6 1 .4 2 2 2.4 3.8.4 2 .8 2.7 1.4 2 1.2-2 4 .7 4 4 0 2.2 1 3.6 4.7 6.4 4.6 3.4 5 4 7 12 2 7.3 2.2 9.3 1.3 13-.6 2.4-.8 6.4-.4 9 .5 4 .8 4.6 2.7 4 1-.2 3 .3 4 1 2.4 2 3.4 1 3.7-3.7zm-28-52c-.4-.3-.7-1.5-.7-2.5 0-2.7 2.3-1.8 2.7 1 .3 2-.8 2.8-2 1.4zm1.7-11c-.3-.8-.3-2 0-2.5 1.2-2 2.6-1.2 2.6 1.4 0 2.7-1.8 3.4-2.7 1zm-4.4-6c0-4.2 2.3-6.5 3.8-3.6 1.4 2.5-.2 7-2.4 7-1 0-1.5-1-1.5-3.3zm1.6-7.8c-.7-1.8 1.6-8 3-8.5 1.7-.4 1.7 4 0 7.4-1 2.7-2.2 3.2-3 1.2zm-4-6.6c-1-1.5.2-9.6 1.8-12 2-2.7 2.8-1 2 4.6-.7 5.5-2.7 9.2-4 7.2zm11-3.5c0-1 .7-1.7 1.2-1.7 1.5 0 1.2 2.4-.3 3-1 .2-1.3-.3-1-1.3zm-4-6.2c.6-5.6 2.8-10 4.8-10 .8 0 1 1.6.4 4.8-1.6 11-6.3 16-5.2 5.7zm7-3c.2-4 2-5.7 3-2.7.5 2.4-1 6.3-2.3 6.3-.7 0-1-1.6-.8-3.8zm-20 0c0-3 2.4-6.7 3.5-5.7 1 1-.8 7-2.3 7.6-.7.2-1.2-.6-1.2-2zm18-7.4c0-3.4 1.6-6.6 3.3-6.6 3.5 0 2.3 8.3-1.3 8.8-1.8.3-2.2-.2-2.2-2.3zm-6-1.4c0-2 1-4.2 2-4.2 1.5 0 .6 4.3-1 4.8-.5.2-1 0-1-.6zm-11-1c0-.5.6-1.6 1.5-2.3 1.5-1.2 1.7-1 1.4.5-.4 2-3 3.5-3 1.8zm15-5.8c-1.6-1.5-.7-6.4 1.6-9 3-3.6 4.3-2.6 2.8 2.4-1.4 4.5-3.5 7.6-4.5 6.6zm5.2-2.2c0-1.8 3-5.2 4.3-5.2 1.4 0 .8 4-.8 5.4-2 2-3.4 2-3.4-.2zm-20 0c-1.6-1.6-1.5-7.6 0-11 1.5-2.8 4.7-3.8 6-1.8 1.3 2.2 1 8.7-.8 11-1.8 2.7-3.4 3-5.2 1.3zm13-3c0-3.2 1.7-4.6 2.6-2.3.4 1 0 2.4-1 3.3-1.5 1.5-1.6 1.4-1.6-1zm4.4-1c-.6-2 1.3-6.8 2.6-6.8 1.6 0 2.3 2.6 1.6 5.5-.7 2.7-3.3 3.4-4.2 1.2zm-7.4-6.3c0-5.2 5.7-14 9.3-14 1.8 0 2 .5 1.5 4-1 7.8-11 16-11 9.5zm12-3c-1-2.6 1.6-8.6 5-12 5.6-6 8-3.6 4.6 4.5-1.2 2.8-3.4 6-5 7-3.3 2.5-3.8 2.6-4.6.5zm-17-2.6c-2-3 3.5-14 7-14 2.5 0 1.7 4-1 5.2-1.4.5-2.5 1.4-2.5 2 0 1.2 1.8.8 2.3-.5.2-.7.7-1 1-.8.3.3 0 2-1 3.8-1.8 3.7-4.8 5.8-5.8 4zm10-13c0-4 4.6-11 7.2-11 .5 0 .8 1 .8 2 0 1.4-.7 2-2.3 2l-2.2.2 2.3.5 2.2.7-2 3.5c-2 4-6 5.4-6 2zm19-2c.7-2.6 3.3-3.5 3.3-1 0 1-.6 2-1.5 2.4-2.2 1-2.3 1-1.7-1.2zm-9.2.2c-2.7-2.8 7.6-13 13-13 .8 0 1.8.6 2 1.6 1.4 3.3-12 14-15 12zm14-4.7c0-2.2 3.5-6 5-5.2.7.6.5 1.7-1 3.8-2.3 3-4 3.8-4 1.5zm-10-10c0-2 6.7-9 8-8.4 2.6.7 2 2.8-1.3 6.2-3.6 3.6-6.7 4.6-6.7 2zm11-.8c0-1.8 3.2-6.5 5.6-8.3 5.2-4 6 1 1 6-3.4 3.5-6.6 4.6-6.6 2.3zm1.6-10c.8-2.2 3.6-3 3.2-1-.2 1-1 2-2 2.2-1.3.2-1.6 0-1.2-1.2zm10-2.4c0-1.4 2.8-4.6 3.5-4 .8 1-1.3 5-2.5 5-.6 0-1-.5-1-1zm-6-2c0-1.3 3-3.5 3.7-2.8.6.8-1.6 3.7-3 3.7-.4 0-.8-.5-.8-1zm20-31c.5-1.5 5.6-3 6.3-1.8.7 1-2.7 3-5 3-1 0-1.5-.5-1.3-1.2zm8.8-3.3c0-.3 1.4-1.2 3-2 3-1.6 7.2-1.3 5.4.4-1 1-8.4 2.4-8.4 1.7zm8.6-6.3c-.7-1 1.6-5.4 3-6 1.7-.5 1.8 2.2.4 5-1 2-2.5 2.4-3.4 1zm-71 180c1.2-.8 1-1-.7-1-1.3 0-2.6.5-3 1-.7 1.3 1.6 1.3 3.6 0zm16-2.6c-.3-.3-1.2-.4-2 0-.7.2-.4.5.7.5 1 0 1.7-.2 1.3-.5zm-5.7-5.4c0-.5-.6-1-1-1-.6 0-1 .5-1 1 0 .6.4 1 1 1 .4 0 1-.4 1-1zm1.4-8c.3-.5-.3-1-1.5-1-1.3 0-2 .5-1.6 1 .3.6 1 1 1.5 1 .4 0 1-.4 1.4-1zm0-6c.3-.5 0-1-1-1-.8 0-1.5.5-1.5 1 0 .6.3 1 .8 1 .6 0 1.3-.4 1.6-1zm170-7c0-1.2-1.6-1.2-6-.4-1.7.4-2.7 1-2 1.3 1.4 1 8 0 8-1zm-86-3c0-.5-.2-1-.4-1-.3 0-.8.5-1 1-.4.6-.2 1 .3 1 .6 0 1-.4 1-1zm-110-.6c-.3-.3-1.2-.4-2 0-.7.2-.4.5.7.5 1.2 0 1.8-.2 1.4-.5zm160-14c.4-.6-.7-1-2.4-1s-3 .5-3 1c0 .6 1 1 2.3 1 1.4 0 2.8-.4 3-1zm-60-6c0-.5-.4-1-1-1-.5 0-1.2.5-1.5 1-.4.6 0 1 .8 1 1 0 1.6-.4 1.6-1zm67-1c-.3-.7 0-1.6.6-2 2-1.2-.3-1.8-3-.8-2.4 1-2.4 1-.6 2.4 2.4 1.7 4 1.8 3 .3zm-33-36c-.3-.4-1.2-.5-2-.2-.7.3-.4.6.7.6 1.2 0 1.8-.2 1.4-.5zm-4-41c-.3-.4-1.2-.5-2-.2-.7.3-.4.6.7.6 1.2 0 1.8-.2 1.4-.5zm-120-4c0-.2-.5-.7-1-1-.5-.3-1 0-1 .4 0 .6.5 1 1 1s1 0 1-.3zm-5-3c0-.8-.7-1.5-1.6-1.5-1.4 0-1.4.3-.4 1.5.7.8 1.4 1.5 1.6 1.5.2 0 .4-.7.4-1.5zm-12-1.5c.3-.5 0-1-1-1s-1.3.5-1 1c.3.6.8 1 1 1 .2 0 .7-.4 1-1zm-7.8-4.6c0-.2-1.3 0-2.6.3-1.6.4-2 .8-1 1.4 1.2.7 4.5-1 3.6-1.7zm51-3.2c0-.5-.7-1-1.5-1-.7 0-1.4.5-1.4 1 0 .4.7.8 1.5.8 1 0 1.6-.4 1.6-.8zm-50-10c1 0 1.8-.4 1.8-1 0-1-3.3-1.3-6.7-.4-1.3.5-2 1.2-1.7 1.7.4.5 1.6.7 2.8.4 1-.2 3-.5 3.8-.5zm22-1c0-.5-.2-1-.4-1-.3 0-.8.5-1 1-.4.6-.2 1 .3 1 .6 0 1-.4 1-1zm-56-2.6c-.3-.4-1.2-.5-2-.2-.7.3-.4.6.7.6 1 0 1.7-.2 1.3-.5zm86 0c0-.2-.5-.7-1-1-.5-.3-1 0-1 .4 0 .6.5 1 1 1s1 0 1-.3zm110-.5c.8-1.3-.5-1.3-2.5 0-1.2.8-1.2 1 .3 1 1 0 2-.4 2.3-1zm-250-2c.8-1.3-1.5-1.3-3.5 0-1 .8-1 1 .8 1 1.2 0 2.5-.4 2.8-1zm62 0c0-.5-1-1-2-1s-2.2-.4-2.5-1c-.2-.5 0-1 .6-1s.8-.4.5-1c-.7-1.3-7.4-1.3-7.4 0 0 1.2 7 5 9.2 5 1 0 1.8-.4 1.8-1zm32-5c1.2-.8 1.2-1-.5-1-1 0-2.6.5-3.4 1-1.2.8-1.2 1 .5 1 1.2 0 2.8-.5 3.6-1zm54-2c0-.8-2.4-2-4-2-.6 0-1 .5-1 1 0 .6.4 1 1 .5.4-.3 1 0 1.5.5 1 1.2 2.6 1.3 2.6 0zm130-8H286c-.5.4 0 .6 1.4.6s2 0 1.2-.4zm-120-14s-1.4-.3-3-.3c-1.7 0-3 .4-2.6 1 .5.7 5.6.2 5.6-.6zm20-2c-.3-.2-1.2-.3-2 0-.7.3-.4.6.7.6 1 .2 1.7 0 1.3-.4zm68-56c0-.4-.2-1-.4-1-.3 0-.8.6-1 1-.4.7-.2 1 .3 1 .6 0 1-.3 1-1zm-5.5-5c.4-.4.2-1-.3-1-.6 0-1 .6-1 1 0 .7 0 1 .3 1s.8-.3 1-1z"/></svg>