<svg xmlns="http://www.w3.org/2000/svg" width="200" height="200"><path d="M51.6 87.5c3-16.5 3.5-21 3-27.2-1-9.7 0-13 4-15.5 4.2-2.6 6.4-2.5 10.6.3 3.4 2.4 3.4 2.4 7.5.6 6.4-2.7 17.7-4 28.5-3.3 9.2.6 9.8.5 13.4-2C121 39 123.8 38 126 38c4 0 8 2.3 8 4.6 0 .7.6 1.4 1.2 1.4 1 0 1 2.3.6 8.2-.7 9-2 3.7 13.5 56.3l13.5 45.6c-25.7 38.3-90.3 42.7-125.6 10.8zm61 39.8c3.3-2 6.3-4.2 6.6-4.8.4-.5 1-.7 1.7-.3 1.2.8 10-9 11.8-13.4l3-7c1.4-2.7 1.8-6.4 1.7-17 0-7.5-.5-14.6-1-16-1-2-1-1.5-.7 3 1.7 18-7 32.3-25.5 41.6-6.7 3.4-14.4 9-17.7 13l-2.5 3-5.6-5.6c-3.2-3-8.3-6.8-11.3-8.3-7.4-3.8-15.7-11.2-18-16l-1.8-4.2v3.5c-.2 4 3.6 12.7 6.3 15 1 1 1.3 1.5.5 2-.7.5 1 2.6 4.7 5.6 9.8 8.3 16.2 15.3 20 22l3.5 6.3 9.2-9.3c5-5 12-11 15.2-13zm-22.3-20.7c2-.6 5.5-2.5 7.5-4.3 3.4-3 3.6-3.5 3.7-9 0-7.2-3-13.3-9.6-19-5-4-9.2-5.5-13.3-4.4-5.4 1.4-5.6 3-.4 2.4 11-1.6 15 7.3 4.5 10-1.5.3-2.7 1.3-2.7 2.2 0 1.4 0 1.4-1.2 0-.6-1-2-1.8-2.7-2-1-.5-1-.7.4-.7 2.2-.2 1.8-2-.6-3.6-1.3-1-2-.8-2.7.4-.5 1-1 1-1 .2 0-3-2-.7-3.5 4-3 10 0 18.3 8.5 22.8 4.2 2.2 7.8 2.5 13.3.8zm-4.7-27c1.2-1.7-1.2-3.3-3-1.8-.8.7-1.5 1.6-1.5 2 0 1.4 3.8 1.2 4.6 0z" fill="#fff"/></svg>