<svg xmlns="http://www.w3.org/2000/svg" width="194.1" height="195"><path d="M88.6 168.4c-.3-6.3-1.5-13.5-7-17.5-2.8-1.7-5.8-3.3-7.6-6-3-4.2-4.3-9.3-5.6-14.2-4-3.7-5-9.6-3.7-14.7.7-3 2-6 2.5-9.2 1.4-7.6 3.4-15.3 8.3-21.4 3.5-5.3 6.8-10.8 9.3-16.6 2-6.4 9.3-9.3 11-15.8 2-6 8-10.2 14.2-11.5 3.4-2.3 6.3-6.3 10.8-6.3 3.4.6 5.3 4 8.6 5.4 2.6 1.6 6 4.8 4.2 8.2-1.8 2.5-4.4 4.7-3.8 8.2.2 4.4 2.2 9.4-.8 13.4-4 6.4-6.7 13.8-7.5 21.3-2.6 10.7-3.2 22.3-9 32-3 6.6-7.3 12.5-12.4 17.7-5.4 8.3-1.8 19-6.5 27.6-1.2 1.7-4.2 1.5-5-.6zm29.6 0c-1.3-1.2-1.8-4.5.6-2.6 2 1 2 3-.6 2.5zM116 141c2-3.8 2 3.3 0 0zM38 99.5c3.6.6 1.8 6-1.3 5.3-1.8-.8-1.3-7 1.3-5.3z" fill="#fff"/></svg>