%FSLAX23Y23*%
%MOIN*%
G70*
G01*
G75*
%ADD10C,0.010*%
%ADD11C,0.020*%
%ADD12C,0.063*%
%ADD13C,0.059*%
%ADD14R,0.059X0.059*%
%ADD15C,0.065*%
%ADD16C,0.180*%
%ADD17C,0.047*%
%ADD18R,0.047X0.047*%
%ADD19O,0.500X0.400*%
%ADD20C,0.070*%
%ADD21R,0.070X0.070*%
%ADD22C,0.275*%
%ADD23C,0.059*%
%ADD24R,0.059X0.059*%
%ADD25C,0.055*%
%ADD26R,0.053X0.053*%
%ADD27C,0.053*%
%ADD28C,0.025*%
%ADD29C,0.008*%
%ADD30C,0.006*%
%ADD31C,0.071*%
%ADD32C,0.067*%
%ADD33R,0.067X0.067*%
%ADD34C,0.073*%
%ADD35C,0.188*%
%ADD36C,0.055*%
%ADD37R,0.055X0.055*%
%ADD38O,0.508X0.408*%
%ADD39C,0.078*%
%ADD40R,0.078X0.078*%
%ADD41C,0.283*%
%ADD42C,0.067*%
%ADD43R,0.067X0.067*%
%ADD44C,0.063*%
%ADD45R,0.061X0.061*%
%ADD46C,0.061*%
%ADD47C,0.033*%
D10*
Y2500D01*
Y0D02*
X5000D01*
Y2500D01*
X0D02*
X5000D01*
D31*
X4230Y2210D02*
D03*
X4130D02*
D03*
X3910D02*
D03*
X4010D02*
D03*
X4500D02*
D03*
X4400D02*
D03*
X3430D02*
D03*
X3530D02*
D03*
X3750D02*
D03*
X3650D02*
D03*
D32*
X1000Y1240D02*
D03*
Y1340D02*
D03*
X1100Y1240D02*
D03*
Y1340D02*
D03*
X1200Y1240D02*
D03*
X380Y1540D02*
D03*
X1480Y1340D02*
D03*
X1340Y1240D02*
D03*
X860Y1340D02*
D03*
D33*
X1200D02*
D03*
X380Y1440D02*
D03*
X1480Y1240D02*
D03*
X1340Y1340D02*
D03*
X860Y1240D02*
D03*
D34*
X4493Y906D02*
D03*
X4415Y906D02*
D03*
Y808D02*
D03*
X4493D02*
D03*
D35*
X4600Y1094D02*
D03*
Y620D02*
D03*
D36*
X4580Y1315D02*
D03*
D37*
Y1415D02*
D03*
D38*
X380Y1875D02*
D03*
Y1125D02*
D03*
D39*
X4460Y140D02*
D03*
X4360D02*
D03*
X4260D02*
D03*
X4160D02*
D03*
X4060D02*
D03*
X3960D02*
D03*
X3860D02*
D03*
X3760D02*
D03*
X3660D02*
D03*
X3560D02*
D03*
X3460D02*
D03*
X3360D02*
D03*
X3260D02*
D03*
X3160D02*
D03*
X3060D02*
D03*
X2960D02*
D03*
X2860D02*
D03*
X2760D02*
D03*
X2660D02*
D03*
X2560D02*
D03*
X2460D02*
D03*
X2360D02*
D03*
X2260D02*
D03*
X2160D02*
D03*
X2060D02*
D03*
X1960D02*
D03*
X1860D02*
D03*
X1760D02*
D03*
X1660D02*
D03*
X1560D02*
D03*
X1460D02*
D03*
X1360D02*
D03*
X1260D02*
D03*
X1160D02*
D03*
X1060D02*
D03*
X960D02*
D03*
X860D02*
D03*
X760D02*
D03*
X660D02*
D03*
D40*
X560D02*
D03*
D41*
X205Y205D02*
D03*
X4795D02*
D03*
Y2295D02*
D03*
X205D02*
D03*
D42*
X1950Y2070D02*
D03*
X2050D02*
D03*
X2150D02*
D03*
X2250D02*
D03*
X1950Y2370D02*
D03*
X2050D02*
D03*
X2150D02*
D03*
X4170Y1000D02*
D03*
X4070D02*
D03*
X3970D02*
D03*
X3870D02*
D03*
X3770D02*
D03*
X3670D02*
D03*
X3570D02*
D03*
X3470D02*
D03*
X3170D02*
D03*
X3070D02*
D03*
X2970D02*
D03*
X2870D02*
D03*
X2770D02*
D03*
X2670D02*
D03*
X2370D02*
D03*
X2270D02*
D03*
Y1600D02*
D03*
X2370D02*
D03*
X2570D02*
D03*
X2670D02*
D03*
X2770D02*
D03*
X3270Y1000D02*
D03*
X3070Y1600D02*
D03*
X3370Y1000D02*
D03*
X3170Y1600D02*
D03*
X3270D02*
D03*
X3370D02*
D03*
X3470D02*
D03*
X3570D02*
D03*
X3670D02*
D03*
X3770D02*
D03*
X3870D02*
D03*
X3970D02*
D03*
X4070D02*
D03*
X2570Y1000D02*
D03*
X2470D02*
D03*
Y1600D02*
D03*
X2870D02*
D03*
X2970D02*
D03*
X3080Y2070D02*
D03*
X2780D02*
D03*
X2980Y2370D02*
D03*
X3080D02*
D03*
X2780D02*
D03*
X2680D02*
D03*
Y2070D02*
D03*
X2880Y2370D02*
D03*
X2580Y2070D02*
D03*
X3180D02*
D03*
X2580Y2370D02*
D03*
X2880Y2070D02*
D03*
X2980D02*
D03*
D43*
X2250Y2370D02*
D03*
X4170Y1600D02*
D03*
X3180Y2370D02*
D03*
D44*
X4640Y1755D02*
D03*
X4560D02*
D03*
X4880D02*
D03*
X1900Y1950D02*
D03*
X4720Y1755D02*
D03*
X4800D02*
D03*
X3950Y1700D02*
D03*
X4250D02*
D03*
X1800Y1650D02*
D03*
Y1950D02*
D03*
X1900Y1650D02*
D03*
X4480Y1755D02*
D03*
X4640Y2055D02*
D03*
X4560D02*
D03*
X4880D02*
D03*
X4720D02*
D03*
X4800D02*
D03*
X4480D02*
D03*
X2644Y1740D02*
D03*
X2836D02*
D03*
X1700Y2350D02*
D03*
Y2050D02*
D03*
X1620D02*
D03*
Y2350D02*
D03*
X2110Y1840D02*
D03*
X2410D02*
D03*
D45*
X2000Y1960D02*
D03*
X2740Y1940D02*
D03*
X4340Y1460D02*
D03*
X2180Y1720D02*
D03*
X3240D02*
D03*
X1660Y1840D02*
D03*
X4820Y1275D02*
D03*
X3280Y1900D02*
D03*
D46*
X2197Y1960D02*
D03*
X2937Y1940D02*
D03*
X1660Y1643D02*
D03*
X4340Y1657D02*
D03*
X2377Y1720D02*
D03*
X3043D02*
D03*
X4820Y1472D02*
D03*
X3083Y1900D02*
D03*
D47*
X3425Y686D02*
D03*
X3525Y504D02*
D03*
X3434Y1080D02*
D03*
X1612Y492D02*
D03*
X2725D02*
D03*
X2920Y1620D02*
D03*
X1550Y520D02*
D03*
X3370Y1083D02*
D03*
X3270Y1355D02*
D03*
X1637Y1326D02*
D03*
X1574Y1153D02*
D03*
X3515Y1385D02*
D03*
X2054Y1374D02*
D03*
X1996Y863D02*
D03*
X1538Y1425D02*
D03*
X1374Y1195D02*
D03*
X1410Y1340D02*
D03*
X2052Y249D02*
D03*
X2409Y861D02*
D03*
X2925Y2025D02*
D03*
M02*
