%FSLAX23Y23*%
%MOIN*%
G70*
G01*
G75*
%ADD10C,0.010*%
%ADD11C,0.020*%
%ADD12C,0.063*%
%ADD13C,0.059*%
%ADD14R,0.059X0.059*%
%ADD15C,0.065*%
%ADD16C,0.180*%
%ADD17C,0.047*%
%ADD18R,0.047X0.047*%
%ADD19O,0.500X0.400*%
%ADD20C,0.070*%
%ADD21R,0.070X0.070*%
%ADD22C,0.275*%
%ADD23C,0.059*%
%ADD24R,0.059X0.059*%
%ADD25C,0.055*%
%ADD26R,0.053X0.053*%
%ADD27C,0.053*%
%ADD28C,0.025*%
%ADD29C,0.008*%
%ADD30C,0.006*%
D10*
X4237Y2427D02*
G03*
X4123Y2427I-57J0D01*
G01*
X4017D02*
G03*
X3903Y2427I-57J0D01*
G01*
X4507D02*
G03*
X4393Y2427I-57J0D01*
G01*
X3537D02*
G03*
X3423Y2427I-57J0D01*
G01*
X3757D02*
G03*
X3643Y2427I-57J0D01*
G01*
X4237Y2383D02*
Y2427D01*
X4123Y2383D02*
Y2427D01*
X4267Y2131D02*
Y2383D01*
X4093D02*
X4267D01*
X4093Y2131D02*
Y2383D01*
Y2131D02*
X4267D01*
X3873D02*
X4047D01*
X3873D02*
Y2383D01*
X4047D01*
Y2131D02*
Y2383D01*
X3903D02*
Y2427D01*
X4017Y2383D02*
Y2427D01*
X4507Y2383D02*
Y2427D01*
X4393Y2383D02*
Y2427D01*
X4537Y2131D02*
Y2383D01*
X4363D02*
X4537D01*
X4363Y2131D02*
Y2383D01*
Y2131D02*
X4537D01*
X3393D02*
X3567D01*
X3393D02*
Y2383D01*
X3567D01*
Y2131D02*
Y2383D01*
X3423D02*
Y2427D01*
X3537Y2383D02*
Y2427D01*
X3757Y2383D02*
Y2427D01*
X3643Y2383D02*
Y2427D01*
X3787Y2131D02*
Y2383D01*
X3613D02*
X3787D01*
X3613Y2131D02*
Y2383D01*
Y2131D02*
X3787D01*
X5006Y620D02*
Y1094D01*
X4700D02*
X5006D01*
X4700Y620D02*
X5006D01*
X4352D02*
Y1094D01*
Y620D02*
X4500D01*
X4352Y1094D02*
X4500D01*
X380Y900D02*
X660D01*
Y1520D01*
X100Y2100D02*
X660D01*
X100Y900D02*
Y1500D01*
Y900D02*
X380D01*
X100Y1500D02*
Y2100D01*
X660Y1520D02*
Y2100D01*
X500Y420D02*
Y640D01*
Y80D02*
Y180D01*
Y200D01*
X4520D01*
Y80D02*
Y200D01*
X500Y80D02*
X4520D01*
X710Y1860D02*
Y1900D01*
X690Y1880D02*
X730D01*
X710Y1100D02*
Y1140D01*
X2080Y420D02*
X2020D01*
Y450D01*
X2030Y460D01*
X2050D01*
X2060Y450D01*
Y420D01*
Y440D02*
X2080Y460D01*
X2030Y520D02*
X2020Y510D01*
Y490D01*
X2030Y480D01*
X2070D01*
X2080Y490D01*
Y510D01*
X2070Y520D01*
X2080Y540D02*
Y560D01*
Y550D01*
X2020D01*
X2030Y540D01*
X2080Y590D02*
X2040Y630D01*
X2020Y650D02*
Y690D01*
Y670D01*
X2080D01*
Y710D02*
Y730D01*
Y720D01*
X2020D01*
X2030Y710D01*
X2020Y790D02*
Y770D01*
X2030Y760D01*
X2070D01*
X2080Y770D01*
Y790D01*
X2070Y800D01*
X2030D01*
X2020Y790D01*
X2030Y860D02*
X2020Y850D01*
Y830D01*
X2030Y820D01*
X2040D01*
X2050Y830D01*
Y850D01*
X2060Y860D01*
X2070D01*
X2080Y850D01*
Y830D01*
X2070Y820D01*
X2020Y880D02*
Y900D01*
Y890D01*
X2080D01*
Y880D01*
Y900D01*
Y930D02*
X2040Y970D01*
X2030Y1030D02*
X2020Y1020D01*
Y1000D01*
X2030Y990D01*
X2070D01*
X2080Y1000D01*
Y1020D01*
X2070Y1030D01*
X2030Y1090D02*
X2020Y1080D01*
Y1060D01*
X2030Y1050D01*
X2070D01*
X2080Y1060D01*
Y1080D01*
X2070Y1090D01*
X2080Y1110D02*
X2020D01*
Y1140D01*
X2030Y1150D01*
X2050D01*
X2060Y1140D01*
Y1110D01*
X2080Y1210D02*
Y1170D01*
X2040Y1210D01*
X2030D01*
X2020Y1200D01*
Y1180D01*
X2030Y1170D01*
X580Y420D02*
X520D01*
X540Y440D01*
X520Y460D01*
X580D01*
X530Y520D02*
X520Y510D01*
Y490D01*
X530Y480D01*
X570D01*
X580Y490D01*
Y510D01*
X570Y520D01*
X520Y540D02*
X580D01*
Y580D01*
Y600D02*
X520D01*
Y630D01*
X530Y640D01*
X550D01*
X560Y630D01*
Y600D01*
Y620D02*
X580Y640D01*
X680Y420D02*
X620D01*
Y450D01*
X630Y460D01*
X650D01*
X660Y450D01*
Y420D01*
Y440D02*
X680Y460D01*
Y480D02*
X640D01*
X620Y500D01*
X640Y520D01*
X680D01*
X650D01*
Y480D01*
X630Y540D02*
X620Y550D01*
Y570D01*
X630Y580D01*
X670D01*
X680Y570D01*
Y550D01*
X670Y540D01*
X630D01*
X680Y600D02*
X640Y640D01*
X680Y660D02*
X640D01*
X620Y680D01*
X640Y700D01*
X680D01*
X650D01*
Y660D01*
X680Y720D02*
X620D01*
X680Y760D01*
X620D01*
X630Y780D02*
X620Y790D01*
Y810D01*
X630Y820D01*
X670D01*
X680Y810D01*
Y790D01*
X670Y780D01*
X630D01*
X780Y420D02*
X720D01*
Y450D01*
X730Y460D01*
X750D01*
X760Y450D01*
Y420D01*
Y440D02*
X780Y460D01*
Y480D02*
X740D01*
X720Y500D01*
X740Y520D01*
X780D01*
X750D01*
Y480D01*
X780Y540D02*
Y560D01*
Y550D01*
X720D01*
X730Y540D01*
X780Y590D02*
X740Y630D01*
X780Y650D02*
X740D01*
X720Y670D01*
X740Y690D01*
X780D01*
X750D01*
Y650D01*
X780Y710D02*
X720D01*
X780Y750D01*
X720D01*
X780Y770D02*
Y790D01*
Y780D01*
X720D01*
X730Y770D01*
X880Y420D02*
X820D01*
Y450D01*
X830Y460D01*
X850D01*
X860Y450D01*
Y420D01*
Y440D02*
X880Y460D01*
Y480D02*
X840D01*
X820Y500D01*
X840Y520D01*
X880D01*
X850D01*
Y480D01*
X880Y580D02*
Y540D01*
X840Y580D01*
X830D01*
X820Y570D01*
Y550D01*
X830Y540D01*
X880Y600D02*
X840Y640D01*
X880Y660D02*
X840D01*
X820Y680D01*
X840Y700D01*
X880D01*
X850D01*
Y660D01*
X880Y720D02*
X820D01*
X880Y760D01*
X820D01*
X880Y820D02*
Y780D01*
X840Y820D01*
X830D01*
X820Y810D01*
Y790D01*
X830Y780D01*
X980Y420D02*
X920D01*
Y450D01*
X930Y460D01*
X950D01*
X960Y450D01*
Y420D01*
Y440D02*
X980Y460D01*
Y480D02*
X940D01*
X920Y500D01*
X940Y520D01*
X980D01*
X950D01*
Y480D01*
X930Y540D02*
X920Y550D01*
Y570D01*
X930Y580D01*
X940D01*
X950Y570D01*
Y560D01*
Y570D01*
X960Y580D01*
X970D01*
X980Y570D01*
Y550D01*
X970Y540D01*
X980Y600D02*
X940Y640D01*
X980Y660D02*
X940D01*
X920Y680D01*
X940Y700D01*
X980D01*
X950D01*
Y660D01*
X980Y720D02*
X920D01*
X980Y760D01*
X920D01*
X930Y780D02*
X920Y790D01*
Y810D01*
X930Y820D01*
X940D01*
X950Y810D01*
Y800D01*
Y810D01*
X960Y820D01*
X970D01*
X980Y810D01*
Y790D01*
X970Y780D01*
X1080Y420D02*
X1020D01*
Y450D01*
X1030Y460D01*
X1050D01*
X1060Y450D01*
Y420D01*
Y440D02*
X1080Y460D01*
Y480D02*
X1040D01*
X1020Y500D01*
X1040Y520D01*
X1080D01*
X1050D01*
Y480D01*
X1080Y570D02*
X1020D01*
X1050Y540D01*
Y580D01*
X1080Y600D02*
X1040Y640D01*
X1020Y660D02*
Y700D01*
Y680D01*
X1080D01*
X1030Y720D02*
X1020Y730D01*
Y750D01*
X1030Y760D01*
X1070D01*
X1080Y750D01*
Y730D01*
X1070Y720D01*
X1030D01*
Y820D02*
X1020Y810D01*
Y790D01*
X1030Y780D01*
X1070D01*
X1080Y790D01*
Y810D01*
X1070Y820D01*
X1020Y840D02*
X1080D01*
X1060D01*
X1020Y880D01*
X1050Y850D01*
X1080Y880D01*
X1020Y900D02*
Y920D01*
Y910D01*
X1080D01*
Y900D01*
Y920D01*
X1180Y420D02*
X1120D01*
Y450D01*
X1130Y460D01*
X1150D01*
X1160Y450D01*
Y420D01*
Y440D02*
X1180Y460D01*
Y480D02*
X1140D01*
X1120Y500D01*
X1140Y520D01*
X1180D01*
X1150D01*
Y480D01*
X1120Y580D02*
Y540D01*
X1150D01*
X1140Y560D01*
Y570D01*
X1150Y580D01*
X1170D01*
X1180Y570D01*
Y550D01*
X1170Y540D01*
X1180Y600D02*
X1140Y640D01*
X1180Y660D02*
X1140D01*
X1120Y680D01*
X1140Y700D01*
X1180D01*
X1150D01*
Y660D01*
X1180Y720D02*
X1120D01*
X1180Y760D01*
X1120D01*
X1180Y810D02*
X1120D01*
X1150Y780D01*
Y820D01*
X1280Y420D02*
X1220D01*
Y450D01*
X1230Y460D01*
X1250D01*
X1260Y450D01*
Y420D01*
Y440D02*
X1280Y460D01*
X1220Y520D02*
Y480D01*
X1280D01*
Y520D01*
X1250Y480D02*
Y500D01*
X1230Y540D02*
X1220Y550D01*
Y570D01*
X1230Y580D01*
X1270D01*
X1280Y570D01*
Y550D01*
X1270Y540D01*
X1230D01*
X1280Y600D02*
X1240Y640D01*
X1280Y660D02*
X1220D01*
Y690D01*
X1230Y700D01*
X1250D01*
X1260Y690D01*
Y660D01*
Y680D02*
X1280Y700D01*
X1220Y720D02*
X1280D01*
Y750D01*
X1270Y760D01*
X1230D01*
X1220Y750D01*
Y720D01*
X1280Y780D02*
X1240Y820D01*
X1280Y840D02*
X1240D01*
X1220Y860D01*
X1240Y880D01*
X1280D01*
X1250D01*
Y840D01*
X1280Y900D02*
X1220D01*
X1280Y940D01*
X1220D01*
Y1000D02*
Y960D01*
X1250D01*
X1240Y980D01*
Y990D01*
X1250Y1000D01*
X1270D01*
X1280Y990D01*
Y970D01*
X1270Y960D01*
X1380Y420D02*
X1320D01*
Y450D01*
X1330Y460D01*
X1350D01*
X1360Y450D01*
Y420D01*
Y440D02*
X1380Y460D01*
X1320Y520D02*
Y480D01*
X1380D01*
Y520D01*
X1350Y480D02*
Y500D01*
X1380Y540D02*
Y560D01*
Y550D01*
X1320D01*
X1330Y540D01*
X1380Y590D02*
X1340Y630D01*
X1320Y650D02*
X1380D01*
X1360Y670D01*
X1380Y690D01*
X1320D01*
X1380Y710D02*
X1320D01*
Y740D01*
X1330Y750D01*
X1350D01*
X1360Y740D01*
Y710D01*
Y730D02*
X1380Y750D01*
Y770D02*
X1340Y810D01*
X1380Y830D02*
X1340D01*
X1320Y850D01*
X1340Y870D01*
X1380D01*
X1350D01*
Y830D01*
X1380Y890D02*
X1320D01*
X1380Y930D01*
X1320D01*
Y990D02*
X1330Y970D01*
X1350Y950D01*
X1370D01*
X1380Y960D01*
Y980D01*
X1370Y990D01*
X1360D01*
X1350Y980D01*
Y950D01*
X1480Y420D02*
X1420D01*
Y450D01*
X1430Y460D01*
X1450D01*
X1460Y450D01*
Y420D01*
Y440D02*
X1480Y460D01*
X1420Y520D02*
Y480D01*
X1480D01*
Y520D01*
X1450Y480D02*
Y500D01*
X1480Y580D02*
Y540D01*
X1440Y580D01*
X1430D01*
X1420Y570D01*
Y550D01*
X1430Y540D01*
X1480Y600D02*
X1440Y640D01*
X1430Y700D02*
X1420Y690D01*
Y670D01*
X1430Y660D01*
X1470D01*
X1480Y670D01*
Y690D01*
X1470Y700D01*
X1430Y760D02*
X1420Y750D01*
Y730D01*
X1430Y720D01*
X1440D01*
X1450Y730D01*
Y750D01*
X1460Y760D01*
X1470D01*
X1480Y750D01*
Y730D01*
X1470Y720D01*
X1480Y780D02*
X1440Y820D01*
X1480Y840D02*
X1440D01*
X1420Y860D01*
X1440Y880D01*
X1480D01*
X1450D01*
Y840D01*
X1480Y900D02*
X1420D01*
X1480Y940D01*
X1420D01*
Y960D02*
Y1000D01*
X1430D01*
X1470Y960D01*
X1480D01*
X1520Y420D02*
X1560D01*
X1580Y440D01*
X1560Y460D01*
X1520D01*
Y480D02*
X1580D01*
Y510D01*
X1570Y520D01*
X1530D01*
X1520Y510D01*
Y480D01*
Y540D02*
X1580D01*
Y570D01*
X1570Y580D01*
X1530D01*
X1520Y570D01*
Y540D01*
X1620Y420D02*
X1660D01*
X1680Y440D01*
X1660Y460D01*
X1620D01*
X1630Y520D02*
X1620Y510D01*
Y490D01*
X1630Y480D01*
X1640D01*
X1650Y490D01*
Y510D01*
X1660Y520D01*
X1670D01*
X1680Y510D01*
Y490D01*
X1670Y480D01*
X1630Y580D02*
X1620Y570D01*
Y550D01*
X1630Y540D01*
X1640D01*
X1650Y550D01*
Y570D01*
X1660Y580D01*
X1670D01*
X1680Y570D01*
Y550D01*
X1670Y540D01*
X1980Y420D02*
X1920D01*
Y450D01*
X1930Y460D01*
X1950D01*
X1960Y450D01*
Y420D01*
Y440D02*
X1980Y460D01*
X1930Y520D02*
X1920Y510D01*
Y490D01*
X1930Y480D01*
X1970D01*
X1980Y490D01*
Y510D01*
X1970Y520D01*
X1930Y540D02*
X1920Y550D01*
Y570D01*
X1930Y580D01*
X1970D01*
X1980Y570D01*
Y550D01*
X1970Y540D01*
X1930D01*
X1980Y600D02*
X1940Y640D01*
X1920Y660D02*
Y700D01*
Y680D01*
X1980D01*
Y720D02*
Y740D01*
Y730D01*
X1920D01*
X1930Y720D01*
X1920Y800D02*
Y780D01*
X1930Y770D01*
X1970D01*
X1980Y780D01*
Y800D01*
X1970Y810D01*
X1930D01*
X1920Y800D01*
X1930Y870D02*
X1920Y860D01*
Y840D01*
X1930Y830D01*
X1940D01*
X1950Y840D01*
Y860D01*
X1960Y870D01*
X1970D01*
X1980Y860D01*
Y840D01*
X1970Y830D01*
X1920Y920D02*
Y900D01*
X1930Y890D01*
X1970D01*
X1980Y900D01*
Y920D01*
X1970Y930D01*
X1930D01*
X1920Y920D01*
X1980Y950D02*
X1940Y990D01*
X1920Y1010D02*
Y1050D01*
Y1030D01*
X1980D01*
Y1070D02*
Y1090D01*
Y1080D01*
X1920D01*
X1930Y1070D01*
Y1160D02*
X1920Y1150D01*
Y1130D01*
X1930Y1120D01*
X1970D01*
X1980Y1130D01*
Y1150D01*
X1970Y1160D01*
X1920Y1180D02*
X1980D01*
X1960D01*
X1920Y1220D01*
X1950Y1190D01*
X1980Y1220D01*
X1920Y1240D02*
Y1260D01*
Y1250D01*
X1980D01*
Y1240D01*
Y1260D01*
X2180Y420D02*
X2120D01*
Y450D01*
X2130Y460D01*
X2150D01*
X2160Y450D01*
Y420D01*
Y440D02*
X2180Y460D01*
X2130Y520D02*
X2120Y510D01*
Y490D01*
X2130Y480D01*
X2170D01*
X2180Y490D01*
Y510D01*
X2170Y520D01*
X2180Y580D02*
Y540D01*
X2140Y580D01*
X2130D01*
X2120Y570D01*
Y550D01*
X2130Y540D01*
X2180Y600D02*
X2140Y640D01*
X2130Y700D02*
X2120Y690D01*
Y670D01*
X2130Y660D01*
X2170D01*
X2180Y670D01*
Y690D01*
X2170Y700D01*
X2130Y760D02*
X2120Y750D01*
Y730D01*
X2130Y720D01*
X2170D01*
X2180Y730D01*
Y750D01*
X2170Y760D01*
X2180Y780D02*
X2120D01*
Y810D01*
X2130Y820D01*
X2150D01*
X2160Y810D01*
Y780D01*
X2180Y840D02*
Y860D01*
Y850D01*
X2120D01*
X2130Y840D01*
X2380Y420D02*
X2320D01*
Y450D01*
X2330Y460D01*
X2350D01*
X2360Y450D01*
Y420D01*
Y440D02*
X2380Y460D01*
X2320Y480D02*
X2380D01*
Y510D01*
X2370Y520D01*
X2330D01*
X2320Y510D01*
Y480D01*
X2330Y540D02*
X2320Y550D01*
Y570D01*
X2330Y580D01*
X2370D01*
X2380Y570D01*
Y550D01*
X2370Y540D01*
X2330D01*
X2380Y600D02*
X2340Y640D01*
X2380Y660D02*
X2320D01*
Y690D01*
X2330Y700D01*
X2350D01*
X2360Y690D01*
Y660D01*
X2330Y760D02*
X2320Y750D01*
Y730D01*
X2330Y720D01*
X2340D01*
X2350Y730D01*
Y750D01*
X2360Y760D01*
X2370D01*
X2380Y750D01*
Y730D01*
X2370Y720D01*
X2380Y780D02*
X2320D01*
Y810D01*
X2330Y820D01*
X2350D01*
X2360Y810D01*
Y780D01*
X2330Y840D02*
X2320Y850D01*
Y870D01*
X2330Y880D01*
X2370D01*
X2380Y870D01*
Y850D01*
X2370Y840D01*
X2330D01*
X2480Y420D02*
X2420D01*
Y450D01*
X2430Y460D01*
X2450D01*
X2460Y450D01*
Y420D01*
Y440D02*
X2480Y460D01*
X2420Y480D02*
X2480D01*
Y510D01*
X2470Y520D01*
X2430D01*
X2420Y510D01*
Y480D01*
X2480Y540D02*
Y560D01*
Y550D01*
X2420D01*
X2430Y540D01*
X2480Y590D02*
X2440Y630D01*
X2480Y650D02*
X2420D01*
Y680D01*
X2430Y690D01*
X2450D01*
X2460Y680D01*
Y650D01*
X2430Y750D02*
X2420Y740D01*
Y720D01*
X2430Y710D01*
X2440D01*
X2450Y720D01*
Y740D01*
X2460Y750D01*
X2470D01*
X2480Y740D01*
Y720D01*
X2470Y710D01*
X2480Y770D02*
X2420D01*
Y800D01*
X2430Y810D01*
X2450D01*
X2460Y800D01*
Y770D01*
X2480Y830D02*
Y850D01*
Y840D01*
X2420D01*
X2430Y830D01*
X2580Y420D02*
X2520D01*
Y450D01*
X2530Y460D01*
X2550D01*
X2560Y450D01*
Y420D01*
Y440D02*
X2580Y460D01*
X2520Y480D02*
X2580D01*
Y510D01*
X2570Y520D01*
X2530D01*
X2520Y510D01*
Y480D01*
X2580Y580D02*
Y540D01*
X2540Y580D01*
X2530D01*
X2520Y570D01*
Y550D01*
X2530Y540D01*
X2580Y600D02*
X2540Y640D01*
X2580Y660D02*
X2520D01*
Y690D01*
X2530Y700D01*
X2550D01*
X2560Y690D01*
Y660D01*
X2530Y760D02*
X2520Y750D01*
Y730D01*
X2530Y720D01*
X2540D01*
X2550Y730D01*
Y750D01*
X2560Y760D01*
X2570D01*
X2580Y750D01*
Y730D01*
X2570Y720D01*
X2580Y780D02*
X2520D01*
Y810D01*
X2530Y820D01*
X2550D01*
X2560Y810D01*
Y780D01*
X2580Y880D02*
Y840D01*
X2540Y880D01*
X2530D01*
X2520Y870D01*
Y850D01*
X2530Y840D01*
X2680Y420D02*
X2620D01*
Y450D01*
X2630Y460D01*
X2650D01*
X2660Y450D01*
Y420D01*
Y440D02*
X2680Y460D01*
X2620Y480D02*
X2680D01*
Y510D01*
X2670Y520D01*
X2630D01*
X2620Y510D01*
Y480D01*
X2630Y540D02*
X2620Y550D01*
Y570D01*
X2630Y580D01*
X2640D01*
X2650Y570D01*
Y560D01*
Y570D01*
X2660Y580D01*
X2670D01*
X2680Y570D01*
Y550D01*
X2670Y540D01*
X2680Y600D02*
X2640Y640D01*
X2680Y660D02*
X2620D01*
Y690D01*
X2630Y700D01*
X2650D01*
X2660Y690D01*
Y660D01*
X2630Y760D02*
X2620Y750D01*
Y730D01*
X2630Y720D01*
X2640D01*
X2650Y730D01*
Y750D01*
X2660Y760D01*
X2670D01*
X2680Y750D01*
Y730D01*
X2670Y720D01*
X2680Y780D02*
X2620D01*
Y810D01*
X2630Y820D01*
X2650D01*
X2660Y810D01*
Y780D01*
X2630Y840D02*
X2620Y850D01*
Y870D01*
X2630Y880D01*
X2640D01*
X2650Y870D01*
Y860D01*
Y870D01*
X2660Y880D01*
X2670D01*
X2680Y870D01*
Y850D01*
X2670Y840D01*
X2980Y420D02*
X2920D01*
Y450D01*
X2930Y460D01*
X2950D01*
X2960Y450D01*
Y420D01*
Y440D02*
X2980Y460D01*
X2930Y520D02*
X2920Y510D01*
Y490D01*
X2930Y480D01*
X2970D01*
X2980Y490D01*
Y510D01*
X2970Y520D01*
X2920Y580D02*
X2930Y560D01*
X2950Y540D01*
X2970D01*
X2980Y550D01*
Y570D01*
X2970Y580D01*
X2960D01*
X2950Y570D01*
Y540D01*
X2980Y600D02*
X2940Y640D01*
X2920Y660D02*
Y700D01*
Y680D01*
X2980D01*
X2920Y720D02*
X2980Y760D01*
X2920D02*
X2980Y720D01*
Y780D02*
X2940Y820D01*
X2930Y880D02*
X2920Y870D01*
Y850D01*
X2930Y840D01*
X2970D01*
X2980Y850D01*
Y870D01*
X2970Y880D01*
X2920Y900D02*
X2980D01*
X2960D01*
X2920Y940D01*
X2950Y910D01*
X2980Y940D01*
X3080Y420D02*
X3020D01*
Y450D01*
X3030Y460D01*
X3050D01*
X3060Y450D01*
Y420D01*
Y440D02*
X3080Y460D01*
X3030Y520D02*
X3020Y510D01*
Y490D01*
X3030Y480D01*
X3070D01*
X3080Y490D01*
Y510D01*
X3070Y520D01*
X3020Y540D02*
Y580D01*
X3030D01*
X3070Y540D01*
X3080D01*
Y600D02*
X3040Y640D01*
X3080Y660D02*
X3020D01*
Y690D01*
X3030Y700D01*
X3050D01*
X3060Y690D01*
Y660D01*
Y680D02*
X3080Y700D01*
X3020Y720D02*
X3080Y760D01*
X3020D02*
X3080Y720D01*
Y780D02*
X3040Y820D01*
X3020Y840D02*
X3080D01*
Y870D01*
X3070Y880D01*
X3030D01*
X3020Y870D01*
Y840D01*
Y900D02*
Y940D01*
Y920D01*
X3080D01*
X3180Y420D02*
X3120D01*
Y450D01*
X3130Y460D01*
X3150D01*
X3160Y450D01*
Y420D01*
Y440D02*
X3180Y460D01*
X3120Y480D02*
X3180D01*
Y510D01*
X3170Y520D01*
X3130D01*
X3120Y510D01*
Y480D01*
X3180Y570D02*
X3120D01*
X3150Y540D01*
Y580D01*
X3180Y600D02*
X3140Y640D01*
X3180Y660D02*
X3120D01*
Y690D01*
X3130Y700D01*
X3150D01*
X3160Y690D01*
Y660D01*
X3130Y760D02*
X3120Y750D01*
Y730D01*
X3130Y720D01*
X3140D01*
X3150Y730D01*
Y750D01*
X3160Y760D01*
X3170D01*
X3180Y750D01*
Y730D01*
X3170Y720D01*
X3180Y780D02*
X3120D01*
Y810D01*
X3130Y820D01*
X3150D01*
X3160Y810D01*
Y780D01*
X3180Y870D02*
X3120D01*
X3150Y840D01*
Y880D01*
X3280Y420D02*
X3220D01*
Y450D01*
X3230Y460D01*
X3250D01*
X3260Y450D01*
Y420D01*
Y440D02*
X3280Y460D01*
X3220Y480D02*
X3280D01*
Y510D01*
X3270Y520D01*
X3230D01*
X3220Y510D01*
Y480D01*
Y580D02*
Y540D01*
X3250D01*
X3240Y560D01*
Y570D01*
X3250Y580D01*
X3270D01*
X3280Y570D01*
Y550D01*
X3270Y540D01*
X3280Y600D02*
X3240Y640D01*
X3280Y660D02*
X3220D01*
Y690D01*
X3230Y700D01*
X3250D01*
X3260Y690D01*
Y660D01*
X3230Y760D02*
X3220Y750D01*
Y730D01*
X3230Y720D01*
X3240D01*
X3250Y730D01*
Y750D01*
X3260Y760D01*
X3270D01*
X3280Y750D01*
Y730D01*
X3270Y720D01*
X3280Y780D02*
X3220D01*
Y810D01*
X3230Y820D01*
X3250D01*
X3260Y810D01*
Y780D01*
X3220Y880D02*
Y840D01*
X3250D01*
X3240Y860D01*
Y870D01*
X3250Y880D01*
X3270D01*
X3280Y870D01*
Y850D01*
X3270Y840D01*
X3380Y420D02*
X3320D01*
Y450D01*
X3330Y460D01*
X3350D01*
X3360Y450D01*
Y420D01*
Y440D02*
X3380Y460D01*
X3320Y480D02*
X3380D01*
Y510D01*
X3370Y520D01*
X3330D01*
X3320Y510D01*
Y480D01*
Y580D02*
X3330Y560D01*
X3350Y540D01*
X3370D01*
X3380Y550D01*
Y570D01*
X3370Y580D01*
X3360D01*
X3350Y570D01*
Y540D01*
X3380Y600D02*
X3340Y640D01*
X3380Y660D02*
X3320D01*
Y690D01*
X3330Y700D01*
X3350D01*
X3360Y690D01*
Y660D01*
X3330Y760D02*
X3320Y750D01*
Y730D01*
X3330Y720D01*
X3340D01*
X3350Y730D01*
Y750D01*
X3360Y760D01*
X3370D01*
X3380Y750D01*
Y730D01*
X3370Y720D01*
X3380Y780D02*
X3320D01*
Y810D01*
X3330Y820D01*
X3350D01*
X3360Y810D01*
Y780D01*
X3320Y880D02*
X3330Y860D01*
X3350Y840D01*
X3370D01*
X3380Y850D01*
Y870D01*
X3370Y880D01*
X3360D01*
X3350Y870D01*
Y840D01*
X3480Y420D02*
X3420D01*
Y450D01*
X3430Y460D01*
X3450D01*
X3460Y450D01*
Y420D01*
Y440D02*
X3480Y460D01*
X3420Y480D02*
X3480D01*
Y510D01*
X3470Y520D01*
X3430D01*
X3420Y510D01*
Y480D01*
Y540D02*
Y580D01*
X3430D01*
X3470Y540D01*
X3480D01*
Y600D02*
X3440Y640D01*
X3480Y660D02*
X3420D01*
Y690D01*
X3430Y700D01*
X3450D01*
X3460Y690D01*
Y660D01*
X3430Y760D02*
X3420Y750D01*
Y730D01*
X3430Y720D01*
X3440D01*
X3450Y730D01*
Y750D01*
X3460Y760D01*
X3470D01*
X3480Y750D01*
Y730D01*
X3470Y720D01*
X3480Y780D02*
X3420D01*
Y810D01*
X3430Y820D01*
X3450D01*
X3460Y810D01*
Y780D01*
X3420Y840D02*
Y880D01*
X3430D01*
X3470Y840D01*
X3480D01*
X3520Y420D02*
X3560D01*
X3580Y440D01*
X3560Y460D01*
X3520D01*
X3530Y520D02*
X3520Y510D01*
Y490D01*
X3530Y480D01*
X3540D01*
X3550Y490D01*
Y510D01*
X3560Y520D01*
X3570D01*
X3580Y510D01*
Y490D01*
X3570Y480D01*
X3530Y580D02*
X3520Y570D01*
Y550D01*
X3530Y540D01*
X3540D01*
X3550Y550D01*
Y570D01*
X3560Y580D01*
X3570D01*
X3580Y570D01*
Y550D01*
X3570Y540D01*
X3620Y420D02*
X3660D01*
X3680Y440D01*
X3660Y460D01*
X3620D01*
Y480D02*
X3680D01*
Y510D01*
X3670Y520D01*
X3630D01*
X3620Y510D01*
Y480D01*
Y540D02*
X3680D01*
Y570D01*
X3670Y580D01*
X3630D01*
X3620Y570D01*
Y540D01*
X3780Y420D02*
X3720D01*
Y450D01*
X3730Y460D01*
X3750D01*
X3760Y450D01*
Y420D01*
Y440D02*
X3780Y460D01*
X3720Y480D02*
X3780D01*
Y510D01*
X3770Y520D01*
X3760D01*
X3750Y510D01*
Y480D01*
Y510D01*
X3740Y520D01*
X3730D01*
X3720Y510D01*
Y480D01*
X3730Y540D02*
X3720Y550D01*
Y570D01*
X3730Y580D01*
X3770D01*
X3780Y570D01*
Y550D01*
X3770Y540D01*
X3730D01*
X3780Y600D02*
X3740Y640D01*
X3720Y660D02*
Y680D01*
Y670D01*
X3780D01*
Y660D01*
Y680D01*
Y710D02*
X3720D01*
X3780Y750D01*
X3720D01*
Y770D02*
Y810D01*
Y790D01*
X3780D01*
X3880Y420D02*
X3820D01*
Y450D01*
X3830Y460D01*
X3850D01*
X3860Y450D01*
Y420D01*
Y440D02*
X3880Y460D01*
X3820Y480D02*
X3880D01*
Y510D01*
X3870Y520D01*
X3860D01*
X3850Y510D01*
Y480D01*
Y510D01*
X3840Y520D01*
X3830D01*
X3820Y510D01*
Y480D01*
X3880Y540D02*
Y560D01*
Y550D01*
X3820D01*
X3830Y540D01*
X3980Y420D02*
X3920D01*
Y450D01*
X3930Y460D01*
X3950D01*
X3960Y450D01*
Y420D01*
Y440D02*
X3980Y460D01*
X3920Y480D02*
X3980D01*
Y510D01*
X3970Y520D01*
X3960D01*
X3950Y510D01*
Y480D01*
Y510D01*
X3940Y520D01*
X3930D01*
X3920Y510D01*
Y480D01*
X3980Y580D02*
Y540D01*
X3940Y580D01*
X3930D01*
X3920Y570D01*
Y550D01*
X3930Y540D01*
X4180Y420D02*
X4120D01*
Y450D01*
X4130Y460D01*
X4150D01*
X4160Y450D01*
Y420D01*
Y440D02*
X4180Y460D01*
X4120Y480D02*
X4180D01*
Y510D01*
X4170Y520D01*
X4160D01*
X4150Y510D01*
Y480D01*
Y510D01*
X4140Y520D01*
X4130D01*
X4120Y510D01*
Y480D01*
X4180Y570D02*
X4120D01*
X4150Y540D01*
Y580D01*
X4280Y420D02*
X4220D01*
Y450D01*
X4230Y460D01*
X4250D01*
X4260Y450D01*
Y420D01*
Y440D02*
X4280Y460D01*
X4220Y480D02*
X4280D01*
Y510D01*
X4270Y520D01*
X4260D01*
X4250Y510D01*
Y480D01*
Y510D01*
X4240Y520D01*
X4230D01*
X4220Y510D01*
Y480D01*
Y580D02*
Y540D01*
X4250D01*
X4240Y560D01*
Y570D01*
X4250Y580D01*
X4270D01*
X4280Y570D01*
Y550D01*
X4270Y540D01*
X4380Y420D02*
X4320D01*
Y450D01*
X4330Y460D01*
X4350D01*
X4360Y450D01*
Y420D01*
Y440D02*
X4380Y460D01*
X4320Y480D02*
X4380D01*
Y510D01*
X4370Y520D01*
X4360D01*
X4350Y510D01*
Y480D01*
Y510D01*
X4340Y520D01*
X4330D01*
X4320Y510D01*
Y480D01*
Y580D02*
X4330Y560D01*
X4350Y540D01*
X4370D01*
X4380Y550D01*
Y570D01*
X4370Y580D01*
X4360D01*
X4350Y570D01*
Y540D01*
X4480Y420D02*
X4420D01*
Y450D01*
X4430Y460D01*
X4450D01*
X4460Y450D01*
Y420D01*
Y440D02*
X4480Y460D01*
X4420Y480D02*
X4480D01*
Y510D01*
X4470Y520D01*
X4460D01*
X4450Y510D01*
Y480D01*
Y510D01*
X4440Y520D01*
X4430D01*
X4420Y510D01*
Y480D01*
Y540D02*
Y580D01*
X4430D01*
X4470Y540D01*
X4480D01*
X4080Y420D02*
X4020D01*
Y450D01*
X4030Y460D01*
X4050D01*
X4060Y450D01*
Y420D01*
Y440D02*
X4080Y460D01*
X4020Y480D02*
X4080D01*
Y510D01*
X4070Y520D01*
X4060D01*
X4050Y510D01*
Y480D01*
Y510D01*
X4040Y520D01*
X4030D01*
X4020Y510D01*
Y480D01*
X4030Y540D02*
X4020Y550D01*
Y570D01*
X4030Y580D01*
X4040D01*
X4050Y570D01*
Y560D01*
Y570D01*
X4060Y580D01*
X4070D01*
X4080Y570D01*
Y550D01*
X4070Y540D01*
X580Y260D02*
Y280D01*
Y270D01*
X520D01*
X530Y260D01*
X680Y300D02*
Y260D01*
X640Y300D01*
X630D01*
X620Y290D01*
Y270D01*
X630Y260D01*
X730D02*
X720Y270D01*
Y290D01*
X730Y300D01*
X740D01*
X750Y290D01*
Y280D01*
Y290D01*
X760Y300D01*
X770D01*
X780Y290D01*
Y270D01*
X770Y260D01*
X880Y290D02*
X820D01*
X850Y260D01*
Y300D01*
X920D02*
Y260D01*
X950D01*
X940Y280D01*
Y290D01*
X950Y300D01*
X970D01*
X980Y290D01*
Y270D01*
X970Y260D01*
X1020Y300D02*
X1030Y280D01*
X1050Y260D01*
X1070D01*
X1080Y270D01*
Y290D01*
X1070Y300D01*
X1060D01*
X1050Y290D01*
Y260D01*
X1120D02*
Y300D01*
X1130D01*
X1170Y260D01*
X1180D01*
X1230D02*
X1220Y270D01*
Y290D01*
X1230Y300D01*
X1240D01*
X1250Y290D01*
X1260Y300D01*
X1270D01*
X1280Y290D01*
Y270D01*
X1270Y260D01*
X1260D01*
X1250Y270D01*
X1240Y260D01*
X1230D01*
X1250Y270D02*
Y290D01*
X1370Y260D02*
X1380Y270D01*
Y290D01*
X1370Y300D01*
X1330D01*
X1320Y290D01*
Y270D01*
X1330Y260D01*
X1340D01*
X1350Y270D01*
Y300D01*
X1480Y260D02*
Y280D01*
Y270D01*
X1420D01*
X1430Y260D01*
Y310D02*
X1420Y320D01*
Y340D01*
X1430Y350D01*
X1470D01*
X1480Y340D01*
Y320D01*
X1470Y310D01*
X1430D01*
X1580Y260D02*
Y280D01*
Y270D01*
X1520D01*
X1530Y260D01*
X1580Y310D02*
Y330D01*
Y320D01*
X1520D01*
X1530Y310D01*
X1680Y260D02*
Y280D01*
Y270D01*
X1620D01*
X1630Y260D01*
X1680Y350D02*
Y310D01*
X1640Y350D01*
X1630D01*
X1620Y340D01*
Y320D01*
X1630Y310D01*
X2080Y260D02*
Y280D01*
Y270D01*
X2020D01*
X2030Y260D01*
X2020Y350D02*
X2030Y330D01*
X2050Y310D01*
X2070D01*
X2080Y320D01*
Y340D01*
X2070Y350D01*
X2060D01*
X2050Y340D01*
Y310D01*
X1980Y260D02*
Y280D01*
Y270D01*
X1920D01*
X1930Y260D01*
X1920Y350D02*
Y310D01*
X1950D01*
X1940Y330D01*
Y340D01*
X1950Y350D01*
X1970D01*
X1980Y340D01*
Y320D01*
X1970Y310D01*
X2180Y260D02*
Y280D01*
Y270D01*
X2120D01*
X2130Y260D01*
X2120Y310D02*
Y350D01*
X2130D01*
X2170Y310D01*
X2180D01*
X2380Y260D02*
Y280D01*
Y270D01*
X2320D01*
X2330Y260D01*
X2370Y310D02*
X2380Y320D01*
Y340D01*
X2370Y350D01*
X2330D01*
X2320Y340D01*
Y320D01*
X2330Y310D01*
X2340D01*
X2350Y320D01*
Y350D01*
X2480Y300D02*
Y260D01*
X2440Y300D01*
X2430D01*
X2420Y290D01*
Y270D01*
X2430Y260D01*
Y320D02*
X2420Y330D01*
Y350D01*
X2430Y360D01*
X2470D01*
X2480Y350D01*
Y330D01*
X2470Y320D01*
X2430D01*
X2580Y300D02*
Y260D01*
X2540Y300D01*
X2530D01*
X2520Y290D01*
Y270D01*
X2530Y260D01*
X2580Y320D02*
Y340D01*
Y330D01*
X2520D01*
X2530Y320D01*
X2680Y300D02*
Y260D01*
X2640Y300D01*
X2630D01*
X2620Y290D01*
Y270D01*
X2630Y260D01*
X2680Y360D02*
Y320D01*
X2640Y360D01*
X2630D01*
X2620Y350D01*
Y330D01*
X2630Y320D01*
X2980Y300D02*
Y260D01*
X2940Y300D01*
X2930D01*
X2920Y290D01*
Y270D01*
X2930Y260D01*
X2920Y360D02*
Y320D01*
X2950D01*
X2940Y340D01*
Y350D01*
X2950Y360D01*
X2970D01*
X2980Y350D01*
Y330D01*
X2970Y320D01*
X3080Y300D02*
Y260D01*
X3040Y300D01*
X3030D01*
X3020Y290D01*
Y270D01*
X3030Y260D01*
X3020Y360D02*
X3030Y340D01*
X3050Y320D01*
X3070D01*
X3080Y330D01*
Y350D01*
X3070Y360D01*
X3060D01*
X3050Y350D01*
Y320D01*
X3180Y300D02*
Y260D01*
X3140Y300D01*
X3130D01*
X3120Y290D01*
Y270D01*
X3130Y260D01*
X3120Y320D02*
Y360D01*
X3130D01*
X3170Y320D01*
X3180D01*
X3280Y300D02*
Y260D01*
X3240Y300D01*
X3230D01*
X3220Y290D01*
Y270D01*
X3230Y260D01*
Y320D02*
X3220Y330D01*
Y350D01*
X3230Y360D01*
X3240D01*
X3250Y350D01*
X3260Y360D01*
X3270D01*
X3280Y350D01*
Y330D01*
X3270Y320D01*
X3260D01*
X3250Y330D01*
X3240Y320D01*
X3230D01*
X3250Y330D02*
Y350D01*
X3380Y300D02*
Y260D01*
X3340Y300D01*
X3330D01*
X3320Y290D01*
Y270D01*
X3330Y260D01*
X3370Y320D02*
X3380Y330D01*
Y350D01*
X3370Y360D01*
X3330D01*
X3320Y350D01*
Y330D01*
X3330Y320D01*
X3340D01*
X3350Y330D01*
Y360D01*
X3430Y260D02*
X3420Y270D01*
Y290D01*
X3430Y300D01*
X3440D01*
X3450Y290D01*
Y280D01*
Y290D01*
X3460Y300D01*
X3470D01*
X3480Y290D01*
Y270D01*
X3470Y260D01*
X3430Y320D02*
X3420Y330D01*
Y350D01*
X3430Y360D01*
X3470D01*
X3480Y350D01*
Y330D01*
X3470Y320D01*
X3430D01*
X3530Y260D02*
X3520Y270D01*
Y290D01*
X3530Y300D01*
X3540D01*
X3550Y290D01*
Y280D01*
Y290D01*
X3560Y300D01*
X3570D01*
X3580Y290D01*
Y270D01*
X3570Y260D01*
X3580Y320D02*
Y340D01*
Y330D01*
X3520D01*
X3530Y320D01*
X3630Y260D02*
X3620Y270D01*
Y290D01*
X3630Y300D01*
X3640D01*
X3650Y290D01*
Y280D01*
Y290D01*
X3660Y300D01*
X3670D01*
X3680Y290D01*
Y270D01*
X3670Y260D01*
X3680Y360D02*
Y320D01*
X3640Y360D01*
X3630D01*
X3620Y350D01*
Y330D01*
X3630Y320D01*
X3730Y260D02*
X3720Y270D01*
Y290D01*
X3730Y300D01*
X3740D01*
X3750Y290D01*
Y280D01*
Y290D01*
X3760Y300D01*
X3770D01*
X3780Y290D01*
Y270D01*
X3770Y260D01*
X3730Y320D02*
X3720Y330D01*
Y350D01*
X3730Y360D01*
X3740D01*
X3750Y350D01*
Y340D01*
Y350D01*
X3760Y360D01*
X3770D01*
X3780Y350D01*
Y330D01*
X3770Y320D01*
X3830Y260D02*
X3820Y270D01*
Y290D01*
X3830Y300D01*
X3840D01*
X3850Y290D01*
Y280D01*
Y290D01*
X3860Y300D01*
X3870D01*
X3880Y290D01*
Y270D01*
X3870Y260D01*
X3880Y350D02*
X3820D01*
X3850Y320D01*
Y360D01*
X3930Y260D02*
X3920Y270D01*
Y290D01*
X3930Y300D01*
X3940D01*
X3950Y290D01*
Y280D01*
Y290D01*
X3960Y300D01*
X3970D01*
X3980Y290D01*
Y270D01*
X3970Y260D01*
X3920Y360D02*
Y320D01*
X3950D01*
X3940Y340D01*
Y350D01*
X3950Y360D01*
X3970D01*
X3980Y350D01*
Y330D01*
X3970Y320D01*
X4130Y260D02*
X4120Y270D01*
Y290D01*
X4130Y300D01*
X4140D01*
X4150Y290D01*
Y280D01*
Y290D01*
X4160Y300D01*
X4170D01*
X4180Y290D01*
Y270D01*
X4170Y260D01*
X4120Y320D02*
Y360D01*
X4130D01*
X4170Y320D01*
X4180D01*
X4230Y260D02*
X4220Y270D01*
Y290D01*
X4230Y300D01*
X4240D01*
X4250Y290D01*
Y280D01*
Y290D01*
X4260Y300D01*
X4270D01*
X4280Y290D01*
Y270D01*
X4270Y260D01*
X4230Y320D02*
X4220Y330D01*
Y350D01*
X4230Y360D01*
X4240D01*
X4250Y350D01*
X4260Y360D01*
X4270D01*
X4280Y350D01*
Y330D01*
X4270Y320D01*
X4260D01*
X4250Y330D01*
X4240Y320D01*
X4230D01*
X4250Y330D02*
Y350D01*
X4330Y260D02*
X4320Y270D01*
Y290D01*
X4330Y300D01*
X4340D01*
X4350Y290D01*
Y280D01*
Y290D01*
X4360Y300D01*
X4370D01*
X4380Y290D01*
Y270D01*
X4370Y260D01*
Y320D02*
X4380Y330D01*
Y350D01*
X4370Y360D01*
X4330D01*
X4320Y350D01*
Y330D01*
X4330Y320D01*
X4340D01*
X4350Y330D01*
Y360D01*
X4480Y290D02*
X4420D01*
X4450Y260D01*
Y300D01*
X4430Y320D02*
X4420Y330D01*
Y350D01*
X4430Y360D01*
X4470D01*
X4480Y350D01*
Y330D01*
X4470Y320D01*
X4430D01*
X4030Y260D02*
X4020Y270D01*
Y290D01*
X4030Y300D01*
X4040D01*
X4050Y290D01*
Y280D01*
Y290D01*
X4060Y300D01*
X4070D01*
X4080Y290D01*
Y270D01*
X4070Y260D01*
X4020Y360D02*
X4030Y340D01*
X4050Y320D01*
X4070D01*
X4080Y330D01*
Y350D01*
X4070Y360D01*
X4060D01*
X4050Y350D01*
Y320D01*
X1780Y260D02*
X1720D01*
Y290D01*
X1730Y300D01*
X1750D01*
X1760Y290D01*
Y260D01*
Y280D02*
X1780Y300D01*
X1730Y360D02*
X1720Y350D01*
Y330D01*
X1730Y320D01*
X1740D01*
X1750Y330D01*
Y350D01*
X1760Y360D01*
X1770D01*
X1780Y350D01*
Y330D01*
X1770Y320D01*
X1750Y380D02*
Y420D01*
X1780Y470D02*
X1720D01*
X1750Y440D01*
Y480D01*
X1730Y500D02*
X1720Y510D01*
Y530D01*
X1730Y540D01*
X1740D01*
X1750Y530D01*
X1760Y540D01*
X1770D01*
X1780Y530D01*
Y510D01*
X1770Y500D01*
X1760D01*
X1750Y510D01*
X1740Y500D01*
X1730D01*
X1750Y510D02*
Y530D01*
X1720Y600D02*
Y560D01*
X1750D01*
X1740Y580D01*
Y590D01*
X1750Y600D01*
X1770D01*
X1780Y590D01*
Y570D01*
X1770Y560D01*
X1750Y680D02*
Y720D01*
X1730Y700D02*
X1770D01*
X1880Y260D02*
X1820D01*
Y290D01*
X1830Y300D01*
X1850D01*
X1860Y290D01*
Y260D01*
Y280D02*
X1880Y300D01*
X1830Y360D02*
X1820Y350D01*
Y330D01*
X1830Y320D01*
X1840D01*
X1850Y330D01*
Y350D01*
X1860Y360D01*
X1870D01*
X1880Y350D01*
Y330D01*
X1870Y320D01*
X1850Y380D02*
Y420D01*
X1880Y470D02*
X1820D01*
X1850Y440D01*
Y480D01*
X1830Y500D02*
X1820Y510D01*
Y530D01*
X1830Y540D01*
X1840D01*
X1850Y530D01*
X1860Y540D01*
X1870D01*
X1880Y530D01*
Y510D01*
X1870Y500D01*
X1860D01*
X1850Y510D01*
X1840Y500D01*
X1830D01*
X1850Y510D02*
Y530D01*
X1820Y600D02*
Y560D01*
X1850D01*
X1840Y580D01*
Y590D01*
X1850Y600D01*
X1870D01*
X1880Y590D01*
Y570D01*
X1870Y560D01*
X1850Y680D02*
Y720D01*
X4625Y2130D02*
X4565D01*
Y2160D01*
X4575Y2170D01*
X4595D01*
X4605Y2160D01*
Y2130D01*
X4625Y2200D02*
Y2220D01*
X4615Y2230D01*
X4595D01*
X4585Y2220D01*
Y2200D01*
X4595Y2190D01*
X4615D01*
X4625Y2200D01*
X4585Y2250D02*
X4615D01*
X4625Y2260D01*
X4615Y2270D01*
X4625Y2280D01*
X4615Y2290D01*
X4585D01*
X4625Y2340D02*
Y2320D01*
X4615Y2310D01*
X4595D01*
X4585Y2320D01*
Y2340D01*
X4595Y2350D01*
X4605D01*
Y2310D01*
X4585Y2370D02*
X4625D01*
X4605D01*
X4595Y2380D01*
X4585Y2390D01*
Y2400D01*
X4140Y1895D02*
X4200D01*
Y1935D01*
X4140Y1995D02*
Y1955D01*
X4200D01*
Y1995D01*
X4170Y1955D02*
Y1975D01*
X4140Y2015D02*
X4200D01*
Y2045D01*
X4190Y2055D01*
X4150D01*
X4140Y2045D01*
Y2015D01*
X4200Y2075D02*
Y2095D01*
Y2085D01*
X4140D01*
X4150Y2075D01*
X3925Y1875D02*
X3985D01*
Y1915D01*
X3925Y1975D02*
Y1935D01*
X3985D01*
Y1975D01*
X3955Y1935D02*
Y1955D01*
X3925Y1995D02*
X3985D01*
Y2025D01*
X3975Y2035D01*
X3935D01*
X3925Y2025D01*
Y1995D01*
X3985Y2095D02*
Y2055D01*
X3945Y2095D01*
X3935D01*
X3925Y2085D01*
Y2065D01*
X3935Y2055D01*
X3520Y1780D02*
X3460D01*
X3490Y1750D01*
Y1790D01*
X3470Y1810D02*
X3460Y1820D01*
Y1840D01*
X3470Y1850D01*
X3480D01*
X3490Y1840D01*
X3500Y1850D01*
X3510D01*
X3520Y1840D01*
Y1820D01*
X3510Y1810D01*
X3500D01*
X3490Y1820D01*
X3480Y1810D01*
X3470D01*
X3490Y1820D02*
Y1840D01*
X3460Y1910D02*
Y1870D01*
X3490D01*
X3480Y1890D01*
Y1900D01*
X3490Y1910D01*
X3510D01*
X3520Y1900D01*
Y1880D01*
X3510Y1870D01*
X3520Y1990D02*
X3460D01*
Y2020D01*
X3470Y2030D01*
X3490D01*
X3500Y2020D01*
Y1990D01*
Y2010D02*
X3520Y2030D01*
X3460Y2050D02*
X3520Y2090D01*
X3460D02*
X3520Y2050D01*
X3740Y1780D02*
X3680D01*
X3710Y1750D01*
Y1790D01*
X3690Y1810D02*
X3680Y1820D01*
Y1840D01*
X3690Y1850D01*
X3700D01*
X3710Y1840D01*
X3720Y1850D01*
X3730D01*
X3740Y1840D01*
Y1820D01*
X3730Y1810D01*
X3720D01*
X3710Y1820D01*
X3700Y1810D01*
X3690D01*
X3710Y1820D02*
Y1840D01*
X3680Y1910D02*
Y1870D01*
X3710D01*
X3700Y1890D01*
Y1900D01*
X3710Y1910D01*
X3730D01*
X3740Y1900D01*
Y1880D01*
X3730Y1870D01*
X3680Y1990D02*
Y2030D01*
Y2010D01*
X3740D01*
X3680Y2050D02*
X3740Y2090D01*
X3680D02*
X3740Y2050D01*
X1820Y2200D02*
X1870D01*
X1880Y2210D01*
Y2230D01*
X1870Y2240D01*
X1820D01*
X1880Y2300D02*
Y2260D01*
X1840Y2300D01*
X1830D01*
X1820Y2290D01*
Y2270D01*
X1830Y2260D01*
X680Y1480D02*
Y1460D01*
Y1470D01*
X730D01*
X740Y1460D01*
Y1450D01*
X730Y1440D01*
X680Y1540D02*
X690Y1520D01*
X710Y1500D01*
X730D01*
X740Y1510D01*
Y1530D01*
X730Y1540D01*
X720D01*
X710Y1530D01*
Y1500D01*
X460Y1480D02*
Y1460D01*
Y1470D01*
X510D01*
X520Y1460D01*
Y1450D01*
X510Y1440D01*
X470Y1500D02*
X460Y1510D01*
Y1530D01*
X470Y1540D01*
X480D01*
X490Y1530D01*
X500Y1540D01*
X510D01*
X520Y1530D01*
Y1510D01*
X510Y1500D01*
X500D01*
X490Y1510D01*
X480Y1500D01*
X470D01*
X490Y1510D02*
Y1530D01*
X4660Y1565D02*
X4600D01*
Y1595D01*
X4610Y1605D01*
X4630D01*
X4640Y1595D01*
Y1565D01*
Y1585D02*
X4660Y1605D01*
Y1625D02*
Y1645D01*
Y1635D01*
X4600D01*
X4610Y1625D01*
X4660Y1715D02*
Y1675D01*
X4620Y1715D01*
X4610D01*
X4600Y1705D01*
Y1685D01*
X4610Y1675D01*
X4580Y1585D02*
X4520D01*
Y1615D01*
X4530Y1625D01*
X4550D01*
X4560Y1615D01*
Y1585D01*
Y1605D02*
X4580Y1625D01*
Y1645D02*
Y1665D01*
Y1655D01*
X4520D01*
X4530Y1645D01*
X4580Y1695D02*
Y1715D01*
Y1705D01*
X4520D01*
X4530Y1695D01*
X2400Y2220D02*
X2450D01*
X2460Y2230D01*
Y2250D01*
X2450Y2260D01*
X2400D01*
X2410Y2280D02*
X2400Y2290D01*
Y2310D01*
X2410Y2320D01*
X2420D01*
X2430Y2310D01*
Y2300D01*
Y2310D01*
X2440Y2320D01*
X2450D01*
X2460Y2310D01*
Y2290D01*
X2450Y2280D01*
X2250Y1960D02*
X2240Y1950D01*
Y1930D01*
X2250Y1920D01*
X2290D01*
X2300Y1930D01*
Y1950D01*
X2290Y1960D01*
Y1980D02*
X2300Y1990D01*
Y2010D01*
X2290Y2020D01*
X2250D01*
X2240Y2010D01*
Y1990D01*
X2250Y1980D01*
X2260D01*
X2270Y1990D01*
Y2020D01*
X1820Y1440D02*
X1760D01*
Y1470D01*
X1770Y1480D01*
X1790D01*
X1800Y1470D01*
Y1440D01*
Y1460D02*
X1820Y1480D01*
Y1500D02*
Y1520D01*
Y1510D01*
X1760D01*
X1770Y1500D01*
Y1550D02*
X1760Y1560D01*
Y1580D01*
X1770Y1590D01*
X1810D01*
X1820Y1580D01*
Y1560D01*
X1810Y1550D01*
X1770D01*
X1720Y1900D02*
X1660D01*
Y1930D01*
X1670Y1940D01*
X1690D01*
X1700Y1930D01*
Y1900D01*
Y1920D02*
X1720Y1940D01*
X1710Y1960D02*
X1720Y1970D01*
Y1990D01*
X1710Y2000D01*
X1670D01*
X1660Y1990D01*
Y1970D01*
X1670Y1960D01*
X1680D01*
X1690Y1970D01*
Y2000D01*
X2060Y1760D02*
X2000D01*
Y1790D01*
X2010Y1800D01*
X2030D01*
X2040Y1790D01*
Y1760D01*
Y1780D02*
X2060Y1800D01*
X2010Y1820D02*
X2000Y1830D01*
Y1850D01*
X2010Y1860D01*
X2020D01*
X2030Y1850D01*
X2040Y1860D01*
X2050D01*
X2060Y1850D01*
Y1830D01*
X2050Y1820D01*
X2040D01*
X2030Y1830D01*
X2020Y1820D01*
X2010D01*
X2030Y1830D02*
Y1850D01*
X880Y1450D02*
X820D01*
X850Y1420D01*
Y1460D01*
X830Y1480D02*
X820Y1490D01*
Y1510D01*
X830Y1520D01*
X840D01*
X850Y1510D01*
X860Y1520D01*
X870D01*
X880Y1510D01*
Y1490D01*
X870Y1480D01*
X860D01*
X850Y1490D01*
X840Y1480D01*
X830D01*
X850Y1490D02*
Y1510D01*
X820Y1580D02*
Y1540D01*
X850D01*
X840Y1560D01*
Y1570D01*
X850Y1580D01*
X870D01*
X880Y1570D01*
Y1550D01*
X870Y1540D01*
X820Y1660D02*
Y1700D01*
Y1680D01*
X880D01*
Y1750D02*
Y1730D01*
X870Y1720D01*
X850D01*
X840Y1730D01*
Y1750D01*
X850Y1760D01*
X860D01*
Y1720D01*
X840Y1780D02*
X880D01*
X860D01*
X850Y1790D01*
X840Y1800D01*
Y1810D01*
X880Y1840D02*
X840D01*
Y1850D01*
X850Y1860D01*
X880D01*
X850D01*
X840Y1870D01*
X850Y1880D01*
X880D01*
X820Y1100D02*
Y1080D01*
Y1090D01*
X870D01*
X880Y1080D01*
Y1070D01*
X870Y1060D01*
X820Y1120D02*
Y1160D01*
X830D01*
X870Y1120D01*
X880D01*
X1630Y1520D02*
X1620Y1510D01*
Y1490D01*
X1630Y1480D01*
X1670D01*
X1680Y1490D01*
Y1510D01*
X1670Y1520D01*
X1630Y1540D02*
X1620Y1550D01*
Y1570D01*
X1630Y1580D01*
X1640D01*
X1650Y1570D01*
X1660Y1580D01*
X1670D01*
X1680Y1570D01*
Y1550D01*
X1670Y1540D01*
X1660D01*
X1650Y1550D01*
X1640Y1540D01*
X1630D01*
X1650Y1550D02*
Y1570D01*
X4900Y1605D02*
X4840D01*
Y1635D01*
X4850Y1645D01*
X4870D01*
X4880Y1635D01*
Y1605D01*
Y1625D02*
X4900Y1645D01*
X4840Y1665D02*
Y1705D01*
X4850D01*
X4890Y1665D01*
X4900D01*
X1640Y1900D02*
X1580D01*
Y1930D01*
X1590Y1940D01*
X1610D01*
X1620Y1930D01*
Y1900D01*
Y1920D02*
X1640Y1940D01*
X1580Y2000D02*
X1590Y1980D01*
X1610Y1960D01*
X1630D01*
X1640Y1970D01*
Y1990D01*
X1630Y2000D01*
X1620D01*
X1610Y1990D01*
Y1960D01*
X1920Y1500D02*
X1860D01*
Y1530D01*
X1870Y1540D01*
X1890D01*
X1900Y1530D01*
Y1500D01*
Y1520D02*
X1920Y1540D01*
X1860Y1600D02*
Y1560D01*
X1890D01*
X1880Y1580D01*
Y1590D01*
X1890Y1600D01*
X1910D01*
X1920Y1590D01*
Y1570D01*
X1910Y1560D01*
X1040Y1450D02*
X980D01*
X1010Y1420D01*
Y1460D01*
X990Y1480D02*
X980Y1490D01*
Y1510D01*
X990Y1520D01*
X1000D01*
X1010Y1510D01*
X1020Y1520D01*
X1030D01*
X1040Y1510D01*
Y1490D01*
X1030Y1480D01*
X1020D01*
X1010Y1490D01*
X1000Y1480D01*
X990D01*
X1010Y1490D02*
Y1510D01*
X980Y1580D02*
Y1540D01*
X1010D01*
X1000Y1560D01*
Y1570D01*
X1010Y1580D01*
X1030D01*
X1040Y1570D01*
Y1550D01*
X1030Y1540D01*
X980Y1700D02*
Y1660D01*
X1040D01*
Y1700D01*
X1010Y1660D02*
Y1680D01*
X1040Y1720D02*
X1000D01*
Y1750D01*
X1010Y1760D01*
X1040D01*
X1000Y1790D02*
Y1810D01*
X1010Y1820D01*
X1040D01*
Y1790D01*
X1030Y1780D01*
X1020Y1790D01*
Y1820D01*
X980Y1840D02*
X1040D01*
Y1870D01*
X1030Y1880D01*
X1020D01*
X1010D01*
X1000Y1870D01*
Y1840D01*
X1040Y1900D02*
Y1920D01*
Y1910D01*
X980D01*
Y1900D01*
X1040Y1980D02*
Y1960D01*
X1030Y1950D01*
X1010D01*
X1000Y1960D01*
Y1980D01*
X1010Y1990D01*
X1020D01*
Y1950D01*
X960Y1100D02*
Y1080D01*
Y1090D01*
X1010D01*
X1020Y1080D01*
Y1070D01*
X1010Y1060D01*
X960Y1160D02*
Y1120D01*
X990D01*
X980Y1140D01*
Y1150D01*
X990Y1160D01*
X1010D01*
X1020Y1150D01*
Y1130D01*
X1010Y1120D01*
X2120Y1440D02*
X2170D01*
X2180Y1450D01*
Y1470D01*
X2170Y1480D01*
X2120D01*
X2180Y1500D02*
Y1520D01*
Y1510D01*
X2120D01*
X2130Y1500D01*
X3900Y1660D02*
X3840D01*
Y1690D01*
X3850Y1700D01*
X3870D01*
X3880Y1690D01*
Y1660D01*
Y1680D02*
X3900Y1700D01*
Y1760D02*
Y1720D01*
X3860Y1760D01*
X3850D01*
X3840Y1750D01*
Y1730D01*
X3850Y1720D01*
X4500Y1625D02*
X4440D01*
Y1655D01*
X4450Y1665D01*
X4470D01*
X4480Y1655D01*
Y1625D01*
Y1645D02*
X4500Y1665D01*
Y1685D02*
Y1705D01*
Y1695D01*
X4440D01*
X4450Y1685D01*
X4260Y660D02*
Y640D01*
Y650D01*
X4310D01*
X4320Y640D01*
Y630D01*
X4310Y620D01*
X4320Y720D02*
Y680D01*
X4280Y720D01*
X4270D01*
X4260Y710D01*
Y690D01*
X4270Y680D01*
X4800Y1170D02*
X4790Y1160D01*
Y1140D01*
X4800Y1130D01*
X4840D01*
X4850Y1140D01*
Y1160D01*
X4840Y1170D01*
X4790Y1190D02*
Y1230D01*
X4800D01*
X4840Y1190D01*
X4850D01*
X2650Y1920D02*
X2640Y1910D01*
Y1890D01*
X2650Y1880D01*
X2690D01*
X2700Y1890D01*
Y1910D01*
X2690Y1920D01*
X2640Y1980D02*
X2650Y1960D01*
X2670Y1940D01*
X2690D01*
X2700Y1950D01*
Y1970D01*
X2690Y1980D01*
X2680D01*
X2670Y1970D01*
Y1940D01*
X4410Y1215D02*
X4400Y1205D01*
Y1185D01*
X4410Y1175D01*
X4450D01*
X4460Y1185D01*
Y1205D01*
X4450Y1215D01*
X4460Y1265D02*
X4400D01*
X4430Y1235D01*
Y1275D01*
X4315Y1355D02*
X4305Y1345D01*
Y1325D01*
X4315Y1315D01*
X4355D01*
X4365Y1325D01*
Y1345D01*
X4355Y1355D01*
X4315Y1375D02*
X4305Y1385D01*
Y1405D01*
X4315Y1415D01*
X4325D01*
X4335Y1405D01*
Y1395D01*
Y1405D01*
X4345Y1415D01*
X4355D01*
X4365Y1405D01*
Y1385D01*
X4355Y1375D01*
X2070Y1660D02*
X2060Y1650D01*
Y1630D01*
X2070Y1620D01*
X2110D01*
X2120Y1630D01*
Y1650D01*
X2110Y1660D01*
X2120Y1720D02*
Y1680D01*
X2080Y1720D01*
X2070D01*
X2060Y1710D01*
Y1690D01*
X2070Y1680D01*
X2990Y1800D02*
X2980Y1790D01*
Y1770D01*
X2990Y1760D01*
X3030D01*
X3040Y1770D01*
Y1790D01*
X3030Y1800D01*
X3040Y1820D02*
Y1840D01*
Y1830D01*
X2980D01*
X2990Y1820D01*
X2420Y1660D02*
X2430D01*
X2450Y1680D01*
X2430Y1700D01*
X2420D01*
X2450Y1680D02*
X2480D01*
Y1720D02*
Y1740D01*
Y1730D01*
X2420D01*
X2430Y1720D01*
X2990Y1920D02*
X2980Y1910D01*
Y1890D01*
X2990Y1880D01*
X3030D01*
X3040Y1890D01*
Y1910D01*
X3030Y1920D01*
X2980Y1980D02*
Y1940D01*
X3010D01*
X3000Y1960D01*
Y1970D01*
X3010Y1980D01*
X3030D01*
X3040Y1970D01*
Y1950D01*
X3030Y1940D01*
X1300Y1420D02*
X1360D01*
Y1460D01*
X1300Y1520D02*
Y1480D01*
X1360D01*
Y1520D01*
X1330Y1480D02*
Y1500D01*
X1300Y1540D02*
X1360D01*
Y1570D01*
X1350Y1580D01*
X1310D01*
X1300Y1570D01*
Y1540D01*
X1360Y1600D02*
Y1620D01*
Y1610D01*
X1300D01*
X1310Y1600D01*
X1300Y1750D02*
Y1710D01*
X1360D01*
Y1750D01*
X1330Y1710D02*
Y1730D01*
X1360Y1770D02*
X1320D01*
Y1800D01*
X1330Y1810D01*
X1360D01*
X1320Y1840D02*
Y1860D01*
X1330Y1870D01*
X1360D01*
Y1840D01*
X1350Y1830D01*
X1340Y1840D01*
Y1870D01*
X1300Y1890D02*
X1360D01*
Y1920D01*
X1350Y1930D01*
X1340D01*
X1330D01*
X1320Y1920D01*
Y1890D01*
X1360Y1950D02*
Y1970D01*
Y1960D01*
X1300D01*
Y1950D01*
X1360Y2030D02*
Y2010D01*
X1350Y2000D01*
X1330D01*
X1320Y2010D01*
Y2030D01*
X1330Y2040D01*
X1340D01*
Y2000D01*
X1300Y1100D02*
Y1080D01*
Y1090D01*
X1350D01*
X1360Y1080D01*
Y1070D01*
X1350Y1060D01*
X1310Y1120D02*
X1300Y1130D01*
Y1150D01*
X1310Y1160D01*
X1320D01*
X1330Y1150D01*
Y1140D01*
Y1150D01*
X1340Y1160D01*
X1350D01*
X1360Y1150D01*
Y1130D01*
X1350Y1120D01*
X1440Y1420D02*
X1500D01*
Y1460D01*
X1440Y1520D02*
Y1480D01*
X1500D01*
Y1520D01*
X1470Y1480D02*
Y1500D01*
X1440Y1540D02*
X1500D01*
Y1570D01*
X1490Y1580D01*
X1450D01*
X1440Y1570D01*
Y1540D01*
X1500Y1640D02*
Y1600D01*
X1460Y1640D01*
X1450D01*
X1440Y1630D01*
Y1610D01*
X1450Y1600D01*
X1440Y1760D02*
Y1720D01*
X1500D01*
Y1760D01*
X1470Y1720D02*
Y1740D01*
X1500Y1780D02*
X1460D01*
Y1810D01*
X1470Y1820D01*
X1500D01*
X1460Y1850D02*
Y1870D01*
X1470Y1880D01*
X1500D01*
Y1850D01*
X1490Y1840D01*
X1480Y1850D01*
Y1880D01*
X1440Y1900D02*
X1500D01*
Y1930D01*
X1490Y1940D01*
X1480D01*
X1470D01*
X1460Y1930D01*
Y1900D01*
X1500Y1960D02*
Y1980D01*
Y1970D01*
X1440D01*
Y1960D01*
X1500Y2040D02*
Y2020D01*
X1490Y2010D01*
X1470D01*
X1460Y2020D01*
Y2040D01*
X1470Y2050D01*
X1480D01*
Y2010D01*
X1440Y1100D02*
Y1080D01*
Y1090D01*
X1490D01*
X1500Y1080D01*
Y1070D01*
X1490Y1060D01*
X1500Y1150D02*
X1440D01*
X1470Y1120D01*
Y1160D01*
X4820Y1605D02*
X4760D01*
Y1635D01*
X4770Y1645D01*
X4790D01*
X4800Y1635D01*
Y1605D01*
Y1625D02*
X4820Y1645D01*
X4770Y1665D02*
X4760Y1675D01*
Y1695D01*
X4770Y1705D01*
X4780D01*
X4790Y1695D01*
Y1685D01*
Y1695D01*
X4800Y1705D01*
X4810D01*
X4820Y1695D01*
Y1675D01*
X4810Y1665D01*
X4740Y1605D02*
X4680D01*
Y1635D01*
X4690Y1645D01*
X4710D01*
X4720Y1635D01*
Y1605D01*
Y1625D02*
X4740Y1645D01*
Y1695D02*
X4680D01*
X4710Y1665D01*
Y1705D01*
X385Y2360D02*
Y2320D01*
Y2340D01*
X395Y2350D01*
X405Y2360D01*
X415D01*
X485D02*
X455D01*
X445Y2350D01*
Y2330D01*
X455Y2320D01*
X485D01*
X505Y2300D02*
Y2360D01*
X535D01*
X545Y2350D01*
Y2330D01*
X535Y2320D01*
X505D01*
X575D02*
X595D01*
X605Y2330D01*
Y2350D01*
X595Y2360D01*
X575D01*
X565Y2350D01*
Y2330D01*
X575Y2320D01*
X665Y2380D02*
Y2320D01*
X635D01*
X625Y2330D01*
Y2350D01*
X635Y2360D01*
X665D01*
X685Y2350D02*
X725D01*
X775Y2320D02*
Y2380D01*
X745Y2350D01*
X785D01*
X805Y2370D02*
X815Y2380D01*
X835D01*
X845Y2370D01*
Y2360D01*
X835Y2350D01*
X845Y2340D01*
Y2330D01*
X835Y2320D01*
X815D01*
X805Y2330D01*
Y2340D01*
X815Y2350D01*
X805Y2360D01*
Y2370D01*
X815Y2350D02*
X835D01*
X905Y2380D02*
X865D01*
Y2350D01*
X885Y2360D01*
X895D01*
X905Y2350D01*
Y2330D01*
X895Y2320D01*
X875D01*
X865Y2330D01*
X985Y2360D02*
Y2320D01*
Y2340D01*
X995Y2350D01*
X1005Y2360D01*
X1015D01*
X1075Y2320D02*
X1055D01*
X1045Y2330D01*
Y2350D01*
X1055Y2360D01*
X1075D01*
X1085Y2350D01*
Y2340D01*
X1045D01*
X1105Y2360D02*
X1125Y2320D01*
X1145Y2360D01*
X1225Y2320D02*
Y2360D01*
X1245Y2380D01*
X1265Y2360D01*
Y2320D01*
Y2350D01*
X1225D01*
X405Y2220D02*
X385Y2240D01*
Y2260D01*
X405Y2280D01*
X475Y2270D02*
X465Y2280D01*
X445D01*
X435Y2270D01*
Y2230D01*
X445Y2220D01*
X465D01*
X475Y2230D01*
X495Y2220D02*
X515Y2240D01*
Y2260D01*
X495Y2280D01*
X645Y2220D02*
X605D01*
X645Y2260D01*
Y2270D01*
X635Y2280D01*
X615D01*
X605Y2270D01*
X665D02*
X675Y2280D01*
X695D01*
X705Y2270D01*
Y2230D01*
X695Y2220D01*
X675D01*
X665Y2230D01*
Y2270D01*
X725D02*
X735Y2280D01*
X755D01*
X765Y2270D01*
Y2230D01*
X755Y2220D01*
X735D01*
X725Y2230D01*
Y2270D01*
X785D02*
X795Y2280D01*
X815D01*
X825Y2270D01*
Y2260D01*
X815Y2250D01*
X805D01*
X815D01*
X825Y2240D01*
Y2230D01*
X815Y2220D01*
X795D01*
X785Y2230D01*
X905Y2220D02*
Y2280D01*
X925Y2260D01*
X945Y2280D01*
Y2220D01*
X965D02*
X985D01*
X975D01*
Y2260D01*
X965D01*
X1055D02*
X1025D01*
X1015Y2250D01*
Y2230D01*
X1025Y2220D01*
X1055D01*
X1085Y2260D02*
X1105D01*
X1115Y2250D01*
Y2220D01*
X1085D01*
X1075Y2230D01*
X1085Y2240D01*
X1115D01*
X1135Y2280D02*
Y2220D01*
Y2250D01*
X1145Y2260D01*
X1165D01*
X1175Y2250D01*
Y2220D01*
X1255Y2280D02*
Y2220D01*
X1285D01*
X1295Y2230D01*
Y2270D01*
X1285Y2280D01*
X1255D01*
X1325Y2220D02*
X1345D01*
X1355Y2230D01*
Y2250D01*
X1345Y2260D01*
X1325D01*
X1315Y2250D01*
Y2230D01*
X1325Y2220D01*
X1375Y2260D02*
Y2230D01*
X1385Y2220D01*
X1395Y2230D01*
X1405Y2220D01*
X1415Y2230D01*
Y2260D01*
X1445Y2270D02*
Y2260D01*
X1435D01*
X1455D01*
X1445D01*
Y2230D01*
X1455Y2220D01*
X1485Y2260D02*
Y2230D01*
X1495Y2220D01*
X1525D01*
Y2210D01*
X1515Y2200D01*
X1505D01*
X1525Y2220D02*
Y2260D01*
X0Y0D02*
Y2500D01*
Y0D02*
X5000D01*
Y2500D01*
X0D02*
X5000D01*
D29*
X4712Y1365D02*
G03*
X4712Y1365I-132J0D01*
G01*
X2303Y2245D02*
G03*
X2303Y2195I0J-25D01*
G01*
X2170Y1993D02*
G03*
X2032Y2002I-72J-33D01*
G01*
Y1918D02*
G03*
X2170Y1927I66J42D01*
G01*
X1693Y1670D02*
G03*
X1702Y1808I-33J72D01*
G01*
X1618D02*
G03*
X1627Y1670I42J-66D01*
G01*
X2910Y1973D02*
G03*
X2772Y1982I-72J-33D01*
G01*
Y1898D02*
G03*
X2910Y1907I66J42D01*
G01*
X4382Y1492D02*
G03*
X4373Y1630I-42J66D01*
G01*
X4307D02*
G03*
X4298Y1492I33J-72D01*
G01*
X2350Y1753D02*
G03*
X2212Y1762I-72J-33D01*
G01*
Y1678D02*
G03*
X2350Y1687I66J42D01*
G01*
X3208Y1762D02*
G03*
X3070Y1753I-66J-42D01*
G01*
Y1687D02*
G03*
X3208Y1678I72J33D01*
G01*
X4246Y1325D02*
G03*
X4246Y1275I0J-25D01*
G01*
X4862Y1307D02*
G03*
X4853Y1445I-42J66D01*
G01*
X4787D02*
G03*
X4778Y1307I33J-72D01*
G01*
X3278Y2245D02*
G03*
X3278Y2195I0J-25D01*
G01*
X3248Y1942D02*
G03*
X3110Y1933I-66J-42D01*
G01*
Y1867D02*
G03*
X3248Y1858I72J33D01*
G01*
X950Y1390D02*
X1142D01*
X950D02*
X1250D01*
X950Y1190D02*
X1250D01*
Y1390D01*
X950Y1190D02*
Y1390D01*
X1897Y2116D02*
X2303D01*
X1897Y2324D02*
X2303D01*
X1897Y2116D02*
Y2324D01*
X2303Y2116D02*
Y2195D01*
Y2245D02*
Y2324D01*
X330Y1390D02*
Y1590D01*
Y1390D02*
X430D01*
Y1590D01*
X330D02*
X430D01*
X1430Y1190D02*
Y1390D01*
Y1190D02*
X1530D01*
Y1390D01*
X1430D02*
X1530D01*
X1390Y1190D02*
Y1390D01*
X1290D02*
X1390D01*
X1290Y1190D02*
Y1390D01*
Y1190D02*
X1390D01*
X810D02*
Y1390D01*
Y1190D02*
X910D01*
Y1390D01*
X810D02*
X910D01*
X4640Y1796D02*
Y1805D01*
Y2005D02*
Y2014D01*
X4610Y1805D02*
X4640D01*
X4610D02*
Y2005D01*
X4670D01*
Y1805D02*
Y2005D01*
X4640Y1805D02*
X4670D01*
X4560Y1796D02*
Y1805D01*
Y2005D02*
Y2014D01*
X4530Y1805D02*
X4560D01*
X4530D02*
Y2005D01*
X4590D01*
Y1805D02*
Y2005D01*
X4560Y1805D02*
X4590D01*
X1800Y1900D02*
Y1909D01*
Y1691D02*
Y1700D01*
Y1900D02*
X1830D01*
Y1700D02*
Y1900D01*
X1770Y1700D02*
X1830D01*
X1770D02*
Y1900D01*
X1800D01*
X4880Y1796D02*
Y1805D01*
Y2005D02*
Y2014D01*
X4850Y1805D02*
X4880D01*
X4850D02*
Y2005D01*
X4910D01*
Y1805D02*
Y2005D01*
X4880Y1805D02*
X4910D01*
X1900Y1691D02*
Y1700D01*
Y1900D02*
Y1909D01*
X1870Y1700D02*
X1900D01*
X1870D02*
Y1900D01*
X1930D01*
Y1700D02*
Y1900D01*
X1900Y1700D02*
X1930D01*
X3991D02*
X4000D01*
X4200D02*
X4209D01*
X4000D02*
Y1730D01*
X4200D01*
Y1670D02*
Y1730D01*
X4000Y1670D02*
X4200D01*
X4000D02*
Y1700D01*
X4480Y1805D02*
X4510D01*
Y2005D01*
X4450D02*
X4510D01*
X4450Y1805D02*
Y2005D01*
Y1805D02*
X4480D01*
Y2005D02*
Y2014D01*
Y1796D02*
Y1805D01*
X2516Y1833D02*
X2964D01*
X2516Y1647D02*
Y1833D01*
Y1647D02*
X2964D01*
Y1833D01*
X4800Y1796D02*
Y1805D01*
Y2005D02*
Y2014D01*
X4770Y1805D02*
X4800D01*
X4770D02*
Y2005D01*
X4830D01*
Y1805D02*
Y2005D01*
X4800Y1805D02*
X4830D01*
X4720Y1796D02*
Y1805D01*
Y2005D02*
Y2014D01*
X4690Y1805D02*
X4720D01*
X4690D02*
Y2005D01*
X4750D01*
Y1805D02*
Y2005D01*
X4720Y1805D02*
X4750D01*
X4246Y1325D02*
Y1554D01*
Y1046D02*
Y1275D01*
X2194Y1046D02*
Y1554D01*
X4246D01*
X2194Y1046D02*
X4246D01*
X3278Y2245D02*
Y2324D01*
Y2116D02*
Y2195D01*
X2482Y2116D02*
Y2324D01*
X3278D01*
X2482Y2116D02*
X3278D01*
X1670Y2300D02*
X1700D01*
X1670Y2100D02*
Y2300D01*
Y2100D02*
X1730D01*
Y2300D01*
X1700D02*
X1730D01*
X1700Y2091D02*
Y2100D01*
Y2300D02*
Y2309D01*
X1620Y2100D02*
X1650D01*
Y2300D01*
X1590D02*
X1650D01*
X1590Y2100D02*
Y2300D01*
Y2100D02*
X1620D01*
Y2300D02*
Y2309D01*
Y2091D02*
Y2100D01*
X2160Y1810D02*
Y1840D01*
Y1810D02*
X2360D01*
Y1870D01*
X2160D02*
X2360D01*
X2160Y1840D02*
Y1870D01*
X2360Y1840D02*
X2369D01*
X2151D02*
X2160D01*
D30*
X4470Y1475D02*
Y1514D01*
X4451Y1495D02*
X4490D01*
M02*
