%FSLAX23Y23*%
%MOIN*%
G70*
G01*
G75*
G04 Layer_Physical_Order=2*
%ADD10C,0.010*%
%ADD11C,0.020*%
%ADD12C,0.063*%
%ADD13C,0.059*%
%ADD14R,0.059X0.059*%
%ADD15C,0.065*%
%ADD16C,0.180*%
%ADD17C,0.047*%
%ADD18R,0.047X0.047*%
%ADD19O,0.500X0.400*%
%ADD20C,0.070*%
%ADD21R,0.070X0.070*%
%ADD22C,0.275*%
%ADD23C,0.059*%
%ADD24R,0.059X0.059*%
%ADD25C,0.055*%
%ADD26R,0.053X0.053*%
%ADD27C,0.053*%
%ADD28C,0.025*%
D10*
X3043Y1673D02*
Y1720D01*
X2970Y1600D02*
X3043Y1673D01*
X2644Y1740D02*
X2730D01*
X2870Y1600D01*
X4340Y1915D02*
X4480Y2055D01*
X4340Y1657D02*
Y1915D01*
X1760Y140D02*
Y816D01*
X1700Y1880D02*
Y2050D01*
X1660Y1840D02*
X1700Y1880D01*
X1609Y1789D02*
X1660Y1840D01*
X380Y1540D02*
Y1875D01*
X3515Y1815D02*
X3910Y2210D01*
X3515Y1385D02*
Y1815D01*
X3340Y2210D02*
X3430D01*
X3180Y2370D02*
X3340Y2210D01*
X4480Y1093D02*
Y1755D01*
X4367Y855D02*
X4415Y808D01*
X2935Y2415D02*
X2980Y2370D01*
X2630Y2415D02*
X2935D01*
X2295D02*
X2630D01*
Y2330D02*
Y2415D01*
X2250Y2370D02*
X2295Y2415D01*
X1200Y1240D02*
X1281Y1159D01*
X2035Y2355D02*
X2095Y2295D01*
X2035Y2355D02*
X2050Y2370D01*
X1930Y2250D02*
X2035Y2355D01*
X1900Y1650D02*
X2066Y1816D01*
X1100Y1240D02*
X1153Y1293D01*
X2680Y2070D02*
X2716D01*
X1950Y2370D02*
X1997Y2417D01*
X2150Y1880D02*
Y2070D01*
X2110Y1840D02*
X2150Y1880D01*
X1860Y140D02*
Y839D01*
X1748Y1898D02*
X1800Y1950D01*
X380Y1125D02*
Y1440D01*
X2880Y2370D02*
X2925Y2325D01*
Y2025D02*
Y2325D01*
X4250Y1680D02*
Y1700D01*
X4170Y1600D02*
X4250Y1680D01*
X1996Y1316D02*
X2054Y1374D01*
X1996Y863D02*
Y1316D01*
X3970Y1565D02*
Y1600D01*
X3425Y686D02*
Y1020D01*
X3870Y1600D02*
X3915Y1645D01*
X3525Y504D02*
Y1085D01*
X1538Y718D02*
Y1425D01*
X960Y140D02*
X1538Y718D01*
X3670Y1378D02*
Y1600D01*
X3434Y1080D02*
Y1142D01*
X1574Y594D02*
Y1153D01*
X1160Y140D02*
Y180D01*
X2920Y1479D02*
Y1620D01*
X2725Y492D02*
Y1284D01*
X1260Y140D02*
X1612Y492D01*
X3370Y1083D02*
Y1600D01*
X1210Y180D02*
X1550Y520D01*
X1310Y90D02*
X1360Y140D01*
X3270Y1355D02*
Y1600D01*
X1637Y1017D02*
Y1326D01*
X1460Y140D02*
X1510Y90D01*
X2625Y1455D02*
X2770Y1600D01*
X1960Y140D02*
X2010Y90D01*
X2635Y1635D02*
X2670Y1600D01*
X2060Y140D02*
X2163Y243D01*
X1410Y1310D02*
Y1340D01*
Y1310D02*
X1480Y1240D01*
X2195Y1225D02*
X2570Y1600D01*
X2160Y140D02*
X2195Y175D01*
X2370Y1600D02*
X2415Y1645D01*
X2325Y175D02*
X2360Y140D01*
X2270Y1551D02*
Y1600D01*
X2052Y249D02*
Y1333D01*
X2409Y291D02*
X2560Y140D01*
X2409Y291D02*
Y861D01*
X2493Y307D02*
X2660Y140D01*
X2370Y1000D02*
X2493Y877D01*
X2670Y430D02*
X2960Y140D01*
X2670Y430D02*
Y1000D01*
X2770Y430D02*
X3060Y140D01*
X2770Y430D02*
Y1000D01*
X1200Y1340D02*
X1256Y1284D01*
X1301Y1195D02*
X1374D01*
X2870Y430D02*
Y1000D01*
Y430D02*
X3160Y140D01*
X2970Y430D02*
X3260Y140D01*
X2970Y430D02*
Y1000D01*
X3149Y351D02*
X3360Y140D01*
X3070Y1000D02*
X3149Y921D01*
X3170Y430D02*
X3460Y140D01*
X3170Y430D02*
Y1000D01*
X3470Y430D02*
X3760Y140D01*
X3470Y430D02*
Y1000D01*
X3860Y140D02*
Y710D01*
X3570Y1000D02*
X3860Y710D01*
X3960Y140D02*
Y710D01*
X3670Y1000D02*
X3960Y710D01*
X4060Y140D02*
Y710D01*
X3770Y1000D02*
X4060Y710D01*
X4160Y140D02*
Y720D01*
X3870Y1000D02*
X3880D01*
X4260Y140D02*
Y762D01*
X3970Y1000D02*
X4015Y955D01*
X4314Y186D02*
X4360Y140D01*
X4070Y1000D02*
X4115Y955D01*
X4338Y262D02*
X4460Y140D01*
X4170Y1000D02*
X4298D01*
X1609Y967D02*
X1760Y816D01*
X1609Y967D02*
Y1789D01*
X2630Y2330D02*
X2825Y2135D01*
Y1876D02*
Y2135D01*
X2800Y1851D02*
X2825Y1876D01*
X2596Y1851D02*
X2800D01*
X2527Y1782D02*
X2596Y1851D01*
X2342Y1782D02*
X2527D01*
X2167Y1607D02*
X2342Y1782D01*
X1880Y1607D02*
X2167D01*
X1857Y1630D02*
X1880Y1607D01*
X1857Y1630D02*
Y2075D01*
X1800Y2132D02*
X1857Y2075D01*
X1564Y2132D02*
X1800D01*
X1295Y1863D02*
X1564Y2132D01*
X1295Y1295D02*
Y1863D01*
Y1295D02*
X1362D01*
X1402Y1255D01*
Y1180D02*
Y1255D01*
X1381Y1159D02*
X1402Y1180D01*
X1281Y1159D02*
X1381D01*
X2066Y1816D02*
Y1963D01*
X2095Y1992D01*
Y2295D01*
X1748Y951D02*
X1860Y839D01*
X1748Y951D02*
Y1898D01*
X3425Y1020D02*
X3970Y1565D01*
X3915Y1645D02*
X3990D01*
X4015Y1620D01*
Y1575D02*
Y1620D01*
X3525Y1085D02*
X4015Y1575D01*
X3434Y1142D02*
X3670Y1378D01*
X2725Y1284D02*
X2920Y1479D01*
X1220Y90D02*
X1310D01*
X1210Y100D02*
X1220Y90D01*
X1210Y100D02*
Y180D01*
X1637Y1017D02*
X1810Y844D01*
Y100D02*
Y844D01*
X1800Y90D02*
X1810Y100D01*
X1510Y90D02*
X1800D01*
X2325Y175D02*
Y1265D01*
X2615Y1555D01*
Y1644D01*
X2614Y1645D02*
X2615Y1644D01*
X2415Y1645D02*
X2614D01*
X2493Y307D02*
Y877D01*
X3880Y1000D02*
X4160Y720D01*
X4067Y955D02*
X4260Y762D01*
X4015Y955D02*
X4067D01*
X1160Y180D02*
X1574Y594D01*
X1256Y1240D02*
Y1284D01*
Y1240D02*
X1301Y1195D01*
X2052Y1333D02*
X2270Y1551D01*
X2716Y2070D02*
X2782Y2004D01*
Y1900D02*
Y2004D01*
X2762Y1880D02*
X2782Y1900D01*
X2550Y1880D02*
X2762D01*
X2105Y2325D02*
X2550Y1880D01*
X2105Y2325D02*
Y2392D01*
X2080Y2417D02*
X2105Y2392D01*
X1997Y2417D02*
X2080D01*
X2163Y243D02*
Y1331D01*
X2320Y1488D01*
Y1625D01*
X2360Y1665D01*
X2635D01*
Y1635D02*
Y1665D01*
X2195Y175D02*
Y1225D01*
X2625Y339D02*
Y1455D01*
Y339D02*
X2710Y254D01*
Y100D02*
Y254D01*
X2700Y90D02*
X2710Y100D01*
X2010Y90D02*
X2700D01*
X1153Y1293D02*
Y1804D01*
X1599Y2250D01*
X1930D01*
X4314Y186D02*
Y881D01*
X4240Y955D02*
X4314Y881D01*
X4115Y955D02*
X4240D01*
X4298Y1000D02*
X4338Y960D01*
Y262D02*
Y960D01*
X3149Y351D02*
Y921D01*
X4367Y980D02*
X4480Y1093D01*
X4367Y855D02*
Y980D01*
X0Y0D02*
Y2500D01*
Y0D02*
X5000D01*
Y2500D01*
X0D02*
X5000D01*
D11*
X4535Y1370D02*
X4580Y1415D01*
X3950Y1760D02*
X4400Y2210D01*
X3950Y1700D02*
Y1760D01*
X4415Y906D02*
X4487Y979D01*
X3370Y430D02*
Y1000D01*
Y430D02*
X3660Y140D01*
X3180Y1997D02*
Y2070D01*
X3083Y1900D02*
X3180Y1997D01*
X2250Y2013D02*
Y2070D01*
X2197Y1960D02*
X2250Y2013D01*
X3083Y1900D02*
X3170Y1813D01*
Y1200D02*
X3370Y1000D01*
X3170Y1600D02*
Y1813D01*
Y1200D02*
Y1600D01*
X4560Y1755D02*
X4634Y1681D01*
X4580Y1315D02*
X4634Y1369D01*
X3280Y1760D02*
Y1900D01*
X3240Y1720D02*
X3280Y1760D01*
X3100Y1600D02*
Y1730D01*
Y1585D02*
Y1600D01*
X3092Y1578D02*
X3100Y1585D01*
X3070Y1555D02*
X3092Y1578D01*
X4820Y840D02*
Y1275D01*
X4690Y710D02*
X4820Y840D01*
X4600Y620D02*
X4690Y710D01*
X4493Y906D02*
X4690Y710D01*
X3270Y430D02*
Y1000D01*
X3070Y1200D02*
X3270Y1000D01*
X3070Y1555D02*
Y1600D01*
Y1200D02*
Y1555D01*
X3270Y430D02*
X3560Y140D01*
X2580Y2252D02*
Y2370D01*
X2980Y2070D02*
X3013Y2037D01*
X1950Y2000D02*
Y2070D01*
X2686Y1994D02*
X2740Y1940D01*
X1900Y1950D02*
X1950Y2000D01*
X4634Y1369D02*
Y1681D01*
X3013Y1817D02*
Y2037D01*
Y1817D02*
X3100Y1730D01*
X2676Y1994D02*
X2686D01*
X2630Y2040D02*
X2676Y1994D01*
X2630Y2040D02*
Y2202D01*
X2580Y2252D02*
X2630Y2202D01*
X4535Y1280D02*
Y1370D01*
Y1280D02*
X4578Y1237D01*
X4630D01*
X4710Y1157D01*
Y1040D02*
Y1157D01*
X4649Y979D02*
X4710Y1040D01*
X4487Y979D02*
X4649D01*
D12*
X4230Y2210D02*
D03*
X4130D02*
D03*
X3910D02*
D03*
X4010D02*
D03*
X4500D02*
D03*
X4400D02*
D03*
X3430D02*
D03*
X3530D02*
D03*
X3750D02*
D03*
X3650D02*
D03*
D13*
X1000Y1240D02*
D03*
Y1340D02*
D03*
X1100Y1240D02*
D03*
Y1340D02*
D03*
X1200Y1240D02*
D03*
X380Y1540D02*
D03*
X1480Y1340D02*
D03*
X1340Y1240D02*
D03*
X860Y1340D02*
D03*
D14*
X1200D02*
D03*
X380Y1440D02*
D03*
X1480Y1240D02*
D03*
X1340Y1340D02*
D03*
X860Y1240D02*
D03*
D15*
X4493Y906D02*
D03*
X4415Y906D02*
D03*
Y808D02*
D03*
X4493D02*
D03*
D16*
X4600Y1094D02*
D03*
Y620D02*
D03*
D17*
X4580Y1315D02*
D03*
D18*
Y1415D02*
D03*
D19*
X380Y1875D02*
D03*
Y1125D02*
D03*
D20*
X4460Y140D02*
D03*
X4360D02*
D03*
X4260D02*
D03*
X4160D02*
D03*
X4060D02*
D03*
X3960D02*
D03*
X3860D02*
D03*
X3760D02*
D03*
X3660D02*
D03*
X3560D02*
D03*
X3460D02*
D03*
X3360D02*
D03*
X3260D02*
D03*
X3160D02*
D03*
X3060D02*
D03*
X2960D02*
D03*
X2860D02*
D03*
X2760D02*
D03*
X2660D02*
D03*
X2560D02*
D03*
X2460D02*
D03*
X2360D02*
D03*
X2260D02*
D03*
X2160D02*
D03*
X2060D02*
D03*
X1960D02*
D03*
X1860D02*
D03*
X1760D02*
D03*
X1660D02*
D03*
X1560D02*
D03*
X1460D02*
D03*
X1360D02*
D03*
X1260D02*
D03*
X1160D02*
D03*
X1060D02*
D03*
X960D02*
D03*
X860D02*
D03*
X760D02*
D03*
X660D02*
D03*
D21*
X560D02*
D03*
D22*
X205Y205D02*
D03*
X4795D02*
D03*
Y2295D02*
D03*
X205D02*
D03*
D23*
X1950Y2070D02*
D03*
X2050D02*
D03*
X2150D02*
D03*
X2250D02*
D03*
X1950Y2370D02*
D03*
X2050D02*
D03*
X2150D02*
D03*
X4170Y1000D02*
D03*
X4070D02*
D03*
X3970D02*
D03*
X3870D02*
D03*
X3770D02*
D03*
X3670D02*
D03*
X3570D02*
D03*
X3470D02*
D03*
X3170D02*
D03*
X3070D02*
D03*
X2970D02*
D03*
X2870D02*
D03*
X2770D02*
D03*
X2670D02*
D03*
X2370D02*
D03*
X2270D02*
D03*
Y1600D02*
D03*
X2370D02*
D03*
X2570D02*
D03*
X2670D02*
D03*
X2770D02*
D03*
X3270Y1000D02*
D03*
X3070Y1600D02*
D03*
X3370Y1000D02*
D03*
X3170Y1600D02*
D03*
X3270D02*
D03*
X3370D02*
D03*
X3470D02*
D03*
X3570D02*
D03*
X3670D02*
D03*
X3770D02*
D03*
X3870D02*
D03*
X3970D02*
D03*
X4070D02*
D03*
X2570Y1000D02*
D03*
X2470D02*
D03*
Y1600D02*
D03*
X2870D02*
D03*
X2970D02*
D03*
X3080Y2070D02*
D03*
X2780D02*
D03*
X2980Y2370D02*
D03*
X3080D02*
D03*
X2780D02*
D03*
X2680D02*
D03*
Y2070D02*
D03*
X2880Y2370D02*
D03*
X2580Y2070D02*
D03*
X3180D02*
D03*
X2580Y2370D02*
D03*
X2880Y2070D02*
D03*
X2980D02*
D03*
D24*
X2250Y2370D02*
D03*
X4170Y1600D02*
D03*
X3180Y2370D02*
D03*
D25*
X4640Y1755D02*
D03*
X4560D02*
D03*
X4880D02*
D03*
X1900Y1950D02*
D03*
X4720Y1755D02*
D03*
X4800D02*
D03*
X3950Y1700D02*
D03*
X4250D02*
D03*
X1800Y1650D02*
D03*
Y1950D02*
D03*
X1900Y1650D02*
D03*
X4480Y1755D02*
D03*
X4640Y2055D02*
D03*
X4560D02*
D03*
X4880D02*
D03*
X4720D02*
D03*
X4800D02*
D03*
X4480D02*
D03*
X2644Y1740D02*
D03*
X2836D02*
D03*
X1700Y2350D02*
D03*
Y2050D02*
D03*
X1620D02*
D03*
Y2350D02*
D03*
X2110Y1840D02*
D03*
X2410D02*
D03*
D26*
X2000Y1960D02*
D03*
X2740Y1940D02*
D03*
X4340Y1460D02*
D03*
X2180Y1720D02*
D03*
X3240D02*
D03*
X1660Y1840D02*
D03*
X4820Y1275D02*
D03*
X3280Y1900D02*
D03*
D27*
X2197Y1960D02*
D03*
X2937Y1940D02*
D03*
X1660Y1643D02*
D03*
X4340Y1657D02*
D03*
X2377Y1720D02*
D03*
X3043D02*
D03*
X4820Y1472D02*
D03*
X3083Y1900D02*
D03*
D28*
X3425Y686D02*
D03*
X3525Y504D02*
D03*
X3434Y1080D02*
D03*
X1612Y492D02*
D03*
X2725D02*
D03*
X2920Y1620D02*
D03*
X1550Y520D02*
D03*
X3370Y1083D02*
D03*
X3270Y1355D02*
D03*
X1637Y1326D02*
D03*
X1574Y1153D02*
D03*
X3515Y1385D02*
D03*
X2054Y1374D02*
D03*
X1996Y863D02*
D03*
X1538Y1425D02*
D03*
X1374Y1195D02*
D03*
X1410Y1340D02*
D03*
X2052Y249D02*
D03*
X2409Y861D02*
D03*
X2925Y2025D02*
D03*
M02*
