%FSLAX23Y23*%
%MOIN*%
G70*
G01*
G75*
G04 Layer_Physical_Order=1*
%ADD10C,0.010*%
%ADD11C,0.020*%
%ADD12C,0.063*%
%ADD13C,0.059*%
%ADD14R,0.059X0.059*%
%ADD15C,0.065*%
%ADD16C,0.180*%
%ADD17C,0.047*%
%ADD18R,0.047X0.047*%
%ADD19O,0.500X0.400*%
%ADD20C,0.070*%
%ADD21R,0.070X0.070*%
%ADD22C,0.275*%
%ADD23C,0.059*%
%ADD24R,0.059X0.059*%
%ADD25C,0.055*%
%ADD26R,0.053X0.053*%
%ADD27C,0.053*%
%ADD28C,0.025*%
D10*
X380Y1680D02*
Y1875D01*
X3023Y1740D02*
X3043Y1720D01*
X2836Y1740D02*
X3023D01*
X2397D02*
X2644D01*
X2377Y1720D02*
X2397Y1740D01*
X4132Y1657D02*
X4340D01*
X2470Y1600D02*
X2535Y1665D01*
X1997Y2123D02*
X2050Y2070D01*
X1700Y2050D02*
X1773Y2123D01*
X680Y1840D02*
X1660D01*
X660D02*
X680D01*
X380Y1875D02*
X660Y1840D01*
X968Y1643D02*
X1660D01*
X795Y1305D02*
X860Y1240D01*
X4049Y2291D02*
X4130Y2210D01*
X1267Y1167D02*
X1340Y1240D01*
X4732Y2123D02*
X4800Y2055D01*
X4230Y2210D02*
X4277Y2163D01*
X3244Y1385D02*
X3515D01*
X1480Y1340D02*
X1557D01*
X4632Y2143D02*
X4720Y2055D01*
X4010Y2210D02*
X4077Y2143D01*
X4814Y2121D02*
X4880Y2055D01*
X4500Y2210D02*
X4664D01*
X4517Y2098D02*
X4560Y2055D01*
X3530Y2210D02*
X3642Y2098D01*
X3603Y2257D02*
X3650Y2210D01*
X2780Y2070D02*
X2967Y2257D01*
X4572Y2123D02*
X4640Y2055D01*
X3750Y2210D02*
X3837Y2123D01*
X2662Y808D02*
X4415D01*
X2470Y1000D02*
X2662Y808D01*
X4444Y857D02*
X4493Y808D01*
X2570Y1000D02*
X2713Y857D01*
X2680Y2370D02*
X2780D01*
X2635Y2415D02*
X2680Y2370D01*
X3035Y2325D02*
X3080Y2370D01*
X2780D02*
X2825Y2325D01*
X2050Y2370D02*
X2095Y2415D01*
X1922Y2398D02*
X1950Y2370D01*
X1577Y2093D02*
X1620Y2050D01*
X1702Y1968D01*
X942Y1182D02*
X1000Y1240D01*
X1800Y1950D02*
X1910Y1840D01*
X2110D01*
X1860Y105D02*
Y140D01*
X1821Y105D02*
X1860D01*
X380Y1125D02*
X448D01*
Y142D02*
Y1125D01*
X1636Y1486D02*
X1800Y1650D01*
X860Y1340D02*
X1006Y1486D01*
X2625Y2025D02*
X2925D01*
X2580Y2070D02*
X2625Y2025D01*
X3690Y1120D02*
X4170Y1600D01*
X560Y140D02*
X1465Y1045D01*
X4070Y1570D02*
Y1600D01*
X2054Y1374D02*
X2622D01*
X1383Y863D02*
X1996D01*
X660Y140D02*
X1383Y863D01*
X3341Y602D02*
X3425Y686D01*
X760Y140D02*
X1222Y602D01*
X3459Y438D02*
X3525Y504D01*
X860Y140D02*
X1158Y438D01*
X3721Y1551D02*
X3770Y1600D01*
X1538Y1425D02*
X1546Y1433D01*
X3434Y1080D02*
X4452D01*
X1060Y140D02*
X1197Y277D01*
X3570Y1600D02*
X3615Y1645D01*
X1574Y1153D02*
X2612D01*
X3425Y1645D02*
X3470Y1600D01*
X2920Y1620D02*
X2945Y1645D01*
X1612Y492D02*
X2725D01*
X3370Y1083D02*
X3402Y1051D01*
X1550Y520D02*
X3398D01*
X3231Y1316D02*
X3270Y1355D01*
X1637Y1326D02*
X1647Y1316D01*
X2477Y1407D02*
X2670Y1600D01*
X1410Y1340D02*
X1467Y1397D01*
X2428Y1458D02*
X2570Y1600D01*
X1340Y1340D02*
X1458Y1458D01*
X2351Y249D02*
X2460Y140D01*
X2052Y249D02*
X2351D01*
X2270Y1000D02*
X2409Y861D01*
X2670Y1000D02*
Y1041D01*
X1000Y1340D02*
X1050Y1290D01*
X1374Y1195D02*
X2626D01*
X2770Y1000D02*
Y1051D01*
X2580Y1290D02*
X2870Y1000D01*
X1100Y1340D02*
X1150Y1290D01*
X2095Y2415D02*
X2635D01*
X1806Y90D02*
X1821Y105D01*
X500Y90D02*
X1806D01*
X448Y142D02*
X500Y90D01*
X3265Y1120D02*
X3690D01*
X3225Y1080D02*
X3265Y1120D01*
X3225Y980D02*
Y1080D01*
X3180Y935D02*
X3225Y980D01*
X2670Y935D02*
X3180D01*
X2625Y980D02*
X2670Y935D01*
X2625Y980D02*
Y1020D01*
X2600Y1045D02*
X2625Y1020D01*
X1465Y1045D02*
X2600D01*
X1222Y602D02*
X3341D01*
X1158Y438D02*
X3459D01*
X1197Y277D02*
X1464D01*
X1599Y412D01*
X4629D01*
X4705Y488D01*
Y827D01*
X4452Y1080D02*
X4705Y827D01*
X2945Y1645D02*
X3425D01*
X3398Y520D02*
X3585Y707D01*
X4468D01*
X4543Y782D01*
Y960D01*
X4452Y1051D02*
X4543Y960D01*
X3402Y1051D02*
X4452D01*
X1647Y1316D02*
X3231D01*
X1050Y1160D02*
Y1290D01*
Y1160D02*
X1099Y1111D01*
X2600D01*
X2670Y1041D01*
X1150Y1290D02*
X2580D01*
X4124Y1665D02*
X4132Y1657D01*
X4005Y1665D02*
X4124D01*
X3997Y1657D02*
X4005Y1665D01*
X3835Y1657D02*
X3997D01*
X3827Y1665D02*
X3835Y1657D01*
X2535Y1665D02*
X3827D01*
X3615Y1645D02*
X3805D01*
X3820Y1630D01*
Y1575D02*
Y1630D01*
Y1575D02*
X3840Y1555D01*
X4000D01*
X4024Y1579D01*
Y1620D01*
X4049Y1645D01*
X4090D01*
X4115Y1620D01*
Y1581D02*
Y1620D01*
X3795Y1261D02*
X4115Y1581D01*
X3084Y1261D02*
X3795D01*
X2915Y1092D02*
X3084Y1261D01*
X2915Y980D02*
Y1092D01*
X2890Y955D02*
X2915Y980D01*
X2747Y955D02*
X2890D01*
X2719Y983D02*
X2747Y955D01*
X2719Y983D02*
Y1046D01*
X2612Y1153D02*
X2719Y1046D01*
X1557Y1340D02*
X1571Y1354D01*
X1669D01*
X1681Y1342D01*
X3201D01*
X3244Y1385D01*
X3992Y1492D02*
X4070Y1570D01*
X2740Y1492D02*
X3992D01*
X2622Y1374D02*
X2740Y1492D01*
Y1551D02*
X3721D01*
X2720Y1571D02*
X2740Y1551D01*
X2720Y1571D02*
Y1640D01*
X2715Y1645D02*
X2720Y1640D01*
X2640Y1645D02*
X2715D01*
X2615Y1620D02*
X2640Y1645D01*
X2615Y1580D02*
Y1620D01*
X2468Y1433D02*
X2615Y1580D01*
X1546Y1433D02*
X2468D01*
X2626Y1195D02*
X2770Y1051D01*
X2713Y857D02*
X4444D01*
X1458Y1458D02*
X2428D01*
X1467Y1397D02*
X1555D01*
X1565Y1407D01*
X2477D01*
X1600Y2398D02*
X1922D01*
X1577Y2375D02*
X1600Y2398D01*
X1577Y2093D02*
Y2375D01*
X795Y1305D02*
Y1470D01*
X968Y1643D01*
X816Y1182D02*
X942D01*
X775Y1223D02*
X816Y1182D01*
X775Y1223D02*
Y1494D01*
X1023Y1742D01*
X1644D01*
X1702Y1800D01*
Y1968D01*
X1200Y1167D02*
X1267D01*
X1145Y1222D02*
X1200Y1167D01*
X1145Y1222D02*
Y1258D01*
X1108Y1295D02*
X1145Y1258D01*
X1080Y1295D02*
X1108D01*
X1055Y1320D02*
X1080Y1295D01*
X1055Y1320D02*
Y1360D01*
X1030Y1385D02*
X1055Y1360D01*
X970Y1385D02*
X1030D01*
X880Y1295D02*
X970Y1385D01*
X840Y1295D02*
X880D01*
X815Y1320D02*
X840Y1295D01*
X815Y1320D02*
Y1361D01*
X1018Y1564D01*
X1647D01*
X1750Y1667D01*
Y1970D01*
X1800Y2020D01*
X2331D01*
X2602Y2291D01*
X4049D01*
X1773Y2123D02*
X1997D01*
X1006Y1486D02*
X1636D01*
X4701Y2123D02*
X4732D01*
X4661Y2163D02*
X4701Y2123D01*
X4277Y2163D02*
X4661D01*
X4077Y2143D02*
X4632D01*
X4781Y2121D02*
X4814D01*
X4759Y2143D02*
X4781Y2121D01*
X4731Y2143D02*
X4759D01*
X4664Y2210D02*
X4731Y2143D01*
X3837Y2123D02*
X4572D01*
X2967Y2257D02*
X3603D01*
X3642Y2098D02*
X4517D01*
X2825Y2325D02*
X3035D01*
X0Y0D02*
Y2500D01*
Y0D02*
X5000D01*
Y2500D01*
X0D02*
X5000D01*
D11*
X4580Y1472D02*
Y1579D01*
Y1415D02*
Y1472D01*
X4820D01*
X3840Y1810D02*
X3950Y1700D01*
X4013Y1763D01*
X3414Y386D02*
X3660Y140D01*
X2881Y1996D02*
X2937Y1940D01*
X2977Y1900D01*
X3083D01*
X2197Y1960D02*
X2290D01*
X3083Y1900D02*
X3173Y1810D01*
X2410Y1840D02*
X2566Y1996D01*
X2290Y1960D02*
X2410Y1840D01*
X1560Y140D02*
X1806Y386D01*
X4800Y1755D02*
X4880D01*
X4720D02*
X4800D01*
X4640D02*
X4720D01*
X4560D02*
X4640D01*
X4485Y1315D02*
X4580D01*
X3150Y1900D02*
X3280D01*
X3115Y1720D02*
X3240D01*
X4620Y1275D02*
X4820D01*
X4340Y1460D02*
X4485Y1315D01*
X4580D02*
X4620Y1275D01*
X4434Y966D02*
X4493Y906D01*
X3270Y1000D02*
X3350Y920D01*
X3361Y339D02*
X3560Y140D01*
X2490Y2280D02*
X2580Y2370D01*
X2880Y2070D02*
X2980D01*
X2150Y2370D02*
X2240Y2280D01*
X2026Y2246D02*
X2150Y2370D01*
X1700Y2350D02*
X1804Y2246D01*
X1620Y2350D02*
X1700D01*
X2980Y2070D02*
X3150Y1900D01*
X2740Y1940D02*
X2840Y1840D01*
X2572Y1772D02*
X2740Y1940D01*
X2236Y1912D02*
X2304Y1844D01*
X2376Y1772D01*
X2180Y1720D02*
X2304Y1844D01*
X1968Y1965D02*
X1973Y1960D01*
X1987Y1946D01*
X2021Y1912D01*
X1900Y1950D02*
X1915Y1965D01*
X1973Y1960D02*
X2000D01*
X1660Y140D02*
X1859Y339D01*
X4013Y1763D02*
X4396D01*
X4580Y1579D01*
X2376Y1772D02*
X2572D01*
X2021Y1912D02*
X2236D01*
X3350Y920D02*
X4214D01*
X4260Y966D01*
X4434D01*
X1806Y386D02*
X3414D01*
X1859Y339D02*
X3361D01*
X2995Y1840D02*
X3115Y1720D01*
X2840Y1840D02*
X2995D01*
X3173Y1810D02*
X3840D01*
X2566Y1996D02*
X2881D01*
X1915Y1965D02*
X1968D01*
X1804Y2246D02*
X2026D01*
X2240Y2280D02*
X2490D01*
D12*
X4230Y2210D02*
D03*
X4130D02*
D03*
X3910D02*
D03*
X4010D02*
D03*
X4500D02*
D03*
X4400D02*
D03*
X3430D02*
D03*
X3530D02*
D03*
X3750D02*
D03*
X3650D02*
D03*
D13*
X1000Y1240D02*
D03*
Y1340D02*
D03*
X1100Y1240D02*
D03*
Y1340D02*
D03*
X1200Y1240D02*
D03*
X380Y1540D02*
D03*
X1480Y1340D02*
D03*
X1340Y1240D02*
D03*
X860Y1340D02*
D03*
D14*
X1200D02*
D03*
X380Y1440D02*
D03*
X1480Y1240D02*
D03*
X1340Y1340D02*
D03*
X860Y1240D02*
D03*
D15*
X4493Y906D02*
D03*
X4415Y906D02*
D03*
Y808D02*
D03*
X4493D02*
D03*
D16*
X4600Y1094D02*
D03*
Y620D02*
D03*
D17*
X4580Y1315D02*
D03*
D18*
Y1415D02*
D03*
D19*
X380Y1875D02*
D03*
Y1125D02*
D03*
D20*
X4460Y140D02*
D03*
X4360D02*
D03*
X4260D02*
D03*
X4160D02*
D03*
X4060D02*
D03*
X3960D02*
D03*
X3860D02*
D03*
X3760D02*
D03*
X3660D02*
D03*
X3560D02*
D03*
X3460D02*
D03*
X3360D02*
D03*
X3260D02*
D03*
X3160D02*
D03*
X3060D02*
D03*
X2960D02*
D03*
X2860D02*
D03*
X2760D02*
D03*
X2660D02*
D03*
X2560D02*
D03*
X2460D02*
D03*
X2360D02*
D03*
X2260D02*
D03*
X2160D02*
D03*
X2060D02*
D03*
X1960D02*
D03*
X1860D02*
D03*
X1760D02*
D03*
X1660D02*
D03*
X1560D02*
D03*
X1460D02*
D03*
X1360D02*
D03*
X1260D02*
D03*
X1160D02*
D03*
X1060D02*
D03*
X960D02*
D03*
X860D02*
D03*
X760D02*
D03*
X660D02*
D03*
D21*
X560D02*
D03*
D22*
X205Y205D02*
D03*
X4795D02*
D03*
Y2295D02*
D03*
X205D02*
D03*
D23*
X1950Y2070D02*
D03*
X2050D02*
D03*
X2150D02*
D03*
X2250D02*
D03*
X1950Y2370D02*
D03*
X2050D02*
D03*
X2150D02*
D03*
X4170Y1000D02*
D03*
X4070D02*
D03*
X3970D02*
D03*
X3870D02*
D03*
X3770D02*
D03*
X3670D02*
D03*
X3570D02*
D03*
X3470D02*
D03*
X3170D02*
D03*
X3070D02*
D03*
X2970D02*
D03*
X2870D02*
D03*
X2770D02*
D03*
X2670D02*
D03*
X2370D02*
D03*
X2270D02*
D03*
Y1600D02*
D03*
X2370D02*
D03*
X2570D02*
D03*
X2670D02*
D03*
X2770D02*
D03*
X3270Y1000D02*
D03*
X3070Y1600D02*
D03*
X3370Y1000D02*
D03*
X3170Y1600D02*
D03*
X3270D02*
D03*
X3370D02*
D03*
X3470D02*
D03*
X3570D02*
D03*
X3670D02*
D03*
X3770D02*
D03*
X3870D02*
D03*
X3970D02*
D03*
X4070D02*
D03*
X2570Y1000D02*
D03*
X2470D02*
D03*
Y1600D02*
D03*
X2870D02*
D03*
X2970D02*
D03*
X3080Y2070D02*
D03*
X2780D02*
D03*
X2980Y2370D02*
D03*
X3080D02*
D03*
X2780D02*
D03*
X2680D02*
D03*
Y2070D02*
D03*
X2880Y2370D02*
D03*
X2580Y2070D02*
D03*
X3180D02*
D03*
X2580Y2370D02*
D03*
X2880Y2070D02*
D03*
X2980D02*
D03*
D24*
X2250Y2370D02*
D03*
X4170Y1600D02*
D03*
X3180Y2370D02*
D03*
D25*
X4640Y1755D02*
D03*
X4560D02*
D03*
X4880D02*
D03*
X1900Y1950D02*
D03*
X4720Y1755D02*
D03*
X4800D02*
D03*
X3950Y1700D02*
D03*
X4250D02*
D03*
X1800Y1650D02*
D03*
Y1950D02*
D03*
X1900Y1650D02*
D03*
X4480Y1755D02*
D03*
X4640Y2055D02*
D03*
X4560D02*
D03*
X4880D02*
D03*
X4720D02*
D03*
X4800D02*
D03*
X4480D02*
D03*
X2644Y1740D02*
D03*
X2836D02*
D03*
X1700Y2350D02*
D03*
Y2050D02*
D03*
X1620D02*
D03*
Y2350D02*
D03*
X2110Y1840D02*
D03*
X2410D02*
D03*
D26*
X2000Y1960D02*
D03*
X2740Y1940D02*
D03*
X4340Y1460D02*
D03*
X2180Y1720D02*
D03*
X3240D02*
D03*
X1660Y1840D02*
D03*
X4820Y1275D02*
D03*
X3280Y1900D02*
D03*
D27*
X2197Y1960D02*
D03*
X2937Y1940D02*
D03*
X1660Y1643D02*
D03*
X4340Y1657D02*
D03*
X2377Y1720D02*
D03*
X3043D02*
D03*
X4820Y1472D02*
D03*
X3083Y1900D02*
D03*
D28*
X3425Y686D02*
D03*
X3525Y504D02*
D03*
X3434Y1080D02*
D03*
X1612Y492D02*
D03*
X2725D02*
D03*
X2920Y1620D02*
D03*
X1550Y520D02*
D03*
X3370Y1083D02*
D03*
X3270Y1355D02*
D03*
X1637Y1326D02*
D03*
X1574Y1153D02*
D03*
X3515Y1385D02*
D03*
X2054Y1374D02*
D03*
X1996Y863D02*
D03*
X1538Y1425D02*
D03*
X1374Y1195D02*
D03*
X1410Y1340D02*
D03*
X2052Y249D02*
D03*
X2409Y861D02*
D03*
X2925Y2025D02*
D03*
M02*
