<?xml version="1.0" encoding="utf-8"?>
<!-- Generator: Adobe Illustrator 16.0.0, SVG Export Plug-In . SVG Version: 6.00 Build 0)  -->
<!DOCTYPE svg PUBLIC "-//W3C//DTD SVG 1.1//EN" "http://www.w3.org/Graphics/SVG/1.1/DTD/svg11.dtd">
<svg version="1.1" id="Layer_1" xmlns="http://www.w3.org/2000/svg" xmlns:xlink="http://www.w3.org/1999/xlink" x="0px" y="0px"
	 width="126px" height="126px" viewBox="0 0 126 126" enable-background="new 0 0 126 126" xml:space="preserve">
<g>
	<path d="M102.945,48.53H87.681c-0.801-15.608-10.379-28.132-22.458-29.513C64.855,9.42,63,2.083,63,2.083
		s-1.855,7.338-2.223,16.935c-12.08,1.381-21.657,13.905-22.458,29.513H23.056v5.927h79.889V48.53z"/>
	<rect x="25.782" y="56.235" width="6.164" height="24.892"/>
	<rect x="42.375" y="56.235" width="6.164" height="24.892"/>
	<rect x="76.513" y="56.235" width="6.163" height="24.892"/>
	<rect x="93.106" y="56.235" width="6.164" height="24.892"/>
	<rect x="59.918" y="56.235" width="6.164" height="24.892"/>
	<rect x="10.077" y="91.143" width="6.164" height="24.892"/>
	<rect x="26.671" y="91.143" width="6.164" height="24.892"/>
	<rect x="60.808" y="91.143" width="6.164" height="24.892"/>
	<polygon points="102.945,83.261 23.056,83.261 8.552,83.261 8.552,89.188 116.948,89.188 116.948,83.261 	"/>
	<rect x="8.552" y="117.991" width="108.396" height="5.926"/>
	<rect x="77.402" y="91.143" width="6.163" height="24.892"/>
	<rect x="92.472" y="91.143" width="6.164" height="24.892"/>
	<rect x="109.066" y="91.143" width="6.163" height="24.892"/>
	<rect x="44.213" y="91.143" width="6.164" height="24.892"/>
</g>
</svg>
