<?xml version="1.0" encoding="utf-8"?>
<!-- Generator: Adobe Illustrator 16.0.0, SVG Export Plug-In . SVG Version: 6.00 Build 0)  -->
<!DOCTYPE svg PUBLIC "-//W3C//DTD SVG 1.1//EN" "http://www.w3.org/Graphics/SVG/1.1/DTD/svg11.dtd">
<svg version="1.1" id="Layer_1" xmlns="http://www.w3.org/2000/svg" xmlns:xlink="http://www.w3.org/1999/xlink" x="0px" y="0px"
	 width="126px" height="126px" viewBox="0 0 126 126" enable-background="new 0 0 126 126" xml:space="preserve">
<g>
	<circle cx="12.056" cy="5.529" r="4.736"/>
	<path d="M6.636,21.239c0.192-0.802,0.396-1.506,0.612-2.119v2.119h9.867v-2.119c0.216,0.612,0.42,1.317,0.612,2.119h1.214h2.564
		c-1.117-5.183-4.041-9.402-8.229-10.783l-1.181,1.187l-1.144-1.201c-0.004,0.002-0.008,0.002-0.011,0.003
		c-0.586,0.14-6.743,2.868-8.083,10.793h2.563H6.636z M11.858,13.333c0.059-0.185,0.088-0.375,0.086-0.57l0.142-0.943h0.021
		l1.143,7.635l-1.143,1.563h-0.021l-1.143-1.563L11.858,13.333z"/>
	<circle cx="11.781" cy="109.742" r="4.735"/>
	<path d="M13,114.669l-1.18,1.187l-1.144-1.2c-0.004,0.002-0.009,0.002-0.012,0.003c-0.584,0.139-6.743,2.867-8.083,10.793h2.564
		h1.215c0.192-0.802,0.396-1.507,0.611-2.12v2.12h9.867v-2.12c0.216,0.612,0.419,1.317,0.611,2.12h1.215h2.563
		C20.113,120.27,17.19,116.05,13,114.669z M11.83,125.23H11.81l-1.143-1.563l0.916-6.121c0.058-0.184,0.088-0.375,0.086-0.57
		l0.141-0.943h0.021l1.144,7.634L11.83,125.23z"/>
	<circle cx="113.968" cy="109.742" r="4.735"/>
	<path d="M115.188,114.669l-1.18,1.187l-1.144-1.2c-0.004,0.002-0.008,0.002-0.011,0.003c-0.586,0.139-6.742,2.867-8.083,10.793
		h2.563h1.215c0.192-0.802,0.395-1.507,0.612-2.119v2.119h9.866v-2.119c0.217,0.612,0.42,1.317,0.612,2.119h1.215h2.563
		C122.302,120.269,119.378,116.05,115.188,114.669z M114.02,125.23h-0.021l-1.143-1.563l0.915-6.121
		c0.059-0.184,0.087-0.375,0.086-0.57l0.142-0.943h0.021l1.143,7.634L114.02,125.23z"/>
	<circle cx="113.967" cy="5.283" r="4.736"/>
	<path d="M108.547,20.994c0.193-0.803,0.396-1.508,0.613-2.12v2.12h9.866v-2.12c0.217,0.611,0.42,1.317,0.612,2.12h1.215h2.563
		c-1.116-5.183-4.04-9.402-8.23-10.784l-1.18,1.188l-1.144-1.201c-0.004,0.001-0.008,0.001-0.011,0.002
		c-0.586,0.141-6.742,2.869-8.083,10.794h2.563H108.547z M113.77,13.087c0.059-0.184,0.087-0.375,0.085-0.568l0.143-0.944h0.021
		l1.144,7.634l-1.144,1.563h-0.021l-1.143-1.563L113.77,13.087z"/>
	<path d="M112.559,63c0-22.074-14.436-40.767-34.38-47.175l4.99-6.471h18.321V6.289H81.662l-6.667,8.644
		c-2.725-0.678-5.536-1.143-8.419-1.349v48.131l30.633,37.122C106.661,89.813,112.559,77.1,112.559,63z"/>
	<path d="M54.251,63.596L15.372,49.313C14.124,53.662,13.441,58.25,13.441,63c0,4.436,0.589,8.732,1.685,12.821l-6.11,10.083v14.733
		h3.065V86.76l4.275-7.055c0.402,1.12,0.829,2.229,1.308,3.31L54.251,63.596z"/>
	<path d="M42.335,17.966C31.494,22.948,22.76,31.722,17.839,42.6l41.585,15.277V13.584c-4.799,0.342-9.405,1.373-13.728,2.984
		l-11.37-7.896H22.241v3.065h11.125L42.335,17.966z"/>
	<path d="M78.928,109.927c4.595-1.563,8.89-3.773,12.768-6.534L62.099,67.527L21.021,89.329
		c8.769,13.95,24.285,23.229,41.979,23.229c4.047,0,7.979-0.488,11.743-1.405l11.168,6.024h17.758v-3.065H86.686L78.928,109.927z"/>
</g>
</svg>
