<?xml version="1.0" encoding="iso-8859-1"?>
<!-- Generator: Adobe Illustrator 17.0.0, SVG Export Plug-In . SVG Version: 6.00 Build 0)  -->
<!DOCTYPE svg PUBLIC "-//W3C//DTD SVG 1.1//EN" "http://www.w3.org/Graphics/SVG/1.1/DTD/svg11.dtd">
<svg version="1.1" id="Capa_1" xmlns="http://www.w3.org/2000/svg" xmlns:xlink="http://www.w3.org/1999/xlink" x="0px" y="0px"
	 width="64px" height="64px" viewBox="0 0 64 64" style="enable-background:new 0 0 64 64;" xml:space="preserve">
<g>
	<path d="M9.779,60.942h17.34l-5.268-13.94C21.851,47.002,9.61,52.782,9.779,60.942z"/>
	<path d="M36.81,47.002l-5.271,13.94h17.34C49.048,52.782,36.81,47.002,36.81,47.002z"/>
	<path d="M39.368,33.376c0-7.527-1.019-13.629-10.039-13.629c-8.633,0-10.039,6.102-10.039,13.629
		c0,7.525,4.494,13.626,10.039,13.626S39.368,40.901,39.368,33.376z"/>
	<path d="M41.41,27.001c0,0.828,0.672,1.5,1.5,1.5c0.828,0,1.5-0.672,1.5-1.5c0-7.444-6.057-13.501-13.501-13.501
		c-0.828,0-1.5,0.672-1.5,1.5c0,0.828,0.672,1.5,1.5,1.5C36.699,16.5,41.41,21.211,41.41,27.001z"/>
	<path d="M30.909,8c-0.828,0-1.5,0.672-1.5,1.5c0,0.828,0.672,1.5,1.5,1.5c8.823,0,16.001,7.178,16.001,16.001
		c0,0.828,0.672,1.5,1.5,1.5c0.828,0,1.5-0.672,1.5-1.5C49.91,16.523,41.387,8,30.909,8z"/>
	<path d="M30.539,2.5c-0.828,0-1.5,0.672-1.5,1.5c0,0.828,0.672,1.5,1.5,1.5c11.855,0,21.501,9.646,21.501,21.501
		c0,0.828,0.672,1.5,1.5,1.5c0.828,0,1.5-0.672,1.5-1.5C55.04,13.491,44.049,2.5,30.539,2.5z"/>
</g>
</svg>
