<?xml version="1.0" encoding="utf-8"?>
<!-- Generator: Adobe Illustrator 16.0.0, SVG Export Plug-In . SVG Version: 6.00 Build 0)  -->
<!DOCTYPE svg PUBLIC "-//W3C//DTD SVG 1.1//EN" "http://www.w3.org/Graphics/SVG/1.1/DTD/svg11.dtd">
<svg version="1.1" id="Layer_1" xmlns="http://www.w3.org/2000/svg" xmlns:xlink="http://www.w3.org/1999/xlink" x="0px" y="0px"
	 width="126px" height="126px" viewBox="0 0 126 126" enable-background="new 0 0 126 126" xml:space="preserve">
<path d="M117.446,84.424c4.675-6.659,5.64-16.318-0.556-21.903c2.311-3.593,4.567-8.724,3.398-13.995
	c-1.33-5.999-7.718-8.303-11.408-9.143c-3.081-0.701-6.368-1.042-10.051-1.042c-6.292,0-12.769,1.032-18.467,2.07
	c-0.089-10.108-1.725-18.862-4.868-26.035C73.04,8.772,65.719,0.666,58.904,0.666c-3.029,0-5.582,1.522-7.589,4.525
	c-2.22,3.321-2.631,7.695-2.994,11.554l-0.083,0.87c-0.277,2.847-0.448,5.741-0.612,8.539c-0.175,2.969-0.355,6.039-0.663,9.039
	c-0.496,4.837-1.469,11.029-4.61,16.024c-2.267,3.604-6.199,5.432-11.687,5.433c-0.221,0-0.441-0.003-0.663-0.009v-4.96H4.754
	v70.736h25.25v-4.101c11.749,0.449,23.598,2.048,35.068,3.596c8.561,1.155,17.414,2.35,26.174,3.061l0.288,0.023
	c2.044,0.167,4.157,0.339,6.228,0.339c0,0,0,0,0.001,0c3.643,0,8.334-0.45,12.307-3.955c4.436-3.915,4.772-11.075,3.131-16.655
	C117.895,99.68,121.302,91.888,117.446,84.424z M13.46,66.878v-7.757h7.757v7.757H13.46z M106.151,100.959
	c-0.912,0.812-1.547,2.522-0.981,3.868c1.235,2.943,1.861,7.143,0.477,9.89c-0.686,1.36-1.83,2.245-3.4,2.627
	c-1.626,0.397-3.45,0.59-5.575,0.59c-3.405,0-6.947-0.495-10.373-0.974c-1.363-0.19-2.69-0.375-3.956-0.522
	c-5.335-0.615-10.761-1.345-16.009-2.051c-11.873-1.597-24.141-3.249-36.332-3.701V64.256c0.299,0.008,0.593,0.013,0.884,0.013
	c21.603,0,23.277-23.347,24.5-40.394c0.173-2.422,0.338-4.71,0.546-6.852l0.071-0.794c0.212-2.427,0.567-6.489,2.389-7.688
	c0.399-0.263,0.815-0.39,1.271-0.39c3.084,0,6.993,5.521,8.303,8.041c3.58,6.883,5.162,16.564,4.703,28.775
	c-0.037,0.993,0.299,1.888,0.972,2.588c0.918,0.954,2.395,1.401,3.775,1.145c6.972-1.305,14.181-2.654,21.33-2.654
	c2.667,0,5.099,0.186,7.433,0.568c4.289,0.702,6.581,2.117,6.811,4.206c0.254,2.301-0.906,4.709-2.074,6.762
	c-0.703,1.237-2.002,3.033-2.216,3.286c-0.84,0.995-1.206,2.437-0.931,3.674c0.231,1.041,0.885,1.857,1.842,2.299
	c2.187,1.011,3.504,2.636,3.915,4.832c0.581,3.1-0.811,7.028-3.461,9.774c-1.094,1.133-1.604,3.252-0.524,4.701
	C114.136,92.304,109.389,98.071,106.151,100.959z"/>
</svg>
