<?xml version="1.0" encoding="utf-8"?>
<svg width="16" height="16" viewBox="0 0 16 16" version="1.1" xmlns="http://www.w3.org/2000/svg">
<path d="M14.4,0H1.6C0.7,0,0,0.7,0,1.6v12.7C0,15.3,0.7,16,1.6,16h12.7c0.9,0,1.6-0.7,1.6-1.6V1.6C16,0.7,15.3,0,14.4,0zM3.4,1.9C4.3,1.9,5,2.5,5,3.3c0,0.8-0.7,1.5-1.6,1.5S1.8,4.1,1.8,3.3C1.8,2.5,2.6,1.9,3.4,1.9z M5.2,14.1H1.7V5.9h3.5V14.1z M14.1,14.1h-2.7V9.7c0-0.9-0.6-1.6-1.5-1.6C9,8.1,8.7,8.8,8.7,9.5c0,0.9,0,4.7,0,4.7H6V5.9h2.7v1.2c0.4-0.5,1.4-1.2,2.4-1.2c1.3,0,1.6,0.3,2.1,0.8c1,1,0.9,2.4,0.9,2.9h0L14.1,14.1z"/>
</svg>
