<?xml version="1.0" encoding="UTF-8" standalone="no"?>
<!-- Created with Inkscape (http://www.inkscape.org/) -->

<svg
   xmlns:dc="http://purl.org/dc/elements/1.1/"
   xmlns:cc="http://creativecommons.org/ns#"
   xmlns:rdf="http://www.w3.org/1999/02/22-rdf-syntax-ns#"
   xmlns:svg="http://www.w3.org/2000/svg"
   xmlns="http://www.w3.org/2000/svg"
   xmlns:sodipodi="http://sodipodi.sourceforge.net/DTD/sodipodi-0.dtd"
   xmlns:inkscape="http://www.inkscape.org/namespaces/inkscape"
   viewBox="0 0 744.09448819 1052.3622047"
   id="svg2"
   version="1.1"
   inkscape:version="0.48.0 r9654"
   sodipodi:docname="dust-puppy-fixed.svg">
  <defs
     id="defs4">
    <inkscape:perspective
       sodipodi:type="inkscape:persp3d"
       inkscape:vp_x="0 : 526.18109 : 1"
       inkscape:vp_y="0 : 1000 : 0"
       inkscape:vp_z="744.09448 : 526.18109 : 1"
       inkscape:persp3d-origin="372.04724 : 350.78739 : 1"
       id="perspective10" />
    <inkscape:perspective
       id="perspective2884"
       inkscape:persp3d-origin="0.5 : 0.33333333 : 1"
       inkscape:vp_z="1 : 0.5 : 1"
       inkscape:vp_y="0 : 1000 : 0"
       inkscape:vp_x="0 : 0.5 : 1"
       sodipodi:type="inkscape:persp3d" />
  </defs>
  <sodipodi:namedview
     id="base"
     pagecolor="#ffffff"
     bordercolor="#666666"
     borderopacity="1.0"
     inkscape:pageopacity="0.0"
     inkscape:pageshadow="2"
     inkscape:zoom="0.31723122"
     inkscape:cx="375"
     inkscape:cy="511.31568"
     inkscape:document-units="px"
     inkscape:current-layer="layer1"
     showgrid="false"
     inkscape:window-width="863"
     inkscape:window-height="714"
     inkscape:window-x="0"
     inkscape:window-y="25"
     inkscape:window-maximized="0" />
  <metadata
     id="metadata7">
    <rdf:RDF>
      <cc:Work
         rdf:about="">
        <dc:format>image/svg+xml</dc:format>
        <dc:type
           rdf:resource="http://purl.org/dc/dcmitype/StillImage" />
        <dc:title></dc:title>
      </cc:Work>
    </rdf:RDF>
  </metadata>
  <g
     inkscape:label="Layer 1"
     inkscape:groupmode="layer"
     id="layer1">
    <path
       style="fill:#000000"
       d="m 461.16507,1021.8999 c 33.407,-24.28823 32.84933,-29.67272 -14.72656,-142.18869 -22.20445,-52.51299 -37.84637,-102.79786 -34.75986,-111.74414 3.08651,-8.94627 -2.9086,-33.76879 -13.32247,-55.16113 -21.85829,-44.90171 -13.4445,-66.9212 8.96404,-23.45955 8.20036,15.90472 19.92193,25.70229 26.0479,21.77238 6.12597,-3.92992 14.86487,2.93546 19.41979,15.25638 4.55491,12.3209 11.75473,18.79662 15.99958,14.39048 4.24486,-4.40613 -5.68431,-27.54798 -22.06479,-51.42631 -27.52928,-40.13028 -27.80538,-42.31672 -3.649,-28.8974 14.37353,7.98476 33.78621,24.0888 43.13927,35.78675 9.35306,11.69797 24.84184,21.26902 34.41953,21.26902 10.00802,0 0.91342,-18.75227 -21.38474,-44.09315 -51.38495,-58.39694 -49.1229,-74.21263 5.5939,-39.11092 63.80226,40.93022 74.06776,35.06304 21.01234,-12.0095 -25.09874,-22.26845 -37.49377,-40.73831 -27.5445,-41.0441 15.33243,-0.47133 15.33243,-4.20528 0,-24.49843 -15.71621,-20.80114 -15.49564,-21.95123 1.68125,-8.76583 10.87396,8.34711 40.53024,18.95402 65.90283,23.57091 l 46.13199,8.39435 -36.24655,-20.58751 c -19.93563,-11.32315 -36.24657,-22.61546 -36.24657,-25.09404 0,-2.47858 16.31094,-2.19667 36.24657,0.62648 31.05638,4.398 32.47188,3.28453 9.88542,-7.77631 -18.99332,-9.30122 -20.83527,-13.55926 -6.5903,-15.2347 10.87397,-1.27893 5.38246,-6.49893 -12.20337,-11.59998 -17.58582,-5.10108 -34.70608,-17.78166 -38.04504,-28.17912 -4.23558,-13.18955 0.81983,-16.15978 16.723,-9.82529 12.53661,4.99353 38.55374,12.25916 57.8159,16.14588 33.99468,6.85942 34.15209,6.59571 5.36579,-8.98973 -16.31095,-8.83106 -29.65628,-20.41851 -29.65628,-25.7499 0,-5.33139 -14.82813,-6.75116 -32.9514,-3.15504 -18.12328,3.59611 -32.95143,0.11493 -32.95143,-7.73474 0,-7.85021 -10.37969,-16.81891 -23.06598,-19.93046 -12.68629,-3.11152 9.55591,-4.40597 49.42712,-2.87653 76.62058,2.9391 96.96111,-1.8778 85.95887,-20.35622 -3.70429,-6.22139 -26.92368,-6.58536 -51.59866,-0.80884 -51.90677,12.15169 -93.9073,-4.61459 -45.35984,-18.1073 16.92375,-4.70357 47.08143,-8.63604 67.01703,-8.73877 19.93561,-0.1027 36.24655,-5.29313 36.24655,-11.53417 0,-6.24104 -10.37969,-11.30006 -23.06598,-11.24225 -12.68629,0.0575 -46.79101,-1.28645 -75.78825,-2.98711 l -52.72226,-3.09224 59.31254,-21.18631 c 61.90149,-22.1111 97.09461,-45.91435 67.8844,-45.91435 -9.05917,0 -33.97045,9.39304 -55.35837,20.87341 -34.85728,18.71028 -38.88717,18.71028 -38.88717,0 0,-11.48037 6.28131,-20.87341 13.95846,-20.87341 7.67714,0 9.72634,-7.10786 4.55377,-15.79524 -5.33592,-8.96175 -3.66138,-12.11084 3.87062,-7.27893 7.30141,4.68396 24.52879,-0.40442 38.28306,-11.30752 21.53028,-17.06716 22.28485,-21.67614 5.42634,-33.14463 -13.81884,-9.40067 -22.73912,-7.46403 -30.31122,6.58069 -14.69146,27.24965 -54.12133,26.22956 -44.00368,-1.13841 4.42596,-11.97212 -0.64691,-24.39584 -11.77039,-28.82651 -10.75175,-4.28259 -19.70819,-20.98025 -19.9032,-37.10587 -0.31528,-26.07182 -4.8658,-24.01545 -41.08325,18.56547 -32.64251,38.37787 -36.43702,40.41507 -19.11243,10.26101 22.43152,-39.04275 12.83219,-50.29305 -17.51043,-20.52203 -14.34378,14.07356 -14.84997,12.25667 -2.85868,-10.26104 26.21491,-49.227407 54.10847,-80.274829 63.42875,-70.600409 5.02861,5.219667 2.12426,16.775613 -6.4541,25.679923 -20.67404,21.459566 -20.02937,42.615986 0.87874,28.835716 9.06165,-5.97244 21.91271,-10.95325 28.55791,-11.06846 6.64518,-0.11492 14.82874,-8.76224 18.18564,-19.215618 3.62415,-11.28557 0.21168,-15.226448 -8.40064,-9.70148 -8.61121,5.524255 -18.05205,-5.368721 -23.23667,-26.81082 l -8.7326,-36.115446 -27.90038,34.40219 c -15.3452,18.921198 -34.30616,45.412575 -42.13546,58.869734 -13.24663,22.76855 -14.75445,22.40613 -21.71421,-5.21924 -4.24161,-16.836276 -1.64559,-28.408707 5.99726,-26.734186 7.41197,1.623947 16.47002,-5.600116 20.12899,-16.05349 4.0414,-11.545941 0.86714,-15.294628 -8.08689,-9.550449 -9.38364,6.019791 -11.88726,1.740398 -6.89005,-11.77697 4.31717,-11.677961 1.75489,-21.232628 -5.69403,-21.232628 -7.4489,0 -17.43671,18.399254 -22.19507,40.887197 -14.0059,66.191356 -34.70173,64.313576 -24.87102,-2.256576 10.46151,-70.841684 -5.70941,-62.4721346 -21.72676,11.245062 -7.03028,32.3557 -6.42538,55.17576 1.59899,60.32353 7.09885,4.55403 8.53075,20.10108 3.182,34.54899 -8.86238,23.93879 -10.53918,23.23496 -18.90343,-7.93451 -5.04812,-18.81188 -9.76964,-60.369039 -10.49226,-92.349257 -0.72261,-31.980197 -6.21785,-58.1458147 -12.21162,-58.1458147 -5.99379,0 -8.36484,17.9137217 -5.26906,39.8082607 3.09583,21.894559 -0.20719,50.63265 -7.33988,63.862461 -11.17925,20.7352 -14.20068,18.23176 -21.89751,-18.14326 -4.91089,-23.20862 -17.46332,-45.596881 -27.8943,-49.751712 -21.36455,-8.509842 -26.13055,12.738313 -5.78485,25.790405 7.24931,4.650571 13.18056,18.400334 13.18056,30.555043 0,17.669594 -6.60519,15.658454 -32.95142,-10.032985 C 158.94363,70.481829 144.1155,63.25202 144.1155,72.088436 c 0,8.836436 5.19043,16.066225 11.53427,16.066225 12.94153,0 55.79867,85.164249 47.29763,93.988259 -2.99777,3.1117 -17.264,-9.06694 -31.70269,-27.06359 -14.43872,-17.9967 -26.44953,-26.09864 -26.6907,-18.00438 -0.24118,8.09426 14.38962,29.17647 32.5129,46.8493 18.12329,17.67286 32.95142,40.29421 32.95142,50.26965 0,9.97546 6.2813,18.13721 13.95844,18.13721 7.67713,0 10.29272,6.15662 5.8124,13.68136 -4.57934,7.69109 5.91546,13.68138 23.96935,13.68138 45.38927,0 68.29461,35.51703 68.29461,105.89761 0,49.48727 -6.80551,66.72429 -36.98156,93.66684 -42.03734,37.53288 -77.69369,42.16444 -100.9245,13.10947 -10.82547,-13.53951 -22.93861,-15.99252 -37.86043,-7.66707 -12.06809,6.73324 -37.59869,15.63932 -56.734699,19.79126 -43.35359,9.40643 -62.18792,48.82929 -23.32827,48.82929 14.69892,0 23.31291,-5.7312 19.14216,-12.73601 -4.17072,-7.00482 -0.63872,-17.19097 7.84893,-22.63594 9.637989,-6.18293 11.901019,-3.96949 6.02741,5.89533 -5.73739,9.63597 -0.10677,16.17021 14.439179,16.75685 21.28361,0.85836 21.01332,2.22415 -2.51725,12.71977 -26.361129,11.75816 -26.361129,11.75816 0,13.76062 18.74507,1.42391 13.03304,7.33008 -19.770859,20.44279 -41.67996,16.66076 -42.95197,18.6245 -13.18056,20.34841 31.834299,1.84341 31.991729,2.31001 4.64387,13.76348 -40.27177,16.86611 -45.87879,32.538 -23.50437,65.69572 12.42992,18.42045 27.46085,25.88098 41.154249,20.42668 14.76635,-5.88168 18.461,-3.36708 11.71063,7.97027 -5.42394,9.10958 -21.225069,12.81925 -35.113619,8.24372 -14.11613,-4.65053 -25.25189,-1.87928 -25.25189,6.28416 0,8.03183 5.93125,15.37291 13.18056,16.31349 26.21208,3.401 33.2228,5.72839 49.427119,16.40849 10.88774,7.17598 16.82863,2.46468 17.51628,-13.89087 0.60987,-14.50406 3.80405,-17.63489 7.71605,-7.56288 3.6715,9.45282 12.03217,13.75051 18.57928,9.55045 6.54712,-4.20009 8.45403,3.45732 4.2376,17.01646 -5.37491,17.28454 0.64465,14.43005 20.14,-9.55045 l 27.80625,-34.20342 -13.07253,37.62376 c -17.18375,49.45631 -4.9957,47.50779 42.78843,-6.84068 25.05351,-28.4952 41.26476,-38.29182 45.13829,-27.27748 3.32439,9.4528 11.86824,13.45082 18.98632,8.88446 7.11809,-4.56637 16.20014,4.6302 20.18234,20.43681 3.98222,15.8066 12.87959,28.73929 19.77192,28.73929 6.89231,0 8.53075,-13.08421 3.64092,-29.07604 -5.98275,-19.56625 -4.11781,-26.01424 5.70208,-19.71462 8.02596,5.14878 14.59265,3.05807 14.59265,-4.64602 0,-7.7041 -11.86251,-20.59729 -26.36113,-28.65153 -14.49862,-8.05425 -25.89288,-22.12325 -25.32056,-31.26446 0.78431,-12.52717 2.67782,-12.40862 7.68867,0.48138 3.65644,9.40594 14.62982,17.10172 24.38528,17.10172 10.27123,0 26.9398,33.11301 39.60018,78.66787 12.02464,43.26732 36.29186,108.66837 53.92716,145.33568 47.59501,98.95949 37.98824,104.84979 -171.30556,105.03479 -95.04859,0.083 -187.458639,1.5034 -205.355699,3.1541 -38.61258,3.5612 -49.10671,-26.65985 -22.41477,-64.55018 17.85302,-25.34314 19.31174,-25.23033 59.693519,4.61651 22.76632,16.82712 41.3933,25.3121 41.3933,18.85581 0,-6.4565 30.45963,-29.96285 67.68804,-52.23679 44.43173,-26.58365 73.86753,-55.62408 85.67366,-84.52297 20.32088,-49.74115 25.20682,-118.96227 6.19876,-87.82024 -9.07871,14.8742 -12.53078,15.07625 -17.05174,0.99806 -3.23821,-10.08377 -12.62866,-13.18672 -21.90252,-7.23739 -8.92868,5.7279 -13.0656,20.77636 -9.19313,33.44099 9.64353,31.53853 -56.43739,105.61452 -76.05257,85.25407 -23.63102,-24.52894 -100.892669,-18.1562 -110.672319,9.12853 -4.71991,13.16832 -19.88024,40.03481 -33.68964,59.70336 -13.80939,19.66846 -23.1068,50.45166 -20.66093,68.40684 l 4.44704,32.6458 208.309879,0.7676 c 155.49308,0.573 214.8122,-3.96 233.95504,-17.8775 z M 110.62213,949.1708 c -14.185859,-23.82538 1.97077,-28.87105 20.04847,-6.26109 10.39615,13.00245 11.39605,20.85271 2.65611,20.85271 -7.70912,0 -17.92619,-6.56633 -22.70458,-14.59162 z m 26.19343,-27.64447 c -4.87064,-8.18029 -20.04881,-11.83498 -33.7293,-8.12152 -14.499639,3.93582 -24.873579,-0.32211 -24.873579,-10.20924 0,-32.62182 18.05434,-35.21988 47.205729,-6.79302 35.36433,34.4854 60.21207,24.55616 122.33398,-48.8851 22.74214,-26.88601 41.25849,-40.97366 41.1475,-31.30588 -0.31437,27.37568 -17.91189,49.9901 -66.77704,85.81451 -50.01937,36.67058 -72.08118,41.71356 -85.30729,19.50025 z m 7.29994,-39.85221 c 0,-7.52474 2.61557,-13.68136 5.8124,-13.68136 3.19683,0 9.47814,6.15662 13.95844,13.68136 4.48033,7.52476 1.86474,13.68138 -5.8124,13.68138 -7.67713,0 -13.95844,-6.15662 -13.95844,-13.68138 z M 266.91733,646.52558 c 4.20756,-10.91409 7.33079,-7.67218 7.96326,8.26583 0.57229,14.42243 -2.54291,22.503 -6.92269,17.9568 -4.37979,-4.5462 -4.84807,-16.34638 -1.04061,-26.22263 z M 91.393241,671.28811 c 0,-2.84101 10.379699,-13.61509 23.065989,-23.9424 20.90511,-17.01787 21.37131,-16.53394 4.97639,5.16547 -17.21868,22.78972 -28.042379,30.03715 -28.042379,18.77693 z m 239.795709,-70.4441 c 4.05813,-4.21233 11.42819,3.38083 16.37789,16.87369 7.15289,19.49867 5.63893,21.07017 -7.37842,7.65878 -9.00782,-9.28055 -13.05759,-20.32015 -8.99947,-24.53247 z m 23.8156,-23.51043 c 0,-7.63184 8.74213,-6.15039 19.77084,3.35041 10.87396,9.36748 19.77085,23.1884 19.77085,30.71316 0,7.63184 -8.74215,6.15037 -19.77085,-3.35043 -10.87397,-9.36749 -19.77084,-23.1884 -19.77084,-30.71314 z m 52.72226,-95.55815 c 0,-8.00776 8.37501,-6.67809 19.77084,3.13896 10.87396,9.36749 19.77086,19.16303 19.77086,21.76788 0,2.60485 -8.8969,1.19233 -19.77086,-3.13896 -10.87397,-4.33127 -19.77084,-14.12683 -19.77084,-21.76788 z m 35.99569,-33.19789 c 8.92367,-3.74763 26.71745,-3.97577 39.5417,-0.50689 12.82426,3.46877 5.52308,6.53503 -16.22485,6.81384 -21.74794,0.27883 -32.24051,-2.55931 -23.31685,-6.30695 z m -22.81513,-79.95478 c 9.02458,-11.28714 22.74699,-20.52206 30.4942,-20.52206 7.74724,0 2.57256,9.03913 -11.4993,20.08694 -33.063,25.9578 -39.51972,26.10569 -18.9949,0.43512 z m -13.18056,-61.56617 c 0,-7.52476 6.2813,-13.68136 13.95844,-13.68136 7.67713,0 10.29272,6.1566 5.8124,13.68136 -4.48033,7.52476 -10.76161,13.68138 -13.95844,13.68138 -3.19683,0 -5.8124,-6.15662 -5.8124,-13.68138 z M 340.18842,125.5504 c 13.01735,-13.41139 14.53131,-11.83989 7.37842,7.65876 -4.9497,13.49286 -12.31976,21.08602 -16.37789,16.87369 -4.05812,-4.21232 -0.008,-15.2519 8.99947,-24.53245 z m 35.54917,832.03121 c 19.92999,-15.36348 22.3581,-24.73191 11.2767,-43.5088 -7.76722,-13.16117 -22.59535,-26.73447 -32.9514,-30.16288 -13.21716,-4.37561 -11.66749,2.14844 5.19939,21.8891 23.20021,27.15309 23.20397,28.60159 0.10942,42.01673 -13.15532,7.6418 -20.56957,17.37077 -16.4761,21.61968 4.09348,4.24911 18.8722,-1.08505 32.84162,-11.85383 z M 552.71301,601.20604 c -9.02457,-11.28714 -22.33958,-20.52205 -29.58889,-20.52205 -7.35248,0 -5.92525,9.07431 3.22776,20.52205 9.02459,11.28714 22.3396,20.52206 29.58891,20.52206 7.35248,0 5.92525,-9.07431 -3.22778,-20.52206 z M 81.507831,571.62308 c -9.06164,-3.79539 -23.88979,-3.79539 -32.95143,0 -9.06164,3.79539 -1.64756,6.90069 16.47571,6.90069 18.12328,0 25.53735,-3.1053 16.47572,-6.90069 z M 196.83777,443.8703 c 0,-25.53857 -3.51483,-29.18693 -15.81668,-16.41766 -12.30187,12.76928 -12.30187,20.06601 0,32.8353 12.30185,12.76926 15.81668,9.12091 15.81668,-16.41764 z M 552.97738,163.07159 c 9.16998,-11.46898 12.86185,-24.80832 8.20417,-29.64297 -4.6577,-4.83468 -8.46854,-1.60757 -8.46854,7.1713 0,8.77888 -6.2813,15.9616 -13.95844,15.9616 -7.67713,0 -9.50421,-7.69576 -4.06016,-17.10172 6.80769,-11.76196 2.98043,-11.27791 -12.25755,1.5502 -12.18572,10.25855 -18.90549,24.11093 -14.93282,30.78308 10.64996,17.88674 26.65278,14.81751 45.47334,-8.72149 z M 414.31708,33.429185 c 4.48033,-7.524759 1.86474,-13.681358 -5.8124,-13.681358 -7.67713,0 -13.95844,6.156599 -13.95844,13.681358 0,7.52476 2.61557,13.68138 5.8124,13.68138 3.19683,0 9.47812,-6.15662 13.95844,-13.68138 z"
       id="path2890"
       inkscape:connector-curvature="0" />
  </g>
</svg>
