<svg width="12" height="12" viewBox="0 0 12 12" xmlns="http://www.w3.org/2000/svg">
  <title>
    Expirement Icon
  </title>
    <path d="M10.989 9.065L7.857 3.83V.43h.429V0H4v.429h.429V3.83L1.325 9.065C1.1 9.49.99 9.905 1 10.285 1.029 11.265 1.77 12 2.744 12h6.854c.972 0 1.664-.74 1.687-1.714a2.44 2.44 0 0 0-.296-1.22zm-1.23.337l-.004-.004-1.799-2.97h-3.62l-1.782 2.97-.005.001-.004.008a1.38 1.38 0 0 0-.223.662c0 .347.12.451.16.485.119.1.338.16.635.16h6.052c.275 0 .488-.067.616-.183.112-.102.173-.267.179-.477a1.244 1.244 0 0 0-.2-.648l-.005-.004zM4.857.857h1.286v.429H4.857V.857zm0 1.286h.857v.428h-.857v-.428zm0 1.286h1.286v.428H4.857V3.43zM4.41 4.714h1.305v.429H4.156l.253-.429zm5.983 5.359c-.019.649-.425 1.07-1.223 1.07H3.117c-.8 0-1.224-.328-1.224-1.067 0-.253.108-.616.293-.899L4.093 6h4.105l1.924 3.18c.186.284.278.638.27.893z" />
</svg>
