<svg width="14" height="14" viewBox="0 0 14 14" xmlns="http://www.w3.org/2000/svg"><title>Eye Icon</title><path d="M7 3C4.44 3 2.447 4.525 0 7c2.106 2.116 3.875 4 7 4 3.122 0 5.419-2.388 7-3.956C12.381 5.206 10.088 3 7 3zm0 6.853C5.456 9.853 4.2 8.572 4.2 7c0-1.575 1.256-2.853 2.8-2.853 1.544 0 2.8 1.281 2.8 2.853 0 1.575-1.256 2.853-2.8 2.853z"/><path d="M7 6c0-.247.09-.472.237-.647A1.491 1.491 0 0 0 7 5.334c-.9 0-1.634.747-1.634 1.666 0 .919.734 1.666 1.634 1.666.9 0 1.634-.747 1.634-1.666 0-.072-.006-.144-.012-.216A1 1 0 0 1 7 6z"/></svg>