<svg width="14" height="14" viewBox="0 0 14 14" xmlns="http://www.w3.org/2000/svg"><title>Chatbox Icon</title><path d="M8.099 10.159c-.075-.052-.208-.13-.505-.13H4.245c-1 0-1.86-.753-1.86-1.708V5.413h-.052A1.31 1.31 0 0 0 1 6.726v3.718c0 .721.617 1.171 1.376 1.171h.47V13l1.532-1.298c.055-.04.153-.087.38-.087H7.35c.663 0 1.367-.328 1.497-.923L8.1 10.16z"/><path d="M11.183 1H4.914c-1 0-1.606.773-1.606 1.725v4.852c0 .955.807 1.73 1.808 1.73h2.917c.3 0 .432.067.505.122l2.154 1.725V9.308h.49C12.188 9.308 13 8.532 13 7.58V2.725C13 1.773 12.187 1 11.183 1z"/></svg>