<svg width="12" height="12" viewBox="0 0 12 12" xmlns="http://www.w3.org/2000/svg">
  <title>
    Smile Icon
  </title>
  <path d="M6 0a6 6 0 1 0 0 12A6 6 0 0 0 6 0zM1.91 5.928a.397.397 0 0 1-.101-.595c.282-.362.635-.619 1.195-.619s.915.257 1.196.621c.146.19.1.456-.102.593A.464.464 0 0 1 3.833 6a.458.458 0 0 1-.368-.167c-.09-.118-.204-.262-.461-.262-.256 0-.37.145-.463.264A.457.457 0 0 1 2.175 6a.467.467 0 0 1-.266-.072zm7.793 1.544C9.07 8.698 7.616 9.429 6 9.429c-1.657 0-3.149-.757-3.711-1.974a.426.426 0 0 1 .771-.357c.427.923 1.608 1.473 2.94 1.473 1.302 0 2.459-.542 2.948-1.49a.424.424 0 1 1 .755.39zm.395-1.544A.464.464 0 0 1 9.833 6a.458.458 0 0 1-.368-.167c-.09-.118-.204-.262-.461-.262-.256 0-.37.145-.463.263A.457.457 0 0 1 8.175 6a.467.467 0 0 1-.266-.072.397.397 0 0 1-.1-.595c.282-.362.635-.619 1.195-.619s.915.257 1.196.621c.146.19.1.456-.102.593z" />
</svg>
