%FSLAX23Y23*%
%MOIN*%
G70*
G01*
G75*
G04 Layer_Physical_Order=1*
%ADD10R,0.057X0.022*%
%ADD11C,0.015*%
%ADD12C,0.150*%
%ADD13C,0.065*%
%ADD14R,0.053X0.053*%
%ADD15C,0.053*%
%ADD16O,0.063X0.055*%
%ADD17R,0.063X0.055*%
D10*
X818Y157D02*
D03*
Y83D02*
D03*
X902Y157D02*
D03*
Y120D02*
D03*
Y83D02*
D03*
D11*
X1129Y307D02*
X1161Y275D01*
X855Y325D02*
X873Y307D01*
X510Y280D02*
X555Y325D01*
X510Y153D02*
Y280D01*
Y153D02*
X580Y83D01*
X640Y181D02*
X701Y120D01*
X640Y181D02*
Y224D01*
X614Y250D02*
X640Y224D01*
X943Y194D02*
X964Y173D01*
X854Y194D02*
X943D01*
X1075Y106D02*
X1194Y225D01*
X941Y157D02*
X992Y106D01*
X590Y375D02*
X798D01*
X860Y437D01*
X992Y106D02*
X1040D01*
X1075D01*
X902Y157D02*
X941D01*
X1194Y225D02*
X1350D01*
X580Y83D02*
X818D01*
X555Y325D02*
X690D01*
X855D01*
X1161Y275D02*
X1250D01*
X873Y307D02*
X1040D01*
X1129D01*
X690Y225D02*
X758Y157D01*
X817D01*
X818D01*
X817D02*
X817Y158D01*
X854Y194D01*
X964Y173D02*
X1040D01*
X701Y120D02*
X902D01*
X590Y250D02*
X614D01*
X590D02*
Y275D01*
X860Y240D02*
X1040D01*
X590Y275D02*
X825D01*
X860Y240D01*
D12*
X340Y500D02*
D03*
Y100D02*
D03*
X1600D02*
D03*
Y500D02*
D03*
D13*
X690Y425D02*
D03*
X590Y375D02*
D03*
X690Y325D02*
D03*
X590Y275D02*
D03*
X690Y225D02*
D03*
X590Y175D02*
D03*
X1250D02*
D03*
X1350Y225D02*
D03*
X1250Y275D02*
D03*
X1350Y325D02*
D03*
X1250Y375D02*
D03*
X1350Y425D02*
D03*
D14*
X860Y240D02*
D03*
D15*
Y437D02*
D03*
D16*
X1040Y106D02*
D03*
Y173D02*
D03*
Y240D02*
D03*
Y307D02*
D03*
D17*
Y374D02*
D03*
M02*
