<?xml version="1.0" encoding="UTF-8" standalone="no"?>
<!-- Created with Inkscape (http://www.inkscape.org/) -->

<svg
   xmlns:dc="http://purl.org/dc/elements/1.1/"
   xmlns:cc="http://creativecommons.org/ns#"
   xmlns:rdf="http://www.w3.org/1999/02/22-rdf-syntax-ns#"
   xmlns:svg="http://www.w3.org/2000/svg"
   xmlns="http://www.w3.org/2000/svg"
   xmlns:sodipodi="http://sodipodi.sourceforge.net/DTD/sodipodi-0.dtd"
   xmlns:inkscape="http://www.inkscape.org/namespaces/inkscape"
   width="400"
   height="1052.36"
   id="svg3324"
   version="1.1"
   inkscape:version="0.48.1 r9760"
   sodipodi:docname="aj.svg"
   inkscape:export-filename="/home/robert/documents/aj-large.png"
   inkscape:export-xdpi="300"
   inkscape:export-ydpi="300">
  <defs
     id="defs3326">
    <inkscape:perspective
       sodipodi:type="inkscape:persp3d"
       inkscape:vp_x="0 : 526.18109 : 1"
       inkscape:vp_y="0 : 1000 : 0"
       inkscape:vp_z="744.09448 : 526.18109 : 1"
       inkscape:persp3d-origin="372.04724 : 350.78739 : 1"
       id="perspective3332" />
    <inkscape:perspective
       id="perspective3402"
       inkscape:persp3d-origin="0.5 : 0.33333333 : 1"
       inkscape:vp_z="1 : 0.5 : 1"
       inkscape:vp_y="0 : 1000 : 0"
       inkscape:vp_x="0 : 0.5 : 1"
       sodipodi:type="inkscape:persp3d" />
    <inkscape:perspective
       id="perspective3520"
       inkscape:persp3d-origin="0.5 : 0.33333333 : 1"
       inkscape:vp_z="1 : 0.5 : 1"
       inkscape:vp_y="0 : 1000 : 0"
       inkscape:vp_x="0 : 0.5 : 1"
       sodipodi:type="inkscape:persp3d" />
  </defs>
  <sodipodi:namedview
     id="base"
     pagecolor="#ffffff"
     bordercolor="#666666"
     borderopacity="1.0"
     inkscape:pageopacity="0.0"
     inkscape:pageshadow="2"
     inkscape:zoom="0.35"
     inkscape:cx="375"
     inkscape:cy="563.11433"
     inkscape:document-units="px"
     inkscape:current-layer="layer1"
     showgrid="false"
     inkscape:window-width="685"
     inkscape:window-height="701"
     inkscape:window-x="4"
     inkscape:window-y="46"
     inkscape:window-maximized="0" />
  <metadata
     id="metadata3329">
    <rdf:RDF>
      <cc:Work
         rdf:about="">
        <dc:format>image/svg+xml</dc:format>
        <dc:type
           rdf:resource="http://purl.org/dc/dcmitype/StillImage" />
        <dc:title />
      </cc:Work>
    </rdf:RDF>
  </metadata>
  <g
     inkscape:label="Layer 1"
     inkscape:groupmode="layer"
     id="layer1"
     transform="translate(0,-0.00210937)">
    <g
       id="g3552"
       transform="matrix(1.7683594,0,0,1.7683594,-187.34094,-113.09179)">
      <path
         style="fill:#999999;fill-opacity:1"
         d="m 154.01581,618.87003 -8.38996,-35.73659 0,-22.46149 0,-22.46144 -5.73068,-21.33935 c -3.15188,-11.73662 -9.59132,-32.21281 -14.30988,-45.50261 l -8.5792,-24.16326 1.8779,-33.20335 1.87789,-33.20334 -3.54495,-2.1909 -3.54495,-2.1909 1.70873,-10.91868 c 0.9398,-6.00528 3.8261,-23.6044 6.41401,-39.10916 l 4.70529,-28.19048 9.00952,-12.08163 c 4.95523,-6.6449 15.11062,-18.04115 22.56753,-25.325 l 13.55802,-13.24336 9.14504,-2.29526 c 10.68552,-2.68189 10.37028,-1.04403 4.60652,-23.93399 l -4.53852,-18.02413 -8.022,-4.29324 -8.02199,-4.29324 1.9887,-17.64372 1.9887,-17.64372 -5.40894,-7.12836 c -2.97492,-3.9206 -5.46658,-10.29979 -5.53703,-14.17598 l -0.12808,-7.04762 4.02722,0 4.02721,0 0,-7.26442 0,-7.26441 14.09523,-13.66165 14.09524,-13.661639 0,3.50561 0,3.50561 10.27503,-9.652888 10.27503,-9.652888 14.06605,-0.89985 14.06605,-0.89985 -7.41524,6.830331 c -4.07838,3.756681 -5.51757,5.718168 -3.19822,4.35886 5.3548,-3.138293 17.31872,-3.528977 31.06426,-1.014408 l 10.73839,1.964453 1.89285,4.932685 1.89285,4.932685 -13.16239,-1.536635 -13.16239,-1.536634 -2.68946,4.35164 -2.68946,4.351638 12.21981,-2.44396 12.21981,-2.443961 2.50649,6.531811 2.50649,6.53182 5.37228,0 c 2.95475,0 6.68264,2.12021 8.2842,4.71158 l 2.91192,4.71159 -6.9648,-2.67264 -6.9648,-2.67265 2.41353,7.60438 2.41354,7.60438 -6.21057,-0.5821 -6.21057,-0.5821 -2.04891,38.93736 -2.04891,38.93736 -5.97235,14.29384 c -3.28479,7.86161 -5.97235,15.86143 -5.97235,17.77737 l 0,3.48354 9.06123,-0.78072 9.06122,-0.78072 10.74605,5.41435 10.74605,5.41436 10.62611,21.71897 10.6261,21.71897 2.38954,36.88287 2.38953,36.88287 -5.34755,9.99198 -5.34755,9.99199 5.26938,32.44753 5.26937,32.44753 -2.84912,59.10686 -2.84913,59.1069 -5.73235,8.91954 -5.73235,8.91951 0,32.35941 0,32.35936 -3.71665,0 -3.71665,0 2.25066,-29.75887 2.25066,-29.75892 -8.60631,-2.73153 -8.60631,-2.73154 -4.16463,-7.78166 -4.16463,-7.7817 3.54474,0 c 1.94961,0 6.88673,3.69287 10.9714,8.20637 l 7.42666,8.20637 4.1092,-7.19957 c 2.26005,-3.95975 5.16145,-16.50701 6.44755,-27.88276 l 2.33836,-20.68315 -10.22964,1.57923 c -5.6263,0.86863 -18.89602,2.6611 -29.48827,3.98336 l -19.25862,2.40408 1.46963,30.34137 1.46963,30.34141 -7.19987,1.8828 -7.19987,1.88281 -1.20456,24.74773 -1.20457,24.74778 -3.51828,-57.35309 -3.51829,-57.35308 -16.36688,2.61717 -16.36689,2.61716 -13.12185,13.12186 c -7.21702,7.217 -16.83675,14.30091 -21.37719,15.74201 l -8.25533,2.62014 0,5.51949 c 0,6.41229 10.99714,54.88819 14.55536,64.16076 l 2.41522,6.29397 -4.12254,0 -4.12254,0 -8.38996,-35.73662 z m 87.16959,-63.93685 -1.57973,-15.10204 0,30.20408 0,30.20408 1.57973,-15.10204 c 0.86885,-8.30612 0.86885,-21.89796 0,-30.20408 z m -87.01351,4.32925 -4.2739,-7.34966 -0.12247,6.3764 c -0.13024,6.78215 4.1045,12.88869 6.9587,10.03449 0.94136,-0.94137 -0.21171,-5.01892 -2.56234,-9.06123 z m 20.97889,-0.55837 6.61,-7.30399 -4.67279,-4.67278 -4.67278,-4.67277 -3.11333,-46.39423 -3.11333,-46.3942 -3.57376,-6.38594 -3.57375,-6.38594 3.80052,-22.05925 c 2.09029,-12.13259 3.14942,-22.62024 2.35363,-23.3059 -0.79579,-0.68566 -10.25318,-2.19363 -21.01643,-3.35103 l -19.56954,-2.10438 1.52237,41.12584 1.52236,41.12584 7.12633,10.87616 7.12632,10.87613 4.05811,21.95237 c 2.23197,12.07382 6.68213,26.98284 9.88924,33.13118 3.20712,6.14834 5.84229,13.44412 5.85593,16.21283 l 0.0248,5.03401 3.40304,0 c 1.87167,0 6.37754,-3.28677 10.01304,-7.30395 z m 14.77439,-14.60803 c 0,-0.97675 -1.81224,-2.89596 -4.02721,-4.26489 l -4.02721,-2.48894 0,4.26486 0,4.26489 4.02721,0 c 2.21497,0 4.02721,-0.79916 4.02721,-1.77592 z m 94.63946,-13.55567 12.08163,-3.41084 -1.14254,-27.88051 c -0.6284,-15.33425 -3.03191,-55.97025 -5.34113,-90.30223 l -4.1986,-62.42177 -3.95979,-16.10884 c -2.17789,-8.85987 -4.88017,-19.28027 -6.00508,-23.15646 l -2.04529,-7.04762 3.65217,0 c 2.00869,0 5.42964,4.07755 7.6021,9.06122 l 3.94994,9.06123 1.08774,20.10284 c 0.59826,11.05657 1.937,21.47698 2.97498,23.15647 l 1.88724,3.05361 9.83035,0 9.83036,0 0,-10.29907 c 0,-5.66449 -2.11999,-23.33388 -4.71108,-39.26531 l -4.71109,-28.96623 -9.98618,-16.10885 c -5.4924,-8.85986 -11.89242,-17.34744 -14.22227,-18.86128 l -4.23609,-2.75245 -6.67643,10.9785 c -3.67203,6.03818 -12.50802,15.88547 -19.63553,21.88288 l -12.95911,10.90437 -10.27055,2.57774 -10.27055,2.57774 -12.57553,-7.26059 c -6.91653,-3.99332 -17.19727,-12.66028 -22.84607,-19.2599 l -10.27054,-11.9993 -8.1442,4.35864 -8.14419,4.35864 -10.62878,15.34275 -10.62878,15.34274 -6.2888,29.9085 -6.28881,29.90849 4.13266,4.13265 4.13264,4.13265 26.75771,1.7038 26.75771,1.70381 -2.19409,-25.67692 c -1.20676,-14.12231 -3.47932,-28.84835 -5.05013,-32.72454 l -2.85604,-7.04762 4.38136,0 4.38135,0 3.00562,11.07483 3.00562,11.07483 -0.18372,27.62133 -0.18372,27.62134 -8.67559,6.60996 -8.6756,6.60995 -0.27074,22.14966 c -0.32943,26.95219 3.63887,95.35095 6.23389,107.44869 l 1.88377,8.78198 9.05458,2.01872 c 12.63073,2.81599 83.02064,-0.57924 97.65322,-4.71023 z m 27.85489,-31.98813 2.71806,-31.21089 -6.05014,-37.37867 -6.05013,-37.37867 2.26935,-5.91385 2.26936,-5.91384 -6.47168,0 -6.47169,0 0.11748,15.10204 c 0.0646,8.30612 2.05321,38.66122 4.41912,67.45578 2.36591,28.79456 4.51364,55.52517 4.77272,59.40136 0.25907,3.87619 1.66095,7.04762 3.11528,7.04762 l 2.64422,0 2.71806,-31.21088 z M 237.83759,265.084 l 12.49574,-10.96483 0,-5.14402 0,-5.14402 -3.40304,0 c -1.87167,0 -6.68316,3.62449 -10.69219,8.05443 -9.125,10.083 -12.05611,10.05487 -26.53451,-0.25465 l -11.66903,-8.3091 -4.0547,2.50594 c -2.23008,1.37827 -4.05469,4.95054 -4.05469,7.93838 l 0,5.43243 13.08844,8.09149 c 17.43976,10.78157 20.22403,10.60519 34.82398,-2.20605 z m 1.08953,-23.08402 10.66114,-9.88557 4.03298,-13.27089 c 2.21814,-7.29899 5.06853,-21.87217 6.33421,-32.38485 l 2.30124,-19.11395 -7.74588,4.83738 -7.74588,4.83738 -2.31974,9.24256 -2.31973,9.24256 -9.71992,0 -9.71991,0 -2.55638,-8.05442 -2.55637,-8.05442 -5.6766,0 -5.67659,0 -6.16483,-9.40873 -6.16484,-9.40873 2.59044,-12.95217 2.59043,-12.95217 13.87154,-10.58033 13.87154,-10.58034 3.29763,5.33568 3.29764,5.33569 13.49606,-2.59291 13.49606,-2.5929 -5.22464,3.37027 -5.22464,3.37026 6.32364,5.24816 6.32363,5.24814 -2.53667,-6.61043 -2.53666,-6.61044 7.47849,-0.46717 7.47848,-0.46716 -7.09692,-1.85123 -7.09692,-1.85123 2.29306,-3.71025 2.29305,-3.71024 -9.29137,3.25273 c -5.11025,1.78899 -12.00974,3.09899 -15.33219,2.91108 l -6.04081,-0.34165 0.55933,-6.95046 0.55934,-6.95048 -3.34207,0 c -1.83814,0 -4.48037,1.84181 -5.87162,4.09291 l -2.52956,4.0929 -3.29262,-2.03496 -3.29263,-2.03495 -4.93983,5.95213 -4.93984,5.95213 -3.5709,-2.20693 -3.5709,-2.20694 0,6.51616 0,6.51616 -4.02721,-2.48895 -4.02721,-2.48895 -0.73772,13.32611 c -0.40575,7.32936 -0.49582,17.56299 -0.20016,22.7414 l 0.53758,9.41528 -5.54623,-2.12828 -5.54622,-2.12829 -4.55181,5.4846 -4.55182,5.48459 9.29139,-2.04611 9.29139,-2.04612 -6.04082,4.31489 -6.04082,4.31489 5.03402,0.0617 5.03401,0.0617 0,4.49691 0,4.49691 -8.2844,-2.16642 -8.28439,-2.16642 1.74018,4.71713 1.74018,4.71713 5.16835,-1.21939 5.16836,-1.21938 3.3278,5.24659 c 1.83029,2.88563 3.35555,10.4115 3.38946,16.72415 l 0.0617,11.47755 13.69252,13.69252 13.69251,13.69252 5.47789,0 5.47789,0 10.66114,-9.88558 z m -30.2083,-20.98971 c -3.08358,-3.08358 -3.67409,-17.45125 -0.71723,-17.45125 1.08216,0 5.51994,3.04164 9.86172,6.75919 l 7.89415,6.75919 -2.04497,3.30884 c -2.46275,3.9848 -11.26649,4.35121 -14.99367,0.62403 z m 31.54649,-41.66966 0,-5.98567 -5.98567,0 -5.98566,0 -1.42768,7.41334 -1.42768,7.41335 7.41334,-1.42768 7.41335,-1.42768 0,-5.98566 z m -14.09524,-12.16902 10.06803,-8.01787 -7.04762,2.49746 -7.04762,2.49747 0,-6.2304 0,-6.2304 11.07483,1.31313 c 14.99637,1.77812 14.67586,1.5071 9.35878,7.91379 l -4.71588,5.68229 4.39918,2.71884 4.39918,2.71884 5.8644,-4.86702 5.86441,-4.86703 0,-10.96435 0,-10.96436 -7.04762,-6.11783 -7.04762,-6.11784 -14.96324,-0.41929 -14.96323,-0.4193 -6.17962,8.82265 -6.17963,8.82265 0,10.38011 0,10.38011 4.83266,4.83265 c 6.30773,6.30774 7.43089,6.11226 19.33061,-3.3643 z m -48.11355,-26.23677 -3.54789,-11.8792 -0.34614,6.71825 c -0.38641,7.49982 3.91211,20.56997 6.05901,18.42307 0.76061,-0.76061 -0.21364,-6.72856 -2.16497,-13.26212 z m -1.21978,458.54201 c -3.87619,-1.01292 -7.04762,-3.26977 -7.04762,-5.01517 l 0,-3.17348 9.49291,1.8147 9.49292,1.8147 8.20233,-10.42757 c 9.10345,-11.57316 13.08395,-13.1213 13.08395,-5.08875 l 0,5.3388 -9.32079,8.75644 c -9.42325,8.85266 -11.20584,9.29863 -23.9037,5.98033 z"
         id="path3542"
         inkscape:connector-curvature="0" />
      <path
         style="fill:#808080;fill-opacity:1"
         d="m 154.01581,618.87003 -8.38996,-35.73659 0,-22.46149 0,-22.46144 -5.97845,-22.95281 c -3.28814,-12.62406 -9.76376,-33.06997 -14.39025,-45.4354 l -8.4118,-22.48253 1.95827,-33.27058 1.95826,-33.27059 -3.54495,-2.1909 -3.54495,-2.1909 1.70873,-10.91868 c 0.9398,-6.00528 3.8261,-23.6044 6.41401,-39.10916 l 4.70529,-28.19048 9.04646,-12.08163 c 4.97556,-6.6449 14.26255,-17.30089 20.63775,-23.67999 l 11.59129,-11.59835 11.07483,-3.89765 11.07483,-3.89765 0,-5.0459 c 0,-2.77525 -2.05353,-11.20613 -4.56341,-18.73529 l -4.56341,-13.68939 -8.12028,-6.51228 -8.12029,-6.51227 2.19317,-16.35131 2.19317,-16.35131 -6.23807,-8.9061 -6.23808,-8.9061 4.64697,-7.44098 c 2.55583,-4.09253 4.64697,-9.82843 4.64697,-12.74643 l 0,-5.30545 14.09523,-13.66165 14.09524,-13.661639 0,3.50561 0,3.50561 10.27503,-9.652888 10.27503,-9.652888 14.06605,-0.89985 14.06605,-0.89985 -7.41524,6.830331 c -4.07838,3.756681 -5.51757,5.718168 -3.19822,4.35886 5.3548,-3.138293 17.31872,-3.528977 31.06426,-1.014408 l 10.73839,1.964453 1.89285,4.932685 1.89285,4.932685 -13.16239,-1.536635 -13.16239,-1.536634 -2.68946,4.35164 -2.68946,4.351638 12.21981,-2.44396 12.21981,-2.443961 2.50649,6.531811 2.50649,6.53182 5.37228,0 c 2.95475,0 6.68264,2.12021 8.2842,4.71158 l 2.91192,4.71159 -6.9648,-2.67264 -6.9648,-2.67265 2.41353,7.60438 2.41354,7.60438 -6.20321,-0.5821 -6.2032,-0.5821 -1.95677,36.65742 -1.95678,36.65741 -6.07185,17.20946 c -3.33951,9.4652 -6.07185,18.79385 -6.07185,20.73034 l 0,3.52088 14.09524,0 14.09524,0 7.84025,7.84025 c 11.94445,11.94445 19.08371,28.05449 24.39396,55.046 l 4.82497,24.52484 -2.59792,23.75024 c -1.42886,13.06263 -2.44495,32.81146 -2.25797,43.88629 0.18698,11.07484 0.43657,53.13509 0.55466,93.46722 l 0.21469,73.3312 -6.4183,12.86577 -6.41829,12.86582 0,31.59894 0,31.59895 -3.71665,0 -3.71665,0 2.28433,-30.20408 2.28433,-30.20408 -4.45161,0 c -5.03356,0 -21.67165,-16.65381 -19.15369,-19.17178 0.89951,-0.89952 5.65529,2.38435 10.56839,7.29742 l 8.93292,8.93292 4.32798,-7.59049 4.32798,-7.59052 2.32157,-20.5306 2.32156,-20.5306 -8.19924,0.61656 c -4.50958,0.33909 -17.78353,2.1186 -29.49766,3.9544 l -21.29841,3.33787 1.38572,30.24653 1.38573,30.24649 -7.08978,1.85405 -7.08978,1.85401 -1.20456,24.74773 -1.20457,24.74778 -3.49263,-56.85512 -3.49263,-56.85512 -17.60908,0.47417 -17.60909,0.47416 -0.0246,2.47126 c -0.0469,4.71646 -22.22279,24.67097 -31.23546,28.10659 l -9.06123,3.4541 0,5.8906 c 0,6.69532 10.89188,54.98492 14.55536,64.53178 l 2.4152,6.29397 -4.12254,0 -4.12254,0 -8.38996,-35.73662 z m 87.16959,-63.93685 -1.57973,-15.10204 0,30.20408 0,30.20408 1.57973,-15.10204 c 0.86885,-8.30612 0.86885,-21.89796 0,-30.20408 z m -87.01351,4.32925 -4.2739,-7.34966 -0.12247,6.3764 c -0.13024,6.78215 4.1045,12.88869 6.9587,10.03449 0.94136,-0.94137 -0.21171,-5.01892 -2.56234,-9.06123 z m 20.97889,-0.55837 6.61,-7.30399 -4.45738,-4.45736 -4.45737,-4.4574 -4.26669,-47.64001 c -2.34668,-26.202 -4.02242,-60.77879 -3.72385,-76.83729 l 0.54283,-29.19728 -13.58407,0 c -7.47124,0 -16.45065,-1.10001 -19.95426,-2.44448 l -6.37019,-2.44447 0.17675,35.66897 0.17676,35.66896 6.26673,16.10884 c 3.4467,8.85987 9.55364,27.88844 13.57098,42.28572 8.76816,31.4232 16.89974,52.35374 20.33961,52.35374 1.38607,0 5.49463,-3.28677 9.13013,-7.30395 z m 14.77439,-14.60803 c 0,-0.97675 -1.81224,-2.89596 -4.02721,-4.26489 l -4.02721,-2.48894 0,4.26486 0,4.26489 4.02721,0 c 2.21497,0 4.02721,-0.79916 4.02721,-1.77592 z m 94.63946,-13.58692 12.08163,-3.44206 -0.9281,-23.82204 c -0.51045,-13.10212 -2.91546,-53.72408 -5.34447,-90.27102 l -4.41639,-66.44898 -5.19122,-23.15646 -5.19122,-23.15646 3.01838,0 c 4.14642,0 8.39175,14.59699 10.54131,36.2449 0.98972,9.96734 2.5748,20.38775 3.5224,23.15646 l 1.72291,5.03401 10.19443,0 10.19442,0 0,-10.29907 c 0,-5.66449 -2.13572,-23.23131 -4.74603,-39.03737 l -4.74603,-28.7383 -9.48095,-16.96327 -9.48096,-16.96327 -5.70291,-2.18842 -5.70291,-2.18841 -2.39173,7.53566 -2.39172,7.53566 -15.83535,14.30629 -15.83535,14.30629 -9.73582,2.44353 -9.73581,2.44353 -13.52218,-6.89922 -13.52218,-6.89922 -10.27055,-12.12308 -10.27054,-12.12308 -8.1442,4.35864 -8.14419,4.35864 -10.62878,15.34275 -10.62878,15.34274 -6.2888,29.9085 -6.28881,29.90849 4.13266,4.13265 4.13264,4.13265 26.66672,1.69801 26.66671,1.69801 -1.92402,-25.67113 c -1.05821,-14.11912 -3.28982,-28.84255 -4.95914,-32.71874 l -3.03511,-7.04762 3.96822,0 3.96821,0 4.12542,16.25284 4.12541,16.25285 -1.625,22.99744 -1.625,22.99745 -7.94097,6.05583 -7.94097,6.05583 -0.27074,22.14966 c -0.32943,26.95219 3.63887,95.35095 6.23389,107.44869 l 1.88377,8.78198 9.05458,2.01872 c 4.98002,1.11026 26.2709,1.27211 47.31308,0.35963 l 38.2585,-1.65901 12.08164,-3.4421 z m 28.05579,-31.95688 2.71724,-31.21089 -4.56408,-28.19048 c -2.51025,-15.50476 -4.66414,-34.98639 -4.78643,-43.29251 l -0.22235,-15.10204 -5.56607,0 -5.56608,0 0.14961,15.10204 c 0.12034,12.1466 3.45552,58.89408 9.05055,126.85714 0.31912,3.87619 1.81548,7.04762 3.32528,7.04762 l 2.74508,0 2.71724,-31.21088 z m -74.33385,-233.23713 12.04676,-10.73371 0,-5.37513 0,-5.37513 -3.40304,0 c -1.87167,0 -6.68316,3.62449 -10.69219,8.05443 -9.03616,9.98484 -13.41198,9.98484 -26.17687,0 -5.53742,-4.33144 -12.33334,-7.91562 -15.10205,-7.96488 l -5.03401,-0.0896 0,7.68372 0,7.68371 13.08844,8.09149 c 7.19864,4.45032 15.36943,8.24163 18.15731,8.42513 l 5.06888,0.33364 12.04677,-10.73372 z m 0.46434,-22.6356 10.56724,-8.91639 4.16804,-14.09524 c 2.29242,-7.75238 5.20358,-22.69652 6.46926,-33.2092 l 2.30124,-19.11395 -7.71668,4.81915 -7.71668,4.81914 -1.88987,7.22687 -1.88987,7.22686 -7.05042,2.70551 -7.05043,2.7055 -7.06588,-8.726 c -3.88624,-4.7993 -8.8188,-8.72599 -10.96125,-8.72599 -2.14246,0 -6.22005,-2.80106 -9.06132,-6.22458 l -5.16594,-6.22458 0.54392,-14.46825 0.54392,-14.46826 12.90867,-11.52485 c 13.75643,-12.28173 19.51242,-14.33803 19.51242,-6.97072 l 0,4.55415 15.10204,-2.4264 15.10204,-2.4264 -5.22464,3.26176 -5.22464,3.26175 7.0045,5.68533 7.0045,5.68533 -2.87136,-4.7865 -2.87137,-4.7865 7.13232,-4.15226 7.13232,-4.15226 -7.28529,-0.12246 -7.28529,-0.12247 1.94049,-3.13978 1.9405,-3.13979 -8.95381,0.39197 c -4.92459,0.21558 -11.00237,1.65804 -13.50618,3.20547 l -4.55237,2.81352 -2.52956,-4.0929 -2.52955,-4.0929 2.48896,-4.02721 2.48895,-4.02722 -3.45944,0 c -1.9027,0 -5.63414,2.1747 -8.2921,4.83266 l -4.83265,4.83265 0,-3.44322 0,-3.44321 -8.05442,7.28915 c -4.42994,4.00903 -8.05443,5.97271 -8.05443,4.36372 0,-1.60899 -2.78662,-0.13882 -6.19249,3.26706 l -6.19249,6.19249 -0.85513,20.31476 -0.85512,20.31476 -4.73958,-1.81695 -4.73957,-1.81694 -4.89127,5.89362 -4.89128,5.89363 7.27108,-2.79018 7.27109,-2.79017 -2.91193,4.71159 -2.91192,4.71159 4.26489,0 4.26488,0 0,4.49691 0,4.49691 -8.2844,-2.16642 -8.28439,-2.16642 1.65457,4.71713 1.65458,4.71713 6.55668,-1.16655 6.55669,-1.16655 2.73817,17.27539 2.73817,17.27539 13.04108,13.08844 13.04109,13.08844 5.43674,-0.14482 c 2.9902,-0.0797 10.19199,-4.15721 16.00397,-9.06123 z m -30.03209,-21.66923 c -3.08358,-3.08358 -3.67409,-17.45125 -0.71723,-17.45125 1.08216,0 5.57435,3.08823 9.98264,6.86272 l 8.01506,6.86272 -4.94862,3.14364 c -6.13032,3.89432 -8.88945,4.02457 -12.33185,0.58217 z m 31.54649,-41.61451 0,-5.93051 -7.04762,-1.35725 -7.04762,-1.35725 0,8.64501 0,8.645 7.04762,-1.35724 7.04762,-1.35725 0,-5.93051 z m -18.12245,-7.62356 c 0,-1.97799 2.94807,-4.72762 6.55126,-6.11029 l 6.55125,-2.51396 5.53038,4.58981 5.53037,4.5898 6.04082,-5.01343 6.04082,-5.01344 -0.12808,-10.58172 -0.12808,-10.58172 -5.05543,-6.64489 -5.05543,-6.6449 -15.95935,-0.0411 -15.95935,-0.0411 -7.04762,6.30332 -7.04762,6.30332 0,12.66563 0,12.66563 4.83266,4.83265 c 2.65796,2.65796 7.18857,4.83266 10.06802,4.83266 l 5.23538,0 0,-3.59635 z m 0,-14.5261 0,-6.04082 4.02721,0 4.02721,0 0,6.04082 0,6.04081 -4.02721,0 -4.02721,0 0,-6.04081 z m 13.97024,1.81136 -2.69514,-4.36084 2.48399,-2.48399 2.48399,-2.48399 4.31099,4.31099 4.31099,4.31099 -4.09983,2.53384 -4.09984,2.53384 -2.69515,-4.36084 z m -58.05658,-18.12264 -3.54789,-11.8792 -0.34614,6.71825 c -0.38641,7.49982 3.91211,20.56997 6.05901,18.42307 0.76061,-0.76061 -0.21364,-6.72856 -2.16497,-13.26212 z m 40.05913,-54.640257 0,-4.027211 -4.02721,2.488953 c -2.21497,1.368924 -4.02721,4.301198 -4.02721,6.516164 l 0,4.027211 4.02721,-2.488953 c 2.21496,-1.368924 4.02721,-4.301198 4.02721,-6.516164 z m 27.09977,6.096663 -2.43311,-2.433107 -5.28571,2.115169 -5.28571,2.115169 7.71882,0.317938 7.71882,0.317938 -2.43311,-2.433107 z M 176.83674,599.47683 c -3.87619,-1.01292 -7.04762,-3.20723 -7.04762,-4.87615 l 0,-3.03442 11.96735,1.75643 11.96735,1.75643 4.78792,-10.50837 c 2.63335,-5.77957 6.30927,-10.50832 8.1687,-10.50832 5.23141,0 4.09181,3.79891 -4.94787,16.49397 l -8.32865,11.69651 -4.75978,-0.46716 c -2.61788,-0.25693 -7.93121,-1.29596 -11.8074,-2.30892 z"
         id="path3540"
         inkscape:connector-curvature="0" />
      <path
         style="fill:#666666;fill-opacity:1"
         d="m 154.01581,618.87003 -8.38996,-35.73659 0,-22.46149 0,-22.46144 -5.97845,-22.95281 c -3.28814,-12.62406 -9.76376,-33.06997 -14.39025,-45.4354 l -8.4118,-22.48253 1.95827,-33.27058 1.95826,-33.27059 -3.54495,-2.1909 -3.54495,-2.1909 1.70873,-10.91868 c 0.9398,-6.00528 3.8261,-23.6044 6.41401,-39.10916 l 4.70529,-28.19048 9.04646,-12.08163 c 4.97556,-6.6449 14.26255,-17.30089 20.63775,-23.67999 l 11.59129,-11.59835 11.07483,-3.89765 11.07483,-3.89765 0,-5.0459 c 0,-2.77525 -2.05353,-11.20613 -4.56341,-18.73529 l -4.56341,-13.68939 -8.12028,-6.51228 -8.12029,-6.51227 2.19317,-16.35131 2.19317,-16.35131 -6.23807,-8.9061 -6.23808,-8.9061 4.64697,-7.44098 c 2.55583,-4.09253 4.64697,-9.82843 4.64697,-12.74643 l 0,-5.30545 14.09523,-13.66165 14.09524,-13.661639 0,3.50561 0,3.50561 10.27503,-9.652888 10.27503,-9.652888 14.06605,-0.89985 14.06605,-0.89985 -7.41524,6.830331 c -4.07838,3.756681 -5.51757,5.718168 -3.19822,4.35886 5.3548,-3.138293 17.31872,-3.528977 31.06426,-1.014408 l 10.73839,1.964453 1.89285,4.932685 1.89285,4.932685 -13.16239,-1.536635 -13.16239,-1.536634 -2.68946,4.35164 -2.68946,4.351638 12.21981,-2.44396 12.21981,-2.443961 2.50649,6.531811 2.50649,6.53182 5.37228,0 c 2.95475,0 6.68264,2.12021 8.2842,4.71158 l 2.91192,4.71159 -6.9648,-2.67264 -6.9648,-2.67265 2.41353,7.60438 2.41354,7.60438 -6.20321,-0.5821 -6.2032,-0.5821 -1.95677,36.65742 -1.95678,36.65741 -6.07185,17.20946 c -3.33951,9.4652 -6.07185,18.79385 -6.07185,20.73034 l 0,3.52088 14.09524,0 14.09524,0 7.84025,7.84025 c 11.94445,11.94445 19.08371,28.05449 24.39396,55.046 l 4.82497,24.52484 -2.59792,23.75024 c -1.42886,13.06263 -2.44495,32.81146 -2.25797,43.88629 0.18698,11.07484 0.43657,53.13509 0.55466,93.46722 l 0.21469,73.3312 -6.4183,12.86577 -6.41829,12.86582 0,31.59894 0,31.59895 -3.71665,0 -3.71665,0 2.28433,-30.20408 2.28433,-30.20408 -4.45161,0 c -5.03356,0 -21.67165,-16.65381 -19.15369,-19.17178 0.89951,-0.89952 5.65529,2.38435 10.56839,7.29742 l 8.93292,8.93292 4.32798,-7.59049 4.32798,-7.59052 2.32157,-20.5306 2.32156,-20.5306 -8.19924,0.61656 c -4.50958,0.33909 -17.78353,2.1186 -29.49766,3.9544 l -21.29841,3.33787 1.38572,30.24653 1.38573,30.24649 -7.08978,1.85405 -7.08978,1.85401 -1.20456,24.74773 -1.20457,24.74778 -3.49263,-56.85512 -3.49263,-56.85512 -17.60908,0.47417 -17.60909,0.47416 -0.0246,2.47126 c -0.0469,4.71646 -22.22279,24.67097 -31.23546,28.10659 l -9.06123,3.4541 0,5.8906 c 0,6.69532 10.89188,54.98492 14.55536,64.53178 l 2.4152,6.29397 -4.12254,0 -4.12254,0 -8.38996,-35.73662 z m 87.16959,-63.93685 -1.57973,-15.10204 0,30.20408 0,30.20408 1.57973,-15.10204 c 0.86885,-8.30612 0.86885,-21.89796 0,-30.20408 z m -87.01351,4.32925 -4.2739,-7.34966 -0.12247,6.3764 c -0.13024,6.78215 4.1045,12.88869 6.9587,10.03449 0.94136,-0.94137 -0.21171,-5.01892 -2.56234,-9.06123 z m 20.97889,-0.55837 6.61,-7.30399 -4.45738,-4.45736 -4.45737,-4.4574 -4.26669,-47.64001 c -2.34668,-26.202 -4.02242,-60.77879 -3.72385,-76.83729 l 0.54283,-29.19728 -13.58407,0 c -7.47124,0 -16.45065,-1.10001 -19.95426,-2.44448 l -6.37019,-2.44447 0.17675,35.66897 0.17676,35.66896 6.26673,16.10884 c 3.4467,8.85987 9.55364,27.88844 13.57098,42.28572 8.76816,31.4232 16.89974,52.35374 20.33961,52.35374 1.38607,0 5.49463,-3.28677 9.13013,-7.30395 z m 14.77439,-14.60803 c 0,-0.97675 -1.81224,-2.89596 -4.02721,-4.26489 l -4.02721,-2.48894 0,4.26486 0,4.26489 4.02721,0 c 2.21497,0 4.02721,-0.79916 4.02721,-1.77592 z m 94.63946,-13.58692 12.08163,-3.44206 -0.9281,-23.82204 c -0.51045,-13.10212 -2.91546,-53.72408 -5.34447,-90.27102 l -4.41639,-66.44898 -5.19122,-23.15646 -5.19122,-23.15646 3.01838,0 c 4.14642,0 8.39175,14.59699 10.54131,36.2449 0.98972,9.96734 2.5748,20.38775 3.5224,23.15646 l 1.72291,5.03401 10.19443,0 10.19442,0 0,-10.29907 c 0,-5.66449 -2.13572,-23.23131 -4.74603,-39.03737 l -4.74603,-28.7383 -9.48095,-16.96327 -9.48096,-16.96327 -5.70291,-2.18842 -5.70291,-2.18841 -2.39173,7.53566 -2.39172,7.53566 -15.83535,14.30629 -15.83535,14.30629 -9.73582,2.44353 -9.73581,2.44353 -13.52218,-6.89922 -13.52218,-6.89922 -10.27055,-12.12308 -10.27054,-12.12308 -8.1442,4.35864 -8.14419,4.35864 -10.62878,15.34275 -10.62878,15.34274 -6.2888,29.9085 -6.28881,29.90849 4.13266,4.13265 4.13264,4.13265 26.66672,1.69801 26.66671,1.69801 -1.92402,-25.67113 c -1.05821,-14.11912 -3.28982,-28.84255 -4.95914,-32.71874 l -3.03511,-7.04762 3.96822,0 3.96821,0 4.12542,16.25284 4.12541,16.25285 -1.625,22.99744 -1.625,22.99745 -7.94097,6.05583 -7.94097,6.05583 -0.27074,22.14966 c -0.32943,26.95219 3.63887,95.35095 6.23389,107.44869 l 1.88377,8.78198 9.05458,2.01872 c 4.98002,1.11026 26.2709,1.27211 47.31308,0.35963 l 38.2585,-1.65901 12.08164,-3.4421 z m 28.05579,-31.95688 2.71724,-31.21089 -4.56408,-28.19048 c -2.51025,-15.50476 -4.66414,-34.98639 -4.78643,-43.29251 l -0.22235,-15.10204 -5.56607,0 -5.56608,0 0.14961,15.10204 c 0.12034,12.1466 3.45552,58.89408 9.05055,126.85714 0.31912,3.87619 1.81548,7.04762 3.32528,7.04762 l 2.74508,0 2.71724,-31.21088 z m -74.33385,-233.23713 12.04676,-10.73371 0,-5.37513 0,-5.37513 -3.40304,0 c -1.87167,0 -6.68316,3.62449 -10.69219,8.05443 -9.03616,9.98484 -13.41198,9.98484 -26.17687,0 -5.53742,-4.33144 -12.33334,-7.91562 -15.10205,-7.96488 l -5.03401,-0.0896 0,7.68372 0,7.68371 13.08844,8.09149 c 7.19864,4.45032 15.36943,8.24163 18.15731,8.42513 l 5.06888,0.33364 12.04677,-10.73372 z m 0.46434,-22.6356 10.56724,-8.91639 4.16804,-14.09524 c 2.29242,-7.75238 5.20358,-22.69652 6.46926,-33.2092 l 2.30124,-19.11395 -7.71668,4.81915 -7.71668,4.81914 -1.88987,7.22687 -1.88987,7.22686 -7.05042,2.70551 -7.05043,2.7055 -7.06588,-8.726 c -3.88624,-4.7993 -8.8188,-8.72599 -10.96125,-8.72599 -2.14246,0 -6.22005,-2.80106 -9.06132,-6.22458 l -5.16594,-6.22458 0.54392,-14.46825 0.54392,-14.46826 12.90867,-11.52485 c 13.75643,-12.28173 19.51242,-14.33803 19.51242,-6.97072 l 0,4.55415 15.10204,-2.4264 15.10204,-2.4264 -5.22464,3.26176 -5.22464,3.26175 7.0045,5.68533 7.0045,5.68533 -2.87136,-4.7865 -2.87137,-4.7865 7.13232,-4.15226 7.13232,-4.15226 -7.28529,-0.12246 -7.28529,-0.12247 1.94049,-3.13978 1.9405,-3.13979 -8.95381,0.39197 c -4.92459,0.21558 -11.00237,1.65804 -13.50618,3.20547 l -4.55237,2.81352 -2.52956,-4.0929 -2.52955,-4.0929 2.48896,-4.02721 2.48895,-4.02722 -3.45944,0 c -1.9027,0 -5.63414,2.1747 -8.2921,4.83266 l -4.83265,4.83265 0,-3.44322 0,-3.44321 -8.05442,7.28915 c -4.42994,4.00903 -8.05443,5.97271 -8.05443,4.36372 0,-1.60899 -2.78662,-0.13882 -6.19249,3.26706 l -6.19249,6.19249 -0.85513,20.31476 -0.85512,20.31476 -4.73958,-1.81695 -4.73957,-1.81694 -4.89127,5.89362 -4.89128,5.89363 7.27108,-2.79018 7.27109,-2.79017 -2.91193,4.71159 -2.91192,4.71159 4.26489,0 4.26488,0 0,4.49691 0,4.49691 -8.2844,-2.16642 -8.28439,-2.16642 1.65457,4.71713 1.65458,4.71713 6.55668,-1.16655 6.55669,-1.16655 2.73817,17.27539 2.73817,17.27539 13.04108,13.08844 13.04109,13.08844 5.43674,-0.14482 c 2.9902,-0.0797 10.19199,-4.15721 16.00397,-9.06123 z m -30.03209,-21.66923 c -3.08358,-3.08358 -3.67409,-17.45125 -0.71723,-17.45125 1.08216,0 5.57435,3.08823 9.98264,6.86272 l 8.01506,6.86272 -4.94862,3.14364 c -6.13032,3.89432 -8.88945,4.02457 -12.33185,0.58217 z m 31.54649,-41.61451 0,-5.93051 -7.04762,-1.35725 -7.04762,-1.35725 0,8.64501 0,8.645 7.04762,-1.35724 7.04762,-1.35725 0,-5.93051 z m -18.12245,-7.62356 c 0,-1.97799 2.94807,-4.72762 6.55126,-6.11029 l 6.55125,-2.51396 5.53038,4.58981 5.53037,4.5898 6.04082,-5.01343 6.04082,-5.01344 -0.12808,-10.58172 -0.12808,-10.58172 -5.05543,-6.64489 -5.05543,-6.6449 -15.95935,-0.0411 -15.95935,-0.0411 -7.04762,6.30332 -7.04762,6.30332 0,12.66563 0,12.66563 4.83266,4.83265 c 2.65796,2.65796 7.18857,4.83266 10.06802,4.83266 l 5.23538,0 0,-3.59635 z m 0,-14.5261 0,-6.04082 4.02721,0 4.02721,0 0,6.04082 0,6.04081 -4.02721,0 -4.02721,0 0,-6.04081 z m 13.97024,1.81136 -2.69514,-4.36084 2.48399,-2.48399 2.48399,-2.48399 4.31099,4.31099 4.31099,4.31099 -4.09983,2.53384 -4.09984,2.53384 -2.69515,-4.36084 z m -58.05658,-18.12264 -3.54789,-11.8792 -0.34614,6.71825 c -0.38641,7.49982 3.91211,20.56997 6.05901,18.42307 0.76061,-0.76061 -0.21364,-6.72856 -2.16497,-13.26212 z m 40.05913,-54.640257 0,-4.027211 -4.02721,2.488953 c -2.21497,1.368924 -4.02721,4.301198 -4.02721,6.516164 l 0,4.027211 4.02721,-2.488953 c 2.21496,-1.368924 4.02721,-4.301198 4.02721,-6.516164 z m 27.09977,6.096663 -2.43311,-2.433107 -5.28571,2.115169 -5.28571,2.115169 7.71882,0.317938 7.71882,0.317938 -2.43311,-2.433107 z M 176.83674,599.47683 c -3.87619,-1.01292 -7.04762,-3.20723 -7.04762,-4.87615 l 0,-3.03442 11.96735,1.75643 11.96735,1.75643 4.78792,-10.50837 c 2.63335,-5.77957 6.30927,-10.50832 8.1687,-10.50832 5.23141,0 4.09181,3.79891 -4.94787,16.49397 l -8.32865,11.69651 -4.75978,-0.46716 c -2.61788,-0.25693 -7.93121,-1.29596 -11.8074,-2.30892 z"
         id="path3538"
         inkscape:connector-curvature="0" />
      <path
         style="fill:#4d4d4d;fill-opacity:1"
         d="m 154.10167,619.02974 -8.87357,-37.59051 0.8364,-23.17748 0.83639,-23.17749 -2.72249,-4.40508 c -1.49737,-2.42281 -4.3316,-12.22822 -6.29829,-21.78983 -1.96669,-9.5616 -7.43266,-27.35209 -12.1466,-39.5344 l -8.57079,-22.14966 2.12169,-33.00427 2.1217,-33.00427 -3.30177,-2.0406 -3.30176,-2.0406 3.18862,-21.33609 c 1.75374,-11.73484 4.43379,-30.13844 5.95567,-40.89688 l 2.76706,-19.56081 21.97138,-23.73171 21.97138,-23.73172 4.60022,-0.0617 c 2.53013,-0.0338 7.14893,-1.6752 10.264,-3.64729 l 5.66376,-3.58562 -5.22592,-18.66518 -5.22593,-18.66518 -7.54833,-4.03974 -7.54834,-4.03975 1.64979,-17.66022 1.64979,-17.66021 -5.97331,-8.5281 -5.97331,-8.5281 2.58943,-6.74797 2.58944,-6.74797 3.80494,5.92795 3.80494,5.92796 -2.28377,-12.08164 -2.28376,-12.08163 14.37102,-13.87844 14.37103,-13.878449 0,3.557067 0,3.557066 12.27224,-11.757552 12.27224,-11.757551 3.3332,5.393235 3.33321,5.393236 2.75468,-4.457167 2.75468,-4.457167 6.24929,0 6.24929,0 -7.68357,7.047619 c -4.22596,3.87619 -5.78591,5.935457 -3.46656,4.576149 5.40334,-3.166743 17.35936,-3.52485 31.40069,-0.940515 l 11.07483,2.038346 0,3.437875 0,3.437876 -11.94298,-0.339566 -11.94297,-0.339567 2.53559,-4.102671 2.53559,-4.102672 -7.03084,2.697985 c -3.86695,1.483892 -8.80181,2.697985 -10.96634,2.697985 l -3.93551,0 2.38025,3.851327 2.38025,3.851326 6.57249,-2.5221 6.57249,-2.522101 -3.01168,4.873008 -3.01169,4.873008 9.82653,-2.4663 9.82653,-2.466303 5.61294,5.586143 c 3.08713,3.07238 9.23744,7.8206 13.66738,10.5516 l 8.05442,4.96546 -10.06803,-2.65854 -10.06803,-2.65854 5.03402,5.28529 c 2.7687,2.90691 5.03401,6.53372 5.03401,8.05959 l 0,2.7743 -6.28915,-0.55933 -6.28915,-0.55934 -1.76742,37.68259 -1.76743,37.68259 -7.68942,17.38321 -7.68942,17.38321 2.32196,2.32196 c 1.27708,1.27707 8.36277,2.32195 15.746,2.32195 l 13.42403,0 7.84025,7.84025 c 4.31214,4.31214 10.80789,13.57903 14.435,20.5931 l 6.59476,12.75285 4.39959,37.59677 4.39959,37.59678 -5.13024,15.54479 -5.13024,15.54478 4.48755,36.90783 4.48756,36.90783 -2.64005,51.45277 -2.64006,51.45273 -5.48383,10.87484 -5.48383,10.87484 0,32.41768 0,32.41768 -3.71665,0 -3.71665,0 2.30102,-30.42473 2.30101,-30.42474 -7.84516,-2.05154 -7.84515,-2.05158 -4.86857,-7.79579 c -6.42077,-10.28131 -2.8779,-9.90062 7.86812,0.84539 l 8.64122,8.64122 5.08505,-9.70517 5.08505,-9.70518 2.0307,-18.46685 2.03071,-18.46686 -8.70936,0.62357 c -4.79015,0.34312 -18.22365,2.11634 -29.85222,3.94079 l -21.14286,3.31721 0,31.69887 0,31.69886 -5.84865,0 -5.84864,0 -1.21553,25.17007 -1.21553,25.17007 -3.538,-57.73575 -3.538,-57.73575 -13.06415,2.45088 -13.06415,2.45084 -10.56497,-4.01682 -10.56496,-4.01678 0,3.92754 0,3.92753 6.79427,0 6.79427,0 -11.82828,12.48694 c -6.50556,6.8678 -15.90584,14.07196 -20.88951,16.00917 l -9.06123,3.52224 0,6.35228 c 0,3.49376 2.86597,18.95298 6.36881,34.3538 l 6.36881,28.00152 -1.72133,5.01118 -1.72132,5.01118 -8.87357,-37.59052 z m 87.08373,-64.09656 -1.57973,-15.10204 0,30.20408 0,30.20408 1.57973,-15.10204 c 0.86885,-8.30612 0.86885,-21.89796 0,-30.20408 z m -87.05206,1.86258 -4.48028,-4.48027 0,6.17505 c 0,3.3963 1.32143,7.49649 2.93651,9.11156 l 2.93651,2.93652 1.54376,-4.63129 1.54377,-4.63129 -4.48027,-4.48028 z m 21.54795,2.74475 6.46748,-6.46746 -4.67462,-5.63258 -4.67462,-5.63258 -4.24344,-47.30128 c -2.33389,-26.01574 -3.99917,-60.4401 -3.7006,-76.4986 l 0.54283,-29.19728 -13.58407,0 c -7.47124,0 -16.45065,-1.10001 -19.95426,-2.44448 l -6.37019,-2.44447 0.17675,35.66897 0.17676,35.66896 6.2242,16.10884 c 3.42331,8.85987 8.08706,23.35783 10.36388,32.21769 6.34322,24.68354 20.84073,62.42177 23.97993,62.42177 1.54135,0 5.71283,-2.91039 9.26994,-6.4675 z m 112.17265,-29.49686 10.53124,-4.00398 -1.79603,-25.32193 c -0.98781,-13.9271 -3.79736,-54.3179 -6.24345,-89.75735 l -4.44742,-64.43538 -5.16171,-23.15646 -5.16171,-23.15646 3.01838,0 c 4.14642,0 8.39175,14.59699 10.54131,36.2449 0.98972,9.96734 2.5748,20.38775 3.5224,23.15646 l 1.72291,5.03401 10.19443,0 10.19442,0 0,-13.42357 c 0,-7.38297 -1.96787,-24.14623 -4.37304,-37.25171 l -4.37304,-23.82812 -8.25003,-16.10884 c -4.53752,-8.85987 -10.96008,-18.29295 -14.27236,-20.96242 l -6.02233,-4.85357 -8.59784,12.75835 -8.59785,12.75834 -16.71387,11.74695 -16.71386,11.74695 -11.22013,-2.81608 -11.22013,-2.81607 -17.5758,-17.5758 -17.57581,-17.57581 -15.88653,16.36999 -15.88652,16.36998 -5.67056,20.61507 c -3.11881,11.33829 -6.80938,27.42371 -8.20128,35.74539 l -2.53072,15.13032 10.51798,3.99893 10.51799,3.99893 19.87389,0 19.87388,0 0,-19.15584 0,-19.15584 -3.95693,-13.797 -3.95693,-13.79701 4.02721,4.02721 c 2.21497,2.21496 5.64509,9.66842 7.62249,16.56322 l 3.59529,12.53602 -1.65502,23.42222 -1.65501,23.42223 -8.4646,6.38486 -8.46461,6.38486 0.0988,23.83424 c 0.11998,28.9322 4.33691,93.00936 6.91606,105.09051 l 1.87152,8.76643 7.04487,2.12391 7.04487,2.12391 42.69196,-1.70049 42.69196,-1.70049 10.53124,-4.00397 z m 24.91597,-33.50503 2.75145,-33.22449 -4.66216,-25.61901 c -2.56418,-14.09045 -4.75786,-32.55345 -4.87483,-41.02889 l -0.21267,-15.40989 -5.56952,-2.13723 -5.56953,-2.13723 0.14961,16.98926 c 0.0823,9.34408 2.00266,40.54843 4.26748,69.34299 2.26481,28.79456 4.12235,55.52517 4.12787,59.40136 l 0.0101,7.04762 3.41541,0 3.4154,0 2.75145,-33.22449 z M 230.19728,272.293 l 0,-3.75583 7.84842,-2.49099 7.84842,-2.491 2.58732,-8.15191 2.58731,-8.15191 -2.39719,-2.39719 -2.3972,-2.3972 -9.3049,8.7415 c -11.68929,10.98152 -13.22289,10.92069 -29.05147,-1.15236 l -12.97153,-9.89387 -2.51064,2.51065 c -1.38086,1.38086 -2.51065,5.65513 -2.51065,9.49839 l 0,6.98774 13.08844,8.38206 13.08843,8.38205 7.04762,0.0679 7.04762,0.0678 0,-3.75582 z m 6.54977,-27.15207 10.2936,-6.74463 4.03035,-10.37102 c 2.21669,-5.70406 5.51409,-20.33836 7.32756,-32.52068 1.81347,-12.18231 4.62848,-25.50204 6.25559,-29.59939 l 2.95837,-7.44974 -10.06802,10.06802 c -5.53742,5.53742 -11.19638,13.00845 -12.57547,16.60231 l -2.50744,6.53427 -6.75942,2.59384 -6.75943,2.59384 -7.06588,-8.726 c -3.88624,-4.7993 -8.8188,-8.72599 -10.96125,-8.72599 -2.14246,0 -6.22005,-2.80106 -9.06132,-6.22458 l -5.16594,-6.22458 0.52747,-14.03058 0.52746,-14.03057 13.0973,-11.96253 c 13.92506,-12.71858 19.3567,-14.79743 19.3567,-7.4084 l 0,4.55415 15.10204,-2.4264 15.10204,-2.4264 -5.22464,3.26176 -5.22464,3.26175 7.0045,5.68533 7.0045,5.68533 -2.87136,-4.7865 -2.87137,-4.7865 7.13232,-4.15226 7.13232,-4.15226 -7.28529,-0.12246 -7.28529,-0.12247 2.46044,-3.98108 2.46045,-3.98107 -6.30127,2.41802 -6.30127,2.41802 -6.76258,-5.48456 -6.76259,-5.48456 3.02434,5.03401 3.02433,5.03401 -6.70936,0 -6.70935,0 2.41913,-6.30415 2.41913,-6.30416 -9.03588,2.75329 c -4.96974,1.51431 -12.20732,5.53817 -16.08351,8.94193 -3.87619,3.40375 -7.04762,4.8722 -7.04762,3.26321 0,-1.60899 -2.71836,-0.20708 -6.04081,3.11538 l -6.04082,6.04082 -0.0617,9.34888 c -0.0339,5.14189 -1.79193,12.06725 -3.9067,15.3897 l -3.84502,6.04082 -2.66549,-13.22827 c -1.46603,-7.27555 -3.50496,-12.38881 -4.53097,-11.3628 -1.026,1.02601 -0.6429,7.43179 0.85136,14.23507 l 2.71682,12.3696 5.72083,0 5.72083,0 0,3.90082 0,3.90082 -5.3956,-2.07049 -5.3956,-2.07048 -5.24205,6.31628 -5.24205,6.31628 5.74597,-2.20493 5.74596,-2.20494 0.64016,8.49835 0.64016,8.49835 -6.15302,-2.36113 -6.15301,-2.36114 1.76112,5.03675 1.76111,5.03676 6.55668,-1.16655 6.55669,-1.16655 2.73817,17.27539 2.73817,17.27539 13.04108,13.08844 c 14.93321,14.98742 18.28649,15.6424 32.47794,6.34381 z m -30.71304,-33.56161 0,-8.08855 8.05443,5.03007 c 4.42993,2.76654 8.05442,6.40639 8.05442,8.08855 l 0,3.05848 -8.05442,0 -8.05443,0 0,-8.08855 z m 34.2313,-32.18356 0,-5.93051 -7.04762,-1.35725 -7.04762,-1.35725 0,8.64501 0,8.645 7.04762,-1.35724 7.04762,-1.35725 0,-5.93051 z m -18.12245,-7.62356 c 0,-1.97799 2.94807,-4.72762 6.55126,-6.11029 l 6.55125,-2.51396 5.35397,4.4434 5.35396,4.44339 4.18197,-2.5846 c 2.30008,-1.42153 5.87065,-5.73994 7.93461,-9.59647 l 3.75264,-7.01187 -6.12283,-12.64225 -6.12282,-12.64224 -16.73741,0.15943 -16.73742,0.15946 -7.04762,6.24789 -7.04762,6.24789 0,12.66563 0,12.66563 4.83266,4.83265 c 2.65796,2.65796 7.18857,4.83266 10.06802,4.83266 l 5.23538,0 0,-3.59635 z m 0,-14.5261 0,-6.04082 4.02721,0 4.02721,0 0,6.04082 0,6.04081 -4.02721,0 -4.02721,0 0,-6.04081 z m 14.42929,2.55412 -3.15419,-5.1036 2.41687,-2.41687 2.41687,-2.41687 2.43311,2.4331 c 1.33821,1.33821 1.67,4.72242 0.73732,7.52047 l -1.69579,5.08736 -3.15419,-5.10359 z m -18.4565,-73.505657 0,-4.027211 -4.02721,2.488953 c -2.21497,1.368924 -4.02721,4.301198 -4.02721,6.516164 l 0,4.027211 4.02721,-2.488953 c 2.21496,-1.368924 4.02721,-4.301198 4.02721,-6.516164 z M 176.83674,599.47683 c -3.87619,-1.01292 -7.04762,-3.26977 -7.04762,-5.01517 l 0,-3.17348 10.48555,2.00447 10.48556,2.00442 9.50567,-11.6241 9.50566,-11.62414 0.14482,4.44596 c 0.17652,5.41901 -18.34094,25.94216 -22.81933,25.29096 -1.76698,-0.25693 -6.38412,-1.29596 -10.26031,-2.30892 z"
         id="path3536"
         inkscape:connector-curvature="0" />
      <path
         style="fill:#333333;fill-opacity:1"
         d="m 232.69295,599.38859 -3.51203,-57.23166 -16.60746,0.2509 c -9.13411,0.13809 -21.13808,-0.97277 -26.6755,-2.46852 l -10.06803,-2.71958 7.7772,6.31036 7.77719,6.31036 -9.18179,9.7736 c -5.04998,5.37544 -14.14337,11.82868 -20.20751,14.34053 l -11.02572,4.56702 7.37511,34.70771 c 9.03794,42.53307 6.82997,49.22364 -2.78421,8.43669 l -6.94921,-29.48112 -1.10795,-34.23129 -1.10795,-34.2313 8.20913,21.14286 c 8.95161,23.05514 9.99245,23.81399 21.31078,15.53783 l 7.66532,-5.60499 -5.39039,-6.49505 -5.3904,-6.49505 -3.36227,-45.28767 c -1.84926,-24.90826 -4.3586,-49.81834 -5.57633,-55.35575 l -2.21405,-10.06803 5.90308,12.08164 5.90308,12.08163 0.18163,37.35137 0.18163,37.35138 10.33019,3.92754 10.3302,3.92753 21.34434,0 21.34434,0 0.10833,11.07483 c 0.0596,6.09116 0.30402,20.69608 0.54315,32.45538 l 0.43485,21.3805 4.52194,-2.79468 4.52194,-2.79473 -1.90824,-29.73455 -1.90825,-29.73451 8.46114,-1.67886 c 21.56258,-4.27839 41.44304,-7.13871 49.51501,-7.12397 l 8.83619,0.0161 1.75809,-10.63481 1.7581,-10.63478 -0.0484,28.19048 -0.0484,28.19047 -5.3577,13.21123 -5.3577,13.21126 -0.68513,32.09486 -0.68513,32.0949 -3.05061,0 -3.0506,0 2.09104,-35.2381 2.09105,-35.23809 3.05318,-4.02721 c 1.67925,-2.21497 4.3594,-13.73867 5.95589,-25.60823 l 2.90271,-21.58102 -21.58103,3.21565 c -11.86956,1.76863 -25.65858,3.32498 -30.64225,3.45857 l -9.0612,0.24292 0,30.78001 0,30.78002 -5.8434,2.24235 -5.8434,2.24231 -1.22077,25.37219 -1.22078,25.37224 -3.51203,-57.23167 z M 157.30367,560.974 c -6.9339,-13.32717 -7.65061,-13.48436 -7.65061,-1.67802 l 0,10.73924 6.18251,0 6.18251,0 -4.71441,-9.06122 z m 19.53307,38.50283 c -3.87619,-1.01292 -7.04762,-3.20723 -7.04762,-4.87615 l 0,-3.03442 11.72345,1.72063 11.72345,1.72062 4.52708,-8.45891 4.52709,-8.45896 4.63897,0 4.63898,0 -11.57494,12.08163 c -6.36622,6.6449 -12.59507,11.87142 -13.84189,11.61448 -1.24683,-0.25693 -5.43838,-1.29596 -9.31457,-2.30892 z m 103.70068,-17.35998 c -4.00904,-4.42993 -6.10216,-8.05442 -4.65139,-8.05442 1.45078,0 6.26227,3.62449 10.6922,8.05442 l 8.05442,8.05442 -3.40304,0 c -1.87167,0 -6.68316,-3.62448 -10.69219,-8.05442 z m -138.9308,-60.40816 c -0.50949,-1.10748 -1.52166,-7.05451 -2.24926,-13.21566 -0.72761,-6.16111 -4.14546,-16.85992 -7.59524,-23.77516 -3.44978,-6.91524 -6.27232,-15.81228 -6.27232,-19.77119 l 0,-7.19802 -4.17108,-2.57787 -4.17108,-2.57787 0.93122,-15.78225 0.93122,-15.78225 3.54842,0 3.54841,0 -1.01861,13.08843 c -1.118,14.36556 0.94557,22.87851 13.10901,54.0792 l 8.13011,20.85471 -1.89723,7.33577 c -1.04347,4.03466 -2.31408,6.42964 -2.82357,5.32216 z m 155.53716,-10.22372 -2.51113,-6.54386 0.58578,-34.90875 0.58579,-34.90871 3.06504,40.27211 c 3.11203,40.88956 2.78016,47.83074 -1.72548,36.08921 z m 13.59772,-9.67465 c 0,-2.08424 1.79148,-4.89677 3.98108,-6.24999 l 3.98108,-2.46046 -2.39834,6.24999 c -2.67726,6.97682 -5.56382,8.25332 -5.56382,2.46046 z m 1.38969,-54.77872 c -1.3116,-3.41798 -1.48488,-7.11435 -0.38508,-8.21415 1.09981,-1.09981 2.96628,1.69671 4.1477,6.2145 2.50956,9.59656 -0.27876,11.07842 -3.76262,1.99965 z m -2.97243,-20.29174 c -1.34446,-3.50361 -2.44447,-15.08931 -2.44447,-25.74601 l 0,-19.37581 -6.04082,-2.31808 -6.04082,-2.31808 -0.5314,25.04368 -0.53139,25.04367 -5.41528,-52.20701 c -2.97841,-28.71386 -7.17562,-57.25672 -9.32714,-63.42858 l -3.91185,-11.22155 3.63523,0 3.63523,0 3.02122,15.10204 c 1.66168,8.30612 3.32951,16.46122 3.7063,18.12245 0.37678,1.66122 0.9116,9.36326 1.18847,17.11564 l 0.5034,14.09524 11.07483,0 11.07483,0 0,34.23129 c 0,18.82722 -0.25919,34.2313 -0.57593,34.2313 -0.31678,0 -1.67595,-2.86659 -3.02041,-6.37019 z m 1.58274,-54.03798 0,-4.02721 -11.07483,0.40144 -11.07483,0.40143 10.06802,3.22434 c 5.53742,1.77339 10.52109,3.40499 11.07483,3.62578 0.55375,0.22079 1.00681,-1.41081 1.00681,-3.62578 z m -149.0068,48.56421 c 0,-4.29921 1.55045,-8.77498 3.44545,-9.94616 l 3.44545,-2.1294 -1.90133,9.94615 c -2.27141,11.88213 -4.98957,13.04216 -4.98957,2.12941 z m -39.92423,-4.26489 c -0.5826,-1.10748 -1.8195,-16.51156 -2.74867,-34.23129 l -1.68939,-32.21769 4.28941,-20.13605 c 2.35918,-11.07483 5.15312,-24.32072 6.20877,-29.43531 l 1.91935,-9.29926 16.97918,-18.47892 16.97918,-18.47892 13.51164,-5.67718 13.51163,-5.67719 -2.414,-12.85756 c -1.3277,-7.07166 -3.19173,-15.57594 -4.14228,-18.89838 -0.95056,-3.32245 -1.86695,-7.18864 -2.03641,-8.59153 -0.16947,-1.40289 -3.93262,-3.49854 -8.36255,-4.65699 l -8.05442,-2.10628 0.12246,-7.42464 0.12247,-7.42465 4.01126,6.88036 4.01126,6.88035 5.82455,-2.23509 5.82455,-2.23509 2.70969,17.5044 2.70969,17.50439 15.68924,15.09934 15.68925,15.09934 12.27295,-9.05852 12.27296,-9.05852 5.79645,-13.85236 5.79647,-13.85237 1.81835,-21.36893 1.81837,-21.36893 -7.71427,4.81764 -7.71427,4.81764 -1.88987,7.22687 -1.88986,7.22686 -7.05043,2.70551 -7.05043,2.7055 -6.61702,-7.71919 C 218.68636,184.883 212.17271,179.41255 207.85095,176.972 l -7.85775,-4.43736 -1.13866,-15.69869 -1.13866,-15.6987 10.36286,-11.07483 c 5.69957,-6.09115 12.14062,-11.07483 14.31343,-11.07483 l 3.95058,0 4.34066,-9.52671 4.34067,-9.52673 12.68864,-6.684817 12.68864,-6.684818 -12.08163,2.436953 -12.08163,2.436954 -3.06903,5.449459 c -1.68796,2.997202 -8.37504,8.096449 -14.86017,11.331659 l -11.79114,5.88219 -2.22054,-2.22054 -2.22054,-2.22054 4.99908,-6.41136 4.99907,-6.411352 -7.00328,5.490322 -7.00327,5.49033 2.00628,3.24622 2.00627,3.24623 -5.45971,5.45971 -5.45972,5.45972 -2.95081,15.72918 -2.95081,15.72919 -3.64645,-5.76218 c -2.00555,-3.16921 -3.67421,-9.04058 -3.70812,-13.04749 l -0.0617,-7.28529 4.02721,2.48895 4.02721,2.48896 0,-6.77161 0,-6.77159 -6.04082,5.01343 -6.04081,5.01343 0,9.41804 0,9.41803 8.54752,7.96322 8.54751,7.96323 -8.50742,-2.22474 -8.50741,-2.22474 -4.15994,9.52044 -4.15994,9.52043 2.01953,-10.42368 2.01953,-10.42368 -5.82603,-7.69877 c -3.20432,-4.23432 -5.88367,-9.96407 -5.95412,-12.73278 l -0.12808,-5.03401 3.90082,0 3.90082,0 -2.19129,7.04762 -2.19129,7.04762 4.66829,-7.29223 4.66829,-7.29223 -1.94877,-5.07842 -1.94878,-5.07843 8.04475,-5.02403 8.04476,-5.02403 -2.30845,-2.30845 -2.30845,-2.30844 -7.14494,5.43257 c -3.92971,2.98792 -1.0362,-1.14355 6.43004,-9.18105 l 13.57497,-14.613626 4.95857,1.902783 4.95858,1.902783 6.72935,-10.270301 6.72936,-10.270301 4.69375,0 4.69375,0 -9.46101,8.814271 -9.46101,8.81427 8.2761,3.692898 8.2761,3.692897 8.2029,-8.202904 8.20291,-8.202907 14.8184,1.377226 14.81841,1.377225 4.58789,4.979259 4.5879,4.979258 -7.41097,-2.619366 -7.41098,-2.619365 -11.71828,6.922154 c -6.44505,3.807186 -11.71827,8.385446 -11.71827,10.173906 l 0,3.25176 9.87084,-6.46763 9.87085,-6.467624 8.2516,2.618964 c 4.53839,1.44042 8.47814,4.30908 8.75501,6.37478 0.27687,2.0657 0.72993,5.41705 1.0068,7.44743 0.27687,2.03039 1.86259,5.05079 3.52381,6.71202 1.66123,1.66122 3.02041,4.36095 3.02041,5.99939 l 0,2.97899 -7.07682,-1.85064 -7.07682,-1.85062 -0.84061,38.58888 -0.84061,38.58889 -7.82856,17.69776 -7.82857,17.69777 2.32196,2.32196 c 1.27708,1.27707 7.90971,2.37959 14.73919,2.45003 l 12.41724,0.12807 6.17872,4.90593 c 3.3983,2.69827 10.14638,11.72436 14.99573,20.05798 l 8.81699,15.15204 1.90771,19.07925 1.90771,19.07927 -5.3368,-20.87856 -5.3368,-20.87855 -8.62772,-13.95995 -8.62772,-13.95995 -6.08824,-2.33627 -6.08825,-2.33628 -3.471,8.9843 c -3.75758,9.72608 -16.52925,22.12439 -32.51605,31.5655 l -10.06803,5.94575 -8.64618,-0.60527 -8.64618,-0.60527 -12.32257,-8.77445 c -6.77742,-4.82594 -15.9476,-13.38293 -20.3782,-19.01551 l -8.05562,-10.24107 -9.30398,9.38452 c -5.11719,5.16149 -13.37895,14.06266 -18.35948,19.78037 l -9.05549,10.39585 -6.09529,31.85718 -6.09528,31.85717 6.92913,5.06671 6.92913,5.0667 23.39355,0 23.39354,0 0.47691,-7.04762 c 0.68762,-10.16159 0.75249,-9.09432 -2.01928,-33.22449 l -2.54428,-22.14966 4.84909,8.05443 4.8491,8.05442 -0.22062,29.72412 -0.22061,29.72413 -6.86939,3.8443 -6.86938,3.84431 -3.51494,8.71728 -3.5149,8.71729 -0.25527,-9.06123 -0.25527,-9.06122 -13.76587,0 c -7.57122,0 -16.52086,-1.0572 -19.88809,-2.34932 l -6.12223,-2.34933 -1.55799,17.45137 c -0.85689,9.59825 -2.03465,16.54524 -2.61726,15.43775 z m 55.02627,-36.02503 c 2.7687,-0.12092 5.03534,-1.57905 5.03697,-3.24027 l 0.003,-3.02041 -21.14582,0.52341 -21.14581,0.52341 -9.06123,-3.44414 -9.06122,-3.44414 0,3.31211 c 0,1.82167 3.90223,5.05335 8.67163,7.18151 l 8.67164,3.8694 16.49843,-1.02051 c 9.07414,-0.56127 18.76374,-1.11944 21.53245,-1.24037 z m 76.517,-110.76943 c 7.19864,-7.79663 13.08844,-16.01455 13.08844,-18.26205 0,-7.3505 -7.66634,-4.28881 -12.45686,4.97488 -2.5772,4.98367 -9.40584,12.94224 -15.17475,17.6857 l -10.48894,8.62448 -9.48742,-1.72039 c -5.21808,-0.94622 -14.7634,-5.62111 -21.21183,-10.38864 l -11.72442,-8.66823 0,-5.52114 0,-5.52114 -4.03317,2.49263 -4.03316,2.49264 7.05357,9.45383 c 3.87947,5.19962 11.58419,12.38451 17.1216,15.96644 l 10.06803,6.5126 14.09524,-1.97296 14.09524,-1.97296 13.08843,-14.17569 z m -13.6765,-4.03365 10.65609,-9.87573 0,-6.23311 c 0,-8.46465 -3.81455,-7.8369 -14.73828,2.42542 l -9.21659,8.65854 -15.77475,-10.43924 -15.77474,-10.43923 -2.4519,2.4519 c -1.34854,1.34854 -2.4519,5.25321 -2.4519,8.67703 l 0,6.22514 11.07483,9.06768 11.07483,9.06767 8.47316,0.14482 8.47316,0.14484 10.65609,-9.87573 z m 2.60167,-85.32099 0,-5.73634 -6.44726,-2.47405 -6.44726,-2.47404 -3.3904,5.48578 -3.3904,5.48578 4.09129,4.9297 4.09128,4.9297 5.74638,-2.20509 5.74637,-2.20509 0,-5.73635 z m -20.13605,-9.04107 0,-3.55751 8.07104,-2.11062 8.07104,-2.11063 -2.46109,-6.41349 -2.46109,-6.4135 4.71122,0 4.71122,0 -1.25995,8.68689 -1.25994,8.68687 4.77734,1.63119 4.77734,1.63119 6.63681,-10.12906 6.63682,-10.12907 -7.03321,-11.90628 -7.03321,-11.90627 -13.86445,-1.6186 -13.86445,-1.6186 -9.64575,7.58735 -9.64575,7.58735 0,12.9975 0,12.9975 4.83266,4.83265 c 2.65796,2.65796 7.18857,4.83266 10.06802,4.83266 l 5.23538,0 0,-3.55752 z m 2.34766,-12.01081 -3.1542,-5.1036 2.41687,-2.41687 2.41688,-2.41687 2.43311,2.4331 c 1.3382,1.33821 1.67,4.72242 0.73731,7.52047 l -1.69578,5.08736 -3.15419,-5.10359 z m 39.08324,-40.21369 -6.35508,-1.41466 5.61855,-3.62856 5.61855,-3.62856 -17.16085,1.26259 -17.16086,1.26258 -4.9888,5.22558 -4.98881,5.22558 14.94641,-1.62491 c 8.22052,-0.89369 14.12604,-0.80454 13.12337,0.19814 -1.00266,1.00267 0.21208,4.27518 2.69942,7.27225 l 4.52245,5.4492 5.24037,-7.09228 5.24037,-7.09228 -6.35509,-1.41467 z m -69.62138,-21.210334 0,-4.027211 -4.02721,2.488953 c -2.21496,1.368924 -4.02721,4.301202 -4.02721,6.516162 l 0,4.02721 4.02721,-2.48895 c 2.21497,-1.36893 4.02721,-4.3012 4.02721,-6.516164 z m 13.92965,116.996524 c -1.46,-2.36233 -1.82634,-5.12335 -0.81409,-6.13561 2.8089,-2.80889 15.07492,2.75208 15.07492,6.83441 l 0,3.59635 -5.80314,0 c -3.19173,0 -6.99769,-1.93282 -8.45769,-4.29515 z m -34.0657,-35.97696 0,-8.05442 3.1702,0 3.1702,0 0.60673,8.05442 0.60672,8.05442 -3.77693,0 -3.77692,0 0,-8.05442 z m 48.02172,-94.092892 c 5.36978,-5.838025 11.48147,-10.61459 13.58155,-10.61459 l 3.81832,0 -5.19591,6.260687 c -2.85775,3.443378 -8.96944,8.219944 -13.58154,10.61459 l -8.38564,4.353902 9.76322,-10.614589 z"
         id="path3534"
         inkscape:connector-curvature="0" />
      <path
         style="fill:#1a1a1a;fill-opacity:1"
         d="m 232.69295,599.38859 -3.51203,-57.23166 -16.60746,0.2509 c -9.13411,0.13809 -21.13808,-0.97277 -26.6755,-2.46852 l -10.06803,-2.71958 7.7772,6.31036 7.77719,6.31036 -9.18179,9.7736 c -5.04998,5.37544 -14.14337,11.82868 -20.20751,14.34053 l -11.02572,4.56702 7.37511,34.70771 c 9.03794,42.53307 6.82997,49.22364 -2.78421,8.43669 l -6.94921,-29.48112 -1.10795,-34.23129 -1.10795,-34.2313 8.20913,21.14286 c 8.95161,23.05514 9.99245,23.81399 21.31078,15.53783 l 7.66532,-5.60499 -5.39039,-6.49505 -5.3904,-6.49505 -3.36227,-45.28767 c -1.84926,-24.90826 -4.3586,-49.81834 -5.57633,-55.35575 l -2.21405,-10.06803 5.90308,12.08164 5.90308,12.08163 0.18163,37.35137 0.18163,37.35138 10.33019,3.92754 10.3302,3.92753 21.34434,0 21.34434,0 0.10833,11.07483 c 0.0596,6.09116 0.30402,20.69608 0.54315,32.45538 l 0.43485,21.3805 4.52194,-2.79468 4.52194,-2.79473 -1.90824,-29.73455 -1.90825,-29.73451 8.46114,-1.67886 c 21.56258,-4.27839 41.44304,-7.13871 49.51501,-7.12397 l 8.83619,0.0161 1.75809,-10.63481 1.7581,-10.63478 -0.0484,28.19048 -0.0484,28.19047 -5.3577,13.21123 -5.3577,13.21126 -0.68513,32.09486 -0.68513,32.0949 -3.05061,0 -3.0506,0 2.09104,-35.2381 2.09105,-35.23809 3.05318,-4.02721 c 1.67925,-2.21497 4.3594,-13.73867 5.95589,-25.60823 l 2.90271,-21.58102 -21.58103,3.21565 c -11.86956,1.76863 -25.65858,3.32498 -30.64225,3.45857 l -9.0612,0.24292 0,30.78001 0,30.78002 -5.8434,2.24235 -5.8434,2.24231 -1.22077,25.37219 -1.22078,25.37224 -3.51203,-57.23167 z M 157.30367,560.974 c -6.9339,-13.32717 -7.65061,-13.48436 -7.65061,-1.67802 l 0,10.73924 6.18251,0 6.18251,0 -4.71441,-9.06122 z m 19.53307,38.50283 c -3.87619,-1.01292 -7.04762,-3.20723 -7.04762,-4.87615 l 0,-3.03442 11.72345,1.72063 11.72345,1.72062 4.52708,-8.45891 4.52709,-8.45896 4.63897,0 4.63898,0 -11.57494,12.08163 c -6.36622,6.6449 -12.59507,11.87142 -13.84189,11.61448 -1.24683,-0.25693 -5.43838,-1.29596 -9.31457,-2.30892 z m 103.70068,-17.35998 c -4.00904,-4.42993 -6.10216,-8.05442 -4.65139,-8.05442 1.45078,0 6.26227,3.62449 10.6922,8.05442 l 8.05442,8.05442 -3.40304,0 c -1.87167,0 -6.68316,-3.62448 -10.69219,-8.05442 z m -138.9308,-60.40816 c -0.50949,-1.10748 -1.52166,-7.05451 -2.24926,-13.21566 -0.72761,-6.16111 -4.14546,-16.85992 -7.59524,-23.77516 -3.44978,-6.91524 -6.27232,-15.81228 -6.27232,-19.77119 l 0,-7.19802 -4.17108,-2.57787 -4.17108,-2.57787 0.93122,-15.78225 0.93122,-15.78225 3.54842,0 3.54841,0 -1.01861,13.08843 c -1.118,14.36556 0.94557,22.87851 13.10901,54.0792 l 8.13011,20.85471 -1.89723,7.33577 c -1.04347,4.03466 -2.31408,6.42964 -2.82357,5.32216 z m 155.53716,-10.22372 -2.51113,-6.54386 0.58578,-34.90875 0.58579,-34.90871 3.06504,40.27211 c 3.11203,40.88956 2.78016,47.83074 -1.72548,36.08921 z m 13.59772,-9.67465 c 0,-2.08424 1.79148,-4.89677 3.98108,-6.24999 l 3.98108,-2.46046 -2.39834,6.24999 c -2.67726,6.97682 -5.56382,8.25332 -5.56382,2.46046 z m 1.38969,-54.77872 c -1.3116,-3.41798 -1.48488,-7.11435 -0.38508,-8.21415 1.09981,-1.09981 2.96628,1.69671 4.1477,6.2145 2.50956,9.59656 -0.27876,11.07842 -3.76262,1.99965 z m -2.97243,-20.29174 c -1.34446,-3.50361 -2.44447,-15.08931 -2.44447,-25.74601 l 0,-19.37581 -6.04082,-2.31808 -6.04082,-2.31808 -0.5314,25.04368 -0.53139,25.04367 -5.41528,-52.20701 c -2.97841,-28.71386 -7.17562,-57.25672 -9.32714,-63.42858 l -3.91185,-11.22155 3.63523,0 3.63523,0 3.02122,15.10204 c 1.66168,8.30612 3.32951,16.46122 3.7063,18.12245 0.37678,1.66122 0.9116,9.36326 1.18847,17.11564 l 0.5034,14.09524 11.07483,0 11.07483,0 0,34.23129 c 0,18.82722 -0.25919,34.2313 -0.57593,34.2313 -0.31678,0 -1.67595,-2.86659 -3.02041,-6.37019 z m 1.58274,-54.03798 0,-4.02721 -11.07483,0.40144 -11.07483,0.40143 10.06802,3.22434 c 5.53742,1.77339 10.52109,3.40499 11.07483,3.62578 0.55375,0.22079 1.00681,-1.41081 1.00681,-3.62578 z m -149.0068,48.56421 c 0,-4.29921 1.55045,-8.77498 3.44545,-9.94616 l 3.44545,-2.1294 -1.90133,9.94615 c -2.27141,11.88213 -4.98957,13.04216 -4.98957,2.12941 z m -39.92423,-4.26489 c -0.5826,-1.10748 -1.8195,-16.51156 -2.74867,-34.23129 l -1.68939,-32.21769 4.28941,-20.13605 c 2.35918,-11.07483 5.15312,-24.32072 6.20877,-29.43531 l 1.91935,-9.29926 16.97918,-18.47892 16.97918,-18.47892 13.51164,-5.67718 13.51163,-5.67719 -2.414,-12.85756 c -1.3277,-7.07166 -3.19173,-15.57594 -4.14228,-18.89838 -0.95056,-3.32245 -1.86695,-7.18864 -2.03641,-8.59153 -0.16947,-1.40289 -3.93262,-3.49854 -8.36255,-4.65699 l -8.05442,-2.10628 0.12246,-7.42464 0.12247,-7.42465 4.01126,6.88036 4.01126,6.88035 5.82455,-2.23509 5.82455,-2.23509 2.70969,17.5044 2.70969,17.50439 15.68924,15.09934 15.68925,15.09934 12.27295,-9.05852 12.27296,-9.05852 5.79645,-13.85236 5.79647,-13.85237 1.81835,-21.36893 1.81837,-21.36893 -7.71427,4.81764 -7.71427,4.81764 -1.88987,7.22687 -1.88986,7.22686 -7.05043,2.70551 -7.05043,2.7055 -6.61702,-7.71919 C 218.68636,184.883 212.17271,179.41255 207.85095,176.972 l -7.85775,-4.43736 -1.13866,-15.69869 -1.13866,-15.6987 10.36286,-11.07483 c 5.69957,-6.09115 12.14062,-11.07483 14.31343,-11.07483 l 3.95058,0 4.34066,-9.52671 4.34067,-9.52673 12.68864,-6.684817 12.68864,-6.684818 -12.08163,2.436953 -12.08163,2.436954 -3.06903,5.449459 c -1.68796,2.997202 -8.37504,8.096449 -14.86017,11.331659 l -11.79114,5.88219 -2.22054,-2.22054 -2.22054,-2.22054 4.99908,-6.41136 4.99907,-6.411352 -7.00328,5.490322 -7.00327,5.49033 2.00628,3.24622 2.00627,3.24623 -5.45971,5.45971 -5.45972,5.45972 -2.95081,15.72918 -2.95081,15.72919 -3.64645,-5.76218 c -2.00555,-3.16921 -3.67421,-9.04058 -3.70812,-13.04749 l -0.0617,-7.28529 4.02721,2.48895 4.02721,2.48896 0,-6.77161 0,-6.77159 -6.04082,5.01343 -6.04081,5.01343 0,9.41804 0,9.41803 8.54752,7.96322 8.54751,7.96323 -8.50742,-2.22474 -8.50741,-2.22474 -4.15994,9.52044 -4.15994,9.52043 2.01953,-10.42368 2.01953,-10.42368 -5.82603,-7.69877 c -3.20432,-4.23432 -5.88367,-9.96407 -5.95412,-12.73278 l -0.12808,-5.03401 3.90082,0 3.90082,0 -2.19129,7.04762 -2.19129,7.04762 4.66829,-7.29223 4.66829,-7.29223 -1.94877,-5.07842 -1.94878,-5.07843 8.04475,-5.02403 8.04476,-5.02403 -2.30845,-2.30845 -2.30845,-2.30844 -7.14494,5.43257 c -3.92971,2.98792 -1.0362,-1.14355 6.43004,-9.18105 l 13.57497,-14.613626 4.95857,1.902783 4.95858,1.902783 6.72935,-10.270301 6.72936,-10.270301 4.69375,0 4.69375,0 -9.46101,8.814271 -9.46101,8.81427 8.2761,3.692898 8.2761,3.692897 8.2029,-8.202904 8.20291,-8.202907 14.8184,1.377226 14.81841,1.377225 4.58789,4.979259 4.5879,4.979258 -7.41097,-2.619366 -7.41098,-2.619365 -11.71828,6.922154 c -6.44505,3.807186 -11.71827,8.385446 -11.71827,10.173906 l 0,3.25176 9.87084,-6.46763 9.87085,-6.467624 8.2516,2.618964 c 4.53839,1.44042 8.47814,4.30908 8.75501,6.37478 0.27687,2.0657 0.72993,5.41705 1.0068,7.44743 0.27687,2.03039 1.86259,5.05079 3.52381,6.71202 1.66123,1.66122 3.02041,4.36095 3.02041,5.99939 l 0,2.97899 -7.07682,-1.85064 -7.07682,-1.85062 -0.84061,38.58888 -0.84061,38.58889 -7.82856,17.69776 -7.82857,17.69777 2.32196,2.32196 c 1.27708,1.27707 7.90971,2.37959 14.73919,2.45003 l 12.41724,0.12807 6.17872,4.90593 c 3.3983,2.69827 10.14638,11.72436 14.99573,20.05798 l 8.81699,15.15204 1.90771,19.07925 1.90771,19.07927 -5.3368,-20.87856 -5.3368,-20.87855 -8.62772,-13.95995 -8.62772,-13.95995 -6.08824,-2.33627 -6.08825,-2.33628 -3.471,8.9843 c -3.75758,9.72608 -16.52925,22.12439 -32.51605,31.5655 l -10.06803,5.94575 -8.64618,-0.60527 -8.64618,-0.60527 -12.32257,-8.77445 c -6.77742,-4.82594 -15.9476,-13.38293 -20.3782,-19.01551 l -8.05562,-10.24107 -9.30398,9.38452 c -5.11719,5.16149 -13.37895,14.06266 -18.35948,19.78037 l -9.05549,10.39585 -6.09529,31.85718 -6.09528,31.85717 6.92913,5.06671 6.92913,5.0667 23.39355,0 23.39354,0 0.47691,-7.04762 c 0.68762,-10.16159 0.75249,-9.09432 -2.01928,-33.22449 l -2.54428,-22.14966 4.84909,8.05443 4.8491,8.05442 -0.22062,29.72412 -0.22061,29.72413 -6.86939,3.8443 -6.86938,3.84431 -3.51494,8.71728 -3.5149,8.71729 -0.25527,-9.06123 -0.25527,-9.06122 -13.76587,0 c -7.57122,0 -16.52086,-1.0572 -19.88809,-2.34932 l -6.12223,-2.34933 -1.55799,17.45137 c -0.85689,9.59825 -2.03465,16.54524 -2.61726,15.43775 z m 55.02627,-36.02503 c 2.7687,-0.12092 5.03534,-1.57905 5.03697,-3.24027 l 0.003,-3.02041 -21.14582,0.52341 -21.14581,0.52341 -9.06123,-3.44414 -9.06122,-3.44414 0,3.31211 c 0,1.82167 3.90223,5.05335 8.67163,7.18151 l 8.67164,3.8694 16.49843,-1.02051 c 9.07414,-0.56127 18.76374,-1.11944 21.53245,-1.24037 z m 76.517,-110.76943 c 7.19864,-7.79663 13.08844,-16.01455 13.08844,-18.26205 0,-7.3505 -7.66634,-4.28881 -12.45686,4.97488 -2.5772,4.98367 -9.40584,12.94224 -15.17475,17.6857 l -10.48894,8.62448 -9.48742,-1.72039 c -5.21808,-0.94622 -14.7634,-5.62111 -21.21183,-10.38864 l -11.72442,-8.66823 0,-5.52114 0,-5.52114 -4.03317,2.49263 -4.03316,2.49264 7.05357,9.45383 c 3.87947,5.19962 11.58419,12.38451 17.1216,15.96644 l 10.06803,6.5126 14.09524,-1.97296 14.09524,-1.97296 13.08843,-14.17569 z m -13.6765,-4.03365 10.65609,-9.87573 0,-6.23311 c 0,-8.46465 -3.81455,-7.8369 -14.73828,2.42542 l -9.21659,8.65854 -15.77475,-10.43924 -15.77474,-10.43923 -2.4519,2.4519 c -1.34854,1.34854 -2.4519,5.25321 -2.4519,8.67703 l 0,6.22514 11.07483,9.06768 11.07483,9.06767 8.47316,0.14482 8.47316,0.14484 10.65609,-9.87573 z m 2.60167,-85.32099 0,-5.73634 -6.44726,-2.47405 -6.44726,-2.47404 -3.3904,5.48578 -3.3904,5.48578 4.09129,4.9297 4.09128,4.9297 5.74638,-2.20509 5.74637,-2.20509 0,-5.73635 z m -20.13605,-9.04107 0,-3.55751 8.07104,-2.11062 8.07104,-2.11063 -2.46109,-6.41349 -2.46109,-6.4135 4.71122,0 4.71122,0 -1.25995,8.68689 -1.25994,8.68687 4.77734,1.63119 4.77734,1.63119 6.63681,-10.12906 6.63682,-10.12907 -7.03321,-11.90628 -7.03321,-11.90627 -13.86445,-1.6186 -13.86445,-1.6186 -9.64575,7.58735 -9.64575,7.58735 0,12.9975 0,12.9975 4.83266,4.83265 c 2.65796,2.65796 7.18857,4.83266 10.06802,4.83266 l 5.23538,0 0,-3.55752 z m 2.34766,-12.01081 -3.1542,-5.1036 2.41687,-2.41687 2.41688,-2.41687 2.43311,2.4331 c 1.3382,1.33821 1.67,4.72242 0.73731,7.52047 l -1.69578,5.08736 -3.15419,-5.10359 z m 39.08324,-40.21369 -6.35508,-1.41466 5.61855,-3.62856 5.61855,-3.62856 -17.16085,1.26259 -17.16086,1.26258 -4.9888,5.22558 -4.98881,5.22558 14.94641,-1.62491 c 8.22052,-0.89369 14.12604,-0.80454 13.12337,0.19814 -1.00266,1.00267 0.21208,4.27518 2.69942,7.27225 l 4.52245,5.4492 5.24037,-7.09228 5.24037,-7.09228 -6.35509,-1.41467 z m -69.62138,-21.210334 0,-4.027211 -4.02721,2.488953 c -2.21496,1.368924 -4.02721,4.301202 -4.02721,6.516162 l 0,4.02721 4.02721,-2.48895 c 2.21497,-1.36893 4.02721,-4.3012 4.02721,-6.516164 z m 13.92965,116.996524 c -1.46,-2.36233 -1.82634,-5.12335 -0.81409,-6.13561 2.8089,-2.80889 15.07492,2.75208 15.07492,6.83441 l 0,3.59635 -5.80314,0 c -3.19173,0 -6.99769,-1.93282 -8.45769,-4.29515 z m -34.0657,-35.97696 0,-8.05442 3.1702,0 3.1702,0 0.60673,8.05442 0.60672,8.05442 -3.77693,0 -3.77692,0 0,-8.05442 z m 48.02172,-94.092892 c 5.36978,-5.838025 11.48147,-10.61459 13.58155,-10.61459 l 3.81832,0 -5.19591,6.260687 c -2.85775,3.443378 -8.96944,8.219944 -13.58154,10.61459 l -8.38564,4.353902 9.76322,-10.614589 z"
         id="path3532"
         inkscape:connector-curvature="0" />
      <path
         style="fill:#000000;fill-opacity:1"
         d="m 232.69295,599.38859 -3.51203,-57.23166 -16.60746,0.2509 c -9.13411,0.13809 -21.13808,-0.97277 -26.6755,-2.46852 l -10.06803,-2.71958 7.7772,6.31036 7.77719,6.31036 -9.18179,9.7736 c -5.04998,5.37544 -14.14337,11.82868 -20.20751,14.34053 l -11.02572,4.56702 7.37511,34.70771 c 9.03794,42.53307 6.82997,49.22364 -2.78421,8.43669 l -6.94921,-29.48112 -1.10795,-34.23129 -1.10795,-34.2313 8.20913,21.14286 c 8.95161,23.05514 9.99245,23.81399 21.31078,15.53783 l 7.66532,-5.60499 -5.39039,-6.49505 -5.3904,-6.49505 -3.36227,-45.28767 c -1.84926,-24.90826 -4.3586,-49.81834 -5.57633,-55.35575 l -2.21405,-10.06803 5.90308,12.08164 5.90308,12.08163 0.18163,37.35137 0.18163,37.35138 10.33019,3.92754 10.3302,3.92753 21.34434,0 21.34434,0 0.10833,11.07483 c 0.0596,6.09116 0.30402,20.69608 0.54315,32.45538 l 0.43485,21.3805 4.52194,-2.79468 4.52194,-2.79473 -1.90824,-29.73455 -1.90825,-29.73451 8.46114,-1.67886 c 21.56258,-4.27839 41.44304,-7.13871 49.51501,-7.12397 l 8.83619,0.0161 1.75809,-10.63481 1.7581,-10.63478 -0.0484,28.19048 -0.0484,28.19047 -5.3577,13.21123 -5.3577,13.21126 -0.68513,32.09486 -0.68513,32.0949 -3.05061,0 -3.0506,0 2.09104,-35.2381 2.09105,-35.23809 3.05318,-4.02721 c 1.67925,-2.21497 4.3594,-13.73867 5.95589,-25.60823 l 2.90271,-21.58102 -21.58103,3.21565 c -11.86956,1.76863 -25.65858,3.32498 -30.64225,3.45857 l -9.0612,0.24292 0,30.78001 0,30.78002 -5.8434,2.24235 -5.8434,2.24231 -1.22077,25.37219 -1.22078,25.37224 -3.51203,-57.23167 z M 157.30367,560.974 c -6.9339,-13.32717 -7.65061,-13.48436 -7.65061,-1.67802 l 0,10.73924 6.18251,0 6.18251,0 -4.71441,-9.06122 z m 19.53307,38.50283 c -3.87619,-1.01292 -7.04762,-3.20723 -7.04762,-4.87615 l 0,-3.03442 11.72345,1.72063 11.72345,1.72062 4.52708,-8.45891 4.52709,-8.45896 4.63897,0 4.63898,0 -11.57494,12.08163 c -6.36622,6.6449 -12.59507,11.87142 -13.84189,11.61448 -1.24683,-0.25693 -5.43838,-1.29596 -9.31457,-2.30892 z m 103.70068,-17.35998 c -4.00904,-4.42993 -6.10216,-8.05442 -4.65139,-8.05442 1.45078,0 6.26227,3.62449 10.6922,8.05442 l 8.05442,8.05442 -3.40304,0 c -1.87167,0 -6.68316,-3.62448 -10.69219,-8.05442 z m -138.9308,-60.40816 c -0.50949,-1.10748 -1.52166,-7.05451 -2.24926,-13.21566 -0.72761,-6.16111 -4.14546,-16.85992 -7.59524,-23.77516 -3.44978,-6.91524 -6.27232,-15.81228 -6.27232,-19.77119 l 0,-7.19802 -4.17108,-2.57787 -4.17108,-2.57787 0.93122,-15.78225 0.93122,-15.78225 3.54842,0 3.54841,0 -1.01861,13.08843 c -1.118,14.36556 0.94557,22.87851 13.10901,54.0792 l 8.13011,20.85471 -1.89723,7.33577 c -1.04347,4.03466 -2.31408,6.42964 -2.82357,5.32216 z m 155.53716,-10.22372 -2.51113,-6.54386 0.58578,-34.90875 0.58579,-34.90871 3.06504,40.27211 c 3.11203,40.88956 2.78016,47.83074 -1.72548,36.08921 z m 13.59772,-9.67465 c 0,-2.08424 1.79148,-4.89677 3.98108,-6.24999 l 3.98108,-2.46046 -2.39834,6.24999 c -2.67726,6.97682 -5.56382,8.25332 -5.56382,2.46046 z m 1.38969,-54.77872 c -1.3116,-3.41798 -1.48488,-7.11435 -0.38508,-8.21415 1.09981,-1.09981 2.96628,1.69671 4.1477,6.2145 2.50956,9.59656 -0.27876,11.07842 -3.76262,1.99965 z m -2.97243,-20.29174 c -1.34446,-3.50361 -2.44447,-15.08931 -2.44447,-25.74601 l 0,-19.37581 -6.04082,-2.31808 -6.04082,-2.31808 -0.5314,25.04368 -0.53139,25.04367 -5.41528,-52.20701 c -2.97841,-28.71386 -7.17562,-57.25672 -9.32714,-63.42858 l -3.91185,-11.22155 3.63523,0 3.63523,0 3.02122,15.10204 c 1.66168,8.30612 3.32951,16.46122 3.7063,18.12245 0.37678,1.66122 0.9116,9.36326 1.18847,17.11564 l 0.5034,14.09524 11.07483,0 11.07483,0 0,34.23129 c 0,18.82722 -0.25919,34.2313 -0.57593,34.2313 -0.31678,0 -1.67595,-2.86659 -3.02041,-6.37019 z m 1.58274,-54.03798 0,-4.02721 -11.07483,0.40144 -11.07483,0.40143 10.06802,3.22434 c 5.53742,1.77339 10.52109,3.40499 11.07483,3.62578 0.55375,0.22079 1.00681,-1.41081 1.00681,-3.62578 z m -149.0068,48.56421 c 0,-4.29921 1.55045,-8.77498 3.44545,-9.94616 l 3.44545,-2.1294 -1.90133,9.94615 c -2.27141,11.88213 -4.98957,13.04216 -4.98957,2.12941 z m -39.92423,-4.26489 c -0.5826,-1.10748 -1.8195,-16.51156 -2.74867,-34.23129 l -1.68939,-32.21769 4.28941,-20.13605 c 2.35918,-11.07483 5.15312,-24.32072 6.20877,-29.43531 l 1.91935,-9.29926 16.97918,-18.47892 16.97918,-18.47892 13.51164,-5.67718 13.51163,-5.67719 -2.414,-12.85756 c -1.3277,-7.07166 -3.19173,-15.57594 -4.14228,-18.89838 -0.95056,-3.32245 -1.86695,-7.18864 -2.03641,-8.59153 -0.16947,-1.40289 -3.93262,-3.49854 -8.36255,-4.65699 l -8.05442,-2.10628 0.12246,-7.42464 0.12247,-7.42465 4.01126,6.88036 4.01126,6.88035 5.82455,-2.23509 5.82455,-2.23509 2.70969,17.5044 2.70969,17.50439 15.68924,15.09934 15.68925,15.09934 12.27295,-9.05852 12.27296,-9.05852 5.79645,-13.85236 5.79647,-13.85237 1.81835,-21.36893 1.81837,-21.36893 -7.71427,4.81764 -7.71427,4.81764 -1.88987,7.22687 -1.88986,7.22686 -7.05043,2.70551 -7.05043,2.7055 -6.61702,-7.71919 C 218.68636,184.883 212.17271,179.41255 207.85095,176.972 l -7.85775,-4.43736 -1.13866,-15.69869 -1.13866,-15.6987 10.36286,-11.07483 c 5.69957,-6.09115 12.14062,-11.07483 14.31343,-11.07483 l 3.95058,0 4.34066,-9.52671 4.34067,-9.52673 12.68864,-6.684817 12.68864,-6.684818 -12.08163,2.436953 -12.08163,2.436954 -3.06903,5.449459 c -1.68796,2.997202 -8.37504,8.096449 -14.86017,11.331659 l -11.79114,5.88219 -2.22054,-2.22054 -2.22054,-2.22054 4.99908,-6.41136 4.99907,-6.411352 -7.00328,5.490322 -7.00327,5.49033 2.00628,3.24622 2.00627,3.24623 -5.45971,5.45971 -5.45972,5.45972 -2.95081,15.72918 -2.95081,15.72919 -3.64645,-5.76218 c -2.00555,-3.16921 -3.67421,-9.04058 -3.70812,-13.04749 l -0.0617,-7.28529 4.02721,2.48895 4.02721,2.48896 0,-6.77161 0,-6.77159 -6.04082,5.01343 -6.04081,5.01343 0,9.41804 0,9.41803 8.54752,7.96322 8.54751,7.96323 -8.50742,-2.22474 -8.50741,-2.22474 -4.15994,9.52044 -4.15994,9.52043 2.01953,-10.42368 2.01953,-10.42368 -5.82603,-7.69877 c -3.20432,-4.23432 -5.88367,-9.96407 -5.95412,-12.73278 l -0.12808,-5.03401 3.90082,0 3.90082,0 -2.19129,7.04762 -2.19129,7.04762 4.66829,-7.29223 4.66829,-7.29223 -1.94877,-5.07842 -1.94878,-5.07843 8.04475,-5.02403 8.04476,-5.02403 -2.30845,-2.30845 -2.30845,-2.30844 -7.14494,5.43257 c -3.92971,2.98792 -1.0362,-1.14355 6.43004,-9.18105 l 13.57497,-14.613626 4.95857,1.902783 4.95858,1.902783 6.72935,-10.270301 6.72936,-10.270301 4.69375,0 4.69375,0 -9.46101,8.814271 -9.46101,8.81427 8.2761,3.692898 8.2761,3.692897 8.2029,-8.202904 8.20291,-8.202907 14.8184,1.377226 14.81841,1.377225 4.58789,4.979259 4.5879,4.979258 -7.41097,-2.619366 -7.41098,-2.619365 -11.71828,6.922154 c -6.44505,3.807186 -11.71827,8.385446 -11.71827,10.173906 l 0,3.25176 9.87084,-6.46763 9.87085,-6.467624 8.2516,2.618964 c 4.53839,1.44042 8.47814,4.30908 8.75501,6.37478 0.27687,2.0657 0.72993,5.41705 1.0068,7.44743 0.27687,2.03039 1.86259,5.05079 3.52381,6.71202 1.66123,1.66122 3.02041,4.36095 3.02041,5.99939 l 0,2.97899 -7.07682,-1.85064 -7.07682,-1.85062 -0.84061,38.58888 -0.84061,38.58889 -7.82856,17.69776 -7.82857,17.69777 2.32196,2.32196 c 1.27708,1.27707 7.90971,2.37959 14.73919,2.45003 l 12.41724,0.12807 6.17872,4.90593 c 3.3983,2.69827 10.14638,11.72436 14.99573,20.05798 l 8.81699,15.15204 1.90771,19.07925 1.90771,19.07927 -5.3368,-20.87856 -5.3368,-20.87855 -8.62772,-13.95995 -8.62772,-13.95995 -6.08824,-2.33627 -6.08825,-2.33628 -3.471,8.9843 c -3.75758,9.72608 -16.52925,22.12439 -32.51605,31.5655 l -10.06803,5.94575 -8.64618,-0.60527 -8.64618,-0.60527 -12.32257,-8.77445 c -6.77742,-4.82594 -15.9476,-13.38293 -20.3782,-19.01551 l -8.05562,-10.24107 -9.30398,9.38452 c -5.11719,5.16149 -13.37895,14.06266 -18.35948,19.78037 l -9.05549,10.39585 -6.09529,31.85718 -6.09528,31.85717 6.92913,5.06671 6.92913,5.0667 23.39355,0 23.39354,0 0.47691,-7.04762 c 0.68762,-10.16159 0.75249,-9.09432 -2.01928,-33.22449 l -2.54428,-22.14966 4.84909,8.05443 4.8491,8.05442 -0.22062,29.72412 -0.22061,29.72413 -6.86939,3.8443 -6.86938,3.84431 -3.51494,8.71728 -3.5149,8.71729 -0.25527,-9.06123 -0.25527,-9.06122 -13.76587,0 c -7.57122,0 -16.52086,-1.0572 -19.88809,-2.34932 l -6.12223,-2.34933 -1.55799,17.45137 c -0.85689,9.59825 -2.03465,16.54524 -2.61726,15.43775 z m 55.02627,-36.02503 c 2.7687,-0.12092 5.03534,-1.57905 5.03697,-3.24027 l 0.003,-3.02041 -21.14582,0.52341 -21.14581,0.52341 -9.06123,-3.44414 -9.06122,-3.44414 0,3.31211 c 0,1.82167 3.90223,5.05335 8.67163,7.18151 l 8.67164,3.8694 16.49843,-1.02051 c 9.07414,-0.56127 18.76374,-1.11944 21.53245,-1.24037 z m 76.517,-110.76943 c 7.19864,-7.79663 13.08844,-16.01455 13.08844,-18.26205 0,-7.3505 -7.66634,-4.28881 -12.45686,4.97488 -2.5772,4.98367 -9.40584,12.94224 -15.17475,17.6857 l -10.48894,8.62448 -9.48742,-1.72039 c -5.21808,-0.94622 -14.7634,-5.62111 -21.21183,-10.38864 l -11.72442,-8.66823 0,-5.52114 0,-5.52114 -4.03317,2.49263 -4.03316,2.49264 7.05357,9.45383 c 3.87947,5.19962 11.58419,12.38451 17.1216,15.96644 l 10.06803,6.5126 14.09524,-1.97296 14.09524,-1.97296 13.08843,-14.17569 z m -13.6765,-4.03365 10.65609,-9.87573 0,-6.23311 c 0,-8.46465 -3.81455,-7.8369 -14.73828,2.42542 l -9.21659,8.65854 -15.77475,-10.43924 -15.77474,-10.43923 -2.4519,2.4519 c -1.34854,1.34854 -2.4519,5.25321 -2.4519,8.67703 l 0,6.22514 11.07483,9.06768 11.07483,9.06767 8.47316,0.14482 8.47316,0.14484 10.65609,-9.87573 z m 2.60167,-85.32099 0,-5.73634 -6.44726,-2.47405 -6.44726,-2.47404 -3.3904,5.48578 -3.3904,5.48578 4.09129,4.9297 4.09128,4.9297 5.74638,-2.20509 5.74637,-2.20509 0,-5.73635 z m -20.13605,-9.04107 0,-3.55751 8.07104,-2.11062 8.07104,-2.11063 -2.46109,-6.41349 -2.46109,-6.4135 4.71122,0 4.71122,0 -1.25995,8.68689 -1.25994,8.68687 4.77734,1.63119 4.77734,1.63119 6.63681,-10.12906 6.63682,-10.12907 -7.03321,-11.90628 -7.03321,-11.90627 -13.86445,-1.6186 -13.86445,-1.6186 -9.64575,7.58735 -9.64575,7.58735 0,12.9975 0,12.9975 4.83266,4.83265 c 2.65796,2.65796 7.18857,4.83266 10.06802,4.83266 l 5.23538,0 0,-3.55752 z m 2.34766,-12.01081 -3.1542,-5.1036 2.41687,-2.41687 2.41688,-2.41687 2.43311,2.4331 c 1.3382,1.33821 1.67,4.72242 0.73731,7.52047 l -1.69578,5.08736 -3.15419,-5.10359 z m 39.08324,-40.21369 -6.35508,-1.41466 5.61855,-3.62856 5.61855,-3.62856 -17.16085,1.26259 -17.16086,1.26258 -4.9888,5.22558 -4.98881,5.22558 14.94641,-1.62491 c 8.22052,-0.89369 14.12604,-0.80454 13.12337,0.19814 -1.00266,1.00267 0.21208,4.27518 2.69942,7.27225 l 4.52245,5.4492 5.24037,-7.09228 5.24037,-7.09228 -6.35509,-1.41467 z m -69.62138,-21.210334 0,-4.027211 -4.02721,2.488953 c -2.21496,1.368924 -4.02721,4.301202 -4.02721,6.516162 l 0,4.02721 4.02721,-2.48895 c 2.21497,-1.36893 4.02721,-4.3012 4.02721,-6.516164 z m 13.92965,116.996524 c -1.46,-2.36233 -1.82634,-5.12335 -0.81409,-6.13561 2.8089,-2.80889 15.07492,2.75208 15.07492,6.83441 l 0,3.59635 -5.80314,0 c -3.19173,0 -6.99769,-1.93282 -8.45769,-4.29515 z m -34.0657,-35.97696 0,-8.05442 3.1702,0 3.1702,0 0.60673,8.05442 0.60672,8.05442 -3.77693,0 -3.77692,0 0,-8.05442 z m 48.02172,-94.092892 c 5.36978,-5.838025 11.48147,-10.61459 13.58155,-10.61459 l 3.81832,0 -5.19591,6.260687 c -2.85775,3.443378 -8.96944,8.219944 -13.58154,10.61459 l -8.38564,4.353902 9.76322,-10.614589 z"
         id="path3530"
         inkscape:connector-curvature="0" />
      <path
         style="fill:#000000;fill-opacity:1"
         d="m 234.60124,630.44338 c -0.64634,-14.39727 -1.87285,-41.12789 -2.72558,-59.40136 l -1.5504,-33.22449 4.20089,0 4.2009,0 -2.30679,3.73246 -2.30679,3.73246 2.6369,28.37198 2.63689,28.37203 3.95416,-2.44383 3.95416,-2.4438 -1.90824,-29.73455 -1.90825,-29.73451 8.46114,-1.74378 c 14.03829,-2.89319 40.11801,-6.45187 49.51501,-6.75649 l 8.83619,-0.28633 1.63523,-10.63482 1.63524,-10.63478 0,24.16327 0,24.16326 -1.72364,-11.55088 -1.72364,-11.55089 -14.7886,2.44532 c -8.13373,1.34485 -21.58452,2.46518 -29.89065,2.48954 l -15.10204,0.0443 0,31.78682 0,31.78682 -5.8434,2.24235 -5.8434,2.24231 -1.43506,25.37219 -1.43506,25.37224 -1.17517,-26.17688 z m -76.89376,0 c -2.71417,-11.31392 -4.13404,-21.37164 -3.15525,-22.35041 0.97878,-0.97878 3.93208,7.54546 6.5629,18.94279 2.63081,11.39729 4.05067,21.45497 3.15525,22.35038 -0.89542,0.89545 -3.84872,-7.62883 -6.5629,-18.94276 z m 141.61938,-12.62607 -0.667,-26.72131 6.26172,-13.5508 6.26173,-13.5508 -2.79869,10.06803 c -1.53929,5.53742 -4.05691,23.65987 -5.59473,40.27211 l -2.79604,30.20408 -0.66699,-26.72131 z m -149.03792,-23.61882 0,-10.06803 2.03127,5.03401 2.03127,5.03402 -2.03127,5.03401 -2.03127,5.03401 0,-10.06802 z m 22.52059,1.36007 5.03401,-2.03129 5.03401,2.03129 5.03402,2.03128 -10.06803,0 -10.06803,0 5.03402,-2.03128 z m 23.21648,-6.51978 7.07183,-11.20052 2.25116,2.25117 2.25115,2.25117 -9.32299,8.94935 -9.32299,8.94935 7.07184,-11.20052 z m 86.44424,-5.00566 c -2.80181,-3.37597 -4.31429,-6.91802 -3.36107,-7.87126 0.95323,-0.9532 3.94519,1.80894 6.64883,6.13815 5.84675,9.36214 3.89684,10.39004 -3.28776,1.73311 z M 147.93758,570.76821 c -1.14644,-3.72557 -1.75285,-14.41661 -1.34758,-23.7578 l 0.73686,-16.98396 2.72468,4.40863 2.72467,4.40859 -2.09183,15.59577 -2.09183,15.59578 6.71276,0 6.71277,0 -4.49519,-8.39935 c -2.47235,-4.61962 -3.6077,-9.28679 -2.523,-10.37152 1.08469,-1.08469 3.16589,1.78889 4.62488,6.38575 3.09902,9.76413 5.96348,10.30398 15.94534,3.00506 l 7.32043,-5.35281 -4.53711,-8.47764 c -2.49541,-4.66274 -4.5371,-10.35219 -4.5371,-12.64323 l 0,-4.16558 6.37848,2.44766 6.37848,2.44766 -4.84805,2.99624 -4.84805,2.99625 7.50544,4.20026 7.50545,4.20026 -9.52939,10.14357 -9.52939,10.14358 -11.40364,3.97534 -11.40363,3.9753 -2.08445,-6.77381 z M 201,539.00262 c 4.98367,-0.95993 13.13878,-0.95993 18.12245,0 l 9.06122,1.74527 -18.12244,0 -18.12245,0 L 201,539.00262 z m -29.83031,-43.4708 0.0266,-32.21769 1.54679,17.22209 c 0.85073,9.47216 0.83876,23.97012 -0.0266,32.21768 l -1.57338,14.99561 0.0266,-32.21769 z m -35.31744,-0.96061 c -1.61024,-7.17327 -4.60053,-14.07611 -6.64508,-15.33973 l -3.71737,-2.29744 0.31795,-8.82358 0.31794,-8.82354 2.05664,6.04082 c 1.13116,3.32244 4.73636,12.01228 8.01158,19.31079 l 5.95493,13.26995 -1.68443,4.8525 -1.68443,4.85247 -2.92771,-13.04224 z m 160.16097,-27.22987 0.0266,-32.21769 1.54678,17.2221 c 0.85073,9.47215 0.83876,23.97011 -0.0266,32.21768 l -1.57337,14.9956 0.0266,-32.21769 z m 15.04621,-40.60771 0.31794,-7.71882 2.11517,5.28571 2.11517,5.28572 -2.43311,2.43311 -2.4331,2.4331 0.31794,-7.71882 z m -149.0068,-4.02721 0.31795,-7.71882 2.11517,5.28571 2.11517,5.28572 -2.43311,2.43311 -2.43311,2.4331 0.31793,-7.71882 z m 126.74599,-39.10772 -3.20677,-43.47053 2.5068,-2.50679 2.50679,-2.5068 0,14.76644 0,14.76644 12.01989,0 12.01988,0 -2.51551,25.17007 c -3.05481,30.56616 -5.41541,34.99638 -5.41541,10.16329 l 0,-18.36278 -6.37019,-2.44447 c -3.50361,-1.34446 -6.6881,-2.44448 -7.07664,-2.44448 -0.38855,0 -0.0723,7.97283 0.70267,17.71739 0.77502,9.74457 0.65,21.0711 -0.2778,25.17007 l -1.68695,7.45268 -3.20676,-43.47053 z m 21.94288,-10.89682 0,-4.02721 -11.07483,0.0617 -11.07483,0.0617 6.04081,3.90387 c 3.32245,2.14714 8.30613,3.93163 11.07483,3.96555 l 5.03402,0.0617 0,-4.02721 z m -187.26943,17.11565 0.90081,-9.06122 -3.46875,0 -3.46875,0 0.54843,-19.12926 0.54843,-19.12925 1.78857,9.39161 1.78856,9.39161 12.76505,5.83497 12.76504,5.83496 -13.08844,-2.45812 -13.08843,-2.45813 0,4.44688 0,4.44687 10.3302,3.92753 10.33019,3.92754 14.83987,-0.0617 14.83987,-0.0617 5.54996,-3.51528 5.54997,-3.51529 -2.02563,-3.47067 -2.02562,-3.47066 3.24023,-8.05442 3.24022,-8.05443 0.28307,15.02532 0.28304,15.02531 -10.28642,2.58173 -10.28641,2.58173 -19.71756,-1.89461 -19.71756,-1.89461 -1.65937,6.43723 -1.65938,6.43722 0.90081,-9.06122 z m 59.18378,-55.37415 0.14921,-12.08163 1.85649,7.12426 c 1.02108,3.91835 0.95393,9.35508 -0.1492,12.08163 l -2.00572,4.95737 0.1492,-12.08163 z m -60.87533,-0.3356 0.31794,-7.71882 2.11517,5.28571 2.11517,5.28572 -2.4331,2.4331 -2.43311,2.43311 0.31795,-7.71882 z m 161.08844,-12.08163 0.31795,-7.71882 2.11516,5.28571 2.11517,5.28571 -2.4331,2.43311 -2.43312,2.43311 0.31794,-7.71882 z m -156.74329,-9.73243 0,-10.06803 2.03127,5.03402 2.03127,5.03401 -2.03127,5.03401 -2.03127,5.03402 0,-10.06803 z m 185.2517,0 0,-10.06803 2.03127,5.03402 2.03127,5.03401 -2.03127,5.03401 -2.03127,5.03402 0,-10.06803 z m -34.60824,-6.87393 -2.74972,-7.22131 5.00413,4.96689 5.00413,4.9669 -2.25442,2.25441 -2.25441,2.25441 -2.74971,-7.2213 z M 129.51701,297.1135 c 0,-2.10202 7.28805,-12.10151 16.19566,-22.2211 l 16.19567,-18.39925 15.01522,-7.33781 15.01522,-7.33781 -1.18335,-7.04762 c -1.59488,-9.49863 -0.67578,-9.08409 13.27806,5.98873 l 12.06855,13.03634 -11.14736,-7.13589 -11.14736,-7.13589 -2.37194,6.18117 -2.37194,6.18119 -5.60995,0 c -3.08547,0 -5.54966,1.35918 -5.47597,3.0204 0.20776,4.68379 12.89736,18.63721 23.91856,26.30074 l 9.9573,6.92375 11.17395,0 11.17396,0 16.12044,-14.56385 16.12045,-14.56386 0,-5.57219 c 0,-8.37809 -2.5619,-7.03752 -20.13606,10.53664 l -16.10884,16.10884 -10.00449,0 -10.00449,0 -13.15197,-12.58991 -13.15197,-12.58991 14.83333,10.57631 14.83334,10.5763 8.01334,0 8.01334,0 12.39142,-12.39142 c 6.81528,-6.81528 12.39141,-14.06426 12.39141,-16.10884 l 0,-3.71743 14.05611,0 14.05611,0 14.03453,19.12926 14.03453,19.12925 -0.24631,10.06802 -0.2463,10.06803 -3.31765,-11.01827 c -1.82472,-6.06005 -7.14236,-17.20676 -11.81699,-24.77047 l -8.49933,-13.75221 -6.28869,-2.41319 c -8.9689,-3.44169 -9.65716,-3.15445 -9.65716,4.03033 l 0,6.44354 -13.45513,13.45513 -13.45514,13.45514 -10.70813,2.68757 -10.70813,2.68757 -10.80302,-2.71139 -10.80301,-2.71138 -15.81356,-15.81356 -15.81357,-15.81357 -3.77172,2.33105 c -2.07445,1.28208 -10.93781,11.39683 -19.69635,22.47721 -8.75854,11.08039 -15.92462,18.42633 -15.92462,16.32431 z m 107.95833,-51.85285 12.85799,-10.65211 0,-5.21906 c 0,-2.87048 1.80677,-6.3357 4.01504,-7.70048 l 4.01504,-2.48143 -4.06948,10.70352 -4.06947,10.70353 -9.00679,7.51509 c -4.95373,4.1333 -10.71533,7.57539 -12.80355,7.64908 -2.08822,0.0737 1.98933,-4.65948 9.06122,-10.51814 z m -27.41411,-32.12671 0,-6.53392 6.04081,5.01343 c 3.32245,2.75738 6.04082,5.69765 6.04082,6.53392 0,0.83627 -2.71837,1.5205 -6.04082,1.5205 l -6.04081,0 0,-6.53393 z m 48.64446,-3.8697 0.31794,-7.71882 2.11517,5.28571 2.11517,5.28572 -2.43311,2.43311 -2.4331,2.4331 0.31793,-7.71882 z m -76.83494,-5.23552 0,-3.55751 -8.05442,-2.10628 -8.05442,-2.10628 0,-4.89734 0,-4.89735 5.8644,4.86702 5.8644,4.86703 3.36764,-2.08131 3.36763,-2.08131 0.5857,7.77542 c 0.32214,4.27648 -0.20779,7.77543 -1.17761,7.77543 -0.96983,0 -1.76332,-1.60089 -1.76332,-3.55752 z m 59.4458,-22.74123 1.90132,-9.94615 -8.5239,0 -8.5239,0 0,4.02721 0,4.02721 -4.52032,0 -4.52032,0 5.30154,-6.38798 5.30155,-6.38797 11.27665,2.25533 11.27665,2.25533 6.83181,-10.42665 6.8318,-10.42666 -5.94152,-10.61077 -5.94152,-10.61077 -13.95496,-2.49026 -13.95497,-2.49026 11.76453,-0.53015 11.76453,-0.53014 6.49675,5.87947 6.49675,5.87948 4.92931,-7.89308 4.92931,-7.89309 -7.08174,-0.31793 -7.08175,-0.31794 5.03401,-2.03127 5.03402,-2.03127 0,-5.70521 0,-5.70522 -7.04762,0.0617 -7.04762,0.0617 6.04082,3.90388 6.04081,3.90387 -6.04081,0.36978 c -3.32245,0.20337 -8.96937,0.94126 -12.54871,1.63972 -3.57934,0.69845 -8.60585,-0.0266 -11.17001,-1.61143 l -4.66212,-2.88134 8.1496,-7.37528 8.1496,-7.375291 0,4.922763 0,4.922758 8.34303,-2.64797 8.34302,-2.647973 7.49423,6.782183 7.49423,6.78218 -2.17288,5.66243 -2.17289,5.66244 4.45808,0 4.45808,0 0,3.90081 0,3.90082 -6.44726,-2.47405 -6.44726,-2.47404 -3.18497,5.15338 -3.18496,5.15338 3.33257,11.62 3.33257,11.62 -3.17948,-1.96503 -3.17948,-1.96502 -4.52976,9.94174 -4.52977,9.94175 -4.11355,0 -4.11355,0 0,5.80314 c 0,3.19173 -1.55045,6.76138 -3.44545,7.93255 l -3.44545,2.1294 1.90133,-9.94615 z m 6.58835,-75.05273 c -1.14077,-1.8458 -3.77942,-3.35601 -5.86366,-3.35601 -2.08425,0 -3.78954,1.51021 -3.78954,3.35601 l 0,3.35601 5.86366,0 5.86367,0 -2.07413,-3.35601 z m -74.08857,71.14739 0,-6.04081 3.90081,0 3.90082,0 -2.31808,6.04081 c -1.27494,3.32245 -3.03031,6.04082 -3.90081,6.04082 -0.87051,0 -1.58274,-2.71837 -1.58274,-6.04082 z m 89.23451,-2.0136 0,-10.06803 2.03127,5.03401 2.03127,5.03402 -2.03127,5.03401 -2.03127,5.03401 0,-10.06802 z m -60.90234,-3.76246 -4.16891,-7.78967 0.13398,-11.33958 0.13399,-11.33959 7.55917,-9.06122 7.55916,-9.06122 4.93159,0 4.93159,0 -10.61113,8.34671 -10.61114,8.34672 0,12.47903 0,12.47904 6.66499,7.36472 6.66498,7.36473 -4.50969,0 -4.50968,0 -4.1689,-7.78967 z m -35.60223,0.023 c 0.93975,-3.1642 4.72232,-7.65408 8.40571,-9.97751 l 6.69708,-4.2244 5.14486,5.18209 5.14486,5.18209 -7.62999,-2.90654 -7.62998,-2.90654 -5.92058,7.70196 -5.92058,7.70196 1.70862,-5.7531 z m 57.78218,-12.09106 -2.31698,-3.74894 4.09291,-2.52955 4.0929,-2.52956 0,6.27849 c 0,7.07391 -2.41655,8.11547 -5.86883,2.52956 z m -58.50398,-2.29188 c -0.40357,-2.21497 -1.17982,-8.02071 -1.72498,-12.90166 l -0.99123,-8.87444 3.72757,2.30377 3.72757,2.30376 -1.49406,-7.52456 -1.49407,-7.52456 8.15454,-7.38471 8.15455,-7.3847 -8.05443,2.36058 -8.05442,2.36056 6.04082,-5.22824 c 3.32245,-2.87554 8.41349,-7.86367 11.31342,-11.084716 l 5.27261,-5.856457 -2.68307,7.047619 -2.68306,7.047624 5.46488,0.0617 5.46488,0.0617 -5.92419,3.74657 -5.92418,3.74657 3.02581,3.02581 3.02581,3.02582 10.67484,-10.67484 10.67484,-10.674839 -8.78327,2.296879 -8.78327,2.2969 0,-2.27582 c 0,-3.41597 18.6162,-22.826845 21.89232,-22.826845 1.56544,0 -0.0879,2.93411 -3.67398,6.520246 l -6.52025,6.520246 2.24739,2.247386 2.24738,2.247385 11.99762,-11.494503 11.99761,-11.494446 2.63202,2.63202 2.63202,2.63202 -6.61722,2.539267 c -3.63947,1.396597 -6.61722,4.011541 -6.61722,5.810988 l 0,3.271722 13.65494,-3.770312 13.65494,-3.770311 10.50833,3.995257 c 13.68513,5.203078 13.26314,6.879419 -1.73176,6.879419 l -12.24008,0 5.19246,-3.705356 5.19246,-3.705356 -10.06803,2.307962 c -5.53741,1.269379 -12.44028,2.332707 -15.33971,2.362952 l -5.27169,0.05499 2.53276,4.098087 2.53276,4.098088 -15.74262,7.048174 c -8.65843,3.8765 -18.74255,10.04812 -22.40915,13.71472 l -6.66654,6.66654 -1.73632,9.37087 c -0.95499,5.15397 -1.99838,12.08923 -2.31865,15.41168 l -0.58232,6.04082 -3.4611,-8.05442 c -1.90361,-4.42994 -3.58848,-10.42669 -3.74416,-13.32611 l -0.28305,-5.27169 4.02721,2.48895 4.02721,2.48896 0,-9.09754 0,-9.09754 -4.05884,4.05884 c -2.23236,2.23236 -6.5838,12.1091 -9.66986,21.9483 -3.08606,9.8392 -5.94122,16.07721 -6.34479,13.86225 z m 60.3456,-63.188235 0,-3.931945 -4.78231,1.594104 c -2.63028,0.876757 -5.50007,3.747378 -6.37733,6.379157 l -1.59502,4.785049 6.37733,-2.44721 c 3.50753,-1.345966 6.37733,-4.216585 6.37733,-6.379155 z m 10.06803,61.174625 c 1.36892,-2.21496 3.28812,-4.02721 4.26488,-4.02721 0.97676,0 1.77593,1.81225 1.77593,4.02721 l 0,4.02721 -4.26488,0 -4.26489,0 2.48896,-4.02721 z"
         id="path3528"
         inkscape:connector-curvature="0" />
    </g>
  </g>
</svg>
