<?xml version="1.0" encoding="UTF-8" standalone="no"?>
<!-- Created with Inkscape (http://www.inkscape.org/) -->

<svg
   xmlns:dc="http://purl.org/dc/elements/1.1/"
   xmlns:cc="http://creativecommons.org/ns#"
   xmlns:rdf="http://www.w3.org/1999/02/22-rdf-syntax-ns#"
   xmlns:svg="http://www.w3.org/2000/svg"
   xmlns="http://www.w3.org/2000/svg"
   xmlns:sodipodi="http://sodipodi.sourceforge.net/DTD/sodipodi-0.dtd"
   xmlns:inkscape="http://www.inkscape.org/namespaces/inkscape"
   width="270"
   height="270"
   viewBox="0 0 270 270"
   id="svg2"
   version="1.1"
   inkscape:version="0.48.2 r9819"
   sodipodi:docname="New document 1">
  <defs
     id="defs4">
    <clipPath
       id="clipPath3284"
       clipPathUnits="userSpaceOnUse">
      <path
         transform="matrix(0.5655,0,0,0.5655,113.5,68.52)"
         d="m 391.5,190.9 a 192.9,192.9 0 1 1 -385.8,0 192.9,192.9 0 1 1 385.8,0 z"
         sodipodi:ry="192.9"
         sodipodi:rx="192.9"
         sodipodi:cy="190.9"
         sodipodi:cx="198.6"
         id="path3286"
         style="fill:none;stroke:#000000;stroke-width:4;stroke-linejoin:round;stroke-miterlimit:4;stroke-opacity:1;stroke-dasharray:none;stroke-dashoffset:0"
         sodipodi:type="arc" />
    </clipPath>
    <inkscape:perspective
       sodipodi:type="inkscape:persp3d"
       inkscape:vp_x="0 : 0.5 : 1"
       inkscape:vp_y="0 : 1000 : 0"
       inkscape:vp_z="1 : 0.5 : 1"
       inkscape:persp3d-origin="0.5 : 0.3333 : 1"
       id="perspective3232" />
    <inkscape:perspective
       id="perspective3253"
       inkscape:persp3d-origin="372 : 350.8 : 1"
       inkscape:vp_z="744.1 : 526.2 : 1"
       inkscape:vp_y="0 : 1000 : 0"
       inkscape:vp_x="0 : 526.2 : 1"
       sodipodi:type="inkscape:persp3d" />
    <inkscape:perspective
       sodipodi:type="inkscape:persp3d"
       inkscape:vp_x="0 : 0.5 : 1"
       inkscape:vp_y="0 : 1000 : 0"
       inkscape:vp_z="1 : 0.5 : 1"
       inkscape:persp3d-origin="0.5 : 0.3333 : 1"
       id="perspective2884" />
    <inkscape:perspective
       id="perspective10"
       inkscape:persp3d-origin="372 : 350.8 : 1"
       inkscape:vp_z="744.1 : 526.2 : 1"
       inkscape:vp_y="0 : 1000 : 0"
       inkscape:vp_x="0 : 526.2 : 1"
       sodipodi:type="inkscape:persp3d" />
  </defs>
  <sodipodi:namedview
     id="base"
     pagecolor="#ffffff"
     bordercolor="#666666"
     borderopacity="1.0"
     inkscape:pageopacity="0.0"
     inkscape:pageshadow="2"
     inkscape:zoom="0.62"
     inkscape:cx="380.7"
     inkscape:cy="447.5"
     inkscape:document-units="px"
     inkscape:current-layer="layer1"
     showgrid="false"
     inkscape:window-width="1235"
     inkscape:window-height="1009"
     inkscape:window-x="189"
     inkscape:window-y="38"
     inkscape:window-maximized="0" />
  <metadata
     id="metadata7">
    <rdf:RDF>
      <cc:Work
         rdf:about="">
        <dc:format>image/svg+xml</dc:format>
        <dc:type
           rdf:resource="http://purl.org/dc/dcmitype/StillImage" />
        <dc:title></dc:title>
      </cc:Work>
    </rdf:RDF>
  </metadata>
  <g
     inkscape:label="Layer 1"
     inkscape:groupmode="layer"
     id="layer1"
     transform="translate(0,-782.4)">
    <g
       id="layer1-1"
       inkscape:label="Layer 1"
       transform="matrix(0.4529,0,0,0.4314,36.05,841.7)">
      <g
         clip-path="url(#clipPath3284)"
         id="g3552">
        <path
           id="path3542"
           d="m 154,618.9 -8.4,-35.8 0,-22.4 0,-22.5 -5.7,-21.3 c -3.2,-11.8 -9.6,-32.2 -14.3,-45.5 l -8.6,-24.2 1.9,-33.2 1.9,-33.2 -3.6,-2.2 -3.5,-2.2 1.7,-10.9 c 0.9,-6 3.8,-23.6 6.4,-39.1 l 4.7,-28.2 9,-12.1 c 5,-6.6 15.1,-18 22.6,-25.3 l 13.5,-13.3 9.2,-2.2 c 10.7,-2.7 10.4,-1.1 4.6,-24 l -4.6,-18 -8,-4.3 -8,-4.3 2,-17.6 2,-17.7 -5.4,-7.1 c -3,-3.9 -5.5,-10.3 -5.6,-14.2 l -0.1,-7 4,0 4.1,0 0,-7.3 0,-7.3 14.1,-13.6 14.1,-13.68 0,3.5 0,3.51 10.2,-9.65 10.3,-9.66 14.1,-0.9 14,-0.9 -7.4,6.83 c -4.1,3.76 -5.5,5.72 -3.2,4.36 5.4,-3.14 17.3,-3.53 31.1,-1.01 l 10.7,1.96 1.9,4.93 1.9,4.94 -13.2,-1.54 -13.1,-1.54 -2.7,4.36 -2.7,4.39 12.2,-2.5 12.2,-2.43 2.6,6.53 2.5,6.5 5.3,0 c 3,0 6.7,2.2 8.3,4.7 l 2.9,4.8 -6.9,-2.7 -7,-2.7 2.4,7.6 2.4,7.6 -6.2,-0.6 -6.2,-0.5 -2,38.9 -2.1,38.9 -6,14.3 c -3.3,7.9 -5.9,15.9 -5.9,17.8 l 0,3.5 9,-0.8 9.1,-0.8 10.7,5.4 10.8,5.5 10.6,21.7 10.6,21.7 2.4,36.9 2.4,36.9 -5.3,9.9 -5.4,10 5.3,32.5 5.3,32.4 -2.9,59.1 -2.8,59.1 -5.8,9 -5.7,8.9 0,32.3 0,32.4 -3.7,0 -3.7,0 2.2,-29.8 2.3,-29.7 -8.7,-2.7 -8.6,-2.8 -4.1,-7.8 -4.2,-7.7 3.6,0 c 1.9,0 6.8,3.7 10.9,8.2 l 7.5,8.2 4.1,-7.2 c 2.2,-4 5.1,-16.5 6.4,-27.9 l 2.4,-20.7 -10.3,1.6 c -5.6,0.9 -18.9,2.7 -29.5,4 l -19.2,2.4 1.4,30.3 1.5,30.4 -7.2,1.8 -7.2,1.9 -1.2,24.8 -1.2,24.7 -3.5,-57.3 -3.5,-57.4 -16.4,2.6 -16.4,2.6 -13.1,13.2 c -7.2,7.2 -16.8,14.3 -21.4,15.7 l -8.2,2.6 0,5.6 c 0,6.4 11,54.8 14.5,64.1 l 2.5,6.3 -4.2,0 -4.1,0 -8.4,-35.7 z m 87.2,-64 -1.6,-15.1 0,30.2 0,30.2 1.6,-15.1 c 0.9,-8.3 0.9,-21.9 0,-30.2 z m -87,4.4 -4.3,-7.4 -0.1,6.4 c -0.2,6.8 4.1,12.9 6.9,10 1,-0.9 -0.2,-5 -2.5,-9 z m 21,-0.6 6.6,-7.3 -4.7,-4.7 -4.7,-4.6 -3.1,-46.4 -3.1,-46.4 -3.6,-6.4 -3.6,-6.4 3.8,-22.1 c 2.1,-12.1 3.2,-22.6 2.4,-23.3 -0.8,-0.7 -10.3,-2.2 -21,-3.3 l -19.6,-2.1 1.5,41.1 1.6,41.1 7.1,10.9 7.1,10.9 4.1,21.9 c 2.2,12.1 6.6,27 9.9,33.2 3.2,6.1 5.8,13.4 5.8,16.2 l 0,5 3.4,0 c 1.9,0 6.4,-3.3 10.1,-7.3 z m 14.7,-14.6 c 0,-1 -1.8,-2.9 -4,-4.3 l -4,-2.5 0,4.3 0,4.3 4,0 c 2.2,0 4,-0.8 4,-1.8 z m 94.7,-13.6 12,-3.4 -1.1,-27.9 c -0.6,-15.3 -3,-55.9 -5.3,-90.3 l -4.2,-62.4 -4,-16.1 c -2.2,-8.8 -4.9,-19.3 -6,-23.1 l -2,-7.1 3.6,0 c 2,0 5.4,4.1 7.6,9.1 l 4,9 1,20.1 c 0.6,11.1 2,21.5 3,23.2 l 1.9,3 9.8,0 9.9,0 0,-10.3 c 0,-5.6 -2.2,-23.3 -4.7,-39.2 l -4.8,-29 -9.9,-16.1 c -5.5,-8.9 -11.9,-17.3 -14.3,-18.9 l -4.2,-2.7 -6.7,11 c -3.6,6 -12.5,15.9 -19.6,21.9 l -13,10.9 -10.2,2.5 -10.3,2.6 -12.6,-7.2 c -6.9,-4 -17.2,-12.7 -22.8,-19.3 l -10.3,-12 -8.1,4.4 -8.2,4.3 -10.6,15.4 -10.6,15.3 -6.3,29.9 -6.3,29.9 4.1,4.1 4.1,4.2 26.8,1.7 26.8,1.7 -2.2,-25.7 c -1.2,-14.1 -3.5,-28.8 -5.1,-32.7 l -2.8,-7.1 4.3,0 4.4,0 3,11.1 3,11.1 -0.2,27.6 -0.1,27.6 -8.7,6.6 -8.7,6.7 -0.3,22.1 c -0.3,27 3.7,95.4 6.3,107.4 l 1.9,8.8 9,2.1 c 12.6,2.8 83,-0.6 97.7,-4.8 z m 27.8,-31.9 2.7,-31.3 -6,-37.3 -6.1,-37.4 2.3,-5.9 2.3,-5.9 -6.5,0 -6.5,0 0.2,15.1 c 0,8.3 2,38.6 4.4,67.4 2.3,28.8 4.5,55.5 4.7,59.4 0.3,3.9 1.7,7.1 3.2,7.1 l 2.6,0 2.7,-31.2 z m -74.6,-233.5 12.5,-11 0,-5.1 0,-5.2 -3.4,0 c -1.8,0 -6.7,3.7 -10.7,8.1 -9.1,10.1 -12,10 -26.5,-0.3 l -11.7,-8.3 -4,2.5 c -2.3,1.4 -4.1,5 -4.1,8 l 0,5.4 13.1,8.1 c 17.5,10.8 20.2,10.6 34.8,-2.2 z m 1.1,-23.1 10.7,-9.9 4,-13.3 c 2.2,-7.3 5.1,-21.8 6.4,-32.3 l 2.3,-19.2 -7.8,4.9 -7.7,4.8 -2.4,9.3 -2.3,9.2 -9.7,0 -9.7,0 -2.6,-8 -2.5,-8.1 -5.7,0 -5.7,0 -6.1,-9.4 -6.2,-9.4 2.6,-13 2.6,-12.9 13.8,-10.6 13.9,-10.6 3.3,5.3 3.3,5.4 13.5,-2.6 13.5,-2.6 -5.2,3.4 -5.2,3.3 6.3,5.3 6.3,5.2 -2.5,-6.6 -2.6,-6.6 7.5,-0.5 7.5,-0.4 -7.1,-1.9 -7.1,-1.8 2.3,-3.7 2.3,-3.7 -9.3,3.2 c -5.1,1.8 -12,3.1 -15.3,2.9 l -6.1,-0.3 0.6,-7 0.5,-6.9 -3.3,0 c -1.9,0 -4.5,1.8 -5.9,4.1 l -2.5,4.1 -3.3,-2.1 -3.3,-2 -4.9,5.9 -5,6 -3.5,-2.2 -3.6,-2.2 0,6.5 0,6.5 -4,-2.5 -4.1,-2.5 -0.7,13.4 c -0.4,7.3 -0.5,17.5 -0.2,22.7 l 0.5,9.4 -5.5,-2.1 -5.6,-2.1 -4.5,5.5 -4.6,5.4 9.3,-2 9.3,-2.1 -6,4.4 -6.1,4.3 5.1,0 5,0.1 0,4.5 0,4.5 -8.3,-2.2 -8.3,-2.1 1.8,4.7 1.7,4.7 5.2,-1.2 5.1,-1.2 3.4,5.2 c 1.8,2.9 3.3,10.4 3.4,16.7 l 0,11.5 13.7,13.7 13.7,13.7 5.5,0 5.5,0 10.6,-9.9 z m -30.2,-21 c -3.1,-3.1 -3.7,-17.4 -0.7,-17.4 1.1,0 5.5,3 9.9,6.7 l 7.9,6.8 -2.1,3.3 c -2.5,4 -11.3,4.3 -15,0.6 z m 31.6,-41.7 0,-5.9 -6,0 -6,0 -1.4,7.4 -1.5,7.4 7.5,-1.4 7.4,-1.5 0,-6 z m -14.1,-12.1 10,-8 -7,2.5 -7.1,2.4 0,-6.2 0,-6.2 11.1,1.3 c 15,1.8 14.7,1.5 9.4,7.9 l -4.7,5.7 4.4,2.7 4.4,2.7 5.8,-4.8 5.9,-4.9 0,-11 0,-10.9 -7.1,-6.1 -7,-6.2 -15,-0.4 -14.9,-0.4 -6.2,8.8 -6.2,8.8 0,10.4 0,10.4 4.8,4.8 c 6.3,6.3 7.5,6.1 19.4,-3.3 z m -48.1,-26.3 -3.6,-11.8 -0.3,6.7 c -0.4,7.5 3.9,20.5 6,18.4 0.8,-0.8 -0.2,-6.7 -2.1,-13.3 z m -1.3,458.6 c -3.8,-1 -7,-3.3 -7,-5 l 0,-3.2 9.5,1.8 9.5,1.8 8.2,-10.4 c 9.1,-11.6 13.1,-13.1 13.1,-5.1 l 0,5.3 -9.4,8.8 c -9.4,8.8 -11.2,9.3 -23.9,6 z"
           style="fill:#999999;fill-opacity:1"
           inkscape:connector-curvature="0" />
        <path
           id="path3540"
           d="m 154,618.9 -8.4,-35.8 0,-22.4 0,-22.5 -6,-22.9 c -3.2,-12.7 -9.7,-33.1 -14.3,-45.5 l -8.5,-22.5 2,-33.2 2,-33.3 -3.6,-2.2 -3.5,-2.2 1.7,-10.9 c 0.9,-6 3.8,-23.6 6.4,-39.1 l 4.7,-28.2 9,-12.1 c 5,-6.6 14.3,-17.3 20.7,-23.7 l 11.6,-11.6 11.1,-3.9 11,-3.9 0,-5 c 0,-2.8 -2,-11.2 -4.5,-18.7 l -4.6,-13.7 -8.1,-6.5 -8.1,-6.6 2.2,-16.3 2.1,-16.4 -6.2,-8.9 -6.2,-8.9 4.6,-7.4 c 2.6,-4.1 4.7,-9.8 4.7,-12.8 l 0,-5.3 14.1,-13.6 14.1,-13.68 0,3.5 0,3.51 10.2,-9.65 10.3,-9.66 14.1,-0.9 14,-0.9 -7.4,6.83 c -4.1,3.76 -5.5,5.72 -3.2,4.36 5.4,-3.14 17.3,-3.53 31.1,-1.01 l 10.7,1.96 1.9,4.93 1.9,4.94 -13.2,-1.54 -13.1,-1.54 -2.7,4.36 -2.7,4.39 12.2,-2.5 12.2,-2.43 2.6,6.53 2.5,6.5 5.3,0 c 3,0 6.7,2.2 8.3,4.7 l 2.9,4.8 -6.9,-2.7 -7,-2.7 2.4,7.6 2.4,7.6 -6.2,-0.6 -6.2,-0.5 -1.9,36.6 -2,36.7 -6.1,17.2 c -3.3,9.4 -6,18.8 -6,20.7 l 0,3.5 14.1,0 14.1,0 7.8,7.9 c 11.9,11.9 19.1,28 24.4,55 l 4.8,24.5 -2.6,23.8 c -1.4,13.1 -2.4,32.8 -2.2,43.9 0.1,11.1 0.4,53.1 0.5,93.4 l 0.2,73.4 -6.4,12.8 -6.4,12.9 0,31.6 0,31.6 -3.7,0 -3.7,0 2.2,-30.2 2.3,-30.2 -4.4,0 c -5.1,0 -21.7,-16.7 -19.2,-19.2 0.9,-0.9 5.7,2.4 10.6,7.3 l 8.9,9 4.3,-7.6 4.4,-7.6 2.3,-20.6 2.3,-20.5 -8.2,0.6 c -4.5,0.4 -17.8,2.1 -29.5,4 l -21.3,3.3 1.4,30.3 1.4,30.2 -7.1,1.9 -7.1,1.8 -1.2,24.8 -1.2,24.7 -3.5,-56.8 -3.5,-56.9 -17.6,0.5 -17.6,0.5 0,2.4 c -0.1,4.7 -22.2,24.7 -31.3,28.1 l -9,3.5 0,5.9 c 0,6.7 10.9,55 14.5,64.5 l 2.5,6.3 -4.2,0 -4.1,0 -8.4,-35.7 z m 87.2,-64 -1.6,-15.1 0,30.2 0,30.2 1.6,-15.1 c 0.9,-8.3 0.9,-21.9 0,-30.2 z m -87,4.4 -4.3,-7.4 -0.1,6.4 c -0.2,6.8 4.1,12.9 6.9,10 1,-0.9 -0.2,-5 -2.5,-9 z m 21,-0.6 6.6,-7.3 -4.5,-4.5 -4.5,-4.4 -4.2,-47.7 c -2.4,-26.2 -4,-60.7 -3.7,-76.8 l 0.5,-29.2 -13.6,0 c -7.5,0 -16.4,-1.1 -19.9,-2.4 l -6.4,-2.5 0.2,35.7 0.1,35.7 6.3,16.1 c 3.5,8.8 9.6,27.9 13.6,42.3 8.7,31.4 16.9,52.3 20.3,52.3 1.4,0 5.5,-3.3 9.2,-7.3 z m 14.7,-14.6 c 0,-1 -1.8,-2.9 -4,-4.3 l -4,-2.5 0,4.3 0,4.3 4,0 c 2.2,0 4,-0.8 4,-1.8 z m 94.7,-13.6 12,-3.4 -0.9,-23.9 c -0.5,-13.1 -2.9,-53.7 -5.3,-90.2 l -4.4,-66.5 -5.2,-23.1 -5.2,-23.2 3,0 c 4.1,0 8.4,14.6 10.5,36.3 1,9.9 2.6,20.3 3.6,23.1 l 1.7,5 10.2,0 10.2,0 0,-10.3 c 0,-5.6 -2.2,-23.2 -4.8,-39 l -4.7,-28.7 -9.5,-17 -9.5,-17 -5.7,-2.1 -5.7,-2.2 -2.4,7.5 -2.4,7.5 -15.8,14.3 -15.8,14.4 -9.8,2.4 -9.7,2.4 -13.5,-6.9 -13.6,-6.9 -10.2,-12.1 -10.3,-12.1 -8.1,4.4 -8.2,4.3 -10.6,15.4 -10.6,15.3 -6.3,29.9 -6.3,29.9 4.1,4.1 4.1,4.2 26.7,1.7 26.7,1.7 -2,-25.7 c -1,-14.1 -3.2,-28.8 -4.9,-32.7 l -3,-7.1 3.9,0 4,0 4.1,16.3 4.1,16.2 -1.6,23 -1.6,23 -7.9,6.1 -8,6.1 -0.3,22.1 c -0.3,27 3.7,95.4 6.3,107.4 l 1.9,8.8 9,2.1 c 5,1.1 26.3,1.2 47.3,0.3 l 38.3,-1.6 12.1,-3.5 z m 28,-31.9 2.7,-31.3 -4.5,-28.1 c -2.5,-15.6 -4.7,-35 -4.8,-43.3 l -0.2,-15.1 -5.6,0 -5.6,0 0.2,15.1 c 0.1,12.1 3.4,58.9 9,126.8 0.4,3.9 1.8,7.1 3.4,7.1 l 2.7,0 2.7,-31.2 z m -74.3,-233.3 12,-10.7 0,-5.4 0,-5.4 -3.4,0 c -1.8,0 -6.7,3.7 -10.7,8.1 -9,10 -13.4,10 -26.1,0 -5.6,-4.3 -12.4,-7.9 -15.1,-8 l -5.1,-0.1 0,7.7 0,7.7 13.1,8.1 c 7.2,4.4 15.4,8.2 18.2,8.4 l 5,0.3 12.1,-10.7 z m 0.5,-22.6 10.5,-8.9 4.2,-14.1 c 2.3,-7.8 5.2,-22.7 6.5,-33.2 l 2.3,-19.2 -7.8,4.9 -7.7,4.8 -1.9,7.2 -1.9,7.2 -7,2.7 -7.1,2.7 -7,-8.7 c -3.9,-4.8 -8.8,-8.7 -11,-8.7 -2.1,0 -6.2,-2.8 -9,-6.2 l -5.2,-6.3 0.5,-14.4 0.6,-14.5 12.9,-11.5 c 13.7,-12.3 19.5,-14.4 19.5,-7 l 0,4.6 15.1,-2.5 15.1,-2.4 -5.2,3.3 -5.2,3.2 7,5.7 7,5.7 -2.9,-4.8 -2.9,-4.8 7.2,-4.1 7.1,-4.2 -7.3,-0.1 -7.3,-0.1 2,-3.2 1.9,-3.1 -9,0.4 c -4.9,0.2 -11,1.7 -13.5,3.2 l -4.5,2.8 -2.5,-4.1 -2.6,-4.1 2.5,-4 2.5,-4 -3.5,0 c -1.9,0 -5.6,2.2 -8.3,4.8 l -4.8,4.8 0,-3.4 0,-3.4 -8,7.2 c -4.5,4.1 -8.1,6 -8.1,4.4 0,-1.6 -2.8,-0.1 -6.2,3.3 l -6.2,6.2 -0.8,20.3 -0.9,20.3 -4.7,-1.8 -4.8,-1.8 -4.9,5.9 -4.9,5.9 7.3,-2.8 7.3,-2.8 -2.9,4.7 -2.9,4.7 4.2,0 4.3,0 0,4.5 0,4.5 -8.3,-2.2 -8.3,-2.1 1.7,4.7 1.6,4.7 6.6,-1.2 6.6,-1.1 2.7,17.2 2.7,17.3 13.1,13.1 13,13.1 5.4,-0.2 c 3,0 10.2,-4.1 16.1,-9 z M 208.7,221 c -3.1,-3.1 -3.7,-17.4 -0.7,-17.4 1.1,0 5.6,3 10,6.8 l 8,6.9 -4.9,3.1 c -6.2,3.9 -8.9,4.1 -12.4,0.6 z m 31.6,-41.6 0,-5.9 -7.1,-1.4 -7,-1.3 0,8.6 0,8.6 7,-1.3 7.1,-1.4 0,-5.9 z m -18.2,-7.6 c 0,-2 3,-4.8 6.6,-6.1 l 6.5,-2.6 5.6,4.6 5.5,4.6 6,-5 6.1,-5 -0.1,-10.6 -0.2,-10.6 -5,-6.6 -5.1,-6.7 -15.9,0 -16,0 -7,6.3 -7.1,6.3 0,12.6 0,12.7 4.8,4.8 c 2.7,2.7 7.2,4.9 10.1,4.9 l 5.2,0 0,-3.6 z m 0,-14.6 0,-6 4.1,0 4,0 0,6 0,6.1 -4,0 -4.1,0 0,-6.1 z m 14,1.9 -2.7,-4.4 2.5,-2.5 2.5,-2.5 4.3,4.3 4.3,4.4 -4.1,2.5 -4.1,2.5 -2.7,-4.3 z m -58,-18.2 -3.6,-11.8 -0.3,6.7 c -0.4,7.5 3.9,20.5 6,18.4 0.8,-0.8 -0.2,-6.7 -2.1,-13.3 z m 40,-54.61 0,-4.02 -4,2.49 c -2.2,1.37 -4,4.3 -4,6.51 l 0,4.03 4,-2.49 c 2.2,-1.37 4,-4.3 4,-6.52 z m 27.1,6.1 -2.4,-2.43 -5.3,2.11 -5.3,2.12 7.7,0.32 7.7,0.31 -2.4,-2.43 z M 176.8,599.5 c -3.8,-1 -7,-3.2 -7,-4.9 l 0,-3 12,1.7 11.9,1.8 4.8,-10.5 c 2.6,-5.8 6.3,-10.5 8.2,-10.5 5.2,0 4.1,3.8 -5,16.5 l -8.3,11.7 -4.8,-0.5 c -2.6,-0.3 -7.9,-1.3 -11.8,-2.3 z"
           style="fill:#808080;fill-opacity:1"
           inkscape:connector-curvature="0" />
        <path
           id="path3538"
           d="m 154,618.9 -8.4,-35.8 0,-22.4 0,-22.5 -6,-22.9 c -3.2,-12.7 -9.7,-33.1 -14.3,-45.5 l -8.5,-22.5 2,-33.2 2,-33.3 -3.6,-2.2 -3.5,-2.2 1.7,-10.9 c 0.9,-6 3.8,-23.6 6.4,-39.1 l 4.7,-28.2 9,-12.1 c 5,-6.6 14.3,-17.3 20.7,-23.7 l 11.6,-11.6 11.1,-3.9 11,-3.9 0,-5 c 0,-2.8 -2,-11.2 -4.5,-18.7 l -4.6,-13.7 -8.1,-6.5 -8.1,-6.6 2.2,-16.3 2.1,-16.4 -6.2,-8.9 -6.2,-8.9 4.6,-7.4 c 2.6,-4.1 4.7,-9.8 4.7,-12.8 l 0,-5.3 14.1,-13.6 14.1,-13.68 0,3.5 0,3.51 10.2,-9.65 10.3,-9.66 14.1,-0.9 14,-0.9 -7.4,6.83 c -4.1,3.76 -5.5,5.72 -3.2,4.36 5.4,-3.14 17.3,-3.53 31.1,-1.01 l 10.7,1.96 1.9,4.93 1.9,4.94 -13.2,-1.54 -13.1,-1.54 -2.7,4.36 -2.7,4.39 12.2,-2.5 12.2,-2.43 2.6,6.53 2.5,6.5 5.3,0 c 3,0 6.7,2.2 8.3,4.7 l 2.9,4.8 -6.9,-2.7 -7,-2.7 2.4,7.6 2.4,7.6 -6.2,-0.6 -6.2,-0.5 -1.9,36.6 -2,36.7 -6.1,17.2 c -3.3,9.4 -6,18.8 -6,20.7 l 0,3.5 14.1,0 14.1,0 7.8,7.9 c 11.9,11.9 19.1,28 24.4,55 l 4.8,24.5 -2.6,23.8 c -1.4,13.1 -2.4,32.8 -2.2,43.9 0.1,11.1 0.4,53.1 0.5,93.4 l 0.2,73.4 -6.4,12.8 -6.4,12.9 0,31.6 0,31.6 -3.7,0 -3.7,0 2.2,-30.2 2.3,-30.2 -4.4,0 c -5.1,0 -21.7,-16.7 -19.2,-19.2 0.9,-0.9 5.7,2.4 10.6,7.3 l 8.9,9 4.3,-7.6 4.4,-7.6 2.3,-20.6 2.3,-20.5 -8.2,0.6 c -4.5,0.4 -17.8,2.1 -29.5,4 l -21.3,3.3 1.4,30.3 1.4,30.2 -7.1,1.9 -7.1,1.8 -1.2,24.8 -1.2,24.7 -3.5,-56.8 -3.5,-56.9 -17.6,0.5 -17.6,0.5 0,2.4 c -0.1,4.7 -22.2,24.7 -31.3,28.1 l -9,3.5 0,5.9 c 0,6.7 10.9,55 14.5,64.5 l 2.5,6.3 -4.2,0 -4.1,0 -8.4,-35.7 z m 87.2,-64 -1.6,-15.1 0,30.2 0,30.2 1.6,-15.1 c 0.9,-8.3 0.9,-21.9 0,-30.2 z m -87,4.4 -4.3,-7.4 -0.1,6.4 c -0.2,6.8 4.1,12.9 6.9,10 1,-0.9 -0.2,-5 -2.5,-9 z m 21,-0.6 6.6,-7.3 -4.5,-4.5 -4.5,-4.4 -4.2,-47.7 c -2.4,-26.2 -4,-60.7 -3.7,-76.8 l 0.5,-29.2 -13.6,0 c -7.5,0 -16.4,-1.1 -19.9,-2.4 l -6.4,-2.5 0.2,35.7 0.1,35.7 6.3,16.1 c 3.5,8.8 9.6,27.9 13.6,42.3 8.7,31.4 16.9,52.3 20.3,52.3 1.4,0 5.5,-3.3 9.2,-7.3 z m 14.7,-14.6 c 0,-1 -1.8,-2.9 -4,-4.3 l -4,-2.5 0,4.3 0,4.3 4,0 c 2.2,0 4,-0.8 4,-1.8 z m 94.7,-13.6 12,-3.4 -0.9,-23.9 c -0.5,-13.1 -2.9,-53.7 -5.3,-90.2 l -4.4,-66.5 -5.2,-23.1 -5.2,-23.2 3,0 c 4.1,0 8.4,14.6 10.5,36.3 1,9.9 2.6,20.3 3.6,23.1 l 1.7,5 10.2,0 10.2,0 0,-10.3 c 0,-5.6 -2.2,-23.2 -4.8,-39 l -4.7,-28.7 -9.5,-17 -9.5,-17 -5.7,-2.1 -5.7,-2.2 -2.4,7.5 -2.4,7.5 -15.8,14.3 -15.8,14.4 -9.8,2.4 -9.7,2.4 -13.5,-6.9 -13.6,-6.9 -10.2,-12.1 -10.3,-12.1 -8.1,4.4 -8.2,4.3 -10.6,15.4 -10.6,15.3 -6.3,29.9 -6.3,29.9 4.1,4.1 4.1,4.2 26.7,1.7 26.7,1.7 -2,-25.7 c -1,-14.1 -3.2,-28.8 -4.9,-32.7 l -3,-7.1 3.9,0 4,0 4.1,16.3 4.1,16.2 -1.6,23 -1.6,23 -7.9,6.1 -8,6.1 -0.3,22.1 c -0.3,27 3.7,95.4 6.3,107.4 l 1.9,8.8 9,2.1 c 5,1.1 26.3,1.2 47.3,0.3 l 38.3,-1.6 12.1,-3.5 z m 28,-31.9 2.7,-31.3 -4.5,-28.1 c -2.5,-15.6 -4.7,-35 -4.8,-43.3 l -0.2,-15.1 -5.6,0 -5.6,0 0.2,15.1 c 0.1,12.1 3.4,58.9 9,126.8 0.4,3.9 1.8,7.1 3.4,7.1 l 2.7,0 2.7,-31.2 z m -74.3,-233.3 12,-10.7 0,-5.4 0,-5.4 -3.4,0 c -1.8,0 -6.7,3.7 -10.7,8.1 -9,10 -13.4,10 -26.1,0 -5.6,-4.3 -12.4,-7.9 -15.1,-8 l -5.1,-0.1 0,7.7 0,7.7 13.1,8.1 c 7.2,4.4 15.4,8.2 18.2,8.4 l 5,0.3 12.1,-10.7 z m 0.5,-22.6 10.5,-8.9 4.2,-14.1 c 2.3,-7.8 5.2,-22.7 6.5,-33.2 l 2.3,-19.2 -7.8,4.9 -7.7,4.8 -1.9,7.2 -1.9,7.2 -7,2.7 -7.1,2.7 -7,-8.7 c -3.9,-4.8 -8.8,-8.7 -11,-8.7 -2.1,0 -6.2,-2.8 -9,-6.2 l -5.2,-6.3 0.5,-14.4 0.6,-14.5 12.9,-11.5 c 13.7,-12.3 19.5,-14.4 19.5,-7 l 0,4.6 15.1,-2.5 15.1,-2.4 -5.2,3.3 -5.2,3.2 7,5.7 7,5.7 -2.9,-4.8 -2.9,-4.8 7.2,-4.1 7.1,-4.2 -7.3,-0.1 -7.3,-0.1 2,-3.2 1.9,-3.1 -9,0.4 c -4.9,0.2 -11,1.7 -13.5,3.2 l -4.5,2.8 -2.5,-4.1 -2.6,-4.1 2.5,-4 2.5,-4 -3.5,0 c -1.9,0 -5.6,2.2 -8.3,4.8 l -4.8,4.8 0,-3.4 0,-3.4 -8,7.2 c -4.5,4.1 -8.1,6 -8.1,4.4 0,-1.6 -2.8,-0.1 -6.2,3.3 l -6.2,6.2 -0.8,20.3 -0.9,20.3 -4.7,-1.8 -4.8,-1.8 -4.9,5.9 -4.9,5.9 7.3,-2.8 7.3,-2.8 -2.9,4.7 -2.9,4.7 4.2,0 4.3,0 0,4.5 0,4.5 -8.3,-2.2 -8.3,-2.1 1.7,4.7 1.6,4.7 6.6,-1.2 6.6,-1.1 2.7,17.2 2.7,17.3 13.1,13.1 13,13.1 5.4,-0.2 c 3,0 10.2,-4.1 16.1,-9 z M 208.7,221 c -3.1,-3.1 -3.7,-17.4 -0.7,-17.4 1.1,0 5.6,3 10,6.8 l 8,6.9 -4.9,3.1 c -6.2,3.9 -8.9,4.1 -12.4,0.6 z m 31.6,-41.6 0,-5.9 -7.1,-1.4 -7,-1.3 0,8.6 0,8.6 7,-1.3 7.1,-1.4 0,-5.9 z m -18.2,-7.6 c 0,-2 3,-4.8 6.6,-6.1 l 6.5,-2.6 5.6,4.6 5.5,4.6 6,-5 6.1,-5 -0.1,-10.6 -0.2,-10.6 -5,-6.6 -5.1,-6.7 -15.9,0 -16,0 -7,6.3 -7.1,6.3 0,12.6 0,12.7 4.8,4.8 c 2.7,2.7 7.2,4.9 10.1,4.9 l 5.2,0 0,-3.6 z m 0,-14.6 0,-6 4.1,0 4,0 0,6 0,6.1 -4,0 -4.1,0 0,-6.1 z m 14,1.9 -2.7,-4.4 2.5,-2.5 2.5,-2.5 4.3,4.3 4.3,4.4 -4.1,2.5 -4.1,2.5 -2.7,-4.3 z m -58,-18.2 -3.6,-11.8 -0.3,6.7 c -0.4,7.5 3.9,20.5 6,18.4 0.8,-0.8 -0.2,-6.7 -2.1,-13.3 z m 40,-54.61 0,-4.02 -4,2.49 c -2.2,1.37 -4,4.3 -4,6.51 l 0,4.03 4,-2.49 c 2.2,-1.37 4,-4.3 4,-6.52 z m 27.1,6.1 -2.4,-2.43 -5.3,2.11 -5.3,2.12 7.7,0.32 7.7,0.31 -2.4,-2.43 z M 176.8,599.5 c -3.8,-1 -7,-3.2 -7,-4.9 l 0,-3 12,1.7 11.9,1.8 4.8,-10.5 c 2.6,-5.8 6.3,-10.5 8.2,-10.5 5.2,0 4.1,3.8 -5,16.5 l -8.3,11.7 -4.8,-0.5 c -2.6,-0.3 -7.9,-1.3 -11.8,-2.3 z"
           style="fill:#666666;fill-opacity:1"
           inkscape:connector-curvature="0" />
        <path
           id="path3536"
           d="m 154.1,619 -8.9,-37.6 0.9,-23.1 0.8,-23.2 -2.7,-4.4 c -1.5,-2.4 -4.4,-12.2 -6.3,-21.8 -2,-9.6 -7.5,-27.4 -12.2,-39.5 l -8.5,-22.2 2.1,-33 2.1,-33 -3.3,-2 -3.3,-2.1 3.2,-21.3 c 1.7,-11.8 4.4,-30.2 5.9,-40.9 l 2.8,-19.6 22,-23.7 22,-23.7 4.6,-0.1 c 2.5,0 7.1,-1.7 10.2,-3.7 l 5.7,-3.5 -5.2,-18.7 -5.3,-18.7 -7.5,-4 -7.6,-4 1.7,-17.7 1.6,-17.7 -5.9,-8.5 -6,-8.5 2.6,-6.8 2.6,-6.7 3.8,5.9 3.8,5.9 -2.3,-12 -2.3,-12.1 14.4,-13.9 14.4,-13.88 0,3.55 0,3.56 12.2,-11.76 12.3,-11.75 3.3,5.39 3.4,5.39 2.7,-4.45 2.8,-4.46 6.2,0 6.3,0 -7.7,7.05 c -4.2,3.87 -5.8,5.93 -3.5,4.57 5.4,-3.16 17.4,-3.52 31.4,-0.94 l 11.1,2.04 0,3.44 0,3.44 -11.9,-0.34 -12,-0.34 2.5,-4.11 2.6,-4.1 -7,2.7 c -3.9,1.48 -8.9,2.7 -11,2.7 l -4,0 2.4,3.85 2.4,3.85 6.6,-2.52 6.6,-2.52 -3.1,4.87 -3,4.87 9.9,-2.5 9.8,-2.43 5.6,5.63 c 3.1,3 9.2,7.8 13.7,10.5 l 8,5 -10,-2.7 -10.1,-2.6 5,5.2 c 2.8,2.9 5.1,6.6 5.1,8.1 l 0,2.8 -6.3,-0.6 -6.3,-0.5 -1.8,37.6 -1.8,37.7 -7.7,17.4 -7.6,17.4 2.3,2.3 c 1.3,1.3 8.3,2.3 15.7,2.3 l 13.5,0 7.8,7.9 c 4.3,4.3 10.8,13.6 14.4,20.6 l 6.6,12.7 4.4,37.6 4.4,37.6 -5.1,15.6 -5.1,15.5 4.4,36.9 4.5,36.9 -2.6,51.5 -2.6,51.4 -5.5,10.9 -5.5,10.9 0,32.4 0,32.4 -3.7,0 -3.7,0 2.3,-30.4 2.3,-30.4 -7.9,-2.1 -7.8,-2 -4.9,-7.8 c -6.4,-10.3 -2.9,-9.9 7.9,0.8 l 8.6,8.6 5.1,-9.7 5.1,-9.7 2,-18.4 2,-18.5 -8.7,0.6 c -4.8,0.4 -18.2,2.1 -29.8,4 l -21.2,3.3 0,31.7 0,31.7 -5.8,0 -5.9,0 -1.2,25.2 -1.2,25.1 -3.5,-57.7 -3.6,-57.8 -13,2.5 -13.1,2.5 -10.6,-4.1 -10.5,-4 0,3.9 0,4 6.8,0 6.8,0 -11.9,12.5 c -6.5,6.8 -15.9,14 -20.9,16 l -9,3.5 0,6.3 c 0,3.5 2.8,19 6.3,34.4 l 6.4,28 -1.7,5 -1.7,5 -8.9,-37.6 z m 87.1,-64.1 -1.6,-15.1 0,30.2 0,30.2 1.6,-15.1 c 0.9,-8.3 0.9,-21.9 0,-30.2 z m -87.1,1.9 -4.4,-4.5 0,6.2 c 0,3.4 1.3,7.5 2.9,9.1 l 2.9,2.9 1.6,-4.6 1.5,-4.6 -4.5,-4.5 z m 21.6,2.7 6.4,-6.4 -4.6,-5.7 -4.7,-5.6 -4.2,-47.3 c -2.4,-26 -4,-60.4 -3.7,-76.5 l 0.5,-29.2 -13.6,0 c -7.5,0 -16.4,-1.1 -19.9,-2.4 l -6.4,-2.5 0.2,35.7 0.1,35.7 6.3,16.1 c 3.4,8.8 8.1,23.3 10.3,32.2 6.4,24.7 20.9,62.4 24,62.4 1.6,0 5.7,-2.9 9.3,-6.5 z m 112.2,-29.5 10.5,-4 -1.8,-25.3 c -1,-13.9 -3.8,-54.3 -6.3,-89.7 l -4.4,-64.5 -5.2,-23.1 -5.1,-23.2 3,0 c 4.1,0 8.4,14.6 10.5,36.3 1,9.9 2.6,20.3 3.6,23.1 l 1.7,5 10.2,0 10.2,0 0,-13.4 c 0,-7.4 -2,-24.1 -4.4,-37.2 L 306,290.1 297.8,274 c -4.6,-8.8 -11,-18.3 -14.3,-20.9 l -6,-4.9 -8.6,12.8 -8.6,12.7 -16.7,11.8 -16.7,11.7 -11.3,-2.8 -11.2,-2.8 -17.6,-17.6 -17.5,-17.6 -15.9,16.4 -15.9,16.4 -5.7,20.6 c -3.1,11.3 -6.8,27.4 -8.2,35.7 l -2.5,15.2 10.5,4 10.5,4 19.9,0 19.9,0 0,-19.2 0,-19.1 -4,-13.8 -3.9,-13.8 4,4 c 2.2,2.2 5.6,9.7 7.6,16.6 l 3.6,12.5 -1.7,23.4 -1.6,23.4 -8.5,6.4 -8.4,6.4 0.1,23.8 c 0.1,29 4.3,93.1 6.9,105.1 l 1.8,8.8 7.1,2.1 7,2.1 42.7,-1.7 42.7,-1.7 10.6,-4 z m 24.9,-33.5 2.7,-33.2 -4.6,-25.6 c -2.6,-14.1 -4.8,-32.6 -4.9,-41 l -0.2,-15.4 -5.6,-2.2 -5.6,-2.1 0.2,17 c 0.1,9.3 2,40.5 4.2,69.3 2.3,28.8 4.2,55.5 4.2,59.4 l 0,7.1 3.4,0 3.4,0 2.8,-33.3 z m -82.6,-224.2 0,-3.8 7.8,-2.5 7.9,-2.4 2.6,-8.2 2.6,-8.1 -2.4,-2.4 -2.4,-2.4 -9.3,8.7 c -11.7,11 -13.3,10.9 -29.1,-1.2 l -13,-9.8 -2.5,2.5 c -1.3,1.3 -2.5,5.6 -2.5,9.5 l 0,6.9 13.1,8.4 13.1,8.4 7,0.1 7.1,0 0,-3.7 z m 6.5,-27.2 10.3,-6.7 4.1,-10.4 c 2.2,-5.7 5.5,-20.3 7.3,-32.5 1.8,-12.2 4.6,-25.5 6.3,-29.6 l 2.9,-7.4 -10.1,10 c -5.5,5.6 -11.2,13 -12.5,16.6 l -2.5,6.6 -6.8,2.6 -6.8,2.5 -7,-8.7 c -3.9,-4.8 -8.8,-8.7 -11,-8.7 -2.1,0 -6.2,-2.8 -9,-6.2 l -5.2,-6.3 0.5,-14 0.5,-14 13.1,-12 c 14,-12.7 19.4,-14.8 19.4,-7.4 l 0,4.6 15.1,-2.5 15.1,-2.4 -5.2,3.3 -5.2,3.2 7,5.7 7,5.7 -2.9,-4.8 -2.9,-4.8 7.2,-4.1 7.1,-4.2 -7.3,-0.1 -7.3,-0.1 2.5,-4 2.4,-4 -6.3,2.4 -6.3,2.5 -6.7,-5.5 -6.8,-5.5 3,5 3.1,5.1 -6.8,0 -6.7,0 2.5,-6.3 2.4,-6.3 -9.1,2.7 c -4.9,1.5 -12.2,5.5 -16,8.9 -3.9,3.5 -7.1,4.9 -7.1,3.3 0,-1.6 -2.7,-0.2 -6,3.1 l -6.1,6.1 0,9.3 c -0.1,5.2 -1.8,12.1 -3.9,15.4 l -3.9,6 -2.7,-13.2 c -1.4,-7.3 -3.5,-12.4 -4.5,-11.3 -1,1 -0.6,7.4 0.9,14.2 l 2.7,12.4 5.7,0 5.7,0 0,3.9 0,3.9 -5.4,-2.1 -5.4,-2.1 -5.2,6.3 -5.3,6.4 5.8,-2.3 5.7,-2.2 0.7,8.5 0.6,8.5 -6.1,-2.3 -6.2,-2.4 1.8,5.1 1.7,5 6.6,-1.2 6.6,-1.1 2.7,17.2 2.7,17.3 13.1,13.1 c 14.9,15 18.3,15.6 32.4,6.3 z m -30.7,-33.5 0,-8.1 8.1,5 c 4.4,2.8 8,6.4 8,8.1 l 0,3.1 -8,0 -8.1,0 0,-8.1 z m 34.3,-32.2 0,-5.9 -7.1,-1.4 -7,-1.3 0,8.6 0,8.6 7,-1.3 7.1,-1.4 0,-5.9 z m -18.2,-7.6 c 0,-2 3,-4.8 6.6,-6.1 l 6.5,-2.6 5.4,4.5 5.4,4.4 4.1,-2.5 c 2.3,-1.5 5.9,-5.8 8,-9.6 l 3.7,-7.1 -6.1,-12.6 -6.1,-12.6 -16.8,0.1 -16.7,0.2 -7,6.2 -7.1,6.3 0,12.6 0,12.7 4.8,4.8 c 2.7,2.7 7.2,4.9 10.1,4.9 l 5.2,0 0,-3.6 z m 0,-14.6 0,-6 4.1,0 4,0 0,6 0,6.1 -4,0 -4.1,0 0,-6.1 z m 14.5,2.6 -3.2,-5.1 2.4,-2.4 2.5,-2.4 2.4,2.4 c 1.3,1.3 1.7,4.7 0.7,7.5 l -1.7,5.1 -3.1,-5.1 z m -18.5,-73.51 0,-4.02 -4,2.49 c -2.2,1.37 -4,4.3 -4,6.51 l 0,4.03 4,-2.49 c 2.2,-1.37 4,-4.3 4,-6.52 z M 176.8,599.5 c -3.8,-1 -7,-3.3 -7,-5 l 0,-3.2 10.5,2 10.5,2 9.5,-11.6 9.5,-11.7 0.1,4.5 c 0.2,5.4 -18.3,25.9 -22.8,25.3 -1.8,-0.3 -6.4,-1.3 -10.3,-2.3 z"
           style="fill:#4d4d4d;fill-opacity:1"
           inkscape:connector-curvature="0" />
        <path
           id="path3534"
           d="m 232.7,599.4 -3.5,-57.2 -16.6,0.2 c -9.2,0.1 -21.2,-1 -26.7,-2.5 l -10.1,-2.7 7.8,6.3 7.8,6.3 -9.2,9.8 c -5,5.4 -14.1,11.8 -20.2,14.4 l -11,4.5 7.3,34.7 c 9.1,42.6 6.9,49.3 -2.7,8.5 l -7,-29.5 -1.1,-34.2 -1.1,-34.3 8.2,21.2 c 9,23 10,23.8 21.3,15.5 l 7.7,-5.6 -5.4,-6.5 -5.4,-6.5 -3.4,-45.3 c -1.8,-24.9 -4.3,-49.8 -5.5,-55.3 l -2.3,-10.1 5.9,12.1 6,12.1 0.1,37.3 0.2,37.4 10.3,3.9 10.4,3.9 21.3,0 21.4,0 0.1,11.1 c 0,6.1 0.3,20.7 0.5,32.4 l 0.5,21.4 4.5,-2.8 4.5,-2.8 -1.9,-29.7 -1.9,-29.7 8.4,-1.7 c 21.6,-4.3 41.5,-7.1 49.6,-7.1 l 8.8,0 1.7,-10.7 1.8,-10.6 0,28.2 -0.1,28.2 -5.3,13.2 -5.4,13.2 -0.7,32.1 -0.7,32.1 -3,0 -3.1,0 2.1,-35.2 2.1,-35.3 3.1,-4 c 1.6,-2.2 4.3,-13.7 5.9,-25.6 l 2.9,-21.6 -21.6,3.2 c -11.8,1.8 -25.6,3.4 -30.6,3.5 l -9.1,0.2 0,30.8 0,30.8 -5.8,2.2 -5.9,2.3 -1.2,25.3 -1.2,25.4 -3.5,-57.2 z M 157.3,561 c -6.9,-13.4 -7.6,-13.5 -7.6,-1.7 l 0,10.7 6.1,0 6.2,0 -4.7,-9 z m 19.5,38.5 c -3.8,-1 -7,-3.2 -7,-4.9 l 0,-3 11.7,1.7 11.7,1.7 4.6,-8.5 4.5,-8.4 4.6,0 4.7,0 -11.6,12.1 c -6.4,6.6 -12.6,11.8 -13.8,11.6 -1.3,-0.3 -5.5,-1.3 -9.4,-2.3 z m 103.7,-17.4 c -4,-4.4 -6.1,-8 -4.6,-8 1.4,0 6.2,3.6 10.7,8 l 8,8.1 -3.4,0 c -1.8,0 -6.7,-3.7 -10.7,-8.1 z M 141.6,521.7 c -0.5,-1.1 -1.5,-7 -2.2,-13.2 -0.8,-6.2 -4.2,-16.9 -7.6,-23.8 -3.5,-6.9 -6.3,-15.8 -6.3,-19.8 l 0,-7.2 -4.2,-2.5 -4.2,-2.6 1,-15.8 0.9,-15.8 3.6,0 3.5,0 -1,13.1 c -1.1,14.4 0.9,22.9 13.1,54.1 l 8.1,20.9 -1.9,7.3 c -1,4 -2.3,6.4 -2.8,5.3 z m 155.5,-10.2 -2.5,-6.6 0.6,-34.9 0.6,-34.9 3.1,40.3 c 3.1,40.9 2.7,47.8 -1.8,36.1 z m 13.6,-9.7 c 0,-2.1 1.8,-4.9 4,-6.2 l 4,-2.5 -2.4,6.2 c -2.7,7 -5.6,8.3 -5.6,2.5 z m 1.4,-54.8 c -1.3,-3.4 -1.5,-7.1 -0.4,-8.2 1.1,-1.1 3,1.7 4.2,6.2 2.5,9.6 -0.3,11.1 -3.8,2 z m -2.9,-20.3 c -1.4,-3.5 -2.5,-15 -2.5,-25.7 l 0,-19.4 -6,-2.3 -6.1,-2.3 -0.5,25 -0.5,25.1 -5.4,-52.2 c -3,-28.8 -7.2,-57.3 -9.4,-63.5 l -3.9,-11.2 3.7,0 3.6,0 3,15.1 c 1.7,8.3 3.3,16.5 3.7,18.1 0.4,1.7 0.9,9.4 1.2,17.2 l 0.5,14 11.1,0 11.1,0 0,34.3 c 0,18.8 -0.3,34.2 -0.6,34.2 -0.3,0 -1.7,-2.9 -3,-6.4 z m 1.5,-54 0,-4 -11,0.4 -11.1,0.4 10.1,3.2 c 5.5,1.8 10.5,3.4 11,3.6 0.6,0.2 1,-1.4 1,-3.6 z m -149,48.6 c 0,-4.3 1.6,-8.8 3.5,-10 l 3.4,-2.1 -1.9,9.9 c -2.2,11.9 -5,13.1 -5,2.2 z M 121.8,417 c -0.6,-1.1 -1.8,-16.5 -2.7,-34.2 l -1.7,-32.2 4.3,-20.2 c 2.3,-11.1 5.1,-24.3 6.2,-29.4 l 1.9,-9.3 17,-18.5 16.9,-18.5 13.6,-5.7 13.5,-5.6 -2.4,-12.9 c -1.4,-7.1 -3.2,-15.6 -4.2,-18.9 -0.9,-3.3 -1.9,-7.2 -2,-8.6 -0.2,-1.4 -4,-3.5 -8.4,-4.6 l -8,-2.1 0.1,-7.5 0.1,-7.4 4,6.9 4,6.9 5.9,-2.3 5.8,-2.2 2.7,17.5 2.7,17.5 15.7,15.1 15.7,15.1 12.2,-9.1 12.3,-9 5.8,-13.9 5.8,-13.8 1.8,-21.4 1.9,-21.4 -7.8,4.9 -7.7,4.8 -1.9,7.2 -1.9,7.2 -7,2.7 -7.1,2.7 -6.6,-7.7 c -3.6,-4.2 -10.1,-9.7 -14.4,-12.1 l -7.9,-4.5 -1.1,-15.7 -1.2,-15.7 10.4,-11 C 213.8,124 220.2,119 222.4,119 l 3.9,0 4.4,-9.5 4.3,-9.57 12.7,-6.68 12.7,-6.69 -12.1,2.44 -12.1,2.44 -3,5.45 c -1.7,3 -8.4,8.11 -14.9,11.31 l -11.8,5.9 -2.2,-2.2 -2.2,-2.2 5,-6.5 5,-6.36 -7,5.46 -7,5.5 2,3.3 2,3.2 -5.5,5.5 -5.4,5.4 -3,15.8 -2.9,15.7 -3.7,-5.8 c -2,-3.1 -3.7,-9 -3.7,-13 l -0.1,-7.3 4.1,2.5 4,2.5 0,-6.8 0,-6.8 -6,5 -6.1,5.1 0,9.4 0,9.4 8.6,8 8.5,7.9 -8.5,-2.2 -8.5,-2.2 -4.2,9.5 -4.1,9.5 2,-10.4 2,-10.4 -5.8,-7.7 c -3.2,-4.3 -5.9,-10 -6,-12.8 l -0.1,-5 3.9,0 3.9,0 -2.2,7 -2.2,7.1 4.7,-7.3 4.7,-7.3 -2,-5.1 -1.9,-5 8,-5.1 8.1,-5 -2.4,-2.3 -2.3,-2.3 -7.1,5.4 c -3.9,3 -1,-1.1 6.4,-9.2 l 13.6,-14.58 5,1.91 4.9,1.9 6.7,-10.27 6.8,-10.27 4.7,0 4.7,0 -9.5,8.81 -9.5,8.82 8.3,3.69 8.3,3.69 8.2,-8.2 8.2,-8.2 14.8,1.37 14.8,1.38 4.6,4.98 4.6,4.98 -7.4,-2.62 -7.4,-2.62 -11.7,6.92 c -6.5,3.81 -11.7,8.41 -11.7,10.21 l 0,3.2 9.8,-6.4 9.9,-6.52 8.2,2.62 c 4.6,1.4 8.5,4.3 8.8,6.4 0.3,2 0.7,5.4 1,7.4 0.3,2.1 1.9,5.1 3.5,6.7 1.7,1.7 3.1,4.4 3.1,6 l 0,3 -7.1,-1.8 -7.1,-1.9 -0.8,38.6 -0.9,38.6 -7.8,17.7 -7.8,17.7 2.3,2.3 c 1.3,1.3 7.9,2.4 14.7,2.5 l 12.4,0.1 6.2,4.9 c 3.4,2.7 10.2,11.7 15,20.1 l 8.8,15.1 1.9,19.1 1.9,19.1 -5.3,-20.9 -5.3,-20.9 -8.7,-14 -8.6,-13.9 -6.1,-2.4 -6.1,-2.3 -3.4,9 c -3.8,9.7 -16.6,22.1 -32.5,31.6 l -10.1,5.9 -8.7,-0.6 -8.6,-0.6 -12.3,-8.8 c -6.8,-4.8 -16,-13.4 -20.4,-19 l -8.1,-10.2 -9.3,9.4 c -5.1,5.1 -13.3,14 -18.3,19.7 l -9.1,10.4 -6.1,31.9 -6.1,31.8 7,5.1 6.9,5.1 23.4,0 23.4,0 0.4,-7.1 c 0.7,-10.1 0.8,-9.1 -2,-33.2 l -2.5,-22.1 4.8,8 4.9,8.1 -0.2,29.7 -0.3,29.7 -6.8,3.9 -6.9,3.8 -3.5,8.7 -3.5,8.7 -0.3,-9 -0.2,-9.1 -13.8,0 c -7.6,0 -16.5,-1 -19.9,-2.3 l -6.1,-2.4 -1.6,17.5 c -0.8,9.6 -2,16.5 -2.6,15.4 z m 55,-36 c 2.8,-0.1 5.1,-1.6 5.1,-3.3 l 0,-3 -21.2,0.5 -21.1,0.6 -9.1,-3.5 -9,-3.4 0,3.3 c 0,1.8 3.9,5 8.6,7.2 l 8.7,3.8 16.5,-1 c 9.1,-0.5 18.8,-1.1 21.5,-1.2 z m 76.6,-110.8 c 7.2,-7.8 13,-16 13,-18.3 0,-7.3 -7.6,-4.2 -12.4,5 -2.6,5 -9.4,13 -15.2,17.7 l -10.5,8.6 -9.5,-1.7 c -5.2,-0.9 -14.7,-5.6 -21.2,-10.4 l -11.7,-8.6 0,-5.6 0,-5.5 -4,2.5 -4.1,2.5 7.1,9.4 c 3.9,5.2 11.6,12.4 17.1,16 l 10.1,6.5 14.1,-1.9 14.1,-2 13.1,-14.2 z m -13.7,-4 10.6,-9.9 0,-6.2 c 0,-8.5 -3.8,-7.9 -14.7,2.4 l -9.2,8.6 -15.8,-10.4 -15.8,-10.4 -2.4,2.4 c -1.4,1.4 -2.5,5.3 -2.5,8.7 l 0,6.2 11.1,9.1 11.1,9.1 8.4,0.1 8.5,0.1 10.7,-9.8 z m 2.6,-85.3 0,-5.8 -6.5,-2.5 -6.4,-2.4 -3.4,5.5 -3.4,5.4 4.1,5 4.1,4.9 5.7,-2.2 5.8,-2.2 0,-5.7 z m -20.2,-9.1 0,-3.5 8.1,-2.2 8.1,-2.1 -2.5,-6.4 -2.4,-6.4 4.7,0 4.7,0 -1.3,8.7 -1.2,8.7 4.7,1.6 4.8,1.6 6.7,-10.1 6.6,-10.1 -7,-11.9 -7.1,-11.9 -13.8,-1.6 -13.9,-1.7 -9.6,7.6 -9.7,7.6 0,13 0,13 4.8,4.8 c 2.7,2.7 7.2,4.9 10.1,4.9 l 5.2,0 0,-3.6 z m 2.4,-12 -3.2,-5.1 2.5,-2.4 2.4,-2.4 2.4,2.4 c 1.3,1.3 1.7,4.7 0.7,7.5 l -1.7,5.1 -3.1,-5.1 z m 39.1,-40.2 -6.4,-1.4 5.6,-3.7 5.7,-3.6 -17.2,1.3 -17.2,1.2 -5,5.3 -4.9,5.2 14.9,-1.6 c 8.2,-0.9 14.1,-0.8 13.1,0.2 -1,1 0.2,4.2 2.7,7.2 l 4.5,5.5 5.3,-7.1 5.2,-7.1 -6.3,-1.4 z M 194,98.38 l 0,-4.03 -4.1,2.49 c -2.2,1.37 -4,4.26 -4,6.56 l 0,4 4,-2.5 c 2.2,-1.4 4.1,-4.3 4.1,-6.52 z m 13.9,117.02 c -1.5,-2.4 -1.8,-5.2 -0.8,-6.2 2.8,-2.8 15,2.8 15,6.9 l 0,3.6 -5.8,0 c -3.2,0 -7,-2 -8.4,-4.3 z m -34.1,-36 0,-8.1 3.2,0 3.2,0 0.6,8.1 0.6,8.1 -3.8,0 -3.8,0 0,-8.1 z m 48,-94.1 c 5.4,-5.84 11.5,-10.61 13.6,-10.61 l 3.8,0 -5.2,6.26 c -2.8,3.44 -8.9,8.22 -13.5,10.61 l -8.4,4.36 9.7,-10.62 z"
           style="fill:#333333;fill-opacity:1"
           inkscape:connector-curvature="0" />
        <path
           id="path3532"
           d="m 232.7,599.4 -3.5,-57.2 -16.6,0.2 c -9.2,0.1 -21.2,-1 -26.7,-2.5 l -10.1,-2.7 7.8,6.3 7.8,6.3 -9.2,9.8 c -5,5.4 -14.1,11.8 -20.2,14.4 l -11,4.5 7.3,34.7 c 9.1,42.6 6.9,49.3 -2.7,8.5 l -7,-29.5 -1.1,-34.2 -1.1,-34.3 8.2,21.2 c 9,23 10,23.8 21.3,15.5 l 7.7,-5.6 -5.4,-6.5 -5.4,-6.5 -3.4,-45.3 c -1.8,-24.9 -4.3,-49.8 -5.5,-55.3 l -2.3,-10.1 5.9,12.1 6,12.1 0.1,37.3 0.2,37.4 10.3,3.9 10.4,3.9 21.3,0 21.4,0 0.1,11.1 c 0,6.1 0.3,20.7 0.5,32.4 l 0.5,21.4 4.5,-2.8 4.5,-2.8 -1.9,-29.7 -1.9,-29.7 8.4,-1.7 c 21.6,-4.3 41.5,-7.1 49.6,-7.1 l 8.8,0 1.7,-10.7 1.8,-10.6 0,28.2 -0.1,28.2 -5.3,13.2 -5.4,13.2 -0.7,32.1 -0.7,32.1 -3,0 -3.1,0 2.1,-35.2 2.1,-35.3 3.1,-4 c 1.6,-2.2 4.3,-13.7 5.9,-25.6 l 2.9,-21.6 -21.6,3.2 c -11.8,1.8 -25.6,3.4 -30.6,3.5 l -9.1,0.2 0,30.8 0,30.8 -5.8,2.2 -5.9,2.3 -1.2,25.3 -1.2,25.4 -3.5,-57.2 z M 157.3,561 c -6.9,-13.4 -7.6,-13.5 -7.6,-1.7 l 0,10.7 6.1,0 6.2,0 -4.7,-9 z m 19.5,38.5 c -3.8,-1 -7,-3.2 -7,-4.9 l 0,-3 11.7,1.7 11.7,1.7 4.6,-8.5 4.5,-8.4 4.6,0 4.7,0 -11.6,12.1 c -6.4,6.6 -12.6,11.8 -13.8,11.6 -1.3,-0.3 -5.5,-1.3 -9.4,-2.3 z m 103.7,-17.4 c -4,-4.4 -6.1,-8 -4.6,-8 1.4,0 6.2,3.6 10.7,8 l 8,8.1 -3.4,0 c -1.8,0 -6.7,-3.7 -10.7,-8.1 z M 141.6,521.7 c -0.5,-1.1 -1.5,-7 -2.2,-13.2 -0.8,-6.2 -4.2,-16.9 -7.6,-23.8 -3.5,-6.9 -6.3,-15.8 -6.3,-19.8 l 0,-7.2 -4.2,-2.5 -4.2,-2.6 1,-15.8 0.9,-15.8 3.6,0 3.5,0 -1,13.1 c -1.1,14.4 0.9,22.9 13.1,54.1 l 8.1,20.9 -1.9,7.3 c -1,4 -2.3,6.4 -2.8,5.3 z m 155.5,-10.2 -2.5,-6.6 0.6,-34.9 0.6,-34.9 3.1,40.3 c 3.1,40.9 2.7,47.8 -1.8,36.1 z m 13.6,-9.7 c 0,-2.1 1.8,-4.9 4,-6.2 l 4,-2.5 -2.4,6.2 c -2.7,7 -5.6,8.3 -5.6,2.5 z m 1.4,-54.8 c -1.3,-3.4 -1.5,-7.1 -0.4,-8.2 1.1,-1.1 3,1.7 4.2,6.2 2.5,9.6 -0.3,11.1 -3.8,2 z m -2.9,-20.3 c -1.4,-3.5 -2.5,-15 -2.5,-25.7 l 0,-19.4 -6,-2.3 -6.1,-2.3 -0.5,25 -0.5,25.1 -5.4,-52.2 c -3,-28.8 -7.2,-57.3 -9.4,-63.5 l -3.9,-11.2 3.7,0 3.6,0 3,15.1 c 1.7,8.3 3.3,16.5 3.7,18.1 0.4,1.7 0.9,9.4 1.2,17.2 l 0.5,14 11.1,0 11.1,0 0,34.3 c 0,18.8 -0.3,34.2 -0.6,34.2 -0.3,0 -1.7,-2.9 -3,-6.4 z m 1.5,-54 0,-4 -11,0.4 -11.1,0.4 10.1,3.2 c 5.5,1.8 10.5,3.4 11,3.6 0.6,0.2 1,-1.4 1,-3.6 z m -149,48.6 c 0,-4.3 1.6,-8.8 3.5,-10 l 3.4,-2.1 -1.9,9.9 c -2.2,11.9 -5,13.1 -5,2.2 z M 121.8,417 c -0.6,-1.1 -1.8,-16.5 -2.7,-34.2 l -1.7,-32.2 4.3,-20.2 c 2.3,-11.1 5.1,-24.3 6.2,-29.4 l 1.9,-9.3 17,-18.5 16.9,-18.5 13.6,-5.7 13.5,-5.6 -2.4,-12.9 c -1.4,-7.1 -3.2,-15.6 -4.2,-18.9 -0.9,-3.3 -1.9,-7.2 -2,-8.6 -0.2,-1.4 -4,-3.5 -8.4,-4.6 l -8,-2.1 0.1,-7.5 0.1,-7.4 4,6.9 4,6.9 5.9,-2.3 5.8,-2.2 2.7,17.5 2.7,17.5 15.7,15.1 15.7,15.1 12.2,-9.1 12.3,-9 5.8,-13.9 5.8,-13.8 1.8,-21.4 1.9,-21.4 -7.8,4.9 -7.7,4.8 -1.9,7.2 -1.9,7.2 -7,2.7 -7.1,2.7 -6.6,-7.7 c -3.6,-4.2 -10.1,-9.7 -14.4,-12.1 l -7.9,-4.5 -1.1,-15.7 -1.2,-15.7 10.4,-11 C 213.8,124 220.2,119 222.4,119 l 3.9,0 4.4,-9.5 4.3,-9.57 12.7,-6.68 12.7,-6.69 -12.1,2.44 -12.1,2.44 -3,5.45 c -1.7,3 -8.4,8.11 -14.9,11.31 l -11.8,5.9 -2.2,-2.2 -2.2,-2.2 5,-6.5 5,-6.36 -7,5.46 -7,5.5 2,3.3 2,3.2 -5.5,5.5 -5.4,5.4 -3,15.8 -2.9,15.7 -3.7,-5.8 c -2,-3.1 -3.7,-9 -3.7,-13 l -0.1,-7.3 4.1,2.5 4,2.5 0,-6.8 0,-6.8 -6,5 -6.1,5.1 0,9.4 0,9.4 8.6,8 8.5,7.9 -8.5,-2.2 -8.5,-2.2 -4.2,9.5 -4.1,9.5 2,-10.4 2,-10.4 -5.8,-7.7 c -3.2,-4.3 -5.9,-10 -6,-12.8 l -0.1,-5 3.9,0 3.9,0 -2.2,7 -2.2,7.1 4.7,-7.3 4.7,-7.3 -2,-5.1 -1.9,-5 8,-5.1 8.1,-5 -2.4,-2.3 -2.3,-2.3 -7.1,5.4 c -3.9,3 -1,-1.1 6.4,-9.2 l 13.6,-14.58 5,1.91 4.9,1.9 6.7,-10.27 6.8,-10.27 4.7,0 4.7,0 -9.5,8.81 -9.5,8.82 8.3,3.69 8.3,3.69 8.2,-8.2 8.2,-8.2 14.8,1.37 14.8,1.38 4.6,4.98 4.6,4.98 -7.4,-2.62 -7.4,-2.62 -11.7,6.92 c -6.5,3.81 -11.7,8.41 -11.7,10.21 l 0,3.2 9.8,-6.4 9.9,-6.52 8.2,2.62 c 4.6,1.4 8.5,4.3 8.8,6.4 0.3,2 0.7,5.4 1,7.4 0.3,2.1 1.9,5.1 3.5,6.7 1.7,1.7 3.1,4.4 3.1,6 l 0,3 -7.1,-1.8 -7.1,-1.9 -0.8,38.6 -0.9,38.6 -7.8,17.7 -7.8,17.7 2.3,2.3 c 1.3,1.3 7.9,2.4 14.7,2.5 l 12.4,0.1 6.2,4.9 c 3.4,2.7 10.2,11.7 15,20.1 l 8.8,15.1 1.9,19.1 1.9,19.1 -5.3,-20.9 -5.3,-20.9 -8.7,-14 -8.6,-13.9 -6.1,-2.4 -6.1,-2.3 -3.4,9 c -3.8,9.7 -16.6,22.1 -32.5,31.6 l -10.1,5.9 -8.7,-0.6 -8.6,-0.6 -12.3,-8.8 c -6.8,-4.8 -16,-13.4 -20.4,-19 l -8.1,-10.2 -9.3,9.4 c -5.1,5.1 -13.3,14 -18.3,19.7 l -9.1,10.4 -6.1,31.9 -6.1,31.8 7,5.1 6.9,5.1 23.4,0 23.4,0 0.4,-7.1 c 0.7,-10.1 0.8,-9.1 -2,-33.2 l -2.5,-22.1 4.8,8 4.9,8.1 -0.2,29.7 -0.3,29.7 -6.8,3.9 -6.9,3.8 -3.5,8.7 -3.5,8.7 -0.3,-9 -0.2,-9.1 -13.8,0 c -7.6,0 -16.5,-1 -19.9,-2.3 l -6.1,-2.4 -1.6,17.5 c -0.8,9.6 -2,16.5 -2.6,15.4 z m 55,-36 c 2.8,-0.1 5.1,-1.6 5.1,-3.3 l 0,-3 -21.2,0.5 -21.1,0.6 -9.1,-3.5 -9,-3.4 0,3.3 c 0,1.8 3.9,5 8.6,7.2 l 8.7,3.8 16.5,-1 c 9.1,-0.5 18.8,-1.1 21.5,-1.2 z m 76.6,-110.8 c 7.2,-7.8 13,-16 13,-18.3 0,-7.3 -7.6,-4.2 -12.4,5 -2.6,5 -9.4,13 -15.2,17.7 l -10.5,8.6 -9.5,-1.7 c -5.2,-0.9 -14.7,-5.6 -21.2,-10.4 l -11.7,-8.6 0,-5.6 0,-5.5 -4,2.5 -4.1,2.5 7.1,9.4 c 3.9,5.2 11.6,12.4 17.1,16 l 10.1,6.5 14.1,-1.9 14.1,-2 13.1,-14.2 z m -13.7,-4 10.6,-9.9 0,-6.2 c 0,-8.5 -3.8,-7.9 -14.7,2.4 l -9.2,8.6 -15.8,-10.4 -15.8,-10.4 -2.4,2.4 c -1.4,1.4 -2.5,5.3 -2.5,8.7 l 0,6.2 11.1,9.1 11.1,9.1 8.4,0.1 8.5,0.1 10.7,-9.8 z m 2.6,-85.3 0,-5.8 -6.5,-2.5 -6.4,-2.4 -3.4,5.5 -3.4,5.4 4.1,5 4.1,4.9 5.7,-2.2 5.8,-2.2 0,-5.7 z m -20.2,-9.1 0,-3.5 8.1,-2.2 8.1,-2.1 -2.5,-6.4 -2.4,-6.4 4.7,0 4.7,0 -1.3,8.7 -1.2,8.7 4.7,1.6 4.8,1.6 6.7,-10.1 6.6,-10.1 -7,-11.9 -7.1,-11.9 -13.8,-1.6 -13.9,-1.7 -9.6,7.6 -9.7,7.6 0,13 0,13 4.8,4.8 c 2.7,2.7 7.2,4.9 10.1,4.9 l 5.2,0 0,-3.6 z m 2.4,-12 -3.2,-5.1 2.5,-2.4 2.4,-2.4 2.4,2.4 c 1.3,1.3 1.7,4.7 0.7,7.5 l -1.7,5.1 -3.1,-5.1 z m 39.1,-40.2 -6.4,-1.4 5.6,-3.7 5.7,-3.6 -17.2,1.3 -17.2,1.2 -5,5.3 -4.9,5.2 14.9,-1.6 c 8.2,-0.9 14.1,-0.8 13.1,0.2 -1,1 0.2,4.2 2.7,7.2 l 4.5,5.5 5.3,-7.1 5.2,-7.1 -6.3,-1.4 z M 194,98.38 l 0,-4.03 -4.1,2.49 c -2.2,1.37 -4,4.26 -4,6.56 l 0,4 4,-2.5 c 2.2,-1.4 4.1,-4.3 4.1,-6.52 z m 13.9,117.02 c -1.5,-2.4 -1.8,-5.2 -0.8,-6.2 2.8,-2.8 15,2.8 15,6.9 l 0,3.6 -5.8,0 c -3.2,0 -7,-2 -8.4,-4.3 z m -34.1,-36 0,-8.1 3.2,0 3.2,0 0.6,8.1 0.6,8.1 -3.8,0 -3.8,0 0,-8.1 z m 48,-94.1 c 5.4,-5.84 11.5,-10.61 13.6,-10.61 l 3.8,0 -5.2,6.26 c -2.8,3.44 -8.9,8.22 -13.5,10.61 l -8.4,4.36 9.7,-10.62 z"
           style="fill:#1a1a1a;fill-opacity:1"
           inkscape:connector-curvature="0" />
        <path
           id="path3530"
           d="m 232.7,599.4 -3.5,-57.2 -16.6,0.2 c -9.2,0.1 -21.2,-1 -26.7,-2.5 l -10.1,-2.7 7.8,6.3 7.8,6.3 -9.2,9.8 c -5,5.4 -14.1,11.8 -20.2,14.4 l -11,4.5 7.3,34.7 c 9.1,42.6 6.9,49.3 -2.7,8.5 l -7,-29.5 -1.1,-34.2 -1.1,-34.3 8.2,21.2 c 9,23 10,23.8 21.3,15.5 l 7.7,-5.6 -5.4,-6.5 -5.4,-6.5 -3.4,-45.3 c -1.8,-24.9 -4.3,-49.8 -5.5,-55.3 l -2.3,-10.1 5.9,12.1 6,12.1 0.1,37.3 0.2,37.4 10.3,3.9 10.4,3.9 21.3,0 21.4,0 0.1,11.1 c 0,6.1 0.3,20.7 0.5,32.4 l 0.5,21.4 4.5,-2.8 4.5,-2.8 -1.9,-29.7 -1.9,-29.7 8.4,-1.7 c 21.6,-4.3 41.5,-7.1 49.6,-7.1 l 8.8,0 1.7,-10.7 1.8,-10.6 0,28.2 -0.1,28.2 -5.3,13.2 -5.4,13.2 -0.7,32.1 -0.7,32.1 -3,0 -3.1,0 2.1,-35.2 2.1,-35.3 3.1,-4 c 1.6,-2.2 4.3,-13.7 5.9,-25.6 l 2.9,-21.6 -21.6,3.2 c -11.8,1.8 -25.6,3.4 -30.6,3.5 l -9.1,0.2 0,30.8 0,30.8 -5.8,2.2 -5.9,2.3 -1.2,25.3 -1.2,25.4 -3.5,-57.2 z M 157.3,561 c -6.9,-13.4 -7.6,-13.5 -7.6,-1.7 l 0,10.7 6.1,0 6.2,0 -4.7,-9 z m 19.5,38.5 c -3.8,-1 -7,-3.2 -7,-4.9 l 0,-3 11.7,1.7 11.7,1.7 4.6,-8.5 4.5,-8.4 4.6,0 4.7,0 -11.6,12.1 c -6.4,6.6 -12.6,11.8 -13.8,11.6 -1.3,-0.3 -5.5,-1.3 -9.4,-2.3 z m 103.7,-17.4 c -4,-4.4 -6.1,-8 -4.6,-8 1.4,0 6.2,3.6 10.7,8 l 8,8.1 -3.4,0 c -1.8,0 -6.7,-3.7 -10.7,-8.1 z M 141.6,521.7 c -0.5,-1.1 -1.5,-7 -2.2,-13.2 -0.8,-6.2 -4.2,-16.9 -7.6,-23.8 -3.5,-6.9 -6.3,-15.8 -6.3,-19.8 l 0,-7.2 -4.2,-2.5 -4.2,-2.6 1,-15.8 0.9,-15.8 3.6,0 3.5,0 -1,13.1 c -1.1,14.4 0.9,22.9 13.1,54.1 l 8.1,20.9 -1.9,7.3 c -1,4 -2.3,6.4 -2.8,5.3 z m 155.5,-10.2 -2.5,-6.6 0.6,-34.9 0.6,-34.9 3.1,40.3 c 3.1,40.9 2.7,47.8 -1.8,36.1 z m 13.6,-9.7 c 0,-2.1 1.8,-4.9 4,-6.2 l 4,-2.5 -2.4,6.2 c -2.7,7 -5.6,8.3 -5.6,2.5 z m 1.4,-54.8 c -1.3,-3.4 -1.5,-7.1 -0.4,-8.2 1.1,-1.1 3,1.7 4.2,6.2 2.5,9.6 -0.3,11.1 -3.8,2 z m -2.9,-20.3 c -1.4,-3.5 -2.5,-15 -2.5,-25.7 l 0,-19.4 -6,-2.3 -6.1,-2.3 -0.5,25 -0.5,25.1 -5.4,-52.2 c -3,-28.8 -7.2,-57.3 -9.4,-63.5 l -3.9,-11.2 3.7,0 3.6,0 3,15.1 c 1.7,8.3 3.3,16.5 3.7,18.1 0.4,1.7 0.9,9.4 1.2,17.2 l 0.5,14 11.1,0 11.1,0 0,34.3 c 0,18.8 -0.3,34.2 -0.6,34.2 -0.3,0 -1.7,-2.9 -3,-6.4 z m 1.5,-54 0,-4 -11,0.4 -11.1,0.4 10.1,3.2 c 5.5,1.8 10.5,3.4 11,3.6 0.6,0.2 1,-1.4 1,-3.6 z m -149,48.6 c 0,-4.3 1.6,-8.8 3.5,-10 l 3.4,-2.1 -1.9,9.9 c -2.2,11.9 -5,13.1 -5,2.2 z M 121.8,417 c -0.6,-1.1 -1.8,-16.5 -2.7,-34.2 l -1.7,-32.2 4.3,-20.2 c 2.3,-11.1 5.1,-24.3 6.2,-29.4 l 1.9,-9.3 17,-18.5 16.9,-18.5 13.6,-5.7 13.5,-5.6 -2.4,-12.9 c -1.4,-7.1 -3.2,-15.6 -4.2,-18.9 -0.9,-3.3 -1.9,-7.2 -2,-8.6 -0.2,-1.4 -4,-3.5 -8.4,-4.6 l -8,-2.1 0.1,-7.5 0.1,-7.4 4,6.9 4,6.9 5.9,-2.3 5.8,-2.2 2.7,17.5 2.7,17.5 15.7,15.1 15.7,15.1 12.2,-9.1 12.3,-9 5.8,-13.9 5.8,-13.8 1.8,-21.4 1.9,-21.4 -7.8,4.9 -7.7,4.8 -1.9,7.2 -1.9,7.2 -7,2.7 -7.1,2.7 -6.6,-7.7 c -3.6,-4.2 -10.1,-9.7 -14.4,-12.1 l -7.9,-4.5 -1.1,-15.7 -1.2,-15.7 10.4,-11 C 213.8,124 220.2,119 222.4,119 l 3.9,0 4.4,-9.5 4.3,-9.57 12.7,-6.68 12.7,-6.69 -12.1,2.44 -12.1,2.44 -3,5.45 c -1.7,3 -8.4,8.11 -14.9,11.31 l -11.8,5.9 -2.2,-2.2 -2.2,-2.2 5,-6.5 5,-6.36 -7,5.46 -7,5.5 2,3.3 2,3.2 -5.5,5.5 -5.4,5.4 -3,15.8 -2.9,15.7 -3.7,-5.8 c -2,-3.1 -3.7,-9 -3.7,-13 l -0.1,-7.3 4.1,2.5 4,2.5 0,-6.8 0,-6.8 -6,5 -6.1,5.1 0,9.4 0,9.4 8.6,8 8.5,7.9 -8.5,-2.2 -8.5,-2.2 -4.2,9.5 -4.1,9.5 2,-10.4 2,-10.4 -5.8,-7.7 c -3.2,-4.3 -5.9,-10 -6,-12.8 l -0.1,-5 3.9,0 3.9,0 -2.2,7 -2.2,7.1 4.7,-7.3 4.7,-7.3 -2,-5.1 -1.9,-5 8,-5.1 8.1,-5 -2.4,-2.3 -2.3,-2.3 -7.1,5.4 c -3.9,3 -1,-1.1 6.4,-9.2 l 13.6,-14.58 5,1.91 4.9,1.9 6.7,-10.27 6.8,-10.27 4.7,0 4.7,0 -9.5,8.81 -9.5,8.82 8.3,3.69 8.3,3.69 8.2,-8.2 8.2,-8.2 14.8,1.37 14.8,1.38 4.6,4.98 4.6,4.98 -7.4,-2.62 -7.4,-2.62 -11.7,6.92 c -6.5,3.81 -11.7,8.41 -11.7,10.21 l 0,3.2 9.8,-6.4 9.9,-6.52 8.2,2.62 c 4.6,1.4 8.5,4.3 8.8,6.4 0.3,2 0.7,5.4 1,7.4 0.3,2.1 1.9,5.1 3.5,6.7 1.7,1.7 3.1,4.4 3.1,6 l 0,3 -7.1,-1.8 -7.1,-1.9 -0.8,38.6 -0.9,38.6 -7.8,17.7 -7.8,17.7 2.3,2.3 c 1.3,1.3 7.9,2.4 14.7,2.5 l 12.4,0.1 6.2,4.9 c 3.4,2.7 10.2,11.7 15,20.1 l 8.8,15.1 1.9,19.1 1.9,19.1 -5.3,-20.9 -5.3,-20.9 -8.7,-14 -8.6,-13.9 -6.1,-2.4 -6.1,-2.3 -3.4,9 c -3.8,9.7 -16.6,22.1 -32.5,31.6 l -10.1,5.9 -8.7,-0.6 -8.6,-0.6 -12.3,-8.8 c -6.8,-4.8 -16,-13.4 -20.4,-19 l -8.1,-10.2 -9.3,9.4 c -5.1,5.1 -13.3,14 -18.3,19.7 l -9.1,10.4 -6.1,31.9 -6.1,31.8 7,5.1 6.9,5.1 23.4,0 23.4,0 0.4,-7.1 c 0.7,-10.1 0.8,-9.1 -2,-33.2 l -2.5,-22.1 4.8,8 4.9,8.1 -0.2,29.7 -0.3,29.7 -6.8,3.9 -6.9,3.8 -3.5,8.7 -3.5,8.7 -0.3,-9 -0.2,-9.1 -13.8,0 c -7.6,0 -16.5,-1 -19.9,-2.3 l -6.1,-2.4 -1.6,17.5 c -0.8,9.6 -2,16.5 -2.6,15.4 z m 55,-36 c 2.8,-0.1 5.1,-1.6 5.1,-3.3 l 0,-3 -21.2,0.5 -21.1,0.6 -9.1,-3.5 -9,-3.4 0,3.3 c 0,1.8 3.9,5 8.6,7.2 l 8.7,3.8 16.5,-1 c 9.1,-0.5 18.8,-1.1 21.5,-1.2 z m 76.6,-110.8 c 7.2,-7.8 13,-16 13,-18.3 0,-7.3 -7.6,-4.2 -12.4,5 -2.6,5 -9.4,13 -15.2,17.7 l -10.5,8.6 -9.5,-1.7 c -5.2,-0.9 -14.7,-5.6 -21.2,-10.4 l -11.7,-8.6 0,-5.6 0,-5.5 -4,2.5 -4.1,2.5 7.1,9.4 c 3.9,5.2 11.6,12.4 17.1,16 l 10.1,6.5 14.1,-1.9 14.1,-2 13.1,-14.2 z m -13.7,-4 10.6,-9.9 0,-6.2 c 0,-8.5 -3.8,-7.9 -14.7,2.4 l -9.2,8.6 -15.8,-10.4 -15.8,-10.4 -2.4,2.4 c -1.4,1.4 -2.5,5.3 -2.5,8.7 l 0,6.2 11.1,9.1 11.1,9.1 8.4,0.1 8.5,0.1 10.7,-9.8 z m 2.6,-85.3 0,-5.8 -6.5,-2.5 -6.4,-2.4 -3.4,5.5 -3.4,5.4 4.1,5 4.1,4.9 5.7,-2.2 5.8,-2.2 0,-5.7 z m -20.2,-9.1 0,-3.5 8.1,-2.2 8.1,-2.1 -2.5,-6.4 -2.4,-6.4 4.7,0 4.7,0 -1.3,8.7 -1.2,8.7 4.7,1.6 4.8,1.6 6.7,-10.1 6.6,-10.1 -7,-11.9 -7.1,-11.9 -13.8,-1.6 -13.9,-1.7 -9.6,7.6 -9.7,7.6 0,13 0,13 4.8,4.8 c 2.7,2.7 7.2,4.9 10.1,4.9 l 5.2,0 0,-3.6 z m 2.4,-12 -3.2,-5.1 2.5,-2.4 2.4,-2.4 2.4,2.4 c 1.3,1.3 1.7,4.7 0.7,7.5 l -1.7,5.1 -3.1,-5.1 z m 39.1,-40.2 -6.4,-1.4 5.6,-3.7 5.7,-3.6 -17.2,1.3 -17.2,1.2 -5,5.3 -4.9,5.2 14.9,-1.6 c 8.2,-0.9 14.1,-0.8 13.1,0.2 -1,1 0.2,4.2 2.7,7.2 l 4.5,5.5 5.3,-7.1 5.2,-7.1 -6.3,-1.4 z M 194,98.38 l 0,-4.03 -4.1,2.49 c -2.2,1.37 -4,4.26 -4,6.56 l 0,4 4,-2.5 c 2.2,-1.4 4.1,-4.3 4.1,-6.52 z m 13.9,117.02 c -1.5,-2.4 -1.8,-5.2 -0.8,-6.2 2.8,-2.8 15,2.8 15,6.9 l 0,3.6 -5.8,0 c -3.2,0 -7,-2 -8.4,-4.3 z m -34.1,-36 0,-8.1 3.2,0 3.2,0 0.6,8.1 0.6,8.1 -3.8,0 -3.8,0 0,-8.1 z m 48,-94.1 c 5.4,-5.84 11.5,-10.61 13.6,-10.61 l 3.8,0 -5.2,6.26 c -2.8,3.44 -8.9,8.22 -13.5,10.61 l -8.4,4.36 9.7,-10.62 z"
           style="fill:#000000;fill-opacity:1"
           inkscape:connector-curvature="0" />
        <path
           id="path3528"
           d="M 234.6,630.4 C 234,616 232.7,589.3 231.9,571 l -1.6,-33.2 4.2,0 4.2,0 -2.3,3.7 -2.3,3.8 2.7,28.4 2.6,28.3 3.9,-2.4 4,-2.5 -1.9,-29.7 -1.9,-29.7 8.4,-1.8 c 14.1,-2.9 40.2,-6.4 49.6,-6.7 l 8.8,-0.3 1.6,-10.7 1.7,-10.6 0,24.2 0,24.1 -1.8,-11.5 -1.7,-11.6 -14.8,2.5 c -8.1,1.3 -21.6,2.4 -29.9,2.5 l -15.1,0 0,31.8 0,31.8 -5.8,2.2 -5.9,2.3 -1.4,25.3 -1.4,25.4 -1.2,-26.2 z m -76.9,0 c -2.7,-11.3 -4.1,-21.3 -3.1,-22.3 0.9,-1 3.9,7.5 6.5,18.9 2.6,11.4 4.1,21.5 3.2,22.4 -0.9,0.9 -3.9,-7.6 -6.6,-19 z m 141.6,-12.6 -0.6,-26.7 6.2,-13.6 6.3,-13.5 -2.8,10.1 c -1.6,5.5 -4.1,23.6 -5.6,40.2 l -2.8,30.2 -0.7,-26.7 z m -149,-23.6 0,-10.1 2,5.1 2.1,5 -2.1,5 -2,5.1 0,-10.1 z m 22.5,1.4 5,-2.1 5.1,2.1 5,2 -10.1,0 -10,0 5,-2 z m 23.2,-6.6 7.1,-11.2 2.2,2.3 2.3,2.2 -9.3,9 -9.3,8.9 7,-11.2 z m 86.5,-5 c -2.8,-3.3 -4.3,-6.9 -3.4,-7.8 1,-1 4,1.8 6.7,6.1 5.8,9.4 3.9,10.4 -3.3,1.7 z M 147.9,570.8 c -1.1,-3.8 -1.7,-14.4 -1.3,-23.8 l 0.7,-17 2.8,4.4 2.7,4.4 -2.1,15.6 -2.1,15.6 6.7,0 6.7,0 -4.5,-8.4 c -2.4,-4.6 -3.6,-9.3 -2.5,-10.3 1.1,-1.1 3.2,1.8 4.6,6.4 3.1,9.7 6,10.3 16,3 l 7.3,-5.4 -4.5,-8.5 c -2.5,-4.6 -4.6,-10.3 -4.6,-12.6 l 0,-4.2 6.4,2.5 6.4,2.4 -4.9,3 -4.8,3 7.5,4.2 7.5,4.2 -9.5,10.1 -9.6,10.2 -11.4,4 -11.4,3.9 -2.1,-6.7 z M 201,539 c 5,-1 13.1,-1 18.1,0 l 9.1,1.7 -18.1,0 -18.2,0 9.1,-1.7 z m -29.8,-43.5 0,-32.2 1.5,17.2 c 0.9,9.5 0.9,24 0,32.3 l -1.6,14.9 0.1,-32.2 z m -35.3,-0.9 c -1.7,-7.2 -4.6,-14.1 -6.7,-15.4 l -3.7,-2.3 0.3,-8.8 0.3,-8.8 2.1,6 c 1.1,3.4 4.7,12 8,19.3 l 5.9,13.3 -1.6,4.9 -1.7,4.8 -2.9,-13 z m 160.1,-27.3 0,-32.2 1.6,17.2 c 0.8,9.5 0.8,24 0,32.3 l -1.6,15 0,-32.3 z m 15.1,-40.6 0.3,-7.7 2.1,5.3 2.1,5.3 -2.4,2.4 -2.5,2.5 0.4,-7.8 z m -149,-4 0.3,-7.7 2.1,5.3 2.1,5.3 -2.4,2.4 -2.5,2.4 0.4,-7.7 z m 126.7,-39.1 -3.2,-43.5 2.5,-2.5 2.5,-2.5 0,14.8 0,14.7 12,0 12,0 -2.5,25.2 c -3,30.6 -5.4,35 -5.4,10.2 l 0,-18.4 -6.4,-2.4 c -3.5,-1.4 -6.6,-2.5 -7,-2.5 -0.4,0 -0.1,8 0.7,17.7 0.7,9.8 0.6,21.1 -0.3,25.2 l -1.7,7.5 -3.2,-43.5 z m 21.9,-10.9 0,-4 -11,0 -11.1,0.1 6,3.9 c 3.4,2.1 8.3,3.9 11.1,4 l 5,0 0,-4 z m -187.2,17.1 0.9,-9 -3.5,0 -3.5,0 0.6,-19.2 0.5,-19.1 1.8,9.4 1.8,9.4 12.8,5.8 12.7,5.9 -13,-2.5 -13.1,-2.5 0,4.5 0,4.4 10.3,4 10.3,3.9 14.9,-0.1 14.8,0 5.6,-3.6 5.5,-3.5 -2,-3.4 -2,-3.5 3.2,-8.1 3.2,-8 0.3,15 0.3,15 -10.3,2.6 -10.3,2.6 -19.7,-1.9 -19.7,-1.9 -1.7,6.4 -1.6,6.5 0.9,-9.1 z m 59.2,-55.4 0.1,-12 1.9,7.1 c 1,3.9 0.9,9.3 -0.2,12.1 l -2,4.9 0.2,-12.1 z m -60.9,-0.3 0.3,-7.7 2.1,5.3 2.1,5.3 -2.4,2.4 -2.4,2.4 0.3,-7.7 z m 161.1,-12.1 0.3,-7.7 2.1,5.3 2.1,5.3 -2.4,2.4 -2.4,2.4 0.3,-7.7 z m -156.8,-9.7 0,-10.1 2.1,5.1 2,5 -2,5 -2.1,5.1 0,-10.1 z m 185.3,0 0,-10.1 2,5.1 2,5 -2,5 -2,5.1 0,-10.1 z m -34.6,-6.9 -2.8,-7.2 5,5 5,4.9 -2.2,2.3 -2.3,2.2 -2.7,-7.2 z m -147.3,-8.3 c 0,-2.1 7.3,-12.1 16.2,-22.2 l 16.2,-18.4 15,-7.3 15,-7.4 -1.1,-7 c -1.6,-9.5 -0.7,-9.1 13.2,6 l 12.1,13 -11.1,-7.1 -11.2,-7.2 -2.4,6.2 -2.3,6.2 -5.6,0 c -3.1,0 -5.6,1.3 -5.5,3 0.2,4.7 12.9,18.6 23.9,26.3 l 10,6.9 11.1,0 11.2,0 16.1,-14.5 16.1,-14.6 0,-5.6 c 0,-8.3 -2.5,-7 -20.1,10.6 l -16.1,16.1 -10,0 -10,0 -13.2,-12.6 -13.1,-12.6 14.8,10.6 14.9,10.5 8,0 8,0 12.4,-12.3 c 6.8,-6.9 12.4,-14.1 12.4,-16.2 l 0,-3.7 14,0 14.1,0 14,19.2 14,19.1 -0.2,10.1 -0.3,10 -3.3,-11 c -1.8,-6.1 -7.1,-17.2 -11.8,-24.8 l -8.5,-13.7 -6.3,-2.4 c -8.9,-3.5 -9.6,-3.2 -9.6,4 l 0,6.4 -13.5,13.5 -13.4,13.5 -10.7,2.6 -10.8,2.7 -10.8,-2.7 -10.8,-2.7 -15.8,-15.8 -15.8,-15.8 -3.8,2.3 c -2,1.3 -10.9,11.4 -19.7,22.5 -8.7,11.1 -15.9,18.4 -15.9,16.3 z m 108,-51.8 12.8,-10.7 0,-5.2 c 0,-2.9 1.8,-6.3 4,-7.7 l 4.1,-2.5 -4.1,10.7 -4.1,10.7 -9,7.5 c -4.9,4.2 -10.7,7.6 -12.8,7.7 -2.1,0.1 2,-4.7 9.1,-10.5 z m -27.4,-32.2 0,-6.5 6,5 c 3.3,2.8 6,5.7 6,6.5 0,0.9 -2.7,1.6 -6,1.6 l -6,0 0,-6.6 z m 48.6,-3.8 0.3,-7.8 2.1,5.3 2.2,5.3 -2.5,2.4 -2.4,2.5 0.3,-7.7 z m -76.8,-5.3 0,-3.5 -8.1,-2.1 -8,-2.1 0,-4.9 0,-4.9 5.8,4.8 5.9,4.9 3.4,-2.1 3.3,-2.1 0.6,7.8 c 0.3,4.3 -0.2,7.8 -1.2,7.8 -0.9,0 -1.7,-1.6 -1.7,-3.6 z m 59.4,-22.7 1.9,-10 -8.5,0 -8.5,0 0,4.1 0,4 -4.6,0 -4.5,0 5.3,-6.4 5.3,-6.4 11.3,2.3 11.3,2.2 6.8,-10.4 6.8,-10.4 -5.9,-10.6 -5.9,-10.6 -14,-2.5 -13.9,-2.5 11.7,-0.6 11.8,-0.5 6.5,5.9 6.5,5.9 4.9,-7.9 4.9,-7.9 -7,-0.3 -7.1,-0.3 5,-2.1 5,-2 0,-5.7 0,-5.7 -7,0 -7.1,0.1 6.1,3.9 6,3.9 -6,0.4 c -3.3,0.2 -9,0.9 -12.6,1.6 -3.5,0.7 -8.6,0 -11.1,-1.6 l -4.7,-2.9 8.2,-7.3 8.1,-7.42 0,4.92 0,4.9 8.3,-2.6 8.4,-2.67 7.5,6.77 7.5,6.8 -2.2,5.7 -2.2,5.6 4.5,0 4.5,0 0,3.9 0,3.9 -6.5,-2.5 -6.4,-2.4 -3.2,5.1 -3.2,5.2 3.3,11.6 3.4,11.6 -3.2,-1.9 -3.2,-2 -4.5,9.9 -4.6,10 -4.1,0 -4.1,0 0,5.8 c 0,3.2 -1.5,6.7 -3.4,7.9 l -3.5,2.1 1.9,-9.9 z m 6.6,-75.1 c -1.1,-1.8 -3.8,-3.3 -5.9,-3.3 -2,0 -3.7,1.5 -3.7,3.3 l 0,3.4 5.8,0 5.9,0 -2.1,-3.4 z m -74.1,71.2 0,-6.1 3.9,0 3.9,0 -2.3,6.1 c -1.3,3.3 -3,6 -3.9,6 -0.9,0 -1.6,-2.7 -1.6,-6 z m 89.3,-2 0,-10.1 2,5 2,5.1 -2,5 -2,5 0,-10 z m -61,-3.8 -4.1,-7.8 0.1,-11.3 0.1,-11.4 7.6,-9 7.6,-9.1 4.9,0 4.9,0 -10.6,8.4 -10.6,8.3 0,12.5 0,12.5 6.7,7.3 6.6,7.4 -4.5,0 -4.5,0 -4.2,-7.8 z m -35.6,0 c 1,-3.1 4.8,-7.6 8.5,-9.9 l 6.6,-4.3 5.2,5.2 5.1,5.2 -7.6,-2.9 -7.6,-2.9 -5.9,7.7 -6,7.7 1.7,-5.8 z m 57.8,-12.1 -2.3,-3.7 4.1,-2.5 4.1,-2.6 0,6.3 c 0,7.1 -2.4,8.1 -5.9,2.5 z m -58.5,-2.3 c -0.4,-2.2 -1.2,-8 -1.7,-12.9 l -1,-8.8 3.7,2.3 3.8,2.3 -1.5,-7.5 -1.5,-7.6 8.1,-7.4 8.2,-7.3 -8.1,2.3 -8,2.4 6,-5.2 c 3.3,-2.9 8.4,-7.9 11.3,-11.13 l 5.3,-5.86 -2.7,7.05 -2.7,7.04 5.5,0.1 5.5,0 -6,3.8 -5.9,3.7 3,3 3.1,3.1 10.6,-10.7 10.7,-10.68 -8.8,2.28 -8.7,2.3 0,-2.3 c 0,-3.37 18.6,-22.78 21.8,-22.78 1.6,0 0,2.93 -3.6,6.52 l -6.5,6.52 2.2,2.24 2.2,2.25 12,-11.49 12,-11.5 2.7,2.63 2.6,2.64 -6.6,2.54 c -3.7,1.39 -6.6,4.01 -6.6,5.81 l 0,3.27 13.6,-3.77 13.7,-3.77 10.5,3.99 c 13.7,5.21 13.3,6.88 -1.7,6.88 l -12.3,0 5.2,-3.7 5.2,-3.71 -10.1,2.31 c -5.5,1.27 -12.4,2.33 -15.3,2.36 l -5.3,0.1 2.6,4.1 2.5,4.09 L 219,106 c -8.6,3.9 -18.7,10.1 -22.4,13.8 l -6.6,6.6 -1.8,9.4 c -0.9,5.1 -2,12.1 -2.3,15.4 l -0.6,6 -3.4,-8 c -1.9,-4.4 -3.6,-10.4 -3.8,-13.3 l -0.3,-5.3 4.1,2.5 4,2.5 0,-9.1 0,-9.1 -4.1,4 c -2.2,2.3 -6.5,12.1 -9.6,22 -3.1,9.8 -6,16.1 -6.4,13.8 z m 60.4,-63.14 0,-3.93 -4.8,1.59 c -2.6,0.88 -5.5,3.75 -6.4,6.38 l -1.6,4.8 6.4,-2.5 c 3.5,-1.31 6.4,-4.18 6.4,-6.34 z m 10,61.14 c 1.4,-2.2 3.3,-4 4.3,-4 1,0 1.8,1.8 1.8,4 l 0,4.1 -4.3,0 -4.3,0 2.5,-4.1 z"
           style="fill:#000000;fill-opacity:1"
           inkscape:connector-curvature="0" />
      </g>
    </g>
    <g
       id="layer1-9-0"
       inkscape:label="Layer 1"
       transform="matrix(0.95,0,0,0.95,-438.7,608.8)">
      <path
         id="path2890-4"
         d="m 495.4,275.5 c -3,-2.2 -3,-2.7 1.3,-12.7 2,-4.7 3.4,-9.1 3.1,-9.9 -0.3,-0.8 0.2,-3 1.2,-4.9 1.9,-4 1.2,-6 -0.8,-2.1 -0.8,1.4 -1.8,2.3 -2.4,1.9 -0.5,-0.3 -1.3,0.3 -1.7,1.4 -0.4,1.1 -1,1.6 -1.4,1.3 -0.4,-0.4 0.5,-2.5 2,-4.6 2.4,-3.6 2.4,-3.8 0.3,-2.6 -1.3,0.7 -3,2.1 -3.9,3.2 -0.8,1 -2.2,1.9 -3,1.9 -0.9,0 -0.1,-1.7 1.9,-3.9 4.6,-5.2 4.4,-6.6 -0.5,-3.5 -5.7,3.6 -6.6,3.1 -1.9,-1.1 2.3,-2 3.4,-3.6 2.5,-3.6 -1.4,-0.1 -1.4,-0.4 0,-2.2 1.4,-1.9 1.3,-2 -0.2,-0.8 -0.9,0.7 -3.6,1.7 -5.8,2.1 l -4.1,0.7 3.2,-1.8 c 1.8,-1 3.2,-2 3.2,-2.2 0,-0.2 -1.4,-0.2 -3.2,0 -2.8,0.4 -2.9,0.3 -0.9,-0.7 1.7,-0.8 1.9,-1.2 0.6,-1.3 -1,-0.1 -0.5,-0.6 1.1,-1 1.5,-0.5 3.1,-1.6 3.4,-2.5 0.3,-1.2 -0.1,-1.5 -1.5,-0.9 -1.1,0.4 -3.5,1.1 -5.2,1.4 -3,0.6 -3,0.6 -0.4,-0.8 1.4,-0.8 2.6,-1.8 2.6,-2.3 0,-0.5 1.3,-0.6 2.9,-0.3 1.6,0.4 2.9,0 2.9,-0.6 0,-0.7 1,-1.5 2.1,-1.8 1.1,-0.3 -0.8,-0.4 -4.4,-0.3 -6.8,0.3 -8.6,-0.1 -7.6,-1.8 0.3,-0.5 2.4,-0.6 4.6,-0.1 4.6,1.1 8.3,-0.4 4,-1.6 -1.5,-0.4 -4.2,-0.7 -6,-0.7 -1.8,-0.1 -3.2,-0.5 -3.2,-1.1 0,-0.5 0.9,-1 2.1,-1 1.1,0 4.1,-0.1 6.7,-0.2 l 4.7,-0.3 -5.3,-1.9 c -5.5,-2 -8.6,-4.1 -6,-4.1 0.8,0 3,0.9 4.9,1.9 3.1,1.6 3.4,1.6 3.4,0 0,-1 -0.5,-1.9 -1.2,-1.9 -0.7,0 -0.9,-0.6 -0.4,-1.4 0.5,-0.8 0.3,-1.1 -0.3,-0.6 -0.7,0.4 -2.2,-0.1 -3.4,-1 -2,-1.6 -2,-2 -0.5,-3 1.2,-0.8 2,-0.7 2.7,0.6 1.3,2.4 4.8,2.3 3.9,-0.1 -0.4,-1.1 0,-2.2 1,-2.6 1,-0.4 1.8,-1.8 1.8,-3.3 0,-2.3 0.4,-2.1 3.7,1.7 2.9,3.4 3.2,3.6 1.7,0.9 -2,-3.5 -1.2,-4.5 1.5,-1.8 1.3,1.2 1.3,1.1 0.3,-0.9 -2.4,-4.4 -4.9,-7.2 -5.7,-6.3 -0.4,0.4 -0.2,1.5 0.6,2.3 1.8,1.9 1.8,3.7 -0.1,2.5 -0.8,-0.5 -1.9,-0.9 -2.5,-1 -0.6,0 -1.3,-0.7 -1.6,-1.7 -0.4,-1 -0.1,-1.3 0.7,-0.8 0.8,0.5 1.6,-0.5 2.1,-2.4 l 0.7,-3.2 2.5,3 c 1.4,1.7 3.1,4.1 3.8,5.3 1.2,2 1.3,2 1.9,-0.5 0.4,-1.5 0.2,-2.5 -0.5,-2.4 -0.7,0.2 -1.5,-0.5 -1.8,-1.4 -0.4,-1 -0.1,-1.4 0.7,-0.8 0.8,0.5 1.1,0.1 0.6,-1.1 -0.4,-1 -0.1,-1.9 0.5,-1.9 0.7,0 1.6,1.7 2,3.7 1.2,5.8 3.1,5.7 2.2,-0.2 -0.9,-6.3 0.5,-5.6 1.9,1 0.7,2.8 0.6,4.9 -0.1,5.3 -0.6,0.4 -0.8,1.8 -0.3,3.1 0.8,2.1 1,2.1 1.7,-0.7 0.5,-1.7 0.9,-5.4 0.9,-8.2 0.1,-2.9 0.6,-5.2 1.1,-5.2 0.6,0 0.8,1.6 0.5,3.5 -0.3,2 0,4.5 0.6,5.7 1,1.9 1.3,1.6 2,-1.6 0.4,-2.1 1.5,-4.1 2.5,-4.4 1.9,-0.8 2.3,1.1 0.5,2.3 -0.7,0.4 -1.2,1.6 -1.2,2.7 0,1.6 0.6,1.4 2.9,-0.9 1.7,-1.6 3,-2.2 3,-1.4 0,0.8 -0.5,1.4 -1.1,1.4 -1.1,0 -4.9,7.6 -4.2,8.4 0.3,0.2 1.6,-0.8 2.9,-2.4 1.3,-1.6 2.3,-2.4 2.3,-1.6 0.1,0.7 -1.2,2.5 -2.9,4.1 -1.6,1.6 -2.9,3.6 -2.9,4.5 0,0.9 -0.5,1.6 -1.2,1.6 -0.7,0 -0.9,0.6 -0.5,1.2 0.4,0.7 -0.6,1.2 -2.2,1.2 -4,0 -6.1,3.2 -6.1,9.5 0,4.4 0.7,5.9 3.3,8.3 3.8,3.3 7,3.7 9,1.2 1,-1.3 2.1,-1.5 3.4,-0.7 1.1,0.6 3.3,1.4 5,1.7 3.9,0.9 5.6,4.4 2.1,4.4 -1.3,0 -2.1,-0.5 -1.7,-1.2 0.4,-0.6 0,-1.5 -0.7,-2 -0.9,-0.5 -1,-0.3 -0.5,0.5 0.5,0.9 0,1.5 -1.3,1.5 -1.9,0.1 -1.9,0.2 0.2,1.2 2.3,1 2.3,1 0,1.2 -1.7,0.1 -1.1,0.6 1.8,1.8 3.7,1.5 3.8,1.7 1.2,1.8 -2.9,0.2 -2.9,0.2 -0.5,1.2 3.6,1.6 4.1,2.9 2.2,5.9 -1.2,1.6 -2.5,2.3 -3.7,1.8 -1.4,-0.5 -1.7,-0.3 -1.1,0.7 0.5,0.8 1.9,1.2 3.1,0.8 1.3,-0.5 2.3,-0.2 2.3,0.5 0,0.7 -0.6,1.4 -1.2,1.5 -2.3,0.3 -2.9,0.5 -4.4,1.4 -1,0.7 -1.5,0.2 -1.5,-1.2 -0.1,-1.3 -0.4,-1.6 -0.7,-0.7 -0.4,0.9 -1.1,1.2 -1.7,0.9 -0.6,-0.4 -0.7,0.3 -0.4,1.5 0.5,1.5 0,1.3 -1.8,-0.9 l -2.4,-3 1.1,3.3 c 1.6,4.4 0.5,4.3 -3.8,-0.6 -2.2,-2.5 -3.6,-3.4 -4,-2.4 -0.3,0.8 -1,1.2 -1.7,0.8 -0.6,-0.4 -1.4,0.4 -1.8,1.8 -0.3,1.4 -1.1,2.6 -1.7,2.6 -0.6,0 -0.8,-1.2 -0.3,-2.6 0.5,-1.8 0.3,-2.3 -0.6,-1.8 -0.7,0.5 -1.3,0.3 -1.3,-0.4 0,-0.7 1.1,-1.8 2.4,-2.5 1.3,-0.8 2.3,-2 2.2,-2.8 0,-1.1 -0.2,-1.1 -0.6,0 -0.4,0.9 -1.3,1.5 -2.2,1.5 -0.9,0 -2.4,3 -3.5,7 -1.1,3.9 -3.3,9.8 -4.8,13 -4.3,8.8 -3.4,9.3 15.2,9.3 8.5,0 16.7,0.2 18.3,0.3 3.4,0.3 4.4,-2.3 2,-5.7 -1.6,-2.3 -1.7,-2.3 -5.4,0.3 -2,1.5 -3.6,2.3 -3.6,1.7 0,-0.5 -2.7,-2.7 -6,-4.6 -4,-2.4 -6.6,-5 -7.7,-7.5 -1.8,-4.5 -2.2,-10.6 -0.5,-7.8 0.8,1.3 1.1,1.3 1.5,0.1 0.3,-0.9 1.1,-1.2 1.9,-0.7 0.8,0.5 1.2,1.9 0.9,3 -0.9,2.8 5,9.4 6.7,7.6 2.1,-2.2 9,-1.6 9.9,0.8 0.4,1.1 1.7,3.5 3,5.3 1.2,1.8 2,4.4 1.9,6 l -0.5,3 -18.5,0.1 c -13.8,0 -19.1,-0.4 -20.8,-1.6 z m 31.1,-6.5 c 1.4,-2.2 -0.1,-2.6 -1.7,-0.6 -1,1.2 -1,1.9 -0.3,1.9 0.7,0 1.6,-0.6 2,-1.3 z m -2.3,-2.4 c 0.5,-0.8 1.8,-1.1 3,-0.8 1.3,0.3 2.3,0 2.3,-0.9 0,-2.9 -1.6,-3.1 -4.3,-0.6 -3.1,3.1 -5.3,2.2 -10.8,-4.3 -2.1,-2.5 -3.7,-3.7 -3.7,-2.8 0,2.4 1.6,4.4 5.9,7.6 4.5,3.3 6.4,3.7 7.6,1.8 z m -0.6,-3.6 c 0,-0.7 -0.3,-1.2 -0.5,-1.2 -0.3,0 -0.9,0.5 -1.3,1.2 -0.4,0.6 -0.1,1.2 0.5,1.2 0.7,0 1.3,-0.6 1.3,-1.2 z m -11,-20.9 c -0.3,-1 -0.6,-0.7 -0.7,0.7 0,1.3 0.3,2 0.7,1.6 0.4,-0.4 0.4,-1.5 0,-2.3 z m 15.7,2.2 c 0,-0.3 -1,-1.2 -2.1,-2.2 -1.8,-1.5 -1.9,-1.4 -0.4,0.5 1.5,2 2.5,2.7 2.5,1.7 z M 506.9,238 c -0.3,-0.4 -1,0.3 -1.4,1.5 -0.7,1.7 -0.5,1.9 0.6,0.7 0.8,-0.8 1.2,-1.8 0.8,-2.2 z m -2.1,-2.1 c 0,-0.7 -0.8,-0.5 -1.7,0.3 -1,0.8 -1.8,2.1 -1.8,2.7 0,0.7 0.8,0.6 1.8,-0.3 0.9,-0.8 1.7,-2 1.7,-2.7 z m -4.7,-8.5 c 0,-0.7 -0.7,-0.6 -1.7,0.3 -1,0.8 -1.8,1.7 -1.8,1.9 0,0.3 0.8,0.1 1.8,-0.3 0.9,-0.3 1.7,-1.2 1.7,-1.9 z m -3.2,-2.9 c -0.8,-0.4 -2.4,-0.4 -3.5,-0.1 -1.1,0.3 -0.5,0.6 1.4,0.6 2,0 2.9,-0.2 2.1,-0.5 z m 2.1,-7.2 c -0.9,-1 -2.1,-1.8 -2.8,-1.8 -0.6,0 -0.2,0.8 1.1,1.8 2.9,2.3 3.5,2.3 1.7,0 z m 1.1,-5.4 c 0,-0.7 -0.5,-1.2 -1.2,-1.2 -0.7,0 -0.9,0.5 -0.5,1.2 0.4,0.6 0.9,1.2 1.2,1.2 0.3,0 0.5,-0.6 0.5,-1.2 z m 6,-16.2 c -1.1,-1.2 -1.3,-1 -0.6,0.7 0.4,1.2 1.1,1.9 1.4,1.5 0.4,-0.4 0,-1.4 -0.8,-2.2 z m -3.1,74.1 c -1.8,-1.5 -2,-2.3 -1,-3.9 0.7,-1.2 2,-2.4 2.9,-2.7 1.2,-0.4 1,0.2 -0.5,1.9 -2,2.4 -2,2.5 0,3.8 1.2,0.7 1.9,1.5 1.5,1.8 -0.4,0.5 -1.7,0 -2.9,-0.9 z M 487.2,238 c 0.8,-1 2,-1.8 2.7,-1.8 0.6,0 0.5,0.8 -0.3,1.8 -0.8,1 -2,1.9 -2.7,1.9 -0.6,0 -0.5,-0.8 0.3,-1.9 z m 42,-2.6 c 0.8,-0.3 2,-0.3 2.8,0 0.9,0.3 0.2,0.6 -1.4,0.6 -1.6,0 -2.3,-0.3 -1.4,-0.6 z M 518.9,224 c 0,-2.2 0.3,-2.6 1.4,-1.4 1.1,1.1 1.1,1.8 0,2.9 -1.1,1.1 -1.4,0.8 -1.4,-1.5 z m -31.7,-24.9 c -0.8,-1.1 -1.1,-2.2 -0.7,-2.7 0.4,-0.4 0.7,-0.1 0.7,0.7 0,0.7 0.6,1.4 1.3,1.4 0.7,0 0.8,-0.7 0.3,-1.5 -0.6,-1.1 -0.2,-1 1.1,0.1 1.1,0.9 1.7,2.1 1.4,2.7 -1,1.6 -2.4,1.4 -4.1,-0.7 z m 12.3,-11.6 c -0.4,-0.6 -0.1,-1.2 0.6,-1.2 0.6,0 1.2,0.6 1.2,1.2 0,0.7 -0.2,1.2 -0.5,1.2 -0.3,0 -0.9,-0.5 -1.3,-1.2 z"
         style="fill:#000000"
         inkscape:connector-curvature="0" />
    </g>
    <g
       id="layer1-9-09"
       inkscape:label="Layer 1"
       transform="matrix(0.95,0,0,0.95,-435.5,789.4)">
      <path
         id="path2890-6"
         d="m 495.4,275.5 c -3,-2.2 -3,-2.7 1.3,-12.7 2,-4.7 3.4,-9.1 3.1,-9.9 -0.3,-0.8 0.2,-3 1.2,-4.9 1.9,-4 1.2,-6 -0.8,-2.1 -0.8,1.4 -1.8,2.3 -2.4,1.9 -0.5,-0.3 -1.3,0.3 -1.7,1.4 -0.4,1.1 -1,1.6 -1.4,1.3 -0.4,-0.4 0.5,-2.5 2,-4.6 2.4,-3.6 2.4,-3.8 0.3,-2.6 -1.3,0.7 -3,2.1 -3.9,3.2 -0.8,1 -2.2,1.9 -3,1.9 -0.9,0 -0.1,-1.7 1.9,-3.9 4.6,-5.2 4.4,-6.6 -0.5,-3.5 -5.7,3.6 -6.6,3.1 -1.9,-1.1 2.3,-2 3.4,-3.6 2.5,-3.6 -1.4,-0.1 -1.4,-0.4 0,-2.2 1.4,-1.9 1.3,-2 -0.2,-0.8 -0.9,0.7 -3.6,1.7 -5.8,2.1 l -4.1,0.7 3.2,-1.8 c 1.8,-1 3.2,-2 3.2,-2.2 0,-0.2 -1.4,-0.2 -3.2,0 -2.8,0.4 -2.9,0.3 -0.9,-0.7 1.7,-0.8 1.9,-1.2 0.6,-1.3 -1,-0.1 -0.5,-0.6 1.1,-1 1.5,-0.5 3.1,-1.6 3.4,-2.5 0.3,-1.2 -0.1,-1.5 -1.5,-0.9 -1.1,0.4 -3.5,1.1 -5.2,1.4 -3,0.6 -3,0.6 -0.4,-0.8 1.4,-0.8 2.6,-1.8 2.6,-2.3 0,-0.5 1.3,-0.6 2.9,-0.3 1.6,0.4 2.9,0 2.9,-0.6 0,-0.7 1,-1.5 2.1,-1.8 1.1,-0.3 -0.8,-0.4 -4.4,-0.3 -6.8,0.3 -8.6,-0.1 -7.6,-1.8 0.3,-0.5 2.4,-0.6 4.6,-0.1 4.6,1.1 8.3,-0.4 4,-1.6 -1.5,-0.4 -4.2,-0.7 -6,-0.7 -1.8,-0.1 -3.2,-0.5 -3.2,-1.1 0,-0.5 0.9,-1 2.1,-1 1.1,0 4.1,-0.1 6.7,-0.2 l 4.7,-0.3 -5.3,-1.9 c -5.5,-2 -8.6,-4.1 -6,-4.1 0.8,0 3,0.9 4.9,1.9 3.1,1.6 3.4,1.6 3.4,0 0,-1 -0.5,-1.9 -1.2,-1.9 -0.7,0 -0.9,-0.6 -0.4,-1.4 0.5,-0.8 0.3,-1.1 -0.3,-0.6 -0.7,0.4 -2.2,-0.1 -3.4,-1 -2,-1.6 -2,-2 -0.5,-3 1.2,-0.8 2,-0.7 2.7,0.6 1.3,2.4 4.8,2.3 3.9,-0.1 -0.4,-1.1 0,-2.2 1,-2.6 1,-0.4 1.8,-1.8 1.8,-3.3 0,-2.3 0.4,-2.1 3.7,1.7 2.9,3.4 3.2,3.6 1.7,0.9 -2,-3.5 -1.2,-4.5 1.5,-1.8 1.3,1.2 1.3,1.1 0.3,-0.9 -2.4,-4.4 -4.9,-7.2 -5.7,-6.3 -0.4,0.4 -0.2,1.5 0.6,2.3 1.8,1.9 1.8,3.7 -0.1,2.5 -0.8,-0.5 -1.9,-0.9 -2.5,-1 -0.6,0 -1.3,-0.7 -1.6,-1.7 -0.4,-1 -0.1,-1.3 0.7,-0.8 0.8,0.5 1.6,-0.5 2.1,-2.4 l 0.7,-3.2 2.5,3 c 1.4,1.7 3.1,4.1 3.8,5.3 1.2,2 1.3,2 1.9,-0.5 0.4,-1.5 0.2,-2.5 -0.5,-2.4 -0.7,0.2 -1.5,-0.5 -1.8,-1.4 -0.4,-1 -0.1,-1.4 0.7,-0.8 0.8,0.5 1.1,0.1 0.6,-1.1 -0.4,-1 -0.1,-1.9 0.5,-1.9 0.7,0 1.6,1.7 2,3.7 1.2,5.8 3.1,5.7 2.2,-0.2 -0.9,-6.3 0.5,-5.6 1.9,1 0.7,2.8 0.6,4.9 -0.1,5.3 -0.6,0.4 -0.8,1.8 -0.3,3.1 0.8,2.1 1,2.1 1.7,-0.7 0.5,-1.7 0.9,-5.4 0.9,-8.2 0.1,-2.9 0.6,-5.2 1.1,-5.2 0.6,0 0.8,1.6 0.5,3.5 -0.3,2 0,4.5 0.6,5.7 1,1.9 1.3,1.6 2,-1.6 0.4,-2.1 1.5,-4.1 2.5,-4.4 1.9,-0.8 2.3,1.1 0.5,2.3 -0.7,0.4 -1.2,1.6 -1.2,2.7 0,1.6 0.6,1.4 2.9,-0.9 1.7,-1.6 3,-2.2 3,-1.4 0,0.8 -0.5,1.4 -1.1,1.4 -1.1,0 -4.9,7.6 -4.2,8.4 0.3,0.2 1.6,-0.8 2.9,-2.4 1.3,-1.6 2.3,-2.4 2.3,-1.6 0.1,0.7 -1.2,2.5 -2.9,4.1 -1.6,1.6 -2.9,3.6 -2.9,4.5 0,0.9 -0.5,1.6 -1.2,1.6 -0.7,0 -0.9,0.6 -0.5,1.2 0.4,0.7 -0.6,1.2 -2.2,1.2 -4,0 -6.1,3.2 -6.1,9.5 0,4.4 0.7,5.9 3.3,8.3 3.8,3.3 7,3.7 9,1.2 1,-1.3 2.1,-1.5 3.4,-0.7 1.1,0.6 3.3,1.4 5,1.7 3.9,0.9 5.6,4.4 2.1,4.4 -1.3,0 -2.1,-0.5 -1.7,-1.2 0.4,-0.6 0,-1.5 -0.7,-2 -0.9,-0.5 -1,-0.3 -0.5,0.5 0.5,0.9 0,1.5 -1.3,1.5 -1.9,0.1 -1.9,0.2 0.2,1.2 2.3,1 2.3,1 0,1.2 -1.7,0.1 -1.1,0.6 1.8,1.8 3.7,1.5 3.8,1.7 1.2,1.8 -2.9,0.2 -2.9,0.2 -0.5,1.2 3.6,1.6 4.1,2.9 2.2,5.9 -1.2,1.6 -2.5,2.3 -3.7,1.8 -1.4,-0.5 -1.7,-0.3 -1.1,0.7 0.5,0.8 1.9,1.2 3.1,0.8 1.3,-0.5 2.3,-0.2 2.3,0.5 0,0.7 -0.6,1.4 -1.2,1.5 -2.3,0.3 -2.9,0.5 -4.4,1.4 -1,0.7 -1.5,0.2 -1.5,-1.2 -0.1,-1.3 -0.4,-1.6 -0.7,-0.7 -0.4,0.9 -1.1,1.2 -1.7,0.9 -0.6,-0.4 -0.7,0.3 -0.4,1.5 0.5,1.5 0,1.3 -1.8,-0.9 l -2.4,-3 1.1,3.3 c 1.6,4.4 0.5,4.3 -3.8,-0.6 -2.2,-2.5 -3.6,-3.4 -4,-2.4 -0.3,0.8 -1,1.2 -1.7,0.8 -0.6,-0.4 -1.4,0.4 -1.8,1.8 -0.3,1.4 -1.1,2.6 -1.7,2.6 -0.6,0 -0.8,-1.2 -0.3,-2.6 0.5,-1.8 0.3,-2.3 -0.6,-1.8 -0.7,0.5 -1.3,0.3 -1.3,-0.4 0,-0.7 1.1,-1.8 2.4,-2.5 1.3,-0.8 2.3,-2 2.2,-2.8 0,-1.1 -0.2,-1.1 -0.6,0 -0.4,0.9 -1.3,1.5 -2.2,1.5 -0.9,0 -2.4,3 -3.5,7 -1.1,3.9 -3.3,9.8 -4.8,13 -4.3,8.8 -3.4,9.3 15.2,9.3 8.5,0 16.7,0.2 18.3,0.3 3.4,0.3 4.4,-2.3 2,-5.7 -1.6,-2.3 -1.7,-2.3 -5.4,0.3 -2,1.5 -3.6,2.3 -3.6,1.7 0,-0.5 -2.7,-2.7 -6,-4.6 -4,-2.4 -6.6,-5 -7.7,-7.5 -1.8,-4.5 -2.2,-10.6 -0.5,-7.8 0.8,1.3 1.1,1.3 1.5,0.1 0.3,-0.9 1.1,-1.2 1.9,-0.7 0.8,0.5 1.2,1.9 0.9,3 -0.9,2.8 5,9.4 6.7,7.6 2.1,-2.2 9,-1.6 9.9,0.8 0.4,1.1 1.7,3.5 3,5.3 1.2,1.8 2,4.4 1.9,6 l -0.5,3 -18.5,0.1 c -13.8,0 -19.1,-0.4 -20.8,-1.6 z m 31.1,-6.5 c 1.4,-2.2 -0.1,-2.6 -1.7,-0.6 -1,1.2 -1,1.9 -0.3,1.9 0.7,0 1.6,-0.6 2,-1.3 z m -2.3,-2.4 c 0.5,-0.8 1.8,-1.1 3,-0.8 1.3,0.3 2.3,0 2.3,-0.9 0,-2.9 -1.6,-3.1 -4.3,-0.6 -3.1,3.1 -5.3,2.2 -10.8,-4.3 -2.1,-2.5 -3.7,-3.7 -3.7,-2.8 0,2.4 1.6,4.4 5.9,7.6 4.5,3.3 6.4,3.7 7.6,1.8 z m -0.6,-3.6 c 0,-0.7 -0.3,-1.2 -0.5,-1.2 -0.3,0 -0.9,0.5 -1.3,1.2 -0.4,0.6 -0.1,1.2 0.5,1.2 0.7,0 1.3,-0.6 1.3,-1.2 z m -11,-20.9 c -0.3,-1 -0.6,-0.7 -0.7,0.7 0,1.3 0.3,2 0.7,1.6 0.4,-0.4 0.4,-1.5 0,-2.3 z m 15.7,2.2 c 0,-0.3 -1,-1.2 -2.1,-2.2 -1.8,-1.5 -1.9,-1.4 -0.4,0.5 1.5,2 2.5,2.7 2.5,1.7 z M 506.9,238 c -0.3,-0.4 -1,0.3 -1.4,1.5 -0.7,1.7 -0.5,1.9 0.6,0.7 0.8,-0.8 1.2,-1.8 0.8,-2.2 z m -2.1,-2.1 c 0,-0.7 -0.8,-0.5 -1.7,0.3 -1,0.8 -1.8,2.1 -1.8,2.7 0,0.7 0.8,0.6 1.8,-0.3 0.9,-0.8 1.7,-2 1.7,-2.7 z m -4.7,-8.5 c 0,-0.7 -0.7,-0.6 -1.7,0.3 -1,0.8 -1.8,1.7 -1.8,1.9 0,0.3 0.8,0.1 1.8,-0.3 0.9,-0.3 1.7,-1.2 1.7,-1.9 z m -3.2,-2.9 c -0.8,-0.4 -2.4,-0.4 -3.5,-0.1 -1.1,0.3 -0.5,0.6 1.4,0.6 2,0 2.9,-0.2 2.1,-0.5 z m 2.1,-7.2 c -0.9,-1 -2.1,-1.8 -2.8,-1.8 -0.6,0 -0.2,0.8 1.1,1.8 2.9,2.3 3.5,2.3 1.7,0 z m 1.1,-5.4 c 0,-0.7 -0.5,-1.2 -1.2,-1.2 -0.7,0 -0.9,0.5 -0.5,1.2 0.4,0.6 0.9,1.2 1.2,1.2 0.3,0 0.5,-0.6 0.5,-1.2 z m 6,-16.2 c -1.1,-1.2 -1.3,-1 -0.6,0.7 0.4,1.2 1.1,1.9 1.4,1.5 0.4,-0.4 0,-1.4 -0.8,-2.2 z m -3.1,74.1 c -1.8,-1.5 -2,-2.3 -1,-3.9 0.7,-1.2 2,-2.4 2.9,-2.7 1.2,-0.4 1,0.2 -0.5,1.9 -2,2.4 -2,2.5 0,3.8 1.2,0.7 1.9,1.5 1.5,1.8 -0.4,0.5 -1.7,0 -2.9,-0.9 z M 487.2,238 c 0.8,-1 2,-1.8 2.7,-1.8 0.6,0 0.5,0.8 -0.3,1.8 -0.8,1 -2,1.9 -2.7,1.9 -0.6,0 -0.5,-0.8 0.3,-1.9 z m 42,-2.6 c 0.8,-0.3 2,-0.3 2.8,0 0.9,0.3 0.2,0.6 -1.4,0.6 -1.6,0 -2.3,-0.3 -1.4,-0.6 z M 518.9,224 c 0,-2.2 0.3,-2.6 1.4,-1.4 1.1,1.1 1.1,1.8 0,2.9 -1.1,1.1 -1.4,0.8 -1.4,-1.5 z m -31.7,-24.9 c -0.8,-1.1 -1.1,-2.2 -0.7,-2.7 0.4,-0.4 0.7,-0.1 0.7,0.7 0,0.7 0.6,1.4 1.3,1.4 0.7,0 0.8,-0.7 0.3,-1.5 -0.6,-1.1 -0.2,-1 1.1,0.1 1.1,0.9 1.7,2.1 1.4,2.7 -1,1.6 -2.4,1.4 -4.1,-0.7 z m 12.3,-11.6 c -0.4,-0.6 -0.1,-1.2 0.6,-1.2 0.6,0 1.2,0.6 1.2,1.2 0,0.7 -0.2,1.2 -0.5,1.2 -0.3,0 -0.9,-0.5 -1.3,-1.2 z"
         style="fill:#000000"
         inkscape:connector-curvature="0" />
    </g>
    <g
       id="layer1-9-06"
       inkscape:label="Layer 1"
       transform="matrix(-0.95,0,0,0.95,708.1,787.8)">
      <path
         id="path2890-7"
         d="m 495.4,275.5 c -3,-2.2 -3,-2.7 1.3,-12.7 2,-4.7 3.4,-9.1 3.1,-9.9 -0.3,-0.8 0.2,-3 1.2,-4.9 1.9,-4 1.2,-6 -0.8,-2.1 -0.8,1.4 -1.8,2.3 -2.4,1.9 -0.5,-0.3 -1.3,0.3 -1.7,1.4 -0.4,1.1 -1,1.6 -1.4,1.3 -0.4,-0.4 0.5,-2.5 2,-4.6 2.4,-3.6 2.4,-3.8 0.3,-2.6 -1.3,0.7 -3,2.1 -3.9,3.2 -0.8,1 -2.2,1.9 -3,1.9 -0.9,0 -0.1,-1.7 1.9,-3.9 4.6,-5.2 4.4,-6.6 -0.5,-3.5 -5.7,3.6 -6.6,3.1 -1.9,-1.1 2.3,-2 3.4,-3.6 2.5,-3.6 -1.4,-0.1 -1.4,-0.4 0,-2.2 1.4,-1.9 1.3,-2 -0.2,-0.8 -0.9,0.7 -3.6,1.7 -5.8,2.1 l -4.1,0.7 3.2,-1.8 c 1.8,-1 3.2,-2 3.2,-2.2 0,-0.2 -1.4,-0.2 -3.2,0 -2.8,0.4 -2.9,0.3 -0.9,-0.7 1.7,-0.8 1.9,-1.2 0.6,-1.3 -1,-0.1 -0.5,-0.6 1.1,-1 1.5,-0.5 3.1,-1.6 3.4,-2.5 0.3,-1.2 -0.1,-1.5 -1.5,-0.9 -1.1,0.4 -3.5,1.1 -5.2,1.4 -3,0.6 -3,0.6 -0.4,-0.8 1.4,-0.8 2.6,-1.8 2.6,-2.3 0,-0.5 1.3,-0.6 2.9,-0.3 1.6,0.4 2.9,0 2.9,-0.6 0,-0.7 1,-1.5 2.1,-1.8 1.1,-0.3 -0.8,-0.4 -4.4,-0.3 -6.8,0.3 -8.6,-0.1 -7.6,-1.8 0.3,-0.5 2.4,-0.6 4.6,-0.1 4.6,1.1 8.3,-0.4 4,-1.6 -1.5,-0.4 -4.2,-0.7 -6,-0.7 -1.8,-0.1 -3.2,-0.5 -3.2,-1.1 0,-0.5 0.9,-1 2.1,-1 1.1,0 4.1,-0.1 6.7,-0.2 l 4.7,-0.3 -5.3,-1.9 c -5.5,-2 -8.6,-4.1 -6,-4.1 0.8,0 3,0.9 4.9,1.9 3.1,1.6 3.4,1.6 3.4,0 0,-1 -0.5,-1.9 -1.2,-1.9 -0.7,0 -0.9,-0.6 -0.4,-1.4 0.5,-0.8 0.3,-1.1 -0.3,-0.6 -0.7,0.4 -2.2,-0.1 -3.4,-1 -2,-1.6 -2,-2 -0.5,-3 1.2,-0.8 2,-0.7 2.7,0.6 1.3,2.4 4.8,2.3 3.9,-0.1 -0.4,-1.1 0,-2.2 1,-2.6 1,-0.4 1.8,-1.8 1.8,-3.3 0,-2.3 0.4,-2.1 3.7,1.7 2.9,3.4 3.2,3.6 1.7,0.9 -2,-3.5 -1.2,-4.5 1.5,-1.8 1.3,1.2 1.3,1.1 0.3,-0.9 -2.4,-4.4 -4.9,-7.2 -5.7,-6.3 -0.4,0.4 -0.2,1.5 0.6,2.3 1.8,1.9 1.8,3.7 -0.1,2.5 -0.8,-0.5 -1.9,-0.9 -2.5,-1 -0.6,0 -1.3,-0.7 -1.6,-1.7 -0.4,-1 -0.1,-1.3 0.7,-0.8 0.8,0.5 1.6,-0.5 2.1,-2.4 l 0.7,-3.2 2.5,3 c 1.4,1.7 3.1,4.1 3.8,5.3 1.2,2 1.3,2 1.9,-0.5 0.4,-1.5 0.2,-2.5 -0.5,-2.4 -0.7,0.2 -1.5,-0.5 -1.8,-1.4 -0.4,-1 -0.1,-1.4 0.7,-0.8 0.8,0.5 1.1,0.1 0.6,-1.1 -0.4,-1 -0.1,-1.9 0.5,-1.9 0.7,0 1.6,1.7 2,3.7 1.2,5.8 3.1,5.7 2.2,-0.2 -0.9,-6.3 0.5,-5.6 1.9,1 0.7,2.8 0.6,4.9 -0.1,5.3 -0.6,0.4 -0.8,1.8 -0.3,3.1 0.8,2.1 1,2.1 1.7,-0.7 0.5,-1.7 0.9,-5.4 0.9,-8.2 0.1,-2.9 0.6,-5.2 1.1,-5.2 0.6,0 0.8,1.6 0.5,3.5 -0.3,2 0,4.5 0.6,5.7 1,1.9 1.3,1.6 2,-1.6 0.4,-2.1 1.5,-4.1 2.5,-4.4 1.9,-0.8 2.3,1.1 0.5,2.3 -0.7,0.4 -1.2,1.6 -1.2,2.7 0,1.6 0.6,1.4 2.9,-0.9 1.7,-1.6 3,-2.2 3,-1.4 0,0.8 -0.5,1.4 -1.1,1.4 -1.1,0 -4.9,7.6 -4.2,8.4 0.3,0.2 1.6,-0.8 2.9,-2.4 1.3,-1.6 2.3,-2.4 2.3,-1.6 0.1,0.7 -1.2,2.5 -2.9,4.1 -1.6,1.6 -2.9,3.6 -2.9,4.5 0,0.9 -0.5,1.6 -1.2,1.6 -0.7,0 -0.9,0.6 -0.5,1.2 0.4,0.7 -0.6,1.2 -2.2,1.2 -4,0 -6.1,3.2 -6.1,9.5 0,4.4 0.7,5.9 3.3,8.3 3.8,3.3 7,3.7 9,1.2 1,-1.3 2.1,-1.5 3.4,-0.7 1.1,0.6 3.3,1.4 5,1.7 3.9,0.9 5.6,4.4 2.1,4.4 -1.3,0 -2.1,-0.5 -1.7,-1.2 0.4,-0.6 0,-1.5 -0.7,-2 -0.9,-0.5 -1,-0.3 -0.5,0.5 0.5,0.9 0,1.5 -1.3,1.5 -1.9,0.1 -1.9,0.2 0.2,1.2 2.3,1 2.3,1 0,1.2 -1.7,0.1 -1.1,0.6 1.8,1.8 3.7,1.5 3.8,1.7 1.2,1.8 -2.9,0.2 -2.9,0.2 -0.5,1.2 3.6,1.6 4.1,2.9 2.2,5.9 -1.2,1.6 -2.5,2.3 -3.7,1.8 -1.4,-0.5 -1.7,-0.3 -1.1,0.7 0.5,0.8 1.9,1.2 3.1,0.8 1.3,-0.5 2.3,-0.2 2.3,0.5 0,0.7 -0.6,1.4 -1.2,1.5 -2.3,0.3 -2.9,0.5 -4.4,1.4 -1,0.7 -1.5,0.2 -1.5,-1.2 -0.1,-1.3 -0.4,-1.6 -0.7,-0.7 -0.4,0.9 -1.1,1.2 -1.7,0.9 -0.6,-0.4 -0.7,0.3 -0.4,1.5 0.5,1.5 0,1.3 -1.8,-0.9 l -2.4,-3 1.1,3.3 c 1.6,4.4 0.5,4.3 -3.8,-0.6 -2.2,-2.5 -3.6,-3.4 -4,-2.4 -0.3,0.8 -1,1.2 -1.7,0.8 -0.6,-0.4 -1.4,0.4 -1.8,1.8 -0.3,1.4 -1.1,2.6 -1.7,2.6 -0.6,0 -0.8,-1.2 -0.3,-2.6 0.5,-1.8 0.3,-2.3 -0.6,-1.8 -0.7,0.5 -1.3,0.3 -1.3,-0.4 0,-0.7 1.1,-1.8 2.4,-2.5 1.3,-0.8 2.3,-2 2.2,-2.8 0,-1.1 -0.2,-1.1 -0.6,0 -0.4,0.9 -1.3,1.5 -2.2,1.5 -0.9,0 -2.4,3 -3.5,7 -1.1,3.9 -3.3,9.8 -4.8,13 -4.3,8.8 -3.4,9.3 15.2,9.3 8.5,0 16.7,0.2 18.3,0.3 3.4,0.3 4.4,-2.3 2,-5.7 -1.6,-2.3 -1.7,-2.3 -5.4,0.3 -2,1.5 -3.6,2.3 -3.6,1.7 0,-0.5 -2.7,-2.7 -6,-4.6 -4,-2.4 -6.6,-5 -7.7,-7.5 -1.8,-4.5 -2.2,-10.6 -0.5,-7.8 0.8,1.3 1.1,1.3 1.5,0.1 0.3,-0.9 1.1,-1.2 1.9,-0.7 0.8,0.5 1.2,1.9 0.9,3 -0.9,2.8 5,9.4 6.7,7.6 2.1,-2.2 9,-1.6 9.9,0.8 0.4,1.1 1.7,3.5 3,5.3 1.2,1.8 2,4.4 1.9,6 l -0.5,3 -18.5,0.1 c -13.8,0 -19.1,-0.4 -20.8,-1.6 z m 31.1,-6.5 c 1.4,-2.2 -0.1,-2.6 -1.7,-0.6 -1,1.2 -1,1.9 -0.3,1.9 0.7,0 1.6,-0.6 2,-1.3 z m -2.3,-2.4 c 0.5,-0.8 1.8,-1.1 3,-0.8 1.3,0.3 2.3,0 2.3,-0.9 0,-2.9 -1.6,-3.1 -4.3,-0.6 -3.1,3.1 -5.3,2.2 -10.8,-4.3 -2.1,-2.5 -3.7,-3.7 -3.7,-2.8 0,2.4 1.6,4.4 5.9,7.6 4.5,3.3 6.4,3.7 7.6,1.8 z m -0.6,-3.6 c 0,-0.7 -0.3,-1.2 -0.5,-1.2 -0.3,0 -0.9,0.5 -1.3,1.2 -0.4,0.6 -0.1,1.2 0.5,1.2 0.7,0 1.3,-0.6 1.3,-1.2 z m -11,-20.9 c -0.3,-1 -0.6,-0.7 -0.7,0.7 0,1.3 0.3,2 0.7,1.6 0.4,-0.4 0.4,-1.5 0,-2.3 z m 15.7,2.2 c 0,-0.3 -1,-1.2 -2.1,-2.2 -1.8,-1.5 -1.9,-1.4 -0.4,0.5 1.5,2 2.5,2.7 2.5,1.7 z M 506.9,238 c -0.3,-0.4 -1,0.3 -1.4,1.5 -0.7,1.7 -0.5,1.9 0.6,0.7 0.8,-0.8 1.2,-1.8 0.8,-2.2 z m -2.1,-2.1 c 0,-0.7 -0.8,-0.5 -1.7,0.3 -1,0.8 -1.8,2.1 -1.8,2.7 0,0.7 0.8,0.6 1.8,-0.3 0.9,-0.8 1.7,-2 1.7,-2.7 z m -4.7,-8.5 c 0,-0.7 -0.7,-0.6 -1.7,0.3 -1,0.8 -1.8,1.7 -1.8,1.9 0,0.3 0.8,0.1 1.8,-0.3 0.9,-0.3 1.7,-1.2 1.7,-1.9 z m -3.2,-2.9 c -0.8,-0.4 -2.4,-0.4 -3.5,-0.1 -1.1,0.3 -0.5,0.6 1.4,0.6 2,0 2.9,-0.2 2.1,-0.5 z m 2.1,-7.2 c -0.9,-1 -2.1,-1.8 -2.8,-1.8 -0.6,0 -0.2,0.8 1.1,1.8 2.9,2.3 3.5,2.3 1.7,0 z m 1.1,-5.4 c 0,-0.7 -0.5,-1.2 -1.2,-1.2 -0.7,0 -0.9,0.5 -0.5,1.2 0.4,0.6 0.9,1.2 1.2,1.2 0.3,0 0.5,-0.6 0.5,-1.2 z m 6,-16.2 c -1.1,-1.2 -1.3,-1 -0.6,0.7 0.4,1.2 1.1,1.9 1.4,1.5 0.4,-0.4 0,-1.4 -0.8,-2.2 z m -3.1,74.1 c -1.8,-1.5 -2,-2.3 -1,-3.9 0.7,-1.2 2,-2.4 2.9,-2.7 1.2,-0.4 1,0.2 -0.5,1.9 -2,2.4 -2,2.5 0,3.8 1.2,0.7 1.9,1.5 1.5,1.8 -0.4,0.5 -1.7,0 -2.9,-0.9 z M 487.2,238 c 0.8,-1 2,-1.8 2.7,-1.8 0.6,0 0.5,0.8 -0.3,1.8 -0.8,1 -2,1.9 -2.7,1.9 -0.6,0 -0.5,-0.8 0.3,-1.9 z m 42,-2.6 c 0.8,-0.3 2,-0.3 2.8,0 0.9,0.3 0.2,0.6 -1.4,0.6 -1.6,0 -2.3,-0.3 -1.4,-0.6 z M 518.9,224 c 0,-2.2 0.3,-2.6 1.4,-1.4 1.1,1.1 1.1,1.8 0,2.9 -1.1,1.1 -1.4,0.8 -1.4,-1.5 z m -31.7,-24.9 c -0.8,-1.1 -1.1,-2.2 -0.7,-2.7 0.4,-0.4 0.7,-0.1 0.7,0.7 0,0.7 0.6,1.4 1.3,1.4 0.7,0 0.8,-0.7 0.3,-1.5 -0.6,-1.1 -0.2,-1 1.1,0.1 1.1,0.9 1.7,2.1 1.4,2.7 -1,1.6 -2.4,1.4 -4.1,-0.7 z m 12.3,-11.6 c -0.4,-0.6 -0.1,-1.2 0.6,-1.2 0.6,0 1.2,0.6 1.2,1.2 0,0.7 -0.2,1.2 -0.5,1.2 -0.3,0 -0.9,-0.5 -1.3,-1.2 z"
         style="fill:#000000"
         inkscape:connector-curvature="0" />
    </g>
    <g
       id="layer1-9-06-6"
       inkscape:label="Layer 1"
       transform="matrix(-0.95,0,0,0.95,706.5,608.8)">
      <path
         id="path2890-7-7"
         d="m 495.4,275.5 c -3,-2.2 -3,-2.7 1.3,-12.7 2,-4.7 3.4,-9.1 3.1,-9.9 -0.3,-0.8 0.2,-3 1.2,-4.9 1.9,-4 1.2,-6 -0.8,-2.1 -0.8,1.4 -1.8,2.3 -2.4,1.9 -0.5,-0.3 -1.3,0.3 -1.7,1.4 -0.4,1.1 -1,1.6 -1.4,1.3 -0.4,-0.4 0.5,-2.5 2,-4.6 2.4,-3.6 2.4,-3.8 0.3,-2.6 -1.3,0.7 -3,2.1 -3.9,3.2 -0.8,1 -2.2,1.9 -3,1.9 -0.9,0 -0.1,-1.7 1.9,-3.9 4.6,-5.2 4.4,-6.6 -0.5,-3.5 -5.7,3.6 -6.6,3.1 -1.9,-1.1 2.3,-2 3.4,-3.6 2.5,-3.6 -1.4,-0.1 -1.4,-0.4 0,-2.2 1.4,-1.9 1.3,-2 -0.2,-0.8 -0.9,0.7 -3.6,1.7 -5.8,2.1 l -4.1,0.7 3.2,-1.8 c 1.8,-1 3.2,-2 3.2,-2.2 0,-0.2 -1.4,-0.2 -3.2,0 -2.8,0.4 -2.9,0.3 -0.9,-0.7 1.7,-0.8 1.9,-1.2 0.6,-1.3 -1,-0.1 -0.5,-0.6 1.1,-1 1.5,-0.5 3.1,-1.6 3.4,-2.5 0.3,-1.2 -0.1,-1.5 -1.5,-0.9 -1.1,0.4 -3.5,1.1 -5.2,1.4 -3,0.6 -3,0.6 -0.4,-0.8 1.4,-0.8 2.6,-1.8 2.6,-2.3 0,-0.5 1.3,-0.6 2.9,-0.3 1.6,0.4 2.9,0 2.9,-0.6 0,-0.7 1,-1.5 2.1,-1.8 1.1,-0.3 -0.8,-0.4 -4.4,-0.3 -6.8,0.3 -8.6,-0.1 -7.6,-1.8 0.3,-0.5 2.4,-0.6 4.6,-0.1 4.6,1.1 8.3,-0.4 4,-1.6 -1.5,-0.4 -4.2,-0.7 -6,-0.7 -1.8,-0.1 -3.2,-0.5 -3.2,-1.1 0,-0.5 0.9,-1 2.1,-1 1.1,0 4.1,-0.1 6.7,-0.2 l 4.7,-0.3 -5.3,-1.9 c -5.5,-2 -8.6,-4.1 -6,-4.1 0.8,0 3,0.9 4.9,1.9 3.1,1.6 3.4,1.6 3.4,0 0,-1 -0.5,-1.9 -1.2,-1.9 -0.7,0 -0.9,-0.6 -0.4,-1.4 0.5,-0.8 0.3,-1.1 -0.3,-0.6 -0.7,0.4 -2.2,-0.1 -3.4,-1 -2,-1.6 -2,-2 -0.5,-3 1.2,-0.8 2,-0.7 2.7,0.6 1.3,2.4 4.8,2.3 3.9,-0.1 -0.4,-1.1 0,-2.2 1,-2.6 1,-0.4 1.8,-1.8 1.8,-3.3 0,-2.3 0.4,-2.1 3.7,1.7 2.9,3.4 3.2,3.6 1.7,0.9 -2,-3.5 -1.2,-4.5 1.5,-1.8 1.3,1.2 1.3,1.1 0.3,-0.9 -2.4,-4.4 -4.9,-7.2 -5.7,-6.3 -0.4,0.4 -0.2,1.5 0.6,2.3 1.8,1.9 1.8,3.7 -0.1,2.5 -0.8,-0.5 -1.9,-0.9 -2.5,-1 -0.6,0 -1.3,-0.7 -1.6,-1.7 -0.4,-1 -0.1,-1.3 0.7,-0.8 0.8,0.5 1.6,-0.5 2.1,-2.4 l 0.7,-3.2 2.5,3 c 1.4,1.7 3.1,4.1 3.8,5.3 1.2,2 1.3,2 1.9,-0.5 0.4,-1.5 0.2,-2.5 -0.5,-2.4 -0.7,0.2 -1.5,-0.5 -1.8,-1.4 -0.4,-1 -0.1,-1.4 0.7,-0.8 0.8,0.5 1.1,0.1 0.6,-1.1 -0.4,-1 -0.1,-1.9 0.5,-1.9 0.7,0 1.6,1.7 2,3.7 1.2,5.8 3.1,5.7 2.2,-0.2 -0.9,-6.3 0.5,-5.6 1.9,1 0.7,2.8 0.6,4.9 -0.1,5.3 -0.6,0.4 -0.8,1.8 -0.3,3.1 0.8,2.1 1,2.1 1.7,-0.7 0.5,-1.7 0.9,-5.4 0.9,-8.2 0.1,-2.9 0.6,-5.2 1.1,-5.2 0.6,0 0.8,1.6 0.5,3.5 -0.3,2 0,4.5 0.6,5.7 1,1.9 1.3,1.6 2,-1.6 0.4,-2.1 1.5,-4.1 2.5,-4.4 1.9,-0.8 2.3,1.1 0.5,2.3 -0.7,0.4 -1.2,1.6 -1.2,2.7 0,1.6 0.6,1.4 2.9,-0.9 1.7,-1.6 3,-2.2 3,-1.4 0,0.8 -0.5,1.4 -1.1,1.4 -1.1,0 -4.9,7.6 -4.2,8.4 0.3,0.2 1.6,-0.8 2.9,-2.4 1.3,-1.6 2.3,-2.4 2.3,-1.6 0.1,0.7 -1.2,2.5 -2.9,4.1 -1.6,1.6 -2.9,3.6 -2.9,4.5 0,0.9 -0.5,1.6 -1.2,1.6 -0.7,0 -0.9,0.6 -0.5,1.2 0.4,0.7 -0.6,1.2 -2.2,1.2 -4,0 -6.1,3.2 -6.1,9.5 0,4.4 0.7,5.9 3.3,8.3 3.8,3.3 7,3.7 9,1.2 1,-1.3 2.1,-1.5 3.4,-0.7 1.1,0.6 3.3,1.4 5,1.7 3.9,0.9 5.6,4.4 2.1,4.4 -1.3,0 -2.1,-0.5 -1.7,-1.2 0.4,-0.6 0,-1.5 -0.7,-2 -0.9,-0.5 -1,-0.3 -0.5,0.5 0.5,0.9 0,1.5 -1.3,1.5 -1.9,0.1 -1.9,0.2 0.2,1.2 2.3,1 2.3,1 0,1.2 -1.7,0.1 -1.1,0.6 1.8,1.8 3.7,1.5 3.8,1.7 1.2,1.8 -2.9,0.2 -2.9,0.2 -0.5,1.2 3.6,1.6 4.1,2.9 2.2,5.9 -1.2,1.6 -2.5,2.3 -3.7,1.8 -1.4,-0.5 -1.7,-0.3 -1.1,0.7 0.5,0.8 1.9,1.2 3.1,0.8 1.3,-0.5 2.3,-0.2 2.3,0.5 0,0.7 -0.6,1.4 -1.2,1.5 -2.3,0.3 -2.9,0.5 -4.4,1.4 -1,0.7 -1.5,0.2 -1.5,-1.2 -0.1,-1.3 -0.4,-1.6 -0.7,-0.7 -0.4,0.9 -1.1,1.2 -1.7,0.9 -0.6,-0.4 -0.7,0.3 -0.4,1.5 0.5,1.5 0,1.3 -1.8,-0.9 l -2.4,-3 1.1,3.3 c 1.6,4.4 0.5,4.3 -3.8,-0.6 -2.2,-2.5 -3.6,-3.4 -4,-2.4 -0.3,0.8 -1,1.2 -1.7,0.8 -0.6,-0.4 -1.4,0.4 -1.8,1.8 -0.3,1.4 -1.1,2.6 -1.7,2.6 -0.6,0 -0.8,-1.2 -0.3,-2.6 0.5,-1.8 0.3,-2.3 -0.6,-1.8 -0.7,0.5 -1.3,0.3 -1.3,-0.4 0,-0.7 1.1,-1.8 2.4,-2.5 1.3,-0.8 2.3,-2 2.2,-2.8 0,-1.1 -0.2,-1.1 -0.6,0 -0.4,0.9 -1.3,1.5 -2.2,1.5 -0.9,0 -2.4,3 -3.5,7 -1.1,3.9 -3.3,9.8 -4.8,13 -4.3,8.8 -3.4,9.3 15.2,9.3 8.5,0 16.7,0.2 18.3,0.3 3.4,0.3 4.4,-2.3 2,-5.7 -1.6,-2.3 -1.7,-2.3 -5.4,0.3 -2,1.5 -3.6,2.3 -3.6,1.7 0,-0.5 -2.7,-2.7 -6,-4.6 -4,-2.4 -6.6,-5 -7.7,-7.5 -1.8,-4.5 -2.2,-10.6 -0.5,-7.8 0.8,1.3 1.1,1.3 1.5,0.1 0.3,-0.9 1.1,-1.2 1.9,-0.7 0.8,0.5 1.2,1.9 0.9,3 -0.9,2.8 5,9.4 6.7,7.6 2.1,-2.2 9,-1.6 9.9,0.8 0.4,1.1 1.7,3.5 3,5.3 1.2,1.8 2,4.4 1.9,6 l -0.5,3 -18.5,0.1 c -13.8,0 -19.1,-0.4 -20.8,-1.6 z m 31.1,-6.5 c 1.4,-2.2 -0.1,-2.6 -1.7,-0.6 -1,1.2 -1,1.9 -0.3,1.9 0.7,0 1.6,-0.6 2,-1.3 z m -2.3,-2.4 c 0.5,-0.8 1.8,-1.1 3,-0.8 1.3,0.3 2.3,0 2.3,-0.9 0,-2.9 -1.6,-3.1 -4.3,-0.6 -3.1,3.1 -5.3,2.2 -10.8,-4.3 -2.1,-2.5 -3.7,-3.7 -3.7,-2.8 0,2.4 1.6,4.4 5.9,7.6 4.5,3.3 6.4,3.7 7.6,1.8 z m -0.6,-3.6 c 0,-0.7 -0.3,-1.2 -0.5,-1.2 -0.3,0 -0.9,0.5 -1.3,1.2 -0.4,0.6 -0.1,1.2 0.5,1.2 0.7,0 1.3,-0.6 1.3,-1.2 z m -11,-20.9 c -0.3,-1 -0.6,-0.7 -0.7,0.7 0,1.3 0.3,2 0.7,1.6 0.4,-0.4 0.4,-1.5 0,-2.3 z m 15.7,2.2 c 0,-0.3 -1,-1.2 -2.1,-2.2 -1.8,-1.5 -1.9,-1.4 -0.4,0.5 1.5,2 2.5,2.7 2.5,1.7 z M 506.9,238 c -0.3,-0.4 -1,0.3 -1.4,1.5 -0.7,1.7 -0.5,1.9 0.6,0.7 0.8,-0.8 1.2,-1.8 0.8,-2.2 z m -2.1,-2.1 c 0,-0.7 -0.8,-0.5 -1.7,0.3 -1,0.8 -1.8,2.1 -1.8,2.7 0,0.7 0.8,0.6 1.8,-0.3 0.9,-0.8 1.7,-2 1.7,-2.7 z m -4.7,-8.5 c 0,-0.7 -0.7,-0.6 -1.7,0.3 -1,0.8 -1.8,1.7 -1.8,1.9 0,0.3 0.8,0.1 1.8,-0.3 0.9,-0.3 1.7,-1.2 1.7,-1.9 z m -3.2,-2.9 c -0.8,-0.4 -2.4,-0.4 -3.5,-0.1 -1.1,0.3 -0.5,0.6 1.4,0.6 2,0 2.9,-0.2 2.1,-0.5 z m 2.1,-7.2 c -0.9,-1 -2.1,-1.8 -2.8,-1.8 -0.6,0 -0.2,0.8 1.1,1.8 2.9,2.3 3.5,2.3 1.7,0 z m 1.1,-5.4 c 0,-0.7 -0.5,-1.2 -1.2,-1.2 -0.7,0 -0.9,0.5 -0.5,1.2 0.4,0.6 0.9,1.2 1.2,1.2 0.3,0 0.5,-0.6 0.5,-1.2 z m 6,-16.2 c -1.1,-1.2 -1.3,-1 -0.6,0.7 0.4,1.2 1.1,1.9 1.4,1.5 0.4,-0.4 0,-1.4 -0.8,-2.2 z m -3.1,74.1 c -1.8,-1.5 -2,-2.3 -1,-3.9 0.7,-1.2 2,-2.4 2.9,-2.7 1.2,-0.4 1,0.2 -0.5,1.9 -2,2.4 -2,2.5 0,3.8 1.2,0.7 1.9,1.5 1.5,1.8 -0.4,0.5 -1.7,0 -2.9,-0.9 z M 487.2,238 c 0.8,-1 2,-1.8 2.7,-1.8 0.6,0 0.5,0.8 -0.3,1.8 -0.8,1 -2,1.9 -2.7,1.9 -0.6,0 -0.5,-0.8 0.3,-1.9 z m 42,-2.6 c 0.8,-0.3 2,-0.3 2.8,0 0.9,0.3 0.2,0.6 -1.4,0.6 -1.6,0 -2.3,-0.3 -1.4,-0.6 z M 518.9,224 c 0,-2.2 0.3,-2.6 1.4,-1.4 1.1,1.1 1.1,1.8 0,2.9 -1.1,1.1 -1.4,0.8 -1.4,-1.5 z m -31.7,-24.9 c -0.8,-1.1 -1.1,-2.2 -0.7,-2.7 0.4,-0.4 0.7,-0.1 0.7,0.7 0,0.7 0.6,1.4 1.3,1.4 0.7,0 0.8,-0.7 0.3,-1.5 -0.6,-1.1 -0.2,-1 1.1,0.1 1.1,0.9 1.7,2.1 1.4,2.7 -1,1.6 -2.4,1.4 -4.1,-0.7 z m 12.3,-11.6 c -0.4,-0.6 -0.1,-1.2 0.6,-1.2 0.6,0 1.2,0.6 1.2,1.2 0,0.7 -0.2,1.2 -0.5,1.2 -0.3,0 -0.9,-0.5 -1.3,-1.2 z"
         style="fill:#000000"
         inkscape:connector-curvature="0" />
    </g>
  </g>
</svg>
